G04 (created by PCBNEW (2013-07-07 BZR 4022)-stable) date 02/05/2014 20:54:29*
%MOIN*%
G04 Gerber Fmt 3.4, Leading zero omitted, Abs format*
%FSLAX34Y34*%
G01*
G70*
G90*
G04 APERTURE LIST*
%ADD10C,0.00590551*%
%ADD11C,0.15*%
%ADD12R,0.06X0.06*%
%ADD13C,0.06*%
%ADD14C,0.0859*%
%ADD15R,0.055X0.035*%
%ADD16R,0.035X0.055*%
%ADD17C,0.215*%
%ADD18R,0.062X0.09*%
%ADD19O,0.062X0.09*%
%ADD20C,0.055*%
%ADD21R,0.055X0.055*%
%ADD22C,0.035*%
%ADD23C,0.01*%
G04 APERTURE END LIST*
G54D10*
G54D11*
X38375Y-20675D03*
X38375Y-10675D03*
G54D12*
X37375Y-17825D03*
G54D13*
X37375Y-16725D03*
X37375Y-15625D03*
X37375Y-14575D03*
X37375Y-13475D03*
X38375Y-14025D03*
X38375Y-15125D03*
X38375Y-16175D03*
X38375Y-17275D03*
G54D14*
X33875Y-8125D03*
X35843Y-10093D03*
X34859Y-10093D03*
X32891Y-10093D03*
X31907Y-10093D03*
G54D15*
X12875Y-14000D03*
X12875Y-13250D03*
G54D16*
X13000Y-15625D03*
X12250Y-15625D03*
X11250Y-13625D03*
X12000Y-13625D03*
X11250Y-14625D03*
X12000Y-14625D03*
X11250Y-12625D03*
X12000Y-12625D03*
X26000Y-9875D03*
X26750Y-9875D03*
G54D12*
X34875Y-24125D03*
G54D13*
X34875Y-25125D03*
X33875Y-24125D03*
X33875Y-25125D03*
X32875Y-24125D03*
X32875Y-25125D03*
X31875Y-24125D03*
X31875Y-25125D03*
X30875Y-24125D03*
X30875Y-25125D03*
X29875Y-24125D03*
X29875Y-25125D03*
X28875Y-24125D03*
X28875Y-25125D03*
X27875Y-24125D03*
X27875Y-25125D03*
X26875Y-24125D03*
X26875Y-25125D03*
X25875Y-24125D03*
X25875Y-25125D03*
G54D17*
X38375Y-24525D03*
G54D13*
X24875Y-24125D03*
X24875Y-25125D03*
X23875Y-24125D03*
X23875Y-25125D03*
X22875Y-24125D03*
X22875Y-25125D03*
X21875Y-24125D03*
X21875Y-25125D03*
X20875Y-24125D03*
X20875Y-25125D03*
X19875Y-24125D03*
X19875Y-25125D03*
X18875Y-24125D03*
X18875Y-25125D03*
X17875Y-24125D03*
X17875Y-25125D03*
X16875Y-24125D03*
X16875Y-25125D03*
X15875Y-24125D03*
X15875Y-25125D03*
X14875Y-24125D03*
X14875Y-25125D03*
X13875Y-24125D03*
X13875Y-25125D03*
X12875Y-24125D03*
X12875Y-25125D03*
X11875Y-24125D03*
X11875Y-25125D03*
X10875Y-24125D03*
X10875Y-25125D03*
G54D17*
X7375Y-24525D03*
G54D18*
X10875Y-16875D03*
G54D19*
X11875Y-16875D03*
X12875Y-16875D03*
X13875Y-16875D03*
X14875Y-16875D03*
X15875Y-16875D03*
X16875Y-16875D03*
X17875Y-16875D03*
X18875Y-16875D03*
X19875Y-16875D03*
X20875Y-16875D03*
X21875Y-16875D03*
X22875Y-16875D03*
X23875Y-16875D03*
X24875Y-16875D03*
X25875Y-16875D03*
X26875Y-16875D03*
X27875Y-16875D03*
X28875Y-16875D03*
X29875Y-16875D03*
X29875Y-10875D03*
X28875Y-10875D03*
X27875Y-10875D03*
X26875Y-10875D03*
X25875Y-10875D03*
X24875Y-10875D03*
X23875Y-10875D03*
X22875Y-10875D03*
X21875Y-10875D03*
X20875Y-10875D03*
X19875Y-10875D03*
X18875Y-10875D03*
X17875Y-10875D03*
X16875Y-10875D03*
X15875Y-10875D03*
X14875Y-10875D03*
X13875Y-10875D03*
X12875Y-10875D03*
X11875Y-10875D03*
X10875Y-10875D03*
G54D20*
X35125Y-22125D03*
X35125Y-20125D03*
G54D21*
X32875Y-12875D03*
G54D20*
X32875Y-11875D03*
G54D21*
X34875Y-12875D03*
G54D20*
X34875Y-11875D03*
G54D21*
X14375Y-9375D03*
G54D20*
X15375Y-9375D03*
X16375Y-9375D03*
X17375Y-9375D03*
X18375Y-9375D03*
X19375Y-9375D03*
X20375Y-9375D03*
X21375Y-9375D03*
X22375Y-9375D03*
X23375Y-9375D03*
G54D22*
X11875Y-21375D03*
X12625Y-18125D03*
X14625Y-21375D03*
X14625Y-18125D03*
X32875Y-18625D03*
X17625Y-23375D03*
X12875Y-22625D03*
X22875Y-21125D03*
X27625Y-20125D03*
X23375Y-19375D03*
G54D23*
X27875Y-10875D02*
X27875Y-9375D01*
X18375Y-24625D02*
X18875Y-24125D01*
X10375Y-24625D02*
X18375Y-24625D01*
X10125Y-24375D02*
X10375Y-24625D01*
X10125Y-9125D02*
X10125Y-24375D01*
X10625Y-8625D02*
X10125Y-9125D01*
X27125Y-8625D02*
X10625Y-8625D01*
X27875Y-9375D02*
X27125Y-8625D01*
X12250Y-15625D02*
X12250Y-14875D01*
X12250Y-14875D02*
X12000Y-14625D01*
X12875Y-16875D02*
X12875Y-16625D01*
X12250Y-16000D02*
X12250Y-15625D01*
X12875Y-16625D02*
X12250Y-16000D01*
X12875Y-14000D02*
X12375Y-14000D01*
X12375Y-14000D02*
X12000Y-13625D01*
X13000Y-15625D02*
X13000Y-14125D01*
X13000Y-14125D02*
X12875Y-14000D01*
X13000Y-14125D02*
X13125Y-14000D01*
X13875Y-16875D02*
X13875Y-16500D01*
X13875Y-16500D02*
X13000Y-15625D01*
X12000Y-12625D02*
X12875Y-12625D01*
X12875Y-12625D02*
X12875Y-12875D01*
X12875Y-10875D02*
X12875Y-12875D01*
X12875Y-12875D02*
X12875Y-13250D01*
X12625Y-18125D02*
X12625Y-20625D01*
X12625Y-20625D02*
X12375Y-20875D01*
X11875Y-21375D02*
X12375Y-20875D01*
X14625Y-21375D02*
X14625Y-18125D01*
X14625Y-18125D02*
X14625Y-18125D01*
X28875Y-14625D02*
X28875Y-10875D01*
X32875Y-18625D02*
X28875Y-14625D01*
X19125Y-23375D02*
X15125Y-19375D01*
X19875Y-24125D02*
X19125Y-23375D01*
X15125Y-19375D02*
X15125Y-18875D01*
X14375Y-17375D02*
X15125Y-18125D01*
X15125Y-18125D02*
X15125Y-18875D01*
X13875Y-10875D02*
X13875Y-15625D01*
X13875Y-15625D02*
X14375Y-16125D01*
X14375Y-16125D02*
X14375Y-17375D01*
X19625Y-23125D02*
X15375Y-18875D01*
X15375Y-18625D02*
X15375Y-18875D01*
X15375Y-16125D02*
X15375Y-18625D01*
X14875Y-15625D02*
X15375Y-16125D01*
X14875Y-10875D02*
X14875Y-15625D01*
X19625Y-23125D02*
X20375Y-23875D01*
X19875Y-25125D02*
X20375Y-24625D01*
X20375Y-24625D02*
X20375Y-23875D01*
X20125Y-22875D02*
X16375Y-19125D01*
X15875Y-10875D02*
X15875Y-15625D01*
X16375Y-16125D02*
X16375Y-19125D01*
X15875Y-15625D02*
X16375Y-16125D01*
X20125Y-22875D02*
X20875Y-23625D01*
X20875Y-24125D02*
X20875Y-23625D01*
X21375Y-23625D02*
X21375Y-23375D01*
X21375Y-23375D02*
X17375Y-19375D01*
X21375Y-24625D02*
X21375Y-23625D01*
X20875Y-25125D02*
X21375Y-24625D01*
X17375Y-16125D02*
X17375Y-19375D01*
X16875Y-15625D02*
X16875Y-10875D01*
X16875Y-15625D02*
X17375Y-16125D01*
X21875Y-23625D02*
X21875Y-23125D01*
X21875Y-23125D02*
X18375Y-19625D01*
X21875Y-24125D02*
X21875Y-23625D01*
X18375Y-19625D02*
X18375Y-16125D01*
X17875Y-15625D02*
X17875Y-10875D01*
X17875Y-15625D02*
X18375Y-16125D01*
X22375Y-22875D02*
X19375Y-19875D01*
X18875Y-10875D02*
X18875Y-15625D01*
X18875Y-15625D02*
X19375Y-16125D01*
X19375Y-16125D02*
X19375Y-19875D01*
X21875Y-25125D02*
X22375Y-24625D01*
X22375Y-24625D02*
X22375Y-22875D01*
X20375Y-20125D02*
X20375Y-15875D01*
X22875Y-24125D02*
X22875Y-22625D01*
X19875Y-15375D02*
X20375Y-15875D01*
X19875Y-15375D02*
X19875Y-10875D01*
X20375Y-20125D02*
X22875Y-22625D01*
X21375Y-20375D02*
X21375Y-15875D01*
X21375Y-20375D02*
X23375Y-22375D01*
X20875Y-10875D02*
X20875Y-15375D01*
X20875Y-15375D02*
X21375Y-15875D01*
X23375Y-24625D02*
X22875Y-25125D01*
X23375Y-24625D02*
X23375Y-22375D01*
X25875Y-17875D02*
X30875Y-17875D01*
X30875Y-17875D02*
X32125Y-19125D01*
X36875Y-19125D02*
X37625Y-18375D01*
X32125Y-19125D02*
X36875Y-19125D01*
X38375Y-17275D02*
X38375Y-18125D01*
X38125Y-18375D02*
X37625Y-18375D01*
X38375Y-18125D02*
X38125Y-18375D01*
X25875Y-17875D02*
X24875Y-16875D01*
X25375Y-18375D02*
X29875Y-18375D01*
X29875Y-18375D02*
X30875Y-19375D01*
X37375Y-19375D02*
X37875Y-18875D01*
X30875Y-19375D02*
X37375Y-19375D01*
X38375Y-16175D02*
X38425Y-16175D01*
X38625Y-18875D02*
X37875Y-18875D01*
X39125Y-18375D02*
X38625Y-18875D01*
X39125Y-16875D02*
X39125Y-18375D01*
X38425Y-16175D02*
X39125Y-16875D01*
X25375Y-18375D02*
X23875Y-16875D01*
X22375Y-10125D02*
X22375Y-9375D01*
X22375Y-10000D02*
X22375Y-10125D01*
X22375Y-10125D02*
X22375Y-10375D01*
X22875Y-15875D02*
X22375Y-15375D01*
X22375Y-15375D02*
X22375Y-10375D01*
X22875Y-15875D02*
X22875Y-16875D01*
X21375Y-10375D02*
X21375Y-9375D01*
X21875Y-16875D02*
X21875Y-15875D01*
X21375Y-15375D02*
X21375Y-10375D01*
X21375Y-10375D02*
X21375Y-10125D01*
X21875Y-15875D02*
X21375Y-15375D01*
X20375Y-9375D02*
X20375Y-10125D01*
X20875Y-15875D02*
X20375Y-15375D01*
X20375Y-15375D02*
X20375Y-10125D01*
X20875Y-15875D02*
X20875Y-16875D01*
X19375Y-10125D02*
X19375Y-9375D01*
X19375Y-10000D02*
X19375Y-10125D01*
X19375Y-10125D02*
X19375Y-10375D01*
X19875Y-16125D02*
X19375Y-15625D01*
X19375Y-15625D02*
X19375Y-10375D01*
X19875Y-16125D02*
X19875Y-16875D01*
X18375Y-9375D02*
X18375Y-10125D01*
X18875Y-16125D02*
X18375Y-15625D01*
X18375Y-15625D02*
X18375Y-10125D01*
X18875Y-16125D02*
X18875Y-16875D01*
X17375Y-9375D02*
X17375Y-10125D01*
X17875Y-16125D02*
X17375Y-15625D01*
X17375Y-15625D02*
X17375Y-10125D01*
X17875Y-16125D02*
X17875Y-16875D01*
X16375Y-9375D02*
X16375Y-10125D01*
X16875Y-16125D02*
X16375Y-15625D01*
X16375Y-15625D02*
X16375Y-10125D01*
X16875Y-16125D02*
X16875Y-16875D01*
X15375Y-9375D02*
X15375Y-10125D01*
X15875Y-16125D02*
X15375Y-15625D01*
X15375Y-15625D02*
X15375Y-10125D01*
X15875Y-16125D02*
X15875Y-16875D01*
X10875Y-25125D02*
X10875Y-25375D01*
X33375Y-25625D02*
X33875Y-25125D01*
X11125Y-25625D02*
X33375Y-25625D01*
X10875Y-25375D02*
X11125Y-25625D01*
X26750Y-9875D02*
X26750Y-10750D01*
X26750Y-10750D02*
X26875Y-10875D01*
X26750Y-9875D02*
X26750Y-9250D01*
X23625Y-9125D02*
X23375Y-9375D01*
X26625Y-9125D02*
X23625Y-9125D01*
X26750Y-9250D02*
X26625Y-9125D01*
X10875Y-24125D02*
X10875Y-18375D01*
X11375Y-14750D02*
X11250Y-14625D01*
X11375Y-17875D02*
X11375Y-14750D01*
X10875Y-18375D02*
X11375Y-17875D01*
X11250Y-13625D02*
X11250Y-12625D01*
X11250Y-14625D02*
X11250Y-13625D01*
X38375Y-14025D02*
X38375Y-12625D01*
X35375Y-8125D02*
X33875Y-8125D01*
X36875Y-9625D02*
X35375Y-8125D01*
X36875Y-11125D02*
X36875Y-9625D01*
X38375Y-12625D02*
X36875Y-11125D01*
X38375Y-15125D02*
X38375Y-14025D01*
X35125Y-20125D02*
X37125Y-20125D01*
X39875Y-16625D02*
X38375Y-15125D01*
X39875Y-18375D02*
X39875Y-16625D01*
X38875Y-19375D02*
X39875Y-18375D01*
X37875Y-19375D02*
X38875Y-19375D01*
X37125Y-20125D02*
X37875Y-19375D01*
X33875Y-25125D02*
X33875Y-24125D01*
X17625Y-23375D02*
X13625Y-23375D01*
X13625Y-23375D02*
X12875Y-22625D01*
X22875Y-21125D02*
X23875Y-20125D01*
X23875Y-20125D02*
X27625Y-20125D01*
X25875Y-10875D02*
X25875Y-11625D01*
X25375Y-12125D02*
X22875Y-12125D01*
X25875Y-11625D02*
X25375Y-12125D01*
X23375Y-19375D02*
X29375Y-19375D01*
X32125Y-22125D02*
X35125Y-22125D01*
X29375Y-19375D02*
X32125Y-22125D01*
X22875Y-10875D02*
X22875Y-12125D01*
X22875Y-12125D02*
X22875Y-15375D01*
X22875Y-15375D02*
X23375Y-15875D01*
X23375Y-15875D02*
X23375Y-19375D01*
X26000Y-9875D02*
X26000Y-10750D01*
X26000Y-10750D02*
X25875Y-10875D01*
X35125Y-22125D02*
X35125Y-22125D01*
X35125Y-22125D02*
X35125Y-22125D01*
G54D10*
G36*
X12575Y-12325D02*
X12425Y-12325D01*
X12425Y-12300D01*
X12387Y-12208D01*
X12316Y-12138D01*
X12224Y-12100D01*
X12125Y-12099D01*
X11775Y-12099D01*
X11683Y-12137D01*
X11625Y-12196D01*
X11566Y-12137D01*
X11474Y-12099D01*
X11362Y-12100D01*
X11300Y-12162D01*
X11300Y-12575D01*
X11307Y-12575D01*
X11307Y-12675D01*
X11300Y-12675D01*
X11300Y-13087D01*
X11337Y-13125D01*
X11300Y-13162D01*
X11300Y-13575D01*
X11307Y-13575D01*
X11307Y-13675D01*
X11300Y-13675D01*
X11300Y-14087D01*
X11337Y-14125D01*
X11300Y-14162D01*
X11300Y-14575D01*
X11307Y-14575D01*
X11307Y-14675D01*
X11300Y-14675D01*
X11300Y-15087D01*
X11362Y-15150D01*
X11474Y-15150D01*
X11566Y-15112D01*
X11625Y-15053D01*
X11683Y-15111D01*
X11775Y-15149D01*
X11874Y-15150D01*
X11921Y-15150D01*
X11863Y-15208D01*
X11825Y-15300D01*
X11824Y-15399D01*
X11824Y-15949D01*
X11862Y-16041D01*
X11933Y-16111D01*
X11985Y-16133D01*
X11985Y-16133D01*
X12023Y-16190D01*
X11875Y-16161D01*
X11660Y-16203D01*
X11479Y-16325D01*
X11435Y-16391D01*
X11435Y-16375D01*
X11397Y-16283D01*
X11326Y-16213D01*
X11234Y-16175D01*
X11200Y-16175D01*
X11200Y-15087D01*
X11200Y-14675D01*
X11200Y-14575D01*
X11200Y-14162D01*
X11162Y-14125D01*
X11200Y-14087D01*
X11200Y-13675D01*
X11200Y-13575D01*
X11200Y-13162D01*
X11162Y-13125D01*
X11200Y-13087D01*
X11200Y-12675D01*
X11200Y-12575D01*
X11200Y-12162D01*
X11137Y-12100D01*
X11025Y-12099D01*
X10933Y-12137D01*
X10863Y-12208D01*
X10825Y-12300D01*
X10824Y-12399D01*
X10825Y-12512D01*
X10887Y-12575D01*
X11200Y-12575D01*
X11200Y-12675D01*
X10887Y-12675D01*
X10825Y-12737D01*
X10824Y-12850D01*
X10825Y-12949D01*
X10863Y-13041D01*
X10933Y-13112D01*
X10964Y-13125D01*
X10933Y-13137D01*
X10863Y-13208D01*
X10825Y-13300D01*
X10824Y-13399D01*
X10825Y-13512D01*
X10887Y-13575D01*
X11200Y-13575D01*
X11200Y-13675D01*
X10887Y-13675D01*
X10825Y-13737D01*
X10824Y-13850D01*
X10825Y-13949D01*
X10863Y-14041D01*
X10933Y-14112D01*
X10964Y-14125D01*
X10933Y-14137D01*
X10863Y-14208D01*
X10825Y-14300D01*
X10824Y-14399D01*
X10825Y-14512D01*
X10887Y-14575D01*
X11200Y-14575D01*
X11200Y-14675D01*
X10887Y-14675D01*
X10825Y-14737D01*
X10824Y-14850D01*
X10825Y-14949D01*
X10863Y-15041D01*
X10933Y-15112D01*
X11025Y-15150D01*
X11137Y-15150D01*
X11200Y-15087D01*
X11200Y-16175D01*
X11135Y-16174D01*
X10515Y-16174D01*
X10425Y-16212D01*
X10425Y-11343D01*
X10479Y-11424D01*
X10660Y-11546D01*
X10875Y-11588D01*
X11089Y-11546D01*
X11270Y-11424D01*
X11375Y-11269D01*
X11479Y-11424D01*
X11660Y-11546D01*
X11875Y-11588D01*
X12089Y-11546D01*
X12270Y-11424D01*
X12375Y-11269D01*
X12479Y-11424D01*
X12575Y-11488D01*
X12575Y-12325D01*
X12575Y-12325D01*
G37*
G54D23*
X12575Y-12325D02*
X12425Y-12325D01*
X12425Y-12300D01*
X12387Y-12208D01*
X12316Y-12138D01*
X12224Y-12100D01*
X12125Y-12099D01*
X11775Y-12099D01*
X11683Y-12137D01*
X11625Y-12196D01*
X11566Y-12137D01*
X11474Y-12099D01*
X11362Y-12100D01*
X11300Y-12162D01*
X11300Y-12575D01*
X11307Y-12575D01*
X11307Y-12675D01*
X11300Y-12675D01*
X11300Y-13087D01*
X11337Y-13125D01*
X11300Y-13162D01*
X11300Y-13575D01*
X11307Y-13575D01*
X11307Y-13675D01*
X11300Y-13675D01*
X11300Y-14087D01*
X11337Y-14125D01*
X11300Y-14162D01*
X11300Y-14575D01*
X11307Y-14575D01*
X11307Y-14675D01*
X11300Y-14675D01*
X11300Y-15087D01*
X11362Y-15150D01*
X11474Y-15150D01*
X11566Y-15112D01*
X11625Y-15053D01*
X11683Y-15111D01*
X11775Y-15149D01*
X11874Y-15150D01*
X11921Y-15150D01*
X11863Y-15208D01*
X11825Y-15300D01*
X11824Y-15399D01*
X11824Y-15949D01*
X11862Y-16041D01*
X11933Y-16111D01*
X11985Y-16133D01*
X11985Y-16133D01*
X12023Y-16190D01*
X11875Y-16161D01*
X11660Y-16203D01*
X11479Y-16325D01*
X11435Y-16391D01*
X11435Y-16375D01*
X11397Y-16283D01*
X11326Y-16213D01*
X11234Y-16175D01*
X11200Y-16175D01*
X11200Y-15087D01*
X11200Y-14675D01*
X11200Y-14575D01*
X11200Y-14162D01*
X11162Y-14125D01*
X11200Y-14087D01*
X11200Y-13675D01*
X11200Y-13575D01*
X11200Y-13162D01*
X11162Y-13125D01*
X11200Y-13087D01*
X11200Y-12675D01*
X11200Y-12575D01*
X11200Y-12162D01*
X11137Y-12100D01*
X11025Y-12099D01*
X10933Y-12137D01*
X10863Y-12208D01*
X10825Y-12300D01*
X10824Y-12399D01*
X10825Y-12512D01*
X10887Y-12575D01*
X11200Y-12575D01*
X11200Y-12675D01*
X10887Y-12675D01*
X10825Y-12737D01*
X10824Y-12850D01*
X10825Y-12949D01*
X10863Y-13041D01*
X10933Y-13112D01*
X10964Y-13125D01*
X10933Y-13137D01*
X10863Y-13208D01*
X10825Y-13300D01*
X10824Y-13399D01*
X10825Y-13512D01*
X10887Y-13575D01*
X11200Y-13575D01*
X11200Y-13675D01*
X10887Y-13675D01*
X10825Y-13737D01*
X10824Y-13850D01*
X10825Y-13949D01*
X10863Y-14041D01*
X10933Y-14112D01*
X10964Y-14125D01*
X10933Y-14137D01*
X10863Y-14208D01*
X10825Y-14300D01*
X10824Y-14399D01*
X10825Y-14512D01*
X10887Y-14575D01*
X11200Y-14575D01*
X11200Y-14675D01*
X10887Y-14675D01*
X10825Y-14737D01*
X10824Y-14850D01*
X10825Y-14949D01*
X10863Y-15041D01*
X10933Y-15112D01*
X11025Y-15150D01*
X11137Y-15150D01*
X11200Y-15087D01*
X11200Y-16175D01*
X11135Y-16174D01*
X10515Y-16174D01*
X10425Y-16212D01*
X10425Y-11343D01*
X10479Y-11424D01*
X10660Y-11546D01*
X10875Y-11588D01*
X11089Y-11546D01*
X11270Y-11424D01*
X11375Y-11269D01*
X11479Y-11424D01*
X11660Y-11546D01*
X11875Y-11588D01*
X12089Y-11546D01*
X12270Y-11424D01*
X12375Y-11269D01*
X12479Y-11424D01*
X12575Y-11488D01*
X12575Y-12325D01*
G54D10*
G36*
X18900Y-23575D02*
X18766Y-23574D01*
X18563Y-23658D01*
X18409Y-23813D01*
X18375Y-23894D01*
X18341Y-23813D01*
X18186Y-23659D01*
X17999Y-23581D01*
X18049Y-23459D01*
X18050Y-23290D01*
X17985Y-23134D01*
X17866Y-23014D01*
X17709Y-22950D01*
X17540Y-22949D01*
X17384Y-23014D01*
X17323Y-23075D01*
X13749Y-23075D01*
X13299Y-22625D01*
X13300Y-22540D01*
X13235Y-22384D01*
X13116Y-22264D01*
X13050Y-22237D01*
X13050Y-18040D01*
X12985Y-17884D01*
X12866Y-17764D01*
X12709Y-17700D01*
X12540Y-17699D01*
X12384Y-17764D01*
X12264Y-17883D01*
X12200Y-18040D01*
X12199Y-18209D01*
X12264Y-18365D01*
X12325Y-18426D01*
X12325Y-20500D01*
X12162Y-20662D01*
X12162Y-20662D01*
X11875Y-20950D01*
X11790Y-20949D01*
X11634Y-21014D01*
X11514Y-21133D01*
X11450Y-21290D01*
X11449Y-21459D01*
X11514Y-21615D01*
X11633Y-21735D01*
X11790Y-21799D01*
X11959Y-21800D01*
X12115Y-21735D01*
X12235Y-21616D01*
X12299Y-21459D01*
X12300Y-21374D01*
X12587Y-21087D01*
X12587Y-21087D01*
X12587Y-21087D01*
X12837Y-20837D01*
X12837Y-20837D01*
X12902Y-20739D01*
X12924Y-20625D01*
X12925Y-20625D01*
X12925Y-18426D01*
X12985Y-18366D01*
X13049Y-18209D01*
X13050Y-18040D01*
X13050Y-22237D01*
X12959Y-22200D01*
X12790Y-22199D01*
X12634Y-22264D01*
X12514Y-22383D01*
X12450Y-22540D01*
X12449Y-22709D01*
X12514Y-22865D01*
X12633Y-22985D01*
X12790Y-23049D01*
X12875Y-23050D01*
X13412Y-23587D01*
X13412Y-23587D01*
X13510Y-23652D01*
X13560Y-23662D01*
X13409Y-23813D01*
X13375Y-23894D01*
X13341Y-23813D01*
X13186Y-23659D01*
X12984Y-23575D01*
X12766Y-23574D01*
X12563Y-23658D01*
X12409Y-23813D01*
X12375Y-23894D01*
X12341Y-23813D01*
X12186Y-23659D01*
X11984Y-23575D01*
X11766Y-23574D01*
X11563Y-23658D01*
X11409Y-23813D01*
X11377Y-23888D01*
X11356Y-23837D01*
X11260Y-23809D01*
X11190Y-23880D01*
X11190Y-23739D01*
X11162Y-23643D01*
X10956Y-23570D01*
X10738Y-23581D01*
X10587Y-23643D01*
X10559Y-23739D01*
X10875Y-24054D01*
X11190Y-23739D01*
X11190Y-23880D01*
X10945Y-24125D01*
X10951Y-24130D01*
X10880Y-24201D01*
X10875Y-24195D01*
X10869Y-24201D01*
X10798Y-24130D01*
X10804Y-24125D01*
X10489Y-23809D01*
X10425Y-23828D01*
X10425Y-17537D01*
X10515Y-17574D01*
X10614Y-17575D01*
X11234Y-17575D01*
X11326Y-17537D01*
X11396Y-17466D01*
X11434Y-17374D01*
X11434Y-17358D01*
X11479Y-17424D01*
X11660Y-17546D01*
X11875Y-17588D01*
X12089Y-17546D01*
X12270Y-17424D01*
X12375Y-17269D01*
X12479Y-17424D01*
X12660Y-17546D01*
X12875Y-17588D01*
X13089Y-17546D01*
X13270Y-17424D01*
X13375Y-17269D01*
X13479Y-17424D01*
X13660Y-17546D01*
X13875Y-17588D01*
X14089Y-17546D01*
X14121Y-17524D01*
X14162Y-17587D01*
X14362Y-17786D01*
X14264Y-17883D01*
X14200Y-18040D01*
X14199Y-18209D01*
X14264Y-18365D01*
X14325Y-18426D01*
X14325Y-21073D01*
X14264Y-21133D01*
X14200Y-21290D01*
X14199Y-21459D01*
X14264Y-21615D01*
X14383Y-21735D01*
X14540Y-21799D01*
X14709Y-21800D01*
X14865Y-21735D01*
X14985Y-21616D01*
X15049Y-21459D01*
X15050Y-21290D01*
X14985Y-21134D01*
X14925Y-21073D01*
X14925Y-19599D01*
X18900Y-23575D01*
X18900Y-23575D01*
G37*
G54D23*
X18900Y-23575D02*
X18766Y-23574D01*
X18563Y-23658D01*
X18409Y-23813D01*
X18375Y-23894D01*
X18341Y-23813D01*
X18186Y-23659D01*
X17999Y-23581D01*
X18049Y-23459D01*
X18050Y-23290D01*
X17985Y-23134D01*
X17866Y-23014D01*
X17709Y-22950D01*
X17540Y-22949D01*
X17384Y-23014D01*
X17323Y-23075D01*
X13749Y-23075D01*
X13299Y-22625D01*
X13300Y-22540D01*
X13235Y-22384D01*
X13116Y-22264D01*
X13050Y-22237D01*
X13050Y-18040D01*
X12985Y-17884D01*
X12866Y-17764D01*
X12709Y-17700D01*
X12540Y-17699D01*
X12384Y-17764D01*
X12264Y-17883D01*
X12200Y-18040D01*
X12199Y-18209D01*
X12264Y-18365D01*
X12325Y-18426D01*
X12325Y-20500D01*
X12162Y-20662D01*
X12162Y-20662D01*
X11875Y-20950D01*
X11790Y-20949D01*
X11634Y-21014D01*
X11514Y-21133D01*
X11450Y-21290D01*
X11449Y-21459D01*
X11514Y-21615D01*
X11633Y-21735D01*
X11790Y-21799D01*
X11959Y-21800D01*
X12115Y-21735D01*
X12235Y-21616D01*
X12299Y-21459D01*
X12300Y-21374D01*
X12587Y-21087D01*
X12587Y-21087D01*
X12587Y-21087D01*
X12837Y-20837D01*
X12837Y-20837D01*
X12902Y-20739D01*
X12924Y-20625D01*
X12925Y-20625D01*
X12925Y-18426D01*
X12985Y-18366D01*
X13049Y-18209D01*
X13050Y-18040D01*
X13050Y-22237D01*
X12959Y-22200D01*
X12790Y-22199D01*
X12634Y-22264D01*
X12514Y-22383D01*
X12450Y-22540D01*
X12449Y-22709D01*
X12514Y-22865D01*
X12633Y-22985D01*
X12790Y-23049D01*
X12875Y-23050D01*
X13412Y-23587D01*
X13412Y-23587D01*
X13510Y-23652D01*
X13560Y-23662D01*
X13409Y-23813D01*
X13375Y-23894D01*
X13341Y-23813D01*
X13186Y-23659D01*
X12984Y-23575D01*
X12766Y-23574D01*
X12563Y-23658D01*
X12409Y-23813D01*
X12375Y-23894D01*
X12341Y-23813D01*
X12186Y-23659D01*
X11984Y-23575D01*
X11766Y-23574D01*
X11563Y-23658D01*
X11409Y-23813D01*
X11377Y-23888D01*
X11356Y-23837D01*
X11260Y-23809D01*
X11190Y-23880D01*
X11190Y-23739D01*
X11162Y-23643D01*
X10956Y-23570D01*
X10738Y-23581D01*
X10587Y-23643D01*
X10559Y-23739D01*
X10875Y-24054D01*
X11190Y-23739D01*
X11190Y-23880D01*
X10945Y-24125D01*
X10951Y-24130D01*
X10880Y-24201D01*
X10875Y-24195D01*
X10869Y-24201D01*
X10798Y-24130D01*
X10804Y-24125D01*
X10489Y-23809D01*
X10425Y-23828D01*
X10425Y-17537D01*
X10515Y-17574D01*
X10614Y-17575D01*
X11234Y-17575D01*
X11326Y-17537D01*
X11396Y-17466D01*
X11434Y-17374D01*
X11434Y-17358D01*
X11479Y-17424D01*
X11660Y-17546D01*
X11875Y-17588D01*
X12089Y-17546D01*
X12270Y-17424D01*
X12375Y-17269D01*
X12479Y-17424D01*
X12660Y-17546D01*
X12875Y-17588D01*
X13089Y-17546D01*
X13270Y-17424D01*
X13375Y-17269D01*
X13479Y-17424D01*
X13660Y-17546D01*
X13875Y-17588D01*
X14089Y-17546D01*
X14121Y-17524D01*
X14162Y-17587D01*
X14362Y-17786D01*
X14264Y-17883D01*
X14200Y-18040D01*
X14199Y-18209D01*
X14264Y-18365D01*
X14325Y-18426D01*
X14325Y-21073D01*
X14264Y-21133D01*
X14200Y-21290D01*
X14199Y-21459D01*
X14264Y-21615D01*
X14383Y-21735D01*
X14540Y-21799D01*
X14709Y-21800D01*
X14865Y-21735D01*
X14985Y-21616D01*
X15049Y-21459D01*
X15050Y-21290D01*
X14985Y-21134D01*
X14925Y-21073D01*
X14925Y-19599D01*
X18900Y-23575D01*
G54D10*
G36*
X27575Y-10261D02*
X27479Y-10325D01*
X27375Y-10480D01*
X27373Y-10474D01*
X27235Y-10303D01*
X27151Y-10257D01*
X27174Y-10199D01*
X27175Y-10100D01*
X27175Y-9649D01*
X27174Y-9550D01*
X27136Y-9458D01*
X27066Y-9387D01*
X26974Y-9349D01*
X26862Y-9350D01*
X26800Y-9412D01*
X26800Y-9825D01*
X27112Y-9825D01*
X27175Y-9762D01*
X27175Y-9649D01*
X27175Y-10100D01*
X27175Y-9987D01*
X27112Y-9925D01*
X26800Y-9925D01*
X26800Y-9932D01*
X26700Y-9932D01*
X26700Y-9925D01*
X26692Y-9925D01*
X26692Y-9825D01*
X26700Y-9825D01*
X26700Y-9412D01*
X26637Y-9350D01*
X26525Y-9349D01*
X26433Y-9387D01*
X26374Y-9446D01*
X26316Y-9388D01*
X26224Y-9350D01*
X26125Y-9349D01*
X25775Y-9349D01*
X25683Y-9387D01*
X25613Y-9458D01*
X25575Y-9550D01*
X25574Y-9649D01*
X25574Y-10199D01*
X25594Y-10247D01*
X25479Y-10325D01*
X25375Y-10480D01*
X25270Y-10325D01*
X25089Y-10203D01*
X24875Y-10161D01*
X24660Y-10203D01*
X24479Y-10325D01*
X24375Y-10480D01*
X24270Y-10325D01*
X24089Y-10203D01*
X23904Y-10167D01*
X23904Y-9450D01*
X23893Y-9242D01*
X23835Y-9102D01*
X23742Y-9077D01*
X23445Y-9375D01*
X23742Y-9672D01*
X23835Y-9647D01*
X23904Y-9450D01*
X23904Y-10167D01*
X23875Y-10161D01*
X23672Y-10201D01*
X23672Y-9742D01*
X23375Y-9445D01*
X23077Y-9742D01*
X23102Y-9835D01*
X23299Y-9904D01*
X23507Y-9893D01*
X23647Y-9835D01*
X23672Y-9742D01*
X23672Y-10201D01*
X23660Y-10203D01*
X23479Y-10325D01*
X23375Y-10480D01*
X23270Y-10325D01*
X23089Y-10203D01*
X22875Y-10161D01*
X22675Y-10201D01*
X22675Y-10125D01*
X22675Y-10000D01*
X22675Y-9817D01*
X22819Y-9672D01*
X22872Y-9546D01*
X22914Y-9647D01*
X23007Y-9672D01*
X23304Y-9375D01*
X23007Y-9077D01*
X22914Y-9102D01*
X22875Y-9212D01*
X22820Y-9078D01*
X22672Y-8930D01*
X22660Y-8925D01*
X23099Y-8925D01*
X23077Y-9007D01*
X23375Y-9304D01*
X23672Y-9007D01*
X23650Y-8925D01*
X27000Y-8925D01*
X27575Y-9499D01*
X27575Y-10261D01*
X27575Y-10261D01*
G37*
G54D23*
X27575Y-10261D02*
X27479Y-10325D01*
X27375Y-10480D01*
X27373Y-10474D01*
X27235Y-10303D01*
X27151Y-10257D01*
X27174Y-10199D01*
X27175Y-10100D01*
X27175Y-9649D01*
X27174Y-9550D01*
X27136Y-9458D01*
X27066Y-9387D01*
X26974Y-9349D01*
X26862Y-9350D01*
X26800Y-9412D01*
X26800Y-9825D01*
X27112Y-9825D01*
X27175Y-9762D01*
X27175Y-9649D01*
X27175Y-10100D01*
X27175Y-9987D01*
X27112Y-9925D01*
X26800Y-9925D01*
X26800Y-9932D01*
X26700Y-9932D01*
X26700Y-9925D01*
X26692Y-9925D01*
X26692Y-9825D01*
X26700Y-9825D01*
X26700Y-9412D01*
X26637Y-9350D01*
X26525Y-9349D01*
X26433Y-9387D01*
X26374Y-9446D01*
X26316Y-9388D01*
X26224Y-9350D01*
X26125Y-9349D01*
X25775Y-9349D01*
X25683Y-9387D01*
X25613Y-9458D01*
X25575Y-9550D01*
X25574Y-9649D01*
X25574Y-10199D01*
X25594Y-10247D01*
X25479Y-10325D01*
X25375Y-10480D01*
X25270Y-10325D01*
X25089Y-10203D01*
X24875Y-10161D01*
X24660Y-10203D01*
X24479Y-10325D01*
X24375Y-10480D01*
X24270Y-10325D01*
X24089Y-10203D01*
X23904Y-10167D01*
X23904Y-9450D01*
X23893Y-9242D01*
X23835Y-9102D01*
X23742Y-9077D01*
X23445Y-9375D01*
X23742Y-9672D01*
X23835Y-9647D01*
X23904Y-9450D01*
X23904Y-10167D01*
X23875Y-10161D01*
X23672Y-10201D01*
X23672Y-9742D01*
X23375Y-9445D01*
X23077Y-9742D01*
X23102Y-9835D01*
X23299Y-9904D01*
X23507Y-9893D01*
X23647Y-9835D01*
X23672Y-9742D01*
X23672Y-10201D01*
X23660Y-10203D01*
X23479Y-10325D01*
X23375Y-10480D01*
X23270Y-10325D01*
X23089Y-10203D01*
X22875Y-10161D01*
X22675Y-10201D01*
X22675Y-10125D01*
X22675Y-10000D01*
X22675Y-9817D01*
X22819Y-9672D01*
X22872Y-9546D01*
X22914Y-9647D01*
X23007Y-9672D01*
X23304Y-9375D01*
X23007Y-9077D01*
X22914Y-9102D01*
X22875Y-9212D01*
X22820Y-9078D01*
X22672Y-8930D01*
X22660Y-8925D01*
X23099Y-8925D01*
X23077Y-9007D01*
X23375Y-9304D01*
X23672Y-9007D01*
X23650Y-8925D01*
X27000Y-8925D01*
X27575Y-9499D01*
X27575Y-10261D01*
G54D10*
G36*
X30014Y-16189D02*
X29875Y-16161D01*
X29660Y-16203D01*
X29479Y-16325D01*
X29375Y-16480D01*
X29270Y-16325D01*
X29089Y-16203D01*
X28875Y-16161D01*
X28660Y-16203D01*
X28479Y-16325D01*
X28375Y-16480D01*
X28270Y-16325D01*
X28089Y-16203D01*
X27875Y-16161D01*
X27660Y-16203D01*
X27479Y-16325D01*
X27375Y-16480D01*
X27270Y-16325D01*
X27089Y-16203D01*
X26875Y-16161D01*
X26660Y-16203D01*
X26479Y-16325D01*
X26375Y-16480D01*
X26270Y-16325D01*
X26089Y-16203D01*
X25875Y-16161D01*
X25660Y-16203D01*
X25479Y-16325D01*
X25375Y-16480D01*
X25270Y-16325D01*
X25089Y-16203D01*
X24875Y-16161D01*
X24660Y-16203D01*
X24479Y-16325D01*
X24375Y-16480D01*
X24270Y-16325D01*
X24089Y-16203D01*
X23875Y-16161D01*
X23675Y-16201D01*
X23675Y-15875D01*
X23652Y-15760D01*
X23587Y-15662D01*
X23587Y-15662D01*
X23175Y-15250D01*
X23175Y-12425D01*
X25375Y-12425D01*
X25375Y-12424D01*
X25489Y-12402D01*
X25489Y-12402D01*
X25587Y-12337D01*
X26087Y-11837D01*
X26087Y-11837D01*
X26152Y-11739D01*
X26174Y-11625D01*
X26175Y-11625D01*
X26175Y-11488D01*
X26270Y-11424D01*
X26374Y-11269D01*
X26376Y-11275D01*
X26514Y-11446D01*
X26706Y-11551D01*
X26738Y-11558D01*
X26825Y-11509D01*
X26825Y-10925D01*
X26817Y-10925D01*
X26817Y-10825D01*
X26825Y-10825D01*
X26825Y-10817D01*
X26925Y-10817D01*
X26925Y-10825D01*
X26932Y-10825D01*
X26932Y-10925D01*
X26925Y-10925D01*
X26925Y-11509D01*
X27011Y-11558D01*
X27043Y-11551D01*
X27235Y-11446D01*
X27373Y-11275D01*
X27375Y-11269D01*
X27479Y-11424D01*
X27660Y-11546D01*
X27875Y-11588D01*
X28089Y-11546D01*
X28270Y-11424D01*
X28375Y-11269D01*
X28479Y-11424D01*
X28575Y-11488D01*
X28575Y-14625D01*
X28597Y-14739D01*
X28662Y-14837D01*
X30014Y-16189D01*
X30014Y-16189D01*
G37*
G54D23*
X30014Y-16189D02*
X29875Y-16161D01*
X29660Y-16203D01*
X29479Y-16325D01*
X29375Y-16480D01*
X29270Y-16325D01*
X29089Y-16203D01*
X28875Y-16161D01*
X28660Y-16203D01*
X28479Y-16325D01*
X28375Y-16480D01*
X28270Y-16325D01*
X28089Y-16203D01*
X27875Y-16161D01*
X27660Y-16203D01*
X27479Y-16325D01*
X27375Y-16480D01*
X27270Y-16325D01*
X27089Y-16203D01*
X26875Y-16161D01*
X26660Y-16203D01*
X26479Y-16325D01*
X26375Y-16480D01*
X26270Y-16325D01*
X26089Y-16203D01*
X25875Y-16161D01*
X25660Y-16203D01*
X25479Y-16325D01*
X25375Y-16480D01*
X25270Y-16325D01*
X25089Y-16203D01*
X24875Y-16161D01*
X24660Y-16203D01*
X24479Y-16325D01*
X24375Y-16480D01*
X24270Y-16325D01*
X24089Y-16203D01*
X23875Y-16161D01*
X23675Y-16201D01*
X23675Y-15875D01*
X23652Y-15760D01*
X23587Y-15662D01*
X23587Y-15662D01*
X23175Y-15250D01*
X23175Y-12425D01*
X25375Y-12425D01*
X25375Y-12424D01*
X25489Y-12402D01*
X25489Y-12402D01*
X25587Y-12337D01*
X26087Y-11837D01*
X26087Y-11837D01*
X26152Y-11739D01*
X26174Y-11625D01*
X26175Y-11625D01*
X26175Y-11488D01*
X26270Y-11424D01*
X26374Y-11269D01*
X26376Y-11275D01*
X26514Y-11446D01*
X26706Y-11551D01*
X26738Y-11558D01*
X26825Y-11509D01*
X26825Y-10925D01*
X26817Y-10925D01*
X26817Y-10825D01*
X26825Y-10825D01*
X26825Y-10817D01*
X26925Y-10817D01*
X26925Y-10825D01*
X26932Y-10825D01*
X26932Y-10925D01*
X26925Y-10925D01*
X26925Y-11509D01*
X27011Y-11558D01*
X27043Y-11551D01*
X27235Y-11446D01*
X27373Y-11275D01*
X27375Y-11269D01*
X27479Y-11424D01*
X27660Y-11546D01*
X27875Y-11588D01*
X28089Y-11546D01*
X28270Y-11424D01*
X28375Y-11269D01*
X28479Y-11424D01*
X28575Y-11488D01*
X28575Y-14625D01*
X28597Y-14739D01*
X28662Y-14837D01*
X30014Y-16189D01*
G54D10*
G36*
X40605Y-25855D02*
X39700Y-25855D01*
X39700Y-24262D01*
X39498Y-23775D01*
X39425Y-23701D01*
X39425Y-18375D01*
X39425Y-16875D01*
X39424Y-16874D01*
X39402Y-16760D01*
X39375Y-16719D01*
X39375Y-10476D01*
X39223Y-10109D01*
X38942Y-9827D01*
X38574Y-9675D01*
X38176Y-9674D01*
X37809Y-9826D01*
X37527Y-10107D01*
X37375Y-10475D01*
X37374Y-10873D01*
X37526Y-11240D01*
X37807Y-11522D01*
X38175Y-11674D01*
X38573Y-11675D01*
X38940Y-11523D01*
X39222Y-11242D01*
X39374Y-10874D01*
X39375Y-10476D01*
X39375Y-16719D01*
X39337Y-16662D01*
X39337Y-16662D01*
X38929Y-16255D01*
X38929Y-15206D01*
X38929Y-14106D01*
X38918Y-13888D01*
X38856Y-13737D01*
X38760Y-13709D01*
X38690Y-13780D01*
X38690Y-13639D01*
X38662Y-13543D01*
X38456Y-13470D01*
X38238Y-13481D01*
X38087Y-13543D01*
X38059Y-13639D01*
X38375Y-13954D01*
X38690Y-13639D01*
X38690Y-13780D01*
X38445Y-14025D01*
X38760Y-14340D01*
X38856Y-14312D01*
X38929Y-14106D01*
X38929Y-15206D01*
X38918Y-14988D01*
X38856Y-14837D01*
X38760Y-14809D01*
X38690Y-14880D01*
X38690Y-14739D01*
X38662Y-14643D01*
X38460Y-14571D01*
X38511Y-14568D01*
X38662Y-14506D01*
X38690Y-14410D01*
X38375Y-14095D01*
X38304Y-14166D01*
X38304Y-14025D01*
X37989Y-13709D01*
X37893Y-13737D01*
X37820Y-13943D01*
X37831Y-14161D01*
X37893Y-14312D01*
X37989Y-14340D01*
X38304Y-14025D01*
X38304Y-14166D01*
X38059Y-14410D01*
X38087Y-14506D01*
X38289Y-14578D01*
X38238Y-14581D01*
X38087Y-14643D01*
X38059Y-14739D01*
X38375Y-15054D01*
X38690Y-14739D01*
X38690Y-14880D01*
X38445Y-15125D01*
X38760Y-15440D01*
X38856Y-15412D01*
X38929Y-15206D01*
X38929Y-16255D01*
X38924Y-16250D01*
X38925Y-16066D01*
X38841Y-15863D01*
X38686Y-15709D01*
X38551Y-15652D01*
X38662Y-15606D01*
X38690Y-15510D01*
X38375Y-15195D01*
X38304Y-15266D01*
X38304Y-15125D01*
X37989Y-14809D01*
X37893Y-14837D01*
X37820Y-15043D01*
X37831Y-15261D01*
X37893Y-15412D01*
X37989Y-15440D01*
X38304Y-15125D01*
X38304Y-15266D01*
X38059Y-15510D01*
X38087Y-15606D01*
X38207Y-15649D01*
X38063Y-15708D01*
X37909Y-15863D01*
X37825Y-16065D01*
X37824Y-16283D01*
X37908Y-16486D01*
X38063Y-16640D01*
X38265Y-16724D01*
X38483Y-16725D01*
X38266Y-16724D01*
X38063Y-16808D01*
X37909Y-16963D01*
X37825Y-17165D01*
X37824Y-17321D01*
X37816Y-17313D01*
X37724Y-17275D01*
X37625Y-17274D01*
X37484Y-17274D01*
X37686Y-17191D01*
X37840Y-17036D01*
X37924Y-16834D01*
X37925Y-16616D01*
X37841Y-16413D01*
X37686Y-16259D01*
X37484Y-16175D01*
X37483Y-16175D01*
X37686Y-16091D01*
X37840Y-15936D01*
X37924Y-15734D01*
X37925Y-15516D01*
X37841Y-15313D01*
X37686Y-15159D01*
X37544Y-15099D01*
X37686Y-15041D01*
X37840Y-14886D01*
X37924Y-14684D01*
X37925Y-14466D01*
X37841Y-14263D01*
X37686Y-14109D01*
X37484Y-14025D01*
X37483Y-14025D01*
X37686Y-13941D01*
X37840Y-13786D01*
X37924Y-13584D01*
X37925Y-13366D01*
X37841Y-13163D01*
X37686Y-13009D01*
X37484Y-12925D01*
X37266Y-12924D01*
X37063Y-13008D01*
X36909Y-13163D01*
X36825Y-13365D01*
X36824Y-13583D01*
X36908Y-13786D01*
X37063Y-13940D01*
X37265Y-14024D01*
X37483Y-14025D01*
X37266Y-14024D01*
X37063Y-14108D01*
X36909Y-14263D01*
X36825Y-14465D01*
X36824Y-14683D01*
X36908Y-14886D01*
X37063Y-15040D01*
X37205Y-15100D01*
X37063Y-15158D01*
X36909Y-15313D01*
X36825Y-15515D01*
X36824Y-15733D01*
X36908Y-15936D01*
X37063Y-16090D01*
X37265Y-16174D01*
X37483Y-16175D01*
X37266Y-16174D01*
X37063Y-16258D01*
X36909Y-16413D01*
X36825Y-16615D01*
X36824Y-16833D01*
X36908Y-17036D01*
X37063Y-17190D01*
X37265Y-17274D01*
X37325Y-17274D01*
X37025Y-17274D01*
X36933Y-17312D01*
X36863Y-17383D01*
X36825Y-17475D01*
X36824Y-17574D01*
X36824Y-18174D01*
X36862Y-18266D01*
X36933Y-18336D01*
X37025Y-18374D01*
X37124Y-18375D01*
X37200Y-18375D01*
X36750Y-18825D01*
X36522Y-18825D01*
X36522Y-9958D01*
X36419Y-9708D01*
X36228Y-9517D01*
X35978Y-9413D01*
X35708Y-9413D01*
X35458Y-9516D01*
X35350Y-9624D01*
X35244Y-9517D01*
X34994Y-9413D01*
X34724Y-9413D01*
X34558Y-9481D01*
X34558Y-8237D01*
X34549Y-7967D01*
X34463Y-7759D01*
X34354Y-7716D01*
X34283Y-7786D01*
X34283Y-7645D01*
X34240Y-7536D01*
X33987Y-7441D01*
X33717Y-7450D01*
X33509Y-7536D01*
X33466Y-7645D01*
X33875Y-8054D01*
X34283Y-7645D01*
X34283Y-7786D01*
X33945Y-8125D01*
X34354Y-8533D01*
X34463Y-8490D01*
X34558Y-8237D01*
X34558Y-9481D01*
X34474Y-9516D01*
X34283Y-9706D01*
X34283Y-8604D01*
X33875Y-8195D01*
X33804Y-8266D01*
X33804Y-8125D01*
X33395Y-7716D01*
X33286Y-7759D01*
X33191Y-8012D01*
X33200Y-8282D01*
X33286Y-8490D01*
X33395Y-8533D01*
X33804Y-8125D01*
X33804Y-8266D01*
X33466Y-8604D01*
X33509Y-8713D01*
X33762Y-8808D01*
X34032Y-8799D01*
X34240Y-8713D01*
X34283Y-8604D01*
X34283Y-9706D01*
X34283Y-9707D01*
X34179Y-9957D01*
X34179Y-10227D01*
X34282Y-10477D01*
X34473Y-10668D01*
X34723Y-10772D01*
X34993Y-10772D01*
X35243Y-10669D01*
X35351Y-10561D01*
X35457Y-10668D01*
X35707Y-10772D01*
X35977Y-10772D01*
X36227Y-10669D01*
X36418Y-10478D01*
X36522Y-10228D01*
X36522Y-9958D01*
X36522Y-18825D01*
X35400Y-18825D01*
X35400Y-11771D01*
X35320Y-11578D01*
X35172Y-11430D01*
X34979Y-11350D01*
X34771Y-11349D01*
X34578Y-11429D01*
X34430Y-11577D01*
X34350Y-11770D01*
X34349Y-11978D01*
X34429Y-12172D01*
X34577Y-12319D01*
X34649Y-12349D01*
X34550Y-12349D01*
X34458Y-12387D01*
X34388Y-12458D01*
X34350Y-12550D01*
X34349Y-12649D01*
X34349Y-13199D01*
X34387Y-13291D01*
X34458Y-13361D01*
X34550Y-13399D01*
X34649Y-13400D01*
X35199Y-13400D01*
X35291Y-13362D01*
X35361Y-13291D01*
X35399Y-13199D01*
X35400Y-13100D01*
X35400Y-12550D01*
X35362Y-12458D01*
X35291Y-12388D01*
X35199Y-12350D01*
X35100Y-12349D01*
X35100Y-12349D01*
X35172Y-12320D01*
X35319Y-12172D01*
X35399Y-11979D01*
X35400Y-11771D01*
X35400Y-18825D01*
X33570Y-18825D01*
X33570Y-9958D01*
X33467Y-9708D01*
X33276Y-9517D01*
X33026Y-9413D01*
X32756Y-9413D01*
X32506Y-9516D01*
X32398Y-9624D01*
X32292Y-9517D01*
X32042Y-9413D01*
X31772Y-9413D01*
X31522Y-9516D01*
X31331Y-9707D01*
X31227Y-9957D01*
X31227Y-10227D01*
X31330Y-10477D01*
X31521Y-10668D01*
X31771Y-10772D01*
X32041Y-10772D01*
X32291Y-10669D01*
X32399Y-10561D01*
X32505Y-10668D01*
X32755Y-10772D01*
X33025Y-10772D01*
X33275Y-10669D01*
X33466Y-10478D01*
X33570Y-10228D01*
X33570Y-9958D01*
X33570Y-18825D01*
X33400Y-18825D01*
X33400Y-11771D01*
X33320Y-11578D01*
X33172Y-11430D01*
X32979Y-11350D01*
X32771Y-11349D01*
X32578Y-11429D01*
X32430Y-11577D01*
X32350Y-11770D01*
X32349Y-11978D01*
X32429Y-12172D01*
X32577Y-12319D01*
X32649Y-12349D01*
X32550Y-12349D01*
X32458Y-12387D01*
X32388Y-12458D01*
X32350Y-12550D01*
X32349Y-12649D01*
X32349Y-13199D01*
X32387Y-13291D01*
X32458Y-13361D01*
X32550Y-13399D01*
X32649Y-13400D01*
X33199Y-13400D01*
X33291Y-13362D01*
X33361Y-13291D01*
X33399Y-13199D01*
X33400Y-13100D01*
X33400Y-12550D01*
X33362Y-12458D01*
X33291Y-12388D01*
X33199Y-12350D01*
X33100Y-12349D01*
X33100Y-12349D01*
X33172Y-12320D01*
X33319Y-12172D01*
X33399Y-11979D01*
X33400Y-11771D01*
X33400Y-18825D01*
X33252Y-18825D01*
X33299Y-18709D01*
X33300Y-18540D01*
X33235Y-18384D01*
X33116Y-18264D01*
X32959Y-18200D01*
X32874Y-18199D01*
X29175Y-14500D01*
X29175Y-11488D01*
X29270Y-11424D01*
X29375Y-11269D01*
X29479Y-11424D01*
X29660Y-11546D01*
X29875Y-11588D01*
X30089Y-11546D01*
X30270Y-11424D01*
X30392Y-11243D01*
X30435Y-11028D01*
X30435Y-10721D01*
X30392Y-10506D01*
X30270Y-10325D01*
X30089Y-10203D01*
X29875Y-10161D01*
X29660Y-10203D01*
X29479Y-10325D01*
X29375Y-10480D01*
X29270Y-10325D01*
X29089Y-10203D01*
X28875Y-10161D01*
X28660Y-10203D01*
X28479Y-10325D01*
X28375Y-10480D01*
X28270Y-10325D01*
X28175Y-10261D01*
X28175Y-9375D01*
X28174Y-9374D01*
X28152Y-9260D01*
X28087Y-9162D01*
X28087Y-9162D01*
X27337Y-8412D01*
X27239Y-8347D01*
X27125Y-8325D01*
X10625Y-8325D01*
X10510Y-8347D01*
X10412Y-8412D01*
X9912Y-8912D01*
X9847Y-9010D01*
X9825Y-9125D01*
X9825Y-24375D01*
X9847Y-24489D01*
X9912Y-24587D01*
X10162Y-24837D01*
X10162Y-24837D01*
X10260Y-24902D01*
X10363Y-24922D01*
X10320Y-25043D01*
X10331Y-25261D01*
X10393Y-25412D01*
X10489Y-25440D01*
X10804Y-25125D01*
X10798Y-25119D01*
X10869Y-25048D01*
X10875Y-25054D01*
X10880Y-25048D01*
X10951Y-25119D01*
X10945Y-25125D01*
X11260Y-25440D01*
X11356Y-25412D01*
X11375Y-25357D01*
X11408Y-25436D01*
X11563Y-25590D01*
X11765Y-25674D01*
X11983Y-25675D01*
X12186Y-25591D01*
X12340Y-25436D01*
X12374Y-25355D01*
X12408Y-25436D01*
X12563Y-25590D01*
X12765Y-25674D01*
X12983Y-25675D01*
X13186Y-25591D01*
X13340Y-25436D01*
X13374Y-25355D01*
X13408Y-25436D01*
X13563Y-25590D01*
X13765Y-25674D01*
X13983Y-25675D01*
X14186Y-25591D01*
X14340Y-25436D01*
X14374Y-25355D01*
X14408Y-25436D01*
X14563Y-25590D01*
X14765Y-25674D01*
X14983Y-25675D01*
X15186Y-25591D01*
X15340Y-25436D01*
X15374Y-25355D01*
X15408Y-25436D01*
X15563Y-25590D01*
X15765Y-25674D01*
X15983Y-25675D01*
X16186Y-25591D01*
X16340Y-25436D01*
X16374Y-25355D01*
X16408Y-25436D01*
X16563Y-25590D01*
X16765Y-25674D01*
X16983Y-25675D01*
X17186Y-25591D01*
X17340Y-25436D01*
X17374Y-25355D01*
X17408Y-25436D01*
X17563Y-25590D01*
X17765Y-25674D01*
X17983Y-25675D01*
X18186Y-25591D01*
X18340Y-25436D01*
X18374Y-25355D01*
X18408Y-25436D01*
X18563Y-25590D01*
X18765Y-25674D01*
X18983Y-25675D01*
X19186Y-25591D01*
X19340Y-25436D01*
X19374Y-25355D01*
X19408Y-25436D01*
X19563Y-25590D01*
X19765Y-25674D01*
X19983Y-25675D01*
X20186Y-25591D01*
X20340Y-25436D01*
X20374Y-25355D01*
X20408Y-25436D01*
X20563Y-25590D01*
X20765Y-25674D01*
X20983Y-25675D01*
X21186Y-25591D01*
X21340Y-25436D01*
X21374Y-25355D01*
X21408Y-25436D01*
X21563Y-25590D01*
X21765Y-25674D01*
X21983Y-25675D01*
X22186Y-25591D01*
X22340Y-25436D01*
X22374Y-25355D01*
X22408Y-25436D01*
X22563Y-25590D01*
X22765Y-25674D01*
X22983Y-25675D01*
X23186Y-25591D01*
X23340Y-25436D01*
X23374Y-25355D01*
X23408Y-25436D01*
X23563Y-25590D01*
X23765Y-25674D01*
X23983Y-25675D01*
X24186Y-25591D01*
X24340Y-25436D01*
X24374Y-25355D01*
X24408Y-25436D01*
X24563Y-25590D01*
X24765Y-25674D01*
X24983Y-25675D01*
X25186Y-25591D01*
X25340Y-25436D01*
X25374Y-25355D01*
X25408Y-25436D01*
X25563Y-25590D01*
X25765Y-25674D01*
X25983Y-25675D01*
X26186Y-25591D01*
X26340Y-25436D01*
X26374Y-25355D01*
X26408Y-25436D01*
X26563Y-25590D01*
X26765Y-25674D01*
X26983Y-25675D01*
X27186Y-25591D01*
X27340Y-25436D01*
X27374Y-25355D01*
X27408Y-25436D01*
X27563Y-25590D01*
X27765Y-25674D01*
X27983Y-25675D01*
X28186Y-25591D01*
X28340Y-25436D01*
X28374Y-25355D01*
X28408Y-25436D01*
X28563Y-25590D01*
X28765Y-25674D01*
X28983Y-25675D01*
X29186Y-25591D01*
X29340Y-25436D01*
X29374Y-25355D01*
X29408Y-25436D01*
X29563Y-25590D01*
X29765Y-25674D01*
X29983Y-25675D01*
X30186Y-25591D01*
X30340Y-25436D01*
X30374Y-25355D01*
X30408Y-25436D01*
X30563Y-25590D01*
X30765Y-25674D01*
X30983Y-25675D01*
X31186Y-25591D01*
X31340Y-25436D01*
X31374Y-25355D01*
X31408Y-25436D01*
X31563Y-25590D01*
X31765Y-25674D01*
X31983Y-25675D01*
X32186Y-25591D01*
X32340Y-25436D01*
X32374Y-25355D01*
X32408Y-25436D01*
X32563Y-25590D01*
X32765Y-25674D01*
X32983Y-25675D01*
X33186Y-25591D01*
X33340Y-25436D01*
X33372Y-25361D01*
X33393Y-25412D01*
X33489Y-25440D01*
X33804Y-25125D01*
X33489Y-24809D01*
X33393Y-24837D01*
X33374Y-24892D01*
X33341Y-24813D01*
X33186Y-24659D01*
X33105Y-24625D01*
X33186Y-24591D01*
X33340Y-24436D01*
X33372Y-24361D01*
X33393Y-24412D01*
X33489Y-24440D01*
X33804Y-24125D01*
X33489Y-23809D01*
X33393Y-23837D01*
X33374Y-23892D01*
X33341Y-23813D01*
X33186Y-23659D01*
X32984Y-23575D01*
X32766Y-23574D01*
X32563Y-23658D01*
X32409Y-23813D01*
X32375Y-23894D01*
X32341Y-23813D01*
X32186Y-23659D01*
X31984Y-23575D01*
X31766Y-23574D01*
X31563Y-23658D01*
X31409Y-23813D01*
X31375Y-23894D01*
X31341Y-23813D01*
X31186Y-23659D01*
X30984Y-23575D01*
X30766Y-23574D01*
X30563Y-23658D01*
X30409Y-23813D01*
X30375Y-23894D01*
X30341Y-23813D01*
X30186Y-23659D01*
X29984Y-23575D01*
X29766Y-23574D01*
X29563Y-23658D01*
X29409Y-23813D01*
X29375Y-23894D01*
X29341Y-23813D01*
X29186Y-23659D01*
X28984Y-23575D01*
X28766Y-23574D01*
X28563Y-23658D01*
X28409Y-23813D01*
X28375Y-23894D01*
X28341Y-23813D01*
X28186Y-23659D01*
X27984Y-23575D01*
X27766Y-23574D01*
X27563Y-23658D01*
X27409Y-23813D01*
X27375Y-23894D01*
X27341Y-23813D01*
X27186Y-23659D01*
X26984Y-23575D01*
X26766Y-23574D01*
X26563Y-23658D01*
X26409Y-23813D01*
X26375Y-23894D01*
X26341Y-23813D01*
X26186Y-23659D01*
X25984Y-23575D01*
X25766Y-23574D01*
X25563Y-23658D01*
X25409Y-23813D01*
X25375Y-23894D01*
X25341Y-23813D01*
X25186Y-23659D01*
X24984Y-23575D01*
X24766Y-23574D01*
X24563Y-23658D01*
X24409Y-23813D01*
X24375Y-23894D01*
X24341Y-23813D01*
X24186Y-23659D01*
X23984Y-23575D01*
X23766Y-23574D01*
X23675Y-23612D01*
X23675Y-22375D01*
X23674Y-22374D01*
X23652Y-22260D01*
X23587Y-22162D01*
X23587Y-22162D01*
X22969Y-21545D01*
X23115Y-21485D01*
X23235Y-21366D01*
X23299Y-21209D01*
X23300Y-21124D01*
X23999Y-20425D01*
X27323Y-20425D01*
X27383Y-20485D01*
X27540Y-20549D01*
X27709Y-20550D01*
X27865Y-20485D01*
X27985Y-20366D01*
X28049Y-20209D01*
X28050Y-20040D01*
X27985Y-19884D01*
X27866Y-19764D01*
X27709Y-19700D01*
X27540Y-19699D01*
X27384Y-19764D01*
X27323Y-19825D01*
X23875Y-19825D01*
X23760Y-19847D01*
X23662Y-19912D01*
X22875Y-20700D01*
X22790Y-20699D01*
X22634Y-20764D01*
X22514Y-20883D01*
X22454Y-21029D01*
X21675Y-20250D01*
X21675Y-17548D01*
X21875Y-17588D01*
X22089Y-17546D01*
X22270Y-17424D01*
X22375Y-17269D01*
X22479Y-17424D01*
X22660Y-17546D01*
X22875Y-17588D01*
X23075Y-17548D01*
X23075Y-19073D01*
X23014Y-19133D01*
X22950Y-19290D01*
X22949Y-19459D01*
X23014Y-19615D01*
X23133Y-19735D01*
X23290Y-19799D01*
X23459Y-19800D01*
X23615Y-19735D01*
X23676Y-19675D01*
X29250Y-19675D01*
X31912Y-22337D01*
X31912Y-22337D01*
X32010Y-22402D01*
X32124Y-22424D01*
X32125Y-22425D01*
X34682Y-22425D01*
X34827Y-22569D01*
X35020Y-22649D01*
X35228Y-22650D01*
X35422Y-22570D01*
X35569Y-22422D01*
X35649Y-22229D01*
X35650Y-22021D01*
X35570Y-21828D01*
X35422Y-21680D01*
X35422Y-21679D01*
X35422Y-20492D01*
X35125Y-20195D01*
X35054Y-20266D01*
X35054Y-20125D01*
X34757Y-19827D01*
X34664Y-19852D01*
X34595Y-20049D01*
X34606Y-20257D01*
X34664Y-20397D01*
X34757Y-20422D01*
X35054Y-20125D01*
X35054Y-20266D01*
X34827Y-20492D01*
X34852Y-20585D01*
X35049Y-20654D01*
X35257Y-20643D01*
X35397Y-20585D01*
X35422Y-20492D01*
X35422Y-21679D01*
X35229Y-21600D01*
X35021Y-21599D01*
X34828Y-21679D01*
X34682Y-21825D01*
X32249Y-21825D01*
X29587Y-19162D01*
X29489Y-19097D01*
X29375Y-19075D01*
X23676Y-19075D01*
X23675Y-19073D01*
X23675Y-17548D01*
X23875Y-17588D01*
X24089Y-17546D01*
X24108Y-17533D01*
X25162Y-18587D01*
X25162Y-18587D01*
X25260Y-18652D01*
X25375Y-18675D01*
X29750Y-18675D01*
X30662Y-19587D01*
X30662Y-19587D01*
X30760Y-19652D01*
X30875Y-19675D01*
X34849Y-19675D01*
X34827Y-19757D01*
X35125Y-20054D01*
X35422Y-19757D01*
X35400Y-19675D01*
X37375Y-19675D01*
X37375Y-19674D01*
X37489Y-19652D01*
X37489Y-19652D01*
X37587Y-19587D01*
X37999Y-19175D01*
X38625Y-19175D01*
X38625Y-19174D01*
X38739Y-19152D01*
X38739Y-19152D01*
X38837Y-19087D01*
X39337Y-18587D01*
X39337Y-18587D01*
X39402Y-18489D01*
X39424Y-18375D01*
X39425Y-18375D01*
X39425Y-23701D01*
X39375Y-23651D01*
X39375Y-20476D01*
X39223Y-20109D01*
X38942Y-19827D01*
X38574Y-19675D01*
X38176Y-19674D01*
X37809Y-19826D01*
X37527Y-20107D01*
X37375Y-20475D01*
X37374Y-20873D01*
X37526Y-21240D01*
X37807Y-21522D01*
X38175Y-21674D01*
X38573Y-21675D01*
X38940Y-21523D01*
X39222Y-21242D01*
X39374Y-20874D01*
X39375Y-20476D01*
X39375Y-23651D01*
X39126Y-23402D01*
X38639Y-23200D01*
X38112Y-23199D01*
X37625Y-23401D01*
X37252Y-23773D01*
X37050Y-24260D01*
X37049Y-24787D01*
X37251Y-25274D01*
X37623Y-25647D01*
X38110Y-25849D01*
X38637Y-25850D01*
X39124Y-25648D01*
X39497Y-25276D01*
X39699Y-24789D01*
X39700Y-24262D01*
X39700Y-25855D01*
X35654Y-25855D01*
X35654Y-20200D01*
X35643Y-19992D01*
X35585Y-19852D01*
X35492Y-19827D01*
X35195Y-20125D01*
X35492Y-20422D01*
X35585Y-20397D01*
X35654Y-20200D01*
X35654Y-25855D01*
X35425Y-25855D01*
X35425Y-25016D01*
X35341Y-24813D01*
X35202Y-24675D01*
X35224Y-24675D01*
X35316Y-24637D01*
X35386Y-24566D01*
X35424Y-24474D01*
X35425Y-24375D01*
X35425Y-23775D01*
X35387Y-23683D01*
X35316Y-23613D01*
X35224Y-23575D01*
X35125Y-23574D01*
X34525Y-23574D01*
X34433Y-23612D01*
X34363Y-23683D01*
X34325Y-23775D01*
X34324Y-23828D01*
X34260Y-23809D01*
X34190Y-23880D01*
X34190Y-23739D01*
X34162Y-23643D01*
X33956Y-23570D01*
X33738Y-23581D01*
X33587Y-23643D01*
X33559Y-23739D01*
X33875Y-24054D01*
X34190Y-23739D01*
X34190Y-23880D01*
X33945Y-24125D01*
X34260Y-24440D01*
X34324Y-24421D01*
X34324Y-24474D01*
X34362Y-24566D01*
X34433Y-24636D01*
X34525Y-24674D01*
X34547Y-24674D01*
X34409Y-24813D01*
X34377Y-24888D01*
X34356Y-24837D01*
X34260Y-24809D01*
X34190Y-24880D01*
X34190Y-24739D01*
X34162Y-24643D01*
X34114Y-24626D01*
X34162Y-24606D01*
X34190Y-24510D01*
X33875Y-24195D01*
X33559Y-24510D01*
X33587Y-24606D01*
X33635Y-24623D01*
X33587Y-24643D01*
X33559Y-24739D01*
X33875Y-25054D01*
X34190Y-24739D01*
X34190Y-24880D01*
X33945Y-25125D01*
X34260Y-25440D01*
X34356Y-25412D01*
X34375Y-25357D01*
X34408Y-25436D01*
X34563Y-25590D01*
X34765Y-25674D01*
X34983Y-25675D01*
X35186Y-25591D01*
X35340Y-25436D01*
X35424Y-25234D01*
X35425Y-25016D01*
X35425Y-25855D01*
X34190Y-25855D01*
X34190Y-25510D01*
X33875Y-25195D01*
X33559Y-25510D01*
X33587Y-25606D01*
X33793Y-25679D01*
X34011Y-25668D01*
X34162Y-25606D01*
X34190Y-25510D01*
X34190Y-25855D01*
X11190Y-25855D01*
X11190Y-25510D01*
X10875Y-25195D01*
X10559Y-25510D01*
X10587Y-25606D01*
X10793Y-25679D01*
X11011Y-25668D01*
X11162Y-25606D01*
X11190Y-25510D01*
X11190Y-25855D01*
X9644Y-25855D01*
X9644Y-6894D01*
X40605Y-6894D01*
X40605Y-25855D01*
X40605Y-25855D01*
G37*
G54D23*
X40605Y-25855D02*
X39700Y-25855D01*
X39700Y-24262D01*
X39498Y-23775D01*
X39425Y-23701D01*
X39425Y-18375D01*
X39425Y-16875D01*
X39424Y-16874D01*
X39402Y-16760D01*
X39375Y-16719D01*
X39375Y-10476D01*
X39223Y-10109D01*
X38942Y-9827D01*
X38574Y-9675D01*
X38176Y-9674D01*
X37809Y-9826D01*
X37527Y-10107D01*
X37375Y-10475D01*
X37374Y-10873D01*
X37526Y-11240D01*
X37807Y-11522D01*
X38175Y-11674D01*
X38573Y-11675D01*
X38940Y-11523D01*
X39222Y-11242D01*
X39374Y-10874D01*
X39375Y-10476D01*
X39375Y-16719D01*
X39337Y-16662D01*
X39337Y-16662D01*
X38929Y-16255D01*
X38929Y-15206D01*
X38929Y-14106D01*
X38918Y-13888D01*
X38856Y-13737D01*
X38760Y-13709D01*
X38690Y-13780D01*
X38690Y-13639D01*
X38662Y-13543D01*
X38456Y-13470D01*
X38238Y-13481D01*
X38087Y-13543D01*
X38059Y-13639D01*
X38375Y-13954D01*
X38690Y-13639D01*
X38690Y-13780D01*
X38445Y-14025D01*
X38760Y-14340D01*
X38856Y-14312D01*
X38929Y-14106D01*
X38929Y-15206D01*
X38918Y-14988D01*
X38856Y-14837D01*
X38760Y-14809D01*
X38690Y-14880D01*
X38690Y-14739D01*
X38662Y-14643D01*
X38460Y-14571D01*
X38511Y-14568D01*
X38662Y-14506D01*
X38690Y-14410D01*
X38375Y-14095D01*
X38304Y-14166D01*
X38304Y-14025D01*
X37989Y-13709D01*
X37893Y-13737D01*
X37820Y-13943D01*
X37831Y-14161D01*
X37893Y-14312D01*
X37989Y-14340D01*
X38304Y-14025D01*
X38304Y-14166D01*
X38059Y-14410D01*
X38087Y-14506D01*
X38289Y-14578D01*
X38238Y-14581D01*
X38087Y-14643D01*
X38059Y-14739D01*
X38375Y-15054D01*
X38690Y-14739D01*
X38690Y-14880D01*
X38445Y-15125D01*
X38760Y-15440D01*
X38856Y-15412D01*
X38929Y-15206D01*
X38929Y-16255D01*
X38924Y-16250D01*
X38925Y-16066D01*
X38841Y-15863D01*
X38686Y-15709D01*
X38551Y-15652D01*
X38662Y-15606D01*
X38690Y-15510D01*
X38375Y-15195D01*
X38304Y-15266D01*
X38304Y-15125D01*
X37989Y-14809D01*
X37893Y-14837D01*
X37820Y-15043D01*
X37831Y-15261D01*
X37893Y-15412D01*
X37989Y-15440D01*
X38304Y-15125D01*
X38304Y-15266D01*
X38059Y-15510D01*
X38087Y-15606D01*
X38207Y-15649D01*
X38063Y-15708D01*
X37909Y-15863D01*
X37825Y-16065D01*
X37824Y-16283D01*
X37908Y-16486D01*
X38063Y-16640D01*
X38265Y-16724D01*
X38483Y-16725D01*
X38266Y-16724D01*
X38063Y-16808D01*
X37909Y-16963D01*
X37825Y-17165D01*
X37824Y-17321D01*
X37816Y-17313D01*
X37724Y-17275D01*
X37625Y-17274D01*
X37484Y-17274D01*
X37686Y-17191D01*
X37840Y-17036D01*
X37924Y-16834D01*
X37925Y-16616D01*
X37841Y-16413D01*
X37686Y-16259D01*
X37484Y-16175D01*
X37483Y-16175D01*
X37686Y-16091D01*
X37840Y-15936D01*
X37924Y-15734D01*
X37925Y-15516D01*
X37841Y-15313D01*
X37686Y-15159D01*
X37544Y-15099D01*
X37686Y-15041D01*
X37840Y-14886D01*
X37924Y-14684D01*
X37925Y-14466D01*
X37841Y-14263D01*
X37686Y-14109D01*
X37484Y-14025D01*
X37483Y-14025D01*
X37686Y-13941D01*
X37840Y-13786D01*
X37924Y-13584D01*
X37925Y-13366D01*
X37841Y-13163D01*
X37686Y-13009D01*
X37484Y-12925D01*
X37266Y-12924D01*
X37063Y-13008D01*
X36909Y-13163D01*
X36825Y-13365D01*
X36824Y-13583D01*
X36908Y-13786D01*
X37063Y-13940D01*
X37265Y-14024D01*
X37483Y-14025D01*
X37266Y-14024D01*
X37063Y-14108D01*
X36909Y-14263D01*
X36825Y-14465D01*
X36824Y-14683D01*
X36908Y-14886D01*
X37063Y-15040D01*
X37205Y-15100D01*
X37063Y-15158D01*
X36909Y-15313D01*
X36825Y-15515D01*
X36824Y-15733D01*
X36908Y-15936D01*
X37063Y-16090D01*
X37265Y-16174D01*
X37483Y-16175D01*
X37266Y-16174D01*
X37063Y-16258D01*
X36909Y-16413D01*
X36825Y-16615D01*
X36824Y-16833D01*
X36908Y-17036D01*
X37063Y-17190D01*
X37265Y-17274D01*
X37325Y-17274D01*
X37025Y-17274D01*
X36933Y-17312D01*
X36863Y-17383D01*
X36825Y-17475D01*
X36824Y-17574D01*
X36824Y-18174D01*
X36862Y-18266D01*
X36933Y-18336D01*
X37025Y-18374D01*
X37124Y-18375D01*
X37200Y-18375D01*
X36750Y-18825D01*
X36522Y-18825D01*
X36522Y-9958D01*
X36419Y-9708D01*
X36228Y-9517D01*
X35978Y-9413D01*
X35708Y-9413D01*
X35458Y-9516D01*
X35350Y-9624D01*
X35244Y-9517D01*
X34994Y-9413D01*
X34724Y-9413D01*
X34558Y-9481D01*
X34558Y-8237D01*
X34549Y-7967D01*
X34463Y-7759D01*
X34354Y-7716D01*
X34283Y-7786D01*
X34283Y-7645D01*
X34240Y-7536D01*
X33987Y-7441D01*
X33717Y-7450D01*
X33509Y-7536D01*
X33466Y-7645D01*
X33875Y-8054D01*
X34283Y-7645D01*
X34283Y-7786D01*
X33945Y-8125D01*
X34354Y-8533D01*
X34463Y-8490D01*
X34558Y-8237D01*
X34558Y-9481D01*
X34474Y-9516D01*
X34283Y-9706D01*
X34283Y-8604D01*
X33875Y-8195D01*
X33804Y-8266D01*
X33804Y-8125D01*
X33395Y-7716D01*
X33286Y-7759D01*
X33191Y-8012D01*
X33200Y-8282D01*
X33286Y-8490D01*
X33395Y-8533D01*
X33804Y-8125D01*
X33804Y-8266D01*
X33466Y-8604D01*
X33509Y-8713D01*
X33762Y-8808D01*
X34032Y-8799D01*
X34240Y-8713D01*
X34283Y-8604D01*
X34283Y-9706D01*
X34283Y-9707D01*
X34179Y-9957D01*
X34179Y-10227D01*
X34282Y-10477D01*
X34473Y-10668D01*
X34723Y-10772D01*
X34993Y-10772D01*
X35243Y-10669D01*
X35351Y-10561D01*
X35457Y-10668D01*
X35707Y-10772D01*
X35977Y-10772D01*
X36227Y-10669D01*
X36418Y-10478D01*
X36522Y-10228D01*
X36522Y-9958D01*
X36522Y-18825D01*
X35400Y-18825D01*
X35400Y-11771D01*
X35320Y-11578D01*
X35172Y-11430D01*
X34979Y-11350D01*
X34771Y-11349D01*
X34578Y-11429D01*
X34430Y-11577D01*
X34350Y-11770D01*
X34349Y-11978D01*
X34429Y-12172D01*
X34577Y-12319D01*
X34649Y-12349D01*
X34550Y-12349D01*
X34458Y-12387D01*
X34388Y-12458D01*
X34350Y-12550D01*
X34349Y-12649D01*
X34349Y-13199D01*
X34387Y-13291D01*
X34458Y-13361D01*
X34550Y-13399D01*
X34649Y-13400D01*
X35199Y-13400D01*
X35291Y-13362D01*
X35361Y-13291D01*
X35399Y-13199D01*
X35400Y-13100D01*
X35400Y-12550D01*
X35362Y-12458D01*
X35291Y-12388D01*
X35199Y-12350D01*
X35100Y-12349D01*
X35100Y-12349D01*
X35172Y-12320D01*
X35319Y-12172D01*
X35399Y-11979D01*
X35400Y-11771D01*
X35400Y-18825D01*
X33570Y-18825D01*
X33570Y-9958D01*
X33467Y-9708D01*
X33276Y-9517D01*
X33026Y-9413D01*
X32756Y-9413D01*
X32506Y-9516D01*
X32398Y-9624D01*
X32292Y-9517D01*
X32042Y-9413D01*
X31772Y-9413D01*
X31522Y-9516D01*
X31331Y-9707D01*
X31227Y-9957D01*
X31227Y-10227D01*
X31330Y-10477D01*
X31521Y-10668D01*
X31771Y-10772D01*
X32041Y-10772D01*
X32291Y-10669D01*
X32399Y-10561D01*
X32505Y-10668D01*
X32755Y-10772D01*
X33025Y-10772D01*
X33275Y-10669D01*
X33466Y-10478D01*
X33570Y-10228D01*
X33570Y-9958D01*
X33570Y-18825D01*
X33400Y-18825D01*
X33400Y-11771D01*
X33320Y-11578D01*
X33172Y-11430D01*
X32979Y-11350D01*
X32771Y-11349D01*
X32578Y-11429D01*
X32430Y-11577D01*
X32350Y-11770D01*
X32349Y-11978D01*
X32429Y-12172D01*
X32577Y-12319D01*
X32649Y-12349D01*
X32550Y-12349D01*
X32458Y-12387D01*
X32388Y-12458D01*
X32350Y-12550D01*
X32349Y-12649D01*
X32349Y-13199D01*
X32387Y-13291D01*
X32458Y-13361D01*
X32550Y-13399D01*
X32649Y-13400D01*
X33199Y-13400D01*
X33291Y-13362D01*
X33361Y-13291D01*
X33399Y-13199D01*
X33400Y-13100D01*
X33400Y-12550D01*
X33362Y-12458D01*
X33291Y-12388D01*
X33199Y-12350D01*
X33100Y-12349D01*
X33100Y-12349D01*
X33172Y-12320D01*
X33319Y-12172D01*
X33399Y-11979D01*
X33400Y-11771D01*
X33400Y-18825D01*
X33252Y-18825D01*
X33299Y-18709D01*
X33300Y-18540D01*
X33235Y-18384D01*
X33116Y-18264D01*
X32959Y-18200D01*
X32874Y-18199D01*
X29175Y-14500D01*
X29175Y-11488D01*
X29270Y-11424D01*
X29375Y-11269D01*
X29479Y-11424D01*
X29660Y-11546D01*
X29875Y-11588D01*
X30089Y-11546D01*
X30270Y-11424D01*
X30392Y-11243D01*
X30435Y-11028D01*
X30435Y-10721D01*
X30392Y-10506D01*
X30270Y-10325D01*
X30089Y-10203D01*
X29875Y-10161D01*
X29660Y-10203D01*
X29479Y-10325D01*
X29375Y-10480D01*
X29270Y-10325D01*
X29089Y-10203D01*
X28875Y-10161D01*
X28660Y-10203D01*
X28479Y-10325D01*
X28375Y-10480D01*
X28270Y-10325D01*
X28175Y-10261D01*
X28175Y-9375D01*
X28174Y-9374D01*
X28152Y-9260D01*
X28087Y-9162D01*
X28087Y-9162D01*
X27337Y-8412D01*
X27239Y-8347D01*
X27125Y-8325D01*
X10625Y-8325D01*
X10510Y-8347D01*
X10412Y-8412D01*
X9912Y-8912D01*
X9847Y-9010D01*
X9825Y-9125D01*
X9825Y-24375D01*
X9847Y-24489D01*
X9912Y-24587D01*
X10162Y-24837D01*
X10162Y-24837D01*
X10260Y-24902D01*
X10363Y-24922D01*
X10320Y-25043D01*
X10331Y-25261D01*
X10393Y-25412D01*
X10489Y-25440D01*
X10804Y-25125D01*
X10798Y-25119D01*
X10869Y-25048D01*
X10875Y-25054D01*
X10880Y-25048D01*
X10951Y-25119D01*
X10945Y-25125D01*
X11260Y-25440D01*
X11356Y-25412D01*
X11375Y-25357D01*
X11408Y-25436D01*
X11563Y-25590D01*
X11765Y-25674D01*
X11983Y-25675D01*
X12186Y-25591D01*
X12340Y-25436D01*
X12374Y-25355D01*
X12408Y-25436D01*
X12563Y-25590D01*
X12765Y-25674D01*
X12983Y-25675D01*
X13186Y-25591D01*
X13340Y-25436D01*
X13374Y-25355D01*
X13408Y-25436D01*
X13563Y-25590D01*
X13765Y-25674D01*
X13983Y-25675D01*
X14186Y-25591D01*
X14340Y-25436D01*
X14374Y-25355D01*
X14408Y-25436D01*
X14563Y-25590D01*
X14765Y-25674D01*
X14983Y-25675D01*
X15186Y-25591D01*
X15340Y-25436D01*
X15374Y-25355D01*
X15408Y-25436D01*
X15563Y-25590D01*
X15765Y-25674D01*
X15983Y-25675D01*
X16186Y-25591D01*
X16340Y-25436D01*
X16374Y-25355D01*
X16408Y-25436D01*
X16563Y-25590D01*
X16765Y-25674D01*
X16983Y-25675D01*
X17186Y-25591D01*
X17340Y-25436D01*
X17374Y-25355D01*
X17408Y-25436D01*
X17563Y-25590D01*
X17765Y-25674D01*
X17983Y-25675D01*
X18186Y-25591D01*
X18340Y-25436D01*
X18374Y-25355D01*
X18408Y-25436D01*
X18563Y-25590D01*
X18765Y-25674D01*
X18983Y-25675D01*
X19186Y-25591D01*
X19340Y-25436D01*
X19374Y-25355D01*
X19408Y-25436D01*
X19563Y-25590D01*
X19765Y-25674D01*
X19983Y-25675D01*
X20186Y-25591D01*
X20340Y-25436D01*
X20374Y-25355D01*
X20408Y-25436D01*
X20563Y-25590D01*
X20765Y-25674D01*
X20983Y-25675D01*
X21186Y-25591D01*
X21340Y-25436D01*
X21374Y-25355D01*
X21408Y-25436D01*
X21563Y-25590D01*
X21765Y-25674D01*
X21983Y-25675D01*
X22186Y-25591D01*
X22340Y-25436D01*
X22374Y-25355D01*
X22408Y-25436D01*
X22563Y-25590D01*
X22765Y-25674D01*
X22983Y-25675D01*
X23186Y-25591D01*
X23340Y-25436D01*
X23374Y-25355D01*
X23408Y-25436D01*
X23563Y-25590D01*
X23765Y-25674D01*
X23983Y-25675D01*
X24186Y-25591D01*
X24340Y-25436D01*
X24374Y-25355D01*
X24408Y-25436D01*
X24563Y-25590D01*
X24765Y-25674D01*
X24983Y-25675D01*
X25186Y-25591D01*
X25340Y-25436D01*
X25374Y-25355D01*
X25408Y-25436D01*
X25563Y-25590D01*
X25765Y-25674D01*
X25983Y-25675D01*
X26186Y-25591D01*
X26340Y-25436D01*
X26374Y-25355D01*
X26408Y-25436D01*
X26563Y-25590D01*
X26765Y-25674D01*
X26983Y-25675D01*
X27186Y-25591D01*
X27340Y-25436D01*
X27374Y-25355D01*
X27408Y-25436D01*
X27563Y-25590D01*
X27765Y-25674D01*
X27983Y-25675D01*
X28186Y-25591D01*
X28340Y-25436D01*
X28374Y-25355D01*
X28408Y-25436D01*
X28563Y-25590D01*
X28765Y-25674D01*
X28983Y-25675D01*
X29186Y-25591D01*
X29340Y-25436D01*
X29374Y-25355D01*
X29408Y-25436D01*
X29563Y-25590D01*
X29765Y-25674D01*
X29983Y-25675D01*
X30186Y-25591D01*
X30340Y-25436D01*
X30374Y-25355D01*
X30408Y-25436D01*
X30563Y-25590D01*
X30765Y-25674D01*
X30983Y-25675D01*
X31186Y-25591D01*
X31340Y-25436D01*
X31374Y-25355D01*
X31408Y-25436D01*
X31563Y-25590D01*
X31765Y-25674D01*
X31983Y-25675D01*
X32186Y-25591D01*
X32340Y-25436D01*
X32374Y-25355D01*
X32408Y-25436D01*
X32563Y-25590D01*
X32765Y-25674D01*
X32983Y-25675D01*
X33186Y-25591D01*
X33340Y-25436D01*
X33372Y-25361D01*
X33393Y-25412D01*
X33489Y-25440D01*
X33804Y-25125D01*
X33489Y-24809D01*
X33393Y-24837D01*
X33374Y-24892D01*
X33341Y-24813D01*
X33186Y-24659D01*
X33105Y-24625D01*
X33186Y-24591D01*
X33340Y-24436D01*
X33372Y-24361D01*
X33393Y-24412D01*
X33489Y-24440D01*
X33804Y-24125D01*
X33489Y-23809D01*
X33393Y-23837D01*
X33374Y-23892D01*
X33341Y-23813D01*
X33186Y-23659D01*
X32984Y-23575D01*
X32766Y-23574D01*
X32563Y-23658D01*
X32409Y-23813D01*
X32375Y-23894D01*
X32341Y-23813D01*
X32186Y-23659D01*
X31984Y-23575D01*
X31766Y-23574D01*
X31563Y-23658D01*
X31409Y-23813D01*
X31375Y-23894D01*
X31341Y-23813D01*
X31186Y-23659D01*
X30984Y-23575D01*
X30766Y-23574D01*
X30563Y-23658D01*
X30409Y-23813D01*
X30375Y-23894D01*
X30341Y-23813D01*
X30186Y-23659D01*
X29984Y-23575D01*
X29766Y-23574D01*
X29563Y-23658D01*
X29409Y-23813D01*
X29375Y-23894D01*
X29341Y-23813D01*
X29186Y-23659D01*
X28984Y-23575D01*
X28766Y-23574D01*
X28563Y-23658D01*
X28409Y-23813D01*
X28375Y-23894D01*
X28341Y-23813D01*
X28186Y-23659D01*
X27984Y-23575D01*
X27766Y-23574D01*
X27563Y-23658D01*
X27409Y-23813D01*
X27375Y-23894D01*
X27341Y-23813D01*
X27186Y-23659D01*
X26984Y-23575D01*
X26766Y-23574D01*
X26563Y-23658D01*
X26409Y-23813D01*
X26375Y-23894D01*
X26341Y-23813D01*
X26186Y-23659D01*
X25984Y-23575D01*
X25766Y-23574D01*
X25563Y-23658D01*
X25409Y-23813D01*
X25375Y-23894D01*
X25341Y-23813D01*
X25186Y-23659D01*
X24984Y-23575D01*
X24766Y-23574D01*
X24563Y-23658D01*
X24409Y-23813D01*
X24375Y-23894D01*
X24341Y-23813D01*
X24186Y-23659D01*
X23984Y-23575D01*
X23766Y-23574D01*
X23675Y-23612D01*
X23675Y-22375D01*
X23674Y-22374D01*
X23652Y-22260D01*
X23587Y-22162D01*
X23587Y-22162D01*
X22969Y-21545D01*
X23115Y-21485D01*
X23235Y-21366D01*
X23299Y-21209D01*
X23300Y-21124D01*
X23999Y-20425D01*
X27323Y-20425D01*
X27383Y-20485D01*
X27540Y-20549D01*
X27709Y-20550D01*
X27865Y-20485D01*
X27985Y-20366D01*
X28049Y-20209D01*
X28050Y-20040D01*
X27985Y-19884D01*
X27866Y-19764D01*
X27709Y-19700D01*
X27540Y-19699D01*
X27384Y-19764D01*
X27323Y-19825D01*
X23875Y-19825D01*
X23760Y-19847D01*
X23662Y-19912D01*
X22875Y-20700D01*
X22790Y-20699D01*
X22634Y-20764D01*
X22514Y-20883D01*
X22454Y-21029D01*
X21675Y-20250D01*
X21675Y-17548D01*
X21875Y-17588D01*
X22089Y-17546D01*
X22270Y-17424D01*
X22375Y-17269D01*
X22479Y-17424D01*
X22660Y-17546D01*
X22875Y-17588D01*
X23075Y-17548D01*
X23075Y-19073D01*
X23014Y-19133D01*
X22950Y-19290D01*
X22949Y-19459D01*
X23014Y-19615D01*
X23133Y-19735D01*
X23290Y-19799D01*
X23459Y-19800D01*
X23615Y-19735D01*
X23676Y-19675D01*
X29250Y-19675D01*
X31912Y-22337D01*
X31912Y-22337D01*
X32010Y-22402D01*
X32124Y-22424D01*
X32125Y-22425D01*
X34682Y-22425D01*
X34827Y-22569D01*
X35020Y-22649D01*
X35228Y-22650D01*
X35422Y-22570D01*
X35569Y-22422D01*
X35649Y-22229D01*
X35650Y-22021D01*
X35570Y-21828D01*
X35422Y-21680D01*
X35422Y-21679D01*
X35422Y-20492D01*
X35125Y-20195D01*
X35054Y-20266D01*
X35054Y-20125D01*
X34757Y-19827D01*
X34664Y-19852D01*
X34595Y-20049D01*
X34606Y-20257D01*
X34664Y-20397D01*
X34757Y-20422D01*
X35054Y-20125D01*
X35054Y-20266D01*
X34827Y-20492D01*
X34852Y-20585D01*
X35049Y-20654D01*
X35257Y-20643D01*
X35397Y-20585D01*
X35422Y-20492D01*
X35422Y-21679D01*
X35229Y-21600D01*
X35021Y-21599D01*
X34828Y-21679D01*
X34682Y-21825D01*
X32249Y-21825D01*
X29587Y-19162D01*
X29489Y-19097D01*
X29375Y-19075D01*
X23676Y-19075D01*
X23675Y-19073D01*
X23675Y-17548D01*
X23875Y-17588D01*
X24089Y-17546D01*
X24108Y-17533D01*
X25162Y-18587D01*
X25162Y-18587D01*
X25260Y-18652D01*
X25375Y-18675D01*
X29750Y-18675D01*
X30662Y-19587D01*
X30662Y-19587D01*
X30760Y-19652D01*
X30875Y-19675D01*
X34849Y-19675D01*
X34827Y-19757D01*
X35125Y-20054D01*
X35422Y-19757D01*
X35400Y-19675D01*
X37375Y-19675D01*
X37375Y-19674D01*
X37489Y-19652D01*
X37489Y-19652D01*
X37587Y-19587D01*
X37999Y-19175D01*
X38625Y-19175D01*
X38625Y-19174D01*
X38739Y-19152D01*
X38739Y-19152D01*
X38837Y-19087D01*
X39337Y-18587D01*
X39337Y-18587D01*
X39402Y-18489D01*
X39424Y-18375D01*
X39425Y-18375D01*
X39425Y-23701D01*
X39375Y-23651D01*
X39375Y-20476D01*
X39223Y-20109D01*
X38942Y-19827D01*
X38574Y-19675D01*
X38176Y-19674D01*
X37809Y-19826D01*
X37527Y-20107D01*
X37375Y-20475D01*
X37374Y-20873D01*
X37526Y-21240D01*
X37807Y-21522D01*
X38175Y-21674D01*
X38573Y-21675D01*
X38940Y-21523D01*
X39222Y-21242D01*
X39374Y-20874D01*
X39375Y-20476D01*
X39375Y-23651D01*
X39126Y-23402D01*
X38639Y-23200D01*
X38112Y-23199D01*
X37625Y-23401D01*
X37252Y-23773D01*
X37050Y-24260D01*
X37049Y-24787D01*
X37251Y-25274D01*
X37623Y-25647D01*
X38110Y-25849D01*
X38637Y-25850D01*
X39124Y-25648D01*
X39497Y-25276D01*
X39699Y-24789D01*
X39700Y-24262D01*
X39700Y-25855D01*
X35654Y-25855D01*
X35654Y-20200D01*
X35643Y-19992D01*
X35585Y-19852D01*
X35492Y-19827D01*
X35195Y-20125D01*
X35492Y-20422D01*
X35585Y-20397D01*
X35654Y-20200D01*
X35654Y-25855D01*
X35425Y-25855D01*
X35425Y-25016D01*
X35341Y-24813D01*
X35202Y-24675D01*
X35224Y-24675D01*
X35316Y-24637D01*
X35386Y-24566D01*
X35424Y-24474D01*
X35425Y-24375D01*
X35425Y-23775D01*
X35387Y-23683D01*
X35316Y-23613D01*
X35224Y-23575D01*
X35125Y-23574D01*
X34525Y-23574D01*
X34433Y-23612D01*
X34363Y-23683D01*
X34325Y-23775D01*
X34324Y-23828D01*
X34260Y-23809D01*
X34190Y-23880D01*
X34190Y-23739D01*
X34162Y-23643D01*
X33956Y-23570D01*
X33738Y-23581D01*
X33587Y-23643D01*
X33559Y-23739D01*
X33875Y-24054D01*
X34190Y-23739D01*
X34190Y-23880D01*
X33945Y-24125D01*
X34260Y-24440D01*
X34324Y-24421D01*
X34324Y-24474D01*
X34362Y-24566D01*
X34433Y-24636D01*
X34525Y-24674D01*
X34547Y-24674D01*
X34409Y-24813D01*
X34377Y-24888D01*
X34356Y-24837D01*
X34260Y-24809D01*
X34190Y-24880D01*
X34190Y-24739D01*
X34162Y-24643D01*
X34114Y-24626D01*
X34162Y-24606D01*
X34190Y-24510D01*
X33875Y-24195D01*
X33559Y-24510D01*
X33587Y-24606D01*
X33635Y-24623D01*
X33587Y-24643D01*
X33559Y-24739D01*
X33875Y-25054D01*
X34190Y-24739D01*
X34190Y-24880D01*
X33945Y-25125D01*
X34260Y-25440D01*
X34356Y-25412D01*
X34375Y-25357D01*
X34408Y-25436D01*
X34563Y-25590D01*
X34765Y-25674D01*
X34983Y-25675D01*
X35186Y-25591D01*
X35340Y-25436D01*
X35424Y-25234D01*
X35425Y-25016D01*
X35425Y-25855D01*
X34190Y-25855D01*
X34190Y-25510D01*
X33875Y-25195D01*
X33559Y-25510D01*
X33587Y-25606D01*
X33793Y-25679D01*
X34011Y-25668D01*
X34162Y-25606D01*
X34190Y-25510D01*
X34190Y-25855D01*
X11190Y-25855D01*
X11190Y-25510D01*
X10875Y-25195D01*
X10559Y-25510D01*
X10587Y-25606D01*
X10793Y-25679D01*
X11011Y-25668D01*
X11162Y-25606D01*
X11190Y-25510D01*
X11190Y-25855D01*
X9644Y-25855D01*
X9644Y-6894D01*
X40605Y-6894D01*
X40605Y-25855D01*
M02*
