G04 (created by PCBNEW (2013-07-07 BZR 4022)-stable) date 02/05/2014 20:54:29*
%MOIN*%
G04 Gerber Fmt 3.4, Leading zero omitted, Abs format*
%FSLAX34Y34*%
G01*
G70*
G90*
G04 APERTURE LIST*
%ADD10C,0.00590551*%
%ADD11C,0.011811*%
%ADD12C,0.0393701*%
%ADD13C,0.0039*%
%ADD14C,0.0035*%
%ADD15C,0.0043*%
G04 APERTURE END LIST*
G54D10*
G54D11*
X30282Y-13114D02*
X30282Y-12523D01*
X30057Y-12523D01*
X30001Y-12551D01*
X29973Y-12579D01*
X29945Y-12635D01*
X29945Y-12720D01*
X29973Y-12776D01*
X30001Y-12804D01*
X30057Y-12832D01*
X30282Y-12832D01*
X29438Y-12720D02*
X29438Y-13114D01*
X29691Y-12720D02*
X29691Y-13029D01*
X29663Y-13085D01*
X29607Y-13114D01*
X29523Y-13114D01*
X29466Y-13085D01*
X29438Y-13057D01*
X29073Y-13114D02*
X29129Y-13085D01*
X29157Y-13029D01*
X29157Y-12523D01*
X28848Y-13114D02*
X28848Y-12523D01*
X28792Y-12889D02*
X28623Y-13114D01*
X28623Y-12720D02*
X28848Y-12945D01*
X28285Y-13114D02*
X28342Y-13085D01*
X28370Y-13057D01*
X28398Y-13001D01*
X28398Y-12832D01*
X28370Y-12776D01*
X28342Y-12748D01*
X28285Y-12720D01*
X28201Y-12720D01*
X28145Y-12748D01*
X28117Y-12776D01*
X28089Y-12832D01*
X28089Y-13001D01*
X28117Y-13057D01*
X28145Y-13085D01*
X28201Y-13114D01*
X28285Y-13114D01*
X27920Y-12523D02*
X27582Y-12523D01*
X27751Y-13114D02*
X27751Y-12523D01*
X27385Y-13114D02*
X27385Y-12720D01*
X27385Y-12832D02*
X27357Y-12776D01*
X27329Y-12748D01*
X27273Y-12720D01*
X27217Y-12720D01*
X26936Y-13114D02*
X26992Y-13085D01*
X27020Y-13057D01*
X27048Y-13001D01*
X27048Y-12832D01*
X27020Y-12776D01*
X26992Y-12748D01*
X26936Y-12720D01*
X26851Y-12720D01*
X26795Y-12748D01*
X26767Y-12776D01*
X26739Y-12832D01*
X26739Y-13001D01*
X26767Y-13057D01*
X26795Y-13085D01*
X26851Y-13114D01*
X26936Y-13114D01*
X26486Y-12720D02*
X26486Y-13114D01*
X26486Y-12776D02*
X26457Y-12748D01*
X26401Y-12720D01*
X26317Y-12720D01*
X26261Y-12748D01*
X26232Y-12804D01*
X26232Y-13114D01*
X25951Y-13114D02*
X25951Y-12720D01*
X25951Y-12523D02*
X25979Y-12551D01*
X25951Y-12579D01*
X25923Y-12551D01*
X25951Y-12523D01*
X25951Y-12579D01*
X25417Y-13085D02*
X25473Y-13114D01*
X25586Y-13114D01*
X25642Y-13085D01*
X25670Y-13057D01*
X25698Y-13001D01*
X25698Y-12832D01*
X25670Y-12776D01*
X25642Y-12748D01*
X25586Y-12720D01*
X25473Y-12720D01*
X25417Y-12748D01*
X25192Y-13085D02*
X25136Y-13114D01*
X25023Y-13114D01*
X24967Y-13085D01*
X24939Y-13029D01*
X24939Y-13001D01*
X24967Y-12945D01*
X25023Y-12917D01*
X25108Y-12917D01*
X25164Y-12889D01*
X25192Y-12832D01*
X25192Y-12804D01*
X25164Y-12748D01*
X25108Y-12720D01*
X25023Y-12720D01*
X24967Y-12748D01*
X28637Y-13524D02*
X28609Y-13496D01*
X28553Y-13468D01*
X28412Y-13468D01*
X28356Y-13496D01*
X28328Y-13524D01*
X28299Y-13580D01*
X28299Y-13637D01*
X28328Y-13721D01*
X28665Y-14058D01*
X28299Y-14058D01*
X27934Y-13468D02*
X27878Y-13468D01*
X27821Y-13496D01*
X27793Y-13524D01*
X27765Y-13580D01*
X27737Y-13693D01*
X27737Y-13833D01*
X27765Y-13946D01*
X27793Y-14002D01*
X27821Y-14030D01*
X27878Y-14058D01*
X27934Y-14058D01*
X27990Y-14030D01*
X28018Y-14002D01*
X28046Y-13946D01*
X28074Y-13833D01*
X28074Y-13693D01*
X28046Y-13580D01*
X28018Y-13524D01*
X27990Y-13496D01*
X27934Y-13468D01*
X27175Y-14058D02*
X27512Y-14058D01*
X27343Y-14058D02*
X27343Y-13468D01*
X27400Y-13552D01*
X27456Y-13608D01*
X27512Y-13637D01*
X26668Y-13665D02*
X26668Y-14058D01*
X26809Y-13440D02*
X26950Y-13862D01*
X26584Y-13862D01*
X29354Y-15003D02*
X29354Y-14413D01*
X29354Y-14694D02*
X29017Y-14694D01*
X29017Y-15003D02*
X29017Y-14413D01*
X28482Y-15003D02*
X28482Y-14694D01*
X28510Y-14638D01*
X28567Y-14610D01*
X28679Y-14610D01*
X28735Y-14638D01*
X28482Y-14975D02*
X28538Y-15003D01*
X28679Y-15003D01*
X28735Y-14975D01*
X28763Y-14919D01*
X28763Y-14863D01*
X28735Y-14806D01*
X28679Y-14778D01*
X28538Y-14778D01*
X28482Y-14750D01*
X28201Y-15003D02*
X28201Y-14413D01*
X28201Y-14638D02*
X28145Y-14610D01*
X28032Y-14610D01*
X27976Y-14638D01*
X27948Y-14666D01*
X27920Y-14722D01*
X27920Y-14891D01*
X27948Y-14947D01*
X27976Y-14975D01*
X28032Y-15003D01*
X28145Y-15003D01*
X28201Y-14975D01*
X27667Y-15003D02*
X27667Y-14610D01*
X27667Y-14413D02*
X27695Y-14441D01*
X27667Y-14469D01*
X27639Y-14441D01*
X27667Y-14413D01*
X27667Y-14469D01*
X27414Y-14975D02*
X27329Y-15003D01*
X27189Y-15003D01*
X27132Y-14975D01*
X27104Y-14947D01*
X27076Y-14891D01*
X27076Y-14835D01*
X27104Y-14778D01*
X27132Y-14750D01*
X27189Y-14722D01*
X27301Y-14694D01*
X27357Y-14666D01*
X27385Y-14638D01*
X27414Y-14581D01*
X27414Y-14525D01*
X27385Y-14469D01*
X27357Y-14441D01*
X27301Y-14413D01*
X27160Y-14413D01*
X27076Y-14441D01*
X26739Y-15003D02*
X26795Y-14975D01*
X26823Y-14947D01*
X26851Y-14891D01*
X26851Y-14722D01*
X26823Y-14666D01*
X26795Y-14638D01*
X26739Y-14610D01*
X26654Y-14610D01*
X26598Y-14638D01*
X26570Y-14666D01*
X26542Y-14722D01*
X26542Y-14891D01*
X26570Y-14947D01*
X26598Y-14975D01*
X26654Y-15003D01*
X26739Y-15003D01*
X26373Y-14610D02*
X26148Y-14610D01*
X26289Y-15003D02*
X26289Y-14497D01*
X26261Y-14441D01*
X26204Y-14413D01*
X26148Y-14413D01*
X26036Y-14610D02*
X25811Y-14610D01*
X25951Y-14413D02*
X25951Y-14919D01*
X25923Y-14975D01*
X25867Y-15003D01*
X25811Y-15003D01*
G54D12*
X24436Y-14406D02*
X23499Y-14406D01*
X24624Y-15081D02*
X23968Y-12718D01*
X23312Y-15081D01*
X22280Y-13956D02*
X22280Y-15081D01*
X22937Y-12718D02*
X22280Y-13956D01*
X21624Y-12718D01*
X20687Y-13731D02*
X20874Y-13618D01*
X20968Y-13506D01*
X21062Y-13281D01*
X21062Y-13168D01*
X20968Y-12943D01*
X20874Y-12831D01*
X20687Y-12718D01*
X20312Y-12718D01*
X20124Y-12831D01*
X20031Y-12943D01*
X19937Y-13168D01*
X19937Y-13281D01*
X20031Y-13506D01*
X20124Y-13618D01*
X20312Y-13731D01*
X20687Y-13731D01*
X20874Y-13843D01*
X20968Y-13956D01*
X21062Y-14181D01*
X21062Y-14631D01*
X20968Y-14856D01*
X20874Y-14968D01*
X20687Y-15081D01*
X20312Y-15081D01*
X20124Y-14968D01*
X20031Y-14856D01*
X19937Y-14631D01*
X19937Y-14181D01*
X20031Y-13956D01*
X20124Y-13843D01*
X20312Y-13731D01*
X19000Y-15081D02*
X18625Y-15081D01*
X18437Y-14968D01*
X18343Y-14856D01*
X18156Y-14518D01*
X18062Y-14068D01*
X18062Y-13168D01*
X18156Y-12943D01*
X18250Y-12831D01*
X18437Y-12718D01*
X18812Y-12718D01*
X19000Y-12831D01*
X19093Y-12943D01*
X19187Y-13168D01*
X19187Y-13731D01*
X19093Y-13956D01*
X19000Y-14068D01*
X18812Y-14181D01*
X18437Y-14181D01*
X18250Y-14068D01*
X18156Y-13956D01*
X18062Y-13731D01*
X17406Y-12718D02*
X16187Y-12718D01*
X16844Y-13618D01*
X16562Y-13618D01*
X16375Y-13731D01*
X16281Y-13843D01*
X16187Y-14068D01*
X16187Y-14631D01*
X16281Y-14856D01*
X16375Y-14968D01*
X16562Y-15081D01*
X17125Y-15081D01*
X17312Y-14968D01*
X17406Y-14856D01*
X14969Y-12718D02*
X14781Y-12718D01*
X14594Y-12831D01*
X14500Y-12943D01*
X14406Y-13168D01*
X14313Y-13618D01*
X14313Y-14181D01*
X14406Y-14631D01*
X14500Y-14856D01*
X14594Y-14968D01*
X14781Y-15081D01*
X14969Y-15081D01*
X15156Y-14968D01*
X15250Y-14856D01*
X15344Y-14631D01*
X15437Y-14181D01*
X15437Y-13618D01*
X15344Y-13168D01*
X15250Y-12943D01*
X15156Y-12831D01*
X14969Y-12718D01*
G54D13*
X12625Y-14275D02*
G75*
G03X12625Y-14275I-50J0D01*
G74*
G01*
X12575Y-13825D02*
X12575Y-14225D01*
X12575Y-14225D02*
X13175Y-14225D01*
X13175Y-14225D02*
X13175Y-13825D01*
X13175Y-13425D02*
X13175Y-13025D01*
X13175Y-13025D02*
X12575Y-13025D01*
X12575Y-13025D02*
X12575Y-13425D01*
X13325Y-15925D02*
G75*
G03X13325Y-15925I-50J0D01*
G74*
G01*
X12825Y-15925D02*
X13225Y-15925D01*
X13225Y-15925D02*
X13225Y-15325D01*
X13225Y-15325D02*
X12825Y-15325D01*
X12425Y-15325D02*
X12025Y-15325D01*
X12025Y-15325D02*
X12025Y-15925D01*
X12025Y-15925D02*
X12425Y-15925D01*
X11025Y-13325D02*
G75*
G03X11025Y-13325I-50J0D01*
G74*
G01*
X11425Y-13325D02*
X11025Y-13325D01*
X11025Y-13325D02*
X11025Y-13925D01*
X11025Y-13925D02*
X11425Y-13925D01*
X11825Y-13925D02*
X12225Y-13925D01*
X12225Y-13925D02*
X12225Y-13325D01*
X12225Y-13325D02*
X11825Y-13325D01*
X11025Y-14325D02*
G75*
G03X11025Y-14325I-50J0D01*
G74*
G01*
X11425Y-14325D02*
X11025Y-14325D01*
X11025Y-14325D02*
X11025Y-14925D01*
X11025Y-14925D02*
X11425Y-14925D01*
X11825Y-14925D02*
X12225Y-14925D01*
X12225Y-14925D02*
X12225Y-14325D01*
X12225Y-14325D02*
X11825Y-14325D01*
X11025Y-12325D02*
G75*
G03X11025Y-12325I-50J0D01*
G74*
G01*
X11425Y-12325D02*
X11025Y-12325D01*
X11025Y-12325D02*
X11025Y-12925D01*
X11025Y-12925D02*
X11425Y-12925D01*
X11825Y-12925D02*
X12225Y-12925D01*
X12225Y-12925D02*
X12225Y-12325D01*
X12225Y-12325D02*
X11825Y-12325D01*
X25775Y-9575D02*
G75*
G03X25775Y-9575I-50J0D01*
G74*
G01*
X26175Y-9575D02*
X25775Y-9575D01*
X25775Y-9575D02*
X25775Y-10175D01*
X25775Y-10175D02*
X26175Y-10175D01*
X26575Y-10175D02*
X26975Y-10175D01*
X26975Y-10175D02*
X26975Y-9575D01*
X26975Y-9575D02*
X26575Y-9575D01*
G54D14*
X34859Y-8078D02*
X34974Y-8078D01*
X34996Y-8085D01*
X35012Y-8101D01*
X35019Y-8124D01*
X35019Y-8139D01*
X34859Y-8017D02*
X34859Y-7918D01*
X34920Y-7971D01*
X34920Y-7948D01*
X34928Y-7933D01*
X34935Y-7925D01*
X34951Y-7918D01*
X34989Y-7918D01*
X35004Y-7925D01*
X35012Y-7933D01*
X35019Y-7948D01*
X35019Y-7994D01*
X35012Y-8009D01*
X35004Y-8017D01*
X34474Y-8893D02*
X34474Y-8817D01*
X34519Y-8908D02*
X34359Y-8855D01*
X34519Y-8802D01*
X34359Y-8748D02*
X34489Y-8748D01*
X34504Y-8741D01*
X34512Y-8733D01*
X34519Y-8718D01*
X34519Y-8687D01*
X34512Y-8672D01*
X34504Y-8665D01*
X34489Y-8657D01*
X34359Y-8657D01*
X34519Y-8581D02*
X34359Y-8581D01*
X34359Y-8543D01*
X34367Y-8520D01*
X34382Y-8505D01*
X34397Y-8497D01*
X34428Y-8489D01*
X34451Y-8489D01*
X34481Y-8497D01*
X34496Y-8505D01*
X34512Y-8520D01*
X34519Y-8543D01*
X34519Y-8581D01*
X34519Y-8421D02*
X34359Y-8421D01*
X34359Y-8314D02*
X34359Y-8284D01*
X34367Y-8268D01*
X34382Y-8253D01*
X34413Y-8245D01*
X34466Y-8245D01*
X34496Y-8253D01*
X34512Y-8268D01*
X34519Y-8284D01*
X34519Y-8314D01*
X34512Y-8329D01*
X34496Y-8345D01*
X34466Y-8352D01*
X34413Y-8352D01*
X34382Y-8345D01*
X34367Y-8329D01*
X34359Y-8314D01*
X34458Y-8177D02*
X34458Y-8055D01*
X34359Y-7933D02*
X34474Y-7933D01*
X34496Y-7941D01*
X34512Y-7956D01*
X34519Y-7979D01*
X34519Y-7994D01*
X34474Y-7865D02*
X34474Y-7788D01*
X34519Y-7880D02*
X34359Y-7826D01*
X34519Y-7773D01*
X34504Y-7628D02*
X34512Y-7636D01*
X34519Y-7659D01*
X34519Y-7674D01*
X34512Y-7697D01*
X34496Y-7712D01*
X34481Y-7720D01*
X34451Y-7727D01*
X34428Y-7727D01*
X34397Y-7720D01*
X34382Y-7712D01*
X34367Y-7697D01*
X34359Y-7674D01*
X34359Y-7659D01*
X34367Y-7636D01*
X34375Y-7628D01*
X34519Y-7560D02*
X34359Y-7560D01*
X34519Y-7468D02*
X34428Y-7537D01*
X34359Y-7468D02*
X34451Y-7560D01*
X34375Y-7407D02*
X34367Y-7400D01*
X34359Y-7385D01*
X34359Y-7346D01*
X34367Y-7331D01*
X34375Y-7324D01*
X34390Y-7316D01*
X34405Y-7316D01*
X34428Y-7324D01*
X34519Y-7415D01*
X34519Y-7316D01*
G54D15*
X13204Y-13998D02*
X13110Y-13932D01*
X13204Y-13885D02*
X13007Y-13885D01*
X13007Y-13960D01*
X13017Y-13979D01*
X13026Y-13988D01*
X13045Y-13998D01*
X13073Y-13998D01*
X13092Y-13988D01*
X13101Y-13979D01*
X13110Y-13960D01*
X13110Y-13885D01*
X13204Y-14185D02*
X13204Y-14073D01*
X13204Y-14129D02*
X13007Y-14129D01*
X13035Y-14110D01*
X13054Y-14092D01*
X13064Y-14073D01*
X13007Y-14354D02*
X13007Y-14317D01*
X13017Y-14298D01*
X13026Y-14289D01*
X13054Y-14270D01*
X13092Y-14261D01*
X13167Y-14261D01*
X13185Y-14270D01*
X13195Y-14279D01*
X13204Y-14298D01*
X13204Y-14336D01*
X13195Y-14354D01*
X13185Y-14364D01*
X13167Y-14373D01*
X13120Y-14373D01*
X13101Y-14364D01*
X13092Y-14354D01*
X13082Y-14336D01*
X13082Y-14298D01*
X13092Y-14279D01*
X13101Y-14270D01*
X13120Y-14261D01*
X12804Y-13685D02*
X12710Y-13620D01*
X12804Y-13573D02*
X12607Y-13573D01*
X12607Y-13648D01*
X12617Y-13667D01*
X12626Y-13676D01*
X12645Y-13685D01*
X12673Y-13685D01*
X12692Y-13676D01*
X12701Y-13667D01*
X12710Y-13648D01*
X12710Y-13573D01*
X12704Y-15498D02*
X12610Y-15432D01*
X12704Y-15385D02*
X12507Y-15385D01*
X12507Y-15460D01*
X12517Y-15479D01*
X12526Y-15488D01*
X12545Y-15498D01*
X12573Y-15498D01*
X12592Y-15488D01*
X12601Y-15479D01*
X12610Y-15460D01*
X12610Y-15385D01*
X12704Y-15685D02*
X12704Y-15573D01*
X12704Y-15629D02*
X12507Y-15629D01*
X12535Y-15610D01*
X12554Y-15592D01*
X12564Y-15573D01*
X12573Y-15854D02*
X12704Y-15854D01*
X12498Y-15807D02*
X12639Y-15761D01*
X12639Y-15882D01*
X12564Y-15854D02*
X12629Y-15760D01*
X12676Y-15854D02*
X12676Y-15657D01*
X12601Y-15657D01*
X12582Y-15667D01*
X12573Y-15676D01*
X12564Y-15695D01*
X12564Y-15723D01*
X12573Y-15742D01*
X12582Y-15751D01*
X12601Y-15760D01*
X12676Y-15760D01*
X12001Y-13454D02*
X12067Y-13360D01*
X12114Y-13454D02*
X12114Y-13257D01*
X12039Y-13257D01*
X12020Y-13267D01*
X12011Y-13276D01*
X12001Y-13295D01*
X12001Y-13323D01*
X12011Y-13342D01*
X12020Y-13351D01*
X12039Y-13360D01*
X12114Y-13360D01*
X11814Y-13454D02*
X11926Y-13454D01*
X11870Y-13454D02*
X11870Y-13257D01*
X11889Y-13285D01*
X11907Y-13304D01*
X11926Y-13314D01*
X11748Y-13257D02*
X11626Y-13257D01*
X11692Y-13332D01*
X11663Y-13332D01*
X11645Y-13342D01*
X11635Y-13351D01*
X11626Y-13370D01*
X11626Y-13417D01*
X11635Y-13435D01*
X11645Y-13445D01*
X11663Y-13454D01*
X11720Y-13454D01*
X11738Y-13445D01*
X11748Y-13435D01*
X11564Y-13554D02*
X11629Y-13460D01*
X11676Y-13554D02*
X11676Y-13357D01*
X11601Y-13357D01*
X11582Y-13367D01*
X11573Y-13376D01*
X11564Y-13395D01*
X11564Y-13423D01*
X11573Y-13442D01*
X11582Y-13451D01*
X11601Y-13460D01*
X11676Y-13460D01*
X12001Y-14454D02*
X12067Y-14360D01*
X12114Y-14454D02*
X12114Y-14257D01*
X12039Y-14257D01*
X12020Y-14267D01*
X12011Y-14276D01*
X12001Y-14295D01*
X12001Y-14323D01*
X12011Y-14342D01*
X12020Y-14351D01*
X12039Y-14360D01*
X12114Y-14360D01*
X11814Y-14454D02*
X11926Y-14454D01*
X11870Y-14454D02*
X11870Y-14257D01*
X11889Y-14285D01*
X11907Y-14304D01*
X11926Y-14314D01*
X11738Y-14276D02*
X11729Y-14267D01*
X11710Y-14257D01*
X11663Y-14257D01*
X11645Y-14267D01*
X11635Y-14276D01*
X11626Y-14295D01*
X11626Y-14314D01*
X11635Y-14342D01*
X11748Y-14454D01*
X11626Y-14454D01*
X11564Y-14554D02*
X11629Y-14460D01*
X11676Y-14554D02*
X11676Y-14357D01*
X11601Y-14357D01*
X11582Y-14367D01*
X11573Y-14376D01*
X11564Y-14395D01*
X11564Y-14423D01*
X11573Y-14442D01*
X11582Y-14451D01*
X11601Y-14460D01*
X11676Y-14460D01*
X12251Y-12704D02*
X12317Y-12610D01*
X12364Y-12704D02*
X12364Y-12507D01*
X12289Y-12507D01*
X12270Y-12517D01*
X12261Y-12526D01*
X12251Y-12545D01*
X12251Y-12573D01*
X12261Y-12592D01*
X12270Y-12601D01*
X12289Y-12610D01*
X12364Y-12610D01*
X12064Y-12704D02*
X12176Y-12704D01*
X12120Y-12704D02*
X12120Y-12507D01*
X12139Y-12535D01*
X12157Y-12554D01*
X12176Y-12564D01*
X11876Y-12704D02*
X11988Y-12704D01*
X11932Y-12704D02*
X11932Y-12507D01*
X11951Y-12535D01*
X11970Y-12554D01*
X11988Y-12564D01*
X11564Y-12204D02*
X11629Y-12110D01*
X11676Y-12204D02*
X11676Y-12007D01*
X11601Y-12007D01*
X11582Y-12017D01*
X11573Y-12026D01*
X11564Y-12045D01*
X11564Y-12073D01*
X11573Y-12092D01*
X11582Y-12101D01*
X11601Y-12110D01*
X11676Y-12110D01*
X26435Y-9342D02*
X26445Y-9332D01*
X26454Y-9304D01*
X26454Y-9285D01*
X26445Y-9257D01*
X26426Y-9238D01*
X26407Y-9229D01*
X26370Y-9220D01*
X26342Y-9220D01*
X26304Y-9229D01*
X26285Y-9238D01*
X26267Y-9257D01*
X26257Y-9285D01*
X26257Y-9304D01*
X26267Y-9332D01*
X26276Y-9342D01*
X26276Y-9417D02*
X26267Y-9426D01*
X26257Y-9445D01*
X26257Y-9492D01*
X26267Y-9511D01*
X26276Y-9520D01*
X26295Y-9529D01*
X26314Y-9529D01*
X26342Y-9520D01*
X26454Y-9407D01*
X26454Y-9529D01*
X26501Y-9804D02*
X26614Y-9804D01*
X26557Y-9804D02*
X26557Y-9607D01*
X26576Y-9635D01*
X26595Y-9654D01*
X26614Y-9664D01*
X26379Y-9607D02*
X26360Y-9607D01*
X26342Y-9617D01*
X26332Y-9626D01*
X26323Y-9645D01*
X26314Y-9682D01*
X26314Y-9729D01*
X26323Y-9767D01*
X26332Y-9785D01*
X26342Y-9795D01*
X26360Y-9804D01*
X26379Y-9804D01*
X26398Y-9795D01*
X26407Y-9785D01*
X26417Y-9767D01*
X26426Y-9729D01*
X26426Y-9682D01*
X26417Y-9645D01*
X26407Y-9626D01*
X26398Y-9617D01*
X26379Y-9607D01*
X26229Y-9673D02*
X26229Y-9804D01*
X26229Y-9692D02*
X26220Y-9682D01*
X26201Y-9673D01*
X26173Y-9673D01*
X26154Y-9682D01*
X26145Y-9701D01*
X26145Y-9804D01*
M02*
