G04 (created by PCBNEW (2013-07-07 BZR 4022)-stable) date 02/05/2014 20:54:29*
%MOIN*%
G04 Gerber Fmt 3.4, Leading zero omitted, Abs format*
%FSLAX34Y34*%
G01*
G70*
G90*
G04 APERTURE LIST*
%ADD10C,0.00590551*%
%ADD11C,0.011811*%
%ADD12C,0.008*%
%ADD13C,0.012*%
%ADD14C,0.005*%
%ADD15C,0.0039*%
%ADD16C,0.015*%
%ADD17C,0.0043*%
%ADD18C,0.01*%
%ADD19C,0.01125*%
%ADD20C,0.0075*%
%ADD21C,0.0107*%
G04 APERTURE END LIST*
G54D10*
G54D11*
X17052Y-7864D02*
X17052Y-7273D01*
X17193Y-7273D01*
X17277Y-7301D01*
X17333Y-7357D01*
X17361Y-7414D01*
X17389Y-7526D01*
X17389Y-7610D01*
X17361Y-7723D01*
X17333Y-7779D01*
X17277Y-7835D01*
X17193Y-7864D01*
X17052Y-7864D01*
X17642Y-7864D02*
X17642Y-7273D01*
X17980Y-7864D02*
X17727Y-7526D01*
X17980Y-7273D02*
X17642Y-7610D01*
X18261Y-7273D02*
X18205Y-7385D01*
X18430Y-7273D02*
X18767Y-7273D01*
X18599Y-7864D02*
X18599Y-7273D01*
X18964Y-7864D02*
X18964Y-7470D01*
X18964Y-7582D02*
X18992Y-7526D01*
X19020Y-7498D01*
X19077Y-7470D01*
X19133Y-7470D01*
X19414Y-7864D02*
X19358Y-7835D01*
X19330Y-7807D01*
X19302Y-7751D01*
X19302Y-7582D01*
X19330Y-7526D01*
X19358Y-7498D01*
X19414Y-7470D01*
X19499Y-7470D01*
X19555Y-7498D01*
X19583Y-7526D01*
X19611Y-7582D01*
X19611Y-7751D01*
X19583Y-7807D01*
X19555Y-7835D01*
X19499Y-7864D01*
X19414Y-7864D01*
X19864Y-7470D02*
X19864Y-7864D01*
X19864Y-7526D02*
X19892Y-7498D01*
X19948Y-7470D01*
X20033Y-7470D01*
X20089Y-7498D01*
X20117Y-7554D01*
X20117Y-7864D01*
X20398Y-7864D02*
X20398Y-7470D01*
X20398Y-7273D02*
X20370Y-7301D01*
X20398Y-7329D01*
X20427Y-7301D01*
X20398Y-7273D01*
X20398Y-7329D01*
X20933Y-7835D02*
X20876Y-7864D01*
X20764Y-7864D01*
X20708Y-7835D01*
X20680Y-7807D01*
X20651Y-7751D01*
X20651Y-7582D01*
X20680Y-7526D01*
X20708Y-7498D01*
X20764Y-7470D01*
X20876Y-7470D01*
X20933Y-7498D01*
X21158Y-7835D02*
X21214Y-7864D01*
X21326Y-7864D01*
X21383Y-7835D01*
X21411Y-7779D01*
X21411Y-7751D01*
X21383Y-7695D01*
X21326Y-7667D01*
X21242Y-7667D01*
X21186Y-7639D01*
X21158Y-7582D01*
X21158Y-7554D01*
X21186Y-7498D01*
X21242Y-7470D01*
X21326Y-7470D01*
X21383Y-7498D01*
X22086Y-7695D02*
X22367Y-7695D01*
X22029Y-7864D02*
X22226Y-7273D01*
X22423Y-7864D01*
X22732Y-7582D02*
X22732Y-7864D01*
X22536Y-7273D02*
X22732Y-7582D01*
X22929Y-7273D01*
X23576Y-7864D02*
X23576Y-7470D01*
X23576Y-7273D02*
X23548Y-7301D01*
X23576Y-7329D01*
X23604Y-7301D01*
X23576Y-7273D01*
X23576Y-7329D01*
X23857Y-7470D02*
X23857Y-7864D01*
X23857Y-7526D02*
X23885Y-7498D01*
X23942Y-7470D01*
X24026Y-7470D01*
X24082Y-7498D01*
X24110Y-7554D01*
X24110Y-7864D01*
X24307Y-7470D02*
X24532Y-7470D01*
X24392Y-7273D02*
X24392Y-7779D01*
X24420Y-7835D01*
X24476Y-7864D01*
X24532Y-7864D01*
X24954Y-7835D02*
X24898Y-7864D01*
X24785Y-7864D01*
X24729Y-7835D01*
X24701Y-7779D01*
X24701Y-7554D01*
X24729Y-7498D01*
X24785Y-7470D01*
X24898Y-7470D01*
X24954Y-7498D01*
X24982Y-7554D01*
X24982Y-7610D01*
X24701Y-7667D01*
X25235Y-7864D02*
X25235Y-7470D01*
X25235Y-7582D02*
X25263Y-7526D01*
X25292Y-7498D01*
X25348Y-7470D01*
X25404Y-7470D01*
X25517Y-7470D02*
X25741Y-7470D01*
X25601Y-7864D02*
X25601Y-7357D01*
X25629Y-7301D01*
X25685Y-7273D01*
X25741Y-7273D01*
X26191Y-7864D02*
X26191Y-7554D01*
X26163Y-7498D01*
X26107Y-7470D01*
X25995Y-7470D01*
X25938Y-7498D01*
X26191Y-7835D02*
X26135Y-7864D01*
X25995Y-7864D01*
X25938Y-7835D01*
X25910Y-7779D01*
X25910Y-7723D01*
X25938Y-7667D01*
X25995Y-7639D01*
X26135Y-7639D01*
X26191Y-7610D01*
X26726Y-7835D02*
X26669Y-7864D01*
X26557Y-7864D01*
X26501Y-7835D01*
X26473Y-7807D01*
X26445Y-7751D01*
X26445Y-7582D01*
X26473Y-7526D01*
X26501Y-7498D01*
X26557Y-7470D01*
X26669Y-7470D01*
X26726Y-7498D01*
X27204Y-7835D02*
X27148Y-7864D01*
X27035Y-7864D01*
X26979Y-7835D01*
X26951Y-7779D01*
X26951Y-7554D01*
X26979Y-7498D01*
X27035Y-7470D01*
X27148Y-7470D01*
X27204Y-7498D01*
X27232Y-7554D01*
X27232Y-7610D01*
X26951Y-7667D01*
X27851Y-7470D02*
X28076Y-7470D01*
X27935Y-7864D02*
X27935Y-7357D01*
X27963Y-7301D01*
X28019Y-7273D01*
X28076Y-7273D01*
X28357Y-7864D02*
X28301Y-7835D01*
X28272Y-7807D01*
X28244Y-7751D01*
X28244Y-7582D01*
X28272Y-7526D01*
X28301Y-7498D01*
X28357Y-7470D01*
X28441Y-7470D01*
X28497Y-7498D01*
X28526Y-7526D01*
X28554Y-7582D01*
X28554Y-7751D01*
X28526Y-7807D01*
X28497Y-7835D01*
X28441Y-7864D01*
X28357Y-7864D01*
X28807Y-7864D02*
X28807Y-7470D01*
X28807Y-7582D02*
X28835Y-7526D01*
X28863Y-7498D01*
X28919Y-7470D01*
X28975Y-7470D01*
X29622Y-7864D02*
X29622Y-7273D01*
X29847Y-7273D01*
X29903Y-7301D01*
X29932Y-7329D01*
X29960Y-7385D01*
X29960Y-7470D01*
X29932Y-7526D01*
X29903Y-7554D01*
X29847Y-7582D01*
X29622Y-7582D01*
X30550Y-7807D02*
X30522Y-7835D01*
X30438Y-7864D01*
X30382Y-7864D01*
X30297Y-7835D01*
X30241Y-7779D01*
X30213Y-7723D01*
X30185Y-7610D01*
X30185Y-7526D01*
X30213Y-7414D01*
X30241Y-7357D01*
X30297Y-7301D01*
X30382Y-7273D01*
X30438Y-7273D01*
X30522Y-7301D01*
X30550Y-7329D01*
X30747Y-7273D02*
X30888Y-7864D01*
X31000Y-7442D01*
X31113Y-7864D01*
X31253Y-7273D01*
G54D12*
X33875Y-19725D02*
X33875Y-21625D01*
X33875Y-21625D02*
X29875Y-21625D01*
X29875Y-21625D02*
X29875Y-19725D01*
X29875Y-19725D02*
X33875Y-19725D01*
X29875Y-20425D02*
X30125Y-20425D01*
X30125Y-20425D02*
X30125Y-20925D01*
X30125Y-20925D02*
X29875Y-20925D01*
G54D13*
X36975Y-9275D02*
X36975Y-22075D01*
X36975Y-22075D02*
X43975Y-22075D01*
X43975Y-22075D02*
X43975Y-9275D01*
X43975Y-9275D02*
X36975Y-9275D01*
X43975Y-12075D02*
X40975Y-12075D01*
X40975Y-12075D02*
X40975Y-19275D01*
X40975Y-19275D02*
X43975Y-19275D01*
X43975Y-12675D02*
X47375Y-12675D01*
X47375Y-12675D02*
X47375Y-18675D01*
X47375Y-18675D02*
X43975Y-18675D01*
G54D12*
X15175Y-20325D02*
X15475Y-20325D01*
X15475Y-20325D02*
X15475Y-20925D01*
X15475Y-20925D02*
X15175Y-20925D01*
X19575Y-19725D02*
X19575Y-21525D01*
X19575Y-21525D02*
X15175Y-21525D01*
X15175Y-21525D02*
X15175Y-19725D01*
X15175Y-19725D02*
X19575Y-19725D01*
X36237Y-11077D02*
X31513Y-11077D01*
X36237Y-6748D02*
X35646Y-6748D01*
X32104Y-6748D02*
X31513Y-6748D01*
X35646Y-6354D02*
X35056Y-6354D01*
X32694Y-6354D02*
X32104Y-6354D01*
X32104Y-6354D02*
X32104Y-6748D01*
X35646Y-6354D02*
X35646Y-6748D01*
X35056Y-5566D02*
X32694Y-5566D01*
X32694Y-5566D02*
X32694Y-6354D01*
X35056Y-5566D02*
X35056Y-6354D01*
X36237Y-6748D02*
X36237Y-9502D01*
X36237Y-11077D02*
X36237Y-10684D01*
X36237Y-6748D02*
X31513Y-6748D01*
X31513Y-6748D02*
X31513Y-9502D01*
X31513Y-11077D02*
X31513Y-10684D01*
G54D14*
X36009Y-8125D02*
G75*
G03X36009Y-8125I-166J0D01*
G74*
G01*
X35843Y-7889D02*
X35843Y-8361D01*
X35607Y-8125D02*
X36079Y-8125D01*
X36009Y-7141D02*
G75*
G03X36009Y-7141I-166J0D01*
G74*
G01*
X35843Y-6905D02*
X35843Y-7377D01*
X35607Y-7141D02*
X36079Y-7141D01*
X32073Y-7141D02*
G75*
G03X32073Y-7141I-166J0D01*
G74*
G01*
X31907Y-6905D02*
X31907Y-7377D01*
X31671Y-7141D02*
X32143Y-7141D01*
X32073Y-8125D02*
G75*
G03X32073Y-8125I-166J0D01*
G74*
G01*
X31907Y-7889D02*
X31907Y-8361D01*
X31671Y-8125D02*
X32143Y-8125D01*
X34041Y-10093D02*
G75*
G03X34041Y-10093I-166J0D01*
G74*
G01*
X33875Y-9857D02*
X33875Y-10329D01*
X33639Y-10093D02*
X34111Y-10093D01*
G54D15*
X13225Y-9775D02*
G75*
G03X13225Y-9775I-50J0D01*
G74*
G01*
X13175Y-9325D02*
X13175Y-9725D01*
X13175Y-9725D02*
X12575Y-9725D01*
X12575Y-9725D02*
X12575Y-9325D01*
X12575Y-8925D02*
X12575Y-8525D01*
X12575Y-8525D02*
X13175Y-8525D01*
X13175Y-8525D02*
X13175Y-8925D01*
X11625Y-8475D02*
G75*
G03X11625Y-8475I-50J0D01*
G74*
G01*
X11575Y-8925D02*
X11575Y-8525D01*
X11575Y-8525D02*
X12175Y-8525D01*
X12175Y-8525D02*
X12175Y-8925D01*
X12175Y-9325D02*
X12175Y-9725D01*
X12175Y-9725D02*
X11575Y-9725D01*
X11575Y-9725D02*
X11575Y-9325D01*
X15275Y-8425D02*
G75*
G03X15275Y-8425I-50J0D01*
G74*
G01*
X15675Y-8425D02*
X15275Y-8425D01*
X15275Y-8425D02*
X15275Y-7825D01*
X15275Y-7825D02*
X15675Y-7825D01*
X16075Y-7825D02*
X16475Y-7825D01*
X16475Y-7825D02*
X16475Y-8425D01*
X16475Y-8425D02*
X16075Y-8425D01*
X14825Y-7825D02*
G75*
G03X14825Y-7825I-50J0D01*
G74*
G01*
X14325Y-7825D02*
X14725Y-7825D01*
X14725Y-7825D02*
X14725Y-8425D01*
X14725Y-8425D02*
X14325Y-8425D01*
X13925Y-8425D02*
X13525Y-8425D01*
X13525Y-8425D02*
X13525Y-7825D01*
X13525Y-7825D02*
X13925Y-7825D01*
X36475Y-22275D02*
G75*
G03X36475Y-22275I-50J0D01*
G74*
G01*
X36425Y-21825D02*
X36425Y-22225D01*
X36425Y-22225D02*
X35825Y-22225D01*
X35825Y-22225D02*
X35825Y-21825D01*
X35825Y-21425D02*
X35825Y-21025D01*
X35825Y-21025D02*
X36425Y-21025D01*
X36425Y-21025D02*
X36425Y-21425D01*
G54D13*
X35475Y-24125D02*
X35975Y-24425D01*
X35975Y-24425D02*
X35975Y-23825D01*
X35975Y-23825D02*
X35475Y-24125D01*
X39175Y-26325D02*
X39175Y-22925D01*
X39175Y-22925D02*
X6575Y-22925D01*
X6575Y-22925D02*
X6575Y-26325D01*
X6575Y-26325D02*
X39175Y-26325D01*
X23575Y-22925D02*
X23575Y-23225D01*
X23575Y-23225D02*
X36375Y-23225D01*
X36375Y-23225D02*
X36375Y-26025D01*
X36375Y-26025D02*
X9375Y-26025D01*
X9375Y-26025D02*
X9375Y-23225D01*
X9375Y-23225D02*
X22175Y-23225D01*
X22175Y-23225D02*
X22175Y-22925D01*
G54D16*
X9875Y-13375D02*
X10375Y-13375D01*
X10375Y-13375D02*
X10375Y-14375D01*
X10375Y-14375D02*
X9875Y-14375D01*
X9875Y-11375D02*
X30875Y-11375D01*
X30875Y-11375D02*
X30875Y-16375D01*
X30875Y-16375D02*
X9875Y-16375D01*
X9875Y-16375D02*
X9875Y-11375D01*
G54D13*
X34725Y-22525D02*
X34725Y-19725D01*
X34725Y-19725D02*
X35525Y-19725D01*
X35525Y-19725D02*
X35525Y-22525D01*
X35525Y-22525D02*
X34725Y-22525D01*
X34925Y-22525D02*
X34725Y-22325D01*
G54D14*
X33876Y-12375D02*
G75*
G03X33876Y-12375I-1001J0D01*
G74*
G01*
X35876Y-12375D02*
G75*
G03X35876Y-12375I-1001J0D01*
G74*
G01*
G54D12*
X24175Y-20325D02*
X24475Y-20325D01*
X24475Y-20325D02*
X24475Y-20925D01*
X24475Y-20925D02*
X24175Y-20925D01*
X28575Y-19725D02*
X28575Y-21525D01*
X28575Y-21525D02*
X24175Y-21525D01*
X24175Y-21525D02*
X24175Y-19725D01*
X24175Y-19725D02*
X28575Y-19725D01*
X14375Y-19725D02*
X14375Y-21625D01*
X14375Y-21625D02*
X10375Y-21625D01*
X10375Y-21625D02*
X10375Y-19725D01*
X10375Y-19725D02*
X14375Y-19725D01*
X10375Y-20425D02*
X10625Y-20425D01*
X10625Y-20425D02*
X10625Y-20925D01*
X10625Y-20925D02*
X10375Y-20925D01*
G54D13*
X13875Y-9875D02*
X13875Y-8875D01*
X13875Y-8875D02*
X23875Y-8875D01*
X23875Y-8875D02*
X23875Y-9875D01*
X23875Y-9875D02*
X13875Y-9875D01*
X14875Y-9875D02*
X14875Y-8875D01*
G54D14*
X31532Y-19886D02*
X31532Y-20210D01*
X31553Y-20248D01*
X31575Y-20267D01*
X31617Y-20286D01*
X31703Y-20286D01*
X31746Y-20267D01*
X31767Y-20248D01*
X31789Y-20210D01*
X31789Y-19886D01*
X31982Y-19925D02*
X32003Y-19905D01*
X32046Y-19886D01*
X32153Y-19886D01*
X32196Y-19905D01*
X32217Y-19925D01*
X32239Y-19963D01*
X32239Y-20001D01*
X32217Y-20058D01*
X31960Y-20286D01*
X32239Y-20286D01*
X30817Y-20886D02*
X31084Y-20886D01*
X30913Y-21286D01*
X31408Y-21020D02*
X31408Y-21286D01*
X31313Y-20867D02*
X31217Y-21153D01*
X31465Y-21153D01*
X31808Y-21286D02*
X31617Y-21286D01*
X31617Y-20886D01*
X31922Y-21267D02*
X31979Y-21286D01*
X32075Y-21286D01*
X32113Y-21267D01*
X32132Y-21248D01*
X32151Y-21210D01*
X32151Y-21172D01*
X32132Y-21134D01*
X32113Y-21115D01*
X32075Y-21096D01*
X31998Y-21077D01*
X31960Y-21058D01*
X31941Y-21039D01*
X31922Y-21001D01*
X31922Y-20963D01*
X31941Y-20925D01*
X31960Y-20905D01*
X31998Y-20886D01*
X32094Y-20886D01*
X32151Y-20905D01*
X32284Y-20886D02*
X32551Y-20886D01*
X32379Y-21286D01*
X32875Y-21020D02*
X32875Y-21286D01*
X32779Y-20867D02*
X32684Y-21153D01*
X32932Y-21153D01*
G54D13*
X41517Y-16325D02*
X41946Y-16325D01*
X42032Y-16353D01*
X42089Y-16410D01*
X42117Y-16496D01*
X42117Y-16553D01*
X41717Y-15782D02*
X42117Y-15782D01*
X41489Y-15925D02*
X41917Y-16067D01*
X41917Y-15696D01*
X39617Y-16867D02*
X39017Y-16867D01*
X39017Y-16725D01*
X39046Y-16639D01*
X39103Y-16582D01*
X39160Y-16553D01*
X39275Y-16525D01*
X39360Y-16525D01*
X39475Y-16553D01*
X39532Y-16582D01*
X39589Y-16639D01*
X39617Y-16725D01*
X39617Y-16867D01*
X39303Y-16067D02*
X39332Y-15982D01*
X39360Y-15953D01*
X39417Y-15925D01*
X39503Y-15925D01*
X39560Y-15953D01*
X39589Y-15982D01*
X39617Y-16039D01*
X39617Y-16267D01*
X39017Y-16267D01*
X39017Y-16067D01*
X39046Y-16010D01*
X39075Y-15982D01*
X39132Y-15953D01*
X39189Y-15953D01*
X39246Y-15982D01*
X39275Y-16010D01*
X39303Y-16067D01*
X39303Y-16267D01*
X39617Y-15639D02*
X39617Y-15525D01*
X39589Y-15467D01*
X39560Y-15439D01*
X39475Y-15382D01*
X39360Y-15353D01*
X39132Y-15353D01*
X39075Y-15382D01*
X39046Y-15410D01*
X39017Y-15467D01*
X39017Y-15582D01*
X39046Y-15639D01*
X39075Y-15667D01*
X39132Y-15696D01*
X39275Y-15696D01*
X39332Y-15667D01*
X39360Y-15639D01*
X39389Y-15582D01*
X39389Y-15467D01*
X39360Y-15410D01*
X39332Y-15382D01*
X39275Y-15353D01*
G54D12*
X17120Y-19886D02*
X17120Y-20210D01*
X17139Y-20248D01*
X17158Y-20267D01*
X17196Y-20286D01*
X17272Y-20286D01*
X17310Y-20267D01*
X17329Y-20248D01*
X17348Y-20210D01*
X17348Y-19886D01*
X17710Y-20020D02*
X17710Y-20286D01*
X17615Y-19867D02*
X17520Y-20153D01*
X17767Y-20153D01*
X16127Y-20886D02*
X16394Y-20886D01*
X16222Y-21286D01*
X16717Y-21020D02*
X16717Y-21286D01*
X16622Y-20867D02*
X16527Y-21153D01*
X16775Y-21153D01*
X17117Y-21286D02*
X16927Y-21286D01*
X16927Y-20886D01*
X17232Y-21267D02*
X17289Y-21286D01*
X17384Y-21286D01*
X17422Y-21267D01*
X17441Y-21248D01*
X17460Y-21210D01*
X17460Y-21172D01*
X17441Y-21134D01*
X17422Y-21115D01*
X17384Y-21096D01*
X17308Y-21077D01*
X17270Y-21058D01*
X17251Y-21039D01*
X17232Y-21001D01*
X17232Y-20963D01*
X17251Y-20925D01*
X17270Y-20905D01*
X17308Y-20886D01*
X17403Y-20886D01*
X17460Y-20905D01*
X17841Y-21286D02*
X17613Y-21286D01*
X17727Y-21286D02*
X17727Y-20886D01*
X17689Y-20944D01*
X17651Y-20982D01*
X17613Y-21001D01*
X17975Y-20886D02*
X18222Y-20886D01*
X18089Y-21039D01*
X18146Y-21039D01*
X18184Y-21058D01*
X18203Y-21077D01*
X18222Y-21115D01*
X18222Y-21210D01*
X18203Y-21248D01*
X18184Y-21267D01*
X18146Y-21286D01*
X18032Y-21286D01*
X17994Y-21267D01*
X17975Y-21248D01*
X18451Y-21058D02*
X18413Y-21039D01*
X18394Y-21020D01*
X18375Y-20982D01*
X18375Y-20963D01*
X18394Y-20925D01*
X18413Y-20905D01*
X18451Y-20886D01*
X18527Y-20886D01*
X18565Y-20905D01*
X18584Y-20925D01*
X18603Y-20963D01*
X18603Y-20982D01*
X18584Y-21020D01*
X18565Y-21039D01*
X18527Y-21058D01*
X18451Y-21058D01*
X18413Y-21077D01*
X18394Y-21096D01*
X18375Y-21134D01*
X18375Y-21210D01*
X18394Y-21248D01*
X18413Y-21267D01*
X18451Y-21286D01*
X18527Y-21286D01*
X18565Y-21267D01*
X18584Y-21248D01*
X18603Y-21210D01*
X18603Y-21134D01*
X18584Y-21096D01*
X18565Y-21077D01*
X18527Y-21058D01*
G54D17*
X12454Y-9251D02*
X12360Y-9317D01*
X12454Y-9364D02*
X12257Y-9364D01*
X12257Y-9289D01*
X12267Y-9270D01*
X12276Y-9261D01*
X12295Y-9251D01*
X12323Y-9251D01*
X12342Y-9261D01*
X12351Y-9270D01*
X12360Y-9289D01*
X12360Y-9364D01*
X12454Y-9064D02*
X12454Y-9176D01*
X12454Y-9120D02*
X12257Y-9120D01*
X12285Y-9139D01*
X12304Y-9157D01*
X12314Y-9176D01*
X12257Y-8998D02*
X12257Y-8867D01*
X12454Y-8951D01*
X13085Y-9204D02*
X13020Y-9110D01*
X12973Y-9204D02*
X12973Y-9007D01*
X13048Y-9007D01*
X13067Y-9017D01*
X13076Y-9026D01*
X13085Y-9045D01*
X13085Y-9073D01*
X13076Y-9092D01*
X13067Y-9101D01*
X13048Y-9110D01*
X12973Y-9110D01*
X11998Y-9204D02*
X11932Y-9110D01*
X11885Y-9204D02*
X11885Y-9007D01*
X11960Y-9007D01*
X11979Y-9017D01*
X11988Y-9026D01*
X11998Y-9045D01*
X11998Y-9073D01*
X11988Y-9092D01*
X11979Y-9101D01*
X11960Y-9110D01*
X11885Y-9110D01*
X12185Y-9204D02*
X12073Y-9204D01*
X12129Y-9204D02*
X12129Y-9007D01*
X12110Y-9035D01*
X12092Y-9054D01*
X12073Y-9064D01*
X12364Y-9007D02*
X12270Y-9007D01*
X12261Y-9101D01*
X12270Y-9092D01*
X12289Y-9082D01*
X12336Y-9082D01*
X12354Y-9092D01*
X12364Y-9101D01*
X12373Y-9120D01*
X12373Y-9167D01*
X12364Y-9185D01*
X12354Y-9195D01*
X12336Y-9204D01*
X12289Y-9204D01*
X12270Y-9195D01*
X12261Y-9185D01*
X11804Y-9064D02*
X11710Y-9129D01*
X11804Y-9176D02*
X11607Y-9176D01*
X11607Y-9101D01*
X11617Y-9082D01*
X11626Y-9073D01*
X11645Y-9064D01*
X11673Y-9064D01*
X11692Y-9073D01*
X11701Y-9082D01*
X11710Y-9101D01*
X11710Y-9176D01*
X15748Y-7954D02*
X15682Y-7860D01*
X15635Y-7954D02*
X15635Y-7757D01*
X15710Y-7757D01*
X15729Y-7767D01*
X15738Y-7776D01*
X15748Y-7795D01*
X15748Y-7823D01*
X15738Y-7842D01*
X15729Y-7851D01*
X15710Y-7860D01*
X15635Y-7860D01*
X15935Y-7954D02*
X15823Y-7954D01*
X15879Y-7954D02*
X15879Y-7757D01*
X15860Y-7785D01*
X15842Y-7804D01*
X15823Y-7814D01*
X16048Y-7842D02*
X16029Y-7832D01*
X16020Y-7823D01*
X16011Y-7804D01*
X16011Y-7795D01*
X16020Y-7776D01*
X16029Y-7767D01*
X16048Y-7757D01*
X16086Y-7757D01*
X16104Y-7767D01*
X16114Y-7776D01*
X16123Y-7795D01*
X16123Y-7804D01*
X16114Y-7823D01*
X16104Y-7832D01*
X16086Y-7842D01*
X16048Y-7842D01*
X16029Y-7851D01*
X16020Y-7860D01*
X16011Y-7879D01*
X16011Y-7917D01*
X16020Y-7935D01*
X16029Y-7945D01*
X16048Y-7954D01*
X16086Y-7954D01*
X16104Y-7945D01*
X16114Y-7935D01*
X16123Y-7917D01*
X16123Y-7879D01*
X16114Y-7860D01*
X16104Y-7851D01*
X16086Y-7842D01*
X15935Y-8354D02*
X15870Y-8260D01*
X15823Y-8354D02*
X15823Y-8157D01*
X15898Y-8157D01*
X15917Y-8167D01*
X15926Y-8176D01*
X15935Y-8195D01*
X15935Y-8223D01*
X15926Y-8242D01*
X15917Y-8251D01*
X15898Y-8260D01*
X15823Y-8260D01*
X14204Y-8376D02*
X14110Y-8442D01*
X14204Y-8489D02*
X14007Y-8489D01*
X14007Y-8414D01*
X14017Y-8395D01*
X14026Y-8386D01*
X14045Y-8376D01*
X14073Y-8376D01*
X14092Y-8386D01*
X14101Y-8395D01*
X14110Y-8414D01*
X14110Y-8489D01*
X14204Y-8189D02*
X14204Y-8301D01*
X14204Y-8245D02*
X14007Y-8245D01*
X14035Y-8264D01*
X14054Y-8282D01*
X14064Y-8301D01*
X14204Y-8095D02*
X14204Y-8057D01*
X14195Y-8038D01*
X14185Y-8029D01*
X14157Y-8010D01*
X14120Y-8001D01*
X14045Y-8001D01*
X14026Y-8010D01*
X14017Y-8020D01*
X14007Y-8038D01*
X14007Y-8076D01*
X14017Y-8095D01*
X14026Y-8104D01*
X14045Y-8113D01*
X14092Y-8113D01*
X14110Y-8104D01*
X14120Y-8095D01*
X14129Y-8076D01*
X14129Y-8038D01*
X14120Y-8020D01*
X14110Y-8010D01*
X14092Y-8001D01*
X14185Y-8054D02*
X14120Y-7960D01*
X14073Y-8054D02*
X14073Y-7857D01*
X14148Y-7857D01*
X14167Y-7867D01*
X14176Y-7876D01*
X14185Y-7895D01*
X14185Y-7923D01*
X14176Y-7942D01*
X14167Y-7951D01*
X14148Y-7960D01*
X14073Y-7960D01*
X35967Y-21704D02*
X35901Y-21610D01*
X35854Y-21704D02*
X35854Y-21507D01*
X35929Y-21507D01*
X35948Y-21517D01*
X35957Y-21526D01*
X35967Y-21545D01*
X35967Y-21573D01*
X35957Y-21592D01*
X35948Y-21601D01*
X35929Y-21610D01*
X35854Y-21610D01*
X36154Y-21704D02*
X36042Y-21704D01*
X36098Y-21704D02*
X36098Y-21507D01*
X36079Y-21535D01*
X36060Y-21554D01*
X36042Y-21564D01*
X36335Y-21704D02*
X36270Y-21610D01*
X36223Y-21704D02*
X36223Y-21507D01*
X36298Y-21507D01*
X36317Y-21517D01*
X36326Y-21526D01*
X36335Y-21545D01*
X36335Y-21573D01*
X36326Y-21592D01*
X36317Y-21601D01*
X36298Y-21610D01*
X36223Y-21610D01*
G54D18*
X25941Y-26567D02*
X25941Y-26996D01*
X25922Y-27082D01*
X25884Y-27139D01*
X25827Y-27167D01*
X25789Y-27167D01*
X26341Y-27167D02*
X26113Y-27167D01*
X26227Y-27167D02*
X26227Y-26567D01*
X26189Y-26653D01*
X26151Y-26710D01*
X26113Y-26739D01*
G54D13*
G54D18*
X16955Y-27210D02*
X16936Y-27239D01*
X16879Y-27267D01*
X16841Y-27267D01*
X16784Y-27239D01*
X16746Y-27182D01*
X16727Y-27125D01*
X16708Y-27010D01*
X16708Y-26925D01*
X16727Y-26810D01*
X16746Y-26753D01*
X16784Y-26696D01*
X16841Y-26667D01*
X16879Y-26667D01*
X16936Y-26696D01*
X16955Y-26725D01*
X17203Y-26667D02*
X17279Y-26667D01*
X17317Y-26696D01*
X17355Y-26753D01*
X17375Y-26867D01*
X17375Y-27067D01*
X17355Y-27182D01*
X17317Y-27239D01*
X17279Y-27267D01*
X17203Y-27267D01*
X17165Y-27239D01*
X17127Y-27182D01*
X17108Y-27067D01*
X17108Y-26867D01*
X17127Y-26753D01*
X17165Y-26696D01*
X17203Y-26667D01*
X17546Y-27267D02*
X17546Y-26667D01*
X17775Y-27267D01*
X17775Y-26667D01*
X17965Y-27267D02*
X17965Y-26667D01*
X18194Y-27267D01*
X18194Y-26667D01*
X18289Y-27325D02*
X18594Y-27325D01*
X18670Y-26725D02*
X18689Y-26696D01*
X18727Y-26667D01*
X18822Y-26667D01*
X18860Y-26696D01*
X18879Y-26725D01*
X18898Y-26782D01*
X18898Y-26839D01*
X18879Y-26925D01*
X18651Y-27267D01*
X18898Y-27267D01*
X19260Y-26667D02*
X19070Y-26667D01*
X19051Y-26953D01*
X19070Y-26925D01*
X19108Y-26896D01*
X19203Y-26896D01*
X19241Y-26925D01*
X19260Y-26953D01*
X19279Y-27010D01*
X19279Y-27153D01*
X19260Y-27210D01*
X19241Y-27239D01*
X19203Y-27267D01*
X19108Y-27267D01*
X19070Y-27239D01*
X19051Y-27210D01*
X19413Y-26667D02*
X19679Y-27267D01*
X19679Y-26667D02*
X19413Y-27267D01*
X19813Y-26725D02*
X19832Y-26696D01*
X19870Y-26667D01*
X19965Y-26667D01*
X20003Y-26696D01*
X20022Y-26725D01*
X20041Y-26782D01*
X20041Y-26839D01*
X20022Y-26925D01*
X19794Y-27267D01*
X20041Y-27267D01*
G54D13*
G54D19*
X12532Y-11958D02*
X12532Y-12525D01*
X12553Y-12591D01*
X12575Y-12625D01*
X12617Y-12658D01*
X12703Y-12658D01*
X12746Y-12625D01*
X12767Y-12591D01*
X12789Y-12525D01*
X12789Y-11958D01*
X13217Y-11958D02*
X13003Y-11958D01*
X12982Y-12291D01*
X13003Y-12258D01*
X13046Y-12225D01*
X13153Y-12225D01*
X13196Y-12258D01*
X13217Y-12291D01*
X13239Y-12358D01*
X13239Y-12525D01*
X13217Y-12591D01*
X13196Y-12625D01*
X13153Y-12658D01*
X13046Y-12658D01*
X13003Y-12625D01*
X12982Y-12591D01*
G54D13*
X17808Y-14958D02*
X18141Y-14958D01*
X17741Y-15158D02*
X17975Y-14458D01*
X18208Y-15158D01*
X18575Y-14825D02*
X18575Y-15158D01*
X18341Y-14458D02*
X18575Y-14825D01*
X18808Y-14458D01*
X18975Y-14458D02*
X19408Y-14458D01*
X19175Y-14725D01*
X19275Y-14725D01*
X19341Y-14758D01*
X19375Y-14791D01*
X19408Y-14858D01*
X19408Y-15025D01*
X19375Y-15091D01*
X19341Y-15125D01*
X19275Y-15158D01*
X19075Y-15158D01*
X19008Y-15125D01*
X18975Y-15091D01*
X19708Y-14891D02*
X20241Y-14891D01*
X20675Y-14758D02*
X20608Y-14725D01*
X20575Y-14691D01*
X20541Y-14625D01*
X20541Y-14591D01*
X20575Y-14525D01*
X20608Y-14491D01*
X20675Y-14458D01*
X20808Y-14458D01*
X20875Y-14491D01*
X20908Y-14525D01*
X20941Y-14591D01*
X20941Y-14625D01*
X20908Y-14691D01*
X20875Y-14725D01*
X20808Y-14758D01*
X20675Y-14758D01*
X20608Y-14791D01*
X20575Y-14825D01*
X20541Y-14891D01*
X20541Y-15025D01*
X20575Y-15091D01*
X20608Y-15125D01*
X20675Y-15158D01*
X20808Y-15158D01*
X20875Y-15125D01*
X20908Y-15091D01*
X20941Y-15025D01*
X20941Y-14891D01*
X20908Y-14825D01*
X20875Y-14791D01*
X20808Y-14758D01*
X21275Y-15158D02*
X21408Y-15158D01*
X21475Y-15125D01*
X21508Y-15091D01*
X21575Y-14991D01*
X21608Y-14858D01*
X21608Y-14591D01*
X21575Y-14525D01*
X21541Y-14491D01*
X21475Y-14458D01*
X21341Y-14458D01*
X21275Y-14491D01*
X21241Y-14525D01*
X21208Y-14591D01*
X21208Y-14758D01*
X21241Y-14825D01*
X21275Y-14858D01*
X21341Y-14891D01*
X21475Y-14891D01*
X21541Y-14858D01*
X21575Y-14825D01*
X21608Y-14758D01*
X22275Y-15158D02*
X21875Y-15158D01*
X22075Y-15158D02*
X22075Y-14458D01*
X22008Y-14558D01*
X21941Y-14625D01*
X21875Y-14658D01*
X22708Y-14458D02*
X22774Y-14458D01*
X22841Y-14491D01*
X22874Y-14525D01*
X22908Y-14591D01*
X22941Y-14725D01*
X22941Y-14891D01*
X22908Y-15025D01*
X22874Y-15091D01*
X22841Y-15125D01*
X22774Y-15158D01*
X22708Y-15158D01*
X22641Y-15125D01*
X22608Y-15091D01*
X22574Y-15025D01*
X22541Y-14891D01*
X22541Y-14725D01*
X22574Y-14591D01*
X22608Y-14525D01*
X22641Y-14491D01*
X22708Y-14458D01*
G54D12*
X35248Y-19941D02*
X35267Y-19960D01*
X35286Y-20017D01*
X35286Y-20055D01*
X35267Y-20113D01*
X35229Y-20151D01*
X35191Y-20170D01*
X35115Y-20189D01*
X35058Y-20189D01*
X34982Y-20170D01*
X34944Y-20151D01*
X34905Y-20113D01*
X34886Y-20055D01*
X34886Y-20017D01*
X34905Y-19960D01*
X34925Y-19941D01*
X35286Y-19560D02*
X35286Y-19789D01*
X35286Y-19674D02*
X34886Y-19674D01*
X34944Y-19713D01*
X34982Y-19751D01*
X35001Y-19789D01*
G54D14*
X32468Y-12425D02*
X32483Y-12439D01*
X32497Y-12482D01*
X32497Y-12510D01*
X32483Y-12553D01*
X32454Y-12582D01*
X32426Y-12596D01*
X32368Y-12610D01*
X32326Y-12610D01*
X32268Y-12596D01*
X32240Y-12582D01*
X32211Y-12553D01*
X32197Y-12510D01*
X32197Y-12482D01*
X32211Y-12439D01*
X32226Y-12425D01*
X32297Y-12167D02*
X32497Y-12167D01*
X32183Y-12239D02*
X32397Y-12310D01*
X32397Y-12125D01*
X32967Y-11797D02*
X32982Y-11809D01*
X32996Y-11845D01*
X32996Y-11869D01*
X32982Y-11904D01*
X32953Y-11928D01*
X32925Y-11940D01*
X32867Y-11952D01*
X32825Y-11952D01*
X32767Y-11940D01*
X32739Y-11928D01*
X32710Y-11904D01*
X32696Y-11869D01*
X32696Y-11845D01*
X32710Y-11809D01*
X32725Y-11797D01*
G54D20*
X32882Y-13389D02*
X32882Y-13160D01*
X32996Y-13275D02*
X32767Y-13275D01*
G54D12*
G54D14*
X34468Y-12425D02*
X34483Y-12439D01*
X34497Y-12482D01*
X34497Y-12510D01*
X34483Y-12553D01*
X34454Y-12582D01*
X34426Y-12596D01*
X34368Y-12610D01*
X34326Y-12610D01*
X34268Y-12596D01*
X34240Y-12582D01*
X34211Y-12553D01*
X34197Y-12510D01*
X34197Y-12482D01*
X34211Y-12439D01*
X34226Y-12425D01*
X34197Y-12325D02*
X34197Y-12139D01*
X34311Y-12239D01*
X34311Y-12196D01*
X34326Y-12167D01*
X34340Y-12153D01*
X34368Y-12139D01*
X34440Y-12139D01*
X34468Y-12153D01*
X34483Y-12167D01*
X34497Y-12196D01*
X34497Y-12282D01*
X34483Y-12310D01*
X34468Y-12325D01*
X35467Y-11797D02*
X35482Y-11809D01*
X35496Y-11845D01*
X35496Y-11869D01*
X35482Y-11904D01*
X35453Y-11928D01*
X35425Y-11940D01*
X35367Y-11952D01*
X35325Y-11952D01*
X35267Y-11940D01*
X35239Y-11928D01*
X35210Y-11904D01*
X35196Y-11869D01*
X35196Y-11845D01*
X35210Y-11809D01*
X35225Y-11797D01*
G54D20*
X34882Y-13389D02*
X34882Y-13160D01*
X34996Y-13275D02*
X34767Y-13275D01*
G54D12*
X26120Y-19886D02*
X26120Y-20210D01*
X26139Y-20248D01*
X26158Y-20267D01*
X26196Y-20286D01*
X26272Y-20286D01*
X26310Y-20267D01*
X26329Y-20248D01*
X26348Y-20210D01*
X26348Y-19886D01*
X26748Y-20286D02*
X26520Y-20286D01*
X26634Y-20286D02*
X26634Y-19886D01*
X26596Y-19944D01*
X26558Y-19982D01*
X26520Y-20001D01*
X25127Y-20886D02*
X25394Y-20886D01*
X25222Y-21286D01*
X25717Y-21020D02*
X25717Y-21286D01*
X25622Y-20867D02*
X25527Y-21153D01*
X25775Y-21153D01*
X26117Y-21286D02*
X25927Y-21286D01*
X25927Y-20886D01*
X26232Y-21267D02*
X26289Y-21286D01*
X26384Y-21286D01*
X26422Y-21267D01*
X26441Y-21248D01*
X26460Y-21210D01*
X26460Y-21172D01*
X26441Y-21134D01*
X26422Y-21115D01*
X26384Y-21096D01*
X26308Y-21077D01*
X26270Y-21058D01*
X26251Y-21039D01*
X26232Y-21001D01*
X26232Y-20963D01*
X26251Y-20925D01*
X26270Y-20905D01*
X26308Y-20886D01*
X26403Y-20886D01*
X26460Y-20905D01*
X26841Y-21286D02*
X26613Y-21286D01*
X26727Y-21286D02*
X26727Y-20886D01*
X26689Y-20944D01*
X26651Y-20982D01*
X26613Y-21001D01*
X26975Y-20886D02*
X27222Y-20886D01*
X27089Y-21039D01*
X27146Y-21039D01*
X27184Y-21058D01*
X27203Y-21077D01*
X27222Y-21115D01*
X27222Y-21210D01*
X27203Y-21248D01*
X27184Y-21267D01*
X27146Y-21286D01*
X27032Y-21286D01*
X26994Y-21267D01*
X26975Y-21248D01*
X27451Y-21058D02*
X27413Y-21039D01*
X27394Y-21020D01*
X27375Y-20982D01*
X27375Y-20963D01*
X27394Y-20925D01*
X27413Y-20905D01*
X27451Y-20886D01*
X27527Y-20886D01*
X27565Y-20905D01*
X27584Y-20925D01*
X27603Y-20963D01*
X27603Y-20982D01*
X27584Y-21020D01*
X27565Y-21039D01*
X27527Y-21058D01*
X27451Y-21058D01*
X27413Y-21077D01*
X27394Y-21096D01*
X27375Y-21134D01*
X27375Y-21210D01*
X27394Y-21248D01*
X27413Y-21267D01*
X27451Y-21286D01*
X27527Y-21286D01*
X27565Y-21267D01*
X27584Y-21248D01*
X27603Y-21210D01*
X27603Y-21134D01*
X27584Y-21096D01*
X27565Y-21077D01*
X27527Y-21058D01*
G54D14*
X12032Y-19886D02*
X12032Y-20210D01*
X12053Y-20248D01*
X12075Y-20267D01*
X12117Y-20286D01*
X12203Y-20286D01*
X12246Y-20267D01*
X12267Y-20248D01*
X12289Y-20210D01*
X12289Y-19886D01*
X12460Y-19886D02*
X12739Y-19886D01*
X12589Y-20039D01*
X12653Y-20039D01*
X12696Y-20058D01*
X12717Y-20077D01*
X12739Y-20115D01*
X12739Y-20210D01*
X12717Y-20248D01*
X12696Y-20267D01*
X12653Y-20286D01*
X12525Y-20286D01*
X12482Y-20267D01*
X12460Y-20248D01*
X11317Y-20886D02*
X11584Y-20886D01*
X11413Y-21286D01*
X11908Y-21020D02*
X11908Y-21286D01*
X11813Y-20867D02*
X11717Y-21153D01*
X11965Y-21153D01*
X12308Y-21286D02*
X12117Y-21286D01*
X12117Y-20886D01*
X12422Y-21267D02*
X12479Y-21286D01*
X12575Y-21286D01*
X12613Y-21267D01*
X12632Y-21248D01*
X12651Y-21210D01*
X12651Y-21172D01*
X12632Y-21134D01*
X12613Y-21115D01*
X12575Y-21096D01*
X12498Y-21077D01*
X12460Y-21058D01*
X12441Y-21039D01*
X12422Y-21001D01*
X12422Y-20963D01*
X12441Y-20925D01*
X12460Y-20905D01*
X12498Y-20886D01*
X12594Y-20886D01*
X12651Y-20905D01*
X12898Y-20886D02*
X12936Y-20886D01*
X12975Y-20905D01*
X12994Y-20925D01*
X13013Y-20963D01*
X13032Y-21039D01*
X13032Y-21134D01*
X13013Y-21210D01*
X12994Y-21248D01*
X12975Y-21267D01*
X12936Y-21286D01*
X12898Y-21286D01*
X12860Y-21267D01*
X12841Y-21248D01*
X12822Y-21210D01*
X12803Y-21134D01*
X12803Y-21039D01*
X12822Y-20963D01*
X12841Y-20925D01*
X12860Y-20905D01*
X12898Y-20886D01*
X13279Y-20886D02*
X13317Y-20886D01*
X13355Y-20905D01*
X13375Y-20925D01*
X13394Y-20963D01*
X13413Y-21039D01*
X13413Y-21134D01*
X13394Y-21210D01*
X13375Y-21248D01*
X13355Y-21267D01*
X13317Y-21286D01*
X13279Y-21286D01*
X13241Y-21267D01*
X13222Y-21248D01*
X13203Y-21210D01*
X13184Y-21134D01*
X13184Y-21039D01*
X13203Y-20963D01*
X13222Y-20925D01*
X13241Y-20905D01*
X13279Y-20886D01*
G54D21*
X16089Y-8650D02*
X15947Y-8326D01*
X15845Y-8650D02*
X15845Y-7969D01*
X16008Y-7969D01*
X16048Y-8002D01*
X16069Y-8034D01*
X16089Y-8099D01*
X16089Y-8196D01*
X16069Y-8261D01*
X16048Y-8293D01*
X16008Y-8326D01*
X15845Y-8326D01*
X16517Y-8650D02*
X16375Y-8326D01*
X16273Y-8650D02*
X16273Y-7969D01*
X16436Y-7969D01*
X16476Y-8002D01*
X16497Y-8034D01*
X16517Y-8099D01*
X16517Y-8196D01*
X16497Y-8261D01*
X16476Y-8293D01*
X16436Y-8326D01*
X16273Y-8326D01*
X16925Y-8650D02*
X16680Y-8650D01*
X16803Y-8650D02*
X16803Y-7969D01*
X16762Y-8066D01*
X16721Y-8131D01*
X16680Y-8164D01*
G54D13*
G54D18*
X21108Y-8617D02*
X20975Y-8332D01*
X20879Y-8617D02*
X20879Y-8017D01*
X21032Y-8017D01*
X21070Y-8046D01*
X21089Y-8075D01*
X21108Y-8132D01*
X21108Y-8217D01*
X21089Y-8275D01*
X21070Y-8303D01*
X21032Y-8332D01*
X20879Y-8332D01*
X21508Y-8617D02*
X21375Y-8332D01*
X21279Y-8617D02*
X21279Y-8017D01*
X21432Y-8017D01*
X21470Y-8046D01*
X21489Y-8075D01*
X21508Y-8132D01*
X21508Y-8217D01*
X21489Y-8275D01*
X21470Y-8303D01*
X21432Y-8332D01*
X21279Y-8332D01*
X21698Y-8617D02*
X21775Y-8617D01*
X21813Y-8589D01*
X21832Y-8560D01*
X21870Y-8475D01*
X21889Y-8360D01*
X21889Y-8132D01*
X21870Y-8075D01*
X21851Y-8046D01*
X21813Y-8017D01*
X21736Y-8017D01*
X21698Y-8046D01*
X21679Y-8075D01*
X21660Y-8132D01*
X21660Y-8275D01*
X21679Y-8332D01*
X21698Y-8360D01*
X21736Y-8389D01*
X21813Y-8389D01*
X21851Y-8360D01*
X21870Y-8332D01*
X21889Y-8275D01*
G54D13*
M02*
