G04 (created by PCBNEW (2013-07-07 BZR 4022)-stable) date 02/05/2014 20:54:29*
%MOIN*%
G04 Gerber Fmt 3.4, Leading zero omitted, Abs format*
%FSLAX34Y34*%
G01*
G70*
G90*
G04 APERTURE LIST*
%ADD10C,0.00590551*%
%ADD11C,0.15*%
%ADD12R,0.06X0.06*%
%ADD13C,0.06*%
%ADD14R,0.055X0.035*%
%ADD15R,0.035X0.055*%
%ADD16C,0.215*%
%ADD17R,0.062X0.09*%
%ADD18O,0.062X0.09*%
%ADD19C,0.055*%
%ADD20R,0.055X0.055*%
G04 APERTURE END LIST*
G54D10*
G54D11*
X38375Y-20675D03*
X38375Y-10675D03*
G54D12*
X37375Y-17825D03*
G54D13*
X37375Y-16725D03*
X37375Y-15625D03*
X37375Y-14575D03*
X37375Y-13475D03*
X38375Y-14025D03*
X38375Y-15125D03*
X38375Y-16175D03*
X38375Y-17275D03*
G54D14*
X12875Y-14000D03*
X12875Y-13250D03*
G54D15*
X13000Y-15625D03*
X12250Y-15625D03*
X11250Y-13625D03*
X12000Y-13625D03*
X11250Y-14625D03*
X12000Y-14625D03*
X11250Y-12625D03*
X12000Y-12625D03*
X26000Y-9875D03*
X26750Y-9875D03*
G54D12*
X34875Y-24125D03*
G54D13*
X34875Y-25125D03*
X33875Y-24125D03*
X33875Y-25125D03*
X32875Y-24125D03*
X32875Y-25125D03*
X31875Y-24125D03*
X31875Y-25125D03*
X30875Y-24125D03*
X30875Y-25125D03*
X29875Y-24125D03*
X29875Y-25125D03*
X28875Y-24125D03*
X28875Y-25125D03*
X27875Y-24125D03*
X27875Y-25125D03*
X26875Y-24125D03*
X26875Y-25125D03*
X25875Y-24125D03*
X25875Y-25125D03*
G54D16*
X38375Y-24525D03*
G54D13*
X24875Y-24125D03*
X24875Y-25125D03*
X23875Y-24125D03*
X23875Y-25125D03*
X22875Y-24125D03*
X22875Y-25125D03*
X21875Y-24125D03*
X21875Y-25125D03*
X20875Y-24125D03*
X20875Y-25125D03*
X19875Y-24125D03*
X19875Y-25125D03*
X18875Y-24125D03*
X18875Y-25125D03*
X17875Y-24125D03*
X17875Y-25125D03*
X16875Y-24125D03*
X16875Y-25125D03*
X15875Y-24125D03*
X15875Y-25125D03*
X14875Y-24125D03*
X14875Y-25125D03*
X13875Y-24125D03*
X13875Y-25125D03*
X12875Y-24125D03*
X12875Y-25125D03*
X11875Y-24125D03*
X11875Y-25125D03*
X10875Y-24125D03*
X10875Y-25125D03*
G54D16*
X7375Y-24525D03*
G54D17*
X10875Y-16875D03*
G54D18*
X11875Y-16875D03*
X12875Y-16875D03*
X13875Y-16875D03*
X14875Y-16875D03*
X15875Y-16875D03*
X16875Y-16875D03*
X17875Y-16875D03*
X18875Y-16875D03*
X19875Y-16875D03*
X20875Y-16875D03*
X21875Y-16875D03*
X22875Y-16875D03*
X23875Y-16875D03*
X24875Y-16875D03*
X25875Y-16875D03*
X26875Y-16875D03*
X27875Y-16875D03*
X28875Y-16875D03*
X29875Y-16875D03*
X29875Y-10875D03*
X28875Y-10875D03*
X27875Y-10875D03*
X26875Y-10875D03*
X25875Y-10875D03*
X24875Y-10875D03*
X23875Y-10875D03*
X22875Y-10875D03*
X21875Y-10875D03*
X20875Y-10875D03*
X19875Y-10875D03*
X18875Y-10875D03*
X17875Y-10875D03*
X16875Y-10875D03*
X15875Y-10875D03*
X14875Y-10875D03*
X13875Y-10875D03*
X12875Y-10875D03*
X11875Y-10875D03*
X10875Y-10875D03*
G54D19*
X35125Y-22125D03*
X35125Y-20125D03*
G54D20*
X32875Y-12875D03*
G54D19*
X32875Y-11875D03*
G54D20*
X34875Y-12875D03*
G54D19*
X34875Y-11875D03*
G54D20*
X14375Y-9375D03*
G54D19*
X15375Y-9375D03*
X16375Y-9375D03*
X17375Y-9375D03*
X18375Y-9375D03*
X19375Y-9375D03*
X20375Y-9375D03*
X21375Y-9375D03*
X22375Y-9375D03*
X23375Y-9375D03*
M02*
