G04 (created by PCBNEW (2013-07-07 BZR 4022)-stable) date 02/05/2014 20:54:29*
%MOIN*%
G04 Gerber Fmt 3.4, Leading zero omitted, Abs format*
%FSLAX34Y34*%
G01*
G70*
G90*
G04 APERTURE LIST*
%ADD10C,0.00590551*%
%ADD11R,0.02X0.045*%
%ADD12C,0.15*%
%ADD13R,0.06X0.06*%
%ADD14C,0.06*%
%ADD15C,0.0859*%
%ADD16R,0.055X0.035*%
%ADD17R,0.035X0.055*%
%ADD18C,0.215*%
%ADD19R,0.062X0.09*%
%ADD20O,0.062X0.09*%
%ADD21C,0.055*%
%ADD22R,0.055X0.055*%
G04 APERTURE END LIST*
G54D10*
G54D11*
X30375Y-21925D03*
X30875Y-21925D03*
X31375Y-21925D03*
X31875Y-21925D03*
X32375Y-21925D03*
X32875Y-21925D03*
X33375Y-21925D03*
X33375Y-19425D03*
X32875Y-19425D03*
X31875Y-19425D03*
X31375Y-19425D03*
X30875Y-19425D03*
X30375Y-19425D03*
X32375Y-19425D03*
G54D12*
X38375Y-20675D03*
X38375Y-10675D03*
G54D13*
X37375Y-17825D03*
G54D14*
X37375Y-16725D03*
X37375Y-15625D03*
X37375Y-14575D03*
X37375Y-13475D03*
X38375Y-14025D03*
X38375Y-15125D03*
X38375Y-16175D03*
X38375Y-17275D03*
G54D11*
X15625Y-19375D03*
X16625Y-19375D03*
X17125Y-19375D03*
X17625Y-19375D03*
X18125Y-19375D03*
X18625Y-19375D03*
X19125Y-19375D03*
X19125Y-21875D03*
X18625Y-21875D03*
X18125Y-21875D03*
X17625Y-21875D03*
X17125Y-21875D03*
X16625Y-21875D03*
X16125Y-21875D03*
X15625Y-21875D03*
X16125Y-19375D03*
G54D15*
X33875Y-8125D03*
X35843Y-10093D03*
X34859Y-10093D03*
X32891Y-10093D03*
X31907Y-10093D03*
G54D16*
X12875Y-9500D03*
X12875Y-8750D03*
X11875Y-8750D03*
X11875Y-9500D03*
G54D17*
X15500Y-8125D03*
X16250Y-8125D03*
X14500Y-8125D03*
X13750Y-8125D03*
G54D16*
X36125Y-22000D03*
X36125Y-21250D03*
G54D13*
X34875Y-24125D03*
G54D14*
X34875Y-25125D03*
X33875Y-24125D03*
X33875Y-25125D03*
X32875Y-24125D03*
X32875Y-25125D03*
X31875Y-24125D03*
X31875Y-25125D03*
X30875Y-24125D03*
X30875Y-25125D03*
X29875Y-24125D03*
X29875Y-25125D03*
X28875Y-24125D03*
X28875Y-25125D03*
X27875Y-24125D03*
X27875Y-25125D03*
X26875Y-24125D03*
X26875Y-25125D03*
X25875Y-24125D03*
X25875Y-25125D03*
G54D18*
X38375Y-24525D03*
G54D14*
X24875Y-24125D03*
X24875Y-25125D03*
X23875Y-24125D03*
X23875Y-25125D03*
X22875Y-24125D03*
X22875Y-25125D03*
X21875Y-24125D03*
X21875Y-25125D03*
X20875Y-24125D03*
X20875Y-25125D03*
X19875Y-24125D03*
X19875Y-25125D03*
X18875Y-24125D03*
X18875Y-25125D03*
X17875Y-24125D03*
X17875Y-25125D03*
X16875Y-24125D03*
X16875Y-25125D03*
X15875Y-24125D03*
X15875Y-25125D03*
X14875Y-24125D03*
X14875Y-25125D03*
X13875Y-24125D03*
X13875Y-25125D03*
X12875Y-24125D03*
X12875Y-25125D03*
X11875Y-24125D03*
X11875Y-25125D03*
X10875Y-24125D03*
X10875Y-25125D03*
G54D18*
X7375Y-24525D03*
G54D19*
X10875Y-16875D03*
G54D20*
X11875Y-16875D03*
X12875Y-16875D03*
X13875Y-16875D03*
X14875Y-16875D03*
X15875Y-16875D03*
X16875Y-16875D03*
X17875Y-16875D03*
X18875Y-16875D03*
X19875Y-16875D03*
X20875Y-16875D03*
X21875Y-16875D03*
X22875Y-16875D03*
X23875Y-16875D03*
X24875Y-16875D03*
X25875Y-16875D03*
X26875Y-16875D03*
X27875Y-16875D03*
X28875Y-16875D03*
X29875Y-16875D03*
X29875Y-10875D03*
X28875Y-10875D03*
X27875Y-10875D03*
X26875Y-10875D03*
X25875Y-10875D03*
X24875Y-10875D03*
X23875Y-10875D03*
X22875Y-10875D03*
X21875Y-10875D03*
X20875Y-10875D03*
X19875Y-10875D03*
X18875Y-10875D03*
X17875Y-10875D03*
X16875Y-10875D03*
X15875Y-10875D03*
X14875Y-10875D03*
X13875Y-10875D03*
X12875Y-10875D03*
X11875Y-10875D03*
X10875Y-10875D03*
G54D21*
X35125Y-22125D03*
X35125Y-20125D03*
G54D22*
X32875Y-12875D03*
G54D21*
X32875Y-11875D03*
G54D22*
X34875Y-12875D03*
G54D21*
X34875Y-11875D03*
G54D11*
X24625Y-19375D03*
X25625Y-19375D03*
X26125Y-19375D03*
X26625Y-19375D03*
X27125Y-19375D03*
X27625Y-19375D03*
X28125Y-19375D03*
X28125Y-21875D03*
X27625Y-21875D03*
X27125Y-21875D03*
X26625Y-21875D03*
X26125Y-21875D03*
X25625Y-21875D03*
X25125Y-21875D03*
X24625Y-21875D03*
X25125Y-19375D03*
X10875Y-21925D03*
X11375Y-21925D03*
X11875Y-21925D03*
X12375Y-21925D03*
X12875Y-21925D03*
X13375Y-21925D03*
X13875Y-21925D03*
X13875Y-19425D03*
X13375Y-19425D03*
X12375Y-19425D03*
X11875Y-19425D03*
X11375Y-19425D03*
X10875Y-19425D03*
X12875Y-19425D03*
G54D22*
X14375Y-9375D03*
G54D21*
X15375Y-9375D03*
X16375Y-9375D03*
X17375Y-9375D03*
X18375Y-9375D03*
X19375Y-9375D03*
X20375Y-9375D03*
X21375Y-9375D03*
X22375Y-9375D03*
X23375Y-9375D03*
M02*
