M48
;DRILL file {Pcbnew (2013-07-07 BZR 4022)-stable} date 02/05/2014 20:50:28
;FORMAT={-:-/ absolute / inch / decimal}
FMAT,2
INCH,TZ
T1C0.025
T2C0.032
T3C0.036
T4C0.040
T5C0.051
T6C0.106
T7C0.120
%
G90
G05
M72
T1
X1.1875Y-2.1375
X1.2625Y-1.8125
X1.2875Y-2.2625
X1.4625Y-1.8125
X1.4625Y-2.1375
X1.7625Y-2.3375
X2.2875Y-2.1125
X2.3375Y-1.9375
X2.7625Y-2.0125
X3.2875Y-1.8625
T2
X1.0875Y-1.0875
X1.0875Y-1.6875
X1.1875Y-1.0875
X1.1875Y-1.6875
X1.2875Y-1.0875
X1.2875Y-1.6875
X1.3875Y-1.0875
X1.3875Y-1.6875
X1.4375Y-0.9375
X1.4875Y-1.0875
X1.4875Y-1.6875
X1.5375Y-0.9375
X1.5875Y-1.0875
X1.5875Y-1.6875
X1.6375Y-0.9375
X1.6875Y-1.0875
X1.6875Y-1.6875
X1.7375Y-0.9375
X1.7875Y-1.0875
X1.7875Y-1.6875
X1.8375Y-0.9375
X1.8875Y-1.0875
X1.8875Y-1.6875
X1.9375Y-0.9375
X1.9875Y-1.0875
X1.9875Y-1.6875
X2.0375Y-0.9375
X2.0875Y-1.0875
X2.0875Y-1.6875
X2.1375Y-0.9375
X2.1875Y-1.0875
X2.1875Y-1.6875
X2.2375Y-0.9375
X2.2875Y-1.0875
X2.2875Y-1.6875
X2.3375Y-0.9375
X2.3875Y-1.0875
X2.3875Y-1.6875
X2.4875Y-1.0875
X2.4875Y-1.6875
X2.5875Y-1.0875
X2.5875Y-1.6875
X2.6875Y-1.0875
X2.6875Y-1.6875
X2.7875Y-1.0875
X2.7875Y-1.6875
X2.8875Y-1.0875
X2.8875Y-1.6875
X2.9875Y-1.0875
X2.9875Y-1.6875
X3.2875Y-1.1875
X3.2875Y-1.2875
X3.4875Y-1.1875
X3.4875Y-1.2875
X3.5125Y-2.0125
X3.5125Y-2.2125
T3
X1.0875Y-2.4125
X1.0875Y-2.5125
X1.1875Y-2.4125
X1.1875Y-2.5125
X1.2875Y-2.4125
X1.2875Y-2.5125
X1.3875Y-2.4125
X1.3875Y-2.5125
X1.4875Y-2.4125
X1.4875Y-2.5125
X1.5875Y-2.4125
X1.5875Y-2.5125
X1.6875Y-2.4125
X1.6875Y-2.5125
X1.7875Y-2.4125
X1.7875Y-2.5125
X1.8875Y-2.4125
X1.8875Y-2.5125
X1.9875Y-2.4125
X1.9875Y-2.5125
X2.0875Y-2.4125
X2.0875Y-2.5125
X2.1875Y-2.4125
X2.1875Y-2.5125
X2.2875Y-2.4125
X2.2875Y-2.5125
X2.3875Y-2.4125
X2.3875Y-2.5125
X2.4875Y-2.4125
X2.4875Y-2.5125
X2.5875Y-2.4125
X2.5875Y-2.5125
X2.6875Y-2.4125
X2.6875Y-2.5125
X2.7875Y-2.4125
X2.7875Y-2.5125
X2.8875Y-2.4125
X2.8875Y-2.5125
X2.9875Y-2.4125
X2.9875Y-2.5125
X3.0875Y-2.4125
X3.0875Y-2.5125
X3.1875Y-2.4125
X3.1875Y-2.5125
X3.2875Y-2.4125
X3.2875Y-2.5125
X3.3875Y-2.4125
X3.3875Y-2.5125
X3.4875Y-2.4125
X3.4875Y-2.5125
T4
X3.7375Y-1.3475
X3.7375Y-1.4575
X3.7375Y-1.5625
X3.7375Y-1.6725
X3.7375Y-1.7825
X3.8375Y-1.4025
X3.8375Y-1.5125
X3.8375Y-1.6175
X3.8375Y-1.7275
T5
X3.1907Y-1.0093
X3.2891Y-1.0093
X3.3875Y-0.8125
X3.4859Y-1.0093
X3.5843Y-1.0093
T6
X0.7375Y-2.4525
X3.8375Y-2.4525
T7
X3.8375Y-1.0675
X3.8375Y-2.0675
T0
M30
