G04 (created by PCBNEW (2013-07-07 BZR 4022)-stable) date 02/05/2014 20:54:29*
%MOIN*%
G04 Gerber Fmt 3.4, Leading zero omitted, Abs format*
%FSLAX34Y34*%
G01*
G70*
G90*
G04 APERTURE LIST*
%ADD10C,0.00590551*%
%ADD11R,0.02X0.045*%
%ADD12C,0.15*%
%ADD13R,0.06X0.06*%
%ADD14C,0.06*%
%ADD15C,0.0859*%
%ADD16R,0.055X0.035*%
%ADD17R,0.035X0.055*%
%ADD18C,0.215*%
%ADD19R,0.062X0.09*%
%ADD20O,0.062X0.09*%
%ADD21C,0.055*%
%ADD22R,0.055X0.055*%
%ADD23C,0.035*%
%ADD24C,0.01*%
G04 APERTURE END LIST*
G54D10*
G54D11*
X30375Y-21925D03*
X30875Y-21925D03*
X31375Y-21925D03*
X31875Y-21925D03*
X32375Y-21925D03*
X32875Y-21925D03*
X33375Y-21925D03*
X33375Y-19425D03*
X32875Y-19425D03*
X31875Y-19425D03*
X31375Y-19425D03*
X30875Y-19425D03*
X30375Y-19425D03*
X32375Y-19425D03*
G54D12*
X38375Y-20675D03*
X38375Y-10675D03*
G54D13*
X37375Y-17825D03*
G54D14*
X37375Y-16725D03*
X37375Y-15625D03*
X37375Y-14575D03*
X37375Y-13475D03*
X38375Y-14025D03*
X38375Y-15125D03*
X38375Y-16175D03*
X38375Y-17275D03*
G54D11*
X15625Y-19375D03*
X16625Y-19375D03*
X17125Y-19375D03*
X17625Y-19375D03*
X18125Y-19375D03*
X18625Y-19375D03*
X19125Y-19375D03*
X19125Y-21875D03*
X18625Y-21875D03*
X18125Y-21875D03*
X17625Y-21875D03*
X17125Y-21875D03*
X16625Y-21875D03*
X16125Y-21875D03*
X15625Y-21875D03*
X16125Y-19375D03*
G54D15*
X33875Y-8125D03*
X35843Y-10093D03*
X34859Y-10093D03*
X32891Y-10093D03*
X31907Y-10093D03*
G54D16*
X12875Y-9500D03*
X12875Y-8750D03*
X11875Y-8750D03*
X11875Y-9500D03*
G54D17*
X15500Y-8125D03*
X16250Y-8125D03*
X14500Y-8125D03*
X13750Y-8125D03*
G54D16*
X36125Y-22000D03*
X36125Y-21250D03*
G54D13*
X34875Y-24125D03*
G54D14*
X34875Y-25125D03*
X33875Y-24125D03*
X33875Y-25125D03*
X32875Y-24125D03*
X32875Y-25125D03*
X31875Y-24125D03*
X31875Y-25125D03*
X30875Y-24125D03*
X30875Y-25125D03*
X29875Y-24125D03*
X29875Y-25125D03*
X28875Y-24125D03*
X28875Y-25125D03*
X27875Y-24125D03*
X27875Y-25125D03*
X26875Y-24125D03*
X26875Y-25125D03*
X25875Y-24125D03*
X25875Y-25125D03*
G54D18*
X38375Y-24525D03*
G54D14*
X24875Y-24125D03*
X24875Y-25125D03*
X23875Y-24125D03*
X23875Y-25125D03*
X22875Y-24125D03*
X22875Y-25125D03*
X21875Y-24125D03*
X21875Y-25125D03*
X20875Y-24125D03*
X20875Y-25125D03*
X19875Y-24125D03*
X19875Y-25125D03*
X18875Y-24125D03*
X18875Y-25125D03*
X17875Y-24125D03*
X17875Y-25125D03*
X16875Y-24125D03*
X16875Y-25125D03*
X15875Y-24125D03*
X15875Y-25125D03*
X14875Y-24125D03*
X14875Y-25125D03*
X13875Y-24125D03*
X13875Y-25125D03*
X12875Y-24125D03*
X12875Y-25125D03*
X11875Y-24125D03*
X11875Y-25125D03*
X10875Y-24125D03*
X10875Y-25125D03*
G54D18*
X7375Y-24525D03*
G54D19*
X10875Y-16875D03*
G54D20*
X11875Y-16875D03*
X12875Y-16875D03*
X13875Y-16875D03*
X14875Y-16875D03*
X15875Y-16875D03*
X16875Y-16875D03*
X17875Y-16875D03*
X18875Y-16875D03*
X19875Y-16875D03*
X20875Y-16875D03*
X21875Y-16875D03*
X22875Y-16875D03*
X23875Y-16875D03*
X24875Y-16875D03*
X25875Y-16875D03*
X26875Y-16875D03*
X27875Y-16875D03*
X28875Y-16875D03*
X29875Y-16875D03*
X29875Y-10875D03*
X28875Y-10875D03*
X27875Y-10875D03*
X26875Y-10875D03*
X25875Y-10875D03*
X24875Y-10875D03*
X23875Y-10875D03*
X22875Y-10875D03*
X21875Y-10875D03*
X20875Y-10875D03*
X19875Y-10875D03*
X18875Y-10875D03*
X17875Y-10875D03*
X16875Y-10875D03*
X15875Y-10875D03*
X14875Y-10875D03*
X13875Y-10875D03*
X12875Y-10875D03*
X11875Y-10875D03*
X10875Y-10875D03*
G54D21*
X35125Y-22125D03*
X35125Y-20125D03*
G54D22*
X32875Y-12875D03*
G54D21*
X32875Y-11875D03*
G54D22*
X34875Y-12875D03*
G54D21*
X34875Y-11875D03*
G54D11*
X24625Y-19375D03*
X25625Y-19375D03*
X26125Y-19375D03*
X26625Y-19375D03*
X27125Y-19375D03*
X27625Y-19375D03*
X28125Y-19375D03*
X28125Y-21875D03*
X27625Y-21875D03*
X27125Y-21875D03*
X26625Y-21875D03*
X26125Y-21875D03*
X25625Y-21875D03*
X25125Y-21875D03*
X24625Y-21875D03*
X25125Y-19375D03*
X10875Y-21925D03*
X11375Y-21925D03*
X11875Y-21925D03*
X12375Y-21925D03*
X12875Y-21925D03*
X13375Y-21925D03*
X13875Y-21925D03*
X13875Y-19425D03*
X13375Y-19425D03*
X12375Y-19425D03*
X11875Y-19425D03*
X11375Y-19425D03*
X10875Y-19425D03*
X12875Y-19425D03*
G54D22*
X14375Y-9375D03*
G54D21*
X15375Y-9375D03*
X16375Y-9375D03*
X17375Y-9375D03*
X18375Y-9375D03*
X19375Y-9375D03*
X20375Y-9375D03*
X21375Y-9375D03*
X22375Y-9375D03*
X23375Y-9375D03*
G54D23*
X11875Y-21375D03*
X12625Y-18125D03*
X14625Y-21375D03*
X14625Y-18125D03*
X32875Y-18625D03*
X17625Y-23375D03*
X12875Y-22625D03*
X22875Y-21125D03*
X27625Y-20125D03*
X23375Y-19375D03*
G54D24*
X17625Y-22125D02*
X17125Y-22625D01*
X15375Y-23875D02*
X16625Y-22625D01*
X17125Y-22625D02*
X16875Y-22625D01*
X16625Y-22625D02*
X16875Y-22625D01*
X15375Y-23875D02*
X15375Y-23875D01*
X17625Y-21875D02*
X17625Y-22125D01*
X15375Y-24625D02*
X14875Y-25125D01*
X15375Y-23875D02*
X15375Y-24625D01*
X16375Y-23625D02*
X17125Y-22875D01*
X17375Y-22875D02*
X17125Y-22875D01*
X18125Y-22125D02*
X17375Y-22875D01*
X18125Y-22125D02*
X18125Y-21875D01*
X16625Y-24625D02*
X17625Y-24625D01*
X16375Y-24375D02*
X16625Y-24625D01*
X16375Y-23625D02*
X16375Y-24375D01*
X17625Y-24625D02*
X18375Y-24625D01*
X18875Y-25125D02*
X18375Y-24625D01*
X14875Y-23875D02*
X16375Y-22375D01*
X16375Y-22375D02*
X16625Y-22125D01*
X14875Y-24125D02*
X14875Y-23875D01*
X16375Y-22375D02*
X16375Y-22375D01*
X16625Y-22125D02*
X16625Y-21875D01*
X16875Y-20875D02*
X17375Y-20375D01*
X23375Y-20375D02*
X23875Y-20875D01*
X17375Y-20375D02*
X23375Y-20375D01*
X23875Y-23625D02*
X23875Y-20875D01*
X23875Y-24125D02*
X23875Y-23625D01*
X15625Y-21375D02*
X15625Y-21875D01*
X16875Y-20875D02*
X16125Y-20875D01*
X16125Y-20875D02*
X15625Y-21375D01*
X22625Y-20625D02*
X23125Y-20625D01*
X23375Y-20875D02*
X23375Y-21375D01*
X23125Y-20625D02*
X23375Y-20875D01*
X17125Y-21125D02*
X17625Y-20625D01*
X17625Y-20625D02*
X22625Y-20625D01*
X23375Y-23625D02*
X23375Y-21375D01*
X23375Y-23625D02*
X23375Y-24625D01*
X23375Y-24625D02*
X23875Y-25125D01*
X16125Y-21875D02*
X16125Y-21375D01*
X16375Y-21125D02*
X17125Y-21125D01*
X16125Y-21375D02*
X16375Y-21125D01*
X25125Y-21875D02*
X25125Y-22375D01*
X24875Y-22625D02*
X24875Y-24125D01*
X25125Y-22375D02*
X24875Y-22625D01*
X24875Y-25125D02*
X24375Y-24625D01*
X24375Y-22125D02*
X24625Y-21875D01*
X24375Y-24625D02*
X24375Y-22125D01*
X26125Y-21875D02*
X26125Y-22875D01*
X25875Y-23125D02*
X25875Y-24125D01*
X26125Y-22875D02*
X25875Y-23125D01*
X25375Y-22875D02*
X25625Y-22625D01*
X25625Y-22625D02*
X25625Y-22375D01*
X25625Y-21875D02*
X25625Y-22375D01*
X25375Y-24625D02*
X25875Y-25125D01*
X25375Y-22875D02*
X25375Y-24625D01*
X26625Y-21875D02*
X26625Y-23875D01*
X26625Y-23875D02*
X26875Y-24125D01*
X27125Y-21875D02*
X27125Y-22875D01*
X27375Y-24625D02*
X26875Y-25125D01*
X27375Y-23125D02*
X27375Y-24625D01*
X27125Y-22875D02*
X27375Y-23125D01*
X12875Y-16875D02*
X12875Y-12125D01*
X12375Y-10000D02*
X11875Y-9500D01*
X12375Y-11625D02*
X12375Y-10000D01*
X12875Y-12125D02*
X12375Y-11625D01*
X12875Y-10875D02*
X12875Y-9500D01*
X12625Y-18125D02*
X12625Y-18125D01*
X16875Y-12875D02*
X20625Y-12875D01*
X13375Y-16375D02*
X16875Y-12875D01*
X13375Y-17375D02*
X13375Y-16375D01*
X12625Y-18125D02*
X13375Y-17375D01*
X11875Y-21925D02*
X11875Y-21375D01*
X20625Y-12875D02*
X21875Y-11625D01*
X21875Y-11625D02*
X21875Y-10875D01*
X14625Y-18125D02*
X14625Y-17625D01*
X21125Y-13625D02*
X23375Y-11375D01*
X17125Y-13625D02*
X21125Y-13625D01*
X14375Y-16375D02*
X17125Y-13625D01*
X14375Y-17375D02*
X14375Y-16375D01*
X14625Y-17625D02*
X14375Y-17375D01*
X13375Y-21925D02*
X13375Y-21625D01*
X13625Y-21375D02*
X14625Y-21375D01*
X13375Y-21625D02*
X13625Y-21375D01*
X23375Y-11375D02*
X23875Y-10875D01*
X23375Y-11375D02*
X23375Y-11375D01*
X32875Y-19425D02*
X32875Y-18625D01*
X34375Y-18625D02*
X33375Y-17625D01*
X33125Y-21125D02*
X33375Y-21125D01*
X34375Y-20125D02*
X34375Y-18625D01*
X33375Y-21125D02*
X34375Y-20125D01*
X31375Y-18125D02*
X31875Y-17625D01*
X11875Y-19425D02*
X11875Y-19125D01*
X15625Y-18125D02*
X31375Y-18125D01*
X14875Y-18875D02*
X15625Y-18125D01*
X12125Y-18875D02*
X14875Y-18875D01*
X11875Y-19125D02*
X12125Y-18875D01*
X31875Y-17625D02*
X33375Y-17625D01*
X32375Y-21375D02*
X32375Y-21925D01*
X33125Y-21125D02*
X32625Y-21125D01*
X32625Y-21125D02*
X32375Y-21375D01*
X31875Y-19425D02*
X31875Y-18875D01*
X13875Y-19375D02*
X13875Y-19425D01*
X14875Y-19375D02*
X13875Y-19375D01*
X15625Y-18625D02*
X14875Y-19375D01*
X20375Y-18625D02*
X15625Y-18625D01*
X20375Y-18625D02*
X20375Y-18625D01*
X31625Y-18625D02*
X20375Y-18625D01*
X31875Y-18875D02*
X31625Y-18625D01*
X15500Y-8125D02*
X14500Y-8125D01*
X14500Y-8125D02*
X14500Y-9250D01*
X14500Y-9250D02*
X14375Y-9375D01*
X11375Y-19425D02*
X11375Y-18875D01*
X29875Y-10375D02*
X29875Y-10875D01*
X29375Y-9875D02*
X29875Y-10375D01*
X24625Y-9875D02*
X29375Y-9875D01*
X24375Y-10125D02*
X24625Y-9875D01*
X24375Y-11375D02*
X24375Y-10125D01*
X21375Y-14375D02*
X24375Y-11375D01*
X17375Y-14375D02*
X21375Y-14375D01*
X15375Y-16375D02*
X17375Y-14375D01*
X15375Y-17875D02*
X15375Y-16375D01*
X14625Y-18625D02*
X15375Y-17875D01*
X11625Y-18625D02*
X14625Y-18625D01*
X11375Y-18875D02*
X11625Y-18625D01*
X11375Y-19625D02*
X11375Y-19425D01*
X37375Y-15625D02*
X30125Y-15625D01*
X30125Y-15625D02*
X28875Y-16875D01*
X37375Y-14575D02*
X30175Y-14575D01*
X30175Y-14575D02*
X27875Y-16875D01*
X37375Y-16725D02*
X31275Y-16725D01*
X27625Y-17625D02*
X26875Y-16875D01*
X30375Y-17625D02*
X27625Y-17625D01*
X31275Y-16725D02*
X30375Y-17625D01*
X36125Y-17825D02*
X34325Y-17825D01*
X34325Y-17825D02*
X33625Y-17125D01*
X37375Y-17825D02*
X36125Y-17825D01*
X31625Y-17125D02*
X30875Y-17875D01*
X33625Y-17125D02*
X31625Y-17125D01*
X25875Y-16875D02*
X26875Y-17875D01*
X26875Y-17875D02*
X30875Y-17875D01*
X34875Y-11875D02*
X34875Y-10109D01*
X34875Y-10109D02*
X34859Y-10093D01*
X32875Y-11875D02*
X32875Y-10109D01*
X32875Y-10109D02*
X32891Y-10093D01*
X31125Y-21375D02*
X30625Y-20875D01*
X30625Y-20875D02*
X27625Y-20875D01*
X26875Y-20125D02*
X27625Y-20875D01*
X16625Y-20609D02*
X16640Y-20609D01*
X17125Y-20125D02*
X26875Y-20125D01*
X16640Y-20609D02*
X17125Y-20125D01*
X16108Y-20608D02*
X16625Y-20609D01*
X14375Y-22375D02*
X14375Y-22342D01*
X14375Y-22342D02*
X16108Y-20608D01*
X12375Y-24625D02*
X14125Y-24625D01*
X14375Y-24375D02*
X14375Y-22625D01*
X14125Y-24625D02*
X14375Y-24375D01*
X12375Y-24625D02*
X11875Y-25125D01*
X14375Y-22625D02*
X14375Y-22375D01*
X31125Y-21375D02*
X31375Y-21625D01*
X31125Y-21375D02*
X31125Y-21375D01*
X31125Y-21375D02*
X31125Y-21375D01*
X31375Y-21625D02*
X31125Y-21375D01*
X31375Y-21925D02*
X31375Y-21625D01*
X12875Y-23375D02*
X13875Y-22375D01*
X22375Y-25375D02*
X22625Y-25625D01*
X22625Y-25625D02*
X31125Y-25625D01*
X33875Y-25125D02*
X33375Y-25625D01*
X33375Y-25625D02*
X31125Y-25625D01*
X29625Y-25625D02*
X29375Y-25375D01*
X31125Y-25625D02*
X29875Y-25625D01*
X29875Y-25625D02*
X29625Y-25625D01*
X22375Y-23625D02*
X20625Y-21875D01*
X23375Y-9375D02*
X29875Y-9375D01*
X32775Y-14025D02*
X38375Y-14025D01*
X30625Y-11875D02*
X32775Y-14025D01*
X30625Y-10125D02*
X30625Y-11875D01*
X29875Y-9375D02*
X30625Y-10125D01*
X11625Y-23375D02*
X12875Y-23375D01*
X10875Y-24125D02*
X11625Y-23375D01*
X13875Y-21925D02*
X13875Y-22375D01*
X19125Y-21875D02*
X20625Y-21875D01*
X22375Y-23625D02*
X22375Y-25375D01*
X28125Y-21875D02*
X29375Y-23125D01*
X29375Y-23125D02*
X29375Y-25375D01*
X33375Y-21925D02*
X33375Y-21875D01*
X33375Y-21875D02*
X35125Y-20125D01*
X33375Y-21925D02*
X33375Y-23375D01*
X33375Y-23625D02*
X33875Y-24125D01*
X33375Y-23375D02*
X33375Y-23625D01*
X10875Y-25125D02*
X10875Y-24125D01*
X33375Y-19875D02*
X33125Y-20125D01*
X31375Y-19875D02*
X31625Y-20125D01*
X33375Y-19425D02*
X33375Y-19875D01*
X31375Y-19875D02*
X31375Y-19425D01*
X33125Y-20125D02*
X31625Y-20125D01*
X30875Y-21925D02*
X30875Y-22875D01*
X32875Y-22875D02*
X32875Y-21925D01*
X32625Y-23125D02*
X32875Y-22875D01*
X31125Y-23125D02*
X32625Y-23125D01*
X30875Y-22875D02*
X31125Y-23125D01*
X10875Y-21925D02*
X10875Y-21625D01*
X15125Y-20625D02*
X15625Y-20125D01*
X11875Y-20625D02*
X15125Y-20625D01*
X10875Y-21625D02*
X11875Y-20625D01*
X16625Y-19625D02*
X16625Y-19375D01*
X16125Y-20125D02*
X16625Y-19625D01*
X15625Y-20125D02*
X16125Y-20125D01*
X16375Y-20375D02*
X16875Y-19875D01*
X18875Y-19875D02*
X19125Y-19625D01*
X16875Y-19875D02*
X18875Y-19875D01*
X12375Y-21925D02*
X12375Y-21625D01*
X15375Y-20875D02*
X15875Y-20375D01*
X13125Y-20875D02*
X15375Y-20875D01*
X12375Y-21625D02*
X13125Y-20875D01*
X19125Y-19625D02*
X19125Y-19375D01*
X15875Y-20375D02*
X16375Y-20375D01*
X11375Y-21925D02*
X11375Y-22375D01*
X12375Y-22375D02*
X12375Y-21925D01*
X12125Y-22625D02*
X12375Y-22375D01*
X11625Y-22625D02*
X12125Y-22625D01*
X11375Y-22375D02*
X11625Y-22625D01*
X17625Y-23375D02*
X17625Y-23375D01*
X12875Y-21925D02*
X12875Y-22375D01*
X12875Y-22625D02*
X12875Y-22375D01*
X18625Y-22375D02*
X18625Y-21875D01*
X17625Y-23375D02*
X18625Y-22375D01*
X12375Y-19425D02*
X12875Y-19425D01*
X18375Y-8625D02*
X29875Y-8625D01*
X31125Y-11125D02*
X31125Y-9875D01*
X30625Y-9375D02*
X30625Y-9375D01*
X31125Y-9875D02*
X30625Y-9375D01*
X29875Y-8625D02*
X30625Y-9375D01*
X13750Y-8125D02*
X13750Y-10000D01*
X17875Y-9125D02*
X18375Y-8625D01*
X17875Y-9875D02*
X17875Y-9125D01*
X17625Y-10125D02*
X17875Y-9875D01*
X13875Y-10125D02*
X17625Y-10125D01*
X13750Y-10000D02*
X13875Y-10125D01*
X32875Y-12875D02*
X32875Y-12875D01*
X31125Y-11125D02*
X32875Y-12875D01*
X13750Y-8125D02*
X13500Y-8125D01*
X13500Y-8125D02*
X12875Y-8750D01*
X27625Y-19375D02*
X27625Y-20125D01*
X17125Y-21625D02*
X17125Y-21875D01*
X17625Y-21125D02*
X22625Y-21125D01*
X17125Y-21625D02*
X17625Y-21125D01*
X22625Y-21125D02*
X22875Y-21125D01*
X17375Y-8125D02*
X32375Y-8125D01*
X33875Y-11875D02*
X33875Y-9625D01*
X33125Y-8875D02*
X33125Y-8875D01*
X33875Y-9625D02*
X33125Y-8875D01*
X34875Y-12875D02*
X34125Y-12125D01*
X17375Y-8125D02*
X16250Y-8125D01*
X33125Y-8875D02*
X32375Y-8125D01*
X34125Y-12125D02*
X33875Y-11875D01*
X11875Y-8750D02*
X11875Y-8125D01*
X16250Y-7750D02*
X16250Y-8125D01*
X15875Y-7375D02*
X16250Y-7750D01*
X12625Y-7375D02*
X15875Y-7375D01*
X11875Y-8125D02*
X12625Y-7375D01*
X37375Y-13475D02*
X37375Y-13375D01*
X39125Y-18250D02*
X36125Y-21250D01*
X39125Y-13875D02*
X39125Y-18250D01*
X38375Y-13125D02*
X39125Y-13875D01*
X37625Y-13125D02*
X38375Y-13125D01*
X37375Y-13375D02*
X37625Y-13125D01*
X33875Y-18625D02*
X33375Y-18125D01*
X32875Y-25125D02*
X32875Y-24125D01*
X32875Y-25125D02*
X33375Y-24625D01*
X36125Y-23875D02*
X36125Y-22000D01*
X35375Y-24625D02*
X36125Y-23875D01*
X33375Y-24625D02*
X35375Y-24625D01*
X33375Y-20625D02*
X32375Y-20625D01*
X32375Y-18875D02*
X32375Y-18375D01*
X32375Y-19425D02*
X32375Y-18875D01*
X32625Y-18125D02*
X33375Y-18125D01*
X32375Y-18375D02*
X32625Y-18125D01*
X33875Y-18625D02*
X33875Y-20125D01*
X33875Y-20125D02*
X33375Y-20625D01*
X32375Y-20625D02*
X31875Y-21125D01*
X15625Y-19125D02*
X15875Y-18875D01*
X23375Y-19375D02*
X23375Y-19375D01*
X24875Y-18875D02*
X29825Y-18875D01*
X29825Y-18875D02*
X30375Y-19425D01*
X15625Y-19375D02*
X15625Y-19625D01*
X14875Y-20375D02*
X14125Y-20375D01*
X15625Y-19625D02*
X14875Y-20375D01*
X10875Y-19425D02*
X10875Y-19875D01*
X11375Y-20375D02*
X14125Y-20375D01*
X10875Y-19875D02*
X11375Y-20375D01*
X30375Y-21925D02*
X30375Y-22875D01*
X30375Y-22875D02*
X30875Y-23375D01*
X30875Y-23375D02*
X32125Y-23375D01*
X32125Y-23375D02*
X32875Y-24125D01*
X30875Y-19425D02*
X30875Y-20125D01*
X31875Y-21125D02*
X31875Y-21925D01*
X30875Y-20125D02*
X31875Y-21125D01*
X36125Y-22000D02*
X35250Y-22000D01*
X35250Y-22000D02*
X35125Y-22125D01*
X24625Y-19125D02*
X24875Y-18875D01*
X24625Y-19375D02*
X24625Y-19125D01*
X10875Y-19425D02*
X10875Y-19125D01*
X10125Y-11625D02*
X10875Y-10875D01*
X10125Y-18375D02*
X10125Y-11625D01*
X10875Y-19125D02*
X10125Y-18375D01*
X24625Y-19375D02*
X23375Y-19375D01*
X23375Y-19375D02*
X20125Y-19375D01*
X19625Y-18875D02*
X15875Y-18875D01*
X20125Y-19375D02*
X19625Y-18875D01*
X15625Y-19125D02*
X15625Y-19375D01*
X10875Y-19425D02*
X10875Y-19125D01*
X30875Y-19425D02*
X30375Y-19425D01*
G54D10*
G36*
X23075Y-23612D02*
X22984Y-23575D01*
X22766Y-23574D01*
X22563Y-23658D01*
X22409Y-23813D01*
X22375Y-23894D01*
X22341Y-23813D01*
X22186Y-23659D01*
X21984Y-23575D01*
X21766Y-23574D01*
X21563Y-23658D01*
X21409Y-23813D01*
X21375Y-23894D01*
X21341Y-23813D01*
X21186Y-23659D01*
X20984Y-23575D01*
X20766Y-23574D01*
X20563Y-23658D01*
X20409Y-23813D01*
X20375Y-23894D01*
X20341Y-23813D01*
X20186Y-23659D01*
X19984Y-23575D01*
X19766Y-23574D01*
X19563Y-23658D01*
X19475Y-23747D01*
X19475Y-22050D01*
X19475Y-21987D01*
X19412Y-21925D01*
X19175Y-21925D01*
X19175Y-22287D01*
X19237Y-22350D01*
X19274Y-22350D01*
X19366Y-22312D01*
X19436Y-22241D01*
X19474Y-22149D01*
X19475Y-22050D01*
X19475Y-23747D01*
X19409Y-23813D01*
X19375Y-23894D01*
X19341Y-23813D01*
X19186Y-23659D01*
X18984Y-23575D01*
X18766Y-23574D01*
X18563Y-23658D01*
X18409Y-23813D01*
X18375Y-23894D01*
X18341Y-23813D01*
X18186Y-23659D01*
X17999Y-23581D01*
X18049Y-23459D01*
X18050Y-23374D01*
X18837Y-22587D01*
X18837Y-22587D01*
X18902Y-22489D01*
X18924Y-22375D01*
X18925Y-22375D01*
X18925Y-22329D01*
X18975Y-22350D01*
X19012Y-22350D01*
X19075Y-22287D01*
X19075Y-21925D01*
X19067Y-21925D01*
X19067Y-21825D01*
X19075Y-21825D01*
X19075Y-21817D01*
X19175Y-21817D01*
X19175Y-21825D01*
X19412Y-21825D01*
X19475Y-21762D01*
X19475Y-21699D01*
X19474Y-21600D01*
X19436Y-21508D01*
X19366Y-21437D01*
X19335Y-21425D01*
X22573Y-21425D01*
X22633Y-21485D01*
X22790Y-21549D01*
X22959Y-21550D01*
X23075Y-21502D01*
X23075Y-23612D01*
X23075Y-23612D01*
G37*
G54D24*
X23075Y-23612D02*
X22984Y-23575D01*
X22766Y-23574D01*
X22563Y-23658D01*
X22409Y-23813D01*
X22375Y-23894D01*
X22341Y-23813D01*
X22186Y-23659D01*
X21984Y-23575D01*
X21766Y-23574D01*
X21563Y-23658D01*
X21409Y-23813D01*
X21375Y-23894D01*
X21341Y-23813D01*
X21186Y-23659D01*
X20984Y-23575D01*
X20766Y-23574D01*
X20563Y-23658D01*
X20409Y-23813D01*
X20375Y-23894D01*
X20341Y-23813D01*
X20186Y-23659D01*
X19984Y-23575D01*
X19766Y-23574D01*
X19563Y-23658D01*
X19475Y-23747D01*
X19475Y-22050D01*
X19475Y-21987D01*
X19412Y-21925D01*
X19175Y-21925D01*
X19175Y-22287D01*
X19237Y-22350D01*
X19274Y-22350D01*
X19366Y-22312D01*
X19436Y-22241D01*
X19474Y-22149D01*
X19475Y-22050D01*
X19475Y-23747D01*
X19409Y-23813D01*
X19375Y-23894D01*
X19341Y-23813D01*
X19186Y-23659D01*
X18984Y-23575D01*
X18766Y-23574D01*
X18563Y-23658D01*
X18409Y-23813D01*
X18375Y-23894D01*
X18341Y-23813D01*
X18186Y-23659D01*
X17999Y-23581D01*
X18049Y-23459D01*
X18050Y-23374D01*
X18837Y-22587D01*
X18837Y-22587D01*
X18902Y-22489D01*
X18924Y-22375D01*
X18925Y-22375D01*
X18925Y-22329D01*
X18975Y-22350D01*
X19012Y-22350D01*
X19075Y-22287D01*
X19075Y-21925D01*
X19067Y-21925D01*
X19067Y-21825D01*
X19075Y-21825D01*
X19075Y-21817D01*
X19175Y-21817D01*
X19175Y-21825D01*
X19412Y-21825D01*
X19475Y-21762D01*
X19475Y-21699D01*
X19474Y-21600D01*
X19436Y-21508D01*
X19366Y-21437D01*
X19335Y-21425D01*
X22573Y-21425D01*
X22633Y-21485D01*
X22790Y-21549D01*
X22959Y-21550D01*
X23075Y-21502D01*
X23075Y-23612D01*
G54D10*
G36*
X30775Y-21449D02*
X30725Y-21449D01*
X30633Y-21487D01*
X30625Y-21496D01*
X30616Y-21488D01*
X30524Y-21450D01*
X30425Y-21449D01*
X30225Y-21449D01*
X30133Y-21487D01*
X30063Y-21558D01*
X30025Y-21650D01*
X30024Y-21749D01*
X30024Y-22199D01*
X30062Y-22291D01*
X30075Y-22303D01*
X30075Y-22875D01*
X30097Y-22989D01*
X30162Y-23087D01*
X30662Y-23587D01*
X30662Y-23587D01*
X30690Y-23605D01*
X30563Y-23658D01*
X30409Y-23813D01*
X30375Y-23894D01*
X30341Y-23813D01*
X30186Y-23659D01*
X29984Y-23575D01*
X29766Y-23574D01*
X29563Y-23658D01*
X29409Y-23813D01*
X29375Y-23894D01*
X29341Y-23813D01*
X29186Y-23659D01*
X28984Y-23575D01*
X28766Y-23574D01*
X28563Y-23658D01*
X28475Y-23747D01*
X28475Y-22050D01*
X28475Y-21699D01*
X28474Y-21600D01*
X28436Y-21508D01*
X28366Y-21437D01*
X28274Y-21399D01*
X28237Y-21400D01*
X28175Y-21462D01*
X28175Y-21825D01*
X28412Y-21825D01*
X28475Y-21762D01*
X28475Y-21699D01*
X28475Y-22050D01*
X28475Y-21987D01*
X28412Y-21925D01*
X28175Y-21925D01*
X28175Y-22287D01*
X28237Y-22350D01*
X28274Y-22350D01*
X28366Y-22312D01*
X28436Y-22241D01*
X28474Y-22149D01*
X28475Y-22050D01*
X28475Y-23747D01*
X28409Y-23813D01*
X28375Y-23894D01*
X28341Y-23813D01*
X28186Y-23659D01*
X27984Y-23575D01*
X27766Y-23574D01*
X27675Y-23612D01*
X27675Y-23125D01*
X27652Y-23010D01*
X27587Y-22912D01*
X27587Y-22912D01*
X27425Y-22750D01*
X27425Y-22329D01*
X27475Y-22349D01*
X27574Y-22350D01*
X27774Y-22350D01*
X27866Y-22312D01*
X27875Y-22303D01*
X27883Y-22312D01*
X27975Y-22350D01*
X28012Y-22350D01*
X28075Y-22287D01*
X28075Y-21925D01*
X28067Y-21925D01*
X28067Y-21825D01*
X28075Y-21825D01*
X28075Y-21462D01*
X28012Y-21400D01*
X27975Y-21399D01*
X27883Y-21437D01*
X27875Y-21446D01*
X27866Y-21438D01*
X27774Y-21400D01*
X27675Y-21399D01*
X27475Y-21399D01*
X27383Y-21437D01*
X27375Y-21446D01*
X27366Y-21438D01*
X27274Y-21400D01*
X27175Y-21399D01*
X26975Y-21399D01*
X26883Y-21437D01*
X26875Y-21446D01*
X26866Y-21438D01*
X26774Y-21400D01*
X26675Y-21399D01*
X26475Y-21399D01*
X26383Y-21437D01*
X26375Y-21446D01*
X26366Y-21438D01*
X26274Y-21400D01*
X26175Y-21399D01*
X25975Y-21399D01*
X25883Y-21437D01*
X25875Y-21446D01*
X25866Y-21438D01*
X25774Y-21400D01*
X25675Y-21399D01*
X25475Y-21399D01*
X25383Y-21437D01*
X25375Y-21446D01*
X25366Y-21438D01*
X25274Y-21400D01*
X25175Y-21399D01*
X24975Y-21399D01*
X24883Y-21437D01*
X24875Y-21446D01*
X24866Y-21438D01*
X24774Y-21400D01*
X24675Y-21399D01*
X24475Y-21399D01*
X24383Y-21437D01*
X24313Y-21508D01*
X24275Y-21600D01*
X24274Y-21699D01*
X24274Y-21800D01*
X24175Y-21900D01*
X24175Y-20875D01*
X24152Y-20760D01*
X24087Y-20662D01*
X24087Y-20662D01*
X23849Y-20425D01*
X26750Y-20425D01*
X27412Y-21087D01*
X27412Y-21087D01*
X27510Y-21152D01*
X27624Y-21174D01*
X27625Y-21175D01*
X30500Y-21175D01*
X30775Y-21449D01*
X30775Y-21449D01*
G37*
G54D24*
X30775Y-21449D02*
X30725Y-21449D01*
X30633Y-21487D01*
X30625Y-21496D01*
X30616Y-21488D01*
X30524Y-21450D01*
X30425Y-21449D01*
X30225Y-21449D01*
X30133Y-21487D01*
X30063Y-21558D01*
X30025Y-21650D01*
X30024Y-21749D01*
X30024Y-22199D01*
X30062Y-22291D01*
X30075Y-22303D01*
X30075Y-22875D01*
X30097Y-22989D01*
X30162Y-23087D01*
X30662Y-23587D01*
X30662Y-23587D01*
X30690Y-23605D01*
X30563Y-23658D01*
X30409Y-23813D01*
X30375Y-23894D01*
X30341Y-23813D01*
X30186Y-23659D01*
X29984Y-23575D01*
X29766Y-23574D01*
X29563Y-23658D01*
X29409Y-23813D01*
X29375Y-23894D01*
X29341Y-23813D01*
X29186Y-23659D01*
X28984Y-23575D01*
X28766Y-23574D01*
X28563Y-23658D01*
X28475Y-23747D01*
X28475Y-22050D01*
X28475Y-21699D01*
X28474Y-21600D01*
X28436Y-21508D01*
X28366Y-21437D01*
X28274Y-21399D01*
X28237Y-21400D01*
X28175Y-21462D01*
X28175Y-21825D01*
X28412Y-21825D01*
X28475Y-21762D01*
X28475Y-21699D01*
X28475Y-22050D01*
X28475Y-21987D01*
X28412Y-21925D01*
X28175Y-21925D01*
X28175Y-22287D01*
X28237Y-22350D01*
X28274Y-22350D01*
X28366Y-22312D01*
X28436Y-22241D01*
X28474Y-22149D01*
X28475Y-22050D01*
X28475Y-23747D01*
X28409Y-23813D01*
X28375Y-23894D01*
X28341Y-23813D01*
X28186Y-23659D01*
X27984Y-23575D01*
X27766Y-23574D01*
X27675Y-23612D01*
X27675Y-23125D01*
X27652Y-23010D01*
X27587Y-22912D01*
X27587Y-22912D01*
X27425Y-22750D01*
X27425Y-22329D01*
X27475Y-22349D01*
X27574Y-22350D01*
X27774Y-22350D01*
X27866Y-22312D01*
X27875Y-22303D01*
X27883Y-22312D01*
X27975Y-22350D01*
X28012Y-22350D01*
X28075Y-22287D01*
X28075Y-21925D01*
X28067Y-21925D01*
X28067Y-21825D01*
X28075Y-21825D01*
X28075Y-21462D01*
X28012Y-21400D01*
X27975Y-21399D01*
X27883Y-21437D01*
X27875Y-21446D01*
X27866Y-21438D01*
X27774Y-21400D01*
X27675Y-21399D01*
X27475Y-21399D01*
X27383Y-21437D01*
X27375Y-21446D01*
X27366Y-21438D01*
X27274Y-21400D01*
X27175Y-21399D01*
X26975Y-21399D01*
X26883Y-21437D01*
X26875Y-21446D01*
X26866Y-21438D01*
X26774Y-21400D01*
X26675Y-21399D01*
X26475Y-21399D01*
X26383Y-21437D01*
X26375Y-21446D01*
X26366Y-21438D01*
X26274Y-21400D01*
X26175Y-21399D01*
X25975Y-21399D01*
X25883Y-21437D01*
X25875Y-21446D01*
X25866Y-21438D01*
X25774Y-21400D01*
X25675Y-21399D01*
X25475Y-21399D01*
X25383Y-21437D01*
X25375Y-21446D01*
X25366Y-21438D01*
X25274Y-21400D01*
X25175Y-21399D01*
X24975Y-21399D01*
X24883Y-21437D01*
X24875Y-21446D01*
X24866Y-21438D01*
X24774Y-21400D01*
X24675Y-21399D01*
X24475Y-21399D01*
X24383Y-21437D01*
X24313Y-21508D01*
X24275Y-21600D01*
X24274Y-21699D01*
X24274Y-21800D01*
X24175Y-21900D01*
X24175Y-20875D01*
X24152Y-20760D01*
X24087Y-20662D01*
X24087Y-20662D01*
X23849Y-20425D01*
X26750Y-20425D01*
X27412Y-21087D01*
X27412Y-21087D01*
X27510Y-21152D01*
X27624Y-21174D01*
X27625Y-21175D01*
X30500Y-21175D01*
X30775Y-21449D01*
G54D10*
G36*
X38825Y-15847D02*
X38686Y-15709D01*
X38551Y-15652D01*
X38662Y-15606D01*
X38690Y-15510D01*
X38375Y-15195D01*
X38304Y-15266D01*
X38304Y-15125D01*
X37989Y-14809D01*
X37893Y-14837D01*
X37820Y-15043D01*
X37831Y-15261D01*
X37893Y-15412D01*
X37989Y-15440D01*
X38304Y-15125D01*
X38304Y-15266D01*
X38059Y-15510D01*
X38087Y-15606D01*
X38207Y-15649D01*
X38063Y-15708D01*
X37909Y-15863D01*
X37825Y-16065D01*
X37824Y-16283D01*
X37908Y-16486D01*
X38063Y-16640D01*
X38265Y-16724D01*
X38483Y-16725D01*
X38266Y-16724D01*
X38063Y-16808D01*
X37909Y-16963D01*
X37825Y-17165D01*
X37824Y-17321D01*
X37816Y-17313D01*
X37724Y-17275D01*
X37625Y-17274D01*
X37484Y-17274D01*
X37686Y-17191D01*
X37840Y-17036D01*
X37924Y-16834D01*
X37925Y-16616D01*
X37841Y-16413D01*
X37686Y-16259D01*
X37484Y-16175D01*
X37483Y-16175D01*
X37686Y-16091D01*
X37840Y-15936D01*
X37924Y-15734D01*
X37925Y-15516D01*
X37841Y-15313D01*
X37686Y-15159D01*
X37544Y-15099D01*
X37686Y-15041D01*
X37840Y-14886D01*
X37924Y-14684D01*
X37925Y-14466D01*
X37841Y-14263D01*
X37686Y-14109D01*
X37484Y-14025D01*
X37483Y-14025D01*
X37686Y-13941D01*
X37840Y-13786D01*
X37924Y-13584D01*
X37925Y-13425D01*
X38250Y-13425D01*
X38303Y-13477D01*
X38238Y-13481D01*
X38087Y-13543D01*
X38059Y-13639D01*
X38375Y-13954D01*
X38380Y-13948D01*
X38451Y-14019D01*
X38445Y-14025D01*
X38760Y-14340D01*
X38825Y-14321D01*
X38825Y-14828D01*
X38760Y-14809D01*
X38690Y-14880D01*
X38690Y-14739D01*
X38662Y-14643D01*
X38460Y-14571D01*
X38511Y-14568D01*
X38662Y-14506D01*
X38690Y-14410D01*
X38375Y-14095D01*
X38304Y-14166D01*
X38304Y-14025D01*
X37989Y-13709D01*
X37893Y-13737D01*
X37820Y-13943D01*
X37831Y-14161D01*
X37893Y-14312D01*
X37989Y-14340D01*
X38304Y-14025D01*
X38304Y-14166D01*
X38059Y-14410D01*
X38087Y-14506D01*
X38289Y-14578D01*
X38238Y-14581D01*
X38087Y-14643D01*
X38059Y-14739D01*
X38375Y-15054D01*
X38690Y-14739D01*
X38690Y-14880D01*
X38445Y-15125D01*
X38760Y-15440D01*
X38825Y-15421D01*
X38825Y-15847D01*
X38825Y-15847D01*
G37*
G54D24*
X38825Y-15847D02*
X38686Y-15709D01*
X38551Y-15652D01*
X38662Y-15606D01*
X38690Y-15510D01*
X38375Y-15195D01*
X38304Y-15266D01*
X38304Y-15125D01*
X37989Y-14809D01*
X37893Y-14837D01*
X37820Y-15043D01*
X37831Y-15261D01*
X37893Y-15412D01*
X37989Y-15440D01*
X38304Y-15125D01*
X38304Y-15266D01*
X38059Y-15510D01*
X38087Y-15606D01*
X38207Y-15649D01*
X38063Y-15708D01*
X37909Y-15863D01*
X37825Y-16065D01*
X37824Y-16283D01*
X37908Y-16486D01*
X38063Y-16640D01*
X38265Y-16724D01*
X38483Y-16725D01*
X38266Y-16724D01*
X38063Y-16808D01*
X37909Y-16963D01*
X37825Y-17165D01*
X37824Y-17321D01*
X37816Y-17313D01*
X37724Y-17275D01*
X37625Y-17274D01*
X37484Y-17274D01*
X37686Y-17191D01*
X37840Y-17036D01*
X37924Y-16834D01*
X37925Y-16616D01*
X37841Y-16413D01*
X37686Y-16259D01*
X37484Y-16175D01*
X37483Y-16175D01*
X37686Y-16091D01*
X37840Y-15936D01*
X37924Y-15734D01*
X37925Y-15516D01*
X37841Y-15313D01*
X37686Y-15159D01*
X37544Y-15099D01*
X37686Y-15041D01*
X37840Y-14886D01*
X37924Y-14684D01*
X37925Y-14466D01*
X37841Y-14263D01*
X37686Y-14109D01*
X37484Y-14025D01*
X37483Y-14025D01*
X37686Y-13941D01*
X37840Y-13786D01*
X37924Y-13584D01*
X37925Y-13425D01*
X38250Y-13425D01*
X38303Y-13477D01*
X38238Y-13481D01*
X38087Y-13543D01*
X38059Y-13639D01*
X38375Y-13954D01*
X38380Y-13948D01*
X38451Y-14019D01*
X38445Y-14025D01*
X38760Y-14340D01*
X38825Y-14321D01*
X38825Y-14828D01*
X38760Y-14809D01*
X38690Y-14880D01*
X38690Y-14739D01*
X38662Y-14643D01*
X38460Y-14571D01*
X38511Y-14568D01*
X38662Y-14506D01*
X38690Y-14410D01*
X38375Y-14095D01*
X38304Y-14166D01*
X38304Y-14025D01*
X37989Y-13709D01*
X37893Y-13737D01*
X37820Y-13943D01*
X37831Y-14161D01*
X37893Y-14312D01*
X37989Y-14340D01*
X38304Y-14025D01*
X38304Y-14166D01*
X38059Y-14410D01*
X38087Y-14506D01*
X38289Y-14578D01*
X38238Y-14581D01*
X38087Y-14643D01*
X38059Y-14739D01*
X38375Y-15054D01*
X38690Y-14739D01*
X38690Y-14880D01*
X38445Y-15125D01*
X38760Y-15440D01*
X38825Y-15421D01*
X38825Y-15847D01*
G54D10*
G36*
X38825Y-18125D02*
X36125Y-20824D01*
X35800Y-20824D01*
X35708Y-20862D01*
X35654Y-20916D01*
X35654Y-20200D01*
X35643Y-19992D01*
X35585Y-19852D01*
X35492Y-19827D01*
X35422Y-19898D01*
X35422Y-19757D01*
X35397Y-19664D01*
X35200Y-19595D01*
X34992Y-19606D01*
X34852Y-19664D01*
X34827Y-19757D01*
X35125Y-20054D01*
X35422Y-19757D01*
X35422Y-19898D01*
X35195Y-20125D01*
X35492Y-20422D01*
X35585Y-20397D01*
X35654Y-20200D01*
X35654Y-20916D01*
X35638Y-20933D01*
X35600Y-21025D01*
X35599Y-21124D01*
X35599Y-21474D01*
X35637Y-21566D01*
X35696Y-21625D01*
X35638Y-21683D01*
X35631Y-21700D01*
X35442Y-21700D01*
X35422Y-21680D01*
X35422Y-21679D01*
X35422Y-20492D01*
X35125Y-20195D01*
X34827Y-20492D01*
X34852Y-20585D01*
X35049Y-20654D01*
X35257Y-20643D01*
X35397Y-20585D01*
X35422Y-20492D01*
X35422Y-21679D01*
X35229Y-21600D01*
X35021Y-21599D01*
X34828Y-21679D01*
X34680Y-21827D01*
X34600Y-22020D01*
X34599Y-22228D01*
X34679Y-22422D01*
X34827Y-22569D01*
X35020Y-22649D01*
X35228Y-22650D01*
X35422Y-22570D01*
X35569Y-22422D01*
X35620Y-22300D01*
X35631Y-22300D01*
X35637Y-22316D01*
X35708Y-22386D01*
X35800Y-22424D01*
X35825Y-22424D01*
X35825Y-23750D01*
X35425Y-24150D01*
X35425Y-23775D01*
X35387Y-23683D01*
X35316Y-23613D01*
X35224Y-23575D01*
X35125Y-23574D01*
X34525Y-23574D01*
X34433Y-23612D01*
X34363Y-23683D01*
X34325Y-23775D01*
X34324Y-23828D01*
X34260Y-23809D01*
X34190Y-23880D01*
X34190Y-23739D01*
X34162Y-23643D01*
X33956Y-23570D01*
X33738Y-23581D01*
X33725Y-23586D01*
X33725Y-22100D01*
X33725Y-21749D01*
X33724Y-21650D01*
X33686Y-21558D01*
X33616Y-21487D01*
X33524Y-21449D01*
X33487Y-21450D01*
X33425Y-21512D01*
X33425Y-21875D01*
X33662Y-21875D01*
X33725Y-21812D01*
X33725Y-21749D01*
X33725Y-22100D01*
X33725Y-22037D01*
X33662Y-21975D01*
X33425Y-21975D01*
X33425Y-22337D01*
X33487Y-22400D01*
X33524Y-22400D01*
X33616Y-22362D01*
X33686Y-22291D01*
X33724Y-22199D01*
X33725Y-22100D01*
X33725Y-23586D01*
X33587Y-23643D01*
X33559Y-23739D01*
X33875Y-24054D01*
X34190Y-23739D01*
X34190Y-23880D01*
X33945Y-24125D01*
X33951Y-24130D01*
X33880Y-24201D01*
X33875Y-24195D01*
X33869Y-24201D01*
X33798Y-24130D01*
X33804Y-24125D01*
X33489Y-23809D01*
X33393Y-23837D01*
X33374Y-23892D01*
X33341Y-23813D01*
X33186Y-23659D01*
X32984Y-23575D01*
X32766Y-23574D01*
X32754Y-23579D01*
X32599Y-23425D01*
X32625Y-23425D01*
X32625Y-23424D01*
X32739Y-23402D01*
X32739Y-23402D01*
X32837Y-23337D01*
X33087Y-23087D01*
X33087Y-23087D01*
X33152Y-22989D01*
X33174Y-22875D01*
X33175Y-22875D01*
X33175Y-22379D01*
X33225Y-22400D01*
X33262Y-22400D01*
X33325Y-22337D01*
X33325Y-21975D01*
X33317Y-21975D01*
X33317Y-21875D01*
X33325Y-21875D01*
X33325Y-21512D01*
X33262Y-21450D01*
X33225Y-21449D01*
X33133Y-21487D01*
X33125Y-21496D01*
X33116Y-21488D01*
X33024Y-21450D01*
X32925Y-21449D01*
X32725Y-21449D01*
X32723Y-21450D01*
X32749Y-21425D01*
X33125Y-21425D01*
X33375Y-21425D01*
X33375Y-21424D01*
X33489Y-21402D01*
X33489Y-21402D01*
X33587Y-21337D01*
X34587Y-20337D01*
X34587Y-20337D01*
X34619Y-20288D01*
X34664Y-20397D01*
X34757Y-20422D01*
X35054Y-20125D01*
X34757Y-19827D01*
X34675Y-19849D01*
X34675Y-18625D01*
X34652Y-18510D01*
X34587Y-18412D01*
X34587Y-18412D01*
X34292Y-18118D01*
X34324Y-18124D01*
X34325Y-18125D01*
X36125Y-18125D01*
X36824Y-18125D01*
X36824Y-18174D01*
X36862Y-18266D01*
X36933Y-18336D01*
X37025Y-18374D01*
X37124Y-18375D01*
X37724Y-18375D01*
X37816Y-18337D01*
X37886Y-18266D01*
X37924Y-18174D01*
X37925Y-18075D01*
X37925Y-17602D01*
X38063Y-17740D01*
X38265Y-17824D01*
X38483Y-17825D01*
X38686Y-17741D01*
X38825Y-17602D01*
X38825Y-18125D01*
X38825Y-18125D01*
G37*
G54D24*
X38825Y-18125D02*
X36125Y-20824D01*
X35800Y-20824D01*
X35708Y-20862D01*
X35654Y-20916D01*
X35654Y-20200D01*
X35643Y-19992D01*
X35585Y-19852D01*
X35492Y-19827D01*
X35422Y-19898D01*
X35422Y-19757D01*
X35397Y-19664D01*
X35200Y-19595D01*
X34992Y-19606D01*
X34852Y-19664D01*
X34827Y-19757D01*
X35125Y-20054D01*
X35422Y-19757D01*
X35422Y-19898D01*
X35195Y-20125D01*
X35492Y-20422D01*
X35585Y-20397D01*
X35654Y-20200D01*
X35654Y-20916D01*
X35638Y-20933D01*
X35600Y-21025D01*
X35599Y-21124D01*
X35599Y-21474D01*
X35637Y-21566D01*
X35696Y-21625D01*
X35638Y-21683D01*
X35631Y-21700D01*
X35442Y-21700D01*
X35422Y-21680D01*
X35422Y-21679D01*
X35422Y-20492D01*
X35125Y-20195D01*
X34827Y-20492D01*
X34852Y-20585D01*
X35049Y-20654D01*
X35257Y-20643D01*
X35397Y-20585D01*
X35422Y-20492D01*
X35422Y-21679D01*
X35229Y-21600D01*
X35021Y-21599D01*
X34828Y-21679D01*
X34680Y-21827D01*
X34600Y-22020D01*
X34599Y-22228D01*
X34679Y-22422D01*
X34827Y-22569D01*
X35020Y-22649D01*
X35228Y-22650D01*
X35422Y-22570D01*
X35569Y-22422D01*
X35620Y-22300D01*
X35631Y-22300D01*
X35637Y-22316D01*
X35708Y-22386D01*
X35800Y-22424D01*
X35825Y-22424D01*
X35825Y-23750D01*
X35425Y-24150D01*
X35425Y-23775D01*
X35387Y-23683D01*
X35316Y-23613D01*
X35224Y-23575D01*
X35125Y-23574D01*
X34525Y-23574D01*
X34433Y-23612D01*
X34363Y-23683D01*
X34325Y-23775D01*
X34324Y-23828D01*
X34260Y-23809D01*
X34190Y-23880D01*
X34190Y-23739D01*
X34162Y-23643D01*
X33956Y-23570D01*
X33738Y-23581D01*
X33725Y-23586D01*
X33725Y-22100D01*
X33725Y-21749D01*
X33724Y-21650D01*
X33686Y-21558D01*
X33616Y-21487D01*
X33524Y-21449D01*
X33487Y-21450D01*
X33425Y-21512D01*
X33425Y-21875D01*
X33662Y-21875D01*
X33725Y-21812D01*
X33725Y-21749D01*
X33725Y-22100D01*
X33725Y-22037D01*
X33662Y-21975D01*
X33425Y-21975D01*
X33425Y-22337D01*
X33487Y-22400D01*
X33524Y-22400D01*
X33616Y-22362D01*
X33686Y-22291D01*
X33724Y-22199D01*
X33725Y-22100D01*
X33725Y-23586D01*
X33587Y-23643D01*
X33559Y-23739D01*
X33875Y-24054D01*
X34190Y-23739D01*
X34190Y-23880D01*
X33945Y-24125D01*
X33951Y-24130D01*
X33880Y-24201D01*
X33875Y-24195D01*
X33869Y-24201D01*
X33798Y-24130D01*
X33804Y-24125D01*
X33489Y-23809D01*
X33393Y-23837D01*
X33374Y-23892D01*
X33341Y-23813D01*
X33186Y-23659D01*
X32984Y-23575D01*
X32766Y-23574D01*
X32754Y-23579D01*
X32599Y-23425D01*
X32625Y-23425D01*
X32625Y-23424D01*
X32739Y-23402D01*
X32739Y-23402D01*
X32837Y-23337D01*
X33087Y-23087D01*
X33087Y-23087D01*
X33152Y-22989D01*
X33174Y-22875D01*
X33175Y-22875D01*
X33175Y-22379D01*
X33225Y-22400D01*
X33262Y-22400D01*
X33325Y-22337D01*
X33325Y-21975D01*
X33317Y-21975D01*
X33317Y-21875D01*
X33325Y-21875D01*
X33325Y-21512D01*
X33262Y-21450D01*
X33225Y-21449D01*
X33133Y-21487D01*
X33125Y-21496D01*
X33116Y-21488D01*
X33024Y-21450D01*
X32925Y-21449D01*
X32725Y-21449D01*
X32723Y-21450D01*
X32749Y-21425D01*
X33125Y-21425D01*
X33375Y-21425D01*
X33375Y-21424D01*
X33489Y-21402D01*
X33489Y-21402D01*
X33587Y-21337D01*
X34587Y-20337D01*
X34587Y-20337D01*
X34619Y-20288D01*
X34664Y-20397D01*
X34757Y-20422D01*
X35054Y-20125D01*
X34757Y-19827D01*
X34675Y-19849D01*
X34675Y-18625D01*
X34652Y-18510D01*
X34587Y-18412D01*
X34587Y-18412D01*
X34292Y-18118D01*
X34324Y-18124D01*
X34325Y-18125D01*
X36125Y-18125D01*
X36824Y-18125D01*
X36824Y-18174D01*
X36862Y-18266D01*
X36933Y-18336D01*
X37025Y-18374D01*
X37124Y-18375D01*
X37724Y-18375D01*
X37816Y-18337D01*
X37886Y-18266D01*
X37924Y-18174D01*
X37925Y-18075D01*
X37925Y-17602D01*
X38063Y-17740D01*
X38265Y-17824D01*
X38483Y-17825D01*
X38686Y-17741D01*
X38825Y-17602D01*
X38825Y-18125D01*
G54D10*
G36*
X40605Y-25855D02*
X39700Y-25855D01*
X39700Y-24262D01*
X39498Y-23775D01*
X39425Y-23701D01*
X39425Y-18250D01*
X39425Y-13875D01*
X39424Y-13874D01*
X39402Y-13760D01*
X39375Y-13719D01*
X39375Y-10476D01*
X39223Y-10109D01*
X38942Y-9827D01*
X38574Y-9675D01*
X38176Y-9674D01*
X37809Y-9826D01*
X37527Y-10107D01*
X37375Y-10475D01*
X37374Y-10873D01*
X37526Y-11240D01*
X37807Y-11522D01*
X38175Y-11674D01*
X38573Y-11675D01*
X38940Y-11523D01*
X39222Y-11242D01*
X39374Y-10874D01*
X39375Y-10476D01*
X39375Y-13719D01*
X39337Y-13662D01*
X39337Y-13662D01*
X38587Y-12912D01*
X38489Y-12847D01*
X38375Y-12825D01*
X37625Y-12825D01*
X37510Y-12847D01*
X37412Y-12912D01*
X37400Y-12925D01*
X37266Y-12924D01*
X37063Y-13008D01*
X36909Y-13163D01*
X36825Y-13365D01*
X36824Y-13583D01*
X36908Y-13786D01*
X37063Y-13940D01*
X37265Y-14024D01*
X37483Y-14025D01*
X37266Y-14024D01*
X37063Y-14108D01*
X36909Y-14263D01*
X36904Y-14275D01*
X30175Y-14275D01*
X30060Y-14297D01*
X29962Y-14362D01*
X28108Y-16216D01*
X28089Y-16203D01*
X27875Y-16161D01*
X27660Y-16203D01*
X27479Y-16325D01*
X27375Y-16480D01*
X27270Y-16325D01*
X27089Y-16203D01*
X26875Y-16161D01*
X26660Y-16203D01*
X26479Y-16325D01*
X26375Y-16480D01*
X26270Y-16325D01*
X26089Y-16203D01*
X25875Y-16161D01*
X25660Y-16203D01*
X25479Y-16325D01*
X25375Y-16480D01*
X25270Y-16325D01*
X25089Y-16203D01*
X24875Y-16161D01*
X24660Y-16203D01*
X24479Y-16325D01*
X24375Y-16480D01*
X24270Y-16325D01*
X24089Y-16203D01*
X23875Y-16161D01*
X23660Y-16203D01*
X23479Y-16325D01*
X23375Y-16480D01*
X23270Y-16325D01*
X23089Y-16203D01*
X22875Y-16161D01*
X22660Y-16203D01*
X22479Y-16325D01*
X22375Y-16480D01*
X22270Y-16325D01*
X22089Y-16203D01*
X21875Y-16161D01*
X21660Y-16203D01*
X21479Y-16325D01*
X21375Y-16480D01*
X21270Y-16325D01*
X21089Y-16203D01*
X20875Y-16161D01*
X20660Y-16203D01*
X20479Y-16325D01*
X20375Y-16480D01*
X20270Y-16325D01*
X20089Y-16203D01*
X19875Y-16161D01*
X19660Y-16203D01*
X19479Y-16325D01*
X19375Y-16480D01*
X19270Y-16325D01*
X19089Y-16203D01*
X18875Y-16161D01*
X18660Y-16203D01*
X18479Y-16325D01*
X18375Y-16480D01*
X18270Y-16325D01*
X18089Y-16203D01*
X17875Y-16161D01*
X17660Y-16203D01*
X17479Y-16325D01*
X17375Y-16480D01*
X17270Y-16325D01*
X17089Y-16203D01*
X16875Y-16161D01*
X16660Y-16203D01*
X16479Y-16325D01*
X16375Y-16480D01*
X16270Y-16325D01*
X16089Y-16203D01*
X15990Y-16184D01*
X17499Y-14675D01*
X21375Y-14675D01*
X21375Y-14674D01*
X21489Y-14652D01*
X21489Y-14652D01*
X21587Y-14587D01*
X24587Y-11587D01*
X24587Y-11587D01*
X24628Y-11524D01*
X24628Y-11524D01*
X24660Y-11546D01*
X24875Y-11588D01*
X25089Y-11546D01*
X25270Y-11424D01*
X25375Y-11269D01*
X25479Y-11424D01*
X25660Y-11546D01*
X25875Y-11588D01*
X26089Y-11546D01*
X26270Y-11424D01*
X26374Y-11269D01*
X26376Y-11275D01*
X26514Y-11446D01*
X26706Y-11551D01*
X26738Y-11558D01*
X26825Y-11509D01*
X26825Y-10925D01*
X26817Y-10925D01*
X26817Y-10825D01*
X26825Y-10825D01*
X26825Y-10240D01*
X26738Y-10191D01*
X26706Y-10198D01*
X26514Y-10303D01*
X26376Y-10474D01*
X26374Y-10480D01*
X26270Y-10325D01*
X26089Y-10203D01*
X25943Y-10175D01*
X27806Y-10175D01*
X27660Y-10203D01*
X27479Y-10325D01*
X27375Y-10480D01*
X27373Y-10474D01*
X27235Y-10303D01*
X27043Y-10198D01*
X27011Y-10191D01*
X26925Y-10240D01*
X26925Y-10825D01*
X26932Y-10825D01*
X26932Y-10925D01*
X26925Y-10925D01*
X26925Y-11509D01*
X27011Y-11558D01*
X27043Y-11551D01*
X27235Y-11446D01*
X27373Y-11275D01*
X27375Y-11269D01*
X27479Y-11424D01*
X27660Y-11546D01*
X27875Y-11588D01*
X28089Y-11546D01*
X28270Y-11424D01*
X28375Y-11269D01*
X28479Y-11424D01*
X28660Y-11546D01*
X28875Y-11588D01*
X29089Y-11546D01*
X29270Y-11424D01*
X29375Y-11269D01*
X29479Y-11424D01*
X29660Y-11546D01*
X29875Y-11588D01*
X30089Y-11546D01*
X30270Y-11424D01*
X30392Y-11243D01*
X30435Y-11028D01*
X30435Y-10721D01*
X30392Y-10506D01*
X30270Y-10325D01*
X30134Y-10234D01*
X30087Y-10162D01*
X30087Y-10162D01*
X29587Y-9662D01*
X29489Y-9597D01*
X29375Y-9575D01*
X24625Y-9575D01*
X24510Y-9597D01*
X24412Y-9662D01*
X24162Y-9912D01*
X24097Y-10010D01*
X24075Y-10125D01*
X24075Y-10201D01*
X23904Y-10167D01*
X23904Y-9450D01*
X23893Y-9242D01*
X23835Y-9102D01*
X23742Y-9077D01*
X23445Y-9375D01*
X23742Y-9672D01*
X23835Y-9647D01*
X23904Y-9450D01*
X23904Y-10167D01*
X23875Y-10161D01*
X23672Y-10201D01*
X23672Y-9742D01*
X23375Y-9445D01*
X23077Y-9742D01*
X23102Y-9835D01*
X23299Y-9904D01*
X23507Y-9893D01*
X23647Y-9835D01*
X23672Y-9742D01*
X23672Y-10201D01*
X23660Y-10203D01*
X23479Y-10325D01*
X23375Y-10480D01*
X23270Y-10325D01*
X23089Y-10203D01*
X22875Y-10161D01*
X22660Y-10203D01*
X22479Y-10325D01*
X22375Y-10480D01*
X22270Y-10325D01*
X22089Y-10203D01*
X21875Y-10161D01*
X21660Y-10203D01*
X21479Y-10325D01*
X21375Y-10480D01*
X21270Y-10325D01*
X21089Y-10203D01*
X20875Y-10161D01*
X20660Y-10203D01*
X20479Y-10325D01*
X20375Y-10480D01*
X20270Y-10325D01*
X20089Y-10203D01*
X19875Y-10161D01*
X19660Y-10203D01*
X19479Y-10325D01*
X19375Y-10480D01*
X19270Y-10325D01*
X19089Y-10203D01*
X18875Y-10161D01*
X18660Y-10203D01*
X18479Y-10325D01*
X18375Y-10480D01*
X18270Y-10325D01*
X18089Y-10203D01*
X17990Y-10184D01*
X18087Y-10087D01*
X18087Y-10087D01*
X18152Y-9989D01*
X18174Y-9875D01*
X18175Y-9875D01*
X18175Y-9860D01*
X18270Y-9899D01*
X18478Y-9900D01*
X18672Y-9820D01*
X18819Y-9672D01*
X18875Y-9539D01*
X18929Y-9672D01*
X19077Y-9819D01*
X19270Y-9899D01*
X19478Y-9900D01*
X19672Y-9820D01*
X19819Y-9672D01*
X19875Y-9539D01*
X19929Y-9672D01*
X20077Y-9819D01*
X20270Y-9899D01*
X20478Y-9900D01*
X20672Y-9820D01*
X20819Y-9672D01*
X20875Y-9539D01*
X20929Y-9672D01*
X21077Y-9819D01*
X21270Y-9899D01*
X21478Y-9900D01*
X21672Y-9820D01*
X21819Y-9672D01*
X21875Y-9539D01*
X21929Y-9672D01*
X22077Y-9819D01*
X22270Y-9899D01*
X22478Y-9900D01*
X22672Y-9820D01*
X22819Y-9672D01*
X22872Y-9546D01*
X22914Y-9647D01*
X23007Y-9672D01*
X23304Y-9375D01*
X23007Y-9077D01*
X22914Y-9102D01*
X22875Y-9212D01*
X22820Y-9078D01*
X22672Y-8930D01*
X22660Y-8925D01*
X23099Y-8925D01*
X23077Y-9007D01*
X23375Y-9304D01*
X23672Y-9007D01*
X23650Y-8925D01*
X29750Y-8925D01*
X30412Y-9587D01*
X30412Y-9587D01*
X30412Y-9587D01*
X30825Y-9999D01*
X30825Y-11125D01*
X30847Y-11239D01*
X30912Y-11337D01*
X32349Y-12774D01*
X32349Y-13199D01*
X32387Y-13291D01*
X32458Y-13361D01*
X32550Y-13399D01*
X32649Y-13400D01*
X33199Y-13400D01*
X33291Y-13362D01*
X33361Y-13291D01*
X33399Y-13199D01*
X33400Y-13100D01*
X33400Y-12550D01*
X33362Y-12458D01*
X33291Y-12388D01*
X33199Y-12350D01*
X33100Y-12349D01*
X33100Y-12349D01*
X33172Y-12320D01*
X33319Y-12172D01*
X33399Y-11979D01*
X33400Y-11771D01*
X33320Y-11578D01*
X33175Y-11432D01*
X33175Y-10710D01*
X33275Y-10669D01*
X33466Y-10478D01*
X33570Y-10228D01*
X33570Y-9958D01*
X33467Y-9708D01*
X33276Y-9517D01*
X33026Y-9413D01*
X32756Y-9413D01*
X32506Y-9516D01*
X32398Y-9624D01*
X32292Y-9517D01*
X32042Y-9413D01*
X31772Y-9413D01*
X31522Y-9516D01*
X31352Y-9686D01*
X31337Y-9662D01*
X31337Y-9662D01*
X30837Y-9162D01*
X30837Y-9162D01*
X30837Y-9162D01*
X30099Y-8425D01*
X32250Y-8425D01*
X32912Y-9087D01*
X32912Y-9087D01*
X32912Y-9087D01*
X33575Y-9749D01*
X33575Y-11875D01*
X33597Y-11989D01*
X33662Y-12087D01*
X33912Y-12337D01*
X33912Y-12337D01*
X33912Y-12337D01*
X34349Y-12774D01*
X34349Y-13199D01*
X34387Y-13291D01*
X34458Y-13361D01*
X34550Y-13399D01*
X34649Y-13400D01*
X35199Y-13400D01*
X35291Y-13362D01*
X35361Y-13291D01*
X35399Y-13199D01*
X35400Y-13100D01*
X35400Y-12550D01*
X35362Y-12458D01*
X35291Y-12388D01*
X35199Y-12350D01*
X35100Y-12349D01*
X35100Y-12349D01*
X35172Y-12320D01*
X35319Y-12172D01*
X35399Y-11979D01*
X35400Y-11771D01*
X35320Y-11578D01*
X35175Y-11432D01*
X35175Y-10697D01*
X35243Y-10669D01*
X35351Y-10561D01*
X35457Y-10668D01*
X35707Y-10772D01*
X35977Y-10772D01*
X36227Y-10669D01*
X36418Y-10478D01*
X36522Y-10228D01*
X36522Y-9958D01*
X36419Y-9708D01*
X36228Y-9517D01*
X35978Y-9413D01*
X35708Y-9413D01*
X35458Y-9516D01*
X35350Y-9624D01*
X35244Y-9517D01*
X34994Y-9413D01*
X34724Y-9413D01*
X34558Y-9481D01*
X34558Y-8237D01*
X34549Y-7967D01*
X34463Y-7759D01*
X34354Y-7716D01*
X34283Y-7786D01*
X34283Y-7645D01*
X34240Y-7536D01*
X33987Y-7441D01*
X33717Y-7450D01*
X33509Y-7536D01*
X33466Y-7645D01*
X33875Y-8054D01*
X34283Y-7645D01*
X34283Y-7786D01*
X33945Y-8125D01*
X34354Y-8533D01*
X34463Y-8490D01*
X34558Y-8237D01*
X34558Y-9481D01*
X34474Y-9516D01*
X34283Y-9706D01*
X34283Y-8604D01*
X33875Y-8195D01*
X33804Y-8266D01*
X33804Y-8125D01*
X33395Y-7716D01*
X33286Y-7759D01*
X33191Y-8012D01*
X33200Y-8282D01*
X33286Y-8490D01*
X33395Y-8533D01*
X33804Y-8125D01*
X33804Y-8266D01*
X33466Y-8604D01*
X33509Y-8713D01*
X33762Y-8808D01*
X34032Y-8799D01*
X34240Y-8713D01*
X34283Y-8604D01*
X34283Y-9706D01*
X34283Y-9707D01*
X34179Y-9957D01*
X34179Y-10227D01*
X34282Y-10477D01*
X34473Y-10668D01*
X34575Y-10710D01*
X34575Y-11432D01*
X34430Y-11577D01*
X34350Y-11770D01*
X34349Y-11925D01*
X34337Y-11912D01*
X34337Y-11912D01*
X34337Y-11912D01*
X34175Y-11750D01*
X34175Y-9625D01*
X34174Y-9624D01*
X34152Y-9510D01*
X34087Y-9412D01*
X34087Y-9412D01*
X33337Y-8662D01*
X33337Y-8662D01*
X33337Y-8662D01*
X32587Y-7912D01*
X32489Y-7847D01*
X32375Y-7825D01*
X17375Y-7825D01*
X16675Y-7825D01*
X16675Y-7800D01*
X16637Y-7708D01*
X16566Y-7638D01*
X16514Y-7616D01*
X16462Y-7537D01*
X16462Y-7537D01*
X16087Y-7162D01*
X15989Y-7097D01*
X15875Y-7075D01*
X12625Y-7075D01*
X12510Y-7097D01*
X12412Y-7162D01*
X11662Y-7912D01*
X11597Y-8010D01*
X11575Y-8125D01*
X11575Y-8324D01*
X11550Y-8324D01*
X11458Y-8362D01*
X11388Y-8433D01*
X11350Y-8525D01*
X11349Y-8624D01*
X11349Y-8974D01*
X11387Y-9066D01*
X11446Y-9125D01*
X11388Y-9183D01*
X11350Y-9275D01*
X11349Y-9374D01*
X11349Y-9724D01*
X11387Y-9816D01*
X11458Y-9886D01*
X11550Y-9924D01*
X11649Y-9925D01*
X11875Y-9925D01*
X12075Y-10124D01*
X12075Y-10201D01*
X11875Y-10161D01*
X11660Y-10203D01*
X11479Y-10325D01*
X11375Y-10480D01*
X11270Y-10325D01*
X11089Y-10203D01*
X10875Y-10161D01*
X10660Y-10203D01*
X10479Y-10325D01*
X10357Y-10506D01*
X10315Y-10721D01*
X10315Y-11010D01*
X9912Y-11412D01*
X9847Y-11510D01*
X9825Y-11625D01*
X9825Y-18375D01*
X9847Y-18489D01*
X9912Y-18587D01*
X10525Y-19199D01*
X10524Y-19249D01*
X10524Y-19699D01*
X10562Y-19791D01*
X10575Y-19803D01*
X10575Y-19875D01*
X10597Y-19989D01*
X10662Y-20087D01*
X11162Y-20587D01*
X11162Y-20587D01*
X11260Y-20652D01*
X11375Y-20675D01*
X11400Y-20675D01*
X10662Y-21412D01*
X10597Y-21510D01*
X10594Y-21526D01*
X10594Y-21526D01*
X10563Y-21558D01*
X10525Y-21650D01*
X10524Y-21749D01*
X10524Y-22199D01*
X10562Y-22291D01*
X10633Y-22361D01*
X10725Y-22399D01*
X10824Y-22400D01*
X11024Y-22400D01*
X11075Y-22378D01*
X11097Y-22489D01*
X11162Y-22587D01*
X11412Y-22837D01*
X11412Y-22837D01*
X11510Y-22902D01*
X11625Y-22925D01*
X12125Y-22925D01*
X12125Y-22924D01*
X12239Y-22902D01*
X12239Y-22902D01*
X12337Y-22837D01*
X12454Y-22719D01*
X12514Y-22865D01*
X12633Y-22985D01*
X12790Y-23049D01*
X12959Y-23050D01*
X13115Y-22985D01*
X13235Y-22866D01*
X13299Y-22709D01*
X13300Y-22540D01*
X13241Y-22399D01*
X13324Y-22400D01*
X13524Y-22400D01*
X13616Y-22362D01*
X13625Y-22353D01*
X13633Y-22362D01*
X13725Y-22400D01*
X13762Y-22400D01*
X13825Y-22337D01*
X13825Y-21975D01*
X13817Y-21975D01*
X13817Y-21875D01*
X13825Y-21875D01*
X13825Y-21867D01*
X13925Y-21867D01*
X13925Y-21875D01*
X14162Y-21875D01*
X14225Y-21812D01*
X14225Y-21749D01*
X14224Y-21675D01*
X14323Y-21675D01*
X14383Y-21735D01*
X14506Y-21786D01*
X14225Y-22067D01*
X14225Y-22037D01*
X14162Y-21975D01*
X13925Y-21975D01*
X13925Y-22337D01*
X13987Y-22400D01*
X14024Y-22400D01*
X14075Y-22379D01*
X14075Y-22625D01*
X14075Y-23612D01*
X13984Y-23575D01*
X13766Y-23574D01*
X13563Y-23658D01*
X13409Y-23813D01*
X13375Y-23894D01*
X13341Y-23813D01*
X13186Y-23659D01*
X12984Y-23575D01*
X12766Y-23574D01*
X12563Y-23658D01*
X12409Y-23813D01*
X12375Y-23894D01*
X12341Y-23813D01*
X12186Y-23659D01*
X11984Y-23575D01*
X11766Y-23574D01*
X11563Y-23658D01*
X11409Y-23813D01*
X11377Y-23888D01*
X11356Y-23837D01*
X11260Y-23809D01*
X11190Y-23880D01*
X11190Y-23739D01*
X11162Y-23643D01*
X10956Y-23570D01*
X10738Y-23581D01*
X10587Y-23643D01*
X10559Y-23739D01*
X10875Y-24054D01*
X11190Y-23739D01*
X11190Y-23880D01*
X10945Y-24125D01*
X11260Y-24440D01*
X11356Y-24412D01*
X11375Y-24357D01*
X11408Y-24436D01*
X11563Y-24590D01*
X11644Y-24624D01*
X11563Y-24658D01*
X11409Y-24813D01*
X11377Y-24888D01*
X11356Y-24837D01*
X11260Y-24809D01*
X11190Y-24880D01*
X11190Y-24739D01*
X11162Y-24643D01*
X11114Y-24626D01*
X11162Y-24606D01*
X11190Y-24510D01*
X10875Y-24195D01*
X10804Y-24266D01*
X10804Y-24125D01*
X10489Y-23809D01*
X10393Y-23837D01*
X10320Y-24043D01*
X10331Y-24261D01*
X10393Y-24412D01*
X10489Y-24440D01*
X10804Y-24125D01*
X10804Y-24266D01*
X10559Y-24510D01*
X10587Y-24606D01*
X10635Y-24623D01*
X10587Y-24643D01*
X10559Y-24739D01*
X10875Y-25054D01*
X11190Y-24739D01*
X11190Y-24880D01*
X10945Y-25125D01*
X11260Y-25440D01*
X11356Y-25412D01*
X11375Y-25357D01*
X11408Y-25436D01*
X11563Y-25590D01*
X11765Y-25674D01*
X11983Y-25675D01*
X12186Y-25591D01*
X12340Y-25436D01*
X12374Y-25355D01*
X12408Y-25436D01*
X12563Y-25590D01*
X12765Y-25674D01*
X12983Y-25675D01*
X13186Y-25591D01*
X13340Y-25436D01*
X13374Y-25355D01*
X13408Y-25436D01*
X13563Y-25590D01*
X13765Y-25674D01*
X13983Y-25675D01*
X14186Y-25591D01*
X14340Y-25436D01*
X14374Y-25355D01*
X14408Y-25436D01*
X14563Y-25590D01*
X14765Y-25674D01*
X14983Y-25675D01*
X15186Y-25591D01*
X15340Y-25436D01*
X15374Y-25355D01*
X15408Y-25436D01*
X15563Y-25590D01*
X15765Y-25674D01*
X15983Y-25675D01*
X16186Y-25591D01*
X16340Y-25436D01*
X16374Y-25355D01*
X16408Y-25436D01*
X16563Y-25590D01*
X16765Y-25674D01*
X16983Y-25675D01*
X17186Y-25591D01*
X17340Y-25436D01*
X17374Y-25355D01*
X17408Y-25436D01*
X17563Y-25590D01*
X17765Y-25674D01*
X17983Y-25675D01*
X18186Y-25591D01*
X18340Y-25436D01*
X18374Y-25355D01*
X18408Y-25436D01*
X18563Y-25590D01*
X18765Y-25674D01*
X18983Y-25675D01*
X19186Y-25591D01*
X19340Y-25436D01*
X19374Y-25355D01*
X19408Y-25436D01*
X19563Y-25590D01*
X19765Y-25674D01*
X19983Y-25675D01*
X20186Y-25591D01*
X20340Y-25436D01*
X20374Y-25355D01*
X20408Y-25436D01*
X20563Y-25590D01*
X20765Y-25674D01*
X20983Y-25675D01*
X21186Y-25591D01*
X21340Y-25436D01*
X21374Y-25355D01*
X21408Y-25436D01*
X21563Y-25590D01*
X21765Y-25674D01*
X21983Y-25675D01*
X22186Y-25591D01*
X22340Y-25436D01*
X22374Y-25355D01*
X22408Y-25436D01*
X22563Y-25590D01*
X22765Y-25674D01*
X22983Y-25675D01*
X23186Y-25591D01*
X23340Y-25436D01*
X23374Y-25355D01*
X23408Y-25436D01*
X23563Y-25590D01*
X23765Y-25674D01*
X23983Y-25675D01*
X24186Y-25591D01*
X24340Y-25436D01*
X24374Y-25355D01*
X24408Y-25436D01*
X24563Y-25590D01*
X24765Y-25674D01*
X24983Y-25675D01*
X25186Y-25591D01*
X25340Y-25436D01*
X25374Y-25355D01*
X25408Y-25436D01*
X25563Y-25590D01*
X25765Y-25674D01*
X25983Y-25675D01*
X26186Y-25591D01*
X26340Y-25436D01*
X26374Y-25355D01*
X26408Y-25436D01*
X26563Y-25590D01*
X26765Y-25674D01*
X26983Y-25675D01*
X27186Y-25591D01*
X27340Y-25436D01*
X27374Y-25355D01*
X27408Y-25436D01*
X27563Y-25590D01*
X27765Y-25674D01*
X27983Y-25675D01*
X28186Y-25591D01*
X28340Y-25436D01*
X28374Y-25355D01*
X28408Y-25436D01*
X28563Y-25590D01*
X28765Y-25674D01*
X28983Y-25675D01*
X29186Y-25591D01*
X29340Y-25436D01*
X29374Y-25355D01*
X29408Y-25436D01*
X29563Y-25590D01*
X29765Y-25674D01*
X29983Y-25675D01*
X30186Y-25591D01*
X30340Y-25436D01*
X30374Y-25355D01*
X30408Y-25436D01*
X30563Y-25590D01*
X30765Y-25674D01*
X30983Y-25675D01*
X31186Y-25591D01*
X31340Y-25436D01*
X31374Y-25355D01*
X31408Y-25436D01*
X31563Y-25590D01*
X31765Y-25674D01*
X31983Y-25675D01*
X32186Y-25591D01*
X32340Y-25436D01*
X32374Y-25355D01*
X32408Y-25436D01*
X32563Y-25590D01*
X32765Y-25674D01*
X32983Y-25675D01*
X33186Y-25591D01*
X33340Y-25436D01*
X33372Y-25361D01*
X33393Y-25412D01*
X33489Y-25440D01*
X33804Y-25125D01*
X33798Y-25119D01*
X33869Y-25048D01*
X33875Y-25054D01*
X33880Y-25048D01*
X33951Y-25119D01*
X33945Y-25125D01*
X34260Y-25440D01*
X34356Y-25412D01*
X34375Y-25357D01*
X34408Y-25436D01*
X34563Y-25590D01*
X34765Y-25674D01*
X34983Y-25675D01*
X35186Y-25591D01*
X35340Y-25436D01*
X35424Y-25234D01*
X35425Y-25016D01*
X35386Y-24922D01*
X35489Y-24902D01*
X35489Y-24902D01*
X35587Y-24837D01*
X36337Y-24087D01*
X36337Y-24087D01*
X36402Y-23989D01*
X36424Y-23875D01*
X36425Y-23875D01*
X36425Y-22425D01*
X36449Y-22425D01*
X36541Y-22387D01*
X36611Y-22316D01*
X36649Y-22224D01*
X36650Y-22125D01*
X36650Y-21775D01*
X36612Y-21683D01*
X36553Y-21624D01*
X36611Y-21566D01*
X36649Y-21474D01*
X36650Y-21375D01*
X36650Y-21149D01*
X37411Y-20387D01*
X37375Y-20475D01*
X37374Y-20873D01*
X37526Y-21240D01*
X37807Y-21522D01*
X38175Y-21674D01*
X38573Y-21675D01*
X38940Y-21523D01*
X39222Y-21242D01*
X39374Y-20874D01*
X39375Y-20476D01*
X39223Y-20109D01*
X38942Y-19827D01*
X38574Y-19675D01*
X38176Y-19674D01*
X38087Y-19711D01*
X39337Y-18462D01*
X39337Y-18462D01*
X39402Y-18364D01*
X39424Y-18250D01*
X39425Y-18250D01*
X39425Y-23701D01*
X39126Y-23402D01*
X38639Y-23200D01*
X38112Y-23199D01*
X37625Y-23401D01*
X37252Y-23773D01*
X37050Y-24260D01*
X37049Y-24787D01*
X37251Y-25274D01*
X37623Y-25647D01*
X38110Y-25849D01*
X38637Y-25850D01*
X39124Y-25648D01*
X39497Y-25276D01*
X39699Y-24789D01*
X39700Y-24262D01*
X39700Y-25855D01*
X34190Y-25855D01*
X34190Y-25510D01*
X33875Y-25195D01*
X33559Y-25510D01*
X33587Y-25606D01*
X33793Y-25679D01*
X34011Y-25668D01*
X34162Y-25606D01*
X34190Y-25510D01*
X34190Y-25855D01*
X11190Y-25855D01*
X11190Y-25510D01*
X10875Y-25195D01*
X10804Y-25266D01*
X10804Y-25125D01*
X10489Y-24809D01*
X10393Y-24837D01*
X10320Y-25043D01*
X10331Y-25261D01*
X10393Y-25412D01*
X10489Y-25440D01*
X10804Y-25125D01*
X10804Y-25266D01*
X10559Y-25510D01*
X10587Y-25606D01*
X10793Y-25679D01*
X11011Y-25668D01*
X11162Y-25606D01*
X11190Y-25510D01*
X11190Y-25855D01*
X9644Y-25855D01*
X9644Y-6894D01*
X40605Y-6894D01*
X40605Y-25855D01*
X40605Y-25855D01*
G37*
G54D24*
X40605Y-25855D02*
X39700Y-25855D01*
X39700Y-24262D01*
X39498Y-23775D01*
X39425Y-23701D01*
X39425Y-18250D01*
X39425Y-13875D01*
X39424Y-13874D01*
X39402Y-13760D01*
X39375Y-13719D01*
X39375Y-10476D01*
X39223Y-10109D01*
X38942Y-9827D01*
X38574Y-9675D01*
X38176Y-9674D01*
X37809Y-9826D01*
X37527Y-10107D01*
X37375Y-10475D01*
X37374Y-10873D01*
X37526Y-11240D01*
X37807Y-11522D01*
X38175Y-11674D01*
X38573Y-11675D01*
X38940Y-11523D01*
X39222Y-11242D01*
X39374Y-10874D01*
X39375Y-10476D01*
X39375Y-13719D01*
X39337Y-13662D01*
X39337Y-13662D01*
X38587Y-12912D01*
X38489Y-12847D01*
X38375Y-12825D01*
X37625Y-12825D01*
X37510Y-12847D01*
X37412Y-12912D01*
X37400Y-12925D01*
X37266Y-12924D01*
X37063Y-13008D01*
X36909Y-13163D01*
X36825Y-13365D01*
X36824Y-13583D01*
X36908Y-13786D01*
X37063Y-13940D01*
X37265Y-14024D01*
X37483Y-14025D01*
X37266Y-14024D01*
X37063Y-14108D01*
X36909Y-14263D01*
X36904Y-14275D01*
X30175Y-14275D01*
X30060Y-14297D01*
X29962Y-14362D01*
X28108Y-16216D01*
X28089Y-16203D01*
X27875Y-16161D01*
X27660Y-16203D01*
X27479Y-16325D01*
X27375Y-16480D01*
X27270Y-16325D01*
X27089Y-16203D01*
X26875Y-16161D01*
X26660Y-16203D01*
X26479Y-16325D01*
X26375Y-16480D01*
X26270Y-16325D01*
X26089Y-16203D01*
X25875Y-16161D01*
X25660Y-16203D01*
X25479Y-16325D01*
X25375Y-16480D01*
X25270Y-16325D01*
X25089Y-16203D01*
X24875Y-16161D01*
X24660Y-16203D01*
X24479Y-16325D01*
X24375Y-16480D01*
X24270Y-16325D01*
X24089Y-16203D01*
X23875Y-16161D01*
X23660Y-16203D01*
X23479Y-16325D01*
X23375Y-16480D01*
X23270Y-16325D01*
X23089Y-16203D01*
X22875Y-16161D01*
X22660Y-16203D01*
X22479Y-16325D01*
X22375Y-16480D01*
X22270Y-16325D01*
X22089Y-16203D01*
X21875Y-16161D01*
X21660Y-16203D01*
X21479Y-16325D01*
X21375Y-16480D01*
X21270Y-16325D01*
X21089Y-16203D01*
X20875Y-16161D01*
X20660Y-16203D01*
X20479Y-16325D01*
X20375Y-16480D01*
X20270Y-16325D01*
X20089Y-16203D01*
X19875Y-16161D01*
X19660Y-16203D01*
X19479Y-16325D01*
X19375Y-16480D01*
X19270Y-16325D01*
X19089Y-16203D01*
X18875Y-16161D01*
X18660Y-16203D01*
X18479Y-16325D01*
X18375Y-16480D01*
X18270Y-16325D01*
X18089Y-16203D01*
X17875Y-16161D01*
X17660Y-16203D01*
X17479Y-16325D01*
X17375Y-16480D01*
X17270Y-16325D01*
X17089Y-16203D01*
X16875Y-16161D01*
X16660Y-16203D01*
X16479Y-16325D01*
X16375Y-16480D01*
X16270Y-16325D01*
X16089Y-16203D01*
X15990Y-16184D01*
X17499Y-14675D01*
X21375Y-14675D01*
X21375Y-14674D01*
X21489Y-14652D01*
X21489Y-14652D01*
X21587Y-14587D01*
X24587Y-11587D01*
X24587Y-11587D01*
X24628Y-11524D01*
X24628Y-11524D01*
X24660Y-11546D01*
X24875Y-11588D01*
X25089Y-11546D01*
X25270Y-11424D01*
X25375Y-11269D01*
X25479Y-11424D01*
X25660Y-11546D01*
X25875Y-11588D01*
X26089Y-11546D01*
X26270Y-11424D01*
X26374Y-11269D01*
X26376Y-11275D01*
X26514Y-11446D01*
X26706Y-11551D01*
X26738Y-11558D01*
X26825Y-11509D01*
X26825Y-10925D01*
X26817Y-10925D01*
X26817Y-10825D01*
X26825Y-10825D01*
X26825Y-10240D01*
X26738Y-10191D01*
X26706Y-10198D01*
X26514Y-10303D01*
X26376Y-10474D01*
X26374Y-10480D01*
X26270Y-10325D01*
X26089Y-10203D01*
X25943Y-10175D01*
X27806Y-10175D01*
X27660Y-10203D01*
X27479Y-10325D01*
X27375Y-10480D01*
X27373Y-10474D01*
X27235Y-10303D01*
X27043Y-10198D01*
X27011Y-10191D01*
X26925Y-10240D01*
X26925Y-10825D01*
X26932Y-10825D01*
X26932Y-10925D01*
X26925Y-10925D01*
X26925Y-11509D01*
X27011Y-11558D01*
X27043Y-11551D01*
X27235Y-11446D01*
X27373Y-11275D01*
X27375Y-11269D01*
X27479Y-11424D01*
X27660Y-11546D01*
X27875Y-11588D01*
X28089Y-11546D01*
X28270Y-11424D01*
X28375Y-11269D01*
X28479Y-11424D01*
X28660Y-11546D01*
X28875Y-11588D01*
X29089Y-11546D01*
X29270Y-11424D01*
X29375Y-11269D01*
X29479Y-11424D01*
X29660Y-11546D01*
X29875Y-11588D01*
X30089Y-11546D01*
X30270Y-11424D01*
X30392Y-11243D01*
X30435Y-11028D01*
X30435Y-10721D01*
X30392Y-10506D01*
X30270Y-10325D01*
X30134Y-10234D01*
X30087Y-10162D01*
X30087Y-10162D01*
X29587Y-9662D01*
X29489Y-9597D01*
X29375Y-9575D01*
X24625Y-9575D01*
X24510Y-9597D01*
X24412Y-9662D01*
X24162Y-9912D01*
X24097Y-10010D01*
X24075Y-10125D01*
X24075Y-10201D01*
X23904Y-10167D01*
X23904Y-9450D01*
X23893Y-9242D01*
X23835Y-9102D01*
X23742Y-9077D01*
X23445Y-9375D01*
X23742Y-9672D01*
X23835Y-9647D01*
X23904Y-9450D01*
X23904Y-10167D01*
X23875Y-10161D01*
X23672Y-10201D01*
X23672Y-9742D01*
X23375Y-9445D01*
X23077Y-9742D01*
X23102Y-9835D01*
X23299Y-9904D01*
X23507Y-9893D01*
X23647Y-9835D01*
X23672Y-9742D01*
X23672Y-10201D01*
X23660Y-10203D01*
X23479Y-10325D01*
X23375Y-10480D01*
X23270Y-10325D01*
X23089Y-10203D01*
X22875Y-10161D01*
X22660Y-10203D01*
X22479Y-10325D01*
X22375Y-10480D01*
X22270Y-10325D01*
X22089Y-10203D01*
X21875Y-10161D01*
X21660Y-10203D01*
X21479Y-10325D01*
X21375Y-10480D01*
X21270Y-10325D01*
X21089Y-10203D01*
X20875Y-10161D01*
X20660Y-10203D01*
X20479Y-10325D01*
X20375Y-10480D01*
X20270Y-10325D01*
X20089Y-10203D01*
X19875Y-10161D01*
X19660Y-10203D01*
X19479Y-10325D01*
X19375Y-10480D01*
X19270Y-10325D01*
X19089Y-10203D01*
X18875Y-10161D01*
X18660Y-10203D01*
X18479Y-10325D01*
X18375Y-10480D01*
X18270Y-10325D01*
X18089Y-10203D01*
X17990Y-10184D01*
X18087Y-10087D01*
X18087Y-10087D01*
X18152Y-9989D01*
X18174Y-9875D01*
X18175Y-9875D01*
X18175Y-9860D01*
X18270Y-9899D01*
X18478Y-9900D01*
X18672Y-9820D01*
X18819Y-9672D01*
X18875Y-9539D01*
X18929Y-9672D01*
X19077Y-9819D01*
X19270Y-9899D01*
X19478Y-9900D01*
X19672Y-9820D01*
X19819Y-9672D01*
X19875Y-9539D01*
X19929Y-9672D01*
X20077Y-9819D01*
X20270Y-9899D01*
X20478Y-9900D01*
X20672Y-9820D01*
X20819Y-9672D01*
X20875Y-9539D01*
X20929Y-9672D01*
X21077Y-9819D01*
X21270Y-9899D01*
X21478Y-9900D01*
X21672Y-9820D01*
X21819Y-9672D01*
X21875Y-9539D01*
X21929Y-9672D01*
X22077Y-9819D01*
X22270Y-9899D01*
X22478Y-9900D01*
X22672Y-9820D01*
X22819Y-9672D01*
X22872Y-9546D01*
X22914Y-9647D01*
X23007Y-9672D01*
X23304Y-9375D01*
X23007Y-9077D01*
X22914Y-9102D01*
X22875Y-9212D01*
X22820Y-9078D01*
X22672Y-8930D01*
X22660Y-8925D01*
X23099Y-8925D01*
X23077Y-9007D01*
X23375Y-9304D01*
X23672Y-9007D01*
X23650Y-8925D01*
X29750Y-8925D01*
X30412Y-9587D01*
X30412Y-9587D01*
X30412Y-9587D01*
X30825Y-9999D01*
X30825Y-11125D01*
X30847Y-11239D01*
X30912Y-11337D01*
X32349Y-12774D01*
X32349Y-13199D01*
X32387Y-13291D01*
X32458Y-13361D01*
X32550Y-13399D01*
X32649Y-13400D01*
X33199Y-13400D01*
X33291Y-13362D01*
X33361Y-13291D01*
X33399Y-13199D01*
X33400Y-13100D01*
X33400Y-12550D01*
X33362Y-12458D01*
X33291Y-12388D01*
X33199Y-12350D01*
X33100Y-12349D01*
X33100Y-12349D01*
X33172Y-12320D01*
X33319Y-12172D01*
X33399Y-11979D01*
X33400Y-11771D01*
X33320Y-11578D01*
X33175Y-11432D01*
X33175Y-10710D01*
X33275Y-10669D01*
X33466Y-10478D01*
X33570Y-10228D01*
X33570Y-9958D01*
X33467Y-9708D01*
X33276Y-9517D01*
X33026Y-9413D01*
X32756Y-9413D01*
X32506Y-9516D01*
X32398Y-9624D01*
X32292Y-9517D01*
X32042Y-9413D01*
X31772Y-9413D01*
X31522Y-9516D01*
X31352Y-9686D01*
X31337Y-9662D01*
X31337Y-9662D01*
X30837Y-9162D01*
X30837Y-9162D01*
X30837Y-9162D01*
X30099Y-8425D01*
X32250Y-8425D01*
X32912Y-9087D01*
X32912Y-9087D01*
X32912Y-9087D01*
X33575Y-9749D01*
X33575Y-11875D01*
X33597Y-11989D01*
X33662Y-12087D01*
X33912Y-12337D01*
X33912Y-12337D01*
X33912Y-12337D01*
X34349Y-12774D01*
X34349Y-13199D01*
X34387Y-13291D01*
X34458Y-13361D01*
X34550Y-13399D01*
X34649Y-13400D01*
X35199Y-13400D01*
X35291Y-13362D01*
X35361Y-13291D01*
X35399Y-13199D01*
X35400Y-13100D01*
X35400Y-12550D01*
X35362Y-12458D01*
X35291Y-12388D01*
X35199Y-12350D01*
X35100Y-12349D01*
X35100Y-12349D01*
X35172Y-12320D01*
X35319Y-12172D01*
X35399Y-11979D01*
X35400Y-11771D01*
X35320Y-11578D01*
X35175Y-11432D01*
X35175Y-10697D01*
X35243Y-10669D01*
X35351Y-10561D01*
X35457Y-10668D01*
X35707Y-10772D01*
X35977Y-10772D01*
X36227Y-10669D01*
X36418Y-10478D01*
X36522Y-10228D01*
X36522Y-9958D01*
X36419Y-9708D01*
X36228Y-9517D01*
X35978Y-9413D01*
X35708Y-9413D01*
X35458Y-9516D01*
X35350Y-9624D01*
X35244Y-9517D01*
X34994Y-9413D01*
X34724Y-9413D01*
X34558Y-9481D01*
X34558Y-8237D01*
X34549Y-7967D01*
X34463Y-7759D01*
X34354Y-7716D01*
X34283Y-7786D01*
X34283Y-7645D01*
X34240Y-7536D01*
X33987Y-7441D01*
X33717Y-7450D01*
X33509Y-7536D01*
X33466Y-7645D01*
X33875Y-8054D01*
X34283Y-7645D01*
X34283Y-7786D01*
X33945Y-8125D01*
X34354Y-8533D01*
X34463Y-8490D01*
X34558Y-8237D01*
X34558Y-9481D01*
X34474Y-9516D01*
X34283Y-9706D01*
X34283Y-8604D01*
X33875Y-8195D01*
X33804Y-8266D01*
X33804Y-8125D01*
X33395Y-7716D01*
X33286Y-7759D01*
X33191Y-8012D01*
X33200Y-8282D01*
X33286Y-8490D01*
X33395Y-8533D01*
X33804Y-8125D01*
X33804Y-8266D01*
X33466Y-8604D01*
X33509Y-8713D01*
X33762Y-8808D01*
X34032Y-8799D01*
X34240Y-8713D01*
X34283Y-8604D01*
X34283Y-9706D01*
X34283Y-9707D01*
X34179Y-9957D01*
X34179Y-10227D01*
X34282Y-10477D01*
X34473Y-10668D01*
X34575Y-10710D01*
X34575Y-11432D01*
X34430Y-11577D01*
X34350Y-11770D01*
X34349Y-11925D01*
X34337Y-11912D01*
X34337Y-11912D01*
X34337Y-11912D01*
X34175Y-11750D01*
X34175Y-9625D01*
X34174Y-9624D01*
X34152Y-9510D01*
X34087Y-9412D01*
X34087Y-9412D01*
X33337Y-8662D01*
X33337Y-8662D01*
X33337Y-8662D01*
X32587Y-7912D01*
X32489Y-7847D01*
X32375Y-7825D01*
X17375Y-7825D01*
X16675Y-7825D01*
X16675Y-7800D01*
X16637Y-7708D01*
X16566Y-7638D01*
X16514Y-7616D01*
X16462Y-7537D01*
X16462Y-7537D01*
X16087Y-7162D01*
X15989Y-7097D01*
X15875Y-7075D01*
X12625Y-7075D01*
X12510Y-7097D01*
X12412Y-7162D01*
X11662Y-7912D01*
X11597Y-8010D01*
X11575Y-8125D01*
X11575Y-8324D01*
X11550Y-8324D01*
X11458Y-8362D01*
X11388Y-8433D01*
X11350Y-8525D01*
X11349Y-8624D01*
X11349Y-8974D01*
X11387Y-9066D01*
X11446Y-9125D01*
X11388Y-9183D01*
X11350Y-9275D01*
X11349Y-9374D01*
X11349Y-9724D01*
X11387Y-9816D01*
X11458Y-9886D01*
X11550Y-9924D01*
X11649Y-9925D01*
X11875Y-9925D01*
X12075Y-10124D01*
X12075Y-10201D01*
X11875Y-10161D01*
X11660Y-10203D01*
X11479Y-10325D01*
X11375Y-10480D01*
X11270Y-10325D01*
X11089Y-10203D01*
X10875Y-10161D01*
X10660Y-10203D01*
X10479Y-10325D01*
X10357Y-10506D01*
X10315Y-10721D01*
X10315Y-11010D01*
X9912Y-11412D01*
X9847Y-11510D01*
X9825Y-11625D01*
X9825Y-18375D01*
X9847Y-18489D01*
X9912Y-18587D01*
X10525Y-19199D01*
X10524Y-19249D01*
X10524Y-19699D01*
X10562Y-19791D01*
X10575Y-19803D01*
X10575Y-19875D01*
X10597Y-19989D01*
X10662Y-20087D01*
X11162Y-20587D01*
X11162Y-20587D01*
X11260Y-20652D01*
X11375Y-20675D01*
X11400Y-20675D01*
X10662Y-21412D01*
X10597Y-21510D01*
X10594Y-21526D01*
X10594Y-21526D01*
X10563Y-21558D01*
X10525Y-21650D01*
X10524Y-21749D01*
X10524Y-22199D01*
X10562Y-22291D01*
X10633Y-22361D01*
X10725Y-22399D01*
X10824Y-22400D01*
X11024Y-22400D01*
X11075Y-22378D01*
X11097Y-22489D01*
X11162Y-22587D01*
X11412Y-22837D01*
X11412Y-22837D01*
X11510Y-22902D01*
X11625Y-22925D01*
X12125Y-22925D01*
X12125Y-22924D01*
X12239Y-22902D01*
X12239Y-22902D01*
X12337Y-22837D01*
X12454Y-22719D01*
X12514Y-22865D01*
X12633Y-22985D01*
X12790Y-23049D01*
X12959Y-23050D01*
X13115Y-22985D01*
X13235Y-22866D01*
X13299Y-22709D01*
X13300Y-22540D01*
X13241Y-22399D01*
X13324Y-22400D01*
X13524Y-22400D01*
X13616Y-22362D01*
X13625Y-22353D01*
X13633Y-22362D01*
X13725Y-22400D01*
X13762Y-22400D01*
X13825Y-22337D01*
X13825Y-21975D01*
X13817Y-21975D01*
X13817Y-21875D01*
X13825Y-21875D01*
X13825Y-21867D01*
X13925Y-21867D01*
X13925Y-21875D01*
X14162Y-21875D01*
X14225Y-21812D01*
X14225Y-21749D01*
X14224Y-21675D01*
X14323Y-21675D01*
X14383Y-21735D01*
X14506Y-21786D01*
X14225Y-22067D01*
X14225Y-22037D01*
X14162Y-21975D01*
X13925Y-21975D01*
X13925Y-22337D01*
X13987Y-22400D01*
X14024Y-22400D01*
X14075Y-22379D01*
X14075Y-22625D01*
X14075Y-23612D01*
X13984Y-23575D01*
X13766Y-23574D01*
X13563Y-23658D01*
X13409Y-23813D01*
X13375Y-23894D01*
X13341Y-23813D01*
X13186Y-23659D01*
X12984Y-23575D01*
X12766Y-23574D01*
X12563Y-23658D01*
X12409Y-23813D01*
X12375Y-23894D01*
X12341Y-23813D01*
X12186Y-23659D01*
X11984Y-23575D01*
X11766Y-23574D01*
X11563Y-23658D01*
X11409Y-23813D01*
X11377Y-23888D01*
X11356Y-23837D01*
X11260Y-23809D01*
X11190Y-23880D01*
X11190Y-23739D01*
X11162Y-23643D01*
X10956Y-23570D01*
X10738Y-23581D01*
X10587Y-23643D01*
X10559Y-23739D01*
X10875Y-24054D01*
X11190Y-23739D01*
X11190Y-23880D01*
X10945Y-24125D01*
X11260Y-24440D01*
X11356Y-24412D01*
X11375Y-24357D01*
X11408Y-24436D01*
X11563Y-24590D01*
X11644Y-24624D01*
X11563Y-24658D01*
X11409Y-24813D01*
X11377Y-24888D01*
X11356Y-24837D01*
X11260Y-24809D01*
X11190Y-24880D01*
X11190Y-24739D01*
X11162Y-24643D01*
X11114Y-24626D01*
X11162Y-24606D01*
X11190Y-24510D01*
X10875Y-24195D01*
X10804Y-24266D01*
X10804Y-24125D01*
X10489Y-23809D01*
X10393Y-23837D01*
X10320Y-24043D01*
X10331Y-24261D01*
X10393Y-24412D01*
X10489Y-24440D01*
X10804Y-24125D01*
X10804Y-24266D01*
X10559Y-24510D01*
X10587Y-24606D01*
X10635Y-24623D01*
X10587Y-24643D01*
X10559Y-24739D01*
X10875Y-25054D01*
X11190Y-24739D01*
X11190Y-24880D01*
X10945Y-25125D01*
X11260Y-25440D01*
X11356Y-25412D01*
X11375Y-25357D01*
X11408Y-25436D01*
X11563Y-25590D01*
X11765Y-25674D01*
X11983Y-25675D01*
X12186Y-25591D01*
X12340Y-25436D01*
X12374Y-25355D01*
X12408Y-25436D01*
X12563Y-25590D01*
X12765Y-25674D01*
X12983Y-25675D01*
X13186Y-25591D01*
X13340Y-25436D01*
X13374Y-25355D01*
X13408Y-25436D01*
X13563Y-25590D01*
X13765Y-25674D01*
X13983Y-25675D01*
X14186Y-25591D01*
X14340Y-25436D01*
X14374Y-25355D01*
X14408Y-25436D01*
X14563Y-25590D01*
X14765Y-25674D01*
X14983Y-25675D01*
X15186Y-25591D01*
X15340Y-25436D01*
X15374Y-25355D01*
X15408Y-25436D01*
X15563Y-25590D01*
X15765Y-25674D01*
X15983Y-25675D01*
X16186Y-25591D01*
X16340Y-25436D01*
X16374Y-25355D01*
X16408Y-25436D01*
X16563Y-25590D01*
X16765Y-25674D01*
X16983Y-25675D01*
X17186Y-25591D01*
X17340Y-25436D01*
X17374Y-25355D01*
X17408Y-25436D01*
X17563Y-25590D01*
X17765Y-25674D01*
X17983Y-25675D01*
X18186Y-25591D01*
X18340Y-25436D01*
X18374Y-25355D01*
X18408Y-25436D01*
X18563Y-25590D01*
X18765Y-25674D01*
X18983Y-25675D01*
X19186Y-25591D01*
X19340Y-25436D01*
X19374Y-25355D01*
X19408Y-25436D01*
X19563Y-25590D01*
X19765Y-25674D01*
X19983Y-25675D01*
X20186Y-25591D01*
X20340Y-25436D01*
X20374Y-25355D01*
X20408Y-25436D01*
X20563Y-25590D01*
X20765Y-25674D01*
X20983Y-25675D01*
X21186Y-25591D01*
X21340Y-25436D01*
X21374Y-25355D01*
X21408Y-25436D01*
X21563Y-25590D01*
X21765Y-25674D01*
X21983Y-25675D01*
X22186Y-25591D01*
X22340Y-25436D01*
X22374Y-25355D01*
X22408Y-25436D01*
X22563Y-25590D01*
X22765Y-25674D01*
X22983Y-25675D01*
X23186Y-25591D01*
X23340Y-25436D01*
X23374Y-25355D01*
X23408Y-25436D01*
X23563Y-25590D01*
X23765Y-25674D01*
X23983Y-25675D01*
X24186Y-25591D01*
X24340Y-25436D01*
X24374Y-25355D01*
X24408Y-25436D01*
X24563Y-25590D01*
X24765Y-25674D01*
X24983Y-25675D01*
X25186Y-25591D01*
X25340Y-25436D01*
X25374Y-25355D01*
X25408Y-25436D01*
X25563Y-25590D01*
X25765Y-25674D01*
X25983Y-25675D01*
X26186Y-25591D01*
X26340Y-25436D01*
X26374Y-25355D01*
X26408Y-25436D01*
X26563Y-25590D01*
X26765Y-25674D01*
X26983Y-25675D01*
X27186Y-25591D01*
X27340Y-25436D01*
X27374Y-25355D01*
X27408Y-25436D01*
X27563Y-25590D01*
X27765Y-25674D01*
X27983Y-25675D01*
X28186Y-25591D01*
X28340Y-25436D01*
X28374Y-25355D01*
X28408Y-25436D01*
X28563Y-25590D01*
X28765Y-25674D01*
X28983Y-25675D01*
X29186Y-25591D01*
X29340Y-25436D01*
X29374Y-25355D01*
X29408Y-25436D01*
X29563Y-25590D01*
X29765Y-25674D01*
X29983Y-25675D01*
X30186Y-25591D01*
X30340Y-25436D01*
X30374Y-25355D01*
X30408Y-25436D01*
X30563Y-25590D01*
X30765Y-25674D01*
X30983Y-25675D01*
X31186Y-25591D01*
X31340Y-25436D01*
X31374Y-25355D01*
X31408Y-25436D01*
X31563Y-25590D01*
X31765Y-25674D01*
X31983Y-25675D01*
X32186Y-25591D01*
X32340Y-25436D01*
X32374Y-25355D01*
X32408Y-25436D01*
X32563Y-25590D01*
X32765Y-25674D01*
X32983Y-25675D01*
X33186Y-25591D01*
X33340Y-25436D01*
X33372Y-25361D01*
X33393Y-25412D01*
X33489Y-25440D01*
X33804Y-25125D01*
X33798Y-25119D01*
X33869Y-25048D01*
X33875Y-25054D01*
X33880Y-25048D01*
X33951Y-25119D01*
X33945Y-25125D01*
X34260Y-25440D01*
X34356Y-25412D01*
X34375Y-25357D01*
X34408Y-25436D01*
X34563Y-25590D01*
X34765Y-25674D01*
X34983Y-25675D01*
X35186Y-25591D01*
X35340Y-25436D01*
X35424Y-25234D01*
X35425Y-25016D01*
X35386Y-24922D01*
X35489Y-24902D01*
X35489Y-24902D01*
X35587Y-24837D01*
X36337Y-24087D01*
X36337Y-24087D01*
X36402Y-23989D01*
X36424Y-23875D01*
X36425Y-23875D01*
X36425Y-22425D01*
X36449Y-22425D01*
X36541Y-22387D01*
X36611Y-22316D01*
X36649Y-22224D01*
X36650Y-22125D01*
X36650Y-21775D01*
X36612Y-21683D01*
X36553Y-21624D01*
X36611Y-21566D01*
X36649Y-21474D01*
X36650Y-21375D01*
X36650Y-21149D01*
X37411Y-20387D01*
X37375Y-20475D01*
X37374Y-20873D01*
X37526Y-21240D01*
X37807Y-21522D01*
X38175Y-21674D01*
X38573Y-21675D01*
X38940Y-21523D01*
X39222Y-21242D01*
X39374Y-20874D01*
X39375Y-20476D01*
X39223Y-20109D01*
X38942Y-19827D01*
X38574Y-19675D01*
X38176Y-19674D01*
X38087Y-19711D01*
X39337Y-18462D01*
X39337Y-18462D01*
X39402Y-18364D01*
X39424Y-18250D01*
X39425Y-18250D01*
X39425Y-23701D01*
X39126Y-23402D01*
X38639Y-23200D01*
X38112Y-23199D01*
X37625Y-23401D01*
X37252Y-23773D01*
X37050Y-24260D01*
X37049Y-24787D01*
X37251Y-25274D01*
X37623Y-25647D01*
X38110Y-25849D01*
X38637Y-25850D01*
X39124Y-25648D01*
X39497Y-25276D01*
X39699Y-24789D01*
X39700Y-24262D01*
X39700Y-25855D01*
X34190Y-25855D01*
X34190Y-25510D01*
X33875Y-25195D01*
X33559Y-25510D01*
X33587Y-25606D01*
X33793Y-25679D01*
X34011Y-25668D01*
X34162Y-25606D01*
X34190Y-25510D01*
X34190Y-25855D01*
X11190Y-25855D01*
X11190Y-25510D01*
X10875Y-25195D01*
X10804Y-25266D01*
X10804Y-25125D01*
X10489Y-24809D01*
X10393Y-24837D01*
X10320Y-25043D01*
X10331Y-25261D01*
X10393Y-25412D01*
X10489Y-25440D01*
X10804Y-25125D01*
X10804Y-25266D01*
X10559Y-25510D01*
X10587Y-25606D01*
X10793Y-25679D01*
X11011Y-25668D01*
X11162Y-25606D01*
X11190Y-25510D01*
X11190Y-25855D01*
X9644Y-25855D01*
X9644Y-6894D01*
X40605Y-6894D01*
X40605Y-25855D01*
M02*
