G04 #@! TF.GenerationSoftware,KiCad,Pcbnew,5.0.2+dfsg1-1*
G04 #@! TF.CreationDate,2021-03-03T18:09:01+01:00*
G04 #@! TF.ProjectId,nova,6e6f7661-2e6b-4696-9361-645f70636258,2020*
G04 #@! TF.SameCoordinates,Original*
G04 #@! TF.FileFunction,Legend,Bot*
G04 #@! TF.FilePolarity,Positive*
%FSLAX46Y46*%
G04 Gerber Fmt 4.6, Leading zero omitted, Abs format (unit mm)*
G04 Created by KiCad (PCBNEW 5.0.2+dfsg1-1) date mer. 03 mars 2021 18:09:01 CET*
%MOMM*%
%LPD*%
G01*
G04 APERTURE LIST*
%ADD10C,0.381000*%
%ADD11C,0.304800*%
%ADD12C,3.000000*%
%ADD13C,0.120000*%
%ADD14C,0.150000*%
G04 APERTURE END LIST*
D10*
X112014000Y-68262500D02*
G75*
G02X110172500Y-70104000I-1841500J0D01*
G01*
X48895000Y-70104000D02*
G75*
G02X46990000Y-68199000I0J1905000D01*
G01*
X109156500Y-38163500D02*
G75*
G02X112014000Y-41021000I0J-2857500D01*
G01*
X46990000Y-44323000D02*
G75*
G02X53149500Y-38163500I6159500J0D01*
G01*
D11*
X106771857Y-62450738D02*
X106771857Y-60418738D01*
X105248047Y-60418738D01*
X104867095Y-60515500D01*
X104676619Y-60612261D01*
X104486142Y-60805785D01*
X104486142Y-61096071D01*
X104676619Y-61289595D01*
X104867095Y-61386357D01*
X105248047Y-61483119D01*
X106771857Y-61483119D01*
X101057571Y-61096071D02*
X101057571Y-62450738D01*
X102771857Y-61096071D02*
X102771857Y-62160452D01*
X102581380Y-62353976D01*
X102200428Y-62450738D01*
X101629000Y-62450738D01*
X101248047Y-62353976D01*
X101057571Y-62257214D01*
X98581380Y-62450738D02*
X98962333Y-62353976D01*
X99152809Y-62160452D01*
X99152809Y-60418738D01*
X97057571Y-62450738D02*
X97057571Y-60418738D01*
X96676619Y-61676642D02*
X95533761Y-62450738D01*
X95533761Y-61096071D02*
X97057571Y-61870166D01*
X93248047Y-62450738D02*
X93629000Y-62353976D01*
X93819476Y-62257214D01*
X94009952Y-62063690D01*
X94009952Y-61483119D01*
X93819476Y-61289595D01*
X93629000Y-61192833D01*
X93248047Y-61096071D01*
X92676619Y-61096071D01*
X92295666Y-61192833D01*
X92105190Y-61289595D01*
X91914714Y-61483119D01*
X91914714Y-62063690D01*
X92105190Y-62257214D01*
X92295666Y-62353976D01*
X92676619Y-62450738D01*
X93248047Y-62450738D01*
X90771857Y-60418738D02*
X88486142Y-60418738D01*
X89629000Y-62450738D02*
X89629000Y-60418738D01*
X87152809Y-62450738D02*
X87152809Y-61096071D01*
X87152809Y-61483119D02*
X86962333Y-61289595D01*
X86771857Y-61192833D01*
X86390904Y-61096071D01*
X86009952Y-61096071D01*
X84105190Y-62450738D02*
X84486142Y-62353976D01*
X84676619Y-62257214D01*
X84867095Y-62063690D01*
X84867095Y-61483119D01*
X84676619Y-61289595D01*
X84486142Y-61192833D01*
X84105190Y-61096071D01*
X83533761Y-61096071D01*
X83152809Y-61192833D01*
X82962333Y-61289595D01*
X82771857Y-61483119D01*
X82771857Y-62063690D01*
X82962333Y-62257214D01*
X83152809Y-62353976D01*
X83533761Y-62450738D01*
X84105190Y-62450738D01*
X81057571Y-61096071D02*
X81057571Y-62450738D01*
X81057571Y-61289595D02*
X80867095Y-61192833D01*
X80486142Y-61096071D01*
X79914714Y-61096071D01*
X79533761Y-61192833D01*
X79343285Y-61386357D01*
X79343285Y-62450738D01*
X77438523Y-62450738D02*
X77438523Y-61096071D01*
X77438523Y-60418738D02*
X77629000Y-60515500D01*
X77438523Y-60612261D01*
X77248047Y-60515500D01*
X77438523Y-60418738D01*
X77438523Y-60612261D01*
X73819476Y-62353976D02*
X74200428Y-62450738D01*
X74962333Y-62450738D01*
X75343285Y-62353976D01*
X75533761Y-62257214D01*
X75724238Y-62063690D01*
X75724238Y-61483119D01*
X75533761Y-61289595D01*
X75343285Y-61192833D01*
X74962333Y-61096071D01*
X74200428Y-61096071D01*
X73819476Y-61192833D01*
X72295666Y-62353976D02*
X71914714Y-62450738D01*
X71152809Y-62450738D01*
X70771857Y-62353976D01*
X70581380Y-62160452D01*
X70581380Y-62063690D01*
X70771857Y-61870166D01*
X71152809Y-61773404D01*
X71724238Y-61773404D01*
X72105190Y-61676642D01*
X72295666Y-61483119D01*
X72295666Y-61386357D01*
X72105190Y-61192833D01*
X71724238Y-61096071D01*
X71152809Y-61096071D01*
X70771857Y-61192833D01*
X66009952Y-60612261D02*
X65819476Y-60515500D01*
X65438523Y-60418738D01*
X64486142Y-60418738D01*
X64105190Y-60515500D01*
X63914714Y-60612261D01*
X63724238Y-60805785D01*
X63724238Y-60999309D01*
X63914714Y-61289595D01*
X66200428Y-62450738D01*
X63724238Y-62450738D01*
X61248047Y-60418738D02*
X60867095Y-60418738D01*
X60486142Y-60515500D01*
X60295666Y-60612261D01*
X60105190Y-60805785D01*
X59914714Y-61192833D01*
X59914714Y-61676642D01*
X60105190Y-62063690D01*
X60295666Y-62257214D01*
X60486142Y-62353976D01*
X60867095Y-62450738D01*
X61248047Y-62450738D01*
X61629000Y-62353976D01*
X61819476Y-62257214D01*
X62009952Y-62063690D01*
X62200428Y-61676642D01*
X62200428Y-61192833D01*
X62009952Y-60805785D01*
X61819476Y-60612261D01*
X61629000Y-60515500D01*
X61248047Y-60418738D01*
X58390904Y-60612261D02*
X58200428Y-60515500D01*
X57819476Y-60418738D01*
X56867095Y-60418738D01*
X56486142Y-60515500D01*
X56295666Y-60612261D01*
X56105190Y-60805785D01*
X56105190Y-60999309D01*
X56295666Y-61289595D01*
X58581380Y-62450738D01*
X56105190Y-62450738D01*
X52295666Y-62450738D02*
X54581380Y-62450738D01*
X53438523Y-62450738D02*
X53438523Y-60418738D01*
X53819476Y-60709023D01*
X54200428Y-60902547D01*
X54581380Y-60999309D01*
D12*
X102311428Y-52228071D02*
X102311428Y-40228071D01*
X93740000Y-52228071D01*
X93740000Y-40228071D01*
X84454285Y-52228071D02*
X85882857Y-51656642D01*
X86597142Y-51085214D01*
X87311428Y-49942357D01*
X87311428Y-46513785D01*
X86597142Y-45370928D01*
X85882857Y-44799500D01*
X84454285Y-44228071D01*
X82311428Y-44228071D01*
X80882857Y-44799500D01*
X80168571Y-45370928D01*
X79454285Y-46513785D01*
X79454285Y-49942357D01*
X80168571Y-51085214D01*
X80882857Y-51656642D01*
X82311428Y-52228071D01*
X84454285Y-52228071D01*
X74454285Y-44228071D02*
X70882857Y-52228071D01*
X67311428Y-44228071D01*
X55168571Y-52228071D02*
X55168571Y-45942357D01*
X55882857Y-44799500D01*
X57311428Y-44228071D01*
X60168571Y-44228071D01*
X61597142Y-44799500D01*
X55168571Y-51656642D02*
X56597142Y-52228071D01*
X60168571Y-52228071D01*
X61597142Y-51656642D01*
X62311428Y-50513785D01*
X62311428Y-49370928D01*
X61597142Y-48228071D01*
X60168571Y-47656642D01*
X56597142Y-47656642D01*
X55168571Y-47085214D01*
D10*
X110172500Y-70104000D02*
X48895000Y-70104000D01*
X112014000Y-41021000D02*
X112014000Y-68262500D01*
X53149500Y-38163500D02*
X109156500Y-38163500D01*
X46990000Y-68199000D02*
X46990000Y-44323000D01*
D13*
G04 #@! TO.C,C4*
X88551936Y-59647500D02*
X89756064Y-59647500D01*
X88551936Y-57827500D02*
X89756064Y-57827500D01*
G04 #@! TD*
G04 #@! TO.C,C4*
D14*
X92813166Y-59221642D02*
X92860785Y-59269261D01*
X93003642Y-59316880D01*
X93098880Y-59316880D01*
X93241738Y-59269261D01*
X93336976Y-59174023D01*
X93384595Y-59078785D01*
X93432214Y-58888309D01*
X93432214Y-58745452D01*
X93384595Y-58554976D01*
X93336976Y-58459738D01*
X93241738Y-58364500D01*
X93098880Y-58316880D01*
X93003642Y-58316880D01*
X92860785Y-58364500D01*
X92813166Y-58412119D01*
X91956023Y-58650214D02*
X91956023Y-59316880D01*
X92194119Y-58269261D02*
X92432214Y-58983547D01*
X91813166Y-58983547D01*
G04 #@! TD*
M02*
