G04 #@! TF.GenerationSoftware,KiCad,Pcbnew,5.0.2+dfsg1-1*
G04 #@! TF.CreationDate,2021-03-03T18:09:01+01:00*
G04 #@! TF.ProjectId,nova,6e6f7661-2e6b-4696-9361-645f70636258,2020*
G04 #@! TF.SameCoordinates,Original*
G04 #@! TF.FileFunction,Soldermask,Top*
G04 #@! TF.FilePolarity,Negative*
%FSLAX46Y46*%
G04 Gerber Fmt 4.6, Leading zero omitted, Abs format (unit mm)*
G04 Created by KiCad (PCBNEW 5.0.2+dfsg1-1) date mer. 03 mars 2021 18:09:01 CET*
%MOMM*%
%LPD*%
G01*
G04 APERTURE LIST*
%ADD10C,0.381000*%
%ADD11C,0.150000*%
G04 APERTURE END LIST*
D10*
X112014000Y-68262500D02*
G75*
G02X110172500Y-70104000I-1841500J0D01*
G01*
X48895000Y-70104000D02*
G75*
G02X46990000Y-68199000I0J1905000D01*
G01*
X109156500Y-38163500D02*
G75*
G02X112014000Y-41021000I0J-2857500D01*
G01*
X46990000Y-44323000D02*
G75*
G02X53149500Y-38163500I6159500J0D01*
G01*
X110172500Y-70104000D02*
X48895000Y-70104000D01*
X112014000Y-41021000D02*
X112014000Y-68262500D01*
X53149500Y-38163500D02*
X109156500Y-38163500D01*
X46990000Y-68199000D02*
X46990000Y-44323000D01*
D11*
G36*
X50253000Y-68033000D02*
X48045000Y-68033000D01*
X48045000Y-65825000D01*
X50253000Y-65825000D01*
X50253000Y-68033000D01*
X50253000Y-68033000D01*
G37*
G36*
X97625423Y-65840974D02*
X97833526Y-65904102D01*
X98025313Y-66006614D01*
X98193423Y-66144577D01*
X98331386Y-66312687D01*
X98433898Y-66504474D01*
X98497026Y-66712577D01*
X98518341Y-66929000D01*
X98497026Y-67145423D01*
X98433898Y-67353526D01*
X98331386Y-67545313D01*
X98193423Y-67713423D01*
X98025313Y-67851386D01*
X97833526Y-67953898D01*
X97625423Y-68017026D01*
X97463231Y-68033000D01*
X97354769Y-68033000D01*
X97192577Y-68017026D01*
X96984474Y-67953898D01*
X96792687Y-67851386D01*
X96624577Y-67713423D01*
X96486614Y-67545313D01*
X96384102Y-67353526D01*
X96320974Y-67145423D01*
X96299659Y-66929000D01*
X96320974Y-66712577D01*
X96384102Y-66504474D01*
X96486614Y-66312687D01*
X96624577Y-66144577D01*
X96792687Y-66006614D01*
X96984474Y-65904102D01*
X97192577Y-65840974D01*
X97354769Y-65825000D01*
X97463231Y-65825000D01*
X97625423Y-65840974D01*
X97625423Y-65840974D01*
G37*
G36*
X67145423Y-65840974D02*
X67353526Y-65904102D01*
X67545313Y-66006614D01*
X67713423Y-66144577D01*
X67851386Y-66312687D01*
X67953898Y-66504474D01*
X68017026Y-66712577D01*
X68038341Y-66929000D01*
X68017026Y-67145423D01*
X67953898Y-67353526D01*
X67851386Y-67545313D01*
X67713423Y-67713423D01*
X67545313Y-67851386D01*
X67353526Y-67953898D01*
X67145423Y-68017026D01*
X66983231Y-68033000D01*
X66874769Y-68033000D01*
X66712577Y-68017026D01*
X66504474Y-67953898D01*
X66312687Y-67851386D01*
X66144577Y-67713423D01*
X66006614Y-67545313D01*
X65904102Y-67353526D01*
X65840974Y-67145423D01*
X65819659Y-66929000D01*
X65840974Y-66712577D01*
X65904102Y-66504474D01*
X66006614Y-66312687D01*
X66144577Y-66144577D01*
X66312687Y-66006614D01*
X66504474Y-65904102D01*
X66712577Y-65840974D01*
X66874769Y-65825000D01*
X66983231Y-65825000D01*
X67145423Y-65840974D01*
X67145423Y-65840974D01*
G37*
G36*
X69685423Y-65840974D02*
X69893526Y-65904102D01*
X70085313Y-66006614D01*
X70253423Y-66144577D01*
X70391386Y-66312687D01*
X70493898Y-66504474D01*
X70557026Y-66712577D01*
X70578341Y-66929000D01*
X70557026Y-67145423D01*
X70493898Y-67353526D01*
X70391386Y-67545313D01*
X70253423Y-67713423D01*
X70085313Y-67851386D01*
X69893526Y-67953898D01*
X69685423Y-68017026D01*
X69523231Y-68033000D01*
X69414769Y-68033000D01*
X69252577Y-68017026D01*
X69044474Y-67953898D01*
X68852687Y-67851386D01*
X68684577Y-67713423D01*
X68546614Y-67545313D01*
X68444102Y-67353526D01*
X68380974Y-67145423D01*
X68359659Y-66929000D01*
X68380974Y-66712577D01*
X68444102Y-66504474D01*
X68546614Y-66312687D01*
X68684577Y-66144577D01*
X68852687Y-66006614D01*
X69044474Y-65904102D01*
X69252577Y-65840974D01*
X69414769Y-65825000D01*
X69523231Y-65825000D01*
X69685423Y-65840974D01*
X69685423Y-65840974D01*
G37*
G36*
X72225423Y-65840974D02*
X72433526Y-65904102D01*
X72625313Y-66006614D01*
X72793423Y-66144577D01*
X72931386Y-66312687D01*
X73033898Y-66504474D01*
X73097026Y-66712577D01*
X73118341Y-66929000D01*
X73097026Y-67145423D01*
X73033898Y-67353526D01*
X72931386Y-67545313D01*
X72793423Y-67713423D01*
X72625313Y-67851386D01*
X72433526Y-67953898D01*
X72225423Y-68017026D01*
X72063231Y-68033000D01*
X71954769Y-68033000D01*
X71792577Y-68017026D01*
X71584474Y-67953898D01*
X71392687Y-67851386D01*
X71224577Y-67713423D01*
X71086614Y-67545313D01*
X70984102Y-67353526D01*
X70920974Y-67145423D01*
X70899659Y-66929000D01*
X70920974Y-66712577D01*
X70984102Y-66504474D01*
X71086614Y-66312687D01*
X71224577Y-66144577D01*
X71392687Y-66006614D01*
X71584474Y-65904102D01*
X71792577Y-65840974D01*
X71954769Y-65825000D01*
X72063231Y-65825000D01*
X72225423Y-65840974D01*
X72225423Y-65840974D01*
G37*
G36*
X74765423Y-65840974D02*
X74973526Y-65904102D01*
X75165313Y-66006614D01*
X75333423Y-66144577D01*
X75471386Y-66312687D01*
X75573898Y-66504474D01*
X75637026Y-66712577D01*
X75658341Y-66929000D01*
X75637026Y-67145423D01*
X75573898Y-67353526D01*
X75471386Y-67545313D01*
X75333423Y-67713423D01*
X75165313Y-67851386D01*
X74973526Y-67953898D01*
X74765423Y-68017026D01*
X74603231Y-68033000D01*
X74494769Y-68033000D01*
X74332577Y-68017026D01*
X74124474Y-67953898D01*
X73932687Y-67851386D01*
X73764577Y-67713423D01*
X73626614Y-67545313D01*
X73524102Y-67353526D01*
X73460974Y-67145423D01*
X73439659Y-66929000D01*
X73460974Y-66712577D01*
X73524102Y-66504474D01*
X73626614Y-66312687D01*
X73764577Y-66144577D01*
X73932687Y-66006614D01*
X74124474Y-65904102D01*
X74332577Y-65840974D01*
X74494769Y-65825000D01*
X74603231Y-65825000D01*
X74765423Y-65840974D01*
X74765423Y-65840974D01*
G37*
G36*
X77305423Y-65840974D02*
X77513526Y-65904102D01*
X77705313Y-66006614D01*
X77873423Y-66144577D01*
X78011386Y-66312687D01*
X78113898Y-66504474D01*
X78177026Y-66712577D01*
X78198341Y-66929000D01*
X78177026Y-67145423D01*
X78113898Y-67353526D01*
X78011386Y-67545313D01*
X77873423Y-67713423D01*
X77705313Y-67851386D01*
X77513526Y-67953898D01*
X77305423Y-68017026D01*
X77143231Y-68033000D01*
X77034769Y-68033000D01*
X76872577Y-68017026D01*
X76664474Y-67953898D01*
X76472687Y-67851386D01*
X76304577Y-67713423D01*
X76166614Y-67545313D01*
X76064102Y-67353526D01*
X76000974Y-67145423D01*
X75979659Y-66929000D01*
X76000974Y-66712577D01*
X76064102Y-66504474D01*
X76166614Y-66312687D01*
X76304577Y-66144577D01*
X76472687Y-66006614D01*
X76664474Y-65904102D01*
X76872577Y-65840974D01*
X77034769Y-65825000D01*
X77143231Y-65825000D01*
X77305423Y-65840974D01*
X77305423Y-65840974D01*
G37*
G36*
X79845423Y-65840974D02*
X80053526Y-65904102D01*
X80245313Y-66006614D01*
X80413423Y-66144577D01*
X80551386Y-66312687D01*
X80653898Y-66504474D01*
X80717026Y-66712577D01*
X80738341Y-66929000D01*
X80717026Y-67145423D01*
X80653898Y-67353526D01*
X80551386Y-67545313D01*
X80413423Y-67713423D01*
X80245313Y-67851386D01*
X80053526Y-67953898D01*
X79845423Y-68017026D01*
X79683231Y-68033000D01*
X79574769Y-68033000D01*
X79412577Y-68017026D01*
X79204474Y-67953898D01*
X79012687Y-67851386D01*
X78844577Y-67713423D01*
X78706614Y-67545313D01*
X78604102Y-67353526D01*
X78540974Y-67145423D01*
X78519659Y-66929000D01*
X78540974Y-66712577D01*
X78604102Y-66504474D01*
X78706614Y-66312687D01*
X78844577Y-66144577D01*
X79012687Y-66006614D01*
X79204474Y-65904102D01*
X79412577Y-65840974D01*
X79574769Y-65825000D01*
X79683231Y-65825000D01*
X79845423Y-65840974D01*
X79845423Y-65840974D01*
G37*
G36*
X82385423Y-65840974D02*
X82593526Y-65904102D01*
X82785313Y-66006614D01*
X82953423Y-66144577D01*
X83091386Y-66312687D01*
X83193898Y-66504474D01*
X83257026Y-66712577D01*
X83278341Y-66929000D01*
X83257026Y-67145423D01*
X83193898Y-67353526D01*
X83091386Y-67545313D01*
X82953423Y-67713423D01*
X82785313Y-67851386D01*
X82593526Y-67953898D01*
X82385423Y-68017026D01*
X82223231Y-68033000D01*
X82114769Y-68033000D01*
X81952577Y-68017026D01*
X81744474Y-67953898D01*
X81552687Y-67851386D01*
X81384577Y-67713423D01*
X81246614Y-67545313D01*
X81144102Y-67353526D01*
X81080974Y-67145423D01*
X81059659Y-66929000D01*
X81080974Y-66712577D01*
X81144102Y-66504474D01*
X81246614Y-66312687D01*
X81384577Y-66144577D01*
X81552687Y-66006614D01*
X81744474Y-65904102D01*
X81952577Y-65840974D01*
X82114769Y-65825000D01*
X82223231Y-65825000D01*
X82385423Y-65840974D01*
X82385423Y-65840974D01*
G37*
G36*
X84925423Y-65840974D02*
X85133526Y-65904102D01*
X85325313Y-66006614D01*
X85493423Y-66144577D01*
X85631386Y-66312687D01*
X85733898Y-66504474D01*
X85797026Y-66712577D01*
X85818341Y-66929000D01*
X85797026Y-67145423D01*
X85733898Y-67353526D01*
X85631386Y-67545313D01*
X85493423Y-67713423D01*
X85325313Y-67851386D01*
X85133526Y-67953898D01*
X84925423Y-68017026D01*
X84763231Y-68033000D01*
X84654769Y-68033000D01*
X84492577Y-68017026D01*
X84284474Y-67953898D01*
X84092687Y-67851386D01*
X83924577Y-67713423D01*
X83786614Y-67545313D01*
X83684102Y-67353526D01*
X83620974Y-67145423D01*
X83599659Y-66929000D01*
X83620974Y-66712577D01*
X83684102Y-66504474D01*
X83786614Y-66312687D01*
X83924577Y-66144577D01*
X84092687Y-66006614D01*
X84284474Y-65904102D01*
X84492577Y-65840974D01*
X84654769Y-65825000D01*
X84763231Y-65825000D01*
X84925423Y-65840974D01*
X84925423Y-65840974D01*
G37*
G36*
X87465423Y-65840974D02*
X87673526Y-65904102D01*
X87865313Y-66006614D01*
X88033423Y-66144577D01*
X88171386Y-66312687D01*
X88273898Y-66504474D01*
X88337026Y-66712577D01*
X88358341Y-66929000D01*
X88337026Y-67145423D01*
X88273898Y-67353526D01*
X88171386Y-67545313D01*
X88033423Y-67713423D01*
X87865313Y-67851386D01*
X87673526Y-67953898D01*
X87465423Y-68017026D01*
X87303231Y-68033000D01*
X87194769Y-68033000D01*
X87032577Y-68017026D01*
X86824474Y-67953898D01*
X86632687Y-67851386D01*
X86464577Y-67713423D01*
X86326614Y-67545313D01*
X86224102Y-67353526D01*
X86160974Y-67145423D01*
X86139659Y-66929000D01*
X86160974Y-66712577D01*
X86224102Y-66504474D01*
X86326614Y-66312687D01*
X86464577Y-66144577D01*
X86632687Y-66006614D01*
X86824474Y-65904102D01*
X87032577Y-65840974D01*
X87194769Y-65825000D01*
X87303231Y-65825000D01*
X87465423Y-65840974D01*
X87465423Y-65840974D01*
G37*
G36*
X90005423Y-65840974D02*
X90213526Y-65904102D01*
X90405313Y-66006614D01*
X90573423Y-66144577D01*
X90711386Y-66312687D01*
X90813898Y-66504474D01*
X90877026Y-66712577D01*
X90898341Y-66929000D01*
X90877026Y-67145423D01*
X90813898Y-67353526D01*
X90711386Y-67545313D01*
X90573423Y-67713423D01*
X90405313Y-67851386D01*
X90213526Y-67953898D01*
X90005423Y-68017026D01*
X89843231Y-68033000D01*
X89734769Y-68033000D01*
X89572577Y-68017026D01*
X89364474Y-67953898D01*
X89172687Y-67851386D01*
X89004577Y-67713423D01*
X88866614Y-67545313D01*
X88764102Y-67353526D01*
X88700974Y-67145423D01*
X88679659Y-66929000D01*
X88700974Y-66712577D01*
X88764102Y-66504474D01*
X88866614Y-66312687D01*
X89004577Y-66144577D01*
X89172687Y-66006614D01*
X89364474Y-65904102D01*
X89572577Y-65840974D01*
X89734769Y-65825000D01*
X89843231Y-65825000D01*
X90005423Y-65840974D01*
X90005423Y-65840974D01*
G37*
G36*
X92545423Y-65840974D02*
X92753526Y-65904102D01*
X92945313Y-66006614D01*
X93113423Y-66144577D01*
X93251386Y-66312687D01*
X93353898Y-66504474D01*
X93417026Y-66712577D01*
X93438341Y-66929000D01*
X93417026Y-67145423D01*
X93353898Y-67353526D01*
X93251386Y-67545313D01*
X93113423Y-67713423D01*
X92945313Y-67851386D01*
X92753526Y-67953898D01*
X92545423Y-68017026D01*
X92383231Y-68033000D01*
X92274769Y-68033000D01*
X92112577Y-68017026D01*
X91904474Y-67953898D01*
X91712687Y-67851386D01*
X91544577Y-67713423D01*
X91406614Y-67545313D01*
X91304102Y-67353526D01*
X91240974Y-67145423D01*
X91219659Y-66929000D01*
X91240974Y-66712577D01*
X91304102Y-66504474D01*
X91406614Y-66312687D01*
X91544577Y-66144577D01*
X91712687Y-66006614D01*
X91904474Y-65904102D01*
X92112577Y-65840974D01*
X92274769Y-65825000D01*
X92383231Y-65825000D01*
X92545423Y-65840974D01*
X92545423Y-65840974D01*
G37*
G36*
X100165423Y-65840974D02*
X100373526Y-65904102D01*
X100565313Y-66006614D01*
X100733423Y-66144577D01*
X100871386Y-66312687D01*
X100973898Y-66504474D01*
X101037026Y-66712577D01*
X101058341Y-66929000D01*
X101037026Y-67145423D01*
X100973898Y-67353526D01*
X100871386Y-67545313D01*
X100733423Y-67713423D01*
X100565313Y-67851386D01*
X100373526Y-67953898D01*
X100165423Y-68017026D01*
X100003231Y-68033000D01*
X99894769Y-68033000D01*
X99732577Y-68017026D01*
X99524474Y-67953898D01*
X99332687Y-67851386D01*
X99164577Y-67713423D01*
X99026614Y-67545313D01*
X98924102Y-67353526D01*
X98860974Y-67145423D01*
X98839659Y-66929000D01*
X98860974Y-66712577D01*
X98924102Y-66504474D01*
X99026614Y-66312687D01*
X99164577Y-66144577D01*
X99332687Y-66006614D01*
X99524474Y-65904102D01*
X99732577Y-65840974D01*
X99894769Y-65825000D01*
X100003231Y-65825000D01*
X100165423Y-65840974D01*
X100165423Y-65840974D01*
G37*
G36*
X95085423Y-65840974D02*
X95293526Y-65904102D01*
X95485313Y-66006614D01*
X95653423Y-66144577D01*
X95791386Y-66312687D01*
X95893898Y-66504474D01*
X95957026Y-66712577D01*
X95978341Y-66929000D01*
X95957026Y-67145423D01*
X95893898Y-67353526D01*
X95791386Y-67545313D01*
X95653423Y-67713423D01*
X95485313Y-67851386D01*
X95293526Y-67953898D01*
X95085423Y-68017026D01*
X94923231Y-68033000D01*
X94814769Y-68033000D01*
X94652577Y-68017026D01*
X94444474Y-67953898D01*
X94252687Y-67851386D01*
X94084577Y-67713423D01*
X93946614Y-67545313D01*
X93844102Y-67353526D01*
X93780974Y-67145423D01*
X93759659Y-66929000D01*
X93780974Y-66712577D01*
X93844102Y-66504474D01*
X93946614Y-66312687D01*
X94084577Y-66144577D01*
X94252687Y-66006614D01*
X94444474Y-65904102D01*
X94652577Y-65840974D01*
X94814769Y-65825000D01*
X94923231Y-65825000D01*
X95085423Y-65840974D01*
X95085423Y-65840974D01*
G37*
G36*
X51905423Y-65840974D02*
X52113526Y-65904102D01*
X52305313Y-66006614D01*
X52473423Y-66144577D01*
X52611386Y-66312687D01*
X52713898Y-66504474D01*
X52777026Y-66712577D01*
X52798341Y-66929000D01*
X52777026Y-67145423D01*
X52713898Y-67353526D01*
X52611386Y-67545313D01*
X52473423Y-67713423D01*
X52305313Y-67851386D01*
X52113526Y-67953898D01*
X51905423Y-68017026D01*
X51743231Y-68033000D01*
X51634769Y-68033000D01*
X51472577Y-68017026D01*
X51264474Y-67953898D01*
X51072687Y-67851386D01*
X50904577Y-67713423D01*
X50766614Y-67545313D01*
X50664102Y-67353526D01*
X50600974Y-67145423D01*
X50579659Y-66929000D01*
X50600974Y-66712577D01*
X50664102Y-66504474D01*
X50766614Y-66312687D01*
X50904577Y-66144577D01*
X51072687Y-66006614D01*
X51264474Y-65904102D01*
X51472577Y-65840974D01*
X51634769Y-65825000D01*
X51743231Y-65825000D01*
X51905423Y-65840974D01*
X51905423Y-65840974D01*
G37*
G36*
X54445423Y-65840974D02*
X54653526Y-65904102D01*
X54845313Y-66006614D01*
X55013423Y-66144577D01*
X55151386Y-66312687D01*
X55253898Y-66504474D01*
X55317026Y-66712577D01*
X55338341Y-66929000D01*
X55317026Y-67145423D01*
X55253898Y-67353526D01*
X55151386Y-67545313D01*
X55013423Y-67713423D01*
X54845313Y-67851386D01*
X54653526Y-67953898D01*
X54445423Y-68017026D01*
X54283231Y-68033000D01*
X54174769Y-68033000D01*
X54012577Y-68017026D01*
X53804474Y-67953898D01*
X53612687Y-67851386D01*
X53444577Y-67713423D01*
X53306614Y-67545313D01*
X53204102Y-67353526D01*
X53140974Y-67145423D01*
X53119659Y-66929000D01*
X53140974Y-66712577D01*
X53204102Y-66504474D01*
X53306614Y-66312687D01*
X53444577Y-66144577D01*
X53612687Y-66006614D01*
X53804474Y-65904102D01*
X54012577Y-65840974D01*
X54174769Y-65825000D01*
X54283231Y-65825000D01*
X54445423Y-65840974D01*
X54445423Y-65840974D01*
G37*
G36*
X110325423Y-65840974D02*
X110533526Y-65904102D01*
X110725313Y-66006614D01*
X110893423Y-66144577D01*
X111031386Y-66312687D01*
X111133898Y-66504474D01*
X111197026Y-66712577D01*
X111218341Y-66929000D01*
X111197026Y-67145423D01*
X111133898Y-67353526D01*
X111031386Y-67545313D01*
X110893423Y-67713423D01*
X110725313Y-67851386D01*
X110533526Y-67953898D01*
X110325423Y-68017026D01*
X110163231Y-68033000D01*
X110054769Y-68033000D01*
X109892577Y-68017026D01*
X109684474Y-67953898D01*
X109492687Y-67851386D01*
X109324577Y-67713423D01*
X109186614Y-67545313D01*
X109084102Y-67353526D01*
X109020974Y-67145423D01*
X108999659Y-66929000D01*
X109020974Y-66712577D01*
X109084102Y-66504474D01*
X109186614Y-66312687D01*
X109324577Y-66144577D01*
X109492687Y-66006614D01*
X109684474Y-65904102D01*
X109892577Y-65840974D01*
X110054769Y-65825000D01*
X110163231Y-65825000D01*
X110325423Y-65840974D01*
X110325423Y-65840974D01*
G37*
G36*
X56985423Y-65840974D02*
X57193526Y-65904102D01*
X57385313Y-66006614D01*
X57553423Y-66144577D01*
X57691386Y-66312687D01*
X57793898Y-66504474D01*
X57857026Y-66712577D01*
X57878341Y-66929000D01*
X57857026Y-67145423D01*
X57793898Y-67353526D01*
X57691386Y-67545313D01*
X57553423Y-67713423D01*
X57385313Y-67851386D01*
X57193526Y-67953898D01*
X56985423Y-68017026D01*
X56823231Y-68033000D01*
X56714769Y-68033000D01*
X56552577Y-68017026D01*
X56344474Y-67953898D01*
X56152687Y-67851386D01*
X55984577Y-67713423D01*
X55846614Y-67545313D01*
X55744102Y-67353526D01*
X55680974Y-67145423D01*
X55659659Y-66929000D01*
X55680974Y-66712577D01*
X55744102Y-66504474D01*
X55846614Y-66312687D01*
X55984577Y-66144577D01*
X56152687Y-66006614D01*
X56344474Y-65904102D01*
X56552577Y-65840974D01*
X56714769Y-65825000D01*
X56823231Y-65825000D01*
X56985423Y-65840974D01*
X56985423Y-65840974D01*
G37*
G36*
X59525423Y-65840974D02*
X59733526Y-65904102D01*
X59925313Y-66006614D01*
X60093423Y-66144577D01*
X60231386Y-66312687D01*
X60333898Y-66504474D01*
X60397026Y-66712577D01*
X60418341Y-66929000D01*
X60397026Y-67145423D01*
X60333898Y-67353526D01*
X60231386Y-67545313D01*
X60093423Y-67713423D01*
X59925313Y-67851386D01*
X59733526Y-67953898D01*
X59525423Y-68017026D01*
X59363231Y-68033000D01*
X59254769Y-68033000D01*
X59092577Y-68017026D01*
X58884474Y-67953898D01*
X58692687Y-67851386D01*
X58524577Y-67713423D01*
X58386614Y-67545313D01*
X58284102Y-67353526D01*
X58220974Y-67145423D01*
X58199659Y-66929000D01*
X58220974Y-66712577D01*
X58284102Y-66504474D01*
X58386614Y-66312687D01*
X58524577Y-66144577D01*
X58692687Y-66006614D01*
X58884474Y-65904102D01*
X59092577Y-65840974D01*
X59254769Y-65825000D01*
X59363231Y-65825000D01*
X59525423Y-65840974D01*
X59525423Y-65840974D01*
G37*
G36*
X62065423Y-65840974D02*
X62273526Y-65904102D01*
X62465313Y-66006614D01*
X62633423Y-66144577D01*
X62771386Y-66312687D01*
X62873898Y-66504474D01*
X62937026Y-66712577D01*
X62958341Y-66929000D01*
X62937026Y-67145423D01*
X62873898Y-67353526D01*
X62771386Y-67545313D01*
X62633423Y-67713423D01*
X62465313Y-67851386D01*
X62273526Y-67953898D01*
X62065423Y-68017026D01*
X61903231Y-68033000D01*
X61794769Y-68033000D01*
X61632577Y-68017026D01*
X61424474Y-67953898D01*
X61232687Y-67851386D01*
X61064577Y-67713423D01*
X60926614Y-67545313D01*
X60824102Y-67353526D01*
X60760974Y-67145423D01*
X60739659Y-66929000D01*
X60760974Y-66712577D01*
X60824102Y-66504474D01*
X60926614Y-66312687D01*
X61064577Y-66144577D01*
X61232687Y-66006614D01*
X61424474Y-65904102D01*
X61632577Y-65840974D01*
X61794769Y-65825000D01*
X61903231Y-65825000D01*
X62065423Y-65840974D01*
X62065423Y-65840974D01*
G37*
G36*
X64605423Y-65840974D02*
X64813526Y-65904102D01*
X65005313Y-66006614D01*
X65173423Y-66144577D01*
X65311386Y-66312687D01*
X65413898Y-66504474D01*
X65477026Y-66712577D01*
X65498341Y-66929000D01*
X65477026Y-67145423D01*
X65413898Y-67353526D01*
X65311386Y-67545313D01*
X65173423Y-67713423D01*
X65005313Y-67851386D01*
X64813526Y-67953898D01*
X64605423Y-68017026D01*
X64443231Y-68033000D01*
X64334769Y-68033000D01*
X64172577Y-68017026D01*
X63964474Y-67953898D01*
X63772687Y-67851386D01*
X63604577Y-67713423D01*
X63466614Y-67545313D01*
X63364102Y-67353526D01*
X63300974Y-67145423D01*
X63279659Y-66929000D01*
X63300974Y-66712577D01*
X63364102Y-66504474D01*
X63466614Y-66312687D01*
X63604577Y-66144577D01*
X63772687Y-66006614D01*
X63964474Y-65904102D01*
X64172577Y-65840974D01*
X64334769Y-65825000D01*
X64443231Y-65825000D01*
X64605423Y-65840974D01*
X64605423Y-65840974D01*
G37*
G36*
X107785423Y-65840974D02*
X107993526Y-65904102D01*
X108185313Y-66006614D01*
X108353423Y-66144577D01*
X108491386Y-66312687D01*
X108593898Y-66504474D01*
X108657026Y-66712577D01*
X108678341Y-66929000D01*
X108657026Y-67145423D01*
X108593898Y-67353526D01*
X108491386Y-67545313D01*
X108353423Y-67713423D01*
X108185313Y-67851386D01*
X107993526Y-67953898D01*
X107785423Y-68017026D01*
X107623231Y-68033000D01*
X107514769Y-68033000D01*
X107352577Y-68017026D01*
X107144474Y-67953898D01*
X106952687Y-67851386D01*
X106784577Y-67713423D01*
X106646614Y-67545313D01*
X106544102Y-67353526D01*
X106480974Y-67145423D01*
X106459659Y-66929000D01*
X106480974Y-66712577D01*
X106544102Y-66504474D01*
X106646614Y-66312687D01*
X106784577Y-66144577D01*
X106952687Y-66006614D01*
X107144474Y-65904102D01*
X107352577Y-65840974D01*
X107514769Y-65825000D01*
X107623231Y-65825000D01*
X107785423Y-65840974D01*
X107785423Y-65840974D01*
G37*
G36*
X105245423Y-65840974D02*
X105453526Y-65904102D01*
X105645313Y-66006614D01*
X105813423Y-66144577D01*
X105951386Y-66312687D01*
X106053898Y-66504474D01*
X106117026Y-66712577D01*
X106138341Y-66929000D01*
X106117026Y-67145423D01*
X106053898Y-67353526D01*
X105951386Y-67545313D01*
X105813423Y-67713423D01*
X105645313Y-67851386D01*
X105453526Y-67953898D01*
X105245423Y-68017026D01*
X105083231Y-68033000D01*
X104974769Y-68033000D01*
X104812577Y-68017026D01*
X104604474Y-67953898D01*
X104412687Y-67851386D01*
X104244577Y-67713423D01*
X104106614Y-67545313D01*
X104004102Y-67353526D01*
X103940974Y-67145423D01*
X103919659Y-66929000D01*
X103940974Y-66712577D01*
X104004102Y-66504474D01*
X104106614Y-66312687D01*
X104244577Y-66144577D01*
X104412687Y-66006614D01*
X104604474Y-65904102D01*
X104812577Y-65840974D01*
X104974769Y-65825000D01*
X105083231Y-65825000D01*
X105245423Y-65840974D01*
X105245423Y-65840974D01*
G37*
G36*
X102705423Y-65840974D02*
X102913526Y-65904102D01*
X103105313Y-66006614D01*
X103273423Y-66144577D01*
X103411386Y-66312687D01*
X103513898Y-66504474D01*
X103577026Y-66712577D01*
X103598341Y-66929000D01*
X103577026Y-67145423D01*
X103513898Y-67353526D01*
X103411386Y-67545313D01*
X103273423Y-67713423D01*
X103105313Y-67851386D01*
X102913526Y-67953898D01*
X102705423Y-68017026D01*
X102543231Y-68033000D01*
X102434769Y-68033000D01*
X102272577Y-68017026D01*
X102064474Y-67953898D01*
X101872687Y-67851386D01*
X101704577Y-67713423D01*
X101566614Y-67545313D01*
X101464102Y-67353526D01*
X101400974Y-67145423D01*
X101379659Y-66929000D01*
X101400974Y-66712577D01*
X101464102Y-66504474D01*
X101566614Y-66312687D01*
X101704577Y-66144577D01*
X101872687Y-66006614D01*
X102064474Y-65904102D01*
X102272577Y-65840974D01*
X102434769Y-65825000D01*
X102543231Y-65825000D01*
X102705423Y-65840974D01*
X102705423Y-65840974D01*
G37*
G36*
X95085423Y-63300974D02*
X95293526Y-63364102D01*
X95485313Y-63466614D01*
X95653423Y-63604577D01*
X95791386Y-63772687D01*
X95893898Y-63964474D01*
X95957026Y-64172577D01*
X95978341Y-64389000D01*
X95957026Y-64605423D01*
X95893898Y-64813526D01*
X95791386Y-65005313D01*
X95653423Y-65173423D01*
X95485313Y-65311386D01*
X95293526Y-65413898D01*
X95085423Y-65477026D01*
X94923231Y-65493000D01*
X94814769Y-65493000D01*
X94652577Y-65477026D01*
X94444474Y-65413898D01*
X94252687Y-65311386D01*
X94084577Y-65173423D01*
X93946614Y-65005313D01*
X93844102Y-64813526D01*
X93780974Y-64605423D01*
X93759659Y-64389000D01*
X93780974Y-64172577D01*
X93844102Y-63964474D01*
X93946614Y-63772687D01*
X94084577Y-63604577D01*
X94252687Y-63466614D01*
X94444474Y-63364102D01*
X94652577Y-63300974D01*
X94814769Y-63285000D01*
X94923231Y-63285000D01*
X95085423Y-63300974D01*
X95085423Y-63300974D01*
G37*
G36*
X92545423Y-63300974D02*
X92753526Y-63364102D01*
X92945313Y-63466614D01*
X93113423Y-63604577D01*
X93251386Y-63772687D01*
X93353898Y-63964474D01*
X93417026Y-64172577D01*
X93438341Y-64389000D01*
X93417026Y-64605423D01*
X93353898Y-64813526D01*
X93251386Y-65005313D01*
X93113423Y-65173423D01*
X92945313Y-65311386D01*
X92753526Y-65413898D01*
X92545423Y-65477026D01*
X92383231Y-65493000D01*
X92274769Y-65493000D01*
X92112577Y-65477026D01*
X91904474Y-65413898D01*
X91712687Y-65311386D01*
X91544577Y-65173423D01*
X91406614Y-65005313D01*
X91304102Y-64813526D01*
X91240974Y-64605423D01*
X91219659Y-64389000D01*
X91240974Y-64172577D01*
X91304102Y-63964474D01*
X91406614Y-63772687D01*
X91544577Y-63604577D01*
X91712687Y-63466614D01*
X91904474Y-63364102D01*
X92112577Y-63300974D01*
X92274769Y-63285000D01*
X92383231Y-63285000D01*
X92545423Y-63300974D01*
X92545423Y-63300974D01*
G37*
G36*
X62065423Y-63300974D02*
X62273526Y-63364102D01*
X62465313Y-63466614D01*
X62633423Y-63604577D01*
X62771386Y-63772687D01*
X62873898Y-63964474D01*
X62937026Y-64172577D01*
X62958341Y-64389000D01*
X62937026Y-64605423D01*
X62873898Y-64813526D01*
X62771386Y-65005313D01*
X62633423Y-65173423D01*
X62465313Y-65311386D01*
X62273526Y-65413898D01*
X62065423Y-65477026D01*
X61903231Y-65493000D01*
X61794769Y-65493000D01*
X61632577Y-65477026D01*
X61424474Y-65413898D01*
X61232687Y-65311386D01*
X61064577Y-65173423D01*
X60926614Y-65005313D01*
X60824102Y-64813526D01*
X60760974Y-64605423D01*
X60739659Y-64389000D01*
X60760974Y-64172577D01*
X60824102Y-63964474D01*
X60926614Y-63772687D01*
X61064577Y-63604577D01*
X61232687Y-63466614D01*
X61424474Y-63364102D01*
X61632577Y-63300974D01*
X61794769Y-63285000D01*
X61903231Y-63285000D01*
X62065423Y-63300974D01*
X62065423Y-63300974D01*
G37*
G36*
X90005423Y-63300974D02*
X90213526Y-63364102D01*
X90405313Y-63466614D01*
X90573423Y-63604577D01*
X90711386Y-63772687D01*
X90813898Y-63964474D01*
X90877026Y-64172577D01*
X90898341Y-64389000D01*
X90877026Y-64605423D01*
X90813898Y-64813526D01*
X90711386Y-65005313D01*
X90573423Y-65173423D01*
X90405313Y-65311386D01*
X90213526Y-65413898D01*
X90005423Y-65477026D01*
X89843231Y-65493000D01*
X89734769Y-65493000D01*
X89572577Y-65477026D01*
X89364474Y-65413898D01*
X89172687Y-65311386D01*
X89004577Y-65173423D01*
X88866614Y-65005313D01*
X88764102Y-64813526D01*
X88700974Y-64605423D01*
X88679659Y-64389000D01*
X88700974Y-64172577D01*
X88764102Y-63964474D01*
X88866614Y-63772687D01*
X89004577Y-63604577D01*
X89172687Y-63466614D01*
X89364474Y-63364102D01*
X89572577Y-63300974D01*
X89734769Y-63285000D01*
X89843231Y-63285000D01*
X90005423Y-63300974D01*
X90005423Y-63300974D01*
G37*
G36*
X82385423Y-63300974D02*
X82593526Y-63364102D01*
X82785313Y-63466614D01*
X82953423Y-63604577D01*
X83091386Y-63772687D01*
X83193898Y-63964474D01*
X83257026Y-64172577D01*
X83278341Y-64389000D01*
X83257026Y-64605423D01*
X83193898Y-64813526D01*
X83091386Y-65005313D01*
X82953423Y-65173423D01*
X82785313Y-65311386D01*
X82593526Y-65413898D01*
X82385423Y-65477026D01*
X82223231Y-65493000D01*
X82114769Y-65493000D01*
X81952577Y-65477026D01*
X81744474Y-65413898D01*
X81552687Y-65311386D01*
X81384577Y-65173423D01*
X81246614Y-65005313D01*
X81144102Y-64813526D01*
X81080974Y-64605423D01*
X81059659Y-64389000D01*
X81080974Y-64172577D01*
X81144102Y-63964474D01*
X81246614Y-63772687D01*
X81384577Y-63604577D01*
X81552687Y-63466614D01*
X81744474Y-63364102D01*
X81952577Y-63300974D01*
X82114769Y-63285000D01*
X82223231Y-63285000D01*
X82385423Y-63300974D01*
X82385423Y-63300974D01*
G37*
G36*
X87465423Y-63300974D02*
X87673526Y-63364102D01*
X87865313Y-63466614D01*
X88033423Y-63604577D01*
X88171386Y-63772687D01*
X88273898Y-63964474D01*
X88337026Y-64172577D01*
X88358341Y-64389000D01*
X88337026Y-64605423D01*
X88273898Y-64813526D01*
X88171386Y-65005313D01*
X88033423Y-65173423D01*
X87865313Y-65311386D01*
X87673526Y-65413898D01*
X87465423Y-65477026D01*
X87303231Y-65493000D01*
X87194769Y-65493000D01*
X87032577Y-65477026D01*
X86824474Y-65413898D01*
X86632687Y-65311386D01*
X86464577Y-65173423D01*
X86326614Y-65005313D01*
X86224102Y-64813526D01*
X86160974Y-64605423D01*
X86139659Y-64389000D01*
X86160974Y-64172577D01*
X86224102Y-63964474D01*
X86326614Y-63772687D01*
X86464577Y-63604577D01*
X86632687Y-63466614D01*
X86824474Y-63364102D01*
X87032577Y-63300974D01*
X87194769Y-63285000D01*
X87303231Y-63285000D01*
X87465423Y-63300974D01*
X87465423Y-63300974D01*
G37*
G36*
X110325423Y-63300974D02*
X110533526Y-63364102D01*
X110725313Y-63466614D01*
X110893423Y-63604577D01*
X111031386Y-63772687D01*
X111133898Y-63964474D01*
X111197026Y-64172577D01*
X111218341Y-64389000D01*
X111197026Y-64605423D01*
X111133898Y-64813526D01*
X111031386Y-65005313D01*
X110893423Y-65173423D01*
X110725313Y-65311386D01*
X110533526Y-65413898D01*
X110325423Y-65477026D01*
X110163231Y-65493000D01*
X110054769Y-65493000D01*
X109892577Y-65477026D01*
X109684474Y-65413898D01*
X109492687Y-65311386D01*
X109324577Y-65173423D01*
X109186614Y-65005313D01*
X109084102Y-64813526D01*
X109020974Y-64605423D01*
X108999659Y-64389000D01*
X109020974Y-64172577D01*
X109084102Y-63964474D01*
X109186614Y-63772687D01*
X109324577Y-63604577D01*
X109492687Y-63466614D01*
X109684474Y-63364102D01*
X109892577Y-63300974D01*
X110054769Y-63285000D01*
X110163231Y-63285000D01*
X110325423Y-63300974D01*
X110325423Y-63300974D01*
G37*
G36*
X59525423Y-63300974D02*
X59733526Y-63364102D01*
X59925313Y-63466614D01*
X60093423Y-63604577D01*
X60231386Y-63772687D01*
X60333898Y-63964474D01*
X60397026Y-64172577D01*
X60418341Y-64389000D01*
X60397026Y-64605423D01*
X60333898Y-64813526D01*
X60231386Y-65005313D01*
X60093423Y-65173423D01*
X59925313Y-65311386D01*
X59733526Y-65413898D01*
X59525423Y-65477026D01*
X59363231Y-65493000D01*
X59254769Y-65493000D01*
X59092577Y-65477026D01*
X58884474Y-65413898D01*
X58692687Y-65311386D01*
X58524577Y-65173423D01*
X58386614Y-65005313D01*
X58284102Y-64813526D01*
X58220974Y-64605423D01*
X58199659Y-64389000D01*
X58220974Y-64172577D01*
X58284102Y-63964474D01*
X58386614Y-63772687D01*
X58524577Y-63604577D01*
X58692687Y-63466614D01*
X58884474Y-63364102D01*
X59092577Y-63300974D01*
X59254769Y-63285000D01*
X59363231Y-63285000D01*
X59525423Y-63300974D01*
X59525423Y-63300974D01*
G37*
G36*
X56985423Y-63300974D02*
X57193526Y-63364102D01*
X57385313Y-63466614D01*
X57553423Y-63604577D01*
X57691386Y-63772687D01*
X57793898Y-63964474D01*
X57857026Y-64172577D01*
X57878341Y-64389000D01*
X57857026Y-64605423D01*
X57793898Y-64813526D01*
X57691386Y-65005313D01*
X57553423Y-65173423D01*
X57385313Y-65311386D01*
X57193526Y-65413898D01*
X56985423Y-65477026D01*
X56823231Y-65493000D01*
X56714769Y-65493000D01*
X56552577Y-65477026D01*
X56344474Y-65413898D01*
X56152687Y-65311386D01*
X55984577Y-65173423D01*
X55846614Y-65005313D01*
X55744102Y-64813526D01*
X55680974Y-64605423D01*
X55659659Y-64389000D01*
X55680974Y-64172577D01*
X55744102Y-63964474D01*
X55846614Y-63772687D01*
X55984577Y-63604577D01*
X56152687Y-63466614D01*
X56344474Y-63364102D01*
X56552577Y-63300974D01*
X56714769Y-63285000D01*
X56823231Y-63285000D01*
X56985423Y-63300974D01*
X56985423Y-63300974D01*
G37*
G36*
X54445423Y-63300974D02*
X54653526Y-63364102D01*
X54845313Y-63466614D01*
X55013423Y-63604577D01*
X55151386Y-63772687D01*
X55253898Y-63964474D01*
X55317026Y-64172577D01*
X55338341Y-64389000D01*
X55317026Y-64605423D01*
X55253898Y-64813526D01*
X55151386Y-65005313D01*
X55013423Y-65173423D01*
X54845313Y-65311386D01*
X54653526Y-65413898D01*
X54445423Y-65477026D01*
X54283231Y-65493000D01*
X54174769Y-65493000D01*
X54012577Y-65477026D01*
X53804474Y-65413898D01*
X53612687Y-65311386D01*
X53444577Y-65173423D01*
X53306614Y-65005313D01*
X53204102Y-64813526D01*
X53140974Y-64605423D01*
X53119659Y-64389000D01*
X53140974Y-64172577D01*
X53204102Y-63964474D01*
X53306614Y-63772687D01*
X53444577Y-63604577D01*
X53612687Y-63466614D01*
X53804474Y-63364102D01*
X54012577Y-63300974D01*
X54174769Y-63285000D01*
X54283231Y-63285000D01*
X54445423Y-63300974D01*
X54445423Y-63300974D01*
G37*
G36*
X51905423Y-63300974D02*
X52113526Y-63364102D01*
X52305313Y-63466614D01*
X52473423Y-63604577D01*
X52611386Y-63772687D01*
X52713898Y-63964474D01*
X52777026Y-64172577D01*
X52798341Y-64389000D01*
X52777026Y-64605423D01*
X52713898Y-64813526D01*
X52611386Y-65005313D01*
X52473423Y-65173423D01*
X52305313Y-65311386D01*
X52113526Y-65413898D01*
X51905423Y-65477026D01*
X51743231Y-65493000D01*
X51634769Y-65493000D01*
X51472577Y-65477026D01*
X51264474Y-65413898D01*
X51072687Y-65311386D01*
X50904577Y-65173423D01*
X50766614Y-65005313D01*
X50664102Y-64813526D01*
X50600974Y-64605423D01*
X50579659Y-64389000D01*
X50600974Y-64172577D01*
X50664102Y-63964474D01*
X50766614Y-63772687D01*
X50904577Y-63604577D01*
X51072687Y-63466614D01*
X51264474Y-63364102D01*
X51472577Y-63300974D01*
X51634769Y-63285000D01*
X51743231Y-63285000D01*
X51905423Y-63300974D01*
X51905423Y-63300974D01*
G37*
G36*
X49365423Y-63300974D02*
X49573526Y-63364102D01*
X49765313Y-63466614D01*
X49933423Y-63604577D01*
X50071386Y-63772687D01*
X50173898Y-63964474D01*
X50237026Y-64172577D01*
X50258341Y-64389000D01*
X50237026Y-64605423D01*
X50173898Y-64813526D01*
X50071386Y-65005313D01*
X49933423Y-65173423D01*
X49765313Y-65311386D01*
X49573526Y-65413898D01*
X49365423Y-65477026D01*
X49203231Y-65493000D01*
X49094769Y-65493000D01*
X48932577Y-65477026D01*
X48724474Y-65413898D01*
X48532687Y-65311386D01*
X48364577Y-65173423D01*
X48226614Y-65005313D01*
X48124102Y-64813526D01*
X48060974Y-64605423D01*
X48039659Y-64389000D01*
X48060974Y-64172577D01*
X48124102Y-63964474D01*
X48226614Y-63772687D01*
X48364577Y-63604577D01*
X48532687Y-63466614D01*
X48724474Y-63364102D01*
X48932577Y-63300974D01*
X49094769Y-63285000D01*
X49203231Y-63285000D01*
X49365423Y-63300974D01*
X49365423Y-63300974D01*
G37*
G36*
X84925423Y-63300974D02*
X85133526Y-63364102D01*
X85325313Y-63466614D01*
X85493423Y-63604577D01*
X85631386Y-63772687D01*
X85733898Y-63964474D01*
X85797026Y-64172577D01*
X85818341Y-64389000D01*
X85797026Y-64605423D01*
X85733898Y-64813526D01*
X85631386Y-65005313D01*
X85493423Y-65173423D01*
X85325313Y-65311386D01*
X85133526Y-65413898D01*
X84925423Y-65477026D01*
X84763231Y-65493000D01*
X84654769Y-65493000D01*
X84492577Y-65477026D01*
X84284474Y-65413898D01*
X84092687Y-65311386D01*
X83924577Y-65173423D01*
X83786614Y-65005313D01*
X83684102Y-64813526D01*
X83620974Y-64605423D01*
X83599659Y-64389000D01*
X83620974Y-64172577D01*
X83684102Y-63964474D01*
X83786614Y-63772687D01*
X83924577Y-63604577D01*
X84092687Y-63466614D01*
X84284474Y-63364102D01*
X84492577Y-63300974D01*
X84654769Y-63285000D01*
X84763231Y-63285000D01*
X84925423Y-63300974D01*
X84925423Y-63300974D01*
G37*
G36*
X79845423Y-63300974D02*
X80053526Y-63364102D01*
X80245313Y-63466614D01*
X80413423Y-63604577D01*
X80551386Y-63772687D01*
X80653898Y-63964474D01*
X80717026Y-64172577D01*
X80738341Y-64389000D01*
X80717026Y-64605423D01*
X80653898Y-64813526D01*
X80551386Y-65005313D01*
X80413423Y-65173423D01*
X80245313Y-65311386D01*
X80053526Y-65413898D01*
X79845423Y-65477026D01*
X79683231Y-65493000D01*
X79574769Y-65493000D01*
X79412577Y-65477026D01*
X79204474Y-65413898D01*
X79012687Y-65311386D01*
X78844577Y-65173423D01*
X78706614Y-65005313D01*
X78604102Y-64813526D01*
X78540974Y-64605423D01*
X78519659Y-64389000D01*
X78540974Y-64172577D01*
X78604102Y-63964474D01*
X78706614Y-63772687D01*
X78844577Y-63604577D01*
X79012687Y-63466614D01*
X79204474Y-63364102D01*
X79412577Y-63300974D01*
X79574769Y-63285000D01*
X79683231Y-63285000D01*
X79845423Y-63300974D01*
X79845423Y-63300974D01*
G37*
G36*
X64605423Y-63300974D02*
X64813526Y-63364102D01*
X65005313Y-63466614D01*
X65173423Y-63604577D01*
X65311386Y-63772687D01*
X65413898Y-63964474D01*
X65477026Y-64172577D01*
X65498341Y-64389000D01*
X65477026Y-64605423D01*
X65413898Y-64813526D01*
X65311386Y-65005313D01*
X65173423Y-65173423D01*
X65005313Y-65311386D01*
X64813526Y-65413898D01*
X64605423Y-65477026D01*
X64443231Y-65493000D01*
X64334769Y-65493000D01*
X64172577Y-65477026D01*
X63964474Y-65413898D01*
X63772687Y-65311386D01*
X63604577Y-65173423D01*
X63466614Y-65005313D01*
X63364102Y-64813526D01*
X63300974Y-64605423D01*
X63279659Y-64389000D01*
X63300974Y-64172577D01*
X63364102Y-63964474D01*
X63466614Y-63772687D01*
X63604577Y-63604577D01*
X63772687Y-63466614D01*
X63964474Y-63364102D01*
X64172577Y-63300974D01*
X64334769Y-63285000D01*
X64443231Y-63285000D01*
X64605423Y-63300974D01*
X64605423Y-63300974D01*
G37*
G36*
X67145423Y-63300974D02*
X67353526Y-63364102D01*
X67545313Y-63466614D01*
X67713423Y-63604577D01*
X67851386Y-63772687D01*
X67953898Y-63964474D01*
X68017026Y-64172577D01*
X68038341Y-64389000D01*
X68017026Y-64605423D01*
X67953898Y-64813526D01*
X67851386Y-65005313D01*
X67713423Y-65173423D01*
X67545313Y-65311386D01*
X67353526Y-65413898D01*
X67145423Y-65477026D01*
X66983231Y-65493000D01*
X66874769Y-65493000D01*
X66712577Y-65477026D01*
X66504474Y-65413898D01*
X66312687Y-65311386D01*
X66144577Y-65173423D01*
X66006614Y-65005313D01*
X65904102Y-64813526D01*
X65840974Y-64605423D01*
X65819659Y-64389000D01*
X65840974Y-64172577D01*
X65904102Y-63964474D01*
X66006614Y-63772687D01*
X66144577Y-63604577D01*
X66312687Y-63466614D01*
X66504474Y-63364102D01*
X66712577Y-63300974D01*
X66874769Y-63285000D01*
X66983231Y-63285000D01*
X67145423Y-63300974D01*
X67145423Y-63300974D01*
G37*
G36*
X107785423Y-63300974D02*
X107993526Y-63364102D01*
X108185313Y-63466614D01*
X108353423Y-63604577D01*
X108491386Y-63772687D01*
X108593898Y-63964474D01*
X108657026Y-64172577D01*
X108678341Y-64389000D01*
X108657026Y-64605423D01*
X108593898Y-64813526D01*
X108491386Y-65005313D01*
X108353423Y-65173423D01*
X108185313Y-65311386D01*
X107993526Y-65413898D01*
X107785423Y-65477026D01*
X107623231Y-65493000D01*
X107514769Y-65493000D01*
X107352577Y-65477026D01*
X107144474Y-65413898D01*
X106952687Y-65311386D01*
X106784577Y-65173423D01*
X106646614Y-65005313D01*
X106544102Y-64813526D01*
X106480974Y-64605423D01*
X106459659Y-64389000D01*
X106480974Y-64172577D01*
X106544102Y-63964474D01*
X106646614Y-63772687D01*
X106784577Y-63604577D01*
X106952687Y-63466614D01*
X107144474Y-63364102D01*
X107352577Y-63300974D01*
X107514769Y-63285000D01*
X107623231Y-63285000D01*
X107785423Y-63300974D01*
X107785423Y-63300974D01*
G37*
G36*
X69685423Y-63300974D02*
X69893526Y-63364102D01*
X70085313Y-63466614D01*
X70253423Y-63604577D01*
X70391386Y-63772687D01*
X70493898Y-63964474D01*
X70557026Y-64172577D01*
X70578341Y-64389000D01*
X70557026Y-64605423D01*
X70493898Y-64813526D01*
X70391386Y-65005313D01*
X70253423Y-65173423D01*
X70085313Y-65311386D01*
X69893526Y-65413898D01*
X69685423Y-65477026D01*
X69523231Y-65493000D01*
X69414769Y-65493000D01*
X69252577Y-65477026D01*
X69044474Y-65413898D01*
X68852687Y-65311386D01*
X68684577Y-65173423D01*
X68546614Y-65005313D01*
X68444102Y-64813526D01*
X68380974Y-64605423D01*
X68359659Y-64389000D01*
X68380974Y-64172577D01*
X68444102Y-63964474D01*
X68546614Y-63772687D01*
X68684577Y-63604577D01*
X68852687Y-63466614D01*
X69044474Y-63364102D01*
X69252577Y-63300974D01*
X69414769Y-63285000D01*
X69523231Y-63285000D01*
X69685423Y-63300974D01*
X69685423Y-63300974D01*
G37*
G36*
X105245423Y-63300974D02*
X105453526Y-63364102D01*
X105645313Y-63466614D01*
X105813423Y-63604577D01*
X105951386Y-63772687D01*
X106053898Y-63964474D01*
X106117026Y-64172577D01*
X106138341Y-64389000D01*
X106117026Y-64605423D01*
X106053898Y-64813526D01*
X105951386Y-65005313D01*
X105813423Y-65173423D01*
X105645313Y-65311386D01*
X105453526Y-65413898D01*
X105245423Y-65477026D01*
X105083231Y-65493000D01*
X104974769Y-65493000D01*
X104812577Y-65477026D01*
X104604474Y-65413898D01*
X104412687Y-65311386D01*
X104244577Y-65173423D01*
X104106614Y-65005313D01*
X104004102Y-64813526D01*
X103940974Y-64605423D01*
X103919659Y-64389000D01*
X103940974Y-64172577D01*
X104004102Y-63964474D01*
X104106614Y-63772687D01*
X104244577Y-63604577D01*
X104412687Y-63466614D01*
X104604474Y-63364102D01*
X104812577Y-63300974D01*
X104974769Y-63285000D01*
X105083231Y-63285000D01*
X105245423Y-63300974D01*
X105245423Y-63300974D01*
G37*
G36*
X72225423Y-63300974D02*
X72433526Y-63364102D01*
X72625313Y-63466614D01*
X72793423Y-63604577D01*
X72931386Y-63772687D01*
X73033898Y-63964474D01*
X73097026Y-64172577D01*
X73118341Y-64389000D01*
X73097026Y-64605423D01*
X73033898Y-64813526D01*
X72931386Y-65005313D01*
X72793423Y-65173423D01*
X72625313Y-65311386D01*
X72433526Y-65413898D01*
X72225423Y-65477026D01*
X72063231Y-65493000D01*
X71954769Y-65493000D01*
X71792577Y-65477026D01*
X71584474Y-65413898D01*
X71392687Y-65311386D01*
X71224577Y-65173423D01*
X71086614Y-65005313D01*
X70984102Y-64813526D01*
X70920974Y-64605423D01*
X70899659Y-64389000D01*
X70920974Y-64172577D01*
X70984102Y-63964474D01*
X71086614Y-63772687D01*
X71224577Y-63604577D01*
X71392687Y-63466614D01*
X71584474Y-63364102D01*
X71792577Y-63300974D01*
X71954769Y-63285000D01*
X72063231Y-63285000D01*
X72225423Y-63300974D01*
X72225423Y-63300974D01*
G37*
G36*
X102705423Y-63300974D02*
X102913526Y-63364102D01*
X103105313Y-63466614D01*
X103273423Y-63604577D01*
X103411386Y-63772687D01*
X103513898Y-63964474D01*
X103577026Y-64172577D01*
X103598341Y-64389000D01*
X103577026Y-64605423D01*
X103513898Y-64813526D01*
X103411386Y-65005313D01*
X103273423Y-65173423D01*
X103105313Y-65311386D01*
X102913526Y-65413898D01*
X102705423Y-65477026D01*
X102543231Y-65493000D01*
X102434769Y-65493000D01*
X102272577Y-65477026D01*
X102064474Y-65413898D01*
X101872687Y-65311386D01*
X101704577Y-65173423D01*
X101566614Y-65005313D01*
X101464102Y-64813526D01*
X101400974Y-64605423D01*
X101379659Y-64389000D01*
X101400974Y-64172577D01*
X101464102Y-63964474D01*
X101566614Y-63772687D01*
X101704577Y-63604577D01*
X101872687Y-63466614D01*
X102064474Y-63364102D01*
X102272577Y-63300974D01*
X102434769Y-63285000D01*
X102543231Y-63285000D01*
X102705423Y-63300974D01*
X102705423Y-63300974D01*
G37*
G36*
X74765423Y-63300974D02*
X74973526Y-63364102D01*
X75165313Y-63466614D01*
X75333423Y-63604577D01*
X75471386Y-63772687D01*
X75573898Y-63964474D01*
X75637026Y-64172577D01*
X75658341Y-64389000D01*
X75637026Y-64605423D01*
X75573898Y-64813526D01*
X75471386Y-65005313D01*
X75333423Y-65173423D01*
X75165313Y-65311386D01*
X74973526Y-65413898D01*
X74765423Y-65477026D01*
X74603231Y-65493000D01*
X74494769Y-65493000D01*
X74332577Y-65477026D01*
X74124474Y-65413898D01*
X73932687Y-65311386D01*
X73764577Y-65173423D01*
X73626614Y-65005313D01*
X73524102Y-64813526D01*
X73460974Y-64605423D01*
X73439659Y-64389000D01*
X73460974Y-64172577D01*
X73524102Y-63964474D01*
X73626614Y-63772687D01*
X73764577Y-63604577D01*
X73932687Y-63466614D01*
X74124474Y-63364102D01*
X74332577Y-63300974D01*
X74494769Y-63285000D01*
X74603231Y-63285000D01*
X74765423Y-63300974D01*
X74765423Y-63300974D01*
G37*
G36*
X77305423Y-63300974D02*
X77513526Y-63364102D01*
X77705313Y-63466614D01*
X77873423Y-63604577D01*
X78011386Y-63772687D01*
X78113898Y-63964474D01*
X78177026Y-64172577D01*
X78198341Y-64389000D01*
X78177026Y-64605423D01*
X78113898Y-64813526D01*
X78011386Y-65005313D01*
X77873423Y-65173423D01*
X77705313Y-65311386D01*
X77513526Y-65413898D01*
X77305423Y-65477026D01*
X77143231Y-65493000D01*
X77034769Y-65493000D01*
X76872577Y-65477026D01*
X76664474Y-65413898D01*
X76472687Y-65311386D01*
X76304577Y-65173423D01*
X76166614Y-65005313D01*
X76064102Y-64813526D01*
X76000974Y-64605423D01*
X75979659Y-64389000D01*
X76000974Y-64172577D01*
X76064102Y-63964474D01*
X76166614Y-63772687D01*
X76304577Y-63604577D01*
X76472687Y-63466614D01*
X76664474Y-63364102D01*
X76872577Y-63300974D01*
X77034769Y-63285000D01*
X77143231Y-63285000D01*
X77305423Y-63300974D01*
X77305423Y-63300974D01*
G37*
G36*
X100165423Y-63300974D02*
X100373526Y-63364102D01*
X100565313Y-63466614D01*
X100733423Y-63604577D01*
X100871386Y-63772687D01*
X100973898Y-63964474D01*
X101037026Y-64172577D01*
X101058341Y-64389000D01*
X101037026Y-64605423D01*
X100973898Y-64813526D01*
X100871386Y-65005313D01*
X100733423Y-65173423D01*
X100565313Y-65311386D01*
X100373526Y-65413898D01*
X100165423Y-65477026D01*
X100003231Y-65493000D01*
X99894769Y-65493000D01*
X99732577Y-65477026D01*
X99524474Y-65413898D01*
X99332687Y-65311386D01*
X99164577Y-65173423D01*
X99026614Y-65005313D01*
X98924102Y-64813526D01*
X98860974Y-64605423D01*
X98839659Y-64389000D01*
X98860974Y-64172577D01*
X98924102Y-63964474D01*
X99026614Y-63772687D01*
X99164577Y-63604577D01*
X99332687Y-63466614D01*
X99524474Y-63364102D01*
X99732577Y-63300974D01*
X99894769Y-63285000D01*
X100003231Y-63285000D01*
X100165423Y-63300974D01*
X100165423Y-63300974D01*
G37*
G36*
X97625423Y-63300974D02*
X97833526Y-63364102D01*
X98025313Y-63466614D01*
X98193423Y-63604577D01*
X98331386Y-63772687D01*
X98433898Y-63964474D01*
X98497026Y-64172577D01*
X98518341Y-64389000D01*
X98497026Y-64605423D01*
X98433898Y-64813526D01*
X98331386Y-65005313D01*
X98193423Y-65173423D01*
X98025313Y-65311386D01*
X97833526Y-65413898D01*
X97625423Y-65477026D01*
X97463231Y-65493000D01*
X97354769Y-65493000D01*
X97192577Y-65477026D01*
X96984474Y-65413898D01*
X96792687Y-65311386D01*
X96624577Y-65173423D01*
X96486614Y-65005313D01*
X96384102Y-64813526D01*
X96320974Y-64605423D01*
X96299659Y-64389000D01*
X96320974Y-64172577D01*
X96384102Y-63964474D01*
X96486614Y-63772687D01*
X96624577Y-63604577D01*
X96792687Y-63466614D01*
X96984474Y-63364102D01*
X97192577Y-63300974D01*
X97354769Y-63285000D01*
X97463231Y-63285000D01*
X97625423Y-63300974D01*
X97625423Y-63300974D01*
G37*
G36*
X104563000Y-62405000D02*
X102955000Y-62405000D01*
X102955000Y-60797000D01*
X104563000Y-60797000D01*
X104563000Y-62405000D01*
X104563000Y-62405000D01*
G37*
G36*
X107103000Y-62405000D02*
X105495000Y-62405000D01*
X105495000Y-60797000D01*
X107103000Y-60797000D01*
X107103000Y-62405000D01*
X107103000Y-62405000D01*
G37*
G36*
X85426000Y-62276000D02*
X83418000Y-62276000D01*
X83418000Y-52278000D01*
X85426000Y-52278000D01*
X85426000Y-62276000D01*
X85426000Y-62276000D01*
G37*
G36*
X90826000Y-62276000D02*
X88818000Y-62276000D01*
X88818000Y-52278000D01*
X90826000Y-52278000D01*
X90826000Y-62276000D01*
X90826000Y-62276000D01*
G37*
G36*
X69422742Y-60277408D02*
X69474520Y-60293114D01*
X69522236Y-60318619D01*
X69564058Y-60352942D01*
X69598381Y-60394764D01*
X69623886Y-60442480D01*
X69639592Y-60494258D01*
X69645500Y-60554241D01*
X69645500Y-61746759D01*
X69639592Y-61806742D01*
X69623886Y-61858520D01*
X69598381Y-61906236D01*
X69564058Y-61948058D01*
X69522236Y-61982381D01*
X69474520Y-62007886D01*
X69422742Y-62023592D01*
X69362759Y-62029500D01*
X67670241Y-62029500D01*
X67610258Y-62023592D01*
X67558480Y-62007886D01*
X67510764Y-61982381D01*
X67468942Y-61948058D01*
X67434619Y-61906236D01*
X67409114Y-61858520D01*
X67393408Y-61806742D01*
X67387500Y-61746759D01*
X67387500Y-60554241D01*
X67393408Y-60494258D01*
X67409114Y-60442480D01*
X67434619Y-60394764D01*
X67468942Y-60352942D01*
X67510764Y-60318619D01*
X67558480Y-60293114D01*
X67610258Y-60277408D01*
X67670241Y-60271500D01*
X69362759Y-60271500D01*
X69422742Y-60277408D01*
X69422742Y-60277408D01*
G37*
G36*
X101240000Y-61006000D02*
X99232000Y-61006000D01*
X99232000Y-52278000D01*
X101240000Y-52278000D01*
X101240000Y-61006000D01*
X101240000Y-61006000D01*
G37*
G36*
X95840000Y-61006000D02*
X93832000Y-61006000D01*
X93832000Y-52278000D01*
X95840000Y-52278000D01*
X95840000Y-61006000D01*
X95840000Y-61006000D01*
G37*
G36*
X104563000Y-59605000D02*
X102955000Y-59605000D01*
X102955000Y-57997000D01*
X104563000Y-57997000D01*
X104563000Y-59605000D01*
X104563000Y-59605000D01*
G37*
G36*
X107103000Y-59605000D02*
X105495000Y-59605000D01*
X105495000Y-57997000D01*
X107103000Y-57997000D01*
X107103000Y-59605000D01*
X107103000Y-59605000D01*
G37*
G36*
X69422742Y-57477408D02*
X69474520Y-57493114D01*
X69522236Y-57518619D01*
X69564058Y-57552942D01*
X69598381Y-57594764D01*
X69623886Y-57642480D01*
X69639592Y-57694258D01*
X69645500Y-57754241D01*
X69645500Y-58946759D01*
X69639592Y-59006742D01*
X69623886Y-59058520D01*
X69598381Y-59106236D01*
X69564058Y-59148058D01*
X69522236Y-59182381D01*
X69474520Y-59207886D01*
X69422742Y-59223592D01*
X69362759Y-59229500D01*
X67670241Y-59229500D01*
X67610258Y-59223592D01*
X67558480Y-59207886D01*
X67510764Y-59182381D01*
X67468942Y-59148058D01*
X67434619Y-59106236D01*
X67409114Y-59058520D01*
X67393408Y-59006742D01*
X67387500Y-58946759D01*
X67387500Y-57754241D01*
X67393408Y-57694258D01*
X67409114Y-57642480D01*
X67434619Y-57594764D01*
X67468942Y-57552942D01*
X67510764Y-57518619D01*
X67558480Y-57493114D01*
X67610258Y-57477408D01*
X67670241Y-57471500D01*
X69362759Y-57471500D01*
X69422742Y-57477408D01*
X69422742Y-57477408D01*
G37*
G36*
X66446400Y-58648600D02*
X48869600Y-58648600D01*
X48869600Y-56159400D01*
X66446400Y-56159400D01*
X66446400Y-58648600D01*
X66446400Y-58648600D01*
G37*
G36*
X107647742Y-55201408D02*
X107699520Y-55217114D01*
X107747236Y-55242619D01*
X107789058Y-55276942D01*
X107823381Y-55318764D01*
X107848886Y-55366480D01*
X107864592Y-55418258D01*
X107870500Y-55478241D01*
X107870500Y-57170759D01*
X107864592Y-57230742D01*
X107848886Y-57282520D01*
X107823381Y-57330236D01*
X107789058Y-57372058D01*
X107747236Y-57406381D01*
X107699520Y-57431886D01*
X107647742Y-57447592D01*
X107587759Y-57453500D01*
X106395241Y-57453500D01*
X106335258Y-57447592D01*
X106283480Y-57431886D01*
X106235764Y-57406381D01*
X106193942Y-57372058D01*
X106159619Y-57330236D01*
X106129484Y-57273857D01*
X106127606Y-57269321D01*
X106113996Y-57248944D01*
X106096672Y-57231613D01*
X106076300Y-57217995D01*
X106053663Y-57208614D01*
X106029630Y-57203828D01*
X106005126Y-57203824D01*
X105981092Y-57208599D01*
X105958451Y-57217972D01*
X105938074Y-57231582D01*
X105920729Y-57248923D01*
X105918787Y-57251289D01*
X105872170Y-57289547D01*
X105818982Y-57317977D01*
X105761267Y-57335484D01*
X105695110Y-57342000D01*
X104840890Y-57342000D01*
X104774733Y-57335484D01*
X104717018Y-57317977D01*
X104663830Y-57289547D01*
X104617212Y-57251288D01*
X104578953Y-57204670D01*
X104550523Y-57151482D01*
X104533016Y-57093767D01*
X104526500Y-57027610D01*
X104526500Y-55748390D01*
X104533016Y-55682233D01*
X104550523Y-55624518D01*
X104578953Y-55571330D01*
X104617212Y-55524712D01*
X104663830Y-55486453D01*
X104717018Y-55458023D01*
X104774733Y-55440516D01*
X104840890Y-55434000D01*
X105695110Y-55434000D01*
X105761267Y-55440516D01*
X105818982Y-55458023D01*
X105872170Y-55486453D01*
X105913004Y-55519965D01*
X105933378Y-55533579D01*
X105956017Y-55542956D01*
X105980051Y-55547737D01*
X106004555Y-55547737D01*
X106028588Y-55542957D01*
X106051227Y-55533579D01*
X106071602Y-55519965D01*
X106088929Y-55502638D01*
X106102543Y-55482264D01*
X106111920Y-55459625D01*
X106116701Y-55435591D01*
X106118408Y-55418258D01*
X106134114Y-55366480D01*
X106159619Y-55318764D01*
X106193942Y-55276942D01*
X106235764Y-55242619D01*
X106283480Y-55217114D01*
X106335258Y-55201408D01*
X106395241Y-55195500D01*
X107587759Y-55195500D01*
X107647742Y-55201408D01*
X107647742Y-55201408D01*
G37*
G36*
X110447742Y-55201408D02*
X110499520Y-55217114D01*
X110547236Y-55242619D01*
X110589058Y-55276942D01*
X110623381Y-55318764D01*
X110648886Y-55366480D01*
X110664592Y-55418258D01*
X110670500Y-55478241D01*
X110670500Y-57170759D01*
X110664592Y-57230742D01*
X110648886Y-57282520D01*
X110623381Y-57330236D01*
X110589058Y-57372058D01*
X110547236Y-57406381D01*
X110499520Y-57431886D01*
X110447742Y-57447592D01*
X110387759Y-57453500D01*
X109195241Y-57453500D01*
X109135258Y-57447592D01*
X109083480Y-57431886D01*
X109035764Y-57406381D01*
X108993942Y-57372058D01*
X108959619Y-57330236D01*
X108934114Y-57282520D01*
X108918408Y-57230742D01*
X108912500Y-57170759D01*
X108912500Y-55478241D01*
X108918408Y-55418258D01*
X108934114Y-55366480D01*
X108959619Y-55318764D01*
X108993942Y-55276942D01*
X109035764Y-55242619D01*
X109083480Y-55217114D01*
X109135258Y-55201408D01*
X109195241Y-55195500D01*
X110387759Y-55195500D01*
X110447742Y-55201408D01*
X110447742Y-55201408D01*
G37*
G36*
X103886267Y-55440516D02*
X103943982Y-55458023D01*
X103997170Y-55486453D01*
X104043788Y-55524712D01*
X104082047Y-55571330D01*
X104110477Y-55624518D01*
X104127984Y-55682233D01*
X104134500Y-55748390D01*
X104134500Y-57027610D01*
X104127984Y-57093767D01*
X104110477Y-57151482D01*
X104082047Y-57204670D01*
X104043788Y-57251288D01*
X103997170Y-57289547D01*
X103943982Y-57317977D01*
X103886267Y-57335484D01*
X103820110Y-57342000D01*
X102965890Y-57342000D01*
X102899733Y-57335484D01*
X102842018Y-57317977D01*
X102788830Y-57289547D01*
X102742212Y-57251288D01*
X102703953Y-57204670D01*
X102675523Y-57151482D01*
X102658016Y-57093767D01*
X102651500Y-57027610D01*
X102651500Y-55748390D01*
X102658016Y-55682233D01*
X102675523Y-55624518D01*
X102703953Y-55571330D01*
X102742212Y-55524712D01*
X102788830Y-55486453D01*
X102842018Y-55458023D01*
X102899733Y-55440516D01*
X102965890Y-55434000D01*
X103820110Y-55434000D01*
X103886267Y-55440516D01*
X103886267Y-55440516D01*
G37*
G36*
X109804941Y-51247004D02*
X109996753Y-51326455D01*
X110169390Y-51441808D01*
X110316192Y-51588610D01*
X110431545Y-51761247D01*
X110510996Y-51953059D01*
X110551500Y-52156689D01*
X110551500Y-52364311D01*
X110510996Y-52567941D01*
X110431545Y-52759753D01*
X110316192Y-52932390D01*
X110169390Y-53079192D01*
X109996753Y-53194545D01*
X109804941Y-53273996D01*
X109601311Y-53314500D01*
X109393689Y-53314500D01*
X109190059Y-53273996D01*
X108998247Y-53194545D01*
X108825610Y-53079192D01*
X108678808Y-52932390D01*
X108563455Y-52759753D01*
X108484004Y-52567941D01*
X108443500Y-52364311D01*
X108443500Y-52156689D01*
X108484004Y-51953059D01*
X108563455Y-51761247D01*
X108678808Y-51588610D01*
X108825610Y-51441808D01*
X108998247Y-51326455D01*
X109190059Y-51247004D01*
X109393689Y-51206500D01*
X109601311Y-51206500D01*
X109804941Y-51247004D01*
X109804941Y-51247004D01*
G37*
G36*
X108051500Y-53314500D02*
X105943500Y-53314500D01*
X105943500Y-51206500D01*
X108051500Y-51206500D01*
X108051500Y-53314500D01*
X108051500Y-53314500D01*
G37*
G36*
X70824000Y-52624000D02*
X68366000Y-52624000D01*
X68366000Y-40086000D01*
X70824000Y-40086000D01*
X70824000Y-52624000D01*
X70824000Y-52624000D01*
G37*
G36*
X80224000Y-52624000D02*
X77766000Y-52624000D01*
X77766000Y-40086000D01*
X80224000Y-40086000D01*
X80224000Y-52624000D01*
X80224000Y-52624000D01*
G37*
G36*
X90826000Y-50211000D02*
X88818000Y-50211000D01*
X88818000Y-40213000D01*
X90826000Y-40213000D01*
X90826000Y-50211000D01*
X90826000Y-50211000D01*
G37*
G36*
X85426000Y-50211000D02*
X83418000Y-50211000D01*
X83418000Y-40213000D01*
X85426000Y-40213000D01*
X85426000Y-50211000D01*
X85426000Y-50211000D01*
G37*
G36*
X105365000Y-48941000D02*
X103357000Y-48941000D01*
X103357000Y-40213000D01*
X105365000Y-40213000D01*
X105365000Y-48941000D01*
X105365000Y-48941000D01*
G37*
G36*
X110765000Y-48941000D02*
X108757000Y-48941000D01*
X108757000Y-40213000D01*
X110765000Y-40213000D01*
X110765000Y-48941000D01*
X110765000Y-48941000D01*
G37*
G36*
X95713000Y-48941000D02*
X93705000Y-48941000D01*
X93705000Y-40213000D01*
X95713000Y-40213000D01*
X95713000Y-48941000D01*
X95713000Y-48941000D01*
G37*
G36*
X101113000Y-48941000D02*
X99105000Y-48941000D01*
X99105000Y-40213000D01*
X101113000Y-40213000D01*
X101113000Y-48941000D01*
X101113000Y-48941000D01*
G37*
G36*
X66446400Y-47218600D02*
X48869600Y-47218600D01*
X48869600Y-44729400D01*
X66446400Y-44729400D01*
X66446400Y-47218600D01*
X66446400Y-47218600D01*
G37*
G36*
X53488242Y-42120408D02*
X53540020Y-42136114D01*
X53587736Y-42161619D01*
X53629558Y-42195942D01*
X53663881Y-42237764D01*
X53689386Y-42285480D01*
X53705092Y-42337258D01*
X53711000Y-42397241D01*
X53711000Y-44089759D01*
X53705092Y-44149742D01*
X53689386Y-44201520D01*
X53663881Y-44249236D01*
X53629558Y-44291058D01*
X53587736Y-44325381D01*
X53540020Y-44350886D01*
X53488242Y-44366592D01*
X53428259Y-44372500D01*
X52235741Y-44372500D01*
X52175758Y-44366592D01*
X52123980Y-44350886D01*
X52076264Y-44325381D01*
X52034442Y-44291058D01*
X52000119Y-44249236D01*
X51974614Y-44201520D01*
X51958908Y-44149742D01*
X51953000Y-44089759D01*
X51953000Y-42397241D01*
X51958908Y-42337258D01*
X51974614Y-42285480D01*
X52000119Y-42237764D01*
X52034442Y-42195942D01*
X52076264Y-42161619D01*
X52123980Y-42136114D01*
X52175758Y-42120408D01*
X52235741Y-42114500D01*
X53428259Y-42114500D01*
X53488242Y-42120408D01*
X53488242Y-42120408D01*
G37*
G36*
X50688242Y-42120408D02*
X50740020Y-42136114D01*
X50787736Y-42161619D01*
X50829558Y-42195942D01*
X50863881Y-42237764D01*
X50889386Y-42285480D01*
X50905092Y-42337258D01*
X50911000Y-42397241D01*
X50911000Y-44089759D01*
X50905092Y-44149742D01*
X50889386Y-44201520D01*
X50863881Y-44249236D01*
X50829558Y-44291058D01*
X50787736Y-44325381D01*
X50740020Y-44350886D01*
X50688242Y-44366592D01*
X50628259Y-44372500D01*
X49435741Y-44372500D01*
X49375758Y-44366592D01*
X49323980Y-44350886D01*
X49276264Y-44325381D01*
X49234442Y-44291058D01*
X49200119Y-44249236D01*
X49174614Y-44201520D01*
X49158908Y-44149742D01*
X49153000Y-44089759D01*
X49153000Y-42397241D01*
X49158908Y-42337258D01*
X49174614Y-42285480D01*
X49200119Y-42237764D01*
X49234442Y-42195942D01*
X49276264Y-42161619D01*
X49323980Y-42136114D01*
X49375758Y-42120408D01*
X49435741Y-42114500D01*
X50628259Y-42114500D01*
X50688242Y-42120408D01*
X50688242Y-42120408D01*
G37*
G36*
X59636807Y-39954074D02*
X59668293Y-39957175D01*
X59678225Y-39960188D01*
X59723326Y-39973869D01*
X59732205Y-39977548D01*
X59756238Y-39982330D01*
X59780742Y-39982332D01*
X59804776Y-39977554D01*
X59813664Y-39973872D01*
X59858775Y-39960188D01*
X59868707Y-39957175D01*
X59900193Y-39954074D01*
X59924641Y-39951666D01*
X60412359Y-39951666D01*
X60430695Y-39953472D01*
X60442948Y-39954074D01*
X60461368Y-39954074D01*
X60503518Y-39958225D01*
X60517302Y-39959583D01*
X60517303Y-39959583D01*
X60523444Y-39960188D01*
X60607525Y-39976913D01*
X60613428Y-39978704D01*
X60613435Y-39978705D01*
X60654755Y-39991240D01*
X60667221Y-39995021D01*
X60746422Y-40027827D01*
X60751865Y-40030736D01*
X60751869Y-40030738D01*
X60795996Y-40054324D01*
X60796001Y-40054327D01*
X60801441Y-40057235D01*
X60872723Y-40104864D01*
X60920947Y-40144441D01*
X60981559Y-40205053D01*
X61021136Y-40253277D01*
X61068765Y-40324559D01*
X61071673Y-40329999D01*
X61071676Y-40330004D01*
X61095262Y-40374131D01*
X61098173Y-40379578D01*
X61130979Y-40458779D01*
X61132771Y-40464687D01*
X61147295Y-40512565D01*
X61147296Y-40512572D01*
X61149087Y-40518475D01*
X61165812Y-40602556D01*
X61171926Y-40664632D01*
X61171926Y-40683052D01*
X61172528Y-40695305D01*
X61174334Y-40713641D01*
X61174334Y-41201359D01*
X61172528Y-41219695D01*
X61171926Y-41231948D01*
X61171926Y-41250368D01*
X61165812Y-41312444D01*
X61149087Y-41396525D01*
X61147296Y-41402428D01*
X61147295Y-41402435D01*
X61134760Y-41443755D01*
X61130979Y-41456221D01*
X61098173Y-41535422D01*
X61095264Y-41540865D01*
X61095262Y-41540869D01*
X61071676Y-41584996D01*
X61071673Y-41585001D01*
X61068765Y-41590441D01*
X61021136Y-41661723D01*
X60981559Y-41709947D01*
X60920947Y-41770559D01*
X60872723Y-41810136D01*
X60801441Y-41857765D01*
X60796001Y-41860673D01*
X60795996Y-41860676D01*
X60751869Y-41884262D01*
X60751865Y-41884264D01*
X60746422Y-41887173D01*
X60667221Y-41919979D01*
X60661312Y-41921771D01*
X60661313Y-41921771D01*
X60613435Y-41936295D01*
X60613428Y-41936296D01*
X60607525Y-41938087D01*
X60523444Y-41954812D01*
X60517303Y-41955417D01*
X60517302Y-41955417D01*
X60503518Y-41956775D01*
X60461368Y-41960926D01*
X60442948Y-41960926D01*
X60430695Y-41961528D01*
X60412359Y-41963334D01*
X59924641Y-41963334D01*
X59888018Y-41959727D01*
X59868707Y-41957825D01*
X59820828Y-41943301D01*
X59813674Y-41941131D01*
X59804795Y-41937452D01*
X59780762Y-41932670D01*
X59756258Y-41932668D01*
X59732224Y-41937446D01*
X59723336Y-41941128D01*
X59716171Y-41943301D01*
X59716172Y-41943301D01*
X59668293Y-41957825D01*
X59648982Y-41959727D01*
X59612359Y-41963334D01*
X59124641Y-41963334D01*
X59106305Y-41961528D01*
X59094052Y-41960926D01*
X59075632Y-41960926D01*
X59033482Y-41956775D01*
X59019698Y-41955417D01*
X59019697Y-41955417D01*
X59013556Y-41954812D01*
X58929475Y-41938087D01*
X58923572Y-41936296D01*
X58923565Y-41936295D01*
X58875687Y-41921771D01*
X58875688Y-41921771D01*
X58869779Y-41919979D01*
X58790578Y-41887173D01*
X58785135Y-41884264D01*
X58785131Y-41884262D01*
X58741004Y-41860676D01*
X58740999Y-41860673D01*
X58735559Y-41857765D01*
X58664277Y-41810136D01*
X58616053Y-41770559D01*
X58555441Y-41709947D01*
X58515864Y-41661723D01*
X58468235Y-41590441D01*
X58465327Y-41585001D01*
X58465324Y-41584996D01*
X58441738Y-41540869D01*
X58441736Y-41540865D01*
X58438827Y-41535422D01*
X58406021Y-41456221D01*
X58402240Y-41443755D01*
X58389705Y-41402435D01*
X58389704Y-41402428D01*
X58387913Y-41396525D01*
X58371188Y-41312444D01*
X58365074Y-41250368D01*
X58365074Y-41231948D01*
X58364472Y-41219695D01*
X58362666Y-41201359D01*
X58362666Y-40713641D01*
X58364472Y-40695305D01*
X58365074Y-40683052D01*
X58365074Y-40664632D01*
X58371188Y-40602556D01*
X58387913Y-40518475D01*
X58389704Y-40512572D01*
X58389705Y-40512565D01*
X58404229Y-40464687D01*
X58406021Y-40458779D01*
X58438827Y-40379578D01*
X58441738Y-40374131D01*
X58465324Y-40330004D01*
X58465327Y-40329999D01*
X58468235Y-40324559D01*
X58515864Y-40253277D01*
X58555441Y-40205053D01*
X58616053Y-40144441D01*
X58664277Y-40104864D01*
X58735559Y-40057235D01*
X58740999Y-40054327D01*
X58741004Y-40054324D01*
X58785131Y-40030738D01*
X58785135Y-40030736D01*
X58790578Y-40027827D01*
X58869779Y-39995021D01*
X58882245Y-39991240D01*
X58923565Y-39978705D01*
X58923572Y-39978704D01*
X58929475Y-39976913D01*
X59013556Y-39960188D01*
X59019697Y-39959583D01*
X59019698Y-39959583D01*
X59033482Y-39958225D01*
X59075632Y-39954074D01*
X59094052Y-39954074D01*
X59106305Y-39953472D01*
X59124641Y-39951666D01*
X59612359Y-39951666D01*
X59636807Y-39954074D01*
X59636807Y-39954074D01*
G37*
M02*
