M48
;DRILL file {KiCad 5.0.2+dfsg1-1} date mer. 03 mars 2021 18:09:17 CET
;FORMAT={-:-/ absolute / inch / decimal}
FMAT,2
INCH,TZ
T1C0.0250
T2C0.0315
T3C0.0394
%
G90
G05
T1
X2.1175Y-2.1625
X2.1475Y-1.7025
X2.15Y-2.12
X2.195Y-1.9175
X2.245Y-2.185
X2.295Y-1.8925
X2.34Y-1.96
X2.3425Y-2.0075
X2.38Y-1.7325
X2.41Y-2.19
X2.465Y-2.08
X2.495Y-2.19
X2.4975Y-2.115
X2.5275Y-2.045
X2.5475Y-2.115
X2.5775Y-2.3375
X2.625Y-2.3825
X2.665Y-2.23
X2.715Y-2.46
X2.8175Y-2.125
X2.86Y-2.09
X2.9025Y-2.075
X2.91Y-2.2275
X3.04Y-1.785
X3.05Y-2.1925
X3.145Y-2.19
X3.145Y-2.3775
X3.3875Y-1.8075
X3.3875Y-2.28
X3.3925Y-2.43
X3.4425Y-1.8625
X3.4775Y-1.8975
X3.5375Y-2.0375
X3.595Y-2.1225
X3.6175Y-1.92
X3.63Y-2.0875
X3.63Y-2.2075
X3.635Y-2.38
X3.6525Y-2.285
X3.7275Y-1.9625
X3.7925Y-1.925
X3.8Y-2.095
X3.805Y-1.865
X3.84Y-2.0775
X3.9675Y-2.0375
X4.005Y-2.005
X4.1075Y-1.965
X4.1725Y-1.6175
X4.2055Y-1.6525
X4.2525Y-1.9025
X4.2575Y-1.6075
X4.2575Y-1.695
X4.2575Y-1.755
X4.2575Y-1.8025
X4.2575Y-1.8525
T2
X4.2125Y-2.0575
X4.3109Y-2.0575
T3
X1.935Y-2.535
X1.935Y-2.635
X2.035Y-2.535
X2.035Y-2.635
X2.135Y-2.535
X2.135Y-2.635
X2.235Y-2.535
X2.235Y-2.635
X2.335Y-2.535
X2.335Y-2.635
X2.435Y-2.535
X2.435Y-2.635
X2.535Y-2.535
X2.535Y-2.635
X2.635Y-2.535
X2.635Y-2.635
X2.735Y-2.535
X2.735Y-2.635
X2.835Y-2.535
X2.835Y-2.635
X2.935Y-2.535
X2.935Y-2.635
X3.035Y-2.535
X3.035Y-2.635
X3.135Y-2.535
X3.135Y-2.635
X3.235Y-2.535
X3.235Y-2.635
X3.335Y-2.535
X3.335Y-2.635
X3.435Y-2.535
X3.435Y-2.635
X3.535Y-2.535
X3.535Y-2.635
X3.635Y-2.535
X3.635Y-2.635
X3.735Y-2.535
X3.735Y-2.635
X3.835Y-2.535
X3.835Y-2.635
X3.935Y-2.535
X3.935Y-2.635
X4.035Y-2.535
X4.035Y-2.635
X4.135Y-2.535
X4.135Y-2.635
X4.235Y-2.535
X4.235Y-2.635
X4.335Y-2.535
X4.335Y-2.635
T0
M30
