G04 #@! TF.GenerationSoftware,KiCad,Pcbnew,5.0.2+dfsg1-1*
G04 #@! TF.CreationDate,2021-03-03T18:09:01+01:00*
G04 #@! TF.ProjectId,nova,6e6f7661-2e6b-4696-9361-645f70636258,2020*
G04 #@! TF.SameCoordinates,Original*
G04 #@! TF.FileFunction,Copper,L2,Bot*
G04 #@! TF.FilePolarity,Positive*
%FSLAX46Y46*%
G04 Gerber Fmt 4.6, Leading zero omitted, Abs format (unit mm)*
G04 Created by KiCad (PCBNEW 5.0.2+dfsg1-1) date mer. 03 mars 2021 18:09:01 CET*
%MOMM*%
%LPD*%
G01*
G04 APERTURE LIST*
G04 #@! TA.AperFunction,NonConductor*
%ADD10C,0.381000*%
G04 #@! TD*
G04 #@! TA.AperFunction,ComponentPad*
%ADD11R,1.700000X1.700000*%
G04 #@! TD*
G04 #@! TA.AperFunction,ComponentPad*
%ADD12O,1.700000X1.700000*%
G04 #@! TD*
G04 #@! TA.AperFunction,Conductor*
%ADD13C,0.150000*%
G04 #@! TD*
G04 #@! TA.AperFunction,SMDPad,CuDef*
%ADD14C,1.250000*%
G04 #@! TD*
G04 #@! TA.AperFunction,ComponentPad*
%ADD15R,1.600000X1.600000*%
G04 #@! TD*
G04 #@! TA.AperFunction,ComponentPad*
%ADD16C,1.600000*%
G04 #@! TD*
G04 #@! TA.AperFunction,ViaPad*
%ADD17C,0.889000*%
G04 #@! TD*
G04 #@! TA.AperFunction,Conductor*
%ADD18C,0.381000*%
G04 #@! TD*
G04 #@! TA.AperFunction,Conductor*
%ADD19C,0.254000*%
G04 #@! TD*
G04 APERTURE END LIST*
D10*
X112014000Y-68262500D02*
G75*
G02X110172500Y-70104000I-1841500J0D01*
G01*
X48895000Y-70104000D02*
G75*
G02X46990000Y-68199000I0J1905000D01*
G01*
X109156500Y-38163500D02*
G75*
G02X112014000Y-41021000I0J-2857500D01*
G01*
X46990000Y-44323000D02*
G75*
G02X53149500Y-38163500I6159500J0D01*
G01*
X110172500Y-70104000D02*
X48895000Y-70104000D01*
X112014000Y-41021000D02*
X112014000Y-68262500D01*
X53149500Y-38163500D02*
X109156500Y-38163500D01*
X46990000Y-68199000D02*
X46990000Y-44323000D01*
D11*
G04 #@! TO.P,J1,1*
G04 #@! TO.N,N/C*
X49149000Y-66929000D03*
D12*
G04 #@! TO.P,J1,2*
G04 #@! TO.N,GND*
X49149000Y-64389000D03*
G04 #@! TO.P,J1,3*
G04 #@! TO.N,/A15*
X51689000Y-66929000D03*
G04 #@! TO.P,J1,4*
G04 #@! TO.N,/A14*
X51689000Y-64389000D03*
G04 #@! TO.P,J1,5*
G04 #@! TO.N,/A13*
X54229000Y-66929000D03*
G04 #@! TO.P,J1,6*
G04 #@! TO.N,/A12*
X54229000Y-64389000D03*
G04 #@! TO.P,J1,7*
G04 #@! TO.N,/A11*
X56769000Y-66929000D03*
G04 #@! TO.P,J1,8*
G04 #@! TO.N,/A10*
X56769000Y-64389000D03*
G04 #@! TO.P,J1,9*
G04 #@! TO.N,/A9*
X59309000Y-66929000D03*
G04 #@! TO.P,J1,10*
G04 #@! TO.N,/A8*
X59309000Y-64389000D03*
G04 #@! TO.P,J1,11*
G04 #@! TO.N,/A7*
X61849000Y-66929000D03*
G04 #@! TO.P,J1,12*
G04 #@! TO.N,/A6*
X61849000Y-64389000D03*
G04 #@! TO.P,J1,13*
G04 #@! TO.N,/A5*
X64389000Y-66929000D03*
G04 #@! TO.P,J1,14*
G04 #@! TO.N,/A4*
X64389000Y-64389000D03*
G04 #@! TO.P,J1,15*
G04 #@! TO.N,/A3*
X66929000Y-66929000D03*
G04 #@! TO.P,J1,16*
G04 #@! TO.N,/A2*
X66929000Y-64389000D03*
G04 #@! TO.P,J1,17*
G04 #@! TO.N,/A1*
X69469000Y-66929000D03*
G04 #@! TO.P,J1,18*
G04 #@! TO.N,/A0*
X69469000Y-64389000D03*
G04 #@! TO.P,J1,19*
G04 #@! TO.N,/D7*
X72009000Y-66929000D03*
G04 #@! TO.P,J1,20*
G04 #@! TO.N,/D6*
X72009000Y-64389000D03*
G04 #@! TO.P,J1,21*
G04 #@! TO.N,/D5*
X74549000Y-66929000D03*
G04 #@! TO.P,J1,22*
G04 #@! TO.N,/D4*
X74549000Y-64389000D03*
G04 #@! TO.P,J1,23*
G04 #@! TO.N,/D3*
X77089000Y-66929000D03*
G04 #@! TO.P,J1,24*
G04 #@! TO.N,/D2*
X77089000Y-64389000D03*
G04 #@! TO.P,J1,25*
G04 #@! TO.N,/D1*
X79629000Y-66929000D03*
G04 #@! TO.P,J1,26*
G04 #@! TO.N,/D0*
X79629000Y-64389000D03*
G04 #@! TO.P,J1,27*
G04 #@! TO.N,VCC*
X82169000Y-66929000D03*
G04 #@! TO.P,J1,28*
G04 #@! TO.N,MREQ*
X82169000Y-64389000D03*
G04 #@! TO.P,J1,29*
G04 #@! TO.N,N/C*
X84709000Y-66929000D03*
G04 #@! TO.P,J1,30*
X84709000Y-64389000D03*
G04 #@! TO.P,J1,31*
G04 #@! TO.N,IORQ*
X87249000Y-66929000D03*
G04 #@! TO.P,J1,32*
G04 #@! TO.N,RD*
X87249000Y-64389000D03*
G04 #@! TO.P,J1,33*
G04 #@! TO.N,WR*
X89789000Y-66929000D03*
G04 #@! TO.P,J1,34*
G04 #@! TO.N,N/C*
X89789000Y-64389000D03*
G04 #@! TO.P,J1,35*
X92329000Y-66929000D03*
G04 #@! TO.P,J1,36*
X92329000Y-64389000D03*
G04 #@! TO.P,J1,37*
X94869000Y-66929000D03*
G04 #@! TO.P,J1,38*
X94869000Y-64389000D03*
G04 #@! TO.P,J1,39*
X97409000Y-66929000D03*
G04 #@! TO.P,J1,40*
X97409000Y-64389000D03*
G04 #@! TO.P,J1,41*
G04 #@! TO.N,/RESET*
X99949000Y-66929000D03*
G04 #@! TO.P,J1,42*
G04 #@! TO.N,N/C*
X99949000Y-64389000D03*
G04 #@! TO.P,J1,43*
G04 #@! TO.N,/ROMDIS*
X102489000Y-66929000D03*
G04 #@! TO.P,J1,44*
G04 #@! TO.N,N/C*
X102489000Y-64389000D03*
G04 #@! TO.P,J1,45*
G04 #@! TO.N,/RAMDIS*
X105029000Y-66929000D03*
G04 #@! TO.P,J1,46*
G04 #@! TO.N,N/C*
X105029000Y-64389000D03*
G04 #@! TO.P,J1,47*
X107569000Y-66929000D03*
G04 #@! TO.P,J1,48*
X107569000Y-64389000D03*
G04 #@! TO.P,J1,49*
G04 #@! TO.N,GND*
X110109000Y-66929000D03*
G04 #@! TO.P,J1,50*
G04 #@! TO.N,N/C*
X110109000Y-64389000D03*
G04 #@! TD*
D13*
G04 #@! TO.N,VCC*
G04 #@! TO.C,C4*
G36*
X88153504Y-57863704D02*
X88177773Y-57867304D01*
X88201571Y-57873265D01*
X88224671Y-57881530D01*
X88246849Y-57892020D01*
X88267893Y-57904633D01*
X88287598Y-57919247D01*
X88305777Y-57935723D01*
X88322253Y-57953902D01*
X88336867Y-57973607D01*
X88349480Y-57994651D01*
X88359970Y-58016829D01*
X88368235Y-58039929D01*
X88374196Y-58063727D01*
X88377796Y-58087996D01*
X88379000Y-58112500D01*
X88379000Y-59362500D01*
X88377796Y-59387004D01*
X88374196Y-59411273D01*
X88368235Y-59435071D01*
X88359970Y-59458171D01*
X88349480Y-59480349D01*
X88336867Y-59501393D01*
X88322253Y-59521098D01*
X88305777Y-59539277D01*
X88287598Y-59555753D01*
X88267893Y-59570367D01*
X88246849Y-59582980D01*
X88224671Y-59593470D01*
X88201571Y-59601735D01*
X88177773Y-59607696D01*
X88153504Y-59611296D01*
X88129000Y-59612500D01*
X87379000Y-59612500D01*
X87354496Y-59611296D01*
X87330227Y-59607696D01*
X87306429Y-59601735D01*
X87283329Y-59593470D01*
X87261151Y-59582980D01*
X87240107Y-59570367D01*
X87220402Y-59555753D01*
X87202223Y-59539277D01*
X87185747Y-59521098D01*
X87171133Y-59501393D01*
X87158520Y-59480349D01*
X87148030Y-59458171D01*
X87139765Y-59435071D01*
X87133804Y-59411273D01*
X87130204Y-59387004D01*
X87129000Y-59362500D01*
X87129000Y-58112500D01*
X87130204Y-58087996D01*
X87133804Y-58063727D01*
X87139765Y-58039929D01*
X87148030Y-58016829D01*
X87158520Y-57994651D01*
X87171133Y-57973607D01*
X87185747Y-57953902D01*
X87202223Y-57935723D01*
X87220402Y-57919247D01*
X87240107Y-57904633D01*
X87261151Y-57892020D01*
X87283329Y-57881530D01*
X87306429Y-57873265D01*
X87330227Y-57867304D01*
X87354496Y-57863704D01*
X87379000Y-57862500D01*
X88129000Y-57862500D01*
X88153504Y-57863704D01*
X88153504Y-57863704D01*
G37*
D14*
G04 #@! TD*
G04 #@! TO.P,C4,1*
G04 #@! TO.N,VCC*
X87754000Y-58737500D03*
D13*
G04 #@! TO.N,GND*
G04 #@! TO.C,C4*
G36*
X90953504Y-57863704D02*
X90977773Y-57867304D01*
X91001571Y-57873265D01*
X91024671Y-57881530D01*
X91046849Y-57892020D01*
X91067893Y-57904633D01*
X91087598Y-57919247D01*
X91105777Y-57935723D01*
X91122253Y-57953902D01*
X91136867Y-57973607D01*
X91149480Y-57994651D01*
X91159970Y-58016829D01*
X91168235Y-58039929D01*
X91174196Y-58063727D01*
X91177796Y-58087996D01*
X91179000Y-58112500D01*
X91179000Y-59362500D01*
X91177796Y-59387004D01*
X91174196Y-59411273D01*
X91168235Y-59435071D01*
X91159970Y-59458171D01*
X91149480Y-59480349D01*
X91136867Y-59501393D01*
X91122253Y-59521098D01*
X91105777Y-59539277D01*
X91087598Y-59555753D01*
X91067893Y-59570367D01*
X91046849Y-59582980D01*
X91024671Y-59593470D01*
X91001571Y-59601735D01*
X90977773Y-59607696D01*
X90953504Y-59611296D01*
X90929000Y-59612500D01*
X90179000Y-59612500D01*
X90154496Y-59611296D01*
X90130227Y-59607696D01*
X90106429Y-59601735D01*
X90083329Y-59593470D01*
X90061151Y-59582980D01*
X90040107Y-59570367D01*
X90020402Y-59555753D01*
X90002223Y-59539277D01*
X89985747Y-59521098D01*
X89971133Y-59501393D01*
X89958520Y-59480349D01*
X89948030Y-59458171D01*
X89939765Y-59435071D01*
X89933804Y-59411273D01*
X89930204Y-59387004D01*
X89929000Y-59362500D01*
X89929000Y-58112500D01*
X89930204Y-58087996D01*
X89933804Y-58063727D01*
X89939765Y-58039929D01*
X89948030Y-58016829D01*
X89958520Y-57994651D01*
X89971133Y-57973607D01*
X89985747Y-57953902D01*
X90002223Y-57935723D01*
X90020402Y-57919247D01*
X90040107Y-57904633D01*
X90061151Y-57892020D01*
X90083329Y-57881530D01*
X90106429Y-57873265D01*
X90130227Y-57867304D01*
X90154496Y-57863704D01*
X90179000Y-57862500D01*
X90929000Y-57862500D01*
X90953504Y-57863704D01*
X90953504Y-57863704D01*
G37*
D14*
G04 #@! TD*
G04 #@! TO.P,C4,2*
G04 #@! TO.N,GND*
X90554000Y-58737500D03*
D15*
G04 #@! TO.P,C5,1*
G04 #@! TO.N,VCC*
X106997500Y-52260500D03*
D16*
G04 #@! TO.P,C5,2*
G04 #@! TO.N,GND*
X109497500Y-52260500D03*
G04 #@! TD*
D17*
G04 #@! TO.N,/A0*
X61214000Y-55626000D03*
X96329500Y-48895000D03*
G04 #@! TO.N,/A1*
X86042500Y-45910500D03*
X57023000Y-55499000D03*
G04 #@! TO.N,/A10*
X108140500Y-47053500D03*
X58293000Y-48069500D03*
G04 #@! TO.N,/A11*
X108140500Y-45783500D03*
X55753000Y-48704500D03*
G04 #@! TO.N,/A12*
X108140500Y-44577000D03*
X54610000Y-53848000D03*
G04 #@! TO.N,/A13*
X106819700Y-41973500D03*
G04 #@! TO.N,/A2*
X96520000Y-53213000D03*
G04 #@! TO.N,/A3*
X97536000Y-52768500D03*
G04 #@! TO.N,/A4*
X96647000Y-47371000D03*
G04 #@! TO.N,/A5*
X91884500Y-48768000D03*
G04 #@! TO.N,/A6*
X88328500Y-48196500D03*
G04 #@! TO.N,/A7*
X53784500Y-54927500D03*
X108140500Y-43053000D03*
G04 #@! TO.N,/A8*
X59499500Y-50990500D03*
X87439500Y-47307500D03*
G04 #@! TO.N,/A9*
X108013500Y-48323500D03*
X59436000Y-49784000D03*
G04 #@! TO.N,/D0*
X63373000Y-55626000D03*
G04 #@! TO.N,/D1*
X66675000Y-60515500D03*
G04 #@! TO.N,/D2*
X65468500Y-59372500D03*
G04 #@! TO.N,GND*
X108140500Y-40830500D03*
X54546500Y-43243500D03*
X100774500Y-51752500D03*
X68961000Y-62484000D03*
X89852500Y-51752500D03*
G04 #@! TO.N,IORQ*
X91313000Y-53911500D03*
G04 #@! TO.N,MREQ*
X86042500Y-57912000D03*
G04 #@! TO.N,VCC*
X86169500Y-61722000D03*
X92329000Y-60452000D03*
X73914000Y-56578500D03*
X67691000Y-56642000D03*
X104330500Y-49911000D03*
X94678500Y-49847500D03*
G04 #@! TO.N,WR*
X63436500Y-53721000D03*
X92202000Y-53022500D03*
X79883000Y-60388500D03*
G04 #@! TO.N,/A14*
X105981500Y-41084500D03*
G04 #@! TO.N,RD*
X64706500Y-53721000D03*
G04 #@! TO.N,/SEL1*
X60452000Y-44005500D03*
X77216000Y-45339000D03*
G04 #@! TO.N,/MAP3*
X73723500Y-52705000D03*
X101727000Y-50927000D03*
G04 #@! TO.N,/MAP2*
X72644000Y-53086000D03*
X92202000Y-56070500D03*
G04 #@! TO.N,/MAP1*
X92773500Y-58039000D03*
X71564500Y-53975000D03*
G04 #@! TO.N,/SEL0*
X77470000Y-55689500D03*
X62611000Y-52832000D03*
G04 #@! TO.N,/RAMSEL*
X79883000Y-55626000D03*
X64198500Y-51943000D03*
G04 #@! TD*
D18*
G04 #@! TO.N,/A0*
X69469000Y-64389000D02*
X69469000Y-63978538D01*
X61214000Y-52988462D02*
X61214000Y-55626000D01*
X65608906Y-51730476D02*
X64983229Y-51104799D01*
X64983229Y-51104799D02*
X63097663Y-51104799D01*
X86644496Y-51730476D02*
X65608906Y-51730476D01*
X88159141Y-50215831D02*
X86644496Y-51730476D01*
X92503404Y-50215831D02*
X88159141Y-50215831D01*
X63097663Y-51104799D02*
X61214000Y-52988462D01*
X93824235Y-48895000D02*
X92503404Y-50215831D01*
X96329500Y-48895000D02*
X93824235Y-48895000D01*
G04 #@! TO.N,/A1*
X66905106Y-48069500D02*
X66282816Y-47447210D01*
X66282816Y-47447210D02*
X60532252Y-47447210D01*
X57023000Y-50956462D02*
X57023000Y-55499000D01*
X60532252Y-47447210D02*
X57023000Y-50956462D01*
X86042500Y-45910500D02*
X83883500Y-48069500D01*
X83883500Y-48069500D02*
X66905106Y-48069500D01*
G04 #@! TO.N,/A10*
X56109509Y-50252991D02*
X58293000Y-48069500D01*
X56109509Y-57760509D02*
X56109509Y-50252991D01*
X56769000Y-64389000D02*
X56769000Y-58420000D01*
X56769000Y-58420000D02*
X56109509Y-57760509D01*
X67096302Y-47434500D02*
X66423213Y-46761411D01*
X96415033Y-45072299D02*
X85598000Y-45072299D01*
X66423213Y-46761411D02*
X59601089Y-46761411D01*
X59601089Y-46761411D02*
X58293000Y-48069500D01*
X85598000Y-45072299D02*
X83235799Y-47434500D01*
X98396234Y-47053500D02*
X96415033Y-45072299D01*
X108140500Y-47053500D02*
X98396234Y-47053500D01*
X83235799Y-47434500D02*
X67096302Y-47434500D01*
G04 #@! TO.N,/A11*
X56769000Y-66929000D02*
X55525299Y-65685299D01*
X55525299Y-53911500D02*
X55525299Y-53620299D01*
X55525299Y-53078261D02*
X55525299Y-54102000D01*
X55525299Y-54102000D02*
X55525299Y-53911500D01*
X55525299Y-56070500D02*
X55525299Y-54102000D01*
X55525299Y-65685299D02*
X55525299Y-56070500D01*
X55525299Y-56070500D02*
X55525299Y-49911000D01*
X55525299Y-49911000D02*
X55525299Y-49560818D01*
X55525299Y-48932201D02*
X55753000Y-48704500D01*
X55525299Y-49911000D02*
X55525299Y-48932201D01*
X66665199Y-46177201D02*
X58280299Y-46177201D01*
X96590164Y-44421234D02*
X85422869Y-44421234D01*
X83044603Y-46799500D02*
X67287498Y-46799500D01*
X67287498Y-46799500D02*
X66665199Y-46177201D01*
X97952430Y-45783500D02*
X96590164Y-44421234D01*
X58280299Y-46177201D02*
X55753000Y-48704500D01*
X85422869Y-44421234D02*
X83044603Y-46799500D01*
X108140500Y-45783500D02*
X97952430Y-45783500D01*
G04 #@! TO.N,/A12*
X77152500Y-46177201D02*
X75872565Y-46177201D01*
X76813663Y-46177201D02*
X77152500Y-46177201D01*
X76136500Y-46177201D02*
X75872565Y-46177201D01*
X97577476Y-44577000D02*
X108140500Y-44577000D01*
X96837500Y-43837024D02*
X97577476Y-44577000D01*
X85153500Y-43837024D02*
X96837500Y-43837024D01*
X54610000Y-48479962D02*
X54610000Y-53848000D01*
X57560462Y-45529500D02*
X54610000Y-48479962D01*
X66843694Y-45529500D02*
X57560462Y-45529500D01*
X67491395Y-46177201D02*
X66843694Y-45529500D01*
X82813323Y-46177201D02*
X85153500Y-43837024D01*
X76136500Y-46177201D02*
X82813323Y-46177201D01*
X76136500Y-46177201D02*
X67491395Y-46177201D01*
G04 #@! TO.N,/A13*
X52932701Y-65632701D02*
X54229000Y-66929000D01*
X52932701Y-48286299D02*
X52932701Y-65632701D01*
X106819700Y-41973500D02*
X59245500Y-41973500D01*
X59245500Y-41973500D02*
X52932701Y-48286299D01*
G04 #@! TO.N,/A2*
X93572701Y-62101230D02*
X96520000Y-59153931D01*
X93572701Y-67525977D02*
X93572701Y-62101230D01*
X96520000Y-56578500D02*
X96520000Y-53213000D01*
X68820411Y-68756911D02*
X92341767Y-68756911D01*
X68225299Y-68161799D02*
X68820411Y-68756911D01*
X68225299Y-66357500D02*
X68225299Y-68161799D01*
X96520000Y-59153931D02*
X96520000Y-56578500D01*
X92341767Y-68756911D02*
X93572701Y-67525977D01*
X66929000Y-65061201D02*
X68225299Y-66357500D01*
X66929000Y-64389000D02*
X66929000Y-65061201D01*
G04 #@! TO.N,/A3*
X97536000Y-56324500D02*
X97536000Y-52768500D01*
X97536000Y-58964127D02*
X97536000Y-56324500D01*
X96112701Y-60387426D02*
X97536000Y-58964127D01*
X96112701Y-67525977D02*
X96112701Y-60387426D01*
X94297557Y-69341121D02*
X96112701Y-67525977D01*
X68139040Y-69341121D02*
X94297557Y-69341121D01*
X66929000Y-68131081D02*
X68139040Y-69341121D01*
X66929000Y-66929000D02*
X66929000Y-68131081D01*
G04 #@! TO.N,/A4*
X60349541Y-56954579D02*
X64389000Y-60994038D01*
X64389000Y-60994038D02*
X64389000Y-64389000D01*
X62893766Y-50482500D02*
X60349541Y-53026724D01*
X65187126Y-50482500D02*
X62893766Y-50482500D01*
X94522038Y-47371000D02*
X92261417Y-49631621D01*
X60349541Y-53026724D02*
X60349541Y-56954579D01*
X87917154Y-49631621D02*
X86441982Y-51106794D01*
X92261417Y-49631621D02*
X87917154Y-49631621D01*
X96647000Y-47371000D02*
X94522038Y-47371000D01*
X86441982Y-51106794D02*
X65811420Y-51106794D01*
X65811420Y-51106794D02*
X65187126Y-50482500D01*
G04 #@! TO.N,/A5*
X63092701Y-60679701D02*
X63092701Y-65632701D01*
X65352952Y-49822130D02*
X62727939Y-49822130D01*
X66053406Y-50522584D02*
X65352952Y-49822130D01*
X86199995Y-50522584D02*
X66053406Y-50522584D01*
X62727939Y-49822130D02*
X59765331Y-52784738D01*
X87675168Y-49047411D02*
X86199995Y-50522584D01*
X63092701Y-65632701D02*
X64389000Y-66929000D01*
X59765331Y-52784738D02*
X59765331Y-57352331D01*
X91478089Y-49047411D02*
X87675168Y-49047411D01*
X59765331Y-57352331D02*
X63092701Y-60679701D01*
X91884500Y-48768000D02*
X91478089Y-49047411D01*
G04 #@! TO.N,/A6*
X61849000Y-60439299D02*
X61849000Y-64389000D01*
X59181121Y-57771420D02*
X61849000Y-60439299D01*
X59181121Y-52515379D02*
X59181121Y-57771420D01*
X62458580Y-49237920D02*
X59181121Y-52515379D01*
X65594938Y-49237920D02*
X62458580Y-49237920D01*
X66295392Y-49938374D02*
X65594938Y-49237920D01*
X85958009Y-49938374D02*
X66295392Y-49938374D01*
X87699883Y-48196500D02*
X85958009Y-49938374D01*
X88328500Y-48196500D02*
X87699883Y-48196500D01*
G04 #@! TO.N,/A7*
X53771799Y-54914799D02*
X53784500Y-54927500D01*
X57785000Y-44450000D02*
X53771799Y-48463201D01*
X53771799Y-48463201D02*
X53771799Y-54914799D01*
X59182000Y-43053000D02*
X57785000Y-44450000D01*
X108140500Y-43053000D02*
X59182000Y-43053000D01*
G04 #@! TO.N,/A8*
X59309000Y-64389000D02*
X59309000Y-64262125D01*
X59309000Y-64389000D02*
X59309000Y-63186919D01*
X59499500Y-50990500D02*
X58596911Y-51893089D01*
X59309000Y-58751089D02*
X58596911Y-58039000D01*
X59309000Y-64389000D02*
X59309000Y-58751089D01*
X58596911Y-51893089D02*
X58596911Y-58039000D01*
X61874370Y-48615630D02*
X59499500Y-50990500D01*
X65798844Y-48615630D02*
X61874370Y-48615630D01*
X66471924Y-49288710D02*
X65798844Y-48615630D01*
X85458290Y-49288710D02*
X66471924Y-49288710D01*
X87439500Y-47307500D02*
X85458290Y-49288710D01*
G04 #@! TO.N,/A9*
X59309000Y-66929000D02*
X58012701Y-65632701D01*
X58012701Y-65632701D02*
X58039000Y-65606402D01*
X58012701Y-51207299D02*
X59436000Y-49784000D01*
X58012701Y-65632701D02*
X58012701Y-51207299D01*
X66040830Y-48031420D02*
X61188580Y-48031420D01*
X61188580Y-48031420D02*
X59436000Y-49784000D01*
X66713910Y-48704500D02*
X66040830Y-48031420D01*
X86868000Y-46469299D02*
X84632799Y-48704500D01*
X98840038Y-48323500D02*
X96985837Y-46469299D01*
X96985837Y-46469299D02*
X86868000Y-46469299D01*
X108013500Y-48323500D02*
X98840038Y-48323500D01*
X84632799Y-48704500D02*
X66713910Y-48704500D01*
G04 #@! TO.N,/D0*
X79629000Y-64389000D02*
X79629000Y-63186919D01*
X78740000Y-62230000D02*
X75158621Y-58648621D01*
X78740000Y-62297919D02*
X78740000Y-62230000D01*
X79629000Y-63186919D02*
X78740000Y-62297919D01*
X66395621Y-58648621D02*
X63373000Y-55626000D01*
X75158621Y-58648621D02*
X66395621Y-58648621D01*
G04 #@! TO.N,/D1*
X78385299Y-65685299D02*
X79629000Y-66929000D01*
X66675000Y-60515500D02*
X73215500Y-60515500D01*
X73215500Y-60515500D02*
X75845299Y-63145299D01*
X75845299Y-63145299D02*
X75845299Y-64985977D01*
X75845299Y-64985977D02*
X76544621Y-65685299D01*
X76544621Y-65685299D02*
X78385299Y-65685299D01*
G04 #@! TO.N,/D2*
X77089000Y-64389000D02*
X77089000Y-63186919D01*
X77089000Y-61518831D02*
X77089000Y-64389000D01*
X74942669Y-59372500D02*
X77089000Y-61518831D01*
X65468500Y-59372500D02*
X74942669Y-59372500D01*
G04 #@! TO.N,GND*
X109474000Y-41535383D02*
X109474000Y-52208630D01*
X108769117Y-40830500D02*
X109474000Y-41535383D01*
X108140500Y-40830500D02*
X108769117Y-40830500D01*
X91249710Y-59433210D02*
X92619828Y-59433210D01*
X90554000Y-58737500D02*
X91249710Y-59433210D01*
X92619828Y-59433210D02*
X93408500Y-58644538D01*
X93408500Y-58644538D02*
X92934538Y-59118500D01*
X49149000Y-48641000D02*
X54546500Y-43243500D01*
X49149000Y-64389000D02*
X49149000Y-48641000D01*
X50445299Y-65685299D02*
X49149000Y-64389000D01*
X50445299Y-67525977D02*
X50445299Y-65685299D01*
X66993322Y-62484000D02*
X65632701Y-63844621D01*
X65632701Y-63844621D02*
X65632701Y-67525977D01*
X64985977Y-68172701D02*
X51092023Y-68172701D01*
X68961000Y-62484000D02*
X66993322Y-62484000D01*
X65632701Y-67525977D02*
X64985977Y-68172701D01*
X51092023Y-68172701D02*
X50445299Y-67525977D01*
X91370117Y-51752500D02*
X100774500Y-51752500D01*
X89852500Y-51752500D02*
X91370117Y-51752500D01*
X89852500Y-52381117D02*
X89852500Y-51752500D01*
X93408500Y-58644538D02*
X93611701Y-58441337D01*
X93611701Y-58441337D02*
X93611701Y-56239663D01*
X93611701Y-56239663D02*
X92553538Y-55181500D01*
X89852500Y-53691538D02*
X89852500Y-52381117D01*
X92553538Y-55181500D02*
X91342462Y-55181500D01*
X91342462Y-55181500D02*
X89852500Y-53691538D01*
X101403117Y-51752500D02*
X100774500Y-51752500D01*
X104070117Y-54419500D02*
X101403117Y-51752500D01*
X108648500Y-54419500D02*
X104070117Y-54419500D01*
X109497500Y-52260500D02*
X109497500Y-53570500D01*
X109497500Y-53570500D02*
X108648500Y-54419500D01*
G04 #@! TO.N,IORQ*
X87249000Y-66929000D02*
X88492701Y-65685299D01*
X94195911Y-55997676D02*
X92109735Y-53911500D01*
X91728038Y-62293500D02*
X94195911Y-59825627D01*
X88492701Y-63653299D02*
X89852500Y-62293500D01*
X91941617Y-53911500D02*
X91313000Y-53911500D01*
X92109735Y-53911500D02*
X91941617Y-53911500D01*
X88492701Y-65685299D02*
X88492701Y-63653299D01*
X89852500Y-62293500D02*
X91728038Y-62293500D01*
X94195911Y-59825627D02*
X94195911Y-55997676D01*
G04 #@! TO.N,MREQ*
X82169000Y-61785500D02*
X86042500Y-57912000D01*
X82169000Y-64389000D02*
X82169000Y-61785500D01*
G04 #@! TO.N,VCC*
X87503000Y-60388500D02*
X87503000Y-58679115D01*
X86169500Y-61722000D02*
X87503000Y-60388500D01*
X89468500Y-60452000D02*
X87754000Y-58737500D01*
X92329000Y-60452000D02*
X89468500Y-60452000D01*
X83412701Y-63145299D02*
X84836000Y-61722000D01*
X84836000Y-61722000D02*
X86169500Y-61722000D01*
X82169000Y-66929000D02*
X83412701Y-65685299D01*
X83412701Y-65685299D02*
X83412701Y-63145299D01*
X73914000Y-56578500D02*
X86570000Y-56578500D01*
X87754000Y-57762500D02*
X87754000Y-58737500D01*
X86570000Y-56578500D02*
X87754000Y-57762500D01*
X73850500Y-56642000D02*
X73914000Y-56578500D01*
X67691000Y-56642000D02*
X73850500Y-56642000D01*
X104959117Y-49911000D02*
X104330500Y-49911000D01*
X105829000Y-49911000D02*
X104959117Y-49911000D01*
X106997500Y-51079500D02*
X105829000Y-49911000D01*
X106997500Y-52260500D02*
X106997500Y-51079500D01*
X94742000Y-49911000D02*
X94678500Y-49847500D01*
X104330500Y-49911000D02*
X94742000Y-49911000D01*
G04 #@! TO.N,WR*
X94780121Y-55600621D02*
X92202000Y-53022500D01*
X94780121Y-60067614D02*
X94780121Y-55600621D01*
X91032701Y-63815034D02*
X94780121Y-60067614D01*
X91032701Y-65685299D02*
X91032701Y-63815034D01*
X89789000Y-66929000D02*
X91032701Y-65685299D01*
X64770000Y-55054500D02*
X63436500Y-53721000D01*
X64973201Y-55257701D02*
X64770000Y-55054500D01*
X64973201Y-56028337D02*
X64973201Y-55257701D01*
X67009275Y-58064411D02*
X64973201Y-56028337D01*
X79883000Y-60388500D02*
X77558911Y-58064411D01*
X77558911Y-58064411D02*
X67009275Y-58064411D01*
G04 #@! TO.N,/A14*
X59245500Y-41084500D02*
X51689000Y-48641000D01*
X51689000Y-48641000D02*
X51689000Y-64389000D01*
X105981500Y-41084500D02*
X59245500Y-41084500D01*
G04 #@! TO.N,RD*
X85305977Y-68172701D02*
X86005299Y-67473379D01*
X81572023Y-68172701D02*
X85305977Y-68172701D01*
X80872701Y-67473379D02*
X81572023Y-68172701D01*
X64706500Y-53721000D02*
X65557411Y-54571911D01*
X65557411Y-54571911D02*
X65557411Y-55786351D01*
X86005299Y-67473379D02*
X86005299Y-65632701D01*
X78308201Y-57480201D02*
X80872701Y-60044701D01*
X65557411Y-55786351D02*
X67251261Y-57480201D01*
X67251261Y-57480201D02*
X78308201Y-57480201D01*
X86005299Y-65632701D02*
X87249000Y-64389000D01*
X80872701Y-60044701D02*
X80872701Y-67473379D01*
G04 #@! TO.N,/SEL1*
X65532000Y-44005500D02*
X60452000Y-44005500D01*
X66230500Y-44005500D02*
X65532000Y-44005500D01*
X67564000Y-45339000D02*
X66230500Y-44005500D01*
X77216000Y-45339000D02*
X67564000Y-45339000D01*
G04 #@! TO.N,/MAP3*
X82232500Y-52705000D02*
X73723500Y-52705000D01*
X88286869Y-50914299D02*
X86496168Y-52705000D01*
X101714299Y-50914299D02*
X88286869Y-50914299D01*
X86496168Y-52705000D02*
X82232500Y-52705000D01*
X101727000Y-50927000D02*
X101714299Y-50914299D01*
G04 #@! TO.N,/MAP2*
X73152000Y-53594000D02*
X72644000Y-53086000D01*
X85788500Y-53594000D02*
X73152000Y-53594000D01*
X88265000Y-56070500D02*
X85788500Y-53594000D01*
X92202000Y-56070500D02*
X88265000Y-56070500D01*
G04 #@! TO.N,/MAP1*
X71691500Y-53975000D02*
X71564500Y-53975000D01*
X71945500Y-54229000D02*
X71691500Y-53975000D01*
X88031197Y-57213500D02*
X85046697Y-54229000D01*
X85046697Y-54229000D02*
X71945500Y-54229000D01*
X91948000Y-57213500D02*
X88031197Y-57213500D01*
X92773500Y-58039000D02*
X91948000Y-57213500D01*
G04 #@! TO.N,/SEL0*
X65058038Y-52832000D02*
X64643000Y-52832000D01*
X67915538Y-55689500D02*
X65058038Y-52832000D01*
X77470000Y-55689500D02*
X67915538Y-55689500D01*
X62611000Y-52832000D02*
X64643000Y-52832000D01*
G04 #@! TO.N,/RAMSEL*
X64827117Y-51943000D02*
X64198500Y-51943000D01*
X67903533Y-54851299D02*
X64995234Y-51943000D01*
X64995234Y-51943000D02*
X64827117Y-51943000D01*
X79108299Y-54851299D02*
X67903533Y-54851299D01*
X79883000Y-55626000D02*
X79108299Y-54851299D01*
G04 #@! TD*
D19*
G04 #@! TO.N,GND*
G36*
X105082253Y-39738682D02*
X105069935Y-39751000D01*
X59376831Y-39751000D01*
X59245500Y-39724877D01*
X59114169Y-39751000D01*
X59114165Y-39751000D01*
X58725194Y-39828371D01*
X58284101Y-40123101D01*
X58209705Y-40234442D01*
X50838940Y-47605207D01*
X50727601Y-47679602D01*
X50653207Y-47790940D01*
X50653206Y-47790941D01*
X50453853Y-48089294D01*
X50432871Y-48120695D01*
X50355500Y-48509666D01*
X50355500Y-48509669D01*
X50329377Y-48641000D01*
X50355500Y-48772331D01*
X50355501Y-62883055D01*
X50252127Y-62952127D01*
X50056266Y-63245254D01*
X49915924Y-63117355D01*
X49505890Y-62947524D01*
X49276000Y-63068845D01*
X49276000Y-64262000D01*
X49296000Y-64262000D01*
X49296000Y-64516000D01*
X49276000Y-64516000D01*
X49276000Y-64536000D01*
X49022000Y-64536000D01*
X49022000Y-64516000D01*
X49002000Y-64516000D01*
X49002000Y-64262000D01*
X49022000Y-64262000D01*
X49022000Y-63068845D01*
X48792110Y-62947524D01*
X48382076Y-63117355D01*
X48323500Y-63170737D01*
X48323500Y-44376563D01*
X48389834Y-43552102D01*
X48574313Y-42801039D01*
X48876500Y-42089131D01*
X49288622Y-41434691D01*
X49800072Y-40854566D01*
X50397694Y-40363673D01*
X51066117Y-39974642D01*
X51788137Y-39697485D01*
X52556635Y-39536936D01*
X53191411Y-39497000D01*
X105665727Y-39497000D01*
X105082253Y-39738682D01*
X105082253Y-39738682D01*
G37*
X105082253Y-39738682D02*
X105069935Y-39751000D01*
X59376831Y-39751000D01*
X59245500Y-39724877D01*
X59114169Y-39751000D01*
X59114165Y-39751000D01*
X58725194Y-39828371D01*
X58284101Y-40123101D01*
X58209705Y-40234442D01*
X50838940Y-47605207D01*
X50727601Y-47679602D01*
X50653207Y-47790940D01*
X50653206Y-47790941D01*
X50453853Y-48089294D01*
X50432871Y-48120695D01*
X50355500Y-48509666D01*
X50355500Y-48509669D01*
X50329377Y-48641000D01*
X50355500Y-48772331D01*
X50355501Y-62883055D01*
X50252127Y-62952127D01*
X50056266Y-63245254D01*
X49915924Y-63117355D01*
X49505890Y-62947524D01*
X49276000Y-63068845D01*
X49276000Y-64262000D01*
X49296000Y-64262000D01*
X49296000Y-64516000D01*
X49276000Y-64516000D01*
X49276000Y-64536000D01*
X49022000Y-64536000D01*
X49022000Y-64516000D01*
X49002000Y-64516000D01*
X49002000Y-64262000D01*
X49022000Y-64262000D01*
X49022000Y-63068845D01*
X48792110Y-62947524D01*
X48382076Y-63117355D01*
X48323500Y-63170737D01*
X48323500Y-44376563D01*
X48389834Y-43552102D01*
X48574313Y-42801039D01*
X48876500Y-42089131D01*
X49288622Y-41434691D01*
X49800072Y-40854566D01*
X50397694Y-40363673D01*
X51066117Y-39974642D01*
X51788137Y-39697485D01*
X52556635Y-39536936D01*
X53191411Y-39497000D01*
X105665727Y-39497000D01*
X105082253Y-39738682D01*
G36*
X109505015Y-39546665D02*
X109834839Y-39666385D01*
X110128277Y-39858771D01*
X110369582Y-40113499D01*
X110545817Y-40416910D01*
X110652816Y-40770191D01*
X110680500Y-41080390D01*
X110680500Y-51485150D01*
X110505245Y-51432361D01*
X109677105Y-52260500D01*
X110505245Y-53088639D01*
X110680500Y-53035850D01*
X110680501Y-62470633D01*
X110305293Y-62396000D01*
X109912707Y-62396000D01*
X109331370Y-62511635D01*
X108839000Y-62840626D01*
X108346630Y-62511635D01*
X107765293Y-62396000D01*
X107372707Y-62396000D01*
X106791370Y-62511635D01*
X106299000Y-62840626D01*
X105806630Y-62511635D01*
X105225293Y-62396000D01*
X104832707Y-62396000D01*
X104251370Y-62511635D01*
X103759000Y-62840626D01*
X103266630Y-62511635D01*
X102685293Y-62396000D01*
X102292707Y-62396000D01*
X101711370Y-62511635D01*
X101219000Y-62840626D01*
X100726630Y-62511635D01*
X100145293Y-62396000D01*
X99752707Y-62396000D01*
X99171370Y-62511635D01*
X98679000Y-62840626D01*
X98186630Y-62511635D01*
X97605293Y-62396000D01*
X97446201Y-62396000D01*
X97446201Y-60939779D01*
X98386060Y-59999920D01*
X98497398Y-59925526D01*
X98639747Y-59712488D01*
X98792129Y-59484433D01*
X98809197Y-59398624D01*
X98869500Y-59095462D01*
X98869500Y-59095458D01*
X98895623Y-58964127D01*
X98869500Y-58832796D01*
X98869500Y-53680065D01*
X98881818Y-53667747D01*
X99123500Y-53084273D01*
X99123500Y-52452727D01*
X99038616Y-52247799D01*
X100802734Y-52247799D01*
X100827753Y-52272818D01*
X101411227Y-52514500D01*
X102042773Y-52514500D01*
X102626247Y-52272818D01*
X103072818Y-51826247D01*
X103313785Y-51244500D01*
X103418935Y-51244500D01*
X103431253Y-51256818D01*
X104014727Y-51498500D01*
X104646273Y-51498500D01*
X105058515Y-51327745D01*
X105032108Y-51460500D01*
X105032108Y-53060500D01*
X105120818Y-53506476D01*
X105373443Y-53884557D01*
X105751524Y-54137182D01*
X106197500Y-54225892D01*
X107797500Y-54225892D01*
X108243476Y-54137182D01*
X108621557Y-53884557D01*
X108844623Y-53550714D01*
X109280723Y-53707465D01*
X109850954Y-53680278D01*
X110251505Y-53514364D01*
X110325639Y-53268245D01*
X109497500Y-52440105D01*
X109483358Y-52454248D01*
X109303753Y-52274643D01*
X109317895Y-52260500D01*
X109303753Y-52246358D01*
X109483358Y-52066752D01*
X109497500Y-52080895D01*
X110325639Y-51252755D01*
X110251505Y-51006636D01*
X109714277Y-50813535D01*
X109144046Y-50840722D01*
X108841725Y-50965948D01*
X108621557Y-50636443D01*
X108243476Y-50383818D01*
X108120041Y-50359265D01*
X108033295Y-50229441D01*
X108033293Y-50229439D01*
X107958899Y-50118101D01*
X107847561Y-50043707D01*
X107714854Y-49911000D01*
X108329273Y-49911000D01*
X108912747Y-49669318D01*
X109359318Y-49222747D01*
X109601000Y-48639273D01*
X109601000Y-48007727D01*
X109532272Y-47841803D01*
X109728000Y-47369273D01*
X109728000Y-46737727D01*
X109595772Y-46418500D01*
X109728000Y-46099273D01*
X109728000Y-45467727D01*
X109608924Y-45180250D01*
X109728000Y-44892773D01*
X109728000Y-44261227D01*
X109543167Y-43815000D01*
X109728000Y-43368773D01*
X109728000Y-42737227D01*
X109486318Y-42153753D01*
X109039747Y-41707182D01*
X108456273Y-41465500D01*
X108327577Y-41465500D01*
X108165518Y-41074253D01*
X107718947Y-40627682D01*
X107467423Y-40523498D01*
X107327318Y-40185253D01*
X106880747Y-39738682D01*
X106297273Y-39497000D01*
X109079031Y-39497000D01*
X109505015Y-39546665D01*
X109505015Y-39546665D01*
G37*
X109505015Y-39546665D02*
X109834839Y-39666385D01*
X110128277Y-39858771D01*
X110369582Y-40113499D01*
X110545817Y-40416910D01*
X110652816Y-40770191D01*
X110680500Y-41080390D01*
X110680500Y-51485150D01*
X110505245Y-51432361D01*
X109677105Y-52260500D01*
X110505245Y-53088639D01*
X110680500Y-53035850D01*
X110680501Y-62470633D01*
X110305293Y-62396000D01*
X109912707Y-62396000D01*
X109331370Y-62511635D01*
X108839000Y-62840626D01*
X108346630Y-62511635D01*
X107765293Y-62396000D01*
X107372707Y-62396000D01*
X106791370Y-62511635D01*
X106299000Y-62840626D01*
X105806630Y-62511635D01*
X105225293Y-62396000D01*
X104832707Y-62396000D01*
X104251370Y-62511635D01*
X103759000Y-62840626D01*
X103266630Y-62511635D01*
X102685293Y-62396000D01*
X102292707Y-62396000D01*
X101711370Y-62511635D01*
X101219000Y-62840626D01*
X100726630Y-62511635D01*
X100145293Y-62396000D01*
X99752707Y-62396000D01*
X99171370Y-62511635D01*
X98679000Y-62840626D01*
X98186630Y-62511635D01*
X97605293Y-62396000D01*
X97446201Y-62396000D01*
X97446201Y-60939779D01*
X98386060Y-59999920D01*
X98497398Y-59925526D01*
X98639747Y-59712488D01*
X98792129Y-59484433D01*
X98809197Y-59398624D01*
X98869500Y-59095462D01*
X98869500Y-59095458D01*
X98895623Y-58964127D01*
X98869500Y-58832796D01*
X98869500Y-53680065D01*
X98881818Y-53667747D01*
X99123500Y-53084273D01*
X99123500Y-52452727D01*
X99038616Y-52247799D01*
X100802734Y-52247799D01*
X100827753Y-52272818D01*
X101411227Y-52514500D01*
X102042773Y-52514500D01*
X102626247Y-52272818D01*
X103072818Y-51826247D01*
X103313785Y-51244500D01*
X103418935Y-51244500D01*
X103431253Y-51256818D01*
X104014727Y-51498500D01*
X104646273Y-51498500D01*
X105058515Y-51327745D01*
X105032108Y-51460500D01*
X105032108Y-53060500D01*
X105120818Y-53506476D01*
X105373443Y-53884557D01*
X105751524Y-54137182D01*
X106197500Y-54225892D01*
X107797500Y-54225892D01*
X108243476Y-54137182D01*
X108621557Y-53884557D01*
X108844623Y-53550714D01*
X109280723Y-53707465D01*
X109850954Y-53680278D01*
X110251505Y-53514364D01*
X110325639Y-53268245D01*
X109497500Y-52440105D01*
X109483358Y-52454248D01*
X109303753Y-52274643D01*
X109317895Y-52260500D01*
X109303753Y-52246358D01*
X109483358Y-52066752D01*
X109497500Y-52080895D01*
X110325639Y-51252755D01*
X110251505Y-51006636D01*
X109714277Y-50813535D01*
X109144046Y-50840722D01*
X108841725Y-50965948D01*
X108621557Y-50636443D01*
X108243476Y-50383818D01*
X108120041Y-50359265D01*
X108033295Y-50229441D01*
X108033293Y-50229439D01*
X107958899Y-50118101D01*
X107847561Y-50043707D01*
X107714854Y-49911000D01*
X108329273Y-49911000D01*
X108912747Y-49669318D01*
X109359318Y-49222747D01*
X109601000Y-48639273D01*
X109601000Y-48007727D01*
X109532272Y-47841803D01*
X109728000Y-47369273D01*
X109728000Y-46737727D01*
X109595772Y-46418500D01*
X109728000Y-46099273D01*
X109728000Y-45467727D01*
X109608924Y-45180250D01*
X109728000Y-44892773D01*
X109728000Y-44261227D01*
X109543167Y-43815000D01*
X109728000Y-43368773D01*
X109728000Y-42737227D01*
X109486318Y-42153753D01*
X109039747Y-41707182D01*
X108456273Y-41465500D01*
X108327577Y-41465500D01*
X108165518Y-41074253D01*
X107718947Y-40627682D01*
X107467423Y-40523498D01*
X107327318Y-40185253D01*
X106880747Y-39738682D01*
X106297273Y-39497000D01*
X109079031Y-39497000D01*
X109505015Y-39546665D01*
G36*
X65775753Y-61861318D02*
X66359227Y-62103000D01*
X66990773Y-62103000D01*
X67574247Y-61861318D01*
X67586565Y-61849000D01*
X72663147Y-61849000D01*
X73504259Y-62690113D01*
X73279000Y-62840626D01*
X72786630Y-62511635D01*
X72205293Y-62396000D01*
X71812707Y-62396000D01*
X71231370Y-62511635D01*
X70739000Y-62840626D01*
X70246630Y-62511635D01*
X69665293Y-62396000D01*
X69272707Y-62396000D01*
X68691370Y-62511635D01*
X68199000Y-62840626D01*
X67706630Y-62511635D01*
X67125293Y-62396000D01*
X66732707Y-62396000D01*
X66151370Y-62511635D01*
X65722500Y-62798197D01*
X65722500Y-61808065D01*
X65775753Y-61861318D01*
X65775753Y-61861318D01*
G37*
X65775753Y-61861318D02*
X66359227Y-62103000D01*
X66990773Y-62103000D01*
X67574247Y-61861318D01*
X67586565Y-61849000D01*
X72663147Y-61849000D01*
X73504259Y-62690113D01*
X73279000Y-62840626D01*
X72786630Y-62511635D01*
X72205293Y-62396000D01*
X71812707Y-62396000D01*
X71231370Y-62511635D01*
X70739000Y-62840626D01*
X70246630Y-62511635D01*
X69665293Y-62396000D01*
X69272707Y-62396000D01*
X68691370Y-62511635D01*
X68199000Y-62840626D01*
X67706630Y-62511635D01*
X67125293Y-62396000D01*
X66732707Y-62396000D01*
X66151370Y-62511635D01*
X65722500Y-62798197D01*
X65722500Y-61808065D01*
X65775753Y-61861318D01*
G36*
X90681000Y-58610500D02*
X90701000Y-58610500D01*
X90701000Y-58864500D01*
X90681000Y-58864500D01*
X90681000Y-58884500D01*
X90427000Y-58884500D01*
X90427000Y-58864500D01*
X90407000Y-58864500D01*
X90407000Y-58610500D01*
X90427000Y-58610500D01*
X90427000Y-58590500D01*
X90681000Y-58590500D01*
X90681000Y-58610500D01*
X90681000Y-58610500D01*
G37*
X90681000Y-58610500D02*
X90701000Y-58610500D01*
X90701000Y-58864500D01*
X90681000Y-58864500D01*
X90681000Y-58884500D01*
X90427000Y-58884500D01*
X90427000Y-58864500D01*
X90407000Y-58864500D01*
X90407000Y-58610500D01*
X90427000Y-58610500D01*
X90427000Y-58590500D01*
X90681000Y-58590500D01*
X90681000Y-58610500D01*
G36*
X90726598Y-52436098D02*
X90413753Y-52565682D01*
X89967182Y-53012253D01*
X89725500Y-53595727D01*
X89725500Y-54227273D01*
X89936635Y-54737000D01*
X88817353Y-54737000D01*
X87583687Y-53503334D01*
X88839223Y-52247799D01*
X90804594Y-52247799D01*
X90726598Y-52436098D01*
X90726598Y-52436098D01*
G37*
X90726598Y-52436098D02*
X90413753Y-52565682D01*
X89967182Y-53012253D01*
X89725500Y-53595727D01*
X89725500Y-54227273D01*
X89936635Y-54737000D01*
X88817353Y-54737000D01*
X87583687Y-53503334D01*
X88839223Y-52247799D01*
X90804594Y-52247799D01*
X90726598Y-52436098D01*
G04 #@! TD*
M02*
