G04 #@! TF.GenerationSoftware,KiCad,Pcbnew,5.0.2+dfsg1-1*
G04 #@! TF.CreationDate,2021-03-03T18:09:01+01:00*
G04 #@! TF.ProjectId,nova,6e6f7661-2e6b-4696-9361-645f70636258,2020*
G04 #@! TF.SameCoordinates,Original*
G04 #@! TF.FileFunction,Copper,L1,Top*
G04 #@! TF.FilePolarity,Positive*
%FSLAX46Y46*%
G04 Gerber Fmt 4.6, Leading zero omitted, Abs format (unit mm)*
G04 Created by KiCad (PCBNEW 5.0.2+dfsg1-1) date mer. 03 mars 2021 18:09:01 CET*
%MOMM*%
%LPD*%
G01*
G04 APERTURE LIST*
G04 #@! TA.AperFunction,NonConductor*
%ADD10C,0.381000*%
G04 #@! TD*
G04 #@! TA.AperFunction,SMDPad,CuDef*
%ADD11R,1.500000X0.600000*%
G04 #@! TD*
G04 #@! TA.AperFunction,SMDPad,CuDef*
%ADD12R,0.558800X1.981200*%
G04 #@! TD*
G04 #@! TA.AperFunction,ComponentPad*
%ADD13R,1.700000X1.700000*%
G04 #@! TD*
G04 #@! TA.AperFunction,ComponentPad*
%ADD14O,1.700000X1.700000*%
G04 #@! TD*
G04 #@! TA.AperFunction,SMDPad,CuDef*
%ADD15C,0.500000*%
G04 #@! TD*
G04 #@! TA.AperFunction,Conductor*
%ADD16C,0.150000*%
G04 #@! TD*
G04 #@! TA.AperFunction,SMDPad,CuDef*
%ADD17R,1.950000X0.600000*%
G04 #@! TD*
G04 #@! TA.AperFunction,SMDPad,CuDef*
%ADD18C,1.250000*%
G04 #@! TD*
G04 #@! TA.AperFunction,ComponentPad*
%ADD19R,1.600000X1.600000*%
G04 #@! TD*
G04 #@! TA.AperFunction,ComponentPad*
%ADD20C,1.600000*%
G04 #@! TD*
G04 #@! TA.AperFunction,SMDPad,CuDef*
%ADD21C,0.975000*%
G04 #@! TD*
G04 #@! TA.AperFunction,SMDPad,CuDef*
%ADD22R,1.100000X1.100000*%
G04 #@! TD*
G04 #@! TA.AperFunction,ViaPad*
%ADD23C,0.889000*%
G04 #@! TD*
G04 #@! TA.AperFunction,Conductor*
%ADD24C,0.381000*%
G04 #@! TD*
G04 APERTURE END LIST*
D10*
X112014000Y-68262500D02*
G75*
G02X110172500Y-70104000I-1841500J0D01*
G01*
X48895000Y-70104000D02*
G75*
G02X46990000Y-68199000I0J1905000D01*
G01*
X109156500Y-38163500D02*
G75*
G02X112014000Y-41021000I0J-2857500D01*
G01*
X46990000Y-44323000D02*
G75*
G02X53149500Y-38163500I6159500J0D01*
G01*
X110172500Y-70104000D02*
X48895000Y-70104000D01*
X112014000Y-41021000D02*
X112014000Y-68262500D01*
X53149500Y-38163500D02*
X109156500Y-38163500D01*
X46990000Y-68199000D02*
X46990000Y-44323000D01*
D11*
G04 #@! TO.P,U5,1*
G04 #@! TO.N,/A3*
X100109000Y-48387000D03*
G04 #@! TO.P,U5,2*
G04 #@! TO.N,/A2*
X100109000Y-47117000D03*
G04 #@! TO.P,U5,3*
G04 #@! TO.N,WR*
X100109000Y-45847000D03*
G04 #@! TO.P,U5,4*
G04 #@! TO.N,IORQ*
X100109000Y-44577000D03*
G04 #@! TO.P,U5,5*
G04 #@! TO.N,Net-(U3-Pad8)*
X100109000Y-43307000D03*
G04 #@! TO.P,U5,6*
G04 #@! TO.N,Net-(U5-Pad6)*
X100109000Y-42037000D03*
G04 #@! TO.P,U5,7*
G04 #@! TO.N,GND*
X100109000Y-40767000D03*
G04 #@! TO.P,U5,8*
G04 #@! TO.N,Net-(U5-Pad8)*
X94709000Y-40767000D03*
G04 #@! TO.P,U5,9*
G04 #@! TO.N,/A5*
X94709000Y-42037000D03*
G04 #@! TO.P,U5,10*
X94709000Y-43307000D03*
G04 #@! TO.P,U5,11*
G04 #@! TO.N,/A4*
X94709000Y-44577000D03*
G04 #@! TO.P,U5,12*
G04 #@! TO.N,Net-(U5-Pad12)*
X94709000Y-45847000D03*
G04 #@! TO.P,U5,13*
G04 #@! TO.N,/A0*
X94709000Y-47117000D03*
G04 #@! TO.P,U5,14*
G04 #@! TO.N,VCC*
X94709000Y-48387000D03*
G04 #@! TD*
D12*
G04 #@! TO.P,U4,1*
G04 #@! TO.N,Net-(JP1-Pad2)*
X49403000Y-57404000D03*
G04 #@! TO.P,U4,2*
G04 #@! TO.N,/A12*
X50673000Y-57404000D03*
G04 #@! TO.P,U4,3*
G04 #@! TO.N,/A7*
X51943000Y-57404000D03*
G04 #@! TO.P,U4,4*
G04 #@! TO.N,/A6*
X53213000Y-57404000D03*
G04 #@! TO.P,U4,5*
G04 #@! TO.N,/A5*
X54483000Y-57404000D03*
G04 #@! TO.P,U4,6*
G04 #@! TO.N,/A4*
X55753000Y-57404000D03*
G04 #@! TO.P,U4,7*
G04 #@! TO.N,/A3*
X57023000Y-57404000D03*
G04 #@! TO.P,U4,8*
G04 #@! TO.N,/A2*
X58293000Y-57404000D03*
G04 #@! TO.P,U4,9*
G04 #@! TO.N,/A1*
X59563000Y-57404000D03*
G04 #@! TO.P,U4,10*
G04 #@! TO.N,/A0*
X60833000Y-57404000D03*
G04 #@! TO.P,U4,11*
G04 #@! TO.N,/D0*
X62103000Y-57404000D03*
G04 #@! TO.P,U4,12*
G04 #@! TO.N,/D1*
X63373000Y-57404000D03*
G04 #@! TO.P,U4,13*
G04 #@! TO.N,/D2*
X64643000Y-57404000D03*
G04 #@! TO.P,U4,14*
G04 #@! TO.N,GND*
X65913000Y-57404000D03*
G04 #@! TO.P,U4,15*
G04 #@! TO.N,/D3*
X65913000Y-45974000D03*
G04 #@! TO.P,U4,16*
G04 #@! TO.N,/D4*
X64643000Y-45974000D03*
G04 #@! TO.P,U4,17*
G04 #@! TO.N,/D5*
X63373000Y-45974000D03*
G04 #@! TO.P,U4,18*
G04 #@! TO.N,/D6*
X62103000Y-45974000D03*
G04 #@! TO.P,U4,19*
G04 #@! TO.N,/D7*
X60833000Y-45974000D03*
G04 #@! TO.P,U4,20*
G04 #@! TO.N,/RAMSEL*
X59563000Y-45974000D03*
G04 #@! TO.P,U4,21*
G04 #@! TO.N,/A10*
X58293000Y-45974000D03*
G04 #@! TO.P,U4,22*
G04 #@! TO.N,RD*
X57023000Y-45974000D03*
G04 #@! TO.P,U4,23*
G04 #@! TO.N,/A11*
X55753000Y-45974000D03*
G04 #@! TO.P,U4,24*
G04 #@! TO.N,/A9*
X54483000Y-45974000D03*
G04 #@! TO.P,U4,25*
G04 #@! TO.N,/A8*
X53213000Y-45974000D03*
G04 #@! TO.P,U4,26*
G04 #@! TO.N,/SEL0*
X51943000Y-45974000D03*
G04 #@! TO.P,U4,27*
G04 #@! TO.N,WR*
X50673000Y-45974000D03*
G04 #@! TO.P,U4,28*
G04 #@! TO.N,VCC*
X49403000Y-45974000D03*
G04 #@! TD*
D11*
G04 #@! TO.P,U1,1*
G04 #@! TO.N,/RAMSEL*
X100236000Y-60452000D03*
G04 #@! TO.P,U1,2*
G04 #@! TO.N,VCC*
X100236000Y-59182000D03*
G04 #@! TO.P,U1,3*
G04 #@! TO.N,Net-(D1-Pad1)*
X100236000Y-57912000D03*
G04 #@! TO.P,U1,4*
G04 #@! TO.N,/A15*
X100236000Y-56642000D03*
G04 #@! TO.P,U1,5*
G04 #@! TO.N,/MAP3*
X100236000Y-55372000D03*
G04 #@! TO.P,U1,6*
G04 #@! TO.N,Net-(U1-Pad6)*
X100236000Y-54102000D03*
G04 #@! TO.P,U1,7*
G04 #@! TO.N,GND*
X100236000Y-52832000D03*
G04 #@! TO.P,U1,8*
G04 #@! TO.N,Net-(U1-Pad8)*
X94836000Y-52832000D03*
G04 #@! TO.P,U1,9*
G04 #@! TO.N,/A14*
X94836000Y-54102000D03*
G04 #@! TO.P,U1,10*
G04 #@! TO.N,/MAP2*
X94836000Y-55372000D03*
G04 #@! TO.P,U1,11*
G04 #@! TO.N,Net-(U1-Pad11)*
X94836000Y-56642000D03*
G04 #@! TO.P,U1,12*
G04 #@! TO.N,/A13*
X94836000Y-57912000D03*
G04 #@! TO.P,U1,13*
G04 #@! TO.N,/MAP1*
X94836000Y-59182000D03*
G04 #@! TO.P,U1,14*
G04 #@! TO.N,VCC*
X94836000Y-60452000D03*
G04 #@! TD*
D13*
G04 #@! TO.P,J1,1*
G04 #@! TO.N,N/C*
X49149000Y-66929000D03*
D14*
G04 #@! TO.P,J1,2*
G04 #@! TO.N,GND*
X49149000Y-64389000D03*
G04 #@! TO.P,J1,3*
G04 #@! TO.N,/A15*
X51689000Y-66929000D03*
G04 #@! TO.P,J1,4*
G04 #@! TO.N,/A14*
X51689000Y-64389000D03*
G04 #@! TO.P,J1,5*
G04 #@! TO.N,/A13*
X54229000Y-66929000D03*
G04 #@! TO.P,J1,6*
G04 #@! TO.N,/A12*
X54229000Y-64389000D03*
G04 #@! TO.P,J1,7*
G04 #@! TO.N,/A11*
X56769000Y-66929000D03*
G04 #@! TO.P,J1,8*
G04 #@! TO.N,/A10*
X56769000Y-64389000D03*
G04 #@! TO.P,J1,9*
G04 #@! TO.N,/A9*
X59309000Y-66929000D03*
G04 #@! TO.P,J1,10*
G04 #@! TO.N,/A8*
X59309000Y-64389000D03*
G04 #@! TO.P,J1,11*
G04 #@! TO.N,/A7*
X61849000Y-66929000D03*
G04 #@! TO.P,J1,12*
G04 #@! TO.N,/A6*
X61849000Y-64389000D03*
G04 #@! TO.P,J1,13*
G04 #@! TO.N,/A5*
X64389000Y-66929000D03*
G04 #@! TO.P,J1,14*
G04 #@! TO.N,/A4*
X64389000Y-64389000D03*
G04 #@! TO.P,J1,15*
G04 #@! TO.N,/A3*
X66929000Y-66929000D03*
G04 #@! TO.P,J1,16*
G04 #@! TO.N,/A2*
X66929000Y-64389000D03*
G04 #@! TO.P,J1,17*
G04 #@! TO.N,/A1*
X69469000Y-66929000D03*
G04 #@! TO.P,J1,18*
G04 #@! TO.N,/A0*
X69469000Y-64389000D03*
G04 #@! TO.P,J1,19*
G04 #@! TO.N,/D7*
X72009000Y-66929000D03*
G04 #@! TO.P,J1,20*
G04 #@! TO.N,/D6*
X72009000Y-64389000D03*
G04 #@! TO.P,J1,21*
G04 #@! TO.N,/D5*
X74549000Y-66929000D03*
G04 #@! TO.P,J1,22*
G04 #@! TO.N,/D4*
X74549000Y-64389000D03*
G04 #@! TO.P,J1,23*
G04 #@! TO.N,/D3*
X77089000Y-66929000D03*
G04 #@! TO.P,J1,24*
G04 #@! TO.N,/D2*
X77089000Y-64389000D03*
G04 #@! TO.P,J1,25*
G04 #@! TO.N,/D1*
X79629000Y-66929000D03*
G04 #@! TO.P,J1,26*
G04 #@! TO.N,/D0*
X79629000Y-64389000D03*
G04 #@! TO.P,J1,27*
G04 #@! TO.N,VCC*
X82169000Y-66929000D03*
G04 #@! TO.P,J1,28*
G04 #@! TO.N,MREQ*
X82169000Y-64389000D03*
G04 #@! TO.P,J1,29*
G04 #@! TO.N,N/C*
X84709000Y-66929000D03*
G04 #@! TO.P,J1,30*
X84709000Y-64389000D03*
G04 #@! TO.P,J1,31*
G04 #@! TO.N,IORQ*
X87249000Y-66929000D03*
G04 #@! TO.P,J1,32*
G04 #@! TO.N,RD*
X87249000Y-64389000D03*
G04 #@! TO.P,J1,33*
G04 #@! TO.N,WR*
X89789000Y-66929000D03*
G04 #@! TO.P,J1,34*
G04 #@! TO.N,N/C*
X89789000Y-64389000D03*
G04 #@! TO.P,J1,35*
X92329000Y-66929000D03*
G04 #@! TO.P,J1,36*
X92329000Y-64389000D03*
G04 #@! TO.P,J1,37*
X94869000Y-66929000D03*
G04 #@! TO.P,J1,38*
X94869000Y-64389000D03*
G04 #@! TO.P,J1,39*
X97409000Y-66929000D03*
G04 #@! TO.P,J1,40*
X97409000Y-64389000D03*
G04 #@! TO.P,J1,41*
G04 #@! TO.N,/RESET*
X99949000Y-66929000D03*
G04 #@! TO.P,J1,42*
G04 #@! TO.N,N/C*
X99949000Y-64389000D03*
G04 #@! TO.P,J1,43*
G04 #@! TO.N,/ROMDIS*
X102489000Y-66929000D03*
G04 #@! TO.P,J1,44*
G04 #@! TO.N,N/C*
X102489000Y-64389000D03*
G04 #@! TO.P,J1,45*
G04 #@! TO.N,/RAMDIS*
X105029000Y-66929000D03*
G04 #@! TO.P,J1,46*
G04 #@! TO.N,N/C*
X105029000Y-64389000D03*
G04 #@! TO.P,J1,47*
X107569000Y-66929000D03*
G04 #@! TO.P,J1,48*
X107569000Y-64389000D03*
G04 #@! TO.P,J1,49*
G04 #@! TO.N,GND*
X110109000Y-66929000D03*
G04 #@! TO.P,J1,50*
G04 #@! TO.N,N/C*
X110109000Y-64389000D03*
G04 #@! TD*
D15*
G04 #@! TO.P,JP1,1*
G04 #@! TO.N,/SEL1*
X60418500Y-40957500D03*
D16*
G04 #@! TD*
G04 #@! TO.N,/SEL1*
G04 #@! TO.C,JP1*
G36*
X59918500Y-40207500D02*
X60418500Y-40207500D01*
X60418500Y-40208102D01*
X60443034Y-40208102D01*
X60491865Y-40212912D01*
X60539990Y-40222484D01*
X60586945Y-40236728D01*
X60632278Y-40255505D01*
X60675551Y-40278636D01*
X60716350Y-40305896D01*
X60754279Y-40337024D01*
X60788976Y-40371721D01*
X60820104Y-40409650D01*
X60847364Y-40450449D01*
X60870495Y-40493722D01*
X60889272Y-40539055D01*
X60903516Y-40586010D01*
X60913088Y-40634135D01*
X60917898Y-40682966D01*
X60917898Y-40707500D01*
X60918500Y-40707500D01*
X60918500Y-41207500D01*
X60917898Y-41207500D01*
X60917898Y-41232034D01*
X60913088Y-41280865D01*
X60903516Y-41328990D01*
X60889272Y-41375945D01*
X60870495Y-41421278D01*
X60847364Y-41464551D01*
X60820104Y-41505350D01*
X60788976Y-41543279D01*
X60754279Y-41577976D01*
X60716350Y-41609104D01*
X60675551Y-41636364D01*
X60632278Y-41659495D01*
X60586945Y-41678272D01*
X60539990Y-41692516D01*
X60491865Y-41702088D01*
X60443034Y-41706898D01*
X60418500Y-41706898D01*
X60418500Y-41707500D01*
X59918500Y-41707500D01*
X59918500Y-40207500D01*
X59918500Y-40207500D01*
G37*
D15*
G04 #@! TO.P,JP1,2*
G04 #@! TO.N,Net-(JP1-Pad2)*
X59118500Y-40957500D03*
D16*
G04 #@! TD*
G04 #@! TO.N,Net-(JP1-Pad2)*
G04 #@! TO.C,JP1*
G36*
X59118500Y-41706898D02*
X59093966Y-41706898D01*
X59045135Y-41702088D01*
X58997010Y-41692516D01*
X58950055Y-41678272D01*
X58904722Y-41659495D01*
X58861449Y-41636364D01*
X58820650Y-41609104D01*
X58782721Y-41577976D01*
X58748024Y-41543279D01*
X58716896Y-41505350D01*
X58689636Y-41464551D01*
X58666505Y-41421278D01*
X58647728Y-41375945D01*
X58633484Y-41328990D01*
X58623912Y-41280865D01*
X58619102Y-41232034D01*
X58619102Y-41207500D01*
X58618500Y-41207500D01*
X58618500Y-40707500D01*
X58619102Y-40707500D01*
X58619102Y-40682966D01*
X58623912Y-40634135D01*
X58633484Y-40586010D01*
X58647728Y-40539055D01*
X58666505Y-40493722D01*
X58689636Y-40450449D01*
X58716896Y-40409650D01*
X58748024Y-40371721D01*
X58782721Y-40337024D01*
X58820650Y-40305896D01*
X58861449Y-40278636D01*
X58904722Y-40255505D01*
X58950055Y-40236728D01*
X58997010Y-40222484D01*
X59045135Y-40212912D01*
X59093966Y-40208102D01*
X59118500Y-40208102D01*
X59118500Y-40207500D01*
X59618500Y-40207500D01*
X59618500Y-41707500D01*
X59118500Y-41707500D01*
X59118500Y-41706898D01*
X59118500Y-41706898D01*
G37*
D11*
G04 #@! TO.P,U6,1*
G04 #@! TO.N,Net-(U5-Pad12)*
X89822000Y-49657000D03*
G04 #@! TO.P,U6,2*
G04 #@! TO.N,Net-(U5-Pad8)*
X89822000Y-48387000D03*
G04 #@! TO.P,U6,3*
G04 #@! TO.N,Net-(U5-Pad6)*
X89822000Y-47117000D03*
G04 #@! TO.P,U6,4*
G04 #@! TO.N,/A6*
X89822000Y-45847000D03*
G04 #@! TO.P,U6,5*
G04 #@! TO.N,/A8*
X89822000Y-44577000D03*
G04 #@! TO.P,U6,6*
G04 #@! TO.N,/A1*
X89822000Y-43307000D03*
G04 #@! TO.P,U6,7*
G04 #@! TO.N,/MAPSEL*
X89822000Y-42037000D03*
G04 #@! TO.P,U6,8*
G04 #@! TO.N,GND*
X89822000Y-40767000D03*
G04 #@! TO.P,U6,9*
G04 #@! TO.N,N/C*
X84422000Y-40767000D03*
G04 #@! TO.P,U6,10*
X84422000Y-42037000D03*
G04 #@! TO.P,U6,11*
X84422000Y-43307000D03*
G04 #@! TO.P,U6,12*
X84422000Y-44577000D03*
G04 #@! TO.P,U6,13*
X84422000Y-45847000D03*
G04 #@! TO.P,U6,14*
X84422000Y-47117000D03*
G04 #@! TO.P,U6,15*
X84422000Y-48387000D03*
G04 #@! TO.P,U6,16*
G04 #@! TO.N,VCC*
X84422000Y-49657000D03*
G04 #@! TD*
G04 #@! TO.P,U3,14*
G04 #@! TO.N,VCC*
X104361000Y-48387000D03*
G04 #@! TO.P,U3,13*
G04 #@! TO.N,N/C*
X104361000Y-47117000D03*
G04 #@! TO.P,U3,12*
G04 #@! TO.N,/A13*
X104361000Y-45847000D03*
G04 #@! TO.P,U3,11*
G04 #@! TO.N,/A14*
X104361000Y-44577000D03*
G04 #@! TO.P,U3,10*
G04 #@! TO.N,N/C*
X104361000Y-43307000D03*
G04 #@! TO.P,U3,9*
X104361000Y-42037000D03*
G04 #@! TO.P,U3,8*
G04 #@! TO.N,Net-(U3-Pad8)*
X104361000Y-40767000D03*
G04 #@! TO.P,U3,7*
G04 #@! TO.N,GND*
X109761000Y-40767000D03*
G04 #@! TO.P,U3,6*
G04 #@! TO.N,/A7*
X109761000Y-42037000D03*
G04 #@! TO.P,U3,5*
G04 #@! TO.N,/A15*
X109761000Y-43307000D03*
G04 #@! TO.P,U3,4*
G04 #@! TO.N,/A12*
X109761000Y-44577000D03*
G04 #@! TO.P,U3,3*
G04 #@! TO.N,/A11*
X109761000Y-45847000D03*
G04 #@! TO.P,U3,2*
G04 #@! TO.N,/A10*
X109761000Y-47117000D03*
G04 #@! TO.P,U3,1*
G04 #@! TO.N,/A9*
X109761000Y-48387000D03*
G04 #@! TD*
D17*
G04 #@! TO.P,U7,1*
G04 #@! TO.N,/RESET*
X78995000Y-52070000D03*
G04 #@! TO.P,U7,2*
G04 #@! TO.N,/SEL0*
X78995000Y-50800000D03*
G04 #@! TO.P,U7,3*
G04 #@! TO.N,/D0*
X78995000Y-49530000D03*
G04 #@! TO.P,U7,4*
G04 #@! TO.N,/D1*
X78995000Y-48260000D03*
G04 #@! TO.P,U7,5*
G04 #@! TO.N,/SEL1*
X78995000Y-46990000D03*
G04 #@! TO.P,U7,6*
G04 #@! TO.N,/SEL2*
X78995000Y-45720000D03*
G04 #@! TO.P,U7,7*
G04 #@! TO.N,/D2*
X78995000Y-44450000D03*
G04 #@! TO.P,U7,8*
G04 #@! TO.N,/D3*
X78995000Y-43180000D03*
G04 #@! TO.P,U7,9*
G04 #@! TO.N,/SEL3*
X78995000Y-41910000D03*
G04 #@! TO.P,U7,10*
G04 #@! TO.N,GND*
X78995000Y-40640000D03*
G04 #@! TO.P,U7,11*
G04 #@! TO.N,/MAPSEL*
X69595000Y-40640000D03*
G04 #@! TO.P,U7,12*
G04 #@! TO.N,/MAP3*
X69595000Y-41910000D03*
G04 #@! TO.P,U7,13*
G04 #@! TO.N,/D7*
X69595000Y-43180000D03*
G04 #@! TO.P,U7,14*
G04 #@! TO.N,/D6*
X69595000Y-44450000D03*
G04 #@! TO.P,U7,15*
G04 #@! TO.N,/MAP2*
X69595000Y-45720000D03*
G04 #@! TO.P,U7,16*
G04 #@! TO.N,/MAP1*
X69595000Y-46990000D03*
G04 #@! TO.P,U7,17*
G04 #@! TO.N,/D5*
X69595000Y-48260000D03*
G04 #@! TO.P,U7,18*
G04 #@! TO.N,/D4*
X69595000Y-49530000D03*
G04 #@! TO.P,U7,19*
G04 #@! TO.N,N/C*
X69595000Y-50800000D03*
G04 #@! TO.P,U7,20*
G04 #@! TO.N,VCC*
X69595000Y-52070000D03*
G04 #@! TD*
D16*
G04 #@! TO.N,GND*
G04 #@! TO.C,C2*
G36*
X110191004Y-55450704D02*
X110215273Y-55454304D01*
X110239071Y-55460265D01*
X110262171Y-55468530D01*
X110284349Y-55479020D01*
X110305393Y-55491633D01*
X110325098Y-55506247D01*
X110343277Y-55522723D01*
X110359753Y-55540902D01*
X110374367Y-55560607D01*
X110386980Y-55581651D01*
X110397470Y-55603829D01*
X110405735Y-55626929D01*
X110411696Y-55650727D01*
X110415296Y-55674996D01*
X110416500Y-55699500D01*
X110416500Y-56949500D01*
X110415296Y-56974004D01*
X110411696Y-56998273D01*
X110405735Y-57022071D01*
X110397470Y-57045171D01*
X110386980Y-57067349D01*
X110374367Y-57088393D01*
X110359753Y-57108098D01*
X110343277Y-57126277D01*
X110325098Y-57142753D01*
X110305393Y-57157367D01*
X110284349Y-57169980D01*
X110262171Y-57180470D01*
X110239071Y-57188735D01*
X110215273Y-57194696D01*
X110191004Y-57198296D01*
X110166500Y-57199500D01*
X109416500Y-57199500D01*
X109391996Y-57198296D01*
X109367727Y-57194696D01*
X109343929Y-57188735D01*
X109320829Y-57180470D01*
X109298651Y-57169980D01*
X109277607Y-57157367D01*
X109257902Y-57142753D01*
X109239723Y-57126277D01*
X109223247Y-57108098D01*
X109208633Y-57088393D01*
X109196020Y-57067349D01*
X109185530Y-57045171D01*
X109177265Y-57022071D01*
X109171304Y-56998273D01*
X109167704Y-56974004D01*
X109166500Y-56949500D01*
X109166500Y-55699500D01*
X109167704Y-55674996D01*
X109171304Y-55650727D01*
X109177265Y-55626929D01*
X109185530Y-55603829D01*
X109196020Y-55581651D01*
X109208633Y-55560607D01*
X109223247Y-55540902D01*
X109239723Y-55522723D01*
X109257902Y-55506247D01*
X109277607Y-55491633D01*
X109298651Y-55479020D01*
X109320829Y-55468530D01*
X109343929Y-55460265D01*
X109367727Y-55454304D01*
X109391996Y-55450704D01*
X109416500Y-55449500D01*
X110166500Y-55449500D01*
X110191004Y-55450704D01*
X110191004Y-55450704D01*
G37*
D18*
G04 #@! TD*
G04 #@! TO.P,C2,2*
G04 #@! TO.N,GND*
X109791500Y-56324500D03*
D16*
G04 #@! TO.N,VCC*
G04 #@! TO.C,C2*
G36*
X107391004Y-55450704D02*
X107415273Y-55454304D01*
X107439071Y-55460265D01*
X107462171Y-55468530D01*
X107484349Y-55479020D01*
X107505393Y-55491633D01*
X107525098Y-55506247D01*
X107543277Y-55522723D01*
X107559753Y-55540902D01*
X107574367Y-55560607D01*
X107586980Y-55581651D01*
X107597470Y-55603829D01*
X107605735Y-55626929D01*
X107611696Y-55650727D01*
X107615296Y-55674996D01*
X107616500Y-55699500D01*
X107616500Y-56949500D01*
X107615296Y-56974004D01*
X107611696Y-56998273D01*
X107605735Y-57022071D01*
X107597470Y-57045171D01*
X107586980Y-57067349D01*
X107574367Y-57088393D01*
X107559753Y-57108098D01*
X107543277Y-57126277D01*
X107525098Y-57142753D01*
X107505393Y-57157367D01*
X107484349Y-57169980D01*
X107462171Y-57180470D01*
X107439071Y-57188735D01*
X107415273Y-57194696D01*
X107391004Y-57198296D01*
X107366500Y-57199500D01*
X106616500Y-57199500D01*
X106591996Y-57198296D01*
X106567727Y-57194696D01*
X106543929Y-57188735D01*
X106520829Y-57180470D01*
X106498651Y-57169980D01*
X106477607Y-57157367D01*
X106457902Y-57142753D01*
X106439723Y-57126277D01*
X106423247Y-57108098D01*
X106408633Y-57088393D01*
X106396020Y-57067349D01*
X106385530Y-57045171D01*
X106377265Y-57022071D01*
X106371304Y-56998273D01*
X106367704Y-56974004D01*
X106366500Y-56949500D01*
X106366500Y-55699500D01*
X106367704Y-55674996D01*
X106371304Y-55650727D01*
X106377265Y-55626929D01*
X106385530Y-55603829D01*
X106396020Y-55581651D01*
X106408633Y-55560607D01*
X106423247Y-55540902D01*
X106439723Y-55522723D01*
X106457902Y-55506247D01*
X106477607Y-55491633D01*
X106498651Y-55479020D01*
X106520829Y-55468530D01*
X106543929Y-55460265D01*
X106567727Y-55454304D01*
X106591996Y-55450704D01*
X106616500Y-55449500D01*
X107366500Y-55449500D01*
X107391004Y-55450704D01*
X107391004Y-55450704D01*
G37*
D18*
G04 #@! TD*
G04 #@! TO.P,C2,1*
G04 #@! TO.N,VCC*
X106991500Y-56324500D03*
D16*
G04 #@! TO.N,VCC*
G04 #@! TO.C,C3*
G36*
X69166004Y-57726704D02*
X69190273Y-57730304D01*
X69214071Y-57736265D01*
X69237171Y-57744530D01*
X69259349Y-57755020D01*
X69280393Y-57767633D01*
X69300098Y-57782247D01*
X69318277Y-57798723D01*
X69334753Y-57816902D01*
X69349367Y-57836607D01*
X69361980Y-57857651D01*
X69372470Y-57879829D01*
X69380735Y-57902929D01*
X69386696Y-57926727D01*
X69390296Y-57950996D01*
X69391500Y-57975500D01*
X69391500Y-58725500D01*
X69390296Y-58750004D01*
X69386696Y-58774273D01*
X69380735Y-58798071D01*
X69372470Y-58821171D01*
X69361980Y-58843349D01*
X69349367Y-58864393D01*
X69334753Y-58884098D01*
X69318277Y-58902277D01*
X69300098Y-58918753D01*
X69280393Y-58933367D01*
X69259349Y-58945980D01*
X69237171Y-58956470D01*
X69214071Y-58964735D01*
X69190273Y-58970696D01*
X69166004Y-58974296D01*
X69141500Y-58975500D01*
X67891500Y-58975500D01*
X67866996Y-58974296D01*
X67842727Y-58970696D01*
X67818929Y-58964735D01*
X67795829Y-58956470D01*
X67773651Y-58945980D01*
X67752607Y-58933367D01*
X67732902Y-58918753D01*
X67714723Y-58902277D01*
X67698247Y-58884098D01*
X67683633Y-58864393D01*
X67671020Y-58843349D01*
X67660530Y-58821171D01*
X67652265Y-58798071D01*
X67646304Y-58774273D01*
X67642704Y-58750004D01*
X67641500Y-58725500D01*
X67641500Y-57975500D01*
X67642704Y-57950996D01*
X67646304Y-57926727D01*
X67652265Y-57902929D01*
X67660530Y-57879829D01*
X67671020Y-57857651D01*
X67683633Y-57836607D01*
X67698247Y-57816902D01*
X67714723Y-57798723D01*
X67732902Y-57782247D01*
X67752607Y-57767633D01*
X67773651Y-57755020D01*
X67795829Y-57744530D01*
X67818929Y-57736265D01*
X67842727Y-57730304D01*
X67866996Y-57726704D01*
X67891500Y-57725500D01*
X69141500Y-57725500D01*
X69166004Y-57726704D01*
X69166004Y-57726704D01*
G37*
D18*
G04 #@! TD*
G04 #@! TO.P,C3,1*
G04 #@! TO.N,VCC*
X68516500Y-58350500D03*
D16*
G04 #@! TO.N,GND*
G04 #@! TO.C,C3*
G36*
X69166004Y-60526704D02*
X69190273Y-60530304D01*
X69214071Y-60536265D01*
X69237171Y-60544530D01*
X69259349Y-60555020D01*
X69280393Y-60567633D01*
X69300098Y-60582247D01*
X69318277Y-60598723D01*
X69334753Y-60616902D01*
X69349367Y-60636607D01*
X69361980Y-60657651D01*
X69372470Y-60679829D01*
X69380735Y-60702929D01*
X69386696Y-60726727D01*
X69390296Y-60750996D01*
X69391500Y-60775500D01*
X69391500Y-61525500D01*
X69390296Y-61550004D01*
X69386696Y-61574273D01*
X69380735Y-61598071D01*
X69372470Y-61621171D01*
X69361980Y-61643349D01*
X69349367Y-61664393D01*
X69334753Y-61684098D01*
X69318277Y-61702277D01*
X69300098Y-61718753D01*
X69280393Y-61733367D01*
X69259349Y-61745980D01*
X69237171Y-61756470D01*
X69214071Y-61764735D01*
X69190273Y-61770696D01*
X69166004Y-61774296D01*
X69141500Y-61775500D01*
X67891500Y-61775500D01*
X67866996Y-61774296D01*
X67842727Y-61770696D01*
X67818929Y-61764735D01*
X67795829Y-61756470D01*
X67773651Y-61745980D01*
X67752607Y-61733367D01*
X67732902Y-61718753D01*
X67714723Y-61702277D01*
X67698247Y-61684098D01*
X67683633Y-61664393D01*
X67671020Y-61643349D01*
X67660530Y-61621171D01*
X67652265Y-61598071D01*
X67646304Y-61574273D01*
X67642704Y-61550004D01*
X67641500Y-61525500D01*
X67641500Y-60775500D01*
X67642704Y-60750996D01*
X67646304Y-60726727D01*
X67652265Y-60702929D01*
X67660530Y-60679829D01*
X67671020Y-60657651D01*
X67683633Y-60636607D01*
X67698247Y-60616902D01*
X67714723Y-60598723D01*
X67732902Y-60582247D01*
X67752607Y-60567633D01*
X67773651Y-60555020D01*
X67795829Y-60544530D01*
X67818929Y-60536265D01*
X67842727Y-60530304D01*
X67866996Y-60526704D01*
X67891500Y-60525500D01*
X69141500Y-60525500D01*
X69166004Y-60526704D01*
X69166004Y-60526704D01*
G37*
D18*
G04 #@! TD*
G04 #@! TO.P,C3,2*
G04 #@! TO.N,GND*
X68516500Y-61150500D03*
D16*
G04 #@! TO.N,VCC*
G04 #@! TO.C,C1*
G36*
X50431504Y-42369704D02*
X50455773Y-42373304D01*
X50479571Y-42379265D01*
X50502671Y-42387530D01*
X50524849Y-42398020D01*
X50545893Y-42410633D01*
X50565598Y-42425247D01*
X50583777Y-42441723D01*
X50600253Y-42459902D01*
X50614867Y-42479607D01*
X50627480Y-42500651D01*
X50637970Y-42522829D01*
X50646235Y-42545929D01*
X50652196Y-42569727D01*
X50655796Y-42593996D01*
X50657000Y-42618500D01*
X50657000Y-43868500D01*
X50655796Y-43893004D01*
X50652196Y-43917273D01*
X50646235Y-43941071D01*
X50637970Y-43964171D01*
X50627480Y-43986349D01*
X50614867Y-44007393D01*
X50600253Y-44027098D01*
X50583777Y-44045277D01*
X50565598Y-44061753D01*
X50545893Y-44076367D01*
X50524849Y-44088980D01*
X50502671Y-44099470D01*
X50479571Y-44107735D01*
X50455773Y-44113696D01*
X50431504Y-44117296D01*
X50407000Y-44118500D01*
X49657000Y-44118500D01*
X49632496Y-44117296D01*
X49608227Y-44113696D01*
X49584429Y-44107735D01*
X49561329Y-44099470D01*
X49539151Y-44088980D01*
X49518107Y-44076367D01*
X49498402Y-44061753D01*
X49480223Y-44045277D01*
X49463747Y-44027098D01*
X49449133Y-44007393D01*
X49436520Y-43986349D01*
X49426030Y-43964171D01*
X49417765Y-43941071D01*
X49411804Y-43917273D01*
X49408204Y-43893004D01*
X49407000Y-43868500D01*
X49407000Y-42618500D01*
X49408204Y-42593996D01*
X49411804Y-42569727D01*
X49417765Y-42545929D01*
X49426030Y-42522829D01*
X49436520Y-42500651D01*
X49449133Y-42479607D01*
X49463747Y-42459902D01*
X49480223Y-42441723D01*
X49498402Y-42425247D01*
X49518107Y-42410633D01*
X49539151Y-42398020D01*
X49561329Y-42387530D01*
X49584429Y-42379265D01*
X49608227Y-42373304D01*
X49632496Y-42369704D01*
X49657000Y-42368500D01*
X50407000Y-42368500D01*
X50431504Y-42369704D01*
X50431504Y-42369704D01*
G37*
D18*
G04 #@! TD*
G04 #@! TO.P,C1,1*
G04 #@! TO.N,VCC*
X50032000Y-43243500D03*
D16*
G04 #@! TO.N,GND*
G04 #@! TO.C,C1*
G36*
X53231504Y-42369704D02*
X53255773Y-42373304D01*
X53279571Y-42379265D01*
X53302671Y-42387530D01*
X53324849Y-42398020D01*
X53345893Y-42410633D01*
X53365598Y-42425247D01*
X53383777Y-42441723D01*
X53400253Y-42459902D01*
X53414867Y-42479607D01*
X53427480Y-42500651D01*
X53437970Y-42522829D01*
X53446235Y-42545929D01*
X53452196Y-42569727D01*
X53455796Y-42593996D01*
X53457000Y-42618500D01*
X53457000Y-43868500D01*
X53455796Y-43893004D01*
X53452196Y-43917273D01*
X53446235Y-43941071D01*
X53437970Y-43964171D01*
X53427480Y-43986349D01*
X53414867Y-44007393D01*
X53400253Y-44027098D01*
X53383777Y-44045277D01*
X53365598Y-44061753D01*
X53345893Y-44076367D01*
X53324849Y-44088980D01*
X53302671Y-44099470D01*
X53279571Y-44107735D01*
X53255773Y-44113696D01*
X53231504Y-44117296D01*
X53207000Y-44118500D01*
X52457000Y-44118500D01*
X52432496Y-44117296D01*
X52408227Y-44113696D01*
X52384429Y-44107735D01*
X52361329Y-44099470D01*
X52339151Y-44088980D01*
X52318107Y-44076367D01*
X52298402Y-44061753D01*
X52280223Y-44045277D01*
X52263747Y-44027098D01*
X52249133Y-44007393D01*
X52236520Y-43986349D01*
X52226030Y-43964171D01*
X52217765Y-43941071D01*
X52211804Y-43917273D01*
X52208204Y-43893004D01*
X52207000Y-43868500D01*
X52207000Y-42618500D01*
X52208204Y-42593996D01*
X52211804Y-42569727D01*
X52217765Y-42545929D01*
X52226030Y-42522829D01*
X52236520Y-42500651D01*
X52249133Y-42479607D01*
X52263747Y-42459902D01*
X52280223Y-42441723D01*
X52298402Y-42425247D01*
X52318107Y-42410633D01*
X52339151Y-42398020D01*
X52361329Y-42387530D01*
X52384429Y-42379265D01*
X52408227Y-42373304D01*
X52432496Y-42369704D01*
X52457000Y-42368500D01*
X53207000Y-42368500D01*
X53231504Y-42369704D01*
X53231504Y-42369704D01*
G37*
D18*
G04 #@! TD*
G04 #@! TO.P,C1,2*
G04 #@! TO.N,GND*
X52832000Y-43243500D03*
D19*
G04 #@! TO.P,C5,1*
G04 #@! TO.N,VCC*
X106997500Y-52260500D03*
D20*
G04 #@! TO.P,C5,2*
G04 #@! TO.N,GND*
X109497500Y-52260500D03*
G04 #@! TD*
D11*
G04 #@! TO.P,U2,1*
G04 #@! TO.N,Net-(U1-Pad6)*
X89822000Y-61722000D03*
G04 #@! TO.P,U2,2*
G04 #@! TO.N,Net-(U1-Pad11)*
X89822000Y-60452000D03*
G04 #@! TO.P,U2,3*
G04 #@! TO.N,Net-(U1-Pad8)*
X89822000Y-59182000D03*
G04 #@! TO.P,U2,4*
G04 #@! TO.N,MREQ*
X89822000Y-57912000D03*
G04 #@! TO.P,U2,5*
G04 #@! TO.N,/SEL2*
X89822000Y-56642000D03*
G04 #@! TO.P,U2,6*
G04 #@! TO.N,/SEL3*
X89822000Y-55372000D03*
G04 #@! TO.P,U2,7*
G04 #@! TO.N,N/C*
X89822000Y-54102000D03*
G04 #@! TO.P,U2,8*
G04 #@! TO.N,GND*
X89822000Y-52832000D03*
G04 #@! TO.P,U2,9*
G04 #@! TO.N,N/C*
X84422000Y-52832000D03*
G04 #@! TO.P,U2,10*
X84422000Y-54102000D03*
G04 #@! TO.P,U2,11*
X84422000Y-55372000D03*
G04 #@! TO.P,U2,12*
X84422000Y-56642000D03*
G04 #@! TO.P,U2,13*
X84422000Y-57912000D03*
G04 #@! TO.P,U2,14*
X84422000Y-59182000D03*
G04 #@! TO.P,U2,15*
G04 #@! TO.N,/RAMSEL*
X84422000Y-60452000D03*
G04 #@! TO.P,U2,16*
G04 #@! TO.N,VCC*
X84422000Y-61722000D03*
G04 #@! TD*
D16*
G04 #@! TO.N,Net-(D1-Pad1)*
G04 #@! TO.C,R1*
G36*
X103660642Y-55689174D02*
X103684303Y-55692684D01*
X103707507Y-55698496D01*
X103730029Y-55706554D01*
X103751653Y-55716782D01*
X103772170Y-55729079D01*
X103791383Y-55743329D01*
X103809107Y-55759393D01*
X103825171Y-55777117D01*
X103839421Y-55796330D01*
X103851718Y-55816847D01*
X103861946Y-55838471D01*
X103870004Y-55860993D01*
X103875816Y-55884197D01*
X103879326Y-55907858D01*
X103880500Y-55931750D01*
X103880500Y-56844250D01*
X103879326Y-56868142D01*
X103875816Y-56891803D01*
X103870004Y-56915007D01*
X103861946Y-56937529D01*
X103851718Y-56959153D01*
X103839421Y-56979670D01*
X103825171Y-56998883D01*
X103809107Y-57016607D01*
X103791383Y-57032671D01*
X103772170Y-57046921D01*
X103751653Y-57059218D01*
X103730029Y-57069446D01*
X103707507Y-57077504D01*
X103684303Y-57083316D01*
X103660642Y-57086826D01*
X103636750Y-57088000D01*
X103149250Y-57088000D01*
X103125358Y-57086826D01*
X103101697Y-57083316D01*
X103078493Y-57077504D01*
X103055971Y-57069446D01*
X103034347Y-57059218D01*
X103013830Y-57046921D01*
X102994617Y-57032671D01*
X102976893Y-57016607D01*
X102960829Y-56998883D01*
X102946579Y-56979670D01*
X102934282Y-56959153D01*
X102924054Y-56937529D01*
X102915996Y-56915007D01*
X102910184Y-56891803D01*
X102906674Y-56868142D01*
X102905500Y-56844250D01*
X102905500Y-55931750D01*
X102906674Y-55907858D01*
X102910184Y-55884197D01*
X102915996Y-55860993D01*
X102924054Y-55838471D01*
X102934282Y-55816847D01*
X102946579Y-55796330D01*
X102960829Y-55777117D01*
X102976893Y-55759393D01*
X102994617Y-55743329D01*
X103013830Y-55729079D01*
X103034347Y-55716782D01*
X103055971Y-55706554D01*
X103078493Y-55698496D01*
X103101697Y-55692684D01*
X103125358Y-55689174D01*
X103149250Y-55688000D01*
X103636750Y-55688000D01*
X103660642Y-55689174D01*
X103660642Y-55689174D01*
G37*
D21*
G04 #@! TD*
G04 #@! TO.P,R1,1*
G04 #@! TO.N,Net-(D1-Pad1)*
X103393000Y-56388000D03*
D16*
G04 #@! TO.N,VCC*
G04 #@! TO.C,R1*
G36*
X105535642Y-55689174D02*
X105559303Y-55692684D01*
X105582507Y-55698496D01*
X105605029Y-55706554D01*
X105626653Y-55716782D01*
X105647170Y-55729079D01*
X105666383Y-55743329D01*
X105684107Y-55759393D01*
X105700171Y-55777117D01*
X105714421Y-55796330D01*
X105726718Y-55816847D01*
X105736946Y-55838471D01*
X105745004Y-55860993D01*
X105750816Y-55884197D01*
X105754326Y-55907858D01*
X105755500Y-55931750D01*
X105755500Y-56844250D01*
X105754326Y-56868142D01*
X105750816Y-56891803D01*
X105745004Y-56915007D01*
X105736946Y-56937529D01*
X105726718Y-56959153D01*
X105714421Y-56979670D01*
X105700171Y-56998883D01*
X105684107Y-57016607D01*
X105666383Y-57032671D01*
X105647170Y-57046921D01*
X105626653Y-57059218D01*
X105605029Y-57069446D01*
X105582507Y-57077504D01*
X105559303Y-57083316D01*
X105535642Y-57086826D01*
X105511750Y-57088000D01*
X105024250Y-57088000D01*
X105000358Y-57086826D01*
X104976697Y-57083316D01*
X104953493Y-57077504D01*
X104930971Y-57069446D01*
X104909347Y-57059218D01*
X104888830Y-57046921D01*
X104869617Y-57032671D01*
X104851893Y-57016607D01*
X104835829Y-56998883D01*
X104821579Y-56979670D01*
X104809282Y-56959153D01*
X104799054Y-56937529D01*
X104790996Y-56915007D01*
X104785184Y-56891803D01*
X104781674Y-56868142D01*
X104780500Y-56844250D01*
X104780500Y-55931750D01*
X104781674Y-55907858D01*
X104785184Y-55884197D01*
X104790996Y-55860993D01*
X104799054Y-55838471D01*
X104809282Y-55816847D01*
X104821579Y-55796330D01*
X104835829Y-55777117D01*
X104851893Y-55759393D01*
X104869617Y-55743329D01*
X104888830Y-55729079D01*
X104909347Y-55716782D01*
X104930971Y-55706554D01*
X104953493Y-55698496D01*
X104976697Y-55692684D01*
X105000358Y-55689174D01*
X105024250Y-55688000D01*
X105511750Y-55688000D01*
X105535642Y-55689174D01*
X105535642Y-55689174D01*
G37*
D21*
G04 #@! TD*
G04 #@! TO.P,R1,2*
G04 #@! TO.N,VCC*
X105268000Y-56388000D03*
D22*
G04 #@! TO.P,D1,1*
G04 #@! TO.N,Net-(D1-Pad1)*
X103759000Y-58801000D03*
G04 #@! TO.P,D1,2*
G04 #@! TO.N,/ROMDIS*
X103759000Y-61601000D03*
G04 #@! TD*
G04 #@! TO.P,D2,2*
G04 #@! TO.N,/RAMDIS*
X106299000Y-61601000D03*
G04 #@! TO.P,D2,1*
G04 #@! TO.N,Net-(D1-Pad1)*
X106299000Y-58801000D03*
G04 #@! TD*
D23*
G04 #@! TO.N,/A0*
X61214000Y-55626000D03*
X96329500Y-48895000D03*
G04 #@! TO.N,/A1*
X86042500Y-45910500D03*
X57023000Y-55499000D03*
G04 #@! TO.N,/A10*
X108140500Y-47053500D03*
X58293000Y-48069500D03*
G04 #@! TO.N,/A11*
X108140500Y-45783500D03*
X55753000Y-48704500D03*
G04 #@! TO.N,/A12*
X108140500Y-44577000D03*
X54610000Y-53848000D03*
G04 #@! TO.N,/A13*
X106819700Y-41973500D03*
G04 #@! TO.N,/A2*
X96520000Y-53213000D03*
G04 #@! TO.N,/A3*
X97536000Y-52768500D03*
G04 #@! TO.N,/A4*
X96647000Y-47371000D03*
G04 #@! TO.N,/A5*
X91884500Y-48768000D03*
G04 #@! TO.N,/A6*
X88328500Y-48196500D03*
G04 #@! TO.N,/A7*
X53784500Y-54927500D03*
X108140500Y-43053000D03*
G04 #@! TO.N,/A8*
X59499500Y-50990500D03*
X87439500Y-47307500D03*
G04 #@! TO.N,/A9*
X108013500Y-48323500D03*
X59436000Y-49784000D03*
G04 #@! TO.N,/D0*
X63373000Y-55626000D03*
G04 #@! TO.N,/D1*
X66675000Y-60515500D03*
G04 #@! TO.N,/D2*
X65468500Y-59372500D03*
G04 #@! TO.N,GND*
X108140500Y-40830500D03*
X54546500Y-43243500D03*
X100774500Y-51752500D03*
X68961000Y-62484000D03*
X89852500Y-51752500D03*
G04 #@! TO.N,IORQ*
X91313000Y-53911500D03*
G04 #@! TO.N,MREQ*
X86042500Y-57912000D03*
G04 #@! TO.N,VCC*
X86169500Y-61722000D03*
X92329000Y-60452000D03*
X73914000Y-56578500D03*
X67691000Y-56642000D03*
X104330500Y-49911000D03*
X94678500Y-49847500D03*
G04 #@! TO.N,WR*
X63436500Y-53721000D03*
X92202000Y-53022500D03*
X79883000Y-60388500D03*
G04 #@! TO.N,/A14*
X105981500Y-41084500D03*
G04 #@! TO.N,RD*
X64706500Y-53721000D03*
G04 #@! TO.N,/SEL1*
X60452000Y-44005500D03*
X77216000Y-45339000D03*
G04 #@! TO.N,/MAP3*
X73723500Y-52705000D03*
X101727000Y-50927000D03*
G04 #@! TO.N,/MAP2*
X72644000Y-53086000D03*
X92202000Y-56070500D03*
G04 #@! TO.N,/MAP1*
X92773500Y-58039000D03*
X71564500Y-53975000D03*
G04 #@! TO.N,/SEL0*
X77470000Y-55689500D03*
X62611000Y-52832000D03*
G04 #@! TO.N,/RAMSEL*
X79883000Y-55626000D03*
X64198500Y-51943000D03*
G04 #@! TD*
D24*
G04 #@! TO.N,/A0*
X60833000Y-56007000D02*
X61214000Y-55626000D01*
X60833000Y-57404000D02*
X60833000Y-56007000D01*
X94259000Y-47117000D02*
X94709000Y-47117000D01*
X96329500Y-48266383D02*
X96329500Y-48895000D01*
X95180117Y-47117000D02*
X96329500Y-48266383D01*
X94709000Y-47117000D02*
X95180117Y-47117000D01*
X60833000Y-58610500D02*
X60833000Y-57404000D01*
X60833000Y-58928000D02*
X60833000Y-58610500D01*
X69469000Y-64262126D02*
X66565933Y-61359058D01*
X69469000Y-64389000D02*
X69469000Y-64262126D01*
X66565933Y-61359058D02*
X64790719Y-61359058D01*
X64790719Y-61359058D02*
X62740661Y-59309000D01*
X62740661Y-59309000D02*
X61214000Y-59309000D01*
X61214000Y-59309000D02*
X60833000Y-58928000D01*
G04 #@! TO.N,/A1*
X89281000Y-43307000D02*
X89822000Y-43307000D01*
X60388500Y-59944000D02*
X59563000Y-59118500D01*
X69469000Y-66929000D02*
X68172701Y-65632701D01*
X68172701Y-65632701D02*
X68172701Y-63792023D01*
X64548730Y-61943268D02*
X62549464Y-59944000D01*
X62549464Y-59944000D02*
X60388500Y-59944000D01*
X59563000Y-59118500D02*
X59563000Y-58547000D01*
X68172701Y-63792023D02*
X66323946Y-61943268D01*
X59563000Y-58547000D02*
X59563000Y-58293000D01*
X66323946Y-61943268D02*
X64548730Y-61943268D01*
X58928000Y-55499000D02*
X59563000Y-56134000D01*
X57023000Y-55499000D02*
X58928000Y-55499000D01*
X59563000Y-56134000D02*
X59563000Y-57404000D01*
X88963500Y-43307000D02*
X89822000Y-43307000D01*
X86042500Y-45910500D02*
X88646000Y-43307000D01*
X88646000Y-43307000D02*
X88963500Y-43307000D01*
G04 #@! TO.N,/A10*
X108140500Y-47053500D02*
X109697500Y-47053500D01*
X109697500Y-47053500D02*
X109761000Y-47117000D01*
X58293000Y-48069500D02*
X58293000Y-47180500D01*
X58293000Y-47180500D02*
X58293000Y-45974000D01*
G04 #@! TO.N,/A11*
X109697500Y-45783500D02*
X109761000Y-45847000D01*
X108140500Y-45783500D02*
X109697500Y-45783500D01*
X55753000Y-48704500D02*
X55753000Y-47307500D01*
X55753000Y-47307500D02*
X55753000Y-45974000D01*
G04 #@! TO.N,/A12*
X108140500Y-44577000D02*
X109761000Y-44577000D01*
X53022500Y-53848000D02*
X50673000Y-56197500D01*
X54610000Y-53848000D02*
X53022500Y-53848000D01*
X50673000Y-56197500D02*
X50673000Y-57404000D01*
X50673000Y-58775600D02*
X50673000Y-57404000D01*
X54229000Y-64389000D02*
X50673000Y-60833000D01*
X50673000Y-60833000D02*
X50673000Y-58775600D01*
G04 #@! TO.N,/A13*
X106819700Y-41973500D02*
X106819700Y-44519300D01*
X106819700Y-44519300D02*
X105492000Y-45847000D01*
X105492000Y-45847000D02*
X104361000Y-45847000D01*
X103230000Y-45847000D02*
X104361000Y-45847000D01*
X102722000Y-46355000D02*
X103230000Y-45847000D01*
X94836000Y-57912000D02*
X95967000Y-57912000D01*
X95967000Y-57912000D02*
X97853500Y-56025500D01*
X97853500Y-56025500D02*
X97853500Y-54527304D01*
X97853500Y-54527304D02*
X98997352Y-53383452D01*
X102722000Y-48358858D02*
X102722000Y-46355000D01*
X98997352Y-53383452D02*
X98997352Y-52083506D01*
X98997352Y-52083506D02*
X102722000Y-48358858D01*
G04 #@! TO.N,/A15*
X110211000Y-43307000D02*
X109761000Y-43307000D01*
X109761000Y-43307000D02*
X110892000Y-43307000D01*
X110249662Y-49657000D02*
X110567162Y-49339500D01*
X110892000Y-43307000D02*
X111048790Y-43150210D01*
X111048790Y-48857872D02*
X110249662Y-49657000D01*
X111048790Y-43150210D02*
X111048790Y-48857872D01*
X50392701Y-65632701D02*
X51689000Y-66929000D01*
X50392701Y-61378898D02*
X50392701Y-65632701D01*
X48145689Y-59131886D02*
X50392701Y-61378898D01*
X48145689Y-41897311D02*
X48145689Y-59131886D01*
X111048790Y-43150210D02*
X111048790Y-40296128D01*
X111048790Y-40296128D02*
X109589242Y-38836580D01*
X109589242Y-38836580D02*
X58000920Y-38836580D01*
X58000920Y-38836580D02*
X56515000Y-40322500D01*
X56515000Y-40322500D02*
X49720500Y-40322500D01*
X49720500Y-40322500D02*
X48145689Y-41897311D01*
X104351500Y-52176000D02*
X106870500Y-49657000D01*
X106870500Y-49657000D02*
X110249662Y-49657000D01*
X104351500Y-53657500D02*
X104351500Y-52176000D01*
X101367000Y-56642000D02*
X104351500Y-53657500D01*
X100236000Y-56642000D02*
X101367000Y-56642000D01*
G04 #@! TO.N,/A2*
X99250500Y-47117000D02*
X100109000Y-47117000D01*
X96520000Y-53213000D02*
X96520001Y-52005803D01*
X98806000Y-49719804D02*
X98806000Y-47561500D01*
X96520001Y-52005803D02*
X98806000Y-49719804D01*
X98806000Y-47561500D02*
X99250500Y-47117000D01*
X58293000Y-58547000D02*
X58293000Y-58293000D01*
X58293000Y-59309000D02*
X58293000Y-58547000D01*
X66929000Y-64389000D02*
X66929000Y-64262126D01*
X66929000Y-64262126D02*
X65227963Y-62561089D01*
X65227963Y-62561089D02*
X64340355Y-62561089D01*
X64340355Y-62561089D02*
X62358267Y-60579000D01*
X62358267Y-60579000D02*
X59563000Y-60579000D01*
X59563000Y-60579000D02*
X58293000Y-59309000D01*
G04 #@! TO.N,/A3*
X100109000Y-48387000D02*
X99659000Y-48387000D01*
X97536000Y-52768500D02*
X97536000Y-51816000D01*
X100109000Y-49243000D02*
X100109000Y-48387000D01*
X97536000Y-51816000D02*
X100109000Y-49243000D01*
X58864500Y-61214000D02*
X57023000Y-59372500D01*
X66929000Y-66929000D02*
X65632701Y-65632701D01*
X62167070Y-61214000D02*
X58864500Y-61214000D01*
X57023000Y-58547000D02*
X57023000Y-57404000D01*
X65632701Y-65632701D02*
X65632701Y-63792023D01*
X57023000Y-59372500D02*
X57023000Y-58547000D01*
X65632701Y-63792023D02*
X64985977Y-63145299D01*
X64985977Y-63145299D02*
X64098369Y-63145299D01*
X64098369Y-63145299D02*
X62167070Y-61214000D01*
G04 #@! TO.N,/A4*
X94259000Y-44577000D02*
X94709000Y-44577000D01*
X96647000Y-45384000D02*
X96647000Y-45974000D01*
X95840000Y-44577000D02*
X96647000Y-45384000D01*
X94709000Y-44577000D02*
X95840000Y-44577000D01*
X96647000Y-45974000D02*
X96647000Y-47371000D01*
X55753000Y-58610500D02*
X55753000Y-57404000D01*
X55753000Y-59499500D02*
X55753000Y-58610500D01*
X61950455Y-61823581D02*
X58077081Y-61823581D01*
X58077081Y-61823581D02*
X55753000Y-59499500D01*
X64389000Y-64262126D02*
X61950455Y-61823581D01*
X64389000Y-64389000D02*
X64389000Y-64262126D01*
G04 #@! TO.N,/A5*
X95186500Y-43307000D02*
X94709000Y-43307000D01*
X94259000Y-42037000D02*
X94709000Y-42037000D01*
X94195500Y-43370500D02*
X93554583Y-43370500D01*
X94709000Y-43307000D02*
X94259000Y-43307000D01*
X94259000Y-43307000D02*
X94195500Y-43370500D01*
X94709000Y-43307000D02*
X94709000Y-42037000D01*
X93578000Y-43307000D02*
X94709000Y-43307000D01*
X92710000Y-44175000D02*
X93578000Y-43307000D01*
X91884500Y-48768000D02*
X92710000Y-47942500D01*
X92710000Y-47942500D02*
X92710000Y-44175000D01*
X64389000Y-66929000D02*
X63092701Y-65632701D01*
X63092701Y-65632701D02*
X63092701Y-63792023D01*
X61708468Y-62407790D02*
X57264290Y-62407790D01*
X54483000Y-58547000D02*
X54483000Y-57404000D01*
X63092701Y-63792023D02*
X61708468Y-62407790D01*
X57264290Y-62407790D02*
X54483000Y-59626500D01*
X54483000Y-59626500D02*
X54483000Y-58547000D01*
G04 #@! TO.N,/A6*
X88328500Y-48196500D02*
X88328500Y-46164500D01*
X88328500Y-46164500D02*
X88646000Y-45847000D01*
X88646000Y-45847000D02*
X89822000Y-45847000D01*
X53213000Y-58610500D02*
X53213000Y-57404000D01*
X53213000Y-59753500D02*
X53213000Y-58610500D01*
X56451500Y-62992000D02*
X53213000Y-59753500D01*
X60452000Y-62992000D02*
X56451500Y-62992000D01*
X61849000Y-64389000D02*
X60452000Y-62992000D01*
G04 #@! TO.N,/A7*
X52895500Y-54927500D02*
X51943000Y-55880000D01*
X53784500Y-54927500D02*
X52895500Y-54927500D01*
X51943000Y-55880000D02*
X51943000Y-57404000D01*
X108185500Y-42481500D02*
X108630000Y-42037000D01*
X108140500Y-43053000D02*
X108185500Y-43008000D01*
X108185500Y-43008000D02*
X108185500Y-42481500D01*
X108630000Y-42037000D02*
X109761000Y-42037000D01*
X51943000Y-58674000D02*
X51943000Y-57404000D01*
X61849000Y-66929000D02*
X60552701Y-65632701D01*
X60552701Y-65632701D02*
X56119425Y-65632701D01*
X56119425Y-65632701D02*
X55472701Y-64985977D01*
X55472701Y-64985977D02*
X55472701Y-63792023D01*
X55472701Y-63792023D02*
X51943000Y-60262322D01*
X51943000Y-60262322D02*
X51943000Y-58674000D01*
G04 #@! TO.N,/A8*
X53213000Y-47345600D02*
X53213000Y-45974000D01*
X53213000Y-48231234D02*
X53213000Y-48133000D01*
X55972266Y-50990500D02*
X53213000Y-48231234D01*
X59499500Y-50990500D02*
X55972266Y-50990500D01*
X53213000Y-48133000D02*
X53213000Y-47345600D01*
X88646000Y-44577000D02*
X89822000Y-44577000D01*
X87439500Y-45783500D02*
X88646000Y-44577000D01*
X87439500Y-47307500D02*
X87439500Y-45783500D01*
G04 #@! TO.N,/A9*
X108013500Y-48323500D02*
X108077000Y-48387000D01*
X108077000Y-48387000D02*
X109761000Y-48387000D01*
X54483000Y-47053500D02*
X54483000Y-45974000D01*
X54483000Y-48675038D02*
X54483000Y-47053500D01*
X55591962Y-49784000D02*
X54483000Y-48675038D01*
X59436000Y-49784000D02*
X55591962Y-49784000D01*
G04 #@! TO.N,/D0*
X63373000Y-55626000D02*
X62738000Y-55626000D01*
X62738000Y-55626000D02*
X62103000Y-56261000D01*
X62103000Y-56261000D02*
X62103000Y-57404000D01*
X77533500Y-49530000D02*
X78995000Y-49530000D01*
X76580438Y-50483062D02*
X77533500Y-49530000D01*
X76580438Y-58545046D02*
X76580438Y-50483062D01*
X79629000Y-64389000D02*
X79629000Y-61593608D01*
X79629000Y-61593608D02*
X76580438Y-58545046D01*
G04 #@! TO.N,/D1*
X75996228Y-58787032D02*
X75996228Y-49797272D01*
X78359000Y-61149804D02*
X75996228Y-58787032D01*
X78359000Y-65659000D02*
X78359000Y-61149804D01*
X77533500Y-48260000D02*
X78995000Y-48260000D01*
X75996228Y-49797272D02*
X77533500Y-48260000D01*
X79629000Y-66929000D02*
X78359000Y-65659000D01*
X63373000Y-59048617D02*
X63373000Y-57404000D01*
X66675000Y-60515500D02*
X64839883Y-60515500D01*
X64839883Y-60515500D02*
X63373000Y-59048617D01*
G04 #@! TO.N,/D2*
X76898500Y-44450000D02*
X78995000Y-44450000D01*
X75412018Y-45936482D02*
X76898500Y-44450000D01*
X75412018Y-59029018D02*
X75412018Y-45936482D01*
X77089000Y-60706000D02*
X75412018Y-59029018D01*
X77089000Y-64389000D02*
X77089000Y-60706000D01*
X64643000Y-58547000D02*
X64643000Y-57404000D01*
X65468500Y-59372500D02*
X64643000Y-58547000D01*
G04 #@! TO.N,/D3*
X75845299Y-65685299D02*
X77089000Y-66929000D01*
X75845299Y-64770000D02*
X75845299Y-65685299D01*
X75845299Y-64770000D02*
X75845299Y-64325500D01*
X75845299Y-61595000D02*
X75845299Y-60303961D01*
X75845299Y-61785500D02*
X75845299Y-61595000D01*
X78995000Y-43180000D02*
X77342303Y-43180000D01*
X77342303Y-43180000D02*
X75679292Y-44843011D01*
X74803000Y-45719303D02*
X75679292Y-44843011D01*
X74803000Y-50863500D02*
X74803000Y-45719303D01*
X74803000Y-50124608D02*
X74803000Y-50863500D01*
X75845299Y-62103000D02*
X75845299Y-61785500D01*
X75845299Y-64325500D02*
X75845299Y-62103000D01*
X68135500Y-52594162D02*
X68453000Y-52911662D01*
X68135500Y-50252696D02*
X68135500Y-52594162D01*
X65913000Y-48030196D02*
X68135500Y-50252696D01*
X65913000Y-45974000D02*
X65913000Y-48030196D01*
X75845299Y-60303962D02*
X75845299Y-64325500D01*
X68453000Y-52911662D02*
X68453000Y-52911663D01*
X74803000Y-59261663D02*
X74913837Y-59372500D01*
X74803000Y-50863500D02*
X74803000Y-59261663D01*
X68453000Y-52911663D02*
X74913837Y-59372500D01*
X74913837Y-59372500D02*
X75845299Y-60303962D01*
G04 #@! TO.N,/D4*
X64643000Y-45974000D02*
X64643000Y-47625000D01*
X67356640Y-50338640D02*
X67356640Y-52641500D01*
X64643000Y-47625000D02*
X67356640Y-50338640D01*
X74549000Y-59833859D02*
X74549000Y-61468000D01*
X67818000Y-53102859D02*
X74549000Y-59833859D01*
X74549000Y-61468000D02*
X74549000Y-64389000D01*
X67356640Y-52641500D02*
X67818000Y-53102859D01*
X68239000Y-49530000D02*
X69595000Y-49530000D01*
X64643000Y-45974000D02*
X64643000Y-44602400D01*
X64643000Y-44602400D02*
X64655701Y-44589699D01*
X64655701Y-44589699D02*
X66507361Y-44589699D01*
X66507361Y-44589699D02*
X67066162Y-45148500D01*
X67066162Y-45148500D02*
X67066162Y-48357162D01*
X67066162Y-48357162D02*
X68239000Y-49530000D01*
G04 #@! TO.N,/D5*
X73305299Y-65685299D02*
X74549000Y-66929000D01*
X73305299Y-59416356D02*
X73305299Y-65685299D01*
X67627500Y-53738557D02*
X73305299Y-59416356D01*
X66657443Y-52768500D02*
X67627500Y-53738557D01*
X66657443Y-50630043D02*
X66657443Y-52768500D01*
X63373000Y-47345600D02*
X66657443Y-50630043D01*
X63373000Y-45974000D02*
X63373000Y-47345600D01*
X63373000Y-44602400D02*
X63373000Y-45974000D01*
X68239000Y-48260000D02*
X67650372Y-47671372D01*
X67650372Y-47671372D02*
X67650372Y-44906514D01*
X67650372Y-44906514D02*
X66749347Y-44005489D01*
X69595000Y-48260000D02*
X68239000Y-48260000D01*
X66749347Y-44005489D02*
X63969911Y-44005489D01*
X63969911Y-44005489D02*
X63373000Y-44602400D01*
G04 #@! TO.N,/D6*
X72009000Y-58946253D02*
X72009000Y-64389000D01*
X65894747Y-52832000D02*
X72009000Y-58946253D01*
X65894747Y-51137347D02*
X65894747Y-52832000D01*
X62103000Y-45974000D02*
X62103000Y-47345600D01*
X62103000Y-47345600D02*
X65894747Y-51137347D01*
X62103000Y-44602400D02*
X62103000Y-45974000D01*
X63284121Y-43421279D02*
X62103000Y-44602400D01*
X66992500Y-43422445D02*
X66992500Y-43421279D01*
X68020055Y-44450000D02*
X66992500Y-43422445D01*
X69595000Y-44450000D02*
X68020055Y-44450000D01*
X66992500Y-43421279D02*
X63284121Y-43421279D01*
G04 #@! TO.N,/D7*
X70765299Y-65685299D02*
X72009000Y-66929000D01*
X70712701Y-67525977D02*
X70065977Y-68172701D01*
X70712701Y-58476150D02*
X70712701Y-67525977D01*
X65278000Y-53041449D02*
X70712701Y-58476150D01*
X65278000Y-51790600D02*
X65278000Y-53041449D01*
X70065977Y-68172701D02*
X58712023Y-68172701D01*
X60833000Y-47345600D02*
X65278000Y-51790600D01*
X60833000Y-45974000D02*
X60833000Y-47345600D01*
X60833000Y-45046204D02*
X60833000Y-45974000D01*
X63042135Y-42837069D02*
X60833000Y-45046204D01*
X67652931Y-43180000D02*
X67310000Y-42837069D01*
X69595000Y-43180000D02*
X67652931Y-43180000D01*
X67310000Y-42837069D02*
X63042135Y-42837069D01*
G04 #@! TO.N,GND*
X109761000Y-40767000D02*
X108204000Y-40767000D01*
X108204000Y-40767000D02*
X108140500Y-40830500D01*
X100363000Y-52705000D02*
X100236000Y-52832000D01*
X89789000Y-52799000D02*
X89822000Y-52832000D01*
X67820790Y-60454790D02*
X68516500Y-61150500D01*
X65913000Y-58547000D02*
X67820790Y-60454790D01*
X65913000Y-57404000D02*
X65913000Y-58547000D01*
X89822000Y-52832000D02*
X90272000Y-52832000D01*
X80351000Y-40640000D02*
X82677000Y-42966000D01*
X78995000Y-40640000D02*
X80351000Y-40640000D01*
X82677000Y-49536383D02*
X82677000Y-49466500D01*
X82677000Y-42966000D02*
X82677000Y-49466500D01*
X110109000Y-68131081D02*
X109088581Y-69151500D01*
X110109000Y-66929000D02*
X110109000Y-68131081D01*
X48299001Y-65238999D02*
X49149000Y-64389000D01*
X47905299Y-65632701D02*
X48299001Y-65238999D01*
X47905299Y-68212589D02*
X47905299Y-65632701D01*
X48844210Y-69151500D02*
X47905299Y-68212589D01*
X109088581Y-69151500D02*
X48844210Y-69151500D01*
X110109000Y-66929000D02*
X111352701Y-65685299D01*
X52832000Y-43243500D02*
X54546500Y-43243500D01*
X100236000Y-52291000D02*
X100774500Y-51752500D01*
X100236000Y-52832000D02*
X100236000Y-52291000D01*
X68961000Y-61595000D02*
X68516500Y-61150500D01*
X68961000Y-62484000D02*
X68961000Y-61595000D01*
X92299210Y-39420790D02*
X90953000Y-40767000D01*
X90953000Y-40767000D02*
X89822000Y-40767000D01*
X96761290Y-39420790D02*
X92299210Y-39420790D01*
X98107500Y-40767000D02*
X96761290Y-39420790D01*
X100109000Y-40767000D02*
X98107500Y-40767000D01*
X108630000Y-40767000D02*
X109761000Y-40767000D01*
X102230201Y-40073299D02*
X107936299Y-40073299D01*
X101536500Y-40767000D02*
X102230201Y-40073299D01*
X107936299Y-40073299D02*
X108630000Y-40767000D01*
X100109000Y-40767000D02*
X101536500Y-40767000D01*
X109497500Y-52848740D02*
X109497500Y-52260500D01*
X109791500Y-56324500D02*
X109791500Y-53142740D01*
X109791500Y-53142740D02*
X109497500Y-52848740D01*
X109791500Y-56324500D02*
X109791500Y-61176799D01*
X111352701Y-65685299D02*
X111352701Y-62738000D01*
X109791500Y-61176799D02*
X111352701Y-62738000D01*
X82677000Y-49670662D02*
X83566000Y-50559662D01*
X82677000Y-49466500D02*
X82677000Y-49670662D01*
X89822000Y-52832000D02*
X89372000Y-52832000D01*
X83566000Y-50559662D02*
X86360000Y-50559662D01*
X87099662Y-50559662D02*
X86360000Y-50559662D01*
X88292500Y-51752500D02*
X87099662Y-50559662D01*
X89852500Y-51752500D02*
X88292500Y-51752500D01*
X89822000Y-51783000D02*
X89852500Y-51752500D01*
X89822000Y-52832000D02*
X89822000Y-51783000D01*
G04 #@! TO.N,IORQ*
X100045500Y-44640500D02*
X100109000Y-44577000D01*
X98978000Y-44577000D02*
X100109000Y-44577000D01*
X91313000Y-53911500D02*
X91313000Y-52457383D01*
X97536000Y-46019000D02*
X98978000Y-44577000D01*
X91313000Y-52457383D02*
X92525883Y-51244500D01*
X95440500Y-51244500D02*
X97536000Y-49149000D01*
X92525883Y-51244500D02*
X95440500Y-51244500D01*
X97536000Y-49149000D02*
X97536000Y-46019000D01*
G04 #@! TO.N,MREQ*
X86042500Y-57912000D02*
X89822000Y-57912000D01*
G04 #@! TO.N,VCC*
X84422000Y-61722000D02*
X86169500Y-61722000D01*
X82169000Y-66929000D02*
X83412701Y-68172701D01*
X108165977Y-68172701D02*
X108812701Y-67525977D01*
X100203000Y-68172701D02*
X108165977Y-68172701D01*
X83412701Y-68172701D02*
X100203000Y-68172701D01*
X49403000Y-43872500D02*
X50032000Y-43243500D01*
X49403000Y-45974000D02*
X49403000Y-43872500D01*
X93281500Y-60452000D02*
X94836000Y-60452000D01*
X92329000Y-60452000D02*
X93281500Y-60452000D01*
X100236000Y-59182000D02*
X101367000Y-59182000D01*
X101600000Y-61468000D02*
X101245299Y-61822701D01*
X100545977Y-68172701D02*
X100203000Y-68172701D01*
X101367000Y-59182000D02*
X101600000Y-59415000D01*
X101600000Y-59415000D02*
X101600000Y-61468000D01*
X101245299Y-61822701D02*
X101245299Y-67473379D01*
X101245299Y-67473379D02*
X100545977Y-68172701D01*
X73914000Y-56578500D02*
X72946033Y-56578500D01*
X69595000Y-53227467D02*
X69595000Y-52070000D01*
X72946033Y-56578500D02*
X69595000Y-53227467D01*
X66230500Y-55181500D02*
X66154299Y-55105299D01*
X67691000Y-56642000D02*
X66230500Y-55181500D01*
X67691000Y-56642000D02*
X68516500Y-57467500D01*
X68516500Y-57467500D02*
X68516500Y-58350500D01*
X67691000Y-56642000D02*
X66664838Y-55615838D01*
X94709000Y-48387000D02*
X94259000Y-48387000D01*
X92837000Y-50355500D02*
X92290500Y-50355500D01*
X93027500Y-50355500D02*
X92837000Y-50355500D01*
X104330500Y-49911000D02*
X104330500Y-48417500D01*
X104330500Y-48417500D02*
X104361000Y-48387000D01*
X49403000Y-45974000D02*
X49403000Y-47345600D01*
X49403000Y-47345600D02*
X54737000Y-52679600D01*
X54737000Y-52679600D02*
X54940199Y-52882799D01*
X56616601Y-54559201D02*
X54737000Y-52679600D01*
X67691000Y-56642000D02*
X65608201Y-54559201D01*
X65608201Y-54559201D02*
X56616601Y-54559201D01*
X93472001Y-50355499D02*
X92837000Y-50355500D01*
X94170501Y-50355499D02*
X93472001Y-50355499D01*
X94678500Y-49847500D02*
X94170501Y-50355499D01*
X94678500Y-48417500D02*
X94709000Y-48387000D01*
X94678500Y-49847500D02*
X94678500Y-48417500D01*
X106991500Y-52266500D02*
X106997500Y-52260500D01*
X108812701Y-59817000D02*
X108812701Y-59479201D01*
X108812701Y-67525977D02*
X108812701Y-59817000D01*
X106928000Y-56388000D02*
X106991500Y-56324500D01*
X105268000Y-56388000D02*
X106928000Y-56388000D01*
X106991500Y-56324500D02*
X106991500Y-53149500D01*
X106991500Y-53357500D02*
X106991500Y-53149500D01*
X106991500Y-53149500D02*
X106991500Y-52266500D01*
X108812701Y-59120701D02*
X108812701Y-59436000D01*
X106991500Y-57299500D02*
X108812701Y-59120701D01*
X106991500Y-56324500D02*
X106991500Y-57299500D01*
X108812701Y-59817000D02*
X108812701Y-59436000D01*
X87821781Y-49657000D02*
X88519002Y-50354221D01*
X84422000Y-49657000D02*
X87821781Y-49657000D01*
X92290500Y-50355500D02*
X88519002Y-50354221D01*
G04 #@! TO.N,WR*
X100045500Y-45910500D02*
X100109000Y-45847000D01*
X100109000Y-45847000D02*
X99187000Y-45847000D01*
X50736500Y-46037500D02*
X50673000Y-45974000D01*
X50673000Y-45974000D02*
X50673000Y-46685200D01*
X98933000Y-45847000D02*
X100109000Y-45847000D01*
X98221790Y-46558210D02*
X98933000Y-45847000D01*
X98221790Y-49352210D02*
X98221790Y-46558210D01*
X95694500Y-51879500D02*
X98221790Y-49352210D01*
X93345000Y-51879500D02*
X95694500Y-51879500D01*
X92202000Y-53022500D02*
X93345000Y-51879500D01*
X50673000Y-47244000D02*
X50673000Y-45974000D01*
X50673000Y-47343627D02*
X50673000Y-47244000D01*
X57050373Y-53721000D02*
X50673000Y-47343627D01*
X63436500Y-53721000D02*
X57050373Y-53721000D01*
X82638911Y-63144411D02*
X79883000Y-60388500D01*
X89789000Y-66929000D02*
X88492701Y-65632701D01*
X88492701Y-65632701D02*
X86652023Y-65632701D01*
X86652023Y-65632701D02*
X85952701Y-64933379D01*
X85952701Y-64933379D02*
X85952701Y-63792023D01*
X85952701Y-63792023D02*
X85305089Y-63144411D01*
X85305089Y-63144411D02*
X82638911Y-63144411D01*
G04 #@! TO.N,/A14*
X105981500Y-43406500D02*
X105981500Y-41084500D01*
X105981500Y-44087500D02*
X105981500Y-43406500D01*
X104361000Y-44577000D02*
X105492000Y-44577000D01*
X105492000Y-44577000D02*
X105981500Y-44087500D01*
X94836000Y-54102000D02*
X97409000Y-54102000D01*
X103230000Y-44577000D02*
X104361000Y-44577000D01*
X98413142Y-53097858D02*
X98413142Y-51841520D01*
X98413142Y-51841520D02*
X101981000Y-48273662D01*
X101981000Y-48273662D02*
X101981000Y-45826000D01*
X97409000Y-54102000D02*
X98413142Y-53097858D01*
X101981000Y-45826000D02*
X103230000Y-44577000D01*
G04 #@! TO.N,/RAMDIS*
X105029000Y-66929000D02*
X106299000Y-65659000D01*
X106299000Y-65659000D02*
X106299000Y-61961000D01*
G04 #@! TO.N,/RESET*
X78994000Y-58052662D02*
X78994000Y-52752000D01*
X85547075Y-62560201D02*
X83501539Y-62560201D01*
X78995000Y-52751000D02*
X78995000Y-52070000D01*
X85986785Y-62999911D02*
X85547075Y-62560201D01*
X97860589Y-62999911D02*
X85986785Y-62999911D01*
X98652701Y-63792023D02*
X97860589Y-62999911D01*
X78994000Y-52752000D02*
X78995000Y-52751000D01*
X83501539Y-62560201D02*
X78994000Y-58052662D01*
X98652701Y-65632701D02*
X98652701Y-63792023D01*
X99949000Y-66929000D02*
X98652701Y-65632701D01*
G04 #@! TO.N,RD*
X57023000Y-48040038D02*
X57023000Y-47752000D01*
X57023000Y-47752000D02*
X57023000Y-45974000D01*
X57928761Y-48945799D02*
X57023000Y-48040038D01*
X59931299Y-48945799D02*
X57928761Y-48945799D01*
X64706500Y-53721000D02*
X59931299Y-48945799D01*
G04 #@! TO.N,/SEL1*
X77216000Y-45967617D02*
X77216000Y-45339000D01*
X77216000Y-46567000D02*
X77216000Y-45967617D01*
X78995000Y-46990000D02*
X77639000Y-46990000D01*
X77639000Y-46990000D02*
X77216000Y-46567000D01*
X60452000Y-40991000D02*
X60418500Y-40957500D01*
X60452000Y-44005500D02*
X60452000Y-40991000D01*
G04 #@! TO.N,Net-(JP1-Pad2)*
X48729899Y-42139297D02*
X49911696Y-40957500D01*
X50407654Y-40957500D02*
X59118500Y-40957500D01*
X49911696Y-40957500D02*
X50407654Y-40957500D01*
X48729899Y-47688500D02*
X48729899Y-42139297D01*
X49403000Y-48361601D02*
X48729899Y-47688500D01*
X49403000Y-57404000D02*
X49403000Y-48361601D01*
G04 #@! TO.N,/MAP3*
X70951000Y-41910000D02*
X69595000Y-41910000D01*
X73723500Y-44682500D02*
X70951000Y-41910000D01*
X73723500Y-52705000D02*
X73723500Y-44682500D01*
X101727000Y-55012000D02*
X101367000Y-55372000D01*
X101727000Y-50927000D02*
X101727000Y-55012000D01*
X101367000Y-55372000D02*
X100236000Y-55372000D01*
G04 #@! TO.N,/MAP2*
X71547911Y-46316911D02*
X70951000Y-45720000D01*
X70951000Y-45720000D02*
X69595000Y-45720000D01*
X72644000Y-47413000D02*
X70951000Y-45720000D01*
X72644000Y-53086000D02*
X72644000Y-47413000D01*
X92900500Y-55372000D02*
X92202000Y-56070500D01*
X94836000Y-55372000D02*
X92900500Y-55372000D01*
G04 #@! TO.N,Net-(U1-Pad8)*
X93599000Y-52832000D02*
X94836000Y-52832000D01*
X91313000Y-55118000D02*
X93599000Y-52832000D01*
X91313000Y-58822000D02*
X91313000Y-55118000D01*
X90953000Y-59182000D02*
X91313000Y-58822000D01*
X89822000Y-59182000D02*
X90953000Y-59182000D01*
G04 #@! TO.N,/MAP1*
X94836000Y-59182000D02*
X93154500Y-59182000D01*
X92773500Y-58801000D02*
X92773500Y-58039000D01*
X93154500Y-59182000D02*
X92773500Y-58801000D01*
X70951000Y-46990000D02*
X69595000Y-46990000D01*
X71564500Y-47603500D02*
X70951000Y-46990000D01*
X71564500Y-53975000D02*
X71564500Y-47603500D01*
G04 #@! TO.N,Net-(U1-Pad11)*
X91897210Y-57645290D02*
X92900500Y-56642000D01*
X92900500Y-56642000D02*
X94836000Y-56642000D01*
X91897210Y-59643252D02*
X91897210Y-57645290D01*
X91088462Y-60452000D02*
X91897210Y-59643252D01*
X89822000Y-60452000D02*
X91088462Y-60452000D01*
G04 #@! TO.N,/SEL2*
X78995000Y-45720000D02*
X80391000Y-45720000D01*
X81216500Y-46545500D02*
X81216500Y-49862554D01*
X80391000Y-45720000D02*
X81216500Y-46545500D01*
X83119156Y-51765210D02*
X83042946Y-51689000D01*
X85852000Y-52387500D02*
X85229710Y-51765210D01*
X85852000Y-53803000D02*
X85852000Y-52387500D01*
X89822000Y-56642000D02*
X88691000Y-56642000D01*
X88691000Y-56642000D02*
X85852000Y-53803000D01*
X83756500Y-51765210D02*
X83119156Y-51765210D01*
X83119156Y-51765210D02*
X82534946Y-51181000D01*
X82534946Y-51181000D02*
X83042946Y-51689000D01*
X81216500Y-49862554D02*
X82534946Y-51181000D01*
X85229710Y-51765210D02*
X83756500Y-51765210D01*
G04 #@! TO.N,/SEL3*
X86436210Y-53117210D02*
X88691000Y-55372000D01*
X86436210Y-52074799D02*
X86436210Y-53117210D01*
X78995000Y-41910000D02*
X80351000Y-41910000D01*
X80351000Y-41910000D02*
X81831461Y-43390461D01*
X81831461Y-43390461D02*
X81831461Y-49651319D01*
X81831461Y-49651319D02*
X83361142Y-51181000D01*
X88691000Y-55372000D02*
X89822000Y-55372000D01*
X83361142Y-51181000D02*
X85542411Y-51181000D01*
X85542411Y-51181000D02*
X86436210Y-52074799D01*
G04 #@! TO.N,Net-(U3-Pad8)*
X102235000Y-42312000D02*
X102235000Y-41762000D01*
X101240000Y-43307000D02*
X102235000Y-42312000D01*
X102235000Y-41762000D02*
X103230000Y-40767000D01*
X100109000Y-43307000D02*
X101240000Y-43307000D01*
X103230000Y-40767000D02*
X104361000Y-40767000D01*
G04 #@! TO.N,/SEL0*
X51943000Y-45974000D02*
X51943000Y-46685200D01*
X77787500Y-50800000D02*
X78995000Y-50800000D01*
X77470000Y-51117500D02*
X77787500Y-50800000D01*
X77470000Y-55689500D02*
X77470000Y-51117500D01*
X51943000Y-47561500D02*
X51943000Y-45974000D01*
X51943000Y-47787430D02*
X51943000Y-47561500D01*
X56987570Y-52832000D02*
X51943000Y-47787430D01*
X62611000Y-52832000D02*
X56987570Y-52832000D01*
G04 #@! TO.N,Net-(U5-Pad6)*
X91186000Y-46884000D02*
X91186000Y-46228000D01*
X90953000Y-47117000D02*
X91186000Y-46884000D01*
X89822000Y-47117000D02*
X90953000Y-47117000D01*
X91186000Y-46757000D02*
X91186000Y-46228000D01*
X92964000Y-40005000D02*
X91186000Y-41783000D01*
X96266000Y-40005000D02*
X92964000Y-40005000D01*
X91186000Y-41783000D02*
X91186000Y-46228000D01*
X98298000Y-42037000D02*
X96266000Y-40005000D01*
X100109000Y-42037000D02*
X98298000Y-42037000D01*
G04 #@! TO.N,Net-(U5-Pad8)*
X91821000Y-42418000D02*
X93472000Y-40767000D01*
X93472000Y-40767000D02*
X94709000Y-40767000D01*
X91821000Y-47519000D02*
X91821000Y-46990000D01*
X90953000Y-48387000D02*
X91821000Y-47519000D01*
X89822000Y-48387000D02*
X90953000Y-48387000D01*
X91821000Y-46990000D02*
X91821000Y-42418000D01*
G04 #@! TO.N,Net-(U5-Pad12)*
X94259000Y-45847000D02*
X94709000Y-45847000D01*
X93565299Y-46540701D02*
X94259000Y-45847000D01*
X93565299Y-48327739D02*
X93565299Y-46540701D01*
X92236038Y-49657000D02*
X93565299Y-48327739D01*
X89822000Y-49657000D02*
X92236038Y-49657000D01*
G04 #@! TO.N,/MAPSEL*
X71950299Y-39946299D02*
X71256598Y-40640000D01*
X86600299Y-39946299D02*
X71950299Y-39946299D01*
X71256598Y-40640000D02*
X69595000Y-40640000D01*
X88691000Y-42037000D02*
X86600299Y-39946299D01*
X89822000Y-42037000D02*
X88691000Y-42037000D01*
G04 #@! TO.N,/RAMSEL*
X83566000Y-60452000D02*
X84422000Y-60452000D01*
X59563000Y-47307500D02*
X59563000Y-45974000D01*
X64198500Y-51943000D02*
X59563000Y-47307500D01*
X85788500Y-60452000D02*
X84422000Y-60452000D01*
X86140038Y-60452000D02*
X85788500Y-60452000D01*
X88103739Y-62415701D02*
X86140038Y-60452000D01*
X95457158Y-62415701D02*
X88103739Y-62415701D01*
X97420859Y-60452000D02*
X95457158Y-62415701D01*
X100236000Y-60452000D02*
X97420859Y-60452000D01*
X79883000Y-56254617D02*
X79883000Y-55626000D01*
X79883000Y-57044000D02*
X79883000Y-56254617D01*
X83291000Y-60452000D02*
X79883000Y-57044000D01*
X84422000Y-60452000D02*
X83291000Y-60452000D01*
G04 #@! TO.N,/ROMDIS*
X102489000Y-66929000D02*
X103759000Y-65659000D01*
X103759000Y-65659000D02*
X103759000Y-61961000D01*
G04 #@! TO.N,Net-(U1-Pad6)*
X99105000Y-54102000D02*
X100236000Y-54102000D01*
X98552000Y-54655000D02*
X99105000Y-54102000D01*
X98552000Y-58494662D02*
X98552000Y-54655000D01*
X95324662Y-61722000D02*
X98552000Y-58494662D01*
X89822000Y-61722000D02*
X95324662Y-61722000D01*
G04 #@! TO.N,Net-(D1-Pad1)*
X101869000Y-57912000D02*
X103393000Y-56388000D01*
X100236000Y-57912000D02*
X101869000Y-57912000D01*
X102870000Y-57912000D02*
X103759000Y-58801000D01*
X100236000Y-57912000D02*
X102870000Y-57912000D01*
X103759000Y-58801000D02*
X106299000Y-58801000D01*
G04 #@! TD*
M02*
