G04 (created by PCBNEW-RS274X (2011-07-08 BZR 3044)-stable) date 06/10/2012 12:04:17*
G01*
G70*
G90*
%MOIN*%
G04 Gerber Fmt 3.4, Leading zero omitted, Abs format*
%FSLAX34Y34*%
G04 APERTURE LIST*
%ADD10C,0.006000*%
%ADD11C,0.012000*%
%ADD12C,0.015000*%
%ADD13C,0.010000*%
%ADD14C,0.008000*%
%ADD15C,0.011300*%
%ADD16C,0.003500*%
%ADD17C,0.075000*%
%ADD18R,0.082000X0.110000*%
%ADD19O,0.082000X0.110000*%
%ADD20R,0.075000X0.075000*%
%ADD21C,0.090000*%
%ADD22R,0.090000X0.090000*%
%ADD23R,0.110000X0.082000*%
%ADD24O,0.110000X0.082000*%
%ADD25O,0.138700X0.079300*%
%ADD26C,0.086000*%
%ADD27R,0.080000X0.080000*%
%ADD28C,0.080000*%
G04 APERTURE END LIST*
G54D10*
G54D11*
X18324Y-16827D02*
X18324Y-16941D01*
X18362Y-16998D01*
X18400Y-17027D01*
X18514Y-17084D01*
X18667Y-17113D01*
X18971Y-17113D01*
X19048Y-17084D01*
X19086Y-17056D01*
X19124Y-16998D01*
X19124Y-16884D01*
X19086Y-16827D01*
X19048Y-16798D01*
X18971Y-16770D01*
X18781Y-16770D01*
X18705Y-16798D01*
X18667Y-16827D01*
X18629Y-16884D01*
X18629Y-16998D01*
X18667Y-17056D01*
X18705Y-17084D01*
X18781Y-17113D01*
X18324Y-16399D02*
X18324Y-16342D01*
X18362Y-16285D01*
X18400Y-16256D01*
X18476Y-16227D01*
X18629Y-16199D01*
X18819Y-16199D01*
X18971Y-16227D01*
X19048Y-16256D01*
X19086Y-16285D01*
X19124Y-16342D01*
X19124Y-16399D01*
X19086Y-16456D01*
X19048Y-16485D01*
X18971Y-16513D01*
X18819Y-16542D01*
X18629Y-16542D01*
X18476Y-16513D01*
X18400Y-16485D01*
X18362Y-16456D01*
X18324Y-16399D01*
X18667Y-15856D02*
X18629Y-15914D01*
X18590Y-15942D01*
X18514Y-15971D01*
X18476Y-15971D01*
X18400Y-15942D01*
X18362Y-15914D01*
X18324Y-15856D01*
X18324Y-15742D01*
X18362Y-15685D01*
X18400Y-15656D01*
X18476Y-15628D01*
X18514Y-15628D01*
X18590Y-15656D01*
X18629Y-15685D01*
X18667Y-15742D01*
X18667Y-15856D01*
X18705Y-15914D01*
X18743Y-15942D01*
X18819Y-15971D01*
X18971Y-15971D01*
X19048Y-15942D01*
X19086Y-15914D01*
X19124Y-15856D01*
X19124Y-15742D01*
X19086Y-15685D01*
X19048Y-15656D01*
X18971Y-15628D01*
X18819Y-15628D01*
X18743Y-15656D01*
X18705Y-15685D01*
X18667Y-15742D01*
X18324Y-15428D02*
X18324Y-15057D01*
X18629Y-15257D01*
X18629Y-15171D01*
X18667Y-15114D01*
X18705Y-15085D01*
X18781Y-15057D01*
X18971Y-15057D01*
X19048Y-15085D01*
X19086Y-15114D01*
X19124Y-15171D01*
X19124Y-15343D01*
X19086Y-15400D01*
X19048Y-15428D01*
X18324Y-14543D02*
X18324Y-14657D01*
X18362Y-14714D01*
X18400Y-14743D01*
X18514Y-14800D01*
X18667Y-14829D01*
X18971Y-14829D01*
X19048Y-14800D01*
X19086Y-14772D01*
X19124Y-14714D01*
X19124Y-14600D01*
X19086Y-14543D01*
X19048Y-14514D01*
X18971Y-14486D01*
X18781Y-14486D01*
X18705Y-14514D01*
X18667Y-14543D01*
X18629Y-14600D01*
X18629Y-14714D01*
X18667Y-14772D01*
X18705Y-14800D01*
X18781Y-14829D01*
G54D12*
X07000Y-08100D02*
X07000Y-08000D01*
X34200Y-08100D02*
X07000Y-08100D01*
X34200Y-27700D02*
X34200Y-08100D01*
X07000Y-27700D02*
X34200Y-27700D01*
X07000Y-08100D02*
X07000Y-27700D01*
G54D11*
X16624Y-22200D02*
X15824Y-22200D01*
X15824Y-21972D01*
X15862Y-21914D01*
X15900Y-21886D01*
X15976Y-21857D01*
X16090Y-21857D01*
X16167Y-21886D01*
X16205Y-21914D01*
X16243Y-21972D01*
X16243Y-22200D01*
X16090Y-21343D02*
X16624Y-21343D01*
X16090Y-21600D02*
X16510Y-21600D01*
X16586Y-21572D01*
X16624Y-21514D01*
X16624Y-21429D01*
X16586Y-21372D01*
X16548Y-21343D01*
X16624Y-20971D02*
X16586Y-21029D01*
X16510Y-21057D01*
X15824Y-21057D01*
X16624Y-20743D02*
X15824Y-20743D01*
X16319Y-20686D02*
X16624Y-20515D01*
X16090Y-20515D02*
X16395Y-20743D01*
X16624Y-20171D02*
X16586Y-20229D01*
X16548Y-20257D01*
X16471Y-20286D01*
X16243Y-20286D01*
X16167Y-20257D01*
X16129Y-20229D01*
X16090Y-20171D01*
X16090Y-20086D01*
X16129Y-20029D01*
X16167Y-20000D01*
X16243Y-19971D01*
X16471Y-19971D01*
X16548Y-20000D01*
X16586Y-20029D01*
X16624Y-20086D01*
X16624Y-20171D01*
X15824Y-19800D02*
X15824Y-19457D01*
X16624Y-19628D02*
X15824Y-19628D01*
X16624Y-19257D02*
X16090Y-19257D01*
X16243Y-19257D02*
X16167Y-19229D01*
X16129Y-19200D01*
X16090Y-19143D01*
X16090Y-19086D01*
X16624Y-18800D02*
X16586Y-18858D01*
X16548Y-18886D01*
X16471Y-18915D01*
X16243Y-18915D01*
X16167Y-18886D01*
X16129Y-18858D01*
X16090Y-18800D01*
X16090Y-18715D01*
X16129Y-18658D01*
X16167Y-18629D01*
X16243Y-18600D01*
X16471Y-18600D01*
X16548Y-18629D01*
X16586Y-18658D01*
X16624Y-18715D01*
X16624Y-18800D01*
X16090Y-18343D02*
X16624Y-18343D01*
X16167Y-18343D02*
X16129Y-18315D01*
X16090Y-18257D01*
X16090Y-18172D01*
X16129Y-18115D01*
X16205Y-18086D01*
X16624Y-18086D01*
X16624Y-17800D02*
X16090Y-17800D01*
X15824Y-17800D02*
X15862Y-17829D01*
X15900Y-17800D01*
X15862Y-17772D01*
X15824Y-17800D01*
X15900Y-17800D01*
X16586Y-17257D02*
X16624Y-17314D01*
X16624Y-17428D01*
X16586Y-17486D01*
X16548Y-17514D01*
X16471Y-17543D01*
X16243Y-17543D01*
X16167Y-17514D01*
X16129Y-17486D01*
X16090Y-17428D01*
X16090Y-17314D01*
X16129Y-17257D01*
X16586Y-17029D02*
X16624Y-16972D01*
X16624Y-16857D01*
X16586Y-16800D01*
X16510Y-16772D01*
X16471Y-16772D01*
X16395Y-16800D01*
X16357Y-16857D01*
X16357Y-16943D01*
X16319Y-17000D01*
X16243Y-17029D01*
X16205Y-17029D01*
X16129Y-17000D01*
X16090Y-16943D01*
X16090Y-16857D01*
X16129Y-16800D01*
X07801Y-15505D02*
X07601Y-15505D01*
X07601Y-15924D02*
X07601Y-15124D01*
X07887Y-15124D01*
X08201Y-15924D02*
X08143Y-15886D01*
X08115Y-15810D01*
X08115Y-15124D01*
X08686Y-15924D02*
X08686Y-15505D01*
X08657Y-15429D01*
X08600Y-15390D01*
X08486Y-15390D01*
X08429Y-15429D01*
X08686Y-15886D02*
X08629Y-15924D01*
X08486Y-15924D01*
X08429Y-15886D01*
X08400Y-15810D01*
X08400Y-15733D01*
X08429Y-15657D01*
X08486Y-15619D01*
X08629Y-15619D01*
X08686Y-15581D01*
X08943Y-15886D02*
X09000Y-15924D01*
X09115Y-15924D01*
X09172Y-15886D01*
X09200Y-15810D01*
X09200Y-15771D01*
X09172Y-15695D01*
X09115Y-15657D01*
X09029Y-15657D01*
X08972Y-15619D01*
X08943Y-15543D01*
X08943Y-15505D01*
X08972Y-15429D01*
X09029Y-15390D01*
X09115Y-15390D01*
X09172Y-15429D01*
X09458Y-15924D02*
X09458Y-15124D01*
X09715Y-15924D02*
X09715Y-15505D01*
X09686Y-15429D01*
X09629Y-15390D01*
X09544Y-15390D01*
X09486Y-15429D01*
X09458Y-15467D01*
X10315Y-15162D02*
X10258Y-15124D01*
X10172Y-15124D01*
X10087Y-15162D01*
X10029Y-15238D01*
X10001Y-15314D01*
X09972Y-15467D01*
X09972Y-15581D01*
X10001Y-15733D01*
X10029Y-15810D01*
X10087Y-15886D01*
X10172Y-15924D01*
X10229Y-15924D01*
X10315Y-15886D01*
X10344Y-15848D01*
X10344Y-15581D01*
X10229Y-15581D01*
X10687Y-15924D02*
X10629Y-15886D01*
X10601Y-15848D01*
X10572Y-15771D01*
X10572Y-15543D01*
X10601Y-15467D01*
X10629Y-15429D01*
X10687Y-15390D01*
X10772Y-15390D01*
X10829Y-15429D01*
X10858Y-15467D01*
X10887Y-15543D01*
X10887Y-15771D01*
X10858Y-15848D01*
X10829Y-15886D01*
X10772Y-15924D01*
X10687Y-15924D01*
X11144Y-15924D02*
X11144Y-15390D01*
X11144Y-15543D02*
X11172Y-15467D01*
X11201Y-15429D01*
X11258Y-15390D01*
X11315Y-15390D01*
X11772Y-15924D02*
X11772Y-15124D01*
X11772Y-15886D02*
X11715Y-15924D01*
X11601Y-15924D01*
X11543Y-15886D01*
X11515Y-15848D01*
X11486Y-15771D01*
X11486Y-15543D01*
X11515Y-15467D01*
X11543Y-15429D01*
X11601Y-15390D01*
X11715Y-15390D01*
X11772Y-15429D01*
X12144Y-15924D02*
X12086Y-15886D01*
X12058Y-15848D01*
X12029Y-15771D01*
X12029Y-15543D01*
X12058Y-15467D01*
X12086Y-15429D01*
X12144Y-15390D01*
X12229Y-15390D01*
X12286Y-15429D01*
X12315Y-15467D01*
X12344Y-15543D01*
X12344Y-15771D01*
X12315Y-15848D01*
X12286Y-15886D01*
X12229Y-15924D01*
X12144Y-15924D01*
X12601Y-15390D02*
X12601Y-15924D01*
X12601Y-15467D02*
X12629Y-15429D01*
X12687Y-15390D01*
X12772Y-15390D01*
X12829Y-15429D01*
X12858Y-15505D01*
X12858Y-15924D01*
X13572Y-15200D02*
X13601Y-15162D01*
X13658Y-15124D01*
X13801Y-15124D01*
X13858Y-15162D01*
X13887Y-15200D01*
X13915Y-15276D01*
X13915Y-15352D01*
X13887Y-15467D01*
X13544Y-15924D01*
X13915Y-15924D01*
X14286Y-15124D02*
X14343Y-15124D01*
X14400Y-15162D01*
X14429Y-15200D01*
X14458Y-15276D01*
X14486Y-15429D01*
X14486Y-15619D01*
X14458Y-15771D01*
X14429Y-15848D01*
X14400Y-15886D01*
X14343Y-15924D01*
X14286Y-15924D01*
X14229Y-15886D01*
X14200Y-15848D01*
X14172Y-15771D01*
X14143Y-15619D01*
X14143Y-15429D01*
X14172Y-15276D01*
X14200Y-15200D01*
X14229Y-15162D01*
X14286Y-15124D01*
X15057Y-15924D02*
X14714Y-15924D01*
X14886Y-15924D02*
X14886Y-15124D01*
X14829Y-15238D01*
X14771Y-15314D01*
X14714Y-15352D01*
X15285Y-15200D02*
X15314Y-15162D01*
X15371Y-15124D01*
X15514Y-15124D01*
X15571Y-15162D01*
X15600Y-15200D01*
X15628Y-15276D01*
X15628Y-15352D01*
X15600Y-15467D01*
X15257Y-15924D01*
X15628Y-15924D01*
X16600Y-11500D02*
X16600Y-14300D01*
X16600Y-14300D02*
X15800Y-14300D01*
X15800Y-14300D02*
X15800Y-11500D01*
X15800Y-11500D02*
X16600Y-11500D01*
X16400Y-11500D02*
X16600Y-11700D01*
X17700Y-09500D02*
X17700Y-12300D01*
X17700Y-12300D02*
X16900Y-12300D01*
X16900Y-12300D02*
X16900Y-09500D01*
X16900Y-09500D02*
X17700Y-09500D01*
X17500Y-09500D02*
X17700Y-09700D01*
X24200Y-12200D02*
X24200Y-09400D01*
X24200Y-09400D02*
X25000Y-09400D01*
X25000Y-09400D02*
X25000Y-12200D01*
X25000Y-12200D02*
X24200Y-12200D01*
X24400Y-12200D02*
X24200Y-12000D01*
G54D12*
X07500Y-11900D02*
X15500Y-11900D01*
X15500Y-13900D02*
X07500Y-13900D01*
X07500Y-13900D02*
X07500Y-11900D01*
X07500Y-12400D02*
X08000Y-12400D01*
X08000Y-12400D02*
X08000Y-13400D01*
X08000Y-13400D02*
X07500Y-13400D01*
X15500Y-11900D02*
X15500Y-13900D01*
X24500Y-22450D02*
X24466Y-22789D01*
X24367Y-23116D01*
X24207Y-23418D01*
X23991Y-23683D01*
X23728Y-23900D01*
X23428Y-24063D01*
X23101Y-24164D01*
X22762Y-24199D01*
X22423Y-24169D01*
X22095Y-24072D01*
X21792Y-23914D01*
X21526Y-23700D01*
X21307Y-23438D01*
X21142Y-23139D01*
X21039Y-22813D01*
X21001Y-22474D01*
X21029Y-22135D01*
X21123Y-21806D01*
X21280Y-21503D01*
X21492Y-21235D01*
X21752Y-21013D01*
X22050Y-20847D01*
X22375Y-20741D01*
X22714Y-20701D01*
X23053Y-20727D01*
X23382Y-20819D01*
X23687Y-20973D01*
X23956Y-21183D01*
X24180Y-21442D01*
X24348Y-21739D01*
X24456Y-22063D01*
X24499Y-22402D01*
X24500Y-22450D01*
G54D11*
X26500Y-15200D02*
X26500Y-18200D01*
X26500Y-18200D02*
X25500Y-18200D01*
X25500Y-18200D02*
X25500Y-15200D01*
X25500Y-15200D02*
X26500Y-15200D01*
X26500Y-17950D02*
X25500Y-17950D01*
X25500Y-17700D02*
X26500Y-17700D01*
X26000Y-15200D02*
X26000Y-14700D01*
X26000Y-18200D02*
X26000Y-18700D01*
X25000Y-20500D02*
X25000Y-20700D01*
X25000Y-23500D02*
X25000Y-23300D01*
X25000Y-23300D02*
X25400Y-23300D01*
X25400Y-23300D02*
X25400Y-20700D01*
X25400Y-20700D02*
X24600Y-20700D01*
X24600Y-20700D02*
X24600Y-23300D01*
X24600Y-23300D02*
X25000Y-23300D01*
X25200Y-20700D02*
X25400Y-20900D01*
X25800Y-23300D02*
X25800Y-20300D01*
X25800Y-20300D02*
X26800Y-20300D01*
X26800Y-20300D02*
X26800Y-23300D01*
X26800Y-23300D02*
X25800Y-23300D01*
X25800Y-20550D02*
X26800Y-20550D01*
X26800Y-20800D02*
X25800Y-20800D01*
X26300Y-23300D02*
X26300Y-23800D01*
X26300Y-20300D02*
X26300Y-19800D01*
X32750Y-19550D02*
X33750Y-19550D01*
X33750Y-19550D02*
X33750Y-22550D01*
X33750Y-22550D02*
X32750Y-22550D01*
X32750Y-22550D02*
X32750Y-19550D01*
X33750Y-20550D02*
X32750Y-20550D01*
X33750Y-19150D02*
X32750Y-19150D01*
X32750Y-19150D02*
X32750Y-16150D01*
X32750Y-16150D02*
X33750Y-16150D01*
X33750Y-16150D02*
X33750Y-19150D01*
X32750Y-18150D02*
X33750Y-18150D01*
X16400Y-10300D02*
X16200Y-10300D01*
X13400Y-10300D02*
X13600Y-10300D01*
X13600Y-10300D02*
X13600Y-10700D01*
X13600Y-10700D02*
X16200Y-10700D01*
X16200Y-10700D02*
X16200Y-09900D01*
X16200Y-09900D02*
X13600Y-09900D01*
X13600Y-09900D02*
X13600Y-10300D01*
X16200Y-10500D02*
X16000Y-10700D01*
X12500Y-10100D02*
X12300Y-10100D01*
X09500Y-10100D02*
X09700Y-10100D01*
X09700Y-10100D02*
X09700Y-10500D01*
X09700Y-10500D02*
X12300Y-10500D01*
X12300Y-10500D02*
X12300Y-09700D01*
X12300Y-09700D02*
X09700Y-09700D01*
X09700Y-09700D02*
X09700Y-10100D01*
X12300Y-10300D02*
X12100Y-10500D01*
X30300Y-15500D02*
X30500Y-15500D01*
X33300Y-15500D02*
X33100Y-15500D01*
X33100Y-15500D02*
X33100Y-15100D01*
X33100Y-15100D02*
X30500Y-15100D01*
X30500Y-15100D02*
X30500Y-15900D01*
X30500Y-15900D02*
X33100Y-15900D01*
X33100Y-15900D02*
X33100Y-15500D01*
X30500Y-15300D02*
X30700Y-15100D01*
G54D12*
X22100Y-09150D02*
X22100Y-12650D01*
X22100Y-12650D02*
X20100Y-12650D01*
X20100Y-12650D02*
X20100Y-09150D01*
X20100Y-09150D02*
X22100Y-09150D01*
X21350Y-09150D02*
X21350Y-09650D01*
X21350Y-09650D02*
X20850Y-09650D01*
X20850Y-09650D02*
X20850Y-09150D01*
X30200Y-15700D02*
X30200Y-23700D01*
X28200Y-23700D02*
X28200Y-15700D01*
X28200Y-15700D02*
X30200Y-15700D01*
X29700Y-15700D02*
X29700Y-16200D01*
X29700Y-16200D02*
X28700Y-16200D01*
X28700Y-16200D02*
X28700Y-15700D01*
X30200Y-23700D02*
X28200Y-23700D01*
X08600Y-23200D02*
X15600Y-23200D01*
X07600Y-16200D02*
X15600Y-16200D01*
X15600Y-23200D02*
X15600Y-16200D01*
X07600Y-22200D02*
X08600Y-23200D01*
X07600Y-16200D02*
X07600Y-22200D01*
X33300Y-12300D02*
X25300Y-12300D01*
X25300Y-10300D02*
X33300Y-10300D01*
X33300Y-10300D02*
X33300Y-12300D01*
X33300Y-11800D02*
X32800Y-11800D01*
X32800Y-11800D02*
X32800Y-10800D01*
X32800Y-10800D02*
X33300Y-10800D01*
X25300Y-12300D02*
X25300Y-10300D01*
X24400Y-12700D02*
X24400Y-20700D01*
X22400Y-20700D02*
X22400Y-12700D01*
X22400Y-12700D02*
X24400Y-12700D01*
X23900Y-12700D02*
X23900Y-13200D01*
X23900Y-13200D02*
X22900Y-13200D01*
X22900Y-13200D02*
X22900Y-12700D01*
X24400Y-20700D02*
X22400Y-20700D01*
X19300Y-12700D02*
X19300Y-13200D01*
X19300Y-13200D02*
X18300Y-13200D01*
X18300Y-13200D02*
X18300Y-12700D01*
X19800Y-12700D02*
X19800Y-23700D01*
X19800Y-23700D02*
X17800Y-23700D01*
X17800Y-23700D02*
X17800Y-12700D01*
X17800Y-12700D02*
X19800Y-12700D01*
G54D11*
X32600Y-17100D02*
X32600Y-20100D01*
X32600Y-20100D02*
X31600Y-20100D01*
X31600Y-20100D02*
X31600Y-17100D01*
X31600Y-17100D02*
X32600Y-17100D01*
X32600Y-19850D02*
X31600Y-19850D01*
X31600Y-19600D02*
X32600Y-19600D01*
X32100Y-17100D02*
X32100Y-16600D01*
X32100Y-20100D02*
X32100Y-20600D01*
G54D13*
X32600Y-24300D02*
X32600Y-22300D01*
X30850Y-24300D02*
X30850Y-22300D01*
X33350Y-22300D02*
X33350Y-24300D01*
X33350Y-22300D02*
X30850Y-22300D01*
X33350Y-24300D02*
X30850Y-24300D01*
X13680Y-09000D02*
X13680Y-10000D01*
G54D10*
X14760Y-09884D02*
X14792Y-09842D01*
X14820Y-09798D01*
X14844Y-09751D01*
X14864Y-09703D01*
X14880Y-09653D01*
X14891Y-09602D01*
X14897Y-09550D01*
X14900Y-09500D01*
X14899Y-09500D02*
X14896Y-09448D01*
X14889Y-09396D01*
X14878Y-09345D01*
X14862Y-09296D01*
X14842Y-09247D01*
X14818Y-09201D01*
X14790Y-09157D01*
X14758Y-09115D01*
X14747Y-09103D01*
X13701Y-09500D02*
X13704Y-09552D01*
X13711Y-09604D01*
X13722Y-09655D01*
X13738Y-09704D01*
X13758Y-09753D01*
X13782Y-09799D01*
X13810Y-09843D01*
X13842Y-09885D01*
X13846Y-09889D01*
X13840Y-09116D02*
X13808Y-09158D01*
X13780Y-09202D01*
X13756Y-09249D01*
X13736Y-09297D01*
X13720Y-09347D01*
X13709Y-09398D01*
X13703Y-09450D01*
X13700Y-09500D01*
X13813Y-09849D02*
X13845Y-09890D01*
X13881Y-09928D01*
X13920Y-09963D01*
X13962Y-09995D01*
X14006Y-10022D01*
X14053Y-10046D01*
X14101Y-10065D01*
X14151Y-10081D01*
X14203Y-10091D01*
X14254Y-10098D01*
X14300Y-10100D01*
X14300Y-10100D02*
X14352Y-10097D01*
X14404Y-10090D01*
X14455Y-10079D01*
X14505Y-10063D01*
X14553Y-10043D01*
X14600Y-10019D01*
X14644Y-09991D01*
X14685Y-09959D01*
X14724Y-09924D01*
X14759Y-09885D01*
X14779Y-09860D01*
X14300Y-08901D02*
X14248Y-08904D01*
X14196Y-08911D01*
X14145Y-08922D01*
X14096Y-08938D01*
X14047Y-08958D01*
X14001Y-08982D01*
X13957Y-09010D01*
X13915Y-09042D01*
X13877Y-09077D01*
X13842Y-09115D01*
X13828Y-09133D01*
X14773Y-09132D02*
X14739Y-09092D01*
X14702Y-09055D01*
X14661Y-09022D01*
X14618Y-08992D01*
X14573Y-08966D01*
X14525Y-08945D01*
X14476Y-08927D01*
X14425Y-08914D01*
X14374Y-08905D01*
X14321Y-08901D01*
X14300Y-08900D01*
X14300Y-09750D02*
X14321Y-09749D01*
X14343Y-09746D01*
X14364Y-09741D01*
X14385Y-09734D01*
X14405Y-09726D01*
X14425Y-09716D01*
X14443Y-09704D01*
X14460Y-09691D01*
X14476Y-09676D01*
X14491Y-09660D01*
X14504Y-09643D01*
X14516Y-09624D01*
X14526Y-09605D01*
X14534Y-09585D01*
X14541Y-09564D01*
X14546Y-09543D01*
X14549Y-09521D01*
X14550Y-09500D01*
X14300Y-09900D02*
X14334Y-09898D01*
X14369Y-09893D01*
X14403Y-09886D01*
X14436Y-09875D01*
X14469Y-09862D01*
X14500Y-09846D01*
X14529Y-09827D01*
X14557Y-09806D01*
X14582Y-09782D01*
X14606Y-09757D01*
X14627Y-09729D01*
X14646Y-09699D01*
X14662Y-09669D01*
X14675Y-09636D01*
X14686Y-09603D01*
X14693Y-09569D01*
X14698Y-09534D01*
X14700Y-09500D01*
X14300Y-09250D02*
X14279Y-09251D01*
X14257Y-09254D01*
X14236Y-09259D01*
X14215Y-09266D01*
X14195Y-09274D01*
X14176Y-09284D01*
X14157Y-09296D01*
X14140Y-09309D01*
X14124Y-09324D01*
X14109Y-09340D01*
X14096Y-09357D01*
X14084Y-09376D01*
X14074Y-09395D01*
X14066Y-09415D01*
X14059Y-09436D01*
X14054Y-09457D01*
X14051Y-09479D01*
X14050Y-09500D01*
X14300Y-09100D02*
X14266Y-09102D01*
X14231Y-09107D01*
X14197Y-09114D01*
X14164Y-09125D01*
X14131Y-09138D01*
X14101Y-09154D01*
X14071Y-09173D01*
X14043Y-09194D01*
X14018Y-09218D01*
X13994Y-09243D01*
X13973Y-09271D01*
X13954Y-09301D01*
X13938Y-09331D01*
X13925Y-09364D01*
X13914Y-09397D01*
X13907Y-09431D01*
X13902Y-09466D01*
X13900Y-09500D01*
G54D13*
X13687Y-10013D02*
X13734Y-10064D01*
X13785Y-10111D01*
X13840Y-10154D01*
X13899Y-10192D01*
X13961Y-10224D01*
X14026Y-10251D01*
X14092Y-10272D01*
X14160Y-10287D01*
X14229Y-10296D01*
X14299Y-10299D01*
X14300Y-10300D01*
X14300Y-10299D02*
X14369Y-10295D01*
X14438Y-10286D01*
X14506Y-10271D01*
X14573Y-10250D01*
X14637Y-10224D01*
X14699Y-10191D01*
X14758Y-10154D01*
X14813Y-10112D01*
X14864Y-10064D01*
X14912Y-10013D01*
X14954Y-09958D01*
X14991Y-09899D01*
X15004Y-09876D01*
X14299Y-08703D02*
X14230Y-08706D01*
X14161Y-08715D01*
X14093Y-08730D01*
X14026Y-08751D01*
X13962Y-08778D01*
X13900Y-08810D01*
X13842Y-08848D01*
X13786Y-08890D01*
X13735Y-08937D01*
X13691Y-08985D01*
X14994Y-09103D02*
X14956Y-09044D01*
X14914Y-08988D01*
X14867Y-08937D01*
X14816Y-08889D01*
X14761Y-08847D01*
X14702Y-08809D01*
X14640Y-08777D01*
X14576Y-08750D01*
X14509Y-08728D01*
X14441Y-08713D01*
X14372Y-08704D01*
X14302Y-08701D01*
X14300Y-08700D01*
X15004Y-09879D02*
X15034Y-09816D01*
X15059Y-09751D01*
X15078Y-09684D01*
X15091Y-09615D01*
X15098Y-09546D01*
X15100Y-09500D01*
X15099Y-09500D02*
X15095Y-09431D01*
X15086Y-09362D01*
X15071Y-09294D01*
X15050Y-09227D01*
X15024Y-09163D01*
X14991Y-09101D01*
X14980Y-09082D01*
G54D11*
X31200Y-14300D02*
X31000Y-14300D01*
X28200Y-14300D02*
X28400Y-14300D01*
X28400Y-14300D02*
X28400Y-14700D01*
X28400Y-14700D02*
X31000Y-14700D01*
X31000Y-14700D02*
X31000Y-13900D01*
X31000Y-13900D02*
X28400Y-13900D01*
X28400Y-13900D02*
X28400Y-14300D01*
X31000Y-14500D02*
X30800Y-14700D01*
G54D12*
X34094Y-24231D02*
X06494Y-24231D01*
X06494Y-27831D02*
X34094Y-27831D01*
G54D11*
X07694Y-26531D02*
X07194Y-26231D01*
X07194Y-26231D02*
X07194Y-26831D01*
X07194Y-26831D02*
X07694Y-26531D01*
X06494Y-24331D02*
X06494Y-27731D01*
X34094Y-27731D02*
X34094Y-24331D01*
X19594Y-27731D02*
X19594Y-27431D01*
X19594Y-27431D02*
X06794Y-27431D01*
X06794Y-27431D02*
X06794Y-24631D01*
X06794Y-24631D02*
X33794Y-24631D01*
X33794Y-24631D02*
X33794Y-27431D01*
X33794Y-27431D02*
X20994Y-27431D01*
X20994Y-27431D02*
X20994Y-27731D01*
G54D14*
X16324Y-12966D02*
X16343Y-12985D01*
X16362Y-13042D01*
X16362Y-13080D01*
X16343Y-13138D01*
X16305Y-13176D01*
X16267Y-13195D01*
X16190Y-13214D01*
X16133Y-13214D01*
X16057Y-13195D01*
X16019Y-13176D01*
X15981Y-13138D01*
X15962Y-13080D01*
X15962Y-13042D01*
X15981Y-12985D01*
X16000Y-12966D01*
X15962Y-12833D02*
X15962Y-12585D01*
X16114Y-12719D01*
X16114Y-12661D01*
X16133Y-12623D01*
X16152Y-12604D01*
X16190Y-12585D01*
X16286Y-12585D01*
X16324Y-12604D01*
X16343Y-12623D01*
X16362Y-12661D01*
X16362Y-12776D01*
X16343Y-12814D01*
X16324Y-12833D01*
X17424Y-10966D02*
X17443Y-10985D01*
X17462Y-11042D01*
X17462Y-11080D01*
X17443Y-11138D01*
X17405Y-11176D01*
X17367Y-11195D01*
X17290Y-11214D01*
X17233Y-11214D01*
X17157Y-11195D01*
X17119Y-11176D01*
X17081Y-11138D01*
X17062Y-11080D01*
X17062Y-11042D01*
X17081Y-10985D01*
X17100Y-10966D01*
X17100Y-10814D02*
X17081Y-10795D01*
X17062Y-10757D01*
X17062Y-10661D01*
X17081Y-10623D01*
X17100Y-10604D01*
X17138Y-10585D01*
X17176Y-10585D01*
X17233Y-10604D01*
X17462Y-10833D01*
X17462Y-10585D01*
X24724Y-10866D02*
X24743Y-10885D01*
X24762Y-10942D01*
X24762Y-10980D01*
X24743Y-11038D01*
X24705Y-11076D01*
X24667Y-11095D01*
X24590Y-11114D01*
X24533Y-11114D01*
X24457Y-11095D01*
X24419Y-11076D01*
X24381Y-11038D01*
X24362Y-10980D01*
X24362Y-10942D01*
X24381Y-10885D01*
X24400Y-10866D01*
X24495Y-10523D02*
X24762Y-10523D01*
X24343Y-10619D02*
X24629Y-10714D01*
X24629Y-10466D01*
G54D15*
X09557Y-12643D02*
X09557Y-13129D01*
X09579Y-13186D01*
X09600Y-13214D01*
X09643Y-13243D01*
X09729Y-13243D01*
X09771Y-13214D01*
X09793Y-13186D01*
X09814Y-13129D01*
X09814Y-12643D01*
X09985Y-12643D02*
X10264Y-12643D01*
X10114Y-12871D01*
X10178Y-12871D01*
X10221Y-12900D01*
X10242Y-12929D01*
X10264Y-12986D01*
X10264Y-13129D01*
X10242Y-13186D01*
X10221Y-13214D01*
X10178Y-13243D01*
X10050Y-13243D01*
X10007Y-13214D01*
X09985Y-13186D01*
X11010Y-12743D02*
X11310Y-12743D01*
X11117Y-13343D01*
X11675Y-12943D02*
X11675Y-13343D01*
X11568Y-12714D02*
X11461Y-13143D01*
X11739Y-13143D01*
X12125Y-13343D02*
X11911Y-13343D01*
X11911Y-12743D01*
X12254Y-13314D02*
X12318Y-13343D01*
X12425Y-13343D01*
X12468Y-13314D01*
X12489Y-13286D01*
X12511Y-13229D01*
X12511Y-13171D01*
X12489Y-13114D01*
X12468Y-13086D01*
X12425Y-13057D01*
X12339Y-13029D01*
X12297Y-13000D01*
X12275Y-12971D01*
X12254Y-12914D01*
X12254Y-12857D01*
X12275Y-12800D01*
X12297Y-12771D01*
X12339Y-12743D01*
X12447Y-12743D01*
X12511Y-12771D01*
X12661Y-12743D02*
X12940Y-12743D01*
X12790Y-12971D01*
X12854Y-12971D01*
X12897Y-13000D01*
X12918Y-13029D01*
X12940Y-13086D01*
X12940Y-13229D01*
X12918Y-13286D01*
X12897Y-13314D01*
X12854Y-13343D01*
X12726Y-13343D01*
X12683Y-13314D01*
X12661Y-13286D01*
X13112Y-12800D02*
X13133Y-12771D01*
X13176Y-12743D01*
X13283Y-12743D01*
X13326Y-12771D01*
X13347Y-12800D01*
X13369Y-12857D01*
X13369Y-12914D01*
X13347Y-13000D01*
X13090Y-13343D01*
X13369Y-13343D01*
G54D14*
X23874Y-22616D02*
X23893Y-22635D01*
X23912Y-22692D01*
X23912Y-22730D01*
X23893Y-22788D01*
X23855Y-22826D01*
X23817Y-22845D01*
X23740Y-22864D01*
X23683Y-22864D01*
X23607Y-22845D01*
X23569Y-22826D01*
X23531Y-22788D01*
X23512Y-22730D01*
X23512Y-22692D01*
X23531Y-22635D01*
X23550Y-22616D01*
X23512Y-22254D02*
X23512Y-22445D01*
X23702Y-22464D01*
X23683Y-22445D01*
X23664Y-22407D01*
X23664Y-22311D01*
X23683Y-22273D01*
X23702Y-22254D01*
X23740Y-22235D01*
X23836Y-22235D01*
X23874Y-22254D01*
X23893Y-22273D01*
X23912Y-22311D01*
X23912Y-22407D01*
X23893Y-22445D01*
X23874Y-22464D01*
X21974Y-22716D02*
X21993Y-22735D01*
X22012Y-22792D01*
X22012Y-22830D01*
X21993Y-22888D01*
X21955Y-22926D01*
X21917Y-22945D01*
X21840Y-22964D01*
X21783Y-22964D01*
X21707Y-22945D01*
X21669Y-22926D01*
X21631Y-22888D01*
X21612Y-22830D01*
X21612Y-22792D01*
X21631Y-22735D01*
X21650Y-22716D01*
X22012Y-22545D02*
X21612Y-22545D01*
X21612Y-22392D01*
X21631Y-22354D01*
X21650Y-22335D01*
X21688Y-22316D01*
X21745Y-22316D01*
X21783Y-22335D01*
X21802Y-22354D01*
X21821Y-22392D01*
X21821Y-22545D01*
X22012Y-21935D02*
X22012Y-22164D01*
X22012Y-22050D02*
X21612Y-22050D01*
X21669Y-22088D01*
X21707Y-22126D01*
X21726Y-22164D01*
G54D11*
X22714Y-24028D02*
X22714Y-23571D01*
X22943Y-23800D02*
X22486Y-23800D01*
G54D14*
X26202Y-16995D02*
X25702Y-16995D01*
X25702Y-16900D01*
X25726Y-16842D01*
X25774Y-16804D01*
X25821Y-16785D01*
X25917Y-16766D01*
X25988Y-16766D01*
X26083Y-16785D01*
X26131Y-16804D01*
X26179Y-16842D01*
X26202Y-16900D01*
X26202Y-16995D01*
X25750Y-16614D02*
X25726Y-16595D01*
X25702Y-16557D01*
X25702Y-16461D01*
X25726Y-16423D01*
X25750Y-16404D01*
X25798Y-16385D01*
X25845Y-16385D01*
X25917Y-16404D01*
X26202Y-16633D01*
X26202Y-16385D01*
X25323Y-21383D02*
X25061Y-21550D01*
X25323Y-21669D02*
X24773Y-21669D01*
X24773Y-21478D01*
X24799Y-21431D01*
X24825Y-21407D01*
X24877Y-21383D01*
X24956Y-21383D01*
X25008Y-21407D01*
X25035Y-21431D01*
X25061Y-21478D01*
X25061Y-21669D01*
X24825Y-21193D02*
X24799Y-21169D01*
X24773Y-21121D01*
X24773Y-21002D01*
X24799Y-20955D01*
X24825Y-20931D01*
X24877Y-20907D01*
X24930Y-20907D01*
X25008Y-20931D01*
X25323Y-21217D01*
X25323Y-20907D01*
X25323Y-22857D02*
X25323Y-23143D01*
X25323Y-23000D02*
X24773Y-23000D01*
X24851Y-23048D01*
X24904Y-23095D01*
X24930Y-23143D01*
X25323Y-22643D02*
X24773Y-22643D01*
X25323Y-22357D02*
X25008Y-22572D01*
X24773Y-22357D02*
X25087Y-22643D01*
X25323Y-21857D02*
X25061Y-22024D01*
X25323Y-22143D02*
X24773Y-22143D01*
X24773Y-21952D01*
X24799Y-21905D01*
X24825Y-21881D01*
X24877Y-21857D01*
X24956Y-21857D01*
X25008Y-21881D01*
X25035Y-21905D01*
X25061Y-21952D01*
X25061Y-22143D01*
X26502Y-22386D02*
X26002Y-22386D01*
X26002Y-22291D01*
X26026Y-22233D01*
X26074Y-22195D01*
X26121Y-22176D01*
X26217Y-22157D01*
X26288Y-22157D01*
X26383Y-22176D01*
X26431Y-22195D01*
X26479Y-22233D01*
X26502Y-22291D01*
X26502Y-22386D01*
X26502Y-21776D02*
X26502Y-22005D01*
X26502Y-21891D02*
X26002Y-21891D01*
X26074Y-21929D01*
X26121Y-21967D01*
X26145Y-22005D01*
X26502Y-21395D02*
X26502Y-21624D01*
X26502Y-21510D02*
X26002Y-21510D01*
X26074Y-21548D01*
X26121Y-21586D01*
X26145Y-21624D01*
G54D13*
X31496Y-21943D02*
X31362Y-21657D01*
X31267Y-21943D02*
X31267Y-21343D01*
X31420Y-21343D01*
X31458Y-21371D01*
X31477Y-21400D01*
X31496Y-21457D01*
X31496Y-21543D01*
X31477Y-21600D01*
X31458Y-21629D01*
X31420Y-21657D01*
X31267Y-21657D01*
X31743Y-21343D02*
X31820Y-21343D01*
X31858Y-21371D01*
X31896Y-21429D01*
X31915Y-21543D01*
X31915Y-21743D01*
X31896Y-21857D01*
X31858Y-21914D01*
X31820Y-21943D01*
X31743Y-21943D01*
X31705Y-21914D01*
X31667Y-21857D01*
X31648Y-21743D01*
X31648Y-21543D01*
X31667Y-21429D01*
X31705Y-21371D01*
X31743Y-21343D01*
X32086Y-21943D02*
X32086Y-21343D01*
X32220Y-21771D01*
X32353Y-21343D01*
X32353Y-21943D01*
X32505Y-21343D02*
X32772Y-21343D01*
X32600Y-21943D01*
X33543Y-14404D02*
X33257Y-14538D01*
X33543Y-14633D02*
X32943Y-14633D01*
X32943Y-14480D01*
X32971Y-14442D01*
X33000Y-14423D01*
X33057Y-14404D01*
X33143Y-14404D01*
X33200Y-14423D01*
X33229Y-14442D01*
X33257Y-14480D01*
X33257Y-14633D01*
X32943Y-14157D02*
X32943Y-14080D01*
X32971Y-14042D01*
X33029Y-14004D01*
X33143Y-13985D01*
X33343Y-13985D01*
X33457Y-14004D01*
X33514Y-14042D01*
X33543Y-14080D01*
X33543Y-14157D01*
X33514Y-14195D01*
X33457Y-14233D01*
X33343Y-14252D01*
X33143Y-14252D01*
X33029Y-14233D01*
X32971Y-14195D01*
X32943Y-14157D01*
X33543Y-13814D02*
X32943Y-13814D01*
X33371Y-13680D01*
X32943Y-13547D01*
X33543Y-13547D01*
X32943Y-13281D02*
X32943Y-13242D01*
X32971Y-13204D01*
X33000Y-13185D01*
X33057Y-13166D01*
X33171Y-13147D01*
X33314Y-13147D01*
X33429Y-13166D01*
X33486Y-13185D01*
X33514Y-13204D01*
X33543Y-13242D01*
X33543Y-13281D01*
X33514Y-13319D01*
X33486Y-13338D01*
X33429Y-13357D01*
X33314Y-13376D01*
X33171Y-13376D01*
X33057Y-13357D01*
X33000Y-13338D01*
X32971Y-13319D01*
X32943Y-13281D01*
G54D14*
X15417Y-11323D02*
X15250Y-11061D01*
X15131Y-11323D02*
X15131Y-10773D01*
X15322Y-10773D01*
X15369Y-10799D01*
X15393Y-10825D01*
X15417Y-10877D01*
X15417Y-10956D01*
X15393Y-11008D01*
X15369Y-11035D01*
X15322Y-11061D01*
X15131Y-11061D01*
X15893Y-11323D02*
X15607Y-11323D01*
X15750Y-11323D02*
X15750Y-10773D01*
X15702Y-10851D01*
X15655Y-10904D01*
X15607Y-10930D01*
X15043Y-10523D02*
X14757Y-10523D01*
X14900Y-10523D02*
X14900Y-09973D01*
X14852Y-10051D01*
X14805Y-10104D01*
X14757Y-10130D01*
X15257Y-10523D02*
X15257Y-09973D01*
X15543Y-10523D02*
X15328Y-10208D01*
X15543Y-09973D02*
X15257Y-10287D01*
X16043Y-10523D02*
X15876Y-10261D01*
X15757Y-10523D02*
X15757Y-09973D01*
X15948Y-09973D01*
X15995Y-09999D01*
X16019Y-10025D01*
X16043Y-10077D01*
X16043Y-10156D01*
X16019Y-10208D01*
X15995Y-10235D01*
X15948Y-10261D01*
X15757Y-10261D01*
X11017Y-09523D02*
X10850Y-09261D01*
X10731Y-09523D02*
X10731Y-08973D01*
X10922Y-08973D01*
X10969Y-08999D01*
X10993Y-09025D01*
X11017Y-09077D01*
X11017Y-09156D01*
X10993Y-09208D01*
X10969Y-09235D01*
X10922Y-09261D01*
X10731Y-09261D01*
X11183Y-08973D02*
X11493Y-08973D01*
X11326Y-09182D01*
X11398Y-09182D01*
X11445Y-09208D01*
X11469Y-09235D01*
X11493Y-09287D01*
X11493Y-09418D01*
X11469Y-09470D01*
X11445Y-09496D01*
X11398Y-09523D01*
X11255Y-09523D01*
X11207Y-09496D01*
X11183Y-09470D01*
X10131Y-09825D02*
X10155Y-09799D01*
X10203Y-09773D01*
X10322Y-09773D01*
X10369Y-09799D01*
X10393Y-09825D01*
X10417Y-09877D01*
X10417Y-09930D01*
X10393Y-10008D01*
X10107Y-10323D01*
X10417Y-10323D01*
X10607Y-09825D02*
X10631Y-09799D01*
X10679Y-09773D01*
X10798Y-09773D01*
X10845Y-09799D01*
X10869Y-09825D01*
X10893Y-09877D01*
X10893Y-09930D01*
X10869Y-10008D01*
X10583Y-10323D01*
X10893Y-10323D01*
X11202Y-09773D02*
X11250Y-09773D01*
X11298Y-09799D01*
X11321Y-09825D01*
X11345Y-09877D01*
X11369Y-09982D01*
X11369Y-10113D01*
X11345Y-10218D01*
X11321Y-10270D01*
X11298Y-10296D01*
X11250Y-10323D01*
X11202Y-10323D01*
X11155Y-10296D01*
X11131Y-10270D01*
X11107Y-10218D01*
X11083Y-10113D01*
X11083Y-09982D01*
X11107Y-09877D01*
X11131Y-09825D01*
X11155Y-09799D01*
X11202Y-09773D01*
X11869Y-10323D02*
X11702Y-10061D01*
X11583Y-10323D02*
X11583Y-09773D01*
X11774Y-09773D01*
X11821Y-09799D01*
X11845Y-09825D01*
X11869Y-09877D01*
X11869Y-09956D01*
X11845Y-10008D01*
X11821Y-10035D01*
X11774Y-10061D01*
X11583Y-10061D01*
X31517Y-14923D02*
X31350Y-14661D01*
X31231Y-14923D02*
X31231Y-14373D01*
X31422Y-14373D01*
X31469Y-14399D01*
X31493Y-14425D01*
X31517Y-14477D01*
X31517Y-14556D01*
X31493Y-14608D01*
X31469Y-14635D01*
X31422Y-14661D01*
X31231Y-14661D01*
X31945Y-14556D02*
X31945Y-14923D01*
X31826Y-14346D02*
X31707Y-14739D01*
X32017Y-14739D01*
X31443Y-15723D02*
X31157Y-15723D01*
X31300Y-15723D02*
X31300Y-15173D01*
X31252Y-15251D01*
X31205Y-15304D01*
X31157Y-15330D01*
X31657Y-15723D02*
X31657Y-15173D01*
X31943Y-15723D02*
X31728Y-15408D01*
X31943Y-15173D02*
X31657Y-15487D01*
X32443Y-15723D02*
X32276Y-15461D01*
X32157Y-15723D02*
X32157Y-15173D01*
X32348Y-15173D01*
X32395Y-15199D01*
X32419Y-15225D01*
X32443Y-15277D01*
X32443Y-15356D01*
X32419Y-15408D01*
X32395Y-15435D01*
X32348Y-15461D01*
X32157Y-15461D01*
G54D10*
X21714Y-11433D02*
X21743Y-11376D01*
X21743Y-11280D01*
X21714Y-11242D01*
X21686Y-11223D01*
X21629Y-11204D01*
X21571Y-11204D01*
X21514Y-11223D01*
X21486Y-11242D01*
X21457Y-11280D01*
X21429Y-11357D01*
X21400Y-11395D01*
X21371Y-11414D01*
X21314Y-11433D01*
X21257Y-11433D01*
X21200Y-11414D01*
X21171Y-11395D01*
X21143Y-11357D01*
X21143Y-11261D01*
X21171Y-11204D01*
X21143Y-11071D02*
X21743Y-10976D01*
X21314Y-10899D01*
X21743Y-10823D01*
X21143Y-10728D01*
X21743Y-10366D02*
X21743Y-10595D01*
X21743Y-10481D02*
X21143Y-10481D01*
X21229Y-10519D01*
X21286Y-10557D01*
X21314Y-10595D01*
X20302Y-11600D02*
X20802Y-11517D01*
X20445Y-11450D01*
X20802Y-11383D01*
X20302Y-11300D01*
X20802Y-10967D02*
X20564Y-11083D01*
X20802Y-11167D02*
X20302Y-11167D01*
X20302Y-11033D01*
X20326Y-11000D01*
X20350Y-10983D01*
X20398Y-10967D01*
X20469Y-10967D01*
X20517Y-10983D01*
X20540Y-11000D01*
X20564Y-11033D01*
X20564Y-11167D01*
X20802Y-10817D02*
X20302Y-10817D01*
X20302Y-10700D02*
X20302Y-10500D01*
X20802Y-10600D02*
X20302Y-10600D01*
X20540Y-10383D02*
X20540Y-10266D01*
X20802Y-10216D02*
X20802Y-10383D01*
X20302Y-10383D01*
X20302Y-10216D01*
G54D15*
X28793Y-19093D02*
X29279Y-19093D01*
X29336Y-19071D01*
X29364Y-19050D01*
X29393Y-19007D01*
X29393Y-18921D01*
X29364Y-18879D01*
X29336Y-18857D01*
X29279Y-18836D01*
X28793Y-18836D01*
X28793Y-18408D02*
X28793Y-18622D01*
X29079Y-18643D01*
X29050Y-18622D01*
X29021Y-18579D01*
X29021Y-18472D01*
X29050Y-18429D01*
X29079Y-18408D01*
X29136Y-18386D01*
X29279Y-18386D01*
X29336Y-18408D01*
X29364Y-18429D01*
X29393Y-18472D01*
X29393Y-18579D01*
X29364Y-18622D01*
X29336Y-18643D01*
X28893Y-22340D02*
X28893Y-22040D01*
X29493Y-22233D01*
X29093Y-21675D02*
X29493Y-21675D01*
X28864Y-21782D02*
X29293Y-21889D01*
X29293Y-21611D01*
X29493Y-21225D02*
X29493Y-21439D01*
X28893Y-21439D01*
X29464Y-21096D02*
X29493Y-21032D01*
X29493Y-20925D01*
X29464Y-20882D01*
X29436Y-20861D01*
X29379Y-20839D01*
X29321Y-20839D01*
X29264Y-20861D01*
X29236Y-20882D01*
X29207Y-20925D01*
X29179Y-21011D01*
X29150Y-21053D01*
X29121Y-21075D01*
X29064Y-21096D01*
X29007Y-21096D01*
X28950Y-21075D01*
X28921Y-21053D01*
X28893Y-21011D01*
X28893Y-20903D01*
X28921Y-20839D01*
X28950Y-20667D02*
X28921Y-20646D01*
X28893Y-20603D01*
X28893Y-20496D01*
X28921Y-20453D01*
X28950Y-20432D01*
X29007Y-20410D01*
X29064Y-20410D01*
X29150Y-20432D01*
X29493Y-20689D01*
X29493Y-20410D01*
X28893Y-20131D02*
X28893Y-20088D01*
X28921Y-20045D01*
X28950Y-20024D01*
X29007Y-20003D01*
X29121Y-19981D01*
X29264Y-19981D01*
X29379Y-20003D01*
X29436Y-20024D01*
X29464Y-20045D01*
X29493Y-20088D01*
X29493Y-20131D01*
X29464Y-20174D01*
X29436Y-20195D01*
X29379Y-20217D01*
X29264Y-20238D01*
X29121Y-20238D01*
X29007Y-20217D01*
X28950Y-20195D01*
X28921Y-20174D01*
X28893Y-20131D01*
G54D11*
X11943Y-19583D02*
X11943Y-20150D01*
X11971Y-20217D01*
X12000Y-20250D01*
X12057Y-20283D01*
X12171Y-20283D01*
X12229Y-20250D01*
X12257Y-20217D01*
X12286Y-20150D01*
X12286Y-19583D01*
X12829Y-19583D02*
X12715Y-19583D01*
X12658Y-19617D01*
X12629Y-19650D01*
X12572Y-19750D01*
X12543Y-19883D01*
X12543Y-20150D01*
X12572Y-20217D01*
X12600Y-20250D01*
X12658Y-20283D01*
X12772Y-20283D01*
X12829Y-20250D01*
X12858Y-20217D01*
X12886Y-20150D01*
X12886Y-19983D01*
X12858Y-19917D01*
X12829Y-19883D01*
X12772Y-19850D01*
X12658Y-19850D01*
X12600Y-19883D01*
X12572Y-19917D01*
X12543Y-19983D01*
X09916Y-23450D02*
X09950Y-23417D01*
X10016Y-23383D01*
X10183Y-23383D01*
X10250Y-23417D01*
X10283Y-23450D01*
X10316Y-23517D01*
X10316Y-23583D01*
X10283Y-23683D01*
X09883Y-24083D01*
X10316Y-24083D01*
X10650Y-24083D02*
X10783Y-24083D01*
X10850Y-24050D01*
X10883Y-24017D01*
X10950Y-23917D01*
X10983Y-23783D01*
X10983Y-23517D01*
X10950Y-23450D01*
X10917Y-23417D01*
X10850Y-23383D01*
X10717Y-23383D01*
X10650Y-23417D01*
X10617Y-23450D01*
X10583Y-23517D01*
X10583Y-23683D01*
X10617Y-23750D01*
X10650Y-23783D01*
X10717Y-23817D01*
X10850Y-23817D01*
X10917Y-23783D01*
X10950Y-23750D01*
X10983Y-23683D01*
X11684Y-24017D02*
X11650Y-24050D01*
X11550Y-24083D01*
X11484Y-24083D01*
X11384Y-24050D01*
X11317Y-23983D01*
X11284Y-23917D01*
X11250Y-23783D01*
X11250Y-23683D01*
X11284Y-23550D01*
X11317Y-23483D01*
X11384Y-23417D01*
X11484Y-23383D01*
X11550Y-23383D01*
X11650Y-23417D01*
X11684Y-23450D01*
X12117Y-23383D02*
X12184Y-23383D01*
X12250Y-23417D01*
X12284Y-23450D01*
X12317Y-23517D01*
X12350Y-23650D01*
X12350Y-23817D01*
X12317Y-23950D01*
X12284Y-24017D01*
X12250Y-24050D01*
X12184Y-24083D01*
X12117Y-24083D01*
X12050Y-24050D01*
X12017Y-24017D01*
X11984Y-23950D01*
X11950Y-23817D01*
X11950Y-23650D01*
X11984Y-23517D01*
X12017Y-23450D01*
X12050Y-23417D01*
X12117Y-23383D01*
X12951Y-23617D02*
X12951Y-24083D01*
X12784Y-23350D02*
X12617Y-23850D01*
X13051Y-23850D01*
X13451Y-23383D02*
X13518Y-23383D01*
X13584Y-23417D01*
X13618Y-23450D01*
X13651Y-23517D01*
X13684Y-23650D01*
X13684Y-23817D01*
X13651Y-23950D01*
X13618Y-24017D01*
X13584Y-24050D01*
X13518Y-24083D01*
X13451Y-24083D01*
X13384Y-24050D01*
X13351Y-24017D01*
X13318Y-23950D01*
X13284Y-23817D01*
X13284Y-23650D01*
X13318Y-23517D01*
X13351Y-23450D01*
X13384Y-23417D01*
X13451Y-23383D01*
G54D15*
X30057Y-10943D02*
X30057Y-11429D01*
X30079Y-11486D01*
X30100Y-11514D01*
X30143Y-11543D01*
X30229Y-11543D01*
X30271Y-11514D01*
X30293Y-11486D01*
X30314Y-11429D01*
X30314Y-10943D01*
X30507Y-11000D02*
X30528Y-10971D01*
X30571Y-10943D01*
X30678Y-10943D01*
X30721Y-10971D01*
X30742Y-11000D01*
X30764Y-11057D01*
X30764Y-11114D01*
X30742Y-11200D01*
X30485Y-11543D01*
X30764Y-11543D01*
X26410Y-10943D02*
X26710Y-10943D01*
X26517Y-11543D01*
X27075Y-11143D02*
X27075Y-11543D01*
X26968Y-10914D02*
X26861Y-11343D01*
X27139Y-11343D01*
X27525Y-11543D02*
X27311Y-11543D01*
X27311Y-10943D01*
X27654Y-11514D02*
X27718Y-11543D01*
X27825Y-11543D01*
X27868Y-11514D01*
X27889Y-11486D01*
X27911Y-11429D01*
X27911Y-11371D01*
X27889Y-11314D01*
X27868Y-11286D01*
X27825Y-11257D01*
X27739Y-11229D01*
X27697Y-11200D01*
X27675Y-11171D01*
X27654Y-11114D01*
X27654Y-11057D01*
X27675Y-11000D01*
X27697Y-10971D01*
X27739Y-10943D01*
X27847Y-10943D01*
X27911Y-10971D01*
X28061Y-10943D02*
X28340Y-10943D01*
X28190Y-11171D01*
X28254Y-11171D01*
X28297Y-11200D01*
X28318Y-11229D01*
X28340Y-11286D01*
X28340Y-11429D01*
X28318Y-11486D01*
X28297Y-11514D01*
X28254Y-11543D01*
X28126Y-11543D01*
X28083Y-11514D01*
X28061Y-11486D01*
X28512Y-11000D02*
X28533Y-10971D01*
X28576Y-10943D01*
X28683Y-10943D01*
X28726Y-10971D01*
X28747Y-11000D01*
X28769Y-11057D01*
X28769Y-11114D01*
X28747Y-11200D01*
X28490Y-11543D01*
X28769Y-11543D01*
X22993Y-15993D02*
X23479Y-15993D01*
X23536Y-15971D01*
X23564Y-15950D01*
X23593Y-15907D01*
X23593Y-15821D01*
X23564Y-15779D01*
X23536Y-15757D01*
X23479Y-15736D01*
X22993Y-15736D01*
X23193Y-15329D02*
X23593Y-15329D01*
X22964Y-15436D02*
X23393Y-15543D01*
X23393Y-15265D01*
X23093Y-19540D02*
X23093Y-19240D01*
X23693Y-19433D01*
X23293Y-18875D02*
X23693Y-18875D01*
X23064Y-18982D02*
X23493Y-19089D01*
X23493Y-18811D01*
X23693Y-18425D02*
X23693Y-18639D01*
X23093Y-18639D01*
X23664Y-18296D02*
X23693Y-18232D01*
X23693Y-18125D01*
X23664Y-18082D01*
X23636Y-18061D01*
X23579Y-18039D01*
X23521Y-18039D01*
X23464Y-18061D01*
X23436Y-18082D01*
X23407Y-18125D01*
X23379Y-18211D01*
X23350Y-18253D01*
X23321Y-18275D01*
X23264Y-18296D01*
X23207Y-18296D01*
X23150Y-18275D01*
X23121Y-18253D01*
X23093Y-18211D01*
X23093Y-18103D01*
X23121Y-18039D01*
X23093Y-17760D02*
X23093Y-17717D01*
X23121Y-17674D01*
X23150Y-17653D01*
X23207Y-17632D01*
X23321Y-17610D01*
X23464Y-17610D01*
X23579Y-17632D01*
X23636Y-17653D01*
X23664Y-17674D01*
X23693Y-17717D01*
X23693Y-17760D01*
X23664Y-17803D01*
X23636Y-17824D01*
X23579Y-17846D01*
X23464Y-17867D01*
X23321Y-17867D01*
X23207Y-17846D01*
X23150Y-17824D01*
X23121Y-17803D01*
X23093Y-17760D01*
X23150Y-17438D02*
X23121Y-17417D01*
X23093Y-17374D01*
X23093Y-17267D01*
X23121Y-17224D01*
X23150Y-17203D01*
X23207Y-17181D01*
X23264Y-17181D01*
X23350Y-17203D01*
X23693Y-17460D01*
X23693Y-17181D01*
X18383Y-19943D02*
X18950Y-19943D01*
X19017Y-19921D01*
X19050Y-19900D01*
X19083Y-19857D01*
X19083Y-19771D01*
X19050Y-19729D01*
X19017Y-19707D01*
X18950Y-19686D01*
X18383Y-19686D01*
X19083Y-19236D02*
X19083Y-19493D01*
X19083Y-19365D02*
X18383Y-19365D01*
X18483Y-19408D01*
X18550Y-19450D01*
X18583Y-19493D01*
X18383Y-23505D02*
X18383Y-23205D01*
X19083Y-23398D01*
X18617Y-22840D02*
X19083Y-22840D01*
X18350Y-22947D02*
X18850Y-23054D01*
X18850Y-22776D01*
X19083Y-22390D02*
X19083Y-22604D01*
X18383Y-22604D01*
X19050Y-22261D02*
X19083Y-22197D01*
X19083Y-22090D01*
X19050Y-22047D01*
X19017Y-22026D01*
X18950Y-22004D01*
X18883Y-22004D01*
X18817Y-22026D01*
X18783Y-22047D01*
X18750Y-22090D01*
X18717Y-22176D01*
X18683Y-22218D01*
X18650Y-22240D01*
X18583Y-22261D01*
X18517Y-22261D01*
X18450Y-22240D01*
X18417Y-22218D01*
X18383Y-22176D01*
X18383Y-22068D01*
X18417Y-22004D01*
X18383Y-21597D02*
X18383Y-21811D01*
X18717Y-21832D01*
X18683Y-21811D01*
X18650Y-21768D01*
X18650Y-21661D01*
X18683Y-21618D01*
X18717Y-21597D01*
X18783Y-21575D01*
X18950Y-21575D01*
X19017Y-21597D01*
X19050Y-21618D01*
X19083Y-21661D01*
X19083Y-21768D01*
X19050Y-21811D01*
X19017Y-21832D01*
X18383Y-21425D02*
X18383Y-21125D01*
X19083Y-21318D01*
X18617Y-20760D02*
X19083Y-20760D01*
X18350Y-20867D02*
X18850Y-20974D01*
X18850Y-20696D01*
G54D14*
X32302Y-18986D02*
X31802Y-18986D01*
X31802Y-18891D01*
X31826Y-18833D01*
X31874Y-18795D01*
X31921Y-18776D01*
X32017Y-18757D01*
X32088Y-18757D01*
X32183Y-18776D01*
X32231Y-18795D01*
X32279Y-18833D01*
X32302Y-18891D01*
X32302Y-18986D01*
X32302Y-18376D02*
X32302Y-18605D01*
X32302Y-18491D02*
X31802Y-18491D01*
X31874Y-18529D01*
X31921Y-18567D01*
X31945Y-18605D01*
X31802Y-18243D02*
X31802Y-17995D01*
X31993Y-18129D01*
X31993Y-18071D01*
X32017Y-18033D01*
X32040Y-18014D01*
X32088Y-17995D01*
X32207Y-17995D01*
X32255Y-18014D01*
X32279Y-18033D01*
X32302Y-18071D01*
X32302Y-18186D01*
X32279Y-18224D01*
X32255Y-18243D01*
G54D16*
X13478Y-10721D02*
X13478Y-10421D01*
X13550Y-10421D01*
X13593Y-10436D01*
X13621Y-10464D01*
X13636Y-10493D01*
X13650Y-10550D01*
X13650Y-10593D01*
X13636Y-10650D01*
X13621Y-10679D01*
X13593Y-10707D01*
X13550Y-10721D01*
X13478Y-10721D01*
X13936Y-10721D02*
X13764Y-10721D01*
X13850Y-10721D02*
X13850Y-10421D01*
X13821Y-10464D01*
X13793Y-10493D01*
X13764Y-10507D01*
X14207Y-08621D02*
X14064Y-08621D01*
X14064Y-08321D01*
X14307Y-08464D02*
X14407Y-08464D01*
X14450Y-08621D02*
X14307Y-08621D01*
X14307Y-08321D01*
X14450Y-08321D01*
X14578Y-08621D02*
X14578Y-08321D01*
X14650Y-08321D01*
X14693Y-08336D01*
X14721Y-08364D01*
X14736Y-08393D01*
X14750Y-08450D01*
X14750Y-08493D01*
X14736Y-08550D01*
X14721Y-08579D01*
X14693Y-08607D01*
X14650Y-08621D01*
X14578Y-08621D01*
G54D14*
X27317Y-14923D02*
X27150Y-14661D01*
X27031Y-14923D02*
X27031Y-14373D01*
X27222Y-14373D01*
X27269Y-14399D01*
X27293Y-14425D01*
X27317Y-14477D01*
X27317Y-14556D01*
X27293Y-14608D01*
X27269Y-14635D01*
X27222Y-14661D01*
X27031Y-14661D01*
X27769Y-14373D02*
X27531Y-14373D01*
X27507Y-14635D01*
X27531Y-14608D01*
X27579Y-14582D01*
X27698Y-14582D01*
X27745Y-14608D01*
X27769Y-14635D01*
X27793Y-14687D01*
X27793Y-14818D01*
X27769Y-14870D01*
X27745Y-14896D01*
X27698Y-14923D01*
X27579Y-14923D01*
X27531Y-14896D01*
X27507Y-14870D01*
X29105Y-14523D02*
X28819Y-14523D01*
X28962Y-14523D02*
X28962Y-13973D01*
X28914Y-14051D01*
X28867Y-14104D01*
X28819Y-14130D01*
X29414Y-13973D02*
X29462Y-13973D01*
X29510Y-13999D01*
X29533Y-14025D01*
X29557Y-14077D01*
X29581Y-14182D01*
X29581Y-14313D01*
X29557Y-14418D01*
X29533Y-14470D01*
X29510Y-14496D01*
X29462Y-14523D01*
X29414Y-14523D01*
X29367Y-14496D01*
X29343Y-14470D01*
X29319Y-14418D01*
X29295Y-14313D01*
X29295Y-14182D01*
X29319Y-14077D01*
X29343Y-14025D01*
X29367Y-13999D01*
X29414Y-13973D01*
X29795Y-14523D02*
X29795Y-13973D01*
X30081Y-14523D02*
X29866Y-14208D01*
X30081Y-13973D02*
X29795Y-14287D01*
X30581Y-14523D02*
X30414Y-14261D01*
X30295Y-14523D02*
X30295Y-13973D01*
X30486Y-13973D01*
X30533Y-13999D01*
X30557Y-14025D01*
X30581Y-14077D01*
X30581Y-14156D01*
X30557Y-14208D01*
X30533Y-14235D01*
X30486Y-14261D01*
X30295Y-14261D01*
%LPC*%
G54D17*
X16200Y-11900D03*
X16200Y-13900D03*
X17300Y-09900D03*
X17300Y-11900D03*
X24600Y-11800D03*
X24600Y-09800D03*
G54D18*
X08500Y-14400D03*
G54D19*
X09500Y-14400D03*
X10500Y-14400D03*
X11500Y-14400D03*
X12500Y-14400D03*
X13500Y-14400D03*
X14500Y-14400D03*
X14500Y-11400D03*
X13500Y-11400D03*
X12500Y-11400D03*
X11500Y-11400D03*
X10500Y-11400D03*
X09500Y-11400D03*
X08500Y-11400D03*
G54D20*
X22750Y-23200D03*
G54D17*
X22750Y-21700D03*
G54D21*
X26000Y-14700D03*
G54D22*
X26000Y-18700D03*
G54D17*
X25000Y-20500D03*
X25000Y-23500D03*
G54D21*
X26300Y-23800D03*
G54D22*
X26300Y-19800D03*
G54D20*
X33250Y-20050D03*
G54D17*
X33250Y-21050D03*
X33250Y-22050D03*
G54D20*
X33250Y-18650D03*
G54D17*
X33250Y-17650D03*
X33250Y-16650D03*
X16400Y-10300D03*
X13400Y-10300D03*
X12500Y-10100D03*
X09500Y-10100D03*
X30300Y-15500D03*
X33300Y-15500D03*
G54D23*
X19600Y-09900D03*
G54D24*
X19600Y-10900D03*
X19600Y-11900D03*
X22600Y-11900D03*
X22600Y-10900D03*
X22600Y-09900D03*
G54D23*
X27700Y-16700D03*
G54D24*
X27700Y-17700D03*
X27700Y-18700D03*
X27700Y-19700D03*
X27700Y-20700D03*
X27700Y-21700D03*
X27700Y-22700D03*
X30700Y-22700D03*
X30700Y-21700D03*
X30700Y-20700D03*
X30700Y-19700D03*
X30700Y-18700D03*
X30700Y-17700D03*
X30700Y-16700D03*
G54D20*
X09600Y-19200D03*
G54D17*
X08600Y-20200D03*
X09600Y-20200D03*
X08600Y-21200D03*
X09600Y-22200D03*
X09600Y-21200D03*
X10600Y-22200D03*
X10600Y-21200D03*
X11600Y-22200D03*
X11600Y-21200D03*
X12600Y-22200D03*
X12600Y-21200D03*
X13600Y-22200D03*
X14600Y-21200D03*
X13600Y-21200D03*
X14600Y-20200D03*
X13600Y-20200D03*
X14600Y-19200D03*
X13600Y-19200D03*
X14600Y-18200D03*
X13600Y-17200D03*
X13600Y-18200D03*
X12600Y-17200D03*
X12600Y-18200D03*
X11600Y-17200D03*
X11600Y-18200D03*
X10600Y-17200D03*
X10600Y-18200D03*
X09600Y-18200D03*
X08600Y-19200D03*
X09600Y-17200D03*
X08600Y-18200D03*
G54D18*
X32300Y-09800D03*
G54D19*
X31300Y-09800D03*
X30300Y-09800D03*
X29300Y-09800D03*
X28300Y-09800D03*
X27300Y-09800D03*
X26300Y-09800D03*
X26300Y-12800D03*
X27300Y-12800D03*
X28300Y-12800D03*
X29300Y-12800D03*
X30300Y-12800D03*
X31300Y-12800D03*
X32300Y-12800D03*
G54D23*
X21900Y-13700D03*
G54D24*
X21900Y-14700D03*
X21900Y-15700D03*
X21900Y-16700D03*
X21900Y-17700D03*
X21900Y-18700D03*
X21900Y-19700D03*
X24900Y-19700D03*
X24900Y-18700D03*
X24900Y-17700D03*
X24900Y-16700D03*
X24900Y-15700D03*
X24900Y-14700D03*
X24900Y-13700D03*
G54D23*
X17300Y-13700D03*
G54D24*
X17300Y-14700D03*
X17300Y-15700D03*
X17300Y-16700D03*
X17300Y-17700D03*
X17300Y-18700D03*
X17300Y-19700D03*
X17300Y-20700D03*
X17300Y-21700D03*
X17300Y-22700D03*
X20300Y-22700D03*
X20300Y-21700D03*
X20300Y-20700D03*
X20300Y-19700D03*
X20300Y-18700D03*
X20300Y-17700D03*
X20300Y-16700D03*
X20300Y-15700D03*
X20300Y-14700D03*
X20300Y-13700D03*
G54D21*
X32100Y-16600D03*
G54D22*
X32100Y-20600D03*
G54D25*
X32100Y-22800D03*
X32100Y-23800D03*
G54D26*
X14900Y-09500D03*
X13900Y-09500D03*
G54D17*
X31200Y-14300D03*
X28200Y-14300D03*
G54D27*
X08294Y-26531D03*
G54D28*
X08294Y-25531D03*
X09294Y-26531D03*
X09294Y-25531D03*
X10294Y-26531D03*
X10294Y-25531D03*
X11294Y-26531D03*
X11294Y-25531D03*
X12294Y-26531D03*
X12294Y-25531D03*
X13294Y-26531D03*
X13294Y-25531D03*
X14294Y-26531D03*
X14294Y-25531D03*
X15294Y-26531D03*
X15294Y-25531D03*
X16294Y-26531D03*
X16294Y-25531D03*
X17294Y-26531D03*
X17294Y-25531D03*
X18294Y-26531D03*
X18294Y-25531D03*
X19294Y-26531D03*
X19294Y-25531D03*
X20294Y-26531D03*
X20294Y-25531D03*
X21294Y-26531D03*
X21294Y-25531D03*
X22294Y-26531D03*
X22294Y-25531D03*
X23294Y-26531D03*
X23294Y-25531D03*
X24294Y-26531D03*
X24294Y-25531D03*
X25294Y-26531D03*
X25294Y-25531D03*
X26294Y-26531D03*
X26294Y-25531D03*
X27294Y-26531D03*
X27294Y-25531D03*
X28294Y-26531D03*
X28294Y-25531D03*
X29294Y-26531D03*
X29294Y-25531D03*
X30294Y-26531D03*
X30294Y-25531D03*
X31294Y-26531D03*
X31294Y-25531D03*
X32294Y-26531D03*
X32294Y-25531D03*
M02*
