G04 (created by PCBNEW-RS274X (2011-07-08 BZR 3044)-stable) date 06/10/2012 12:04:17*
G01*
G70*
G90*
%MOIN*%
G04 Gerber Fmt 3.4, Leading zero omitted, Abs format*
%FSLAX34Y34*%
G04 APERTURE LIST*
%ADD10C,0.006000*%
%ADD11C,0.015000*%
%ADD12C,0.055000*%
%ADD13R,0.062000X0.090000*%
%ADD14O,0.062000X0.090000*%
%ADD15R,0.055000X0.055000*%
%ADD16C,0.070000*%
%ADD17R,0.070000X0.070000*%
%ADD18R,0.090000X0.062000*%
%ADD19O,0.090000X0.062000*%
%ADD20O,0.118700X0.059300*%
%ADD21C,0.066000*%
%ADD22R,0.060000X0.060000*%
%ADD23C,0.060000*%
%ADD24C,0.035000*%
%ADD25C,0.008000*%
G04 APERTURE END LIST*
G54D10*
G54D11*
X07000Y-08100D02*
X07000Y-08000D01*
X34200Y-08100D02*
X07000Y-08100D01*
X34200Y-27700D02*
X34200Y-08100D01*
X07000Y-27700D02*
X34200Y-27700D01*
X07000Y-08100D02*
X07000Y-27700D01*
G54D12*
X16200Y-11900D03*
X16200Y-13900D03*
X17300Y-09900D03*
X17300Y-11900D03*
X24600Y-11800D03*
X24600Y-09800D03*
G54D13*
X08500Y-14400D03*
G54D14*
X09500Y-14400D03*
X10500Y-14400D03*
X11500Y-14400D03*
X12500Y-14400D03*
X13500Y-14400D03*
X14500Y-14400D03*
X14500Y-11400D03*
X13500Y-11400D03*
X12500Y-11400D03*
X11500Y-11400D03*
X10500Y-11400D03*
X09500Y-11400D03*
X08500Y-11400D03*
G54D15*
X22750Y-23200D03*
G54D12*
X22750Y-21700D03*
G54D16*
X26000Y-14700D03*
G54D17*
X26000Y-18700D03*
G54D12*
X25000Y-20500D03*
X25000Y-23500D03*
G54D16*
X26300Y-23800D03*
G54D17*
X26300Y-19800D03*
G54D15*
X33250Y-20050D03*
G54D12*
X33250Y-21050D03*
X33250Y-22050D03*
G54D15*
X33250Y-18650D03*
G54D12*
X33250Y-17650D03*
X33250Y-16650D03*
X16400Y-10300D03*
X13400Y-10300D03*
X12500Y-10100D03*
X09500Y-10100D03*
X30300Y-15500D03*
X33300Y-15500D03*
G54D18*
X19600Y-09900D03*
G54D19*
X19600Y-10900D03*
X19600Y-11900D03*
X22600Y-11900D03*
X22600Y-10900D03*
X22600Y-09900D03*
G54D18*
X27700Y-16700D03*
G54D19*
X27700Y-17700D03*
X27700Y-18700D03*
X27700Y-19700D03*
X27700Y-20700D03*
X27700Y-21700D03*
X27700Y-22700D03*
X30700Y-22700D03*
X30700Y-21700D03*
X30700Y-20700D03*
X30700Y-19700D03*
X30700Y-18700D03*
X30700Y-17700D03*
X30700Y-16700D03*
G54D15*
X09600Y-19200D03*
G54D12*
X08600Y-20200D03*
X09600Y-20200D03*
X08600Y-21200D03*
X09600Y-22200D03*
X09600Y-21200D03*
X10600Y-22200D03*
X10600Y-21200D03*
X11600Y-22200D03*
X11600Y-21200D03*
X12600Y-22200D03*
X12600Y-21200D03*
X13600Y-22200D03*
X14600Y-21200D03*
X13600Y-21200D03*
X14600Y-20200D03*
X13600Y-20200D03*
X14600Y-19200D03*
X13600Y-19200D03*
X14600Y-18200D03*
X13600Y-17200D03*
X13600Y-18200D03*
X12600Y-17200D03*
X12600Y-18200D03*
X11600Y-17200D03*
X11600Y-18200D03*
X10600Y-17200D03*
X10600Y-18200D03*
X09600Y-18200D03*
X08600Y-19200D03*
X09600Y-17200D03*
X08600Y-18200D03*
G54D13*
X32300Y-09800D03*
G54D14*
X31300Y-09800D03*
X30300Y-09800D03*
X29300Y-09800D03*
X28300Y-09800D03*
X27300Y-09800D03*
X26300Y-09800D03*
X26300Y-12800D03*
X27300Y-12800D03*
X28300Y-12800D03*
X29300Y-12800D03*
X30300Y-12800D03*
X31300Y-12800D03*
X32300Y-12800D03*
G54D18*
X21900Y-13700D03*
G54D19*
X21900Y-14700D03*
X21900Y-15700D03*
X21900Y-16700D03*
X21900Y-17700D03*
X21900Y-18700D03*
X21900Y-19700D03*
X24900Y-19700D03*
X24900Y-18700D03*
X24900Y-17700D03*
X24900Y-16700D03*
X24900Y-15700D03*
X24900Y-14700D03*
X24900Y-13700D03*
G54D18*
X17300Y-13700D03*
G54D19*
X17300Y-14700D03*
X17300Y-15700D03*
X17300Y-16700D03*
X17300Y-17700D03*
X17300Y-18700D03*
X17300Y-19700D03*
X17300Y-20700D03*
X17300Y-21700D03*
X17300Y-22700D03*
X20300Y-22700D03*
X20300Y-21700D03*
X20300Y-20700D03*
X20300Y-19700D03*
X20300Y-18700D03*
X20300Y-17700D03*
X20300Y-16700D03*
X20300Y-15700D03*
X20300Y-14700D03*
X20300Y-13700D03*
G54D16*
X32100Y-16600D03*
G54D17*
X32100Y-20600D03*
G54D20*
X32100Y-22800D03*
X32100Y-23800D03*
G54D21*
X14900Y-09500D03*
X13900Y-09500D03*
G54D12*
X31200Y-14300D03*
X28200Y-14300D03*
G54D22*
X08294Y-26531D03*
G54D23*
X08294Y-25531D03*
X09294Y-26531D03*
X09294Y-25531D03*
X10294Y-26531D03*
X10294Y-25531D03*
X11294Y-26531D03*
X11294Y-25531D03*
X12294Y-26531D03*
X12294Y-25531D03*
X13294Y-26531D03*
X13294Y-25531D03*
X14294Y-26531D03*
X14294Y-25531D03*
X15294Y-26531D03*
X15294Y-25531D03*
X16294Y-26531D03*
X16294Y-25531D03*
X17294Y-26531D03*
X17294Y-25531D03*
X18294Y-26531D03*
X18294Y-25531D03*
X19294Y-26531D03*
X19294Y-25531D03*
X20294Y-26531D03*
X20294Y-25531D03*
X21294Y-26531D03*
X21294Y-25531D03*
X22294Y-26531D03*
X22294Y-25531D03*
X23294Y-26531D03*
X23294Y-25531D03*
X24294Y-26531D03*
X24294Y-25531D03*
X25294Y-26531D03*
X25294Y-25531D03*
X26294Y-26531D03*
X26294Y-25531D03*
X27294Y-26531D03*
X27294Y-25531D03*
X28294Y-26531D03*
X28294Y-25531D03*
X29294Y-26531D03*
X29294Y-25531D03*
X30294Y-26531D03*
X30294Y-25531D03*
X31294Y-26531D03*
X31294Y-25531D03*
X32294Y-26531D03*
X32294Y-25531D03*
G54D24*
X11050Y-19250D03*
X24200Y-20400D03*
X24000Y-13800D03*
X21000Y-12800D03*
X23400Y-21300D03*
X16300Y-23700D03*
G54D11*
X48250Y-39000D02*
X48250Y-39000D01*
G54D25*
X29750Y-11050D02*
X29800Y-11000D01*
X29750Y-11050D02*
X29800Y-11000D01*
G54D11*
X09600Y-18200D02*
X08500Y-17100D01*
X07800Y-16500D02*
X07800Y-16700D01*
X11200Y-12100D02*
X09100Y-12100D01*
X11500Y-11800D02*
X11500Y-11400D01*
X07800Y-16500D02*
X07800Y-16100D01*
X11500Y-11800D02*
X11200Y-12100D01*
X09100Y-12100D02*
X07800Y-13400D01*
X08500Y-17100D02*
X08200Y-17100D01*
G54D25*
X07800Y-16100D02*
X07800Y-13400D01*
G54D11*
X07800Y-16700D02*
X08200Y-17100D01*
X16294Y-24750D02*
X16294Y-24594D01*
G54D25*
X16294Y-24750D02*
X16294Y-25531D01*
G54D11*
X13500Y-22800D02*
X14700Y-22800D01*
X12600Y-21200D02*
X13100Y-21700D01*
X14700Y-22800D02*
X16294Y-24394D01*
X13100Y-21900D02*
X13100Y-22400D01*
X16294Y-25531D02*
X16294Y-24594D01*
X13500Y-22800D02*
X13100Y-22400D01*
X16294Y-24394D02*
X16294Y-24594D01*
G54D25*
X16294Y-24694D02*
X16294Y-24750D01*
G54D11*
X13100Y-21700D02*
X13100Y-21900D01*
X14500Y-23200D02*
X15800Y-24500D01*
X15800Y-24500D02*
X15800Y-26037D01*
X12600Y-22200D02*
X12600Y-22400D01*
X15800Y-26037D02*
X16294Y-26531D01*
X12600Y-22400D02*
X13400Y-23200D01*
X13400Y-23200D02*
X14500Y-23200D01*
X12100Y-18500D02*
X11350Y-19250D01*
X12600Y-17200D02*
X12100Y-17700D01*
X11350Y-19250D02*
X11050Y-19250D01*
X12100Y-17700D02*
X12100Y-18500D01*
X10294Y-25531D02*
X10294Y-25206D01*
X08600Y-21200D02*
X08600Y-23500D01*
X10088Y-25000D02*
X10100Y-25000D01*
X08600Y-23500D02*
X10100Y-25000D01*
X10294Y-25206D02*
X10088Y-25000D01*
X17600Y-12400D02*
X16700Y-12400D01*
X19400Y-13200D02*
X21200Y-13200D01*
X28000Y-12100D02*
X25000Y-12100D01*
X10100Y-17700D02*
X10100Y-16800D01*
X08000Y-15000D02*
X08000Y-13700D01*
X10100Y-16800D02*
X08600Y-15300D01*
X08600Y-15300D02*
X08300Y-15300D01*
X28300Y-12400D02*
X28000Y-12100D01*
X18600Y-12400D02*
X19400Y-13200D01*
X24600Y-12500D02*
X25000Y-12100D01*
X17600Y-12400D02*
X18600Y-12400D01*
X08300Y-15300D02*
X08000Y-15000D01*
X21200Y-13200D02*
X21900Y-12500D01*
X24600Y-12500D02*
X21900Y-12500D01*
X16700Y-12400D02*
X09300Y-12400D01*
X10100Y-17700D02*
X10600Y-18200D01*
X28300Y-12800D02*
X28300Y-12400D01*
X09300Y-12400D02*
X08000Y-13700D01*
X14300Y-23600D02*
X15294Y-24594D01*
X12100Y-22400D02*
X13300Y-23600D01*
X12100Y-21700D02*
X12100Y-21800D01*
X15294Y-24594D02*
X15294Y-25531D01*
X12100Y-21700D02*
X12100Y-22400D01*
X11600Y-21200D02*
X12100Y-21700D01*
X13300Y-23600D02*
X14300Y-23600D01*
X14750Y-24650D02*
X14100Y-24000D01*
X14800Y-24700D02*
X14750Y-24650D01*
X15294Y-26531D02*
X15294Y-26494D01*
X14800Y-26000D02*
X14800Y-24700D01*
X13200Y-24000D02*
X14100Y-24000D01*
X11600Y-22400D02*
X11600Y-22200D01*
X15294Y-26494D02*
X14800Y-26000D01*
X11600Y-22400D02*
X13200Y-24000D01*
X13200Y-24400D02*
X13900Y-24400D01*
X13900Y-24400D02*
X14294Y-24794D01*
X11100Y-21700D02*
X11100Y-22500D01*
X12300Y-23700D02*
X12500Y-23700D01*
X10600Y-21200D02*
X10700Y-21300D01*
X11100Y-22500D02*
X12300Y-23700D01*
X10700Y-21300D02*
X11100Y-21700D01*
X12500Y-23700D02*
X13200Y-24400D01*
X14294Y-24794D02*
X14294Y-25531D01*
X12700Y-24400D02*
X13100Y-24800D01*
X12700Y-24400D02*
X12700Y-24400D01*
X12100Y-24000D02*
X12300Y-24000D01*
X13600Y-24800D02*
X13800Y-25000D01*
X10600Y-22500D02*
X10600Y-22200D01*
X14294Y-26531D02*
X14294Y-26494D01*
X13800Y-26000D02*
X13800Y-25000D01*
X14294Y-26494D02*
X13800Y-26000D01*
X10600Y-22500D02*
X12100Y-24000D01*
G54D25*
X10600Y-22200D02*
X10600Y-22200D01*
G54D11*
X12300Y-24000D02*
X12700Y-24400D01*
X13100Y-24800D02*
X13600Y-24800D01*
X11900Y-24400D02*
X12300Y-24400D01*
X13294Y-25394D02*
X12300Y-24400D01*
X10100Y-22600D02*
X11900Y-24400D01*
X09700Y-21300D02*
X10100Y-21700D01*
X13294Y-25531D02*
X13294Y-25394D01*
X10100Y-21700D02*
X10100Y-22600D01*
X09600Y-21200D02*
X09700Y-21300D01*
X12800Y-25300D02*
X12800Y-26037D01*
X09600Y-22200D02*
X09600Y-22800D01*
G54D25*
X09600Y-22200D02*
X09600Y-22200D01*
G54D11*
X09600Y-22800D02*
X11500Y-24700D01*
X12200Y-24700D02*
X12800Y-25300D01*
X13294Y-26531D02*
X12850Y-26087D01*
X11500Y-24700D02*
X12200Y-24700D01*
X12800Y-26037D02*
X13294Y-26531D01*
X12100Y-25000D02*
X12294Y-25194D01*
X09100Y-20900D02*
X09100Y-21200D01*
X10600Y-19000D02*
X10600Y-20200D01*
X10700Y-17300D02*
X11100Y-17700D01*
X09300Y-20700D02*
X09100Y-20900D01*
X10100Y-20700D02*
X09300Y-20700D01*
X11100Y-17700D02*
X11100Y-18500D01*
X10600Y-20200D02*
X10100Y-20700D01*
X11100Y-18500D02*
X10600Y-19000D01*
X09100Y-21200D02*
X09100Y-23000D01*
X12294Y-25531D02*
X12294Y-25194D01*
X11100Y-25000D02*
X12100Y-25000D01*
X09100Y-23000D02*
X11100Y-25000D01*
X10600Y-17200D02*
X10700Y-17300D01*
X27100Y-13800D02*
X26600Y-14300D01*
X29400Y-13600D02*
X29200Y-13800D01*
X24900Y-15700D02*
X26100Y-15700D01*
X26600Y-14400D02*
X26600Y-14300D01*
X26100Y-15700D02*
X26600Y-15200D01*
X26600Y-15200D02*
X26600Y-14400D01*
X29502Y-13501D02*
X29499Y-13501D01*
X30300Y-09800D02*
X30300Y-10900D01*
X29800Y-13203D02*
X29502Y-13501D01*
X29200Y-13800D02*
X27100Y-13800D01*
X29800Y-11400D02*
X29800Y-13203D01*
X30300Y-10900D02*
X29800Y-11400D01*
X24900Y-16700D02*
X24900Y-15700D01*
G54D25*
X30300Y-09800D02*
X30250Y-10550D01*
G54D11*
X29499Y-13501D02*
X29400Y-13600D01*
X29502Y-13501D02*
X29500Y-13503D01*
X20294Y-25094D02*
X20294Y-25531D01*
X19600Y-16500D02*
X19600Y-17200D01*
X19600Y-17200D02*
X19600Y-24400D01*
X19600Y-24400D02*
X20294Y-25094D01*
X17800Y-14700D02*
X19600Y-16500D01*
G54D25*
X20294Y-25531D02*
X20294Y-25094D01*
G54D11*
X17300Y-14700D02*
X17800Y-14700D01*
X17300Y-14700D02*
X17300Y-14800D01*
X19600Y-17100D02*
X19600Y-17200D01*
X19800Y-26037D02*
X20294Y-26531D01*
X19800Y-25100D02*
X19800Y-26037D01*
G54D25*
X20294Y-26494D02*
X19800Y-26000D01*
X19800Y-25100D02*
X19800Y-26000D01*
X20294Y-26494D02*
X20294Y-26531D01*
G54D11*
X19300Y-24600D02*
X19800Y-25100D01*
X17300Y-15700D02*
X18000Y-15700D01*
X19300Y-17000D02*
X19300Y-24600D01*
X18000Y-15700D02*
X19300Y-17000D01*
G54D25*
X19294Y-25094D02*
X19000Y-24800D01*
X19294Y-25094D02*
X19294Y-25531D01*
X19000Y-24800D02*
X19000Y-18500D01*
G54D11*
X19000Y-17200D02*
X19000Y-24800D01*
X18500Y-16700D02*
X19000Y-17200D01*
X19294Y-25094D02*
X19294Y-25531D01*
X19000Y-24800D02*
X19294Y-25094D01*
X17300Y-16700D02*
X18500Y-16700D01*
X17800Y-17700D02*
X17300Y-17700D01*
G54D25*
X18750Y-24850D02*
X18750Y-19250D01*
G54D11*
X19294Y-26394D02*
X18750Y-25850D01*
G54D25*
X18750Y-24850D02*
X18750Y-25850D01*
G54D11*
X19294Y-26394D02*
X19294Y-26531D01*
X18748Y-18648D02*
X17800Y-17700D01*
X18748Y-19248D02*
X18748Y-18648D01*
X18750Y-19250D02*
X18748Y-19248D01*
G54D25*
X18750Y-24950D02*
X18750Y-24850D01*
G54D11*
X18550Y-19650D02*
X18550Y-20050D01*
G54D25*
X18550Y-23950D02*
X18550Y-20050D01*
G54D11*
X18294Y-25106D02*
X18550Y-24850D01*
G54D25*
X18550Y-24850D02*
X18550Y-23950D01*
G54D11*
X17300Y-18700D02*
X17600Y-18700D01*
X18294Y-25106D02*
X18294Y-25531D01*
X17600Y-18700D02*
X18550Y-19650D01*
X17100Y-19700D02*
X14900Y-17500D01*
X17800Y-26000D02*
X17800Y-25100D01*
X18294Y-26531D02*
X18294Y-26494D01*
X18350Y-24450D02*
X18350Y-24450D01*
X18294Y-26494D02*
X17800Y-26000D01*
X14100Y-17900D02*
X14500Y-17500D01*
X17100Y-19700D02*
X17300Y-19700D01*
X17800Y-25100D02*
X18353Y-24547D01*
X17300Y-19800D02*
X18350Y-20850D01*
G54D25*
X14400Y-17600D02*
X14100Y-17900D01*
X14100Y-17900D02*
X14100Y-18000D01*
G54D11*
X18350Y-24450D02*
X18350Y-20850D01*
X18353Y-24547D02*
X18353Y-24450D01*
X18353Y-24450D02*
X18350Y-24450D01*
X17300Y-19700D02*
X17300Y-19800D01*
X14500Y-17500D02*
X14900Y-17500D01*
X14100Y-17900D02*
X14100Y-18700D01*
X14100Y-18700D02*
X13600Y-19200D01*
X17294Y-25531D02*
X17294Y-25194D01*
X17300Y-20700D02*
X17300Y-20800D01*
X16700Y-20700D02*
X16300Y-20300D01*
X17294Y-25194D02*
X18100Y-24388D01*
X16300Y-19600D02*
X14900Y-18200D01*
X16300Y-20300D02*
X16300Y-19600D01*
G54D25*
X18100Y-24388D02*
X18100Y-21600D01*
G54D11*
X17300Y-20700D02*
X16700Y-20700D01*
X17300Y-20800D02*
X18100Y-21600D01*
X14900Y-18200D02*
X14600Y-18200D01*
X17300Y-21700D02*
X17300Y-21800D01*
X17294Y-26531D02*
X17294Y-26494D01*
X16750Y-25950D02*
X16750Y-25150D01*
G54D25*
X17900Y-24000D02*
X17900Y-22400D01*
G54D11*
X16750Y-25150D02*
X17900Y-24000D01*
X17300Y-21800D02*
X17900Y-22400D01*
X17294Y-26494D02*
X16750Y-25950D01*
X15500Y-13300D02*
X15868Y-12932D01*
X15868Y-12932D02*
X17932Y-12932D01*
X11500Y-13900D02*
X11500Y-14400D01*
X11500Y-13900D02*
X12100Y-13300D01*
X20300Y-14700D02*
X19700Y-14700D01*
X19700Y-14700D02*
X17932Y-12932D01*
X12100Y-13300D02*
X15500Y-13300D01*
X20300Y-15700D02*
X19900Y-15700D01*
X12500Y-14400D02*
X12500Y-13900D01*
X15650Y-13650D02*
X16100Y-13200D01*
X12500Y-13900D02*
X12750Y-13650D01*
X17822Y-13200D02*
X17700Y-13200D01*
X18000Y-13800D02*
X18000Y-13378D01*
X18000Y-13378D02*
X17822Y-13200D01*
X19900Y-15700D02*
X18000Y-13800D01*
X16100Y-13200D02*
X17700Y-13200D01*
X12750Y-13650D02*
X15650Y-13650D01*
X08500Y-14400D02*
X08500Y-14800D01*
X08500Y-14800D02*
X09500Y-15800D01*
X17800Y-14200D02*
X20300Y-16700D01*
X16500Y-14400D02*
X16700Y-14200D01*
X16500Y-15400D02*
X16500Y-14400D01*
X16100Y-15800D02*
X16500Y-15400D01*
X09500Y-15800D02*
X16100Y-15800D01*
X16700Y-14200D02*
X17800Y-14200D01*
X21000Y-14200D02*
X19800Y-14200D01*
X21900Y-17700D02*
X22600Y-17700D01*
X22500Y-14200D02*
X21000Y-14200D01*
X22868Y-14568D02*
X22500Y-14200D01*
X19700Y-14200D02*
X18200Y-12700D01*
X19800Y-14200D02*
X19700Y-14200D01*
X18200Y-12700D02*
X10900Y-12700D01*
X10200Y-13400D02*
X10900Y-12700D01*
X09500Y-14400D02*
X09500Y-14100D01*
X10900Y-12700D02*
X10200Y-13400D01*
X22600Y-17700D02*
X22868Y-17432D01*
X09500Y-14100D02*
X10200Y-13400D01*
X22868Y-17432D02*
X22868Y-14568D01*
X28500Y-13500D02*
X28800Y-13200D01*
X24600Y-13200D02*
X25600Y-13200D01*
X28250Y-09850D02*
X28250Y-11050D01*
X28250Y-09850D02*
X28300Y-09800D01*
X28800Y-11600D02*
X28800Y-13200D01*
X28250Y-11050D02*
X28800Y-11600D01*
X26700Y-13500D02*
X28500Y-13500D01*
X21900Y-18700D02*
X22800Y-18700D01*
X23400Y-18100D02*
X23400Y-13800D01*
X24000Y-13200D02*
X24600Y-13200D01*
X23400Y-13800D02*
X24000Y-13200D01*
X24500Y-13200D02*
X24600Y-13200D01*
X22800Y-18700D02*
X23400Y-18100D01*
X24600Y-13200D02*
X24500Y-13200D01*
X22800Y-18700D02*
X22900Y-18600D01*
X22800Y-18700D02*
X22900Y-18600D01*
X09100Y-19700D02*
X07700Y-19700D01*
X09600Y-19200D02*
X09100Y-19700D01*
X17000Y-08600D02*
X10100Y-08600D01*
X28300Y-09600D02*
X28300Y-09800D01*
X28300Y-09600D02*
X27500Y-08800D01*
X07700Y-19700D02*
X07300Y-19300D01*
X07300Y-11400D02*
X09000Y-09700D01*
X07300Y-19300D02*
X07300Y-11400D01*
X10100Y-08600D02*
X09000Y-09700D01*
X27500Y-08800D02*
X17200Y-08800D01*
X17200Y-08800D02*
X17000Y-08600D01*
X25900Y-13500D02*
X25600Y-13200D01*
X25900Y-13500D02*
X26700Y-13500D01*
X24200Y-20400D02*
X24000Y-20200D01*
X24000Y-20200D02*
X24000Y-19900D01*
X26000Y-14700D02*
X25500Y-14200D01*
X24000Y-15700D02*
X24000Y-19900D01*
X25500Y-14200D02*
X24400Y-14200D01*
X24400Y-14200D02*
X24000Y-14600D01*
X24000Y-14600D02*
X24000Y-15700D01*
X26000Y-14700D02*
X25900Y-14700D01*
X26000Y-14700D02*
X26000Y-14800D01*
X32400Y-18200D02*
X30300Y-18200D01*
X29600Y-18900D02*
X30300Y-18200D01*
X32950Y-17650D02*
X32400Y-18200D01*
X32950Y-17650D02*
X33250Y-17650D01*
X29600Y-15400D02*
X30100Y-14900D01*
X31200Y-14300D02*
X31200Y-14400D01*
X31200Y-14400D02*
X30700Y-14900D01*
X30700Y-14900D02*
X30100Y-14900D01*
X29600Y-15400D02*
X29600Y-18900D01*
X29600Y-18900D02*
X28800Y-19700D01*
X27700Y-19700D02*
X28800Y-19700D01*
X29200Y-15400D02*
X30100Y-14500D01*
X30800Y-13200D02*
X30800Y-13800D01*
X30800Y-11800D02*
X32300Y-10300D01*
X32300Y-09800D02*
X32300Y-10300D01*
X30800Y-13200D02*
X30800Y-11800D01*
X29200Y-18500D02*
X29200Y-15400D01*
X29200Y-18500D02*
X28500Y-19200D01*
X30800Y-13800D02*
X30100Y-14500D01*
X27200Y-19200D02*
X28500Y-19200D01*
X27000Y-19400D02*
X27200Y-19200D01*
X27000Y-21500D02*
X27000Y-19400D01*
X27200Y-21700D02*
X27000Y-21500D01*
X27200Y-21700D02*
X27700Y-21700D01*
X28500Y-19200D02*
X28900Y-18800D01*
G54D25*
X32300Y-09800D02*
X32250Y-10150D01*
G54D11*
X21900Y-19700D02*
X21900Y-20850D01*
X32294Y-26531D02*
X32294Y-26806D01*
X27800Y-26900D02*
X27800Y-22800D01*
X27800Y-22800D02*
X27700Y-22700D01*
X31950Y-27150D02*
X28050Y-27150D01*
X32294Y-26806D02*
X31950Y-27150D01*
X28050Y-27150D02*
X27800Y-26900D01*
X32294Y-26494D02*
X31800Y-26000D01*
X31800Y-24100D02*
X32100Y-23800D01*
X32294Y-26531D02*
X32294Y-26494D01*
X31800Y-26000D02*
X31800Y-24100D01*
X17300Y-13700D02*
X16400Y-13700D01*
X16400Y-13700D02*
X16200Y-13900D01*
X21900Y-20850D02*
X22750Y-21700D01*
X14600Y-20200D02*
X15200Y-20200D01*
X15200Y-20200D02*
X15800Y-20800D01*
X15800Y-20800D02*
X15800Y-22000D01*
X15800Y-22000D02*
X16500Y-22700D01*
X16500Y-22700D02*
X17300Y-22700D01*
X24600Y-09800D02*
X26300Y-09800D01*
X14500Y-14400D02*
X15700Y-14400D01*
G54D25*
X27750Y-22850D02*
X27700Y-22700D01*
G54D11*
X15700Y-14400D02*
X16200Y-13900D01*
X23800Y-24500D02*
X23800Y-24400D01*
X24300Y-23900D02*
X24300Y-23000D01*
X23800Y-24400D02*
X24300Y-23900D01*
X26800Y-19000D02*
X26800Y-19050D01*
X25600Y-20100D02*
X25600Y-21000D01*
X25600Y-21000D02*
X24300Y-22300D01*
X24300Y-22300D02*
X24300Y-23000D01*
X25600Y-19400D02*
X25700Y-19300D01*
X26800Y-19000D02*
X26800Y-16500D01*
X25600Y-19400D02*
X25600Y-20100D01*
X23800Y-24500D02*
X23800Y-26025D01*
X23294Y-26531D02*
X23800Y-26025D01*
X28800Y-15300D02*
X30300Y-13800D01*
X28700Y-15400D02*
X28800Y-15300D01*
X30300Y-13800D02*
X30300Y-12800D01*
X28700Y-15400D02*
X27900Y-15400D01*
X26800Y-15800D02*
X27200Y-15400D01*
X27200Y-15400D02*
X27900Y-15400D01*
X26800Y-16500D02*
X26800Y-15800D01*
X25750Y-19250D02*
X25700Y-19300D01*
X26600Y-19250D02*
X25750Y-19250D01*
X26800Y-19050D02*
X26600Y-19250D01*
X23900Y-21400D02*
X23900Y-21200D01*
X23700Y-21000D02*
X23700Y-20500D01*
X23900Y-21200D02*
X23700Y-21000D01*
X24000Y-13800D02*
X23700Y-14100D01*
X23700Y-14100D02*
X23700Y-20500D01*
X21294Y-25531D02*
X21294Y-24806D01*
X23100Y-24100D02*
X23900Y-23300D01*
X21294Y-24806D02*
X22000Y-24100D01*
X23900Y-23300D02*
X23900Y-21400D01*
X23900Y-20700D02*
X23900Y-20700D01*
X22000Y-24100D02*
X23100Y-24100D01*
X32100Y-16600D02*
X32100Y-16400D01*
X31200Y-15500D02*
X30300Y-15500D01*
X32100Y-16400D02*
X31200Y-15500D01*
X26000Y-18700D02*
X26000Y-18400D01*
X12500Y-10000D02*
X13000Y-09500D01*
X15400Y-10900D02*
X19600Y-10900D01*
X12500Y-10100D02*
X12500Y-10000D01*
X14000Y-09500D02*
X15200Y-10700D01*
X12500Y-10000D02*
X13000Y-09500D01*
X13000Y-09500D02*
X14000Y-09500D01*
X13000Y-09500D02*
X13900Y-09500D01*
X15400Y-10900D02*
X15200Y-10700D01*
X31350Y-22050D02*
X30700Y-22700D01*
X33250Y-22050D02*
X31350Y-22050D01*
G54D25*
X21000Y-12800D02*
X21000Y-12800D01*
G54D11*
X21000Y-12800D02*
X19600Y-12800D01*
X18200Y-11400D02*
X14500Y-11400D01*
X19600Y-12800D02*
X18200Y-11400D01*
X27300Y-09500D02*
X26900Y-09100D01*
X11900Y-10300D02*
X11900Y-09800D01*
X11900Y-09800D02*
X12800Y-08900D01*
X12800Y-08900D02*
X16700Y-08900D01*
G54D25*
X18700Y-09100D02*
X18700Y-09100D01*
G54D11*
X16900Y-09100D02*
X18700Y-09100D01*
X12500Y-11400D02*
X12500Y-10900D01*
X16700Y-08900D02*
X16900Y-09100D01*
X27300Y-09800D02*
X27300Y-09500D01*
X26900Y-09100D02*
X18700Y-09100D01*
X12500Y-10900D02*
X11900Y-10300D01*
G54D25*
X23400Y-21300D02*
X23400Y-21300D01*
G54D11*
X21100Y-17000D02*
X21100Y-18800D01*
X21400Y-16700D02*
X21350Y-16750D01*
X21400Y-16700D02*
X21900Y-16700D01*
X22500Y-19200D02*
X21500Y-19200D01*
X21500Y-19200D02*
X21200Y-18900D01*
X23200Y-21100D02*
X23400Y-21300D01*
X22500Y-19200D02*
X23200Y-19900D01*
X21100Y-18800D02*
X21200Y-18900D01*
X21350Y-16750D02*
X21100Y-17000D01*
X23200Y-19900D02*
X23200Y-21100D01*
X29000Y-22400D02*
X28800Y-22600D01*
X28800Y-22600D02*
X28800Y-26037D01*
X28800Y-26037D02*
X29294Y-26531D01*
X32100Y-20600D02*
X31500Y-21200D01*
X29700Y-21700D02*
X29000Y-22400D01*
X30200Y-21200D02*
X29700Y-21700D01*
X31500Y-21200D02*
X30200Y-21200D01*
X29294Y-26531D02*
X29294Y-26506D01*
X13000Y-20700D02*
X13800Y-20700D01*
X13800Y-20700D02*
X14100Y-21000D01*
X12600Y-18200D02*
X12600Y-20300D01*
X12600Y-20300D02*
X13000Y-20700D01*
X14100Y-21000D02*
X14100Y-21500D01*
X14100Y-21500D02*
X16300Y-23700D01*
X16300Y-23700D02*
X16300Y-23700D01*
X21500Y-16200D02*
X22300Y-16200D01*
X20900Y-16800D02*
X21500Y-16200D01*
X22300Y-16200D02*
X22400Y-16300D01*
X22400Y-17200D02*
X21700Y-17200D01*
X22400Y-16300D02*
X22600Y-16500D01*
X22600Y-16500D02*
X22600Y-17000D01*
X22600Y-17000D02*
X22400Y-17200D01*
G54D25*
X21400Y-17200D02*
X21297Y-17303D01*
X21297Y-17303D02*
X21297Y-17500D01*
X21297Y-17500D02*
X21300Y-17500D01*
G54D11*
X21700Y-17200D02*
X21400Y-17200D01*
X20550Y-22750D02*
X21100Y-22200D01*
X21100Y-22200D02*
X21100Y-19500D01*
X21100Y-19500D02*
X20900Y-19300D01*
G54D25*
X20900Y-19300D02*
X20900Y-16800D01*
G54D11*
X20300Y-22700D02*
X20550Y-22750D01*
X22700Y-18200D02*
X21400Y-18200D01*
G54D25*
X21300Y-18100D02*
X21400Y-18200D01*
X21300Y-17500D02*
X21300Y-18100D01*
X21300Y-17500D02*
X21300Y-17500D01*
G54D11*
X22700Y-18200D02*
X23100Y-17800D01*
X23100Y-17800D02*
X23100Y-13500D01*
X26300Y-12800D02*
X24800Y-12800D01*
X24800Y-12800D02*
X24800Y-12800D01*
X24800Y-12800D02*
X23800Y-12800D01*
X23800Y-12800D02*
X23100Y-13500D01*
X22700Y-18200D02*
X23100Y-17800D01*
X25600Y-12800D02*
X26300Y-12800D01*
X21294Y-26531D02*
X21294Y-26494D01*
X21700Y-23200D02*
X22750Y-23200D01*
X20800Y-24100D02*
X21700Y-23200D01*
X20800Y-26000D02*
X20800Y-24100D01*
X21294Y-26494D02*
X20800Y-26000D01*
X08600Y-19200D02*
X07800Y-19200D01*
X30700Y-16700D02*
X30800Y-16700D01*
X31500Y-17400D02*
X32500Y-17400D01*
X30800Y-16700D02*
X31500Y-17400D01*
X32500Y-17400D02*
X33250Y-16650D01*
X19600Y-11900D02*
X20200Y-11900D01*
X20200Y-11900D02*
X20700Y-11400D01*
X20700Y-11400D02*
X20700Y-10700D01*
X20700Y-10700D02*
X20400Y-10400D01*
X20400Y-10400D02*
X17800Y-10400D01*
X17800Y-10400D02*
X17300Y-09900D01*
X16200Y-11900D02*
X15300Y-11900D01*
X13700Y-12100D02*
X12200Y-12100D01*
X12200Y-12100D02*
X12000Y-11900D01*
X12000Y-11900D02*
X12000Y-10900D01*
X12000Y-10900D02*
X11700Y-10600D01*
X11700Y-10600D02*
X08800Y-10600D01*
X08800Y-10600D02*
X08500Y-10900D01*
X08500Y-10900D02*
X08500Y-11400D01*
X15300Y-11900D02*
X15100Y-12100D01*
X15100Y-12100D02*
X13700Y-12100D01*
X08500Y-12200D02*
X07550Y-13150D01*
X07550Y-13150D02*
X07550Y-18950D01*
X08500Y-11400D02*
X08500Y-12200D01*
X07800Y-19200D02*
X07550Y-18950D01*
X22750Y-23200D02*
X22400Y-23200D01*
G54D25*
X32500Y-17400D02*
X33250Y-16650D01*
G54D11*
X26900Y-22400D02*
X26900Y-24100D01*
X25100Y-24600D02*
X24800Y-24900D01*
X26400Y-24600D02*
X25100Y-24600D01*
X26900Y-24100D02*
X26400Y-24600D01*
X27100Y-22200D02*
X26900Y-22400D01*
X24294Y-26531D02*
X24294Y-26506D01*
X24800Y-26000D02*
X24800Y-24900D01*
X24294Y-26506D02*
X24800Y-26000D01*
X28100Y-22200D02*
X27100Y-22200D01*
X31200Y-20200D02*
X30100Y-20200D01*
X30100Y-20200D02*
X30050Y-20250D01*
X31300Y-12800D02*
X31250Y-12750D01*
X33800Y-19100D02*
X33700Y-19200D01*
X33800Y-15300D02*
X33800Y-19100D01*
X31250Y-12750D02*
X33800Y-15300D01*
X33550Y-19350D02*
X33700Y-19200D01*
X32050Y-19350D02*
X33550Y-19350D01*
X31200Y-20200D02*
X32050Y-19350D01*
X28100Y-22200D02*
X30050Y-20250D01*
X24294Y-26531D02*
X24369Y-26531D01*
M02*
