G04 #@! TF.GenerationSoftware,KiCad,Pcbnew,5.0.2+dfsg1-1*
G04 #@! TF.CreationDate,2021-01-23T15:11:15+01:00*
G04 #@! TF.ProjectId,ramcard,72616d63-6172-4642-9e6b-696361645f70,2021*
G04 #@! TF.SameCoordinates,Original*
G04 #@! TF.FileFunction,Legend,Top*
G04 #@! TF.FilePolarity,Positive*
%FSLAX46Y46*%
G04 Gerber Fmt 4.6, Leading zero omitted, Abs format (unit mm)*
G04 Created by KiCad (PCBNEW 5.0.2+dfsg1-1) date sam. 23 janv. 2021 15:11:15 CET*
%MOMM*%
%LPD*%
G01*
G04 APERTURE LIST*
%ADD10C,0.381000*%
%ADD11C,0.127000*%
%ADD12C,0.150000*%
%ADD13C,0.304800*%
%ADD14C,0.500000*%
%ADD15C,0.120000*%
%ADD16C,1.108000*%
%ADD17R,2.108000X2.108000*%
%ADD18O,2.108000X2.108000*%
%ADD19C,2.108000*%
%ADD20R,2.235200X2.235200*%
%ADD21O,2.235200X2.235200*%
%ADD22R,2.308000X2.308000*%
%ADD23C,2.308000*%
%ADD24O,2.308000X2.308000*%
%ADD25R,1.808000X2.058000*%
%ADD26C,0.500000*%
G04 APERTURE END LIST*
D10*
X45593000Y-33782000D02*
X53213000Y-26162000D01*
X53213000Y-26162000D02*
X111633000Y-26162000D01*
D11*
X67515619Y-42115619D02*
X67757523Y-43131619D01*
X67951047Y-42405904D01*
X68144571Y-43131619D01*
X68386476Y-42115619D01*
X68773523Y-43131619D02*
X68773523Y-42454285D01*
X68773523Y-42647809D02*
X68821904Y-42551047D01*
X68870285Y-42502666D01*
X68967047Y-42454285D01*
X69063809Y-42454285D01*
X69402476Y-43131619D02*
X69402476Y-42454285D01*
X69402476Y-42115619D02*
X69354095Y-42164000D01*
X69402476Y-42212380D01*
X69450857Y-42164000D01*
X69402476Y-42115619D01*
X69402476Y-42212380D01*
X69741142Y-42454285D02*
X70128190Y-42454285D01*
X69886285Y-42115619D02*
X69886285Y-42986476D01*
X69934666Y-43083238D01*
X70031428Y-43131619D01*
X70128190Y-43131619D01*
X70853904Y-43083238D02*
X70757142Y-43131619D01*
X70563619Y-43131619D01*
X70466857Y-43083238D01*
X70418476Y-42986476D01*
X70418476Y-42599428D01*
X70466857Y-42502666D01*
X70563619Y-42454285D01*
X70757142Y-42454285D01*
X70853904Y-42502666D01*
X70902285Y-42599428D01*
X70902285Y-42696190D01*
X70418476Y-42792952D01*
X72498857Y-43083238D02*
X72402095Y-43131619D01*
X72208571Y-43131619D01*
X72111809Y-43083238D01*
X72063428Y-42986476D01*
X72063428Y-42599428D01*
X72111809Y-42502666D01*
X72208571Y-42454285D01*
X72402095Y-42454285D01*
X72498857Y-42502666D01*
X72547238Y-42599428D01*
X72547238Y-42696190D01*
X72063428Y-42792952D01*
X72982666Y-42454285D02*
X72982666Y-43131619D01*
X72982666Y-42551047D02*
X73031047Y-42502666D01*
X73127809Y-42454285D01*
X73272952Y-42454285D01*
X73369714Y-42502666D01*
X73418095Y-42599428D01*
X73418095Y-43131619D01*
X74337333Y-43131619D02*
X74337333Y-42599428D01*
X74288952Y-42502666D01*
X74192190Y-42454285D01*
X73998666Y-42454285D01*
X73901904Y-42502666D01*
X74337333Y-43083238D02*
X74240571Y-43131619D01*
X73998666Y-43131619D01*
X73901904Y-43083238D01*
X73853523Y-42986476D01*
X73853523Y-42889714D01*
X73901904Y-42792952D01*
X73998666Y-42744571D01*
X74240571Y-42744571D01*
X74337333Y-42696190D01*
X74821142Y-43131619D02*
X74821142Y-42115619D01*
X74821142Y-42502666D02*
X74917904Y-42454285D01*
X75111428Y-42454285D01*
X75208190Y-42502666D01*
X75256571Y-42551047D01*
X75304952Y-42647809D01*
X75304952Y-42938095D01*
X75256571Y-43034857D01*
X75208190Y-43083238D01*
X75111428Y-43131619D01*
X74917904Y-43131619D01*
X74821142Y-43083238D01*
X75885523Y-43131619D02*
X75788761Y-43083238D01*
X75740380Y-42986476D01*
X75740380Y-42115619D01*
X76659619Y-43083238D02*
X76562857Y-43131619D01*
X76369333Y-43131619D01*
X76272571Y-43083238D01*
X76224190Y-42986476D01*
X76224190Y-42599428D01*
X76272571Y-42502666D01*
X76369333Y-42454285D01*
X76562857Y-42454285D01*
X76659619Y-42502666D01*
X76708000Y-42599428D01*
X76708000Y-42696190D01*
X76224190Y-42792952D01*
X96139000Y-29010428D02*
X96477666Y-29010428D01*
X96622809Y-29542619D02*
X96139000Y-29542619D01*
X96139000Y-28526619D01*
X96622809Y-28526619D01*
X97058238Y-28865285D02*
X97058238Y-29542619D01*
X97058238Y-28962047D02*
X97106619Y-28913666D01*
X97203380Y-28865285D01*
X97348523Y-28865285D01*
X97445285Y-28913666D01*
X97493666Y-29010428D01*
X97493666Y-29542619D01*
X98412904Y-29542619D02*
X98412904Y-29010428D01*
X98364523Y-28913666D01*
X98267761Y-28865285D01*
X98074238Y-28865285D01*
X97977476Y-28913666D01*
X98412904Y-29494238D02*
X98316142Y-29542619D01*
X98074238Y-29542619D01*
X97977476Y-29494238D01*
X97929095Y-29397476D01*
X97929095Y-29300714D01*
X97977476Y-29203952D01*
X98074238Y-29155571D01*
X98316142Y-29155571D01*
X98412904Y-29107190D01*
X98896714Y-29542619D02*
X98896714Y-28526619D01*
X98896714Y-28913666D02*
X98993476Y-28865285D01*
X99187000Y-28865285D01*
X99283761Y-28913666D01*
X99332142Y-28962047D01*
X99380523Y-29058809D01*
X99380523Y-29349095D01*
X99332142Y-29445857D01*
X99283761Y-29494238D01*
X99187000Y-29542619D01*
X98993476Y-29542619D01*
X98896714Y-29494238D01*
X99961095Y-29542619D02*
X99864333Y-29494238D01*
X99815952Y-29397476D01*
X99815952Y-28526619D01*
X100735190Y-29494238D02*
X100638428Y-29542619D01*
X100444904Y-29542619D01*
X100348142Y-29494238D01*
X100299761Y-29397476D01*
X100299761Y-29010428D01*
X100348142Y-28913666D01*
X100444904Y-28865285D01*
X100638428Y-28865285D01*
X100735190Y-28913666D01*
X100783571Y-29010428D01*
X100783571Y-29107190D01*
X100299761Y-29203952D01*
X101219000Y-29445857D02*
X101267380Y-29494238D01*
X101219000Y-29542619D01*
X101170619Y-29494238D01*
X101219000Y-29445857D01*
X101219000Y-29542619D01*
X101219000Y-28913666D02*
X101267380Y-28962047D01*
X101219000Y-29010428D01*
X101170619Y-28962047D01*
X101219000Y-28913666D01*
X101219000Y-29010428D01*
X99011619Y-31538333D02*
X99495428Y-31538333D01*
X98914857Y-31828619D02*
X99253523Y-30812619D01*
X99592190Y-31828619D01*
X100414666Y-31828619D02*
X99930857Y-31828619D01*
X99930857Y-30812619D01*
X101237142Y-31828619D02*
X100753333Y-31828619D01*
X100753333Y-30812619D01*
X97904904Y-34495619D02*
X97566238Y-34011809D01*
X97324333Y-34495619D02*
X97324333Y-33479619D01*
X97711380Y-33479619D01*
X97808142Y-33528000D01*
X97856523Y-33576380D01*
X97904904Y-33673142D01*
X97904904Y-33818285D01*
X97856523Y-33915047D01*
X97808142Y-33963428D01*
X97711380Y-34011809D01*
X97324333Y-34011809D01*
X98533857Y-33479619D02*
X98727380Y-33479619D01*
X98824142Y-33528000D01*
X98920904Y-33624761D01*
X98969285Y-33818285D01*
X98969285Y-34156952D01*
X98920904Y-34350476D01*
X98824142Y-34447238D01*
X98727380Y-34495619D01*
X98533857Y-34495619D01*
X98437095Y-34447238D01*
X98340333Y-34350476D01*
X98291952Y-34156952D01*
X98291952Y-33818285D01*
X98340333Y-33624761D01*
X98437095Y-33528000D01*
X98533857Y-33479619D01*
X99404714Y-34495619D02*
X99404714Y-33479619D01*
X99743380Y-34205333D01*
X100082047Y-33479619D01*
X100082047Y-34495619D01*
X100759380Y-33479619D02*
X100856142Y-33479619D01*
X100952904Y-33528000D01*
X101001285Y-33576380D01*
X101049666Y-33673142D01*
X101098047Y-33866666D01*
X101098047Y-34108571D01*
X101049666Y-34302095D01*
X101001285Y-34398857D01*
X100952904Y-34447238D01*
X100856142Y-34495619D01*
X100759380Y-34495619D01*
X100662619Y-34447238D01*
X100614238Y-34398857D01*
X100565857Y-34302095D01*
X100517476Y-34108571D01*
X100517476Y-33866666D01*
X100565857Y-33673142D01*
X100614238Y-33576380D01*
X100662619Y-33528000D01*
X100759380Y-33479619D01*
X82162952Y-33987619D02*
X82791904Y-33987619D01*
X82453238Y-34374666D01*
X82598380Y-34374666D01*
X82695142Y-34423047D01*
X82743523Y-34471428D01*
X82791904Y-34568190D01*
X82791904Y-34810095D01*
X82743523Y-34906857D01*
X82695142Y-34955238D01*
X82598380Y-35003619D01*
X82308095Y-35003619D01*
X82211333Y-34955238D01*
X82162952Y-34906857D01*
X83178952Y-34084380D02*
X83227333Y-34036000D01*
X83324095Y-33987619D01*
X83566000Y-33987619D01*
X83662761Y-34036000D01*
X83711142Y-34084380D01*
X83759523Y-34181142D01*
X83759523Y-34277904D01*
X83711142Y-34423047D01*
X83130571Y-35003619D01*
X83759523Y-35003619D01*
X84194952Y-34616571D02*
X84969047Y-34616571D01*
X85888285Y-33987619D02*
X85694761Y-33987619D01*
X85598000Y-34036000D01*
X85549619Y-34084380D01*
X85452857Y-34229523D01*
X85404476Y-34423047D01*
X85404476Y-34810095D01*
X85452857Y-34906857D01*
X85501238Y-34955238D01*
X85598000Y-35003619D01*
X85791523Y-35003619D01*
X85888285Y-34955238D01*
X85936666Y-34906857D01*
X85985047Y-34810095D01*
X85985047Y-34568190D01*
X85936666Y-34471428D01*
X85888285Y-34423047D01*
X85791523Y-34374666D01*
X85598000Y-34374666D01*
X85501238Y-34423047D01*
X85452857Y-34471428D01*
X85404476Y-34568190D01*
X86323714Y-33987619D02*
X86952666Y-33987619D01*
X86614000Y-34374666D01*
X86759142Y-34374666D01*
X86855904Y-34423047D01*
X86904285Y-34471428D01*
X86952666Y-34568190D01*
X86952666Y-34810095D01*
X86904285Y-34906857D01*
X86855904Y-34955238D01*
X86759142Y-35003619D01*
X86468857Y-35003619D01*
X86372095Y-34955238D01*
X86323714Y-34906857D01*
X83445047Y-36273619D02*
X83541809Y-36273619D01*
X83638571Y-36322000D01*
X83686952Y-36370380D01*
X83735333Y-36467142D01*
X83783714Y-36660666D01*
X83783714Y-36902571D01*
X83735333Y-37096095D01*
X83686952Y-37192857D01*
X83638571Y-37241238D01*
X83541809Y-37289619D01*
X83445047Y-37289619D01*
X83348285Y-37241238D01*
X83299904Y-37192857D01*
X83251523Y-37096095D01*
X83203142Y-36902571D01*
X83203142Y-36660666D01*
X83251523Y-36467142D01*
X83299904Y-36370380D01*
X83348285Y-36322000D01*
X83445047Y-36273619D01*
X84219142Y-36902571D02*
X84993238Y-36902571D01*
X85380285Y-36273619D02*
X86009238Y-36273619D01*
X85670571Y-36660666D01*
X85815714Y-36660666D01*
X85912476Y-36709047D01*
X85960857Y-36757428D01*
X86009238Y-36854190D01*
X86009238Y-37096095D01*
X85960857Y-37192857D01*
X85912476Y-37241238D01*
X85815714Y-37289619D01*
X85525428Y-37289619D01*
X85428666Y-37241238D01*
X85380285Y-37192857D01*
X86976857Y-37289619D02*
X86396285Y-37289619D01*
X86686571Y-37289619D02*
X86686571Y-36273619D01*
X86589809Y-36418761D01*
X86493047Y-36515523D01*
X86396285Y-36563904D01*
X97904904Y-36908619D02*
X97566238Y-36424809D01*
X97324333Y-36908619D02*
X97324333Y-35892619D01*
X97711380Y-35892619D01*
X97808142Y-35941000D01*
X97856523Y-35989380D01*
X97904904Y-36086142D01*
X97904904Y-36231285D01*
X97856523Y-36328047D01*
X97808142Y-36376428D01*
X97711380Y-36424809D01*
X97324333Y-36424809D01*
X98533857Y-35892619D02*
X98727380Y-35892619D01*
X98824142Y-35941000D01*
X98920904Y-36037761D01*
X98969285Y-36231285D01*
X98969285Y-36569952D01*
X98920904Y-36763476D01*
X98824142Y-36860238D01*
X98727380Y-36908619D01*
X98533857Y-36908619D01*
X98437095Y-36860238D01*
X98340333Y-36763476D01*
X98291952Y-36569952D01*
X98291952Y-36231285D01*
X98340333Y-36037761D01*
X98437095Y-35941000D01*
X98533857Y-35892619D01*
X99404714Y-36908619D02*
X99404714Y-35892619D01*
X99743380Y-36618333D01*
X100082047Y-35892619D01*
X100082047Y-36908619D01*
X100469095Y-35892619D02*
X101146428Y-35892619D01*
X100711000Y-36908619D01*
D10*
X45593000Y-33782000D02*
X45593000Y-67437000D01*
X45593000Y-67437000D02*
X111633000Y-67437000D01*
X111633000Y-67437000D02*
X111633000Y-26162000D01*
D12*
G36*
X84963000Y-52197000D02*
X89408000Y-43942000D01*
X91948000Y-45212000D01*
X97663000Y-39497000D01*
X93218000Y-47752000D01*
X90678000Y-46482000D01*
X84963000Y-52197000D01*
G37*
X84963000Y-52197000D02*
X89408000Y-43942000D01*
X91948000Y-45212000D01*
X97663000Y-39497000D01*
X93218000Y-47752000D01*
X90678000Y-46482000D01*
X84963000Y-52197000D01*
D10*
X97663000Y-45847000D02*
G75*
G03X97663000Y-45847000I-6350000J0D01*
G01*
D13*
X47664310Y-39374838D02*
X47664310Y-37342838D01*
X48426215Y-37342838D01*
X48616691Y-37439600D01*
X48711929Y-37536361D01*
X48807167Y-37729885D01*
X48807167Y-38020171D01*
X48711929Y-38213695D01*
X48616691Y-38310457D01*
X48426215Y-38407219D01*
X47664310Y-38407219D01*
X50521453Y-38020171D02*
X50521453Y-39374838D01*
X49664310Y-38020171D02*
X49664310Y-39084552D01*
X49759548Y-39278076D01*
X49950024Y-39374838D01*
X50235739Y-39374838D01*
X50426215Y-39278076D01*
X50521453Y-39181314D01*
X51759548Y-39374838D02*
X51569072Y-39278076D01*
X51473834Y-39084552D01*
X51473834Y-37342838D01*
X52521453Y-39374838D02*
X52521453Y-37342838D01*
X52711929Y-38600742D02*
X53283358Y-39374838D01*
X53283358Y-38020171D02*
X52521453Y-38794266D01*
X54426215Y-39374838D02*
X54235739Y-39278076D01*
X54140500Y-39181314D01*
X54045262Y-38987790D01*
X54045262Y-38407219D01*
X54140500Y-38213695D01*
X54235739Y-38116933D01*
X54426215Y-38020171D01*
X54711929Y-38020171D01*
X54902405Y-38116933D01*
X54997643Y-38213695D01*
X55092881Y-38407219D01*
X55092881Y-38987790D01*
X54997643Y-39181314D01*
X54902405Y-39278076D01*
X54711929Y-39374838D01*
X54426215Y-39374838D01*
X55664310Y-37342838D02*
X56807167Y-37342838D01*
X56235739Y-39374838D02*
X56235739Y-37342838D01*
X57473834Y-39374838D02*
X57473834Y-38020171D01*
X57473834Y-38407219D02*
X57569072Y-38213695D01*
X57664310Y-38116933D01*
X57854786Y-38020171D01*
X58045262Y-38020171D01*
X58997643Y-39374838D02*
X58807167Y-39278076D01*
X58711929Y-39181314D01*
X58616691Y-38987790D01*
X58616691Y-38407219D01*
X58711929Y-38213695D01*
X58807167Y-38116933D01*
X58997643Y-38020171D01*
X59283358Y-38020171D01*
X59473834Y-38116933D01*
X59569072Y-38213695D01*
X59664310Y-38407219D01*
X59664310Y-38987790D01*
X59569072Y-39181314D01*
X59473834Y-39278076D01*
X59283358Y-39374838D01*
X58997643Y-39374838D01*
X60521453Y-38020171D02*
X60521453Y-39374838D01*
X60521453Y-38213695D02*
X60616691Y-38116933D01*
X60807167Y-38020171D01*
X61092881Y-38020171D01*
X61283358Y-38116933D01*
X61378596Y-38310457D01*
X61378596Y-39374838D01*
X62330977Y-39374838D02*
X62330977Y-38020171D01*
X62330977Y-37342838D02*
X62235739Y-37439600D01*
X62330977Y-37536361D01*
X62426215Y-37439600D01*
X62330977Y-37342838D01*
X62330977Y-37536361D01*
X64140500Y-39278076D02*
X63950024Y-39374838D01*
X63569072Y-39374838D01*
X63378596Y-39278076D01*
X63283358Y-39181314D01*
X63188120Y-38987790D01*
X63188120Y-38407219D01*
X63283358Y-38213695D01*
X63378596Y-38116933D01*
X63569072Y-38020171D01*
X63950024Y-38020171D01*
X64140500Y-38116933D01*
X64902405Y-39278076D02*
X65092881Y-39374838D01*
X65473834Y-39374838D01*
X65664310Y-39278076D01*
X65759548Y-39084552D01*
X65759548Y-38987790D01*
X65664310Y-38794266D01*
X65473834Y-38697504D01*
X65188120Y-38697504D01*
X64997643Y-38600742D01*
X64902405Y-38407219D01*
X64902405Y-38310457D01*
X64997643Y-38116933D01*
X65188120Y-38020171D01*
X65473834Y-38020171D01*
X65664310Y-38116933D01*
X47569072Y-40889161D02*
X47664310Y-40792400D01*
X47854786Y-40695638D01*
X48330977Y-40695638D01*
X48521453Y-40792400D01*
X48616691Y-40889161D01*
X48711929Y-41082685D01*
X48711929Y-41276209D01*
X48616691Y-41566495D01*
X47473834Y-42727638D01*
X48711929Y-42727638D01*
X49950024Y-40695638D02*
X50140500Y-40695638D01*
X50330977Y-40792400D01*
X50426215Y-40889161D01*
X50521453Y-41082685D01*
X50616691Y-41469733D01*
X50616691Y-41953542D01*
X50521453Y-42340590D01*
X50426215Y-42534114D01*
X50330977Y-42630876D01*
X50140500Y-42727638D01*
X49950024Y-42727638D01*
X49759548Y-42630876D01*
X49664310Y-42534114D01*
X49569072Y-42340590D01*
X49473834Y-41953542D01*
X49473834Y-41469733D01*
X49569072Y-41082685D01*
X49664310Y-40889161D01*
X49759548Y-40792400D01*
X49950024Y-40695638D01*
X51378596Y-40889161D02*
X51473834Y-40792400D01*
X51664310Y-40695638D01*
X52140500Y-40695638D01*
X52330977Y-40792400D01*
X52426215Y-40889161D01*
X52521453Y-41082685D01*
X52521453Y-41276209D01*
X52426215Y-41566495D01*
X51283358Y-42727638D01*
X52521453Y-42727638D01*
X54426215Y-42727638D02*
X53283358Y-42727638D01*
X53854786Y-42727638D02*
X53854786Y-40695638D01*
X53664310Y-40985923D01*
X53473834Y-41179447D01*
X53283358Y-41276209D01*
D14*
X55347809Y-29046714D02*
X54289476Y-29046714D01*
X54289476Y-30244142D02*
X54289476Y-27958142D01*
X55801380Y-27958142D01*
X57464476Y-30244142D02*
X57162095Y-30135285D01*
X57010904Y-29917571D01*
X57010904Y-27958142D01*
X60034714Y-30244142D02*
X60034714Y-29046714D01*
X59883523Y-28829000D01*
X59581142Y-28720142D01*
X58976380Y-28720142D01*
X58674000Y-28829000D01*
X60034714Y-30135285D02*
X59732333Y-30244142D01*
X58976380Y-30244142D01*
X58674000Y-30135285D01*
X58522809Y-29917571D01*
X58522809Y-29699857D01*
X58674000Y-29482142D01*
X58976380Y-29373285D01*
X59732333Y-29373285D01*
X60034714Y-29264428D01*
X61395428Y-30135285D02*
X61697809Y-30244142D01*
X62302571Y-30244142D01*
X62604952Y-30135285D01*
X62756142Y-29917571D01*
X62756142Y-29808714D01*
X62604952Y-29591000D01*
X62302571Y-29482142D01*
X61848999Y-29482142D01*
X61546619Y-29373285D01*
X61395428Y-29155571D01*
X61395428Y-29046714D01*
X61546619Y-28829000D01*
X61848999Y-28720142D01*
X62302571Y-28720142D01*
X62604952Y-28829000D01*
X64116857Y-30244142D02*
X64116857Y-27958142D01*
X65477571Y-30244142D02*
X65477571Y-29046714D01*
X65326380Y-28829000D01*
X65024000Y-28720142D01*
X64570428Y-28720142D01*
X64268047Y-28829000D01*
X64116857Y-28937857D01*
X68652571Y-28067000D02*
X68350190Y-27958142D01*
X67896619Y-27958142D01*
X67443047Y-28067000D01*
X67140666Y-28284714D01*
X66989476Y-28502428D01*
X66838285Y-28937857D01*
X66838285Y-29264428D01*
X66989476Y-29699857D01*
X67140666Y-29917571D01*
X67443047Y-30135285D01*
X67896619Y-30244142D01*
X68199000Y-30244142D01*
X68652571Y-30135285D01*
X68803761Y-30026428D01*
X68803761Y-29264428D01*
X68199000Y-29264428D01*
X70618047Y-30244142D02*
X70315666Y-30135285D01*
X70164476Y-30026428D01*
X70013285Y-29808714D01*
X70013285Y-29155571D01*
X70164476Y-28937857D01*
X70315666Y-28829000D01*
X70618047Y-28720142D01*
X71071619Y-28720142D01*
X71374000Y-28829000D01*
X71525190Y-28937857D01*
X71676380Y-29155571D01*
X71676380Y-29808714D01*
X71525190Y-30026428D01*
X71374000Y-30135285D01*
X71071619Y-30244142D01*
X70618047Y-30244142D01*
X73037095Y-30244142D02*
X73037095Y-28720142D01*
X73037095Y-29155571D02*
X73188285Y-28937857D01*
X73339476Y-28829000D01*
X73641857Y-28720142D01*
X73944238Y-28720142D01*
X76363285Y-30244142D02*
X76363285Y-27958142D01*
X76363285Y-30135285D02*
X76060904Y-30244142D01*
X75456142Y-30244142D01*
X75153761Y-30135285D01*
X75002571Y-30026428D01*
X74851380Y-29808714D01*
X74851380Y-29155571D01*
X75002571Y-28937857D01*
X75153761Y-28829000D01*
X75456142Y-28720142D01*
X76060904Y-28720142D01*
X76363285Y-28829000D01*
X78328761Y-30244142D02*
X78026380Y-30135285D01*
X77875190Y-30026428D01*
X77724000Y-29808714D01*
X77724000Y-29155571D01*
X77875190Y-28937857D01*
X78026380Y-28829000D01*
X78328761Y-28720142D01*
X78782333Y-28720142D01*
X79084714Y-28829000D01*
X79235904Y-28937857D01*
X79387095Y-29155571D01*
X79387095Y-29808714D01*
X79235904Y-30026428D01*
X79084714Y-30135285D01*
X78782333Y-30244142D01*
X78328761Y-30244142D01*
X80747809Y-28720142D02*
X80747809Y-30244142D01*
X80747809Y-28937857D02*
X80899000Y-28829000D01*
X81201380Y-28720142D01*
X81654952Y-28720142D01*
X81957333Y-28829000D01*
X82108523Y-29046714D01*
X82108523Y-30244142D01*
D15*
G04 #@! TO.C,U6*
X58720218Y-56752000D02*
X59003000Y-56752000D01*
X57548000Y-55579782D02*
X58720218Y-56752000D01*
X57548000Y-55297000D02*
X57548000Y-55579782D01*
X71738000Y-45102000D02*
X70283000Y-45102000D01*
X71738000Y-46557000D02*
X71738000Y-45102000D01*
X71738000Y-56752000D02*
X70283000Y-56752000D01*
X71738000Y-55297000D02*
X71738000Y-56752000D01*
X57548000Y-45102000D02*
X59003000Y-45102000D01*
X57548000Y-46557000D02*
X57548000Y-45102000D01*
G04 #@! TO.C,SW2*
X101476000Y-26409000D02*
X111376000Y-26409000D01*
X101476000Y-38869000D02*
X111376000Y-38869000D01*
X101476000Y-26409000D02*
X101476000Y-38869000D01*
X111376000Y-26409000D02*
X111376000Y-38869000D01*
X101236000Y-26169000D02*
X102620000Y-26169000D01*
X101236000Y-26169000D02*
X101236000Y-27552000D01*
X104396000Y-28194000D02*
X104396000Y-29464000D01*
X104396000Y-29464000D02*
X108456000Y-29464000D01*
X108456000Y-29464000D02*
X108456000Y-28194000D01*
X108456000Y-28194000D02*
X104396000Y-28194000D01*
X104396000Y-28314000D02*
X105749333Y-28314000D01*
X104396000Y-28434000D02*
X105749333Y-28434000D01*
X104396000Y-28554000D02*
X105749333Y-28554000D01*
X104396000Y-28674000D02*
X105749333Y-28674000D01*
X104396000Y-28794000D02*
X105749333Y-28794000D01*
X104396000Y-28914000D02*
X105749333Y-28914000D01*
X104396000Y-29034000D02*
X105749333Y-29034000D01*
X104396000Y-29154000D02*
X105749333Y-29154000D01*
X104396000Y-29274000D02*
X105749333Y-29274000D01*
X104396000Y-29394000D02*
X105749333Y-29394000D01*
X105749333Y-28194000D02*
X105749333Y-29464000D01*
X104396000Y-30734000D02*
X104396000Y-32004000D01*
X104396000Y-32004000D02*
X108456000Y-32004000D01*
X108456000Y-32004000D02*
X108456000Y-30734000D01*
X108456000Y-30734000D02*
X104396000Y-30734000D01*
X104396000Y-30854000D02*
X105749333Y-30854000D01*
X104396000Y-30974000D02*
X105749333Y-30974000D01*
X104396000Y-31094000D02*
X105749333Y-31094000D01*
X104396000Y-31214000D02*
X105749333Y-31214000D01*
X104396000Y-31334000D02*
X105749333Y-31334000D01*
X104396000Y-31454000D02*
X105749333Y-31454000D01*
X104396000Y-31574000D02*
X105749333Y-31574000D01*
X104396000Y-31694000D02*
X105749333Y-31694000D01*
X104396000Y-31814000D02*
X105749333Y-31814000D01*
X104396000Y-31934000D02*
X105749333Y-31934000D01*
X105749333Y-30734000D02*
X105749333Y-32004000D01*
X104396000Y-33274000D02*
X104396000Y-34544000D01*
X104396000Y-34544000D02*
X108456000Y-34544000D01*
X108456000Y-34544000D02*
X108456000Y-33274000D01*
X108456000Y-33274000D02*
X104396000Y-33274000D01*
X104396000Y-33394000D02*
X105749333Y-33394000D01*
X104396000Y-33514000D02*
X105749333Y-33514000D01*
X104396000Y-33634000D02*
X105749333Y-33634000D01*
X104396000Y-33754000D02*
X105749333Y-33754000D01*
X104396000Y-33874000D02*
X105749333Y-33874000D01*
X104396000Y-33994000D02*
X105749333Y-33994000D01*
X104396000Y-34114000D02*
X105749333Y-34114000D01*
X104396000Y-34234000D02*
X105749333Y-34234000D01*
X104396000Y-34354000D02*
X105749333Y-34354000D01*
X104396000Y-34474000D02*
X105749333Y-34474000D01*
X105749333Y-33274000D02*
X105749333Y-34544000D01*
X104396000Y-35814000D02*
X104396000Y-37084000D01*
X104396000Y-37084000D02*
X108456000Y-37084000D01*
X108456000Y-37084000D02*
X108456000Y-35814000D01*
X108456000Y-35814000D02*
X104396000Y-35814000D01*
X104396000Y-35934000D02*
X105749333Y-35934000D01*
X104396000Y-36054000D02*
X105749333Y-36054000D01*
X104396000Y-36174000D02*
X105749333Y-36174000D01*
X104396000Y-36294000D02*
X105749333Y-36294000D01*
X104396000Y-36414000D02*
X105749333Y-36414000D01*
X104396000Y-36534000D02*
X105749333Y-36534000D01*
X104396000Y-36654000D02*
X105749333Y-36654000D01*
X104396000Y-36774000D02*
X105749333Y-36774000D01*
X104396000Y-36894000D02*
X105749333Y-36894000D01*
X104396000Y-37014000D02*
X105749333Y-37014000D01*
X105749333Y-35814000D02*
X105749333Y-37084000D01*
G04 #@! TO.C,SW1*
X72648000Y-41347000D02*
X72648000Y-40497000D01*
X72648000Y-38497000D02*
X72648000Y-37967000D01*
X72648000Y-36027000D02*
X72648000Y-35467000D01*
X72648000Y-33527000D02*
X72648000Y-32647000D01*
X72648000Y-32647000D02*
X76348000Y-32647000D01*
X76348000Y-32647000D02*
X76348000Y-33517000D01*
X76348000Y-35477000D02*
X76348000Y-36027000D01*
X76348000Y-37967000D02*
X76348000Y-38527000D01*
X76348000Y-40467000D02*
X76348000Y-41347000D01*
X76348000Y-41347000D02*
X72648000Y-41347000D01*
X73348000Y-41647000D02*
X72348000Y-41647000D01*
X72348000Y-41647000D02*
X72348000Y-40647000D01*
G04 #@! TO.C,P1*
X42783000Y-58317000D02*
X114443000Y-58317000D01*
X114443000Y-58317000D02*
X114443000Y-67667000D01*
X114443000Y-67667000D02*
X42783000Y-67667000D01*
X42783000Y-67667000D02*
X42783000Y-58317000D01*
X42533000Y-67917000D02*
X45073000Y-67917000D01*
X42533000Y-67917000D02*
X42533000Y-65377000D01*
G04 #@! TO.C,D1*
X70166608Y-40153335D02*
G75*
G03X70323516Y-36921000I-1078608J1672335D01*
G01*
X68009392Y-40153335D02*
G75*
G02X67852484Y-36921000I1078608J1672335D01*
G01*
X70167837Y-39522130D02*
G75*
G03X70168000Y-37440039I-1079837J1041130D01*
G01*
X68008163Y-39522130D02*
G75*
G02X68008000Y-37440039I1079837J1041130D01*
G01*
X70324000Y-36921000D02*
X70168000Y-36921000D01*
X68008000Y-36921000D02*
X67852000Y-36921000D01*
G04 #@! TO.C,D13*
X107749000Y-45844000D02*
X107749000Y-46174000D01*
X107749000Y-46174000D02*
X102309000Y-46174000D01*
X102309000Y-46174000D02*
X102309000Y-45844000D01*
X107749000Y-43564000D02*
X107749000Y-43234000D01*
X107749000Y-43234000D02*
X102309000Y-43234000D01*
X102309000Y-43234000D02*
X102309000Y-43564000D01*
X106849000Y-46174000D02*
X106849000Y-43234000D01*
X106729000Y-46174000D02*
X106729000Y-43234000D01*
X106969000Y-46174000D02*
X106969000Y-43234000D01*
G04 #@! TO.C,C5*
X55198000Y-50947000D02*
G75*
G03X55198000Y-50947000I-2620000J0D01*
G01*
X49998000Y-50947000D02*
X55158000Y-50947000D01*
X49998000Y-50907000D02*
X55158000Y-50907000D01*
X49999000Y-50867000D02*
X55157000Y-50867000D01*
X50000000Y-50827000D02*
X55156000Y-50827000D01*
X50002000Y-50787000D02*
X55154000Y-50787000D01*
X50005000Y-50747000D02*
X55151000Y-50747000D01*
X50009000Y-50707000D02*
X51538000Y-50707000D01*
X53618000Y-50707000D02*
X55147000Y-50707000D01*
X50013000Y-50667000D02*
X51538000Y-50667000D01*
X53618000Y-50667000D02*
X55143000Y-50667000D01*
X50017000Y-50627000D02*
X51538000Y-50627000D01*
X53618000Y-50627000D02*
X55139000Y-50627000D01*
X50022000Y-50587000D02*
X51538000Y-50587000D01*
X53618000Y-50587000D02*
X55134000Y-50587000D01*
X50028000Y-50547000D02*
X51538000Y-50547000D01*
X53618000Y-50547000D02*
X55128000Y-50547000D01*
X50035000Y-50507000D02*
X51538000Y-50507000D01*
X53618000Y-50507000D02*
X55121000Y-50507000D01*
X50042000Y-50467000D02*
X51538000Y-50467000D01*
X53618000Y-50467000D02*
X55114000Y-50467000D01*
X50050000Y-50427000D02*
X51538000Y-50427000D01*
X53618000Y-50427000D02*
X55106000Y-50427000D01*
X50058000Y-50387000D02*
X51538000Y-50387000D01*
X53618000Y-50387000D02*
X55098000Y-50387000D01*
X50067000Y-50347000D02*
X51538000Y-50347000D01*
X53618000Y-50347000D02*
X55089000Y-50347000D01*
X50077000Y-50307000D02*
X51538000Y-50307000D01*
X53618000Y-50307000D02*
X55079000Y-50307000D01*
X50087000Y-50267000D02*
X51538000Y-50267000D01*
X53618000Y-50267000D02*
X55069000Y-50267000D01*
X50098000Y-50226000D02*
X51538000Y-50226000D01*
X53618000Y-50226000D02*
X55058000Y-50226000D01*
X50110000Y-50186000D02*
X51538000Y-50186000D01*
X53618000Y-50186000D02*
X55046000Y-50186000D01*
X50123000Y-50146000D02*
X51538000Y-50146000D01*
X53618000Y-50146000D02*
X55033000Y-50146000D01*
X50136000Y-50106000D02*
X51538000Y-50106000D01*
X53618000Y-50106000D02*
X55020000Y-50106000D01*
X50150000Y-50066000D02*
X51538000Y-50066000D01*
X53618000Y-50066000D02*
X55006000Y-50066000D01*
X50164000Y-50026000D02*
X51538000Y-50026000D01*
X53618000Y-50026000D02*
X54992000Y-50026000D01*
X50180000Y-49986000D02*
X51538000Y-49986000D01*
X53618000Y-49986000D02*
X54976000Y-49986000D01*
X50196000Y-49946000D02*
X51538000Y-49946000D01*
X53618000Y-49946000D02*
X54960000Y-49946000D01*
X50213000Y-49906000D02*
X51538000Y-49906000D01*
X53618000Y-49906000D02*
X54943000Y-49906000D01*
X50230000Y-49866000D02*
X51538000Y-49866000D01*
X53618000Y-49866000D02*
X54926000Y-49866000D01*
X50249000Y-49826000D02*
X51538000Y-49826000D01*
X53618000Y-49826000D02*
X54907000Y-49826000D01*
X50268000Y-49786000D02*
X51538000Y-49786000D01*
X53618000Y-49786000D02*
X54888000Y-49786000D01*
X50288000Y-49746000D02*
X51538000Y-49746000D01*
X53618000Y-49746000D02*
X54868000Y-49746000D01*
X50310000Y-49706000D02*
X51538000Y-49706000D01*
X53618000Y-49706000D02*
X54846000Y-49706000D01*
X50331000Y-49666000D02*
X51538000Y-49666000D01*
X53618000Y-49666000D02*
X54825000Y-49666000D01*
X50354000Y-49626000D02*
X51538000Y-49626000D01*
X53618000Y-49626000D02*
X54802000Y-49626000D01*
X50378000Y-49586000D02*
X51538000Y-49586000D01*
X53618000Y-49586000D02*
X54778000Y-49586000D01*
X50403000Y-49546000D02*
X51538000Y-49546000D01*
X53618000Y-49546000D02*
X54753000Y-49546000D01*
X50429000Y-49506000D02*
X51538000Y-49506000D01*
X53618000Y-49506000D02*
X54727000Y-49506000D01*
X50456000Y-49466000D02*
X51538000Y-49466000D01*
X53618000Y-49466000D02*
X54700000Y-49466000D01*
X50483000Y-49426000D02*
X51538000Y-49426000D01*
X53618000Y-49426000D02*
X54673000Y-49426000D01*
X50513000Y-49386000D02*
X51538000Y-49386000D01*
X53618000Y-49386000D02*
X54643000Y-49386000D01*
X50543000Y-49346000D02*
X51538000Y-49346000D01*
X53618000Y-49346000D02*
X54613000Y-49346000D01*
X50574000Y-49306000D02*
X51538000Y-49306000D01*
X53618000Y-49306000D02*
X54582000Y-49306000D01*
X50607000Y-49266000D02*
X51538000Y-49266000D01*
X53618000Y-49266000D02*
X54549000Y-49266000D01*
X50641000Y-49226000D02*
X51538000Y-49226000D01*
X53618000Y-49226000D02*
X54515000Y-49226000D01*
X50677000Y-49186000D02*
X51538000Y-49186000D01*
X53618000Y-49186000D02*
X54479000Y-49186000D01*
X50714000Y-49146000D02*
X51538000Y-49146000D01*
X53618000Y-49146000D02*
X54442000Y-49146000D01*
X50752000Y-49106000D02*
X51538000Y-49106000D01*
X53618000Y-49106000D02*
X54404000Y-49106000D01*
X50793000Y-49066000D02*
X51538000Y-49066000D01*
X53618000Y-49066000D02*
X54363000Y-49066000D01*
X50835000Y-49026000D02*
X51538000Y-49026000D01*
X53618000Y-49026000D02*
X54321000Y-49026000D01*
X50879000Y-48986000D02*
X51538000Y-48986000D01*
X53618000Y-48986000D02*
X54277000Y-48986000D01*
X50925000Y-48946000D02*
X51538000Y-48946000D01*
X53618000Y-48946000D02*
X54231000Y-48946000D01*
X50973000Y-48906000D02*
X51538000Y-48906000D01*
X53618000Y-48906000D02*
X54183000Y-48906000D01*
X51024000Y-48866000D02*
X51538000Y-48866000D01*
X53618000Y-48866000D02*
X54132000Y-48866000D01*
X51078000Y-48826000D02*
X51538000Y-48826000D01*
X53618000Y-48826000D02*
X54078000Y-48826000D01*
X51135000Y-48786000D02*
X51538000Y-48786000D01*
X53618000Y-48786000D02*
X54021000Y-48786000D01*
X51195000Y-48746000D02*
X51538000Y-48746000D01*
X53618000Y-48746000D02*
X53961000Y-48746000D01*
X51259000Y-48706000D02*
X51538000Y-48706000D01*
X53618000Y-48706000D02*
X53897000Y-48706000D01*
X51327000Y-48666000D02*
X51538000Y-48666000D01*
X53618000Y-48666000D02*
X53829000Y-48666000D01*
X51400000Y-48626000D02*
X53756000Y-48626000D01*
X51480000Y-48586000D02*
X53676000Y-48586000D01*
X51567000Y-48546000D02*
X53589000Y-48546000D01*
X51663000Y-48506000D02*
X53493000Y-48506000D01*
X51773000Y-48466000D02*
X53383000Y-48466000D01*
X51901000Y-48426000D02*
X53255000Y-48426000D01*
X52060000Y-48386000D02*
X53096000Y-48386000D01*
X52294000Y-48346000D02*
X52862000Y-48346000D01*
X51103000Y-53751775D02*
X51103000Y-53251775D01*
X50853000Y-53501775D02*
X51353000Y-53501775D01*
G04 #@! TO.C,SW4*
X103353000Y-55982000D02*
X103103000Y-55982000D01*
X103103000Y-55982000D02*
X103103000Y-49682000D01*
X103103000Y-49682000D02*
X103353000Y-49682000D01*
X107853000Y-55982000D02*
X105253000Y-55982000D01*
X109753000Y-49682000D02*
X110003000Y-49682000D01*
X110003000Y-49682000D02*
X110003000Y-55982000D01*
X110003000Y-55982000D02*
X109753000Y-55982000D01*
X105253000Y-49682000D02*
X107853000Y-49682000D01*
G04 #@! TO.C,JP3*
X89978000Y-37830000D02*
G75*
G02X89278000Y-37130000I0J700000D01*
G01*
X89278000Y-36530000D02*
G75*
G02X89978000Y-35830000I700000J0D01*
G01*
X91378000Y-35830000D02*
G75*
G02X92078000Y-36530000I0J-700000D01*
G01*
X92078000Y-37130000D02*
G75*
G02X91378000Y-37830000I-700000J0D01*
G01*
X92078000Y-36530000D02*
X92078000Y-37130000D01*
X89978000Y-35830000D02*
X91378000Y-35830000D01*
X89278000Y-37130000D02*
X89278000Y-36530000D01*
X91378000Y-37830000D02*
X89978000Y-37830000D01*
G04 #@! TO.C,JP4*
X89978000Y-35544000D02*
G75*
G02X89278000Y-34844000I0J700000D01*
G01*
X89278000Y-34244000D02*
G75*
G02X89978000Y-33544000I700000J0D01*
G01*
X91378000Y-33544000D02*
G75*
G02X92078000Y-34244000I0J-700000D01*
G01*
X92078000Y-34844000D02*
G75*
G02X91378000Y-35544000I-700000J0D01*
G01*
X92078000Y-34244000D02*
X92078000Y-34844000D01*
X89978000Y-33544000D02*
X91378000Y-33544000D01*
X89278000Y-34844000D02*
X89278000Y-34244000D01*
X91378000Y-35544000D02*
X89978000Y-35544000D01*
G04 #@! TD*
G04 #@! TO.C,U6*
D12*
X59436095Y-53554380D02*
X59436095Y-54363904D01*
X59483714Y-54459142D01*
X59531333Y-54506761D01*
X59626571Y-54554380D01*
X59817047Y-54554380D01*
X59912285Y-54506761D01*
X59959904Y-54459142D01*
X60007523Y-54363904D01*
X60007523Y-53554380D01*
X60912285Y-53554380D02*
X60721809Y-53554380D01*
X60626571Y-53602000D01*
X60578952Y-53649619D01*
X60483714Y-53792476D01*
X60436095Y-53982952D01*
X60436095Y-54363904D01*
X60483714Y-54459142D01*
X60531333Y-54506761D01*
X60626571Y-54554380D01*
X60817047Y-54554380D01*
X60912285Y-54506761D01*
X60959904Y-54459142D01*
X61007523Y-54363904D01*
X61007523Y-54125809D01*
X60959904Y-54030571D01*
X60912285Y-53982952D01*
X60817047Y-53935333D01*
X60626571Y-53935333D01*
X60531333Y-53982952D01*
X60483714Y-54030571D01*
X60436095Y-54125809D01*
G04 #@! TO.C,SW2*
X105092666Y-27582761D02*
X105235523Y-27630380D01*
X105473619Y-27630380D01*
X105568857Y-27582761D01*
X105616476Y-27535142D01*
X105664095Y-27439904D01*
X105664095Y-27344666D01*
X105616476Y-27249428D01*
X105568857Y-27201809D01*
X105473619Y-27154190D01*
X105283142Y-27106571D01*
X105187904Y-27058952D01*
X105140285Y-27011333D01*
X105092666Y-26916095D01*
X105092666Y-26820857D01*
X105140285Y-26725619D01*
X105187904Y-26678000D01*
X105283142Y-26630380D01*
X105521238Y-26630380D01*
X105664095Y-26678000D01*
X105997428Y-26630380D02*
X106235523Y-27630380D01*
X106426000Y-26916095D01*
X106616476Y-27630380D01*
X106854571Y-26630380D01*
X107187904Y-26725619D02*
X107235523Y-26678000D01*
X107330761Y-26630380D01*
X107568857Y-26630380D01*
X107664095Y-26678000D01*
X107711714Y-26725619D01*
X107759333Y-26820857D01*
X107759333Y-26916095D01*
X107711714Y-27058952D01*
X107140285Y-27630380D01*
X107759333Y-27630380D01*
G04 #@! TO.C,SW1*
X75207761Y-38330333D02*
X75255380Y-38187476D01*
X75255380Y-37949380D01*
X75207761Y-37854142D01*
X75160142Y-37806523D01*
X75064904Y-37758904D01*
X74969666Y-37758904D01*
X74874428Y-37806523D01*
X74826809Y-37854142D01*
X74779190Y-37949380D01*
X74731571Y-38139857D01*
X74683952Y-38235095D01*
X74636333Y-38282714D01*
X74541095Y-38330333D01*
X74445857Y-38330333D01*
X74350619Y-38282714D01*
X74303000Y-38235095D01*
X74255380Y-38139857D01*
X74255380Y-37901761D01*
X74303000Y-37758904D01*
X74255380Y-37425571D02*
X75255380Y-37187476D01*
X74541095Y-36997000D01*
X75255380Y-36806523D01*
X74255380Y-36568428D01*
X75255380Y-35663666D02*
X75255380Y-36235095D01*
X75255380Y-35949380D02*
X74255380Y-35949380D01*
X74398238Y-36044619D01*
X74493476Y-36139857D01*
X74541095Y-36235095D01*
G04 #@! TO.C,P1*
X41981380Y-63730095D02*
X40981380Y-63730095D01*
X40981380Y-63349142D01*
X41029000Y-63253904D01*
X41076619Y-63206285D01*
X41171857Y-63158666D01*
X41314714Y-63158666D01*
X41409952Y-63206285D01*
X41457571Y-63253904D01*
X41505190Y-63349142D01*
X41505190Y-63730095D01*
X41981380Y-62206285D02*
X41981380Y-62777714D01*
X41981380Y-62492000D02*
X40981380Y-62492000D01*
X41124238Y-62587238D01*
X41219476Y-62682476D01*
X41267095Y-62777714D01*
G04 #@! TO.C,D13*
X107053095Y-45283380D02*
X107053095Y-44283380D01*
X107624523Y-45283380D02*
X107195952Y-44711952D01*
X107624523Y-44283380D02*
X107053095Y-44854809D01*
G04 #@! TO.C,SW4*
X105687761Y-54165333D02*
X105735380Y-54022476D01*
X105735380Y-53784380D01*
X105687761Y-53689142D01*
X105640142Y-53641523D01*
X105544904Y-53593904D01*
X105449666Y-53593904D01*
X105354428Y-53641523D01*
X105306809Y-53689142D01*
X105259190Y-53784380D01*
X105211571Y-53974857D01*
X105163952Y-54070095D01*
X105116333Y-54117714D01*
X105021095Y-54165333D01*
X104925857Y-54165333D01*
X104830619Y-54117714D01*
X104783000Y-54070095D01*
X104735380Y-53974857D01*
X104735380Y-53736761D01*
X104783000Y-53593904D01*
X104735380Y-53260571D02*
X105735380Y-53022476D01*
X105021095Y-52832000D01*
X105735380Y-52641523D01*
X104735380Y-52403428D01*
X105068714Y-51593904D02*
X105735380Y-51593904D01*
X104687761Y-51832000D02*
X105402047Y-52070095D01*
X105402047Y-51451047D01*
G04 #@! TD*
%LPC*%
G04 #@! TO.C,U6*
G36*
X58609651Y-49104334D02*
X58636540Y-49108322D01*
X58662909Y-49114928D01*
X58688503Y-49124085D01*
X58713077Y-49135708D01*
X58736393Y-49149683D01*
X58758227Y-49165876D01*
X58778369Y-49184131D01*
X58796624Y-49204273D01*
X58812817Y-49226107D01*
X58826792Y-49249423D01*
X58838415Y-49273997D01*
X58847572Y-49299591D01*
X58854178Y-49325960D01*
X58858166Y-49352849D01*
X58859500Y-49380000D01*
X58859500Y-49934000D01*
X58858166Y-49961151D01*
X58854178Y-49988040D01*
X58847572Y-50014409D01*
X58838415Y-50040003D01*
X58826792Y-50064577D01*
X58812817Y-50087893D01*
X58796624Y-50109727D01*
X58778369Y-50129869D01*
X58758227Y-50148124D01*
X58736393Y-50164317D01*
X58713077Y-50178292D01*
X58688503Y-50189915D01*
X58662909Y-50199072D01*
X58636540Y-50205678D01*
X58609651Y-50209666D01*
X58582500Y-50211000D01*
X57028500Y-50211000D01*
X57001349Y-50209666D01*
X56974460Y-50205678D01*
X56948091Y-50199072D01*
X56922497Y-50189915D01*
X56897923Y-50178292D01*
X56874607Y-50164317D01*
X56852773Y-50148124D01*
X56832631Y-50129869D01*
X56814376Y-50109727D01*
X56798183Y-50087893D01*
X56784208Y-50064577D01*
X56772585Y-50040003D01*
X56763428Y-50014409D01*
X56756822Y-49988040D01*
X56752834Y-49961151D01*
X56751500Y-49934000D01*
X56751500Y-49380000D01*
X56752834Y-49352849D01*
X56756822Y-49325960D01*
X56763428Y-49299591D01*
X56772585Y-49273997D01*
X56784208Y-49249423D01*
X56798183Y-49226107D01*
X56814376Y-49204273D01*
X56832631Y-49184131D01*
X56852773Y-49165876D01*
X56874607Y-49149683D01*
X56897923Y-49135708D01*
X56922497Y-49124085D01*
X56948091Y-49114928D01*
X56974460Y-49108322D01*
X57001349Y-49104334D01*
X57028500Y-49103000D01*
X58582500Y-49103000D01*
X58609651Y-49104334D01*
X58609651Y-49104334D01*
G37*
D16*
X57805500Y-49657000D03*
D12*
G36*
X58609651Y-47834334D02*
X58636540Y-47838322D01*
X58662909Y-47844928D01*
X58688503Y-47854085D01*
X58713077Y-47865708D01*
X58736393Y-47879683D01*
X58758227Y-47895876D01*
X58778369Y-47914131D01*
X58796624Y-47934273D01*
X58812817Y-47956107D01*
X58826792Y-47979423D01*
X58838415Y-48003997D01*
X58847572Y-48029591D01*
X58854178Y-48055960D01*
X58858166Y-48082849D01*
X58859500Y-48110000D01*
X58859500Y-48664000D01*
X58858166Y-48691151D01*
X58854178Y-48718040D01*
X58847572Y-48744409D01*
X58838415Y-48770003D01*
X58826792Y-48794577D01*
X58812817Y-48817893D01*
X58796624Y-48839727D01*
X58778369Y-48859869D01*
X58758227Y-48878124D01*
X58736393Y-48894317D01*
X58713077Y-48908292D01*
X58688503Y-48919915D01*
X58662909Y-48929072D01*
X58636540Y-48935678D01*
X58609651Y-48939666D01*
X58582500Y-48941000D01*
X57028500Y-48941000D01*
X57001349Y-48939666D01*
X56974460Y-48935678D01*
X56948091Y-48929072D01*
X56922497Y-48919915D01*
X56897923Y-48908292D01*
X56874607Y-48894317D01*
X56852773Y-48878124D01*
X56832631Y-48859869D01*
X56814376Y-48839727D01*
X56798183Y-48817893D01*
X56784208Y-48794577D01*
X56772585Y-48770003D01*
X56763428Y-48744409D01*
X56756822Y-48718040D01*
X56752834Y-48691151D01*
X56751500Y-48664000D01*
X56751500Y-48110000D01*
X56752834Y-48082849D01*
X56756822Y-48055960D01*
X56763428Y-48029591D01*
X56772585Y-48003997D01*
X56784208Y-47979423D01*
X56798183Y-47956107D01*
X56814376Y-47934273D01*
X56832631Y-47914131D01*
X56852773Y-47895876D01*
X56874607Y-47879683D01*
X56897923Y-47865708D01*
X56922497Y-47854085D01*
X56948091Y-47844928D01*
X56974460Y-47838322D01*
X57001349Y-47834334D01*
X57028500Y-47833000D01*
X58582500Y-47833000D01*
X58609651Y-47834334D01*
X58609651Y-47834334D01*
G37*
D16*
X57805500Y-48387000D03*
D12*
G36*
X58609651Y-46564334D02*
X58636540Y-46568322D01*
X58662909Y-46574928D01*
X58688503Y-46584085D01*
X58713077Y-46595708D01*
X58736393Y-46609683D01*
X58758227Y-46625876D01*
X58778369Y-46644131D01*
X58796624Y-46664273D01*
X58812817Y-46686107D01*
X58826792Y-46709423D01*
X58838415Y-46733997D01*
X58847572Y-46759591D01*
X58854178Y-46785960D01*
X58858166Y-46812849D01*
X58859500Y-46840000D01*
X58859500Y-47394000D01*
X58858166Y-47421151D01*
X58854178Y-47448040D01*
X58847572Y-47474409D01*
X58838415Y-47500003D01*
X58826792Y-47524577D01*
X58812817Y-47547893D01*
X58796624Y-47569727D01*
X58778369Y-47589869D01*
X58758227Y-47608124D01*
X58736393Y-47624317D01*
X58713077Y-47638292D01*
X58688503Y-47649915D01*
X58662909Y-47659072D01*
X58636540Y-47665678D01*
X58609651Y-47669666D01*
X58582500Y-47671000D01*
X57028500Y-47671000D01*
X57001349Y-47669666D01*
X56974460Y-47665678D01*
X56948091Y-47659072D01*
X56922497Y-47649915D01*
X56897923Y-47638292D01*
X56874607Y-47624317D01*
X56852773Y-47608124D01*
X56832631Y-47589869D01*
X56814376Y-47569727D01*
X56798183Y-47547893D01*
X56784208Y-47524577D01*
X56772585Y-47500003D01*
X56763428Y-47474409D01*
X56756822Y-47448040D01*
X56752834Y-47421151D01*
X56751500Y-47394000D01*
X56751500Y-46840000D01*
X56752834Y-46812849D01*
X56756822Y-46785960D01*
X56763428Y-46759591D01*
X56772585Y-46733997D01*
X56784208Y-46709423D01*
X56798183Y-46686107D01*
X56814376Y-46664273D01*
X56832631Y-46644131D01*
X56852773Y-46625876D01*
X56874607Y-46609683D01*
X56897923Y-46595708D01*
X56922497Y-46584085D01*
X56948091Y-46574928D01*
X56974460Y-46568322D01*
X57001349Y-46564334D01*
X57028500Y-46563000D01*
X58582500Y-46563000D01*
X58609651Y-46564334D01*
X58609651Y-46564334D01*
G37*
D16*
X57805500Y-47117000D03*
D12*
G36*
X59867151Y-44311834D02*
X59894040Y-44315822D01*
X59920409Y-44322428D01*
X59946003Y-44331585D01*
X59970577Y-44343208D01*
X59993893Y-44357183D01*
X60015727Y-44373376D01*
X60035869Y-44391631D01*
X60054124Y-44411773D01*
X60070317Y-44433607D01*
X60084292Y-44456923D01*
X60095915Y-44481497D01*
X60105072Y-44507091D01*
X60111678Y-44533460D01*
X60115666Y-44560349D01*
X60117000Y-44587500D01*
X60117000Y-46141500D01*
X60115666Y-46168651D01*
X60111678Y-46195540D01*
X60105072Y-46221909D01*
X60095915Y-46247503D01*
X60084292Y-46272077D01*
X60070317Y-46295393D01*
X60054124Y-46317227D01*
X60035869Y-46337369D01*
X60015727Y-46355624D01*
X59993893Y-46371817D01*
X59970577Y-46385792D01*
X59946003Y-46397415D01*
X59920409Y-46406572D01*
X59894040Y-46413178D01*
X59867151Y-46417166D01*
X59840000Y-46418500D01*
X59286000Y-46418500D01*
X59258849Y-46417166D01*
X59231960Y-46413178D01*
X59205591Y-46406572D01*
X59179997Y-46397415D01*
X59155423Y-46385792D01*
X59132107Y-46371817D01*
X59110273Y-46355624D01*
X59090131Y-46337369D01*
X59071876Y-46317227D01*
X59055683Y-46295393D01*
X59041708Y-46272077D01*
X59030085Y-46247503D01*
X59020928Y-46221909D01*
X59014322Y-46195540D01*
X59010334Y-46168651D01*
X59009000Y-46141500D01*
X59009000Y-44587500D01*
X59010334Y-44560349D01*
X59014322Y-44533460D01*
X59020928Y-44507091D01*
X59030085Y-44481497D01*
X59041708Y-44456923D01*
X59055683Y-44433607D01*
X59071876Y-44411773D01*
X59090131Y-44391631D01*
X59110273Y-44373376D01*
X59132107Y-44357183D01*
X59155423Y-44343208D01*
X59179997Y-44331585D01*
X59205591Y-44322428D01*
X59231960Y-44315822D01*
X59258849Y-44311834D01*
X59286000Y-44310500D01*
X59840000Y-44310500D01*
X59867151Y-44311834D01*
X59867151Y-44311834D01*
G37*
D16*
X59563000Y-45364500D03*
D12*
G36*
X61137151Y-44311834D02*
X61164040Y-44315822D01*
X61190409Y-44322428D01*
X61216003Y-44331585D01*
X61240577Y-44343208D01*
X61263893Y-44357183D01*
X61285727Y-44373376D01*
X61305869Y-44391631D01*
X61324124Y-44411773D01*
X61340317Y-44433607D01*
X61354292Y-44456923D01*
X61365915Y-44481497D01*
X61375072Y-44507091D01*
X61381678Y-44533460D01*
X61385666Y-44560349D01*
X61387000Y-44587500D01*
X61387000Y-46141500D01*
X61385666Y-46168651D01*
X61381678Y-46195540D01*
X61375072Y-46221909D01*
X61365915Y-46247503D01*
X61354292Y-46272077D01*
X61340317Y-46295393D01*
X61324124Y-46317227D01*
X61305869Y-46337369D01*
X61285727Y-46355624D01*
X61263893Y-46371817D01*
X61240577Y-46385792D01*
X61216003Y-46397415D01*
X61190409Y-46406572D01*
X61164040Y-46413178D01*
X61137151Y-46417166D01*
X61110000Y-46418500D01*
X60556000Y-46418500D01*
X60528849Y-46417166D01*
X60501960Y-46413178D01*
X60475591Y-46406572D01*
X60449997Y-46397415D01*
X60425423Y-46385792D01*
X60402107Y-46371817D01*
X60380273Y-46355624D01*
X60360131Y-46337369D01*
X60341876Y-46317227D01*
X60325683Y-46295393D01*
X60311708Y-46272077D01*
X60300085Y-46247503D01*
X60290928Y-46221909D01*
X60284322Y-46195540D01*
X60280334Y-46168651D01*
X60279000Y-46141500D01*
X60279000Y-44587500D01*
X60280334Y-44560349D01*
X60284322Y-44533460D01*
X60290928Y-44507091D01*
X60300085Y-44481497D01*
X60311708Y-44456923D01*
X60325683Y-44433607D01*
X60341876Y-44411773D01*
X60360131Y-44391631D01*
X60380273Y-44373376D01*
X60402107Y-44357183D01*
X60425423Y-44343208D01*
X60449997Y-44331585D01*
X60475591Y-44322428D01*
X60501960Y-44315822D01*
X60528849Y-44311834D01*
X60556000Y-44310500D01*
X61110000Y-44310500D01*
X61137151Y-44311834D01*
X61137151Y-44311834D01*
G37*
D16*
X60833000Y-45364500D03*
D12*
G36*
X62407151Y-44311834D02*
X62434040Y-44315822D01*
X62460409Y-44322428D01*
X62486003Y-44331585D01*
X62510577Y-44343208D01*
X62533893Y-44357183D01*
X62555727Y-44373376D01*
X62575869Y-44391631D01*
X62594124Y-44411773D01*
X62610317Y-44433607D01*
X62624292Y-44456923D01*
X62635915Y-44481497D01*
X62645072Y-44507091D01*
X62651678Y-44533460D01*
X62655666Y-44560349D01*
X62657000Y-44587500D01*
X62657000Y-46141500D01*
X62655666Y-46168651D01*
X62651678Y-46195540D01*
X62645072Y-46221909D01*
X62635915Y-46247503D01*
X62624292Y-46272077D01*
X62610317Y-46295393D01*
X62594124Y-46317227D01*
X62575869Y-46337369D01*
X62555727Y-46355624D01*
X62533893Y-46371817D01*
X62510577Y-46385792D01*
X62486003Y-46397415D01*
X62460409Y-46406572D01*
X62434040Y-46413178D01*
X62407151Y-46417166D01*
X62380000Y-46418500D01*
X61826000Y-46418500D01*
X61798849Y-46417166D01*
X61771960Y-46413178D01*
X61745591Y-46406572D01*
X61719997Y-46397415D01*
X61695423Y-46385792D01*
X61672107Y-46371817D01*
X61650273Y-46355624D01*
X61630131Y-46337369D01*
X61611876Y-46317227D01*
X61595683Y-46295393D01*
X61581708Y-46272077D01*
X61570085Y-46247503D01*
X61560928Y-46221909D01*
X61554322Y-46195540D01*
X61550334Y-46168651D01*
X61549000Y-46141500D01*
X61549000Y-44587500D01*
X61550334Y-44560349D01*
X61554322Y-44533460D01*
X61560928Y-44507091D01*
X61570085Y-44481497D01*
X61581708Y-44456923D01*
X61595683Y-44433607D01*
X61611876Y-44411773D01*
X61630131Y-44391631D01*
X61650273Y-44373376D01*
X61672107Y-44357183D01*
X61695423Y-44343208D01*
X61719997Y-44331585D01*
X61745591Y-44322428D01*
X61771960Y-44315822D01*
X61798849Y-44311834D01*
X61826000Y-44310500D01*
X62380000Y-44310500D01*
X62407151Y-44311834D01*
X62407151Y-44311834D01*
G37*
D16*
X62103000Y-45364500D03*
D12*
G36*
X63677151Y-44311834D02*
X63704040Y-44315822D01*
X63730409Y-44322428D01*
X63756003Y-44331585D01*
X63780577Y-44343208D01*
X63803893Y-44357183D01*
X63825727Y-44373376D01*
X63845869Y-44391631D01*
X63864124Y-44411773D01*
X63880317Y-44433607D01*
X63894292Y-44456923D01*
X63905915Y-44481497D01*
X63915072Y-44507091D01*
X63921678Y-44533460D01*
X63925666Y-44560349D01*
X63927000Y-44587500D01*
X63927000Y-46141500D01*
X63925666Y-46168651D01*
X63921678Y-46195540D01*
X63915072Y-46221909D01*
X63905915Y-46247503D01*
X63894292Y-46272077D01*
X63880317Y-46295393D01*
X63864124Y-46317227D01*
X63845869Y-46337369D01*
X63825727Y-46355624D01*
X63803893Y-46371817D01*
X63780577Y-46385792D01*
X63756003Y-46397415D01*
X63730409Y-46406572D01*
X63704040Y-46413178D01*
X63677151Y-46417166D01*
X63650000Y-46418500D01*
X63096000Y-46418500D01*
X63068849Y-46417166D01*
X63041960Y-46413178D01*
X63015591Y-46406572D01*
X62989997Y-46397415D01*
X62965423Y-46385792D01*
X62942107Y-46371817D01*
X62920273Y-46355624D01*
X62900131Y-46337369D01*
X62881876Y-46317227D01*
X62865683Y-46295393D01*
X62851708Y-46272077D01*
X62840085Y-46247503D01*
X62830928Y-46221909D01*
X62824322Y-46195540D01*
X62820334Y-46168651D01*
X62819000Y-46141500D01*
X62819000Y-44587500D01*
X62820334Y-44560349D01*
X62824322Y-44533460D01*
X62830928Y-44507091D01*
X62840085Y-44481497D01*
X62851708Y-44456923D01*
X62865683Y-44433607D01*
X62881876Y-44411773D01*
X62900131Y-44391631D01*
X62920273Y-44373376D01*
X62942107Y-44357183D01*
X62965423Y-44343208D01*
X62989997Y-44331585D01*
X63015591Y-44322428D01*
X63041960Y-44315822D01*
X63068849Y-44311834D01*
X63096000Y-44310500D01*
X63650000Y-44310500D01*
X63677151Y-44311834D01*
X63677151Y-44311834D01*
G37*
D16*
X63373000Y-45364500D03*
D12*
G36*
X64947151Y-44311834D02*
X64974040Y-44315822D01*
X65000409Y-44322428D01*
X65026003Y-44331585D01*
X65050577Y-44343208D01*
X65073893Y-44357183D01*
X65095727Y-44373376D01*
X65115869Y-44391631D01*
X65134124Y-44411773D01*
X65150317Y-44433607D01*
X65164292Y-44456923D01*
X65175915Y-44481497D01*
X65185072Y-44507091D01*
X65191678Y-44533460D01*
X65195666Y-44560349D01*
X65197000Y-44587500D01*
X65197000Y-46141500D01*
X65195666Y-46168651D01*
X65191678Y-46195540D01*
X65185072Y-46221909D01*
X65175915Y-46247503D01*
X65164292Y-46272077D01*
X65150317Y-46295393D01*
X65134124Y-46317227D01*
X65115869Y-46337369D01*
X65095727Y-46355624D01*
X65073893Y-46371817D01*
X65050577Y-46385792D01*
X65026003Y-46397415D01*
X65000409Y-46406572D01*
X64974040Y-46413178D01*
X64947151Y-46417166D01*
X64920000Y-46418500D01*
X64366000Y-46418500D01*
X64338849Y-46417166D01*
X64311960Y-46413178D01*
X64285591Y-46406572D01*
X64259997Y-46397415D01*
X64235423Y-46385792D01*
X64212107Y-46371817D01*
X64190273Y-46355624D01*
X64170131Y-46337369D01*
X64151876Y-46317227D01*
X64135683Y-46295393D01*
X64121708Y-46272077D01*
X64110085Y-46247503D01*
X64100928Y-46221909D01*
X64094322Y-46195540D01*
X64090334Y-46168651D01*
X64089000Y-46141500D01*
X64089000Y-44587500D01*
X64090334Y-44560349D01*
X64094322Y-44533460D01*
X64100928Y-44507091D01*
X64110085Y-44481497D01*
X64121708Y-44456923D01*
X64135683Y-44433607D01*
X64151876Y-44411773D01*
X64170131Y-44391631D01*
X64190273Y-44373376D01*
X64212107Y-44357183D01*
X64235423Y-44343208D01*
X64259997Y-44331585D01*
X64285591Y-44322428D01*
X64311960Y-44315822D01*
X64338849Y-44311834D01*
X64366000Y-44310500D01*
X64920000Y-44310500D01*
X64947151Y-44311834D01*
X64947151Y-44311834D01*
G37*
D16*
X64643000Y-45364500D03*
D12*
G36*
X66217151Y-44311834D02*
X66244040Y-44315822D01*
X66270409Y-44322428D01*
X66296003Y-44331585D01*
X66320577Y-44343208D01*
X66343893Y-44357183D01*
X66365727Y-44373376D01*
X66385869Y-44391631D01*
X66404124Y-44411773D01*
X66420317Y-44433607D01*
X66434292Y-44456923D01*
X66445915Y-44481497D01*
X66455072Y-44507091D01*
X66461678Y-44533460D01*
X66465666Y-44560349D01*
X66467000Y-44587500D01*
X66467000Y-46141500D01*
X66465666Y-46168651D01*
X66461678Y-46195540D01*
X66455072Y-46221909D01*
X66445915Y-46247503D01*
X66434292Y-46272077D01*
X66420317Y-46295393D01*
X66404124Y-46317227D01*
X66385869Y-46337369D01*
X66365727Y-46355624D01*
X66343893Y-46371817D01*
X66320577Y-46385792D01*
X66296003Y-46397415D01*
X66270409Y-46406572D01*
X66244040Y-46413178D01*
X66217151Y-46417166D01*
X66190000Y-46418500D01*
X65636000Y-46418500D01*
X65608849Y-46417166D01*
X65581960Y-46413178D01*
X65555591Y-46406572D01*
X65529997Y-46397415D01*
X65505423Y-46385792D01*
X65482107Y-46371817D01*
X65460273Y-46355624D01*
X65440131Y-46337369D01*
X65421876Y-46317227D01*
X65405683Y-46295393D01*
X65391708Y-46272077D01*
X65380085Y-46247503D01*
X65370928Y-46221909D01*
X65364322Y-46195540D01*
X65360334Y-46168651D01*
X65359000Y-46141500D01*
X65359000Y-44587500D01*
X65360334Y-44560349D01*
X65364322Y-44533460D01*
X65370928Y-44507091D01*
X65380085Y-44481497D01*
X65391708Y-44456923D01*
X65405683Y-44433607D01*
X65421876Y-44411773D01*
X65440131Y-44391631D01*
X65460273Y-44373376D01*
X65482107Y-44357183D01*
X65505423Y-44343208D01*
X65529997Y-44331585D01*
X65555591Y-44322428D01*
X65581960Y-44315822D01*
X65608849Y-44311834D01*
X65636000Y-44310500D01*
X66190000Y-44310500D01*
X66217151Y-44311834D01*
X66217151Y-44311834D01*
G37*
D16*
X65913000Y-45364500D03*
D12*
G36*
X67487151Y-44311834D02*
X67514040Y-44315822D01*
X67540409Y-44322428D01*
X67566003Y-44331585D01*
X67590577Y-44343208D01*
X67613893Y-44357183D01*
X67635727Y-44373376D01*
X67655869Y-44391631D01*
X67674124Y-44411773D01*
X67690317Y-44433607D01*
X67704292Y-44456923D01*
X67715915Y-44481497D01*
X67725072Y-44507091D01*
X67731678Y-44533460D01*
X67735666Y-44560349D01*
X67737000Y-44587500D01*
X67737000Y-46141500D01*
X67735666Y-46168651D01*
X67731678Y-46195540D01*
X67725072Y-46221909D01*
X67715915Y-46247503D01*
X67704292Y-46272077D01*
X67690317Y-46295393D01*
X67674124Y-46317227D01*
X67655869Y-46337369D01*
X67635727Y-46355624D01*
X67613893Y-46371817D01*
X67590577Y-46385792D01*
X67566003Y-46397415D01*
X67540409Y-46406572D01*
X67514040Y-46413178D01*
X67487151Y-46417166D01*
X67460000Y-46418500D01*
X66906000Y-46418500D01*
X66878849Y-46417166D01*
X66851960Y-46413178D01*
X66825591Y-46406572D01*
X66799997Y-46397415D01*
X66775423Y-46385792D01*
X66752107Y-46371817D01*
X66730273Y-46355624D01*
X66710131Y-46337369D01*
X66691876Y-46317227D01*
X66675683Y-46295393D01*
X66661708Y-46272077D01*
X66650085Y-46247503D01*
X66640928Y-46221909D01*
X66634322Y-46195540D01*
X66630334Y-46168651D01*
X66629000Y-46141500D01*
X66629000Y-44587500D01*
X66630334Y-44560349D01*
X66634322Y-44533460D01*
X66640928Y-44507091D01*
X66650085Y-44481497D01*
X66661708Y-44456923D01*
X66675683Y-44433607D01*
X66691876Y-44411773D01*
X66710131Y-44391631D01*
X66730273Y-44373376D01*
X66752107Y-44357183D01*
X66775423Y-44343208D01*
X66799997Y-44331585D01*
X66825591Y-44322428D01*
X66851960Y-44315822D01*
X66878849Y-44311834D01*
X66906000Y-44310500D01*
X67460000Y-44310500D01*
X67487151Y-44311834D01*
X67487151Y-44311834D01*
G37*
D16*
X67183000Y-45364500D03*
D12*
G36*
X68757151Y-44311834D02*
X68784040Y-44315822D01*
X68810409Y-44322428D01*
X68836003Y-44331585D01*
X68860577Y-44343208D01*
X68883893Y-44357183D01*
X68905727Y-44373376D01*
X68925869Y-44391631D01*
X68944124Y-44411773D01*
X68960317Y-44433607D01*
X68974292Y-44456923D01*
X68985915Y-44481497D01*
X68995072Y-44507091D01*
X69001678Y-44533460D01*
X69005666Y-44560349D01*
X69007000Y-44587500D01*
X69007000Y-46141500D01*
X69005666Y-46168651D01*
X69001678Y-46195540D01*
X68995072Y-46221909D01*
X68985915Y-46247503D01*
X68974292Y-46272077D01*
X68960317Y-46295393D01*
X68944124Y-46317227D01*
X68925869Y-46337369D01*
X68905727Y-46355624D01*
X68883893Y-46371817D01*
X68860577Y-46385792D01*
X68836003Y-46397415D01*
X68810409Y-46406572D01*
X68784040Y-46413178D01*
X68757151Y-46417166D01*
X68730000Y-46418500D01*
X68176000Y-46418500D01*
X68148849Y-46417166D01*
X68121960Y-46413178D01*
X68095591Y-46406572D01*
X68069997Y-46397415D01*
X68045423Y-46385792D01*
X68022107Y-46371817D01*
X68000273Y-46355624D01*
X67980131Y-46337369D01*
X67961876Y-46317227D01*
X67945683Y-46295393D01*
X67931708Y-46272077D01*
X67920085Y-46247503D01*
X67910928Y-46221909D01*
X67904322Y-46195540D01*
X67900334Y-46168651D01*
X67899000Y-46141500D01*
X67899000Y-44587500D01*
X67900334Y-44560349D01*
X67904322Y-44533460D01*
X67910928Y-44507091D01*
X67920085Y-44481497D01*
X67931708Y-44456923D01*
X67945683Y-44433607D01*
X67961876Y-44411773D01*
X67980131Y-44391631D01*
X68000273Y-44373376D01*
X68022107Y-44357183D01*
X68045423Y-44343208D01*
X68069997Y-44331585D01*
X68095591Y-44322428D01*
X68121960Y-44315822D01*
X68148849Y-44311834D01*
X68176000Y-44310500D01*
X68730000Y-44310500D01*
X68757151Y-44311834D01*
X68757151Y-44311834D01*
G37*
D16*
X68453000Y-45364500D03*
D12*
G36*
X70027151Y-44311834D02*
X70054040Y-44315822D01*
X70080409Y-44322428D01*
X70106003Y-44331585D01*
X70130577Y-44343208D01*
X70153893Y-44357183D01*
X70175727Y-44373376D01*
X70195869Y-44391631D01*
X70214124Y-44411773D01*
X70230317Y-44433607D01*
X70244292Y-44456923D01*
X70255915Y-44481497D01*
X70265072Y-44507091D01*
X70271678Y-44533460D01*
X70275666Y-44560349D01*
X70277000Y-44587500D01*
X70277000Y-46141500D01*
X70275666Y-46168651D01*
X70271678Y-46195540D01*
X70265072Y-46221909D01*
X70255915Y-46247503D01*
X70244292Y-46272077D01*
X70230317Y-46295393D01*
X70214124Y-46317227D01*
X70195869Y-46337369D01*
X70175727Y-46355624D01*
X70153893Y-46371817D01*
X70130577Y-46385792D01*
X70106003Y-46397415D01*
X70080409Y-46406572D01*
X70054040Y-46413178D01*
X70027151Y-46417166D01*
X70000000Y-46418500D01*
X69446000Y-46418500D01*
X69418849Y-46417166D01*
X69391960Y-46413178D01*
X69365591Y-46406572D01*
X69339997Y-46397415D01*
X69315423Y-46385792D01*
X69292107Y-46371817D01*
X69270273Y-46355624D01*
X69250131Y-46337369D01*
X69231876Y-46317227D01*
X69215683Y-46295393D01*
X69201708Y-46272077D01*
X69190085Y-46247503D01*
X69180928Y-46221909D01*
X69174322Y-46195540D01*
X69170334Y-46168651D01*
X69169000Y-46141500D01*
X69169000Y-44587500D01*
X69170334Y-44560349D01*
X69174322Y-44533460D01*
X69180928Y-44507091D01*
X69190085Y-44481497D01*
X69201708Y-44456923D01*
X69215683Y-44433607D01*
X69231876Y-44411773D01*
X69250131Y-44391631D01*
X69270273Y-44373376D01*
X69292107Y-44357183D01*
X69315423Y-44343208D01*
X69339997Y-44331585D01*
X69365591Y-44322428D01*
X69391960Y-44315822D01*
X69418849Y-44311834D01*
X69446000Y-44310500D01*
X70000000Y-44310500D01*
X70027151Y-44311834D01*
X70027151Y-44311834D01*
G37*
D16*
X69723000Y-45364500D03*
D12*
G36*
X72284651Y-46564334D02*
X72311540Y-46568322D01*
X72337909Y-46574928D01*
X72363503Y-46584085D01*
X72388077Y-46595708D01*
X72411393Y-46609683D01*
X72433227Y-46625876D01*
X72453369Y-46644131D01*
X72471624Y-46664273D01*
X72487817Y-46686107D01*
X72501792Y-46709423D01*
X72513415Y-46733997D01*
X72522572Y-46759591D01*
X72529178Y-46785960D01*
X72533166Y-46812849D01*
X72534500Y-46840000D01*
X72534500Y-47394000D01*
X72533166Y-47421151D01*
X72529178Y-47448040D01*
X72522572Y-47474409D01*
X72513415Y-47500003D01*
X72501792Y-47524577D01*
X72487817Y-47547893D01*
X72471624Y-47569727D01*
X72453369Y-47589869D01*
X72433227Y-47608124D01*
X72411393Y-47624317D01*
X72388077Y-47638292D01*
X72363503Y-47649915D01*
X72337909Y-47659072D01*
X72311540Y-47665678D01*
X72284651Y-47669666D01*
X72257500Y-47671000D01*
X70703500Y-47671000D01*
X70676349Y-47669666D01*
X70649460Y-47665678D01*
X70623091Y-47659072D01*
X70597497Y-47649915D01*
X70572923Y-47638292D01*
X70549607Y-47624317D01*
X70527773Y-47608124D01*
X70507631Y-47589869D01*
X70489376Y-47569727D01*
X70473183Y-47547893D01*
X70459208Y-47524577D01*
X70447585Y-47500003D01*
X70438428Y-47474409D01*
X70431822Y-47448040D01*
X70427834Y-47421151D01*
X70426500Y-47394000D01*
X70426500Y-46840000D01*
X70427834Y-46812849D01*
X70431822Y-46785960D01*
X70438428Y-46759591D01*
X70447585Y-46733997D01*
X70459208Y-46709423D01*
X70473183Y-46686107D01*
X70489376Y-46664273D01*
X70507631Y-46644131D01*
X70527773Y-46625876D01*
X70549607Y-46609683D01*
X70572923Y-46595708D01*
X70597497Y-46584085D01*
X70623091Y-46574928D01*
X70649460Y-46568322D01*
X70676349Y-46564334D01*
X70703500Y-46563000D01*
X72257500Y-46563000D01*
X72284651Y-46564334D01*
X72284651Y-46564334D01*
G37*
D16*
X71480500Y-47117000D03*
D12*
G36*
X72284651Y-47834334D02*
X72311540Y-47838322D01*
X72337909Y-47844928D01*
X72363503Y-47854085D01*
X72388077Y-47865708D01*
X72411393Y-47879683D01*
X72433227Y-47895876D01*
X72453369Y-47914131D01*
X72471624Y-47934273D01*
X72487817Y-47956107D01*
X72501792Y-47979423D01*
X72513415Y-48003997D01*
X72522572Y-48029591D01*
X72529178Y-48055960D01*
X72533166Y-48082849D01*
X72534500Y-48110000D01*
X72534500Y-48664000D01*
X72533166Y-48691151D01*
X72529178Y-48718040D01*
X72522572Y-48744409D01*
X72513415Y-48770003D01*
X72501792Y-48794577D01*
X72487817Y-48817893D01*
X72471624Y-48839727D01*
X72453369Y-48859869D01*
X72433227Y-48878124D01*
X72411393Y-48894317D01*
X72388077Y-48908292D01*
X72363503Y-48919915D01*
X72337909Y-48929072D01*
X72311540Y-48935678D01*
X72284651Y-48939666D01*
X72257500Y-48941000D01*
X70703500Y-48941000D01*
X70676349Y-48939666D01*
X70649460Y-48935678D01*
X70623091Y-48929072D01*
X70597497Y-48919915D01*
X70572923Y-48908292D01*
X70549607Y-48894317D01*
X70527773Y-48878124D01*
X70507631Y-48859869D01*
X70489376Y-48839727D01*
X70473183Y-48817893D01*
X70459208Y-48794577D01*
X70447585Y-48770003D01*
X70438428Y-48744409D01*
X70431822Y-48718040D01*
X70427834Y-48691151D01*
X70426500Y-48664000D01*
X70426500Y-48110000D01*
X70427834Y-48082849D01*
X70431822Y-48055960D01*
X70438428Y-48029591D01*
X70447585Y-48003997D01*
X70459208Y-47979423D01*
X70473183Y-47956107D01*
X70489376Y-47934273D01*
X70507631Y-47914131D01*
X70527773Y-47895876D01*
X70549607Y-47879683D01*
X70572923Y-47865708D01*
X70597497Y-47854085D01*
X70623091Y-47844928D01*
X70649460Y-47838322D01*
X70676349Y-47834334D01*
X70703500Y-47833000D01*
X72257500Y-47833000D01*
X72284651Y-47834334D01*
X72284651Y-47834334D01*
G37*
D16*
X71480500Y-48387000D03*
D12*
G36*
X72284651Y-49104334D02*
X72311540Y-49108322D01*
X72337909Y-49114928D01*
X72363503Y-49124085D01*
X72388077Y-49135708D01*
X72411393Y-49149683D01*
X72433227Y-49165876D01*
X72453369Y-49184131D01*
X72471624Y-49204273D01*
X72487817Y-49226107D01*
X72501792Y-49249423D01*
X72513415Y-49273997D01*
X72522572Y-49299591D01*
X72529178Y-49325960D01*
X72533166Y-49352849D01*
X72534500Y-49380000D01*
X72534500Y-49934000D01*
X72533166Y-49961151D01*
X72529178Y-49988040D01*
X72522572Y-50014409D01*
X72513415Y-50040003D01*
X72501792Y-50064577D01*
X72487817Y-50087893D01*
X72471624Y-50109727D01*
X72453369Y-50129869D01*
X72433227Y-50148124D01*
X72411393Y-50164317D01*
X72388077Y-50178292D01*
X72363503Y-50189915D01*
X72337909Y-50199072D01*
X72311540Y-50205678D01*
X72284651Y-50209666D01*
X72257500Y-50211000D01*
X70703500Y-50211000D01*
X70676349Y-50209666D01*
X70649460Y-50205678D01*
X70623091Y-50199072D01*
X70597497Y-50189915D01*
X70572923Y-50178292D01*
X70549607Y-50164317D01*
X70527773Y-50148124D01*
X70507631Y-50129869D01*
X70489376Y-50109727D01*
X70473183Y-50087893D01*
X70459208Y-50064577D01*
X70447585Y-50040003D01*
X70438428Y-50014409D01*
X70431822Y-49988040D01*
X70427834Y-49961151D01*
X70426500Y-49934000D01*
X70426500Y-49380000D01*
X70427834Y-49352849D01*
X70431822Y-49325960D01*
X70438428Y-49299591D01*
X70447585Y-49273997D01*
X70459208Y-49249423D01*
X70473183Y-49226107D01*
X70489376Y-49204273D01*
X70507631Y-49184131D01*
X70527773Y-49165876D01*
X70549607Y-49149683D01*
X70572923Y-49135708D01*
X70597497Y-49124085D01*
X70623091Y-49114928D01*
X70649460Y-49108322D01*
X70676349Y-49104334D01*
X70703500Y-49103000D01*
X72257500Y-49103000D01*
X72284651Y-49104334D01*
X72284651Y-49104334D01*
G37*
D16*
X71480500Y-49657000D03*
D12*
G36*
X72284651Y-50374334D02*
X72311540Y-50378322D01*
X72337909Y-50384928D01*
X72363503Y-50394085D01*
X72388077Y-50405708D01*
X72411393Y-50419683D01*
X72433227Y-50435876D01*
X72453369Y-50454131D01*
X72471624Y-50474273D01*
X72487817Y-50496107D01*
X72501792Y-50519423D01*
X72513415Y-50543997D01*
X72522572Y-50569591D01*
X72529178Y-50595960D01*
X72533166Y-50622849D01*
X72534500Y-50650000D01*
X72534500Y-51204000D01*
X72533166Y-51231151D01*
X72529178Y-51258040D01*
X72522572Y-51284409D01*
X72513415Y-51310003D01*
X72501792Y-51334577D01*
X72487817Y-51357893D01*
X72471624Y-51379727D01*
X72453369Y-51399869D01*
X72433227Y-51418124D01*
X72411393Y-51434317D01*
X72388077Y-51448292D01*
X72363503Y-51459915D01*
X72337909Y-51469072D01*
X72311540Y-51475678D01*
X72284651Y-51479666D01*
X72257500Y-51481000D01*
X70703500Y-51481000D01*
X70676349Y-51479666D01*
X70649460Y-51475678D01*
X70623091Y-51469072D01*
X70597497Y-51459915D01*
X70572923Y-51448292D01*
X70549607Y-51434317D01*
X70527773Y-51418124D01*
X70507631Y-51399869D01*
X70489376Y-51379727D01*
X70473183Y-51357893D01*
X70459208Y-51334577D01*
X70447585Y-51310003D01*
X70438428Y-51284409D01*
X70431822Y-51258040D01*
X70427834Y-51231151D01*
X70426500Y-51204000D01*
X70426500Y-50650000D01*
X70427834Y-50622849D01*
X70431822Y-50595960D01*
X70438428Y-50569591D01*
X70447585Y-50543997D01*
X70459208Y-50519423D01*
X70473183Y-50496107D01*
X70489376Y-50474273D01*
X70507631Y-50454131D01*
X70527773Y-50435876D01*
X70549607Y-50419683D01*
X70572923Y-50405708D01*
X70597497Y-50394085D01*
X70623091Y-50384928D01*
X70649460Y-50378322D01*
X70676349Y-50374334D01*
X70703500Y-50373000D01*
X72257500Y-50373000D01*
X72284651Y-50374334D01*
X72284651Y-50374334D01*
G37*
D16*
X71480500Y-50927000D03*
D12*
G36*
X72284651Y-51644334D02*
X72311540Y-51648322D01*
X72337909Y-51654928D01*
X72363503Y-51664085D01*
X72388077Y-51675708D01*
X72411393Y-51689683D01*
X72433227Y-51705876D01*
X72453369Y-51724131D01*
X72471624Y-51744273D01*
X72487817Y-51766107D01*
X72501792Y-51789423D01*
X72513415Y-51813997D01*
X72522572Y-51839591D01*
X72529178Y-51865960D01*
X72533166Y-51892849D01*
X72534500Y-51920000D01*
X72534500Y-52474000D01*
X72533166Y-52501151D01*
X72529178Y-52528040D01*
X72522572Y-52554409D01*
X72513415Y-52580003D01*
X72501792Y-52604577D01*
X72487817Y-52627893D01*
X72471624Y-52649727D01*
X72453369Y-52669869D01*
X72433227Y-52688124D01*
X72411393Y-52704317D01*
X72388077Y-52718292D01*
X72363503Y-52729915D01*
X72337909Y-52739072D01*
X72311540Y-52745678D01*
X72284651Y-52749666D01*
X72257500Y-52751000D01*
X70703500Y-52751000D01*
X70676349Y-52749666D01*
X70649460Y-52745678D01*
X70623091Y-52739072D01*
X70597497Y-52729915D01*
X70572923Y-52718292D01*
X70549607Y-52704317D01*
X70527773Y-52688124D01*
X70507631Y-52669869D01*
X70489376Y-52649727D01*
X70473183Y-52627893D01*
X70459208Y-52604577D01*
X70447585Y-52580003D01*
X70438428Y-52554409D01*
X70431822Y-52528040D01*
X70427834Y-52501151D01*
X70426500Y-52474000D01*
X70426500Y-51920000D01*
X70427834Y-51892849D01*
X70431822Y-51865960D01*
X70438428Y-51839591D01*
X70447585Y-51813997D01*
X70459208Y-51789423D01*
X70473183Y-51766107D01*
X70489376Y-51744273D01*
X70507631Y-51724131D01*
X70527773Y-51705876D01*
X70549607Y-51689683D01*
X70572923Y-51675708D01*
X70597497Y-51664085D01*
X70623091Y-51654928D01*
X70649460Y-51648322D01*
X70676349Y-51644334D01*
X70703500Y-51643000D01*
X72257500Y-51643000D01*
X72284651Y-51644334D01*
X72284651Y-51644334D01*
G37*
D16*
X71480500Y-52197000D03*
D12*
G36*
X72284651Y-52914334D02*
X72311540Y-52918322D01*
X72337909Y-52924928D01*
X72363503Y-52934085D01*
X72388077Y-52945708D01*
X72411393Y-52959683D01*
X72433227Y-52975876D01*
X72453369Y-52994131D01*
X72471624Y-53014273D01*
X72487817Y-53036107D01*
X72501792Y-53059423D01*
X72513415Y-53083997D01*
X72522572Y-53109591D01*
X72529178Y-53135960D01*
X72533166Y-53162849D01*
X72534500Y-53190000D01*
X72534500Y-53744000D01*
X72533166Y-53771151D01*
X72529178Y-53798040D01*
X72522572Y-53824409D01*
X72513415Y-53850003D01*
X72501792Y-53874577D01*
X72487817Y-53897893D01*
X72471624Y-53919727D01*
X72453369Y-53939869D01*
X72433227Y-53958124D01*
X72411393Y-53974317D01*
X72388077Y-53988292D01*
X72363503Y-53999915D01*
X72337909Y-54009072D01*
X72311540Y-54015678D01*
X72284651Y-54019666D01*
X72257500Y-54021000D01*
X70703500Y-54021000D01*
X70676349Y-54019666D01*
X70649460Y-54015678D01*
X70623091Y-54009072D01*
X70597497Y-53999915D01*
X70572923Y-53988292D01*
X70549607Y-53974317D01*
X70527773Y-53958124D01*
X70507631Y-53939869D01*
X70489376Y-53919727D01*
X70473183Y-53897893D01*
X70459208Y-53874577D01*
X70447585Y-53850003D01*
X70438428Y-53824409D01*
X70431822Y-53798040D01*
X70427834Y-53771151D01*
X70426500Y-53744000D01*
X70426500Y-53190000D01*
X70427834Y-53162849D01*
X70431822Y-53135960D01*
X70438428Y-53109591D01*
X70447585Y-53083997D01*
X70459208Y-53059423D01*
X70473183Y-53036107D01*
X70489376Y-53014273D01*
X70507631Y-52994131D01*
X70527773Y-52975876D01*
X70549607Y-52959683D01*
X70572923Y-52945708D01*
X70597497Y-52934085D01*
X70623091Y-52924928D01*
X70649460Y-52918322D01*
X70676349Y-52914334D01*
X70703500Y-52913000D01*
X72257500Y-52913000D01*
X72284651Y-52914334D01*
X72284651Y-52914334D01*
G37*
D16*
X71480500Y-53467000D03*
D12*
G36*
X72284651Y-54184334D02*
X72311540Y-54188322D01*
X72337909Y-54194928D01*
X72363503Y-54204085D01*
X72388077Y-54215708D01*
X72411393Y-54229683D01*
X72433227Y-54245876D01*
X72453369Y-54264131D01*
X72471624Y-54284273D01*
X72487817Y-54306107D01*
X72501792Y-54329423D01*
X72513415Y-54353997D01*
X72522572Y-54379591D01*
X72529178Y-54405960D01*
X72533166Y-54432849D01*
X72534500Y-54460000D01*
X72534500Y-55014000D01*
X72533166Y-55041151D01*
X72529178Y-55068040D01*
X72522572Y-55094409D01*
X72513415Y-55120003D01*
X72501792Y-55144577D01*
X72487817Y-55167893D01*
X72471624Y-55189727D01*
X72453369Y-55209869D01*
X72433227Y-55228124D01*
X72411393Y-55244317D01*
X72388077Y-55258292D01*
X72363503Y-55269915D01*
X72337909Y-55279072D01*
X72311540Y-55285678D01*
X72284651Y-55289666D01*
X72257500Y-55291000D01*
X70703500Y-55291000D01*
X70676349Y-55289666D01*
X70649460Y-55285678D01*
X70623091Y-55279072D01*
X70597497Y-55269915D01*
X70572923Y-55258292D01*
X70549607Y-55244317D01*
X70527773Y-55228124D01*
X70507631Y-55209869D01*
X70489376Y-55189727D01*
X70473183Y-55167893D01*
X70459208Y-55144577D01*
X70447585Y-55120003D01*
X70438428Y-55094409D01*
X70431822Y-55068040D01*
X70427834Y-55041151D01*
X70426500Y-55014000D01*
X70426500Y-54460000D01*
X70427834Y-54432849D01*
X70431822Y-54405960D01*
X70438428Y-54379591D01*
X70447585Y-54353997D01*
X70459208Y-54329423D01*
X70473183Y-54306107D01*
X70489376Y-54284273D01*
X70507631Y-54264131D01*
X70527773Y-54245876D01*
X70549607Y-54229683D01*
X70572923Y-54215708D01*
X70597497Y-54204085D01*
X70623091Y-54194928D01*
X70649460Y-54188322D01*
X70676349Y-54184334D01*
X70703500Y-54183000D01*
X72257500Y-54183000D01*
X72284651Y-54184334D01*
X72284651Y-54184334D01*
G37*
D16*
X71480500Y-54737000D03*
D12*
G36*
X70027151Y-55436834D02*
X70054040Y-55440822D01*
X70080409Y-55447428D01*
X70106003Y-55456585D01*
X70130577Y-55468208D01*
X70153893Y-55482183D01*
X70175727Y-55498376D01*
X70195869Y-55516631D01*
X70214124Y-55536773D01*
X70230317Y-55558607D01*
X70244292Y-55581923D01*
X70255915Y-55606497D01*
X70265072Y-55632091D01*
X70271678Y-55658460D01*
X70275666Y-55685349D01*
X70277000Y-55712500D01*
X70277000Y-57266500D01*
X70275666Y-57293651D01*
X70271678Y-57320540D01*
X70265072Y-57346909D01*
X70255915Y-57372503D01*
X70244292Y-57397077D01*
X70230317Y-57420393D01*
X70214124Y-57442227D01*
X70195869Y-57462369D01*
X70175727Y-57480624D01*
X70153893Y-57496817D01*
X70130577Y-57510792D01*
X70106003Y-57522415D01*
X70080409Y-57531572D01*
X70054040Y-57538178D01*
X70027151Y-57542166D01*
X70000000Y-57543500D01*
X69446000Y-57543500D01*
X69418849Y-57542166D01*
X69391960Y-57538178D01*
X69365591Y-57531572D01*
X69339997Y-57522415D01*
X69315423Y-57510792D01*
X69292107Y-57496817D01*
X69270273Y-57480624D01*
X69250131Y-57462369D01*
X69231876Y-57442227D01*
X69215683Y-57420393D01*
X69201708Y-57397077D01*
X69190085Y-57372503D01*
X69180928Y-57346909D01*
X69174322Y-57320540D01*
X69170334Y-57293651D01*
X69169000Y-57266500D01*
X69169000Y-55712500D01*
X69170334Y-55685349D01*
X69174322Y-55658460D01*
X69180928Y-55632091D01*
X69190085Y-55606497D01*
X69201708Y-55581923D01*
X69215683Y-55558607D01*
X69231876Y-55536773D01*
X69250131Y-55516631D01*
X69270273Y-55498376D01*
X69292107Y-55482183D01*
X69315423Y-55468208D01*
X69339997Y-55456585D01*
X69365591Y-55447428D01*
X69391960Y-55440822D01*
X69418849Y-55436834D01*
X69446000Y-55435500D01*
X70000000Y-55435500D01*
X70027151Y-55436834D01*
X70027151Y-55436834D01*
G37*
D16*
X69723000Y-56489500D03*
D12*
G36*
X68757151Y-55436834D02*
X68784040Y-55440822D01*
X68810409Y-55447428D01*
X68836003Y-55456585D01*
X68860577Y-55468208D01*
X68883893Y-55482183D01*
X68905727Y-55498376D01*
X68925869Y-55516631D01*
X68944124Y-55536773D01*
X68960317Y-55558607D01*
X68974292Y-55581923D01*
X68985915Y-55606497D01*
X68995072Y-55632091D01*
X69001678Y-55658460D01*
X69005666Y-55685349D01*
X69007000Y-55712500D01*
X69007000Y-57266500D01*
X69005666Y-57293651D01*
X69001678Y-57320540D01*
X68995072Y-57346909D01*
X68985915Y-57372503D01*
X68974292Y-57397077D01*
X68960317Y-57420393D01*
X68944124Y-57442227D01*
X68925869Y-57462369D01*
X68905727Y-57480624D01*
X68883893Y-57496817D01*
X68860577Y-57510792D01*
X68836003Y-57522415D01*
X68810409Y-57531572D01*
X68784040Y-57538178D01*
X68757151Y-57542166D01*
X68730000Y-57543500D01*
X68176000Y-57543500D01*
X68148849Y-57542166D01*
X68121960Y-57538178D01*
X68095591Y-57531572D01*
X68069997Y-57522415D01*
X68045423Y-57510792D01*
X68022107Y-57496817D01*
X68000273Y-57480624D01*
X67980131Y-57462369D01*
X67961876Y-57442227D01*
X67945683Y-57420393D01*
X67931708Y-57397077D01*
X67920085Y-57372503D01*
X67910928Y-57346909D01*
X67904322Y-57320540D01*
X67900334Y-57293651D01*
X67899000Y-57266500D01*
X67899000Y-55712500D01*
X67900334Y-55685349D01*
X67904322Y-55658460D01*
X67910928Y-55632091D01*
X67920085Y-55606497D01*
X67931708Y-55581923D01*
X67945683Y-55558607D01*
X67961876Y-55536773D01*
X67980131Y-55516631D01*
X68000273Y-55498376D01*
X68022107Y-55482183D01*
X68045423Y-55468208D01*
X68069997Y-55456585D01*
X68095591Y-55447428D01*
X68121960Y-55440822D01*
X68148849Y-55436834D01*
X68176000Y-55435500D01*
X68730000Y-55435500D01*
X68757151Y-55436834D01*
X68757151Y-55436834D01*
G37*
D16*
X68453000Y-56489500D03*
D12*
G36*
X67487151Y-55436834D02*
X67514040Y-55440822D01*
X67540409Y-55447428D01*
X67566003Y-55456585D01*
X67590577Y-55468208D01*
X67613893Y-55482183D01*
X67635727Y-55498376D01*
X67655869Y-55516631D01*
X67674124Y-55536773D01*
X67690317Y-55558607D01*
X67704292Y-55581923D01*
X67715915Y-55606497D01*
X67725072Y-55632091D01*
X67731678Y-55658460D01*
X67735666Y-55685349D01*
X67737000Y-55712500D01*
X67737000Y-57266500D01*
X67735666Y-57293651D01*
X67731678Y-57320540D01*
X67725072Y-57346909D01*
X67715915Y-57372503D01*
X67704292Y-57397077D01*
X67690317Y-57420393D01*
X67674124Y-57442227D01*
X67655869Y-57462369D01*
X67635727Y-57480624D01*
X67613893Y-57496817D01*
X67590577Y-57510792D01*
X67566003Y-57522415D01*
X67540409Y-57531572D01*
X67514040Y-57538178D01*
X67487151Y-57542166D01*
X67460000Y-57543500D01*
X66906000Y-57543500D01*
X66878849Y-57542166D01*
X66851960Y-57538178D01*
X66825591Y-57531572D01*
X66799997Y-57522415D01*
X66775423Y-57510792D01*
X66752107Y-57496817D01*
X66730273Y-57480624D01*
X66710131Y-57462369D01*
X66691876Y-57442227D01*
X66675683Y-57420393D01*
X66661708Y-57397077D01*
X66650085Y-57372503D01*
X66640928Y-57346909D01*
X66634322Y-57320540D01*
X66630334Y-57293651D01*
X66629000Y-57266500D01*
X66629000Y-55712500D01*
X66630334Y-55685349D01*
X66634322Y-55658460D01*
X66640928Y-55632091D01*
X66650085Y-55606497D01*
X66661708Y-55581923D01*
X66675683Y-55558607D01*
X66691876Y-55536773D01*
X66710131Y-55516631D01*
X66730273Y-55498376D01*
X66752107Y-55482183D01*
X66775423Y-55468208D01*
X66799997Y-55456585D01*
X66825591Y-55447428D01*
X66851960Y-55440822D01*
X66878849Y-55436834D01*
X66906000Y-55435500D01*
X67460000Y-55435500D01*
X67487151Y-55436834D01*
X67487151Y-55436834D01*
G37*
D16*
X67183000Y-56489500D03*
D12*
G36*
X66217151Y-55436834D02*
X66244040Y-55440822D01*
X66270409Y-55447428D01*
X66296003Y-55456585D01*
X66320577Y-55468208D01*
X66343893Y-55482183D01*
X66365727Y-55498376D01*
X66385869Y-55516631D01*
X66404124Y-55536773D01*
X66420317Y-55558607D01*
X66434292Y-55581923D01*
X66445915Y-55606497D01*
X66455072Y-55632091D01*
X66461678Y-55658460D01*
X66465666Y-55685349D01*
X66467000Y-55712500D01*
X66467000Y-57266500D01*
X66465666Y-57293651D01*
X66461678Y-57320540D01*
X66455072Y-57346909D01*
X66445915Y-57372503D01*
X66434292Y-57397077D01*
X66420317Y-57420393D01*
X66404124Y-57442227D01*
X66385869Y-57462369D01*
X66365727Y-57480624D01*
X66343893Y-57496817D01*
X66320577Y-57510792D01*
X66296003Y-57522415D01*
X66270409Y-57531572D01*
X66244040Y-57538178D01*
X66217151Y-57542166D01*
X66190000Y-57543500D01*
X65636000Y-57543500D01*
X65608849Y-57542166D01*
X65581960Y-57538178D01*
X65555591Y-57531572D01*
X65529997Y-57522415D01*
X65505423Y-57510792D01*
X65482107Y-57496817D01*
X65460273Y-57480624D01*
X65440131Y-57462369D01*
X65421876Y-57442227D01*
X65405683Y-57420393D01*
X65391708Y-57397077D01*
X65380085Y-57372503D01*
X65370928Y-57346909D01*
X65364322Y-57320540D01*
X65360334Y-57293651D01*
X65359000Y-57266500D01*
X65359000Y-55712500D01*
X65360334Y-55685349D01*
X65364322Y-55658460D01*
X65370928Y-55632091D01*
X65380085Y-55606497D01*
X65391708Y-55581923D01*
X65405683Y-55558607D01*
X65421876Y-55536773D01*
X65440131Y-55516631D01*
X65460273Y-55498376D01*
X65482107Y-55482183D01*
X65505423Y-55468208D01*
X65529997Y-55456585D01*
X65555591Y-55447428D01*
X65581960Y-55440822D01*
X65608849Y-55436834D01*
X65636000Y-55435500D01*
X66190000Y-55435500D01*
X66217151Y-55436834D01*
X66217151Y-55436834D01*
G37*
D16*
X65913000Y-56489500D03*
D12*
G36*
X64947151Y-55436834D02*
X64974040Y-55440822D01*
X65000409Y-55447428D01*
X65026003Y-55456585D01*
X65050577Y-55468208D01*
X65073893Y-55482183D01*
X65095727Y-55498376D01*
X65115869Y-55516631D01*
X65134124Y-55536773D01*
X65150317Y-55558607D01*
X65164292Y-55581923D01*
X65175915Y-55606497D01*
X65185072Y-55632091D01*
X65191678Y-55658460D01*
X65195666Y-55685349D01*
X65197000Y-55712500D01*
X65197000Y-57266500D01*
X65195666Y-57293651D01*
X65191678Y-57320540D01*
X65185072Y-57346909D01*
X65175915Y-57372503D01*
X65164292Y-57397077D01*
X65150317Y-57420393D01*
X65134124Y-57442227D01*
X65115869Y-57462369D01*
X65095727Y-57480624D01*
X65073893Y-57496817D01*
X65050577Y-57510792D01*
X65026003Y-57522415D01*
X65000409Y-57531572D01*
X64974040Y-57538178D01*
X64947151Y-57542166D01*
X64920000Y-57543500D01*
X64366000Y-57543500D01*
X64338849Y-57542166D01*
X64311960Y-57538178D01*
X64285591Y-57531572D01*
X64259997Y-57522415D01*
X64235423Y-57510792D01*
X64212107Y-57496817D01*
X64190273Y-57480624D01*
X64170131Y-57462369D01*
X64151876Y-57442227D01*
X64135683Y-57420393D01*
X64121708Y-57397077D01*
X64110085Y-57372503D01*
X64100928Y-57346909D01*
X64094322Y-57320540D01*
X64090334Y-57293651D01*
X64089000Y-57266500D01*
X64089000Y-55712500D01*
X64090334Y-55685349D01*
X64094322Y-55658460D01*
X64100928Y-55632091D01*
X64110085Y-55606497D01*
X64121708Y-55581923D01*
X64135683Y-55558607D01*
X64151876Y-55536773D01*
X64170131Y-55516631D01*
X64190273Y-55498376D01*
X64212107Y-55482183D01*
X64235423Y-55468208D01*
X64259997Y-55456585D01*
X64285591Y-55447428D01*
X64311960Y-55440822D01*
X64338849Y-55436834D01*
X64366000Y-55435500D01*
X64920000Y-55435500D01*
X64947151Y-55436834D01*
X64947151Y-55436834D01*
G37*
D16*
X64643000Y-56489500D03*
D12*
G36*
X63677151Y-55436834D02*
X63704040Y-55440822D01*
X63730409Y-55447428D01*
X63756003Y-55456585D01*
X63780577Y-55468208D01*
X63803893Y-55482183D01*
X63825727Y-55498376D01*
X63845869Y-55516631D01*
X63864124Y-55536773D01*
X63880317Y-55558607D01*
X63894292Y-55581923D01*
X63905915Y-55606497D01*
X63915072Y-55632091D01*
X63921678Y-55658460D01*
X63925666Y-55685349D01*
X63927000Y-55712500D01*
X63927000Y-57266500D01*
X63925666Y-57293651D01*
X63921678Y-57320540D01*
X63915072Y-57346909D01*
X63905915Y-57372503D01*
X63894292Y-57397077D01*
X63880317Y-57420393D01*
X63864124Y-57442227D01*
X63845869Y-57462369D01*
X63825727Y-57480624D01*
X63803893Y-57496817D01*
X63780577Y-57510792D01*
X63756003Y-57522415D01*
X63730409Y-57531572D01*
X63704040Y-57538178D01*
X63677151Y-57542166D01*
X63650000Y-57543500D01*
X63096000Y-57543500D01*
X63068849Y-57542166D01*
X63041960Y-57538178D01*
X63015591Y-57531572D01*
X62989997Y-57522415D01*
X62965423Y-57510792D01*
X62942107Y-57496817D01*
X62920273Y-57480624D01*
X62900131Y-57462369D01*
X62881876Y-57442227D01*
X62865683Y-57420393D01*
X62851708Y-57397077D01*
X62840085Y-57372503D01*
X62830928Y-57346909D01*
X62824322Y-57320540D01*
X62820334Y-57293651D01*
X62819000Y-57266500D01*
X62819000Y-55712500D01*
X62820334Y-55685349D01*
X62824322Y-55658460D01*
X62830928Y-55632091D01*
X62840085Y-55606497D01*
X62851708Y-55581923D01*
X62865683Y-55558607D01*
X62881876Y-55536773D01*
X62900131Y-55516631D01*
X62920273Y-55498376D01*
X62942107Y-55482183D01*
X62965423Y-55468208D01*
X62989997Y-55456585D01*
X63015591Y-55447428D01*
X63041960Y-55440822D01*
X63068849Y-55436834D01*
X63096000Y-55435500D01*
X63650000Y-55435500D01*
X63677151Y-55436834D01*
X63677151Y-55436834D01*
G37*
D16*
X63373000Y-56489500D03*
D12*
G36*
X62407151Y-55436834D02*
X62434040Y-55440822D01*
X62460409Y-55447428D01*
X62486003Y-55456585D01*
X62510577Y-55468208D01*
X62533893Y-55482183D01*
X62555727Y-55498376D01*
X62575869Y-55516631D01*
X62594124Y-55536773D01*
X62610317Y-55558607D01*
X62624292Y-55581923D01*
X62635915Y-55606497D01*
X62645072Y-55632091D01*
X62651678Y-55658460D01*
X62655666Y-55685349D01*
X62657000Y-55712500D01*
X62657000Y-57266500D01*
X62655666Y-57293651D01*
X62651678Y-57320540D01*
X62645072Y-57346909D01*
X62635915Y-57372503D01*
X62624292Y-57397077D01*
X62610317Y-57420393D01*
X62594124Y-57442227D01*
X62575869Y-57462369D01*
X62555727Y-57480624D01*
X62533893Y-57496817D01*
X62510577Y-57510792D01*
X62486003Y-57522415D01*
X62460409Y-57531572D01*
X62434040Y-57538178D01*
X62407151Y-57542166D01*
X62380000Y-57543500D01*
X61826000Y-57543500D01*
X61798849Y-57542166D01*
X61771960Y-57538178D01*
X61745591Y-57531572D01*
X61719997Y-57522415D01*
X61695423Y-57510792D01*
X61672107Y-57496817D01*
X61650273Y-57480624D01*
X61630131Y-57462369D01*
X61611876Y-57442227D01*
X61595683Y-57420393D01*
X61581708Y-57397077D01*
X61570085Y-57372503D01*
X61560928Y-57346909D01*
X61554322Y-57320540D01*
X61550334Y-57293651D01*
X61549000Y-57266500D01*
X61549000Y-55712500D01*
X61550334Y-55685349D01*
X61554322Y-55658460D01*
X61560928Y-55632091D01*
X61570085Y-55606497D01*
X61581708Y-55581923D01*
X61595683Y-55558607D01*
X61611876Y-55536773D01*
X61630131Y-55516631D01*
X61650273Y-55498376D01*
X61672107Y-55482183D01*
X61695423Y-55468208D01*
X61719997Y-55456585D01*
X61745591Y-55447428D01*
X61771960Y-55440822D01*
X61798849Y-55436834D01*
X61826000Y-55435500D01*
X62380000Y-55435500D01*
X62407151Y-55436834D01*
X62407151Y-55436834D01*
G37*
D16*
X62103000Y-56489500D03*
D12*
G36*
X61137151Y-55436834D02*
X61164040Y-55440822D01*
X61190409Y-55447428D01*
X61216003Y-55456585D01*
X61240577Y-55468208D01*
X61263893Y-55482183D01*
X61285727Y-55498376D01*
X61305869Y-55516631D01*
X61324124Y-55536773D01*
X61340317Y-55558607D01*
X61354292Y-55581923D01*
X61365915Y-55606497D01*
X61375072Y-55632091D01*
X61381678Y-55658460D01*
X61385666Y-55685349D01*
X61387000Y-55712500D01*
X61387000Y-57266500D01*
X61385666Y-57293651D01*
X61381678Y-57320540D01*
X61375072Y-57346909D01*
X61365915Y-57372503D01*
X61354292Y-57397077D01*
X61340317Y-57420393D01*
X61324124Y-57442227D01*
X61305869Y-57462369D01*
X61285727Y-57480624D01*
X61263893Y-57496817D01*
X61240577Y-57510792D01*
X61216003Y-57522415D01*
X61190409Y-57531572D01*
X61164040Y-57538178D01*
X61137151Y-57542166D01*
X61110000Y-57543500D01*
X60556000Y-57543500D01*
X60528849Y-57542166D01*
X60501960Y-57538178D01*
X60475591Y-57531572D01*
X60449997Y-57522415D01*
X60425423Y-57510792D01*
X60402107Y-57496817D01*
X60380273Y-57480624D01*
X60360131Y-57462369D01*
X60341876Y-57442227D01*
X60325683Y-57420393D01*
X60311708Y-57397077D01*
X60300085Y-57372503D01*
X60290928Y-57346909D01*
X60284322Y-57320540D01*
X60280334Y-57293651D01*
X60279000Y-57266500D01*
X60279000Y-55712500D01*
X60280334Y-55685349D01*
X60284322Y-55658460D01*
X60290928Y-55632091D01*
X60300085Y-55606497D01*
X60311708Y-55581923D01*
X60325683Y-55558607D01*
X60341876Y-55536773D01*
X60360131Y-55516631D01*
X60380273Y-55498376D01*
X60402107Y-55482183D01*
X60425423Y-55468208D01*
X60449997Y-55456585D01*
X60475591Y-55447428D01*
X60501960Y-55440822D01*
X60528849Y-55436834D01*
X60556000Y-55435500D01*
X61110000Y-55435500D01*
X61137151Y-55436834D01*
X61137151Y-55436834D01*
G37*
D16*
X60833000Y-56489500D03*
D12*
G36*
X59867151Y-55436834D02*
X59894040Y-55440822D01*
X59920409Y-55447428D01*
X59946003Y-55456585D01*
X59970577Y-55468208D01*
X59993893Y-55482183D01*
X60015727Y-55498376D01*
X60035869Y-55516631D01*
X60054124Y-55536773D01*
X60070317Y-55558607D01*
X60084292Y-55581923D01*
X60095915Y-55606497D01*
X60105072Y-55632091D01*
X60111678Y-55658460D01*
X60115666Y-55685349D01*
X60117000Y-55712500D01*
X60117000Y-57266500D01*
X60115666Y-57293651D01*
X60111678Y-57320540D01*
X60105072Y-57346909D01*
X60095915Y-57372503D01*
X60084292Y-57397077D01*
X60070317Y-57420393D01*
X60054124Y-57442227D01*
X60035869Y-57462369D01*
X60015727Y-57480624D01*
X59993893Y-57496817D01*
X59970577Y-57510792D01*
X59946003Y-57522415D01*
X59920409Y-57531572D01*
X59894040Y-57538178D01*
X59867151Y-57542166D01*
X59840000Y-57543500D01*
X59286000Y-57543500D01*
X59258849Y-57542166D01*
X59231960Y-57538178D01*
X59205591Y-57531572D01*
X59179997Y-57522415D01*
X59155423Y-57510792D01*
X59132107Y-57496817D01*
X59110273Y-57480624D01*
X59090131Y-57462369D01*
X59071876Y-57442227D01*
X59055683Y-57420393D01*
X59041708Y-57397077D01*
X59030085Y-57372503D01*
X59020928Y-57346909D01*
X59014322Y-57320540D01*
X59010334Y-57293651D01*
X59009000Y-57266500D01*
X59009000Y-55712500D01*
X59010334Y-55685349D01*
X59014322Y-55658460D01*
X59020928Y-55632091D01*
X59030085Y-55606497D01*
X59041708Y-55581923D01*
X59055683Y-55558607D01*
X59071876Y-55536773D01*
X59090131Y-55516631D01*
X59110273Y-55498376D01*
X59132107Y-55482183D01*
X59155423Y-55468208D01*
X59179997Y-55456585D01*
X59205591Y-55447428D01*
X59231960Y-55440822D01*
X59258849Y-55436834D01*
X59286000Y-55435500D01*
X59840000Y-55435500D01*
X59867151Y-55436834D01*
X59867151Y-55436834D01*
G37*
D16*
X59563000Y-56489500D03*
D12*
G36*
X58609651Y-54184334D02*
X58636540Y-54188322D01*
X58662909Y-54194928D01*
X58688503Y-54204085D01*
X58713077Y-54215708D01*
X58736393Y-54229683D01*
X58758227Y-54245876D01*
X58778369Y-54264131D01*
X58796624Y-54284273D01*
X58812817Y-54306107D01*
X58826792Y-54329423D01*
X58838415Y-54353997D01*
X58847572Y-54379591D01*
X58854178Y-54405960D01*
X58858166Y-54432849D01*
X58859500Y-54460000D01*
X58859500Y-55014000D01*
X58858166Y-55041151D01*
X58854178Y-55068040D01*
X58847572Y-55094409D01*
X58838415Y-55120003D01*
X58826792Y-55144577D01*
X58812817Y-55167893D01*
X58796624Y-55189727D01*
X58778369Y-55209869D01*
X58758227Y-55228124D01*
X58736393Y-55244317D01*
X58713077Y-55258292D01*
X58688503Y-55269915D01*
X58662909Y-55279072D01*
X58636540Y-55285678D01*
X58609651Y-55289666D01*
X58582500Y-55291000D01*
X57028500Y-55291000D01*
X57001349Y-55289666D01*
X56974460Y-55285678D01*
X56948091Y-55279072D01*
X56922497Y-55269915D01*
X56897923Y-55258292D01*
X56874607Y-55244317D01*
X56852773Y-55228124D01*
X56832631Y-55209869D01*
X56814376Y-55189727D01*
X56798183Y-55167893D01*
X56784208Y-55144577D01*
X56772585Y-55120003D01*
X56763428Y-55094409D01*
X56756822Y-55068040D01*
X56752834Y-55041151D01*
X56751500Y-55014000D01*
X56751500Y-54460000D01*
X56752834Y-54432849D01*
X56756822Y-54405960D01*
X56763428Y-54379591D01*
X56772585Y-54353997D01*
X56784208Y-54329423D01*
X56798183Y-54306107D01*
X56814376Y-54284273D01*
X56832631Y-54264131D01*
X56852773Y-54245876D01*
X56874607Y-54229683D01*
X56897923Y-54215708D01*
X56922497Y-54204085D01*
X56948091Y-54194928D01*
X56974460Y-54188322D01*
X57001349Y-54184334D01*
X57028500Y-54183000D01*
X58582500Y-54183000D01*
X58609651Y-54184334D01*
X58609651Y-54184334D01*
G37*
D16*
X57805500Y-54737000D03*
D12*
G36*
X58609651Y-52914334D02*
X58636540Y-52918322D01*
X58662909Y-52924928D01*
X58688503Y-52934085D01*
X58713077Y-52945708D01*
X58736393Y-52959683D01*
X58758227Y-52975876D01*
X58778369Y-52994131D01*
X58796624Y-53014273D01*
X58812817Y-53036107D01*
X58826792Y-53059423D01*
X58838415Y-53083997D01*
X58847572Y-53109591D01*
X58854178Y-53135960D01*
X58858166Y-53162849D01*
X58859500Y-53190000D01*
X58859500Y-53744000D01*
X58858166Y-53771151D01*
X58854178Y-53798040D01*
X58847572Y-53824409D01*
X58838415Y-53850003D01*
X58826792Y-53874577D01*
X58812817Y-53897893D01*
X58796624Y-53919727D01*
X58778369Y-53939869D01*
X58758227Y-53958124D01*
X58736393Y-53974317D01*
X58713077Y-53988292D01*
X58688503Y-53999915D01*
X58662909Y-54009072D01*
X58636540Y-54015678D01*
X58609651Y-54019666D01*
X58582500Y-54021000D01*
X57028500Y-54021000D01*
X57001349Y-54019666D01*
X56974460Y-54015678D01*
X56948091Y-54009072D01*
X56922497Y-53999915D01*
X56897923Y-53988292D01*
X56874607Y-53974317D01*
X56852773Y-53958124D01*
X56832631Y-53939869D01*
X56814376Y-53919727D01*
X56798183Y-53897893D01*
X56784208Y-53874577D01*
X56772585Y-53850003D01*
X56763428Y-53824409D01*
X56756822Y-53798040D01*
X56752834Y-53771151D01*
X56751500Y-53744000D01*
X56751500Y-53190000D01*
X56752834Y-53162849D01*
X56756822Y-53135960D01*
X56763428Y-53109591D01*
X56772585Y-53083997D01*
X56784208Y-53059423D01*
X56798183Y-53036107D01*
X56814376Y-53014273D01*
X56832631Y-52994131D01*
X56852773Y-52975876D01*
X56874607Y-52959683D01*
X56897923Y-52945708D01*
X56922497Y-52934085D01*
X56948091Y-52924928D01*
X56974460Y-52918322D01*
X57001349Y-52914334D01*
X57028500Y-52913000D01*
X58582500Y-52913000D01*
X58609651Y-52914334D01*
X58609651Y-52914334D01*
G37*
D16*
X57805500Y-53467000D03*
D12*
G36*
X58609651Y-51644334D02*
X58636540Y-51648322D01*
X58662909Y-51654928D01*
X58688503Y-51664085D01*
X58713077Y-51675708D01*
X58736393Y-51689683D01*
X58758227Y-51705876D01*
X58778369Y-51724131D01*
X58796624Y-51744273D01*
X58812817Y-51766107D01*
X58826792Y-51789423D01*
X58838415Y-51813997D01*
X58847572Y-51839591D01*
X58854178Y-51865960D01*
X58858166Y-51892849D01*
X58859500Y-51920000D01*
X58859500Y-52474000D01*
X58858166Y-52501151D01*
X58854178Y-52528040D01*
X58847572Y-52554409D01*
X58838415Y-52580003D01*
X58826792Y-52604577D01*
X58812817Y-52627893D01*
X58796624Y-52649727D01*
X58778369Y-52669869D01*
X58758227Y-52688124D01*
X58736393Y-52704317D01*
X58713077Y-52718292D01*
X58688503Y-52729915D01*
X58662909Y-52739072D01*
X58636540Y-52745678D01*
X58609651Y-52749666D01*
X58582500Y-52751000D01*
X57028500Y-52751000D01*
X57001349Y-52749666D01*
X56974460Y-52745678D01*
X56948091Y-52739072D01*
X56922497Y-52729915D01*
X56897923Y-52718292D01*
X56874607Y-52704317D01*
X56852773Y-52688124D01*
X56832631Y-52669869D01*
X56814376Y-52649727D01*
X56798183Y-52627893D01*
X56784208Y-52604577D01*
X56772585Y-52580003D01*
X56763428Y-52554409D01*
X56756822Y-52528040D01*
X56752834Y-52501151D01*
X56751500Y-52474000D01*
X56751500Y-51920000D01*
X56752834Y-51892849D01*
X56756822Y-51865960D01*
X56763428Y-51839591D01*
X56772585Y-51813997D01*
X56784208Y-51789423D01*
X56798183Y-51766107D01*
X56814376Y-51744273D01*
X56832631Y-51724131D01*
X56852773Y-51705876D01*
X56874607Y-51689683D01*
X56897923Y-51675708D01*
X56922497Y-51664085D01*
X56948091Y-51654928D01*
X56974460Y-51648322D01*
X57001349Y-51644334D01*
X57028500Y-51643000D01*
X58582500Y-51643000D01*
X58609651Y-51644334D01*
X58609651Y-51644334D01*
G37*
D16*
X57805500Y-52197000D03*
D12*
G36*
X58609651Y-50374334D02*
X58636540Y-50378322D01*
X58662909Y-50384928D01*
X58688503Y-50394085D01*
X58713077Y-50405708D01*
X58736393Y-50419683D01*
X58758227Y-50435876D01*
X58778369Y-50454131D01*
X58796624Y-50474273D01*
X58812817Y-50496107D01*
X58826792Y-50519423D01*
X58838415Y-50543997D01*
X58847572Y-50569591D01*
X58854178Y-50595960D01*
X58858166Y-50622849D01*
X58859500Y-50650000D01*
X58859500Y-51204000D01*
X58858166Y-51231151D01*
X58854178Y-51258040D01*
X58847572Y-51284409D01*
X58838415Y-51310003D01*
X58826792Y-51334577D01*
X58812817Y-51357893D01*
X58796624Y-51379727D01*
X58778369Y-51399869D01*
X58758227Y-51418124D01*
X58736393Y-51434317D01*
X58713077Y-51448292D01*
X58688503Y-51459915D01*
X58662909Y-51469072D01*
X58636540Y-51475678D01*
X58609651Y-51479666D01*
X58582500Y-51481000D01*
X57028500Y-51481000D01*
X57001349Y-51479666D01*
X56974460Y-51475678D01*
X56948091Y-51469072D01*
X56922497Y-51459915D01*
X56897923Y-51448292D01*
X56874607Y-51434317D01*
X56852773Y-51418124D01*
X56832631Y-51399869D01*
X56814376Y-51379727D01*
X56798183Y-51357893D01*
X56784208Y-51334577D01*
X56772585Y-51310003D01*
X56763428Y-51284409D01*
X56756822Y-51258040D01*
X56752834Y-51231151D01*
X56751500Y-51204000D01*
X56751500Y-50650000D01*
X56752834Y-50622849D01*
X56756822Y-50595960D01*
X56763428Y-50569591D01*
X56772585Y-50543997D01*
X56784208Y-50519423D01*
X56798183Y-50496107D01*
X56814376Y-50474273D01*
X56832631Y-50454131D01*
X56852773Y-50435876D01*
X56874607Y-50419683D01*
X56897923Y-50405708D01*
X56922497Y-50394085D01*
X56948091Y-50384928D01*
X56974460Y-50378322D01*
X57001349Y-50374334D01*
X57028500Y-50373000D01*
X58582500Y-50373000D01*
X58609651Y-50374334D01*
X58609651Y-50374334D01*
G37*
D16*
X57805500Y-50927000D03*
G04 #@! TD*
D17*
G04 #@! TO.C,SW2*
X102616000Y-28829000D03*
D18*
X110236000Y-36449000D03*
X102616000Y-31369000D03*
X110236000Y-33909000D03*
X102616000Y-33909000D03*
X110236000Y-31369000D03*
X102616000Y-36449000D03*
X110236000Y-28829000D03*
G04 #@! TD*
D17*
G04 #@! TO.C,SW1*
X72898000Y-39497000D03*
D19*
X72898000Y-36997000D03*
X72898000Y-34497000D03*
X76098000Y-39497000D03*
X76098000Y-36997000D03*
X76098000Y-34497000D03*
G04 #@! TD*
D20*
G04 #@! TO.C,P1*
X48133000Y-64262000D03*
D21*
X48133000Y-61722000D03*
X50673000Y-64262000D03*
X50673000Y-61722000D03*
X53213000Y-64262000D03*
X53213000Y-61722000D03*
X55753000Y-64262000D03*
X55753000Y-61722000D03*
X58293000Y-64262000D03*
X58293000Y-61722000D03*
X60833000Y-64262000D03*
X60833000Y-61722000D03*
X63373000Y-64262000D03*
X63373000Y-61722000D03*
X65913000Y-64262000D03*
X65913000Y-61722000D03*
X68453000Y-64262000D03*
X68453000Y-61722000D03*
X70993000Y-64262000D03*
X70993000Y-61722000D03*
X73533000Y-64262000D03*
X73533000Y-61722000D03*
X76073000Y-64262000D03*
X76073000Y-61722000D03*
X78613000Y-64262000D03*
X78613000Y-61722000D03*
X81153000Y-64262000D03*
X81153000Y-61722000D03*
X83693000Y-64262000D03*
X83693000Y-61722000D03*
X86233000Y-64262000D03*
X86233000Y-61722000D03*
X88773000Y-64262000D03*
X88773000Y-61722000D03*
X91313000Y-64262000D03*
X91313000Y-61722000D03*
X93853000Y-64262000D03*
X93853000Y-61722000D03*
X96393000Y-64262000D03*
X96393000Y-61722000D03*
X98933000Y-64262000D03*
X98933000Y-61722000D03*
X101473000Y-64262000D03*
X101473000Y-61722000D03*
X104013000Y-64262000D03*
X104013000Y-61722000D03*
X106553000Y-64262000D03*
X106553000Y-61722000D03*
X109093000Y-64262000D03*
X109093000Y-61722000D03*
G04 #@! TD*
D22*
G04 #@! TO.C,D1*
X69088000Y-37211000D03*
D23*
X69088000Y-39751000D03*
G04 #@! TD*
D22*
G04 #@! TO.C,D13*
X108839000Y-44704000D03*
D24*
X101219000Y-44704000D03*
G04 #@! TD*
D17*
G04 #@! TO.C,C5*
X52578000Y-52197000D03*
D19*
X52578000Y-49697000D03*
G04 #@! TD*
D25*
G04 #@! TO.C,SW4*
X104303000Y-56807000D03*
X104303000Y-48857000D03*
X108803000Y-56807000D03*
X108803000Y-48857000D03*
G04 #@! TD*
D26*
G04 #@! TO.C,JP3*
X91328000Y-36830000D03*
D12*
G36*
X90778447Y-37829119D02*
X90730798Y-37814665D01*
X90686885Y-37791193D01*
X90648395Y-37759605D01*
X90616807Y-37721115D01*
X90593335Y-37677202D01*
X90578881Y-37629553D01*
X90574000Y-37580000D01*
X90574000Y-37384000D01*
X90428000Y-37384000D01*
X90378447Y-37379119D01*
X90330798Y-37364665D01*
X90286885Y-37341193D01*
X90248395Y-37309605D01*
X90216807Y-37271115D01*
X90193335Y-37227202D01*
X90178881Y-37179553D01*
X90174000Y-37130000D01*
X90174000Y-36530000D01*
X90178881Y-36480447D01*
X90193335Y-36432798D01*
X90216807Y-36388885D01*
X90248395Y-36350395D01*
X90286885Y-36318807D01*
X90330798Y-36295335D01*
X90378447Y-36280881D01*
X90428000Y-36276000D01*
X90574000Y-36276000D01*
X90574000Y-36080000D01*
X90578881Y-36030447D01*
X90593335Y-35982798D01*
X90616807Y-35938885D01*
X90648395Y-35900395D01*
X90686885Y-35868807D01*
X90730798Y-35845335D01*
X90778447Y-35830881D01*
X90828000Y-35826000D01*
X91328000Y-35826000D01*
X91334112Y-35826602D01*
X91352534Y-35826602D01*
X91377433Y-35827825D01*
X91426264Y-35832635D01*
X91450915Y-35836292D01*
X91499040Y-35845864D01*
X91523224Y-35851922D01*
X91570179Y-35866166D01*
X91593644Y-35874562D01*
X91638977Y-35893339D01*
X91661517Y-35903999D01*
X91704790Y-35927130D01*
X91726162Y-35939940D01*
X91766961Y-35967200D01*
X91786987Y-35982053D01*
X91824916Y-36013181D01*
X91843384Y-36029919D01*
X91878081Y-36064616D01*
X91894819Y-36083084D01*
X91925947Y-36121013D01*
X91940800Y-36141039D01*
X91968060Y-36181838D01*
X91980870Y-36203210D01*
X92004001Y-36246483D01*
X92014661Y-36269023D01*
X92033438Y-36314356D01*
X92041834Y-36337821D01*
X92056078Y-36384776D01*
X92062136Y-36408960D01*
X92071708Y-36457085D01*
X92075365Y-36481736D01*
X92080175Y-36530567D01*
X92081398Y-36555466D01*
X92081398Y-36573888D01*
X92082000Y-36580000D01*
X92082000Y-37080000D01*
X92081398Y-37086112D01*
X92081398Y-37104534D01*
X92080175Y-37129433D01*
X92075365Y-37178264D01*
X92071708Y-37202915D01*
X92062136Y-37251040D01*
X92056078Y-37275224D01*
X92041834Y-37322179D01*
X92033438Y-37345644D01*
X92014661Y-37390977D01*
X92004001Y-37413517D01*
X91980870Y-37456790D01*
X91968060Y-37478162D01*
X91940800Y-37518961D01*
X91925947Y-37538987D01*
X91894819Y-37576916D01*
X91878081Y-37595384D01*
X91843384Y-37630081D01*
X91824916Y-37646819D01*
X91786987Y-37677947D01*
X91766961Y-37692800D01*
X91726162Y-37720060D01*
X91704790Y-37732870D01*
X91661517Y-37756001D01*
X91638977Y-37766661D01*
X91593644Y-37785438D01*
X91570179Y-37793834D01*
X91523224Y-37808078D01*
X91499040Y-37814136D01*
X91450915Y-37823708D01*
X91426264Y-37827365D01*
X91377433Y-37832175D01*
X91352534Y-37833398D01*
X91334112Y-37833398D01*
X91328000Y-37834000D01*
X90828000Y-37834000D01*
X90778447Y-37829119D01*
X90778447Y-37829119D01*
G37*
D26*
X90028000Y-36830000D03*
D12*
G36*
X90021888Y-37833398D02*
X90003466Y-37833398D01*
X89978567Y-37832175D01*
X89929736Y-37827365D01*
X89905085Y-37823708D01*
X89856960Y-37814136D01*
X89832776Y-37808078D01*
X89785821Y-37793834D01*
X89762356Y-37785438D01*
X89717023Y-37766661D01*
X89694483Y-37756001D01*
X89651210Y-37732870D01*
X89629838Y-37720060D01*
X89589039Y-37692800D01*
X89569013Y-37677947D01*
X89531084Y-37646819D01*
X89512616Y-37630081D01*
X89477919Y-37595384D01*
X89461181Y-37576916D01*
X89430053Y-37538987D01*
X89415200Y-37518961D01*
X89387940Y-37478162D01*
X89375130Y-37456790D01*
X89351999Y-37413517D01*
X89341339Y-37390977D01*
X89322562Y-37345644D01*
X89314166Y-37322179D01*
X89299922Y-37275224D01*
X89293864Y-37251040D01*
X89284292Y-37202915D01*
X89280635Y-37178264D01*
X89275825Y-37129433D01*
X89274602Y-37104534D01*
X89274602Y-37086112D01*
X89274000Y-37080000D01*
X89274000Y-36580000D01*
X89274602Y-36573888D01*
X89274602Y-36555466D01*
X89275825Y-36530567D01*
X89280635Y-36481736D01*
X89284292Y-36457085D01*
X89293864Y-36408960D01*
X89299922Y-36384776D01*
X89314166Y-36337821D01*
X89322562Y-36314356D01*
X89341339Y-36269023D01*
X89351999Y-36246483D01*
X89375130Y-36203210D01*
X89387940Y-36181838D01*
X89415200Y-36141039D01*
X89430053Y-36121013D01*
X89461181Y-36083084D01*
X89477919Y-36064616D01*
X89512616Y-36029919D01*
X89531084Y-36013181D01*
X89569013Y-35982053D01*
X89589039Y-35967200D01*
X89629838Y-35939940D01*
X89651210Y-35927130D01*
X89694483Y-35903999D01*
X89717023Y-35893339D01*
X89762356Y-35874562D01*
X89785821Y-35866166D01*
X89832776Y-35851922D01*
X89856960Y-35845864D01*
X89905085Y-35836292D01*
X89929736Y-35832635D01*
X89978567Y-35827825D01*
X90003466Y-35826602D01*
X90021888Y-35826602D01*
X90028000Y-35826000D01*
X90528000Y-35826000D01*
X90577553Y-35830881D01*
X90625202Y-35845335D01*
X90669115Y-35868807D01*
X90707605Y-35900395D01*
X90739193Y-35938885D01*
X90762665Y-35982798D01*
X90777119Y-36030447D01*
X90782000Y-36080000D01*
X90782000Y-37580000D01*
X90777119Y-37629553D01*
X90762665Y-37677202D01*
X90739193Y-37721115D01*
X90707605Y-37759605D01*
X90669115Y-37791193D01*
X90625202Y-37814665D01*
X90577553Y-37829119D01*
X90528000Y-37834000D01*
X90028000Y-37834000D01*
X90021888Y-37833398D01*
X90021888Y-37833398D01*
G37*
G04 #@! TD*
D26*
G04 #@! TO.C,JP4*
X91328000Y-34544000D03*
D12*
G36*
X90778447Y-35543119D02*
X90730798Y-35528665D01*
X90686885Y-35505193D01*
X90648395Y-35473605D01*
X90616807Y-35435115D01*
X90593335Y-35391202D01*
X90578881Y-35343553D01*
X90574000Y-35294000D01*
X90574000Y-33794000D01*
X90578881Y-33744447D01*
X90593335Y-33696798D01*
X90616807Y-33652885D01*
X90648395Y-33614395D01*
X90686885Y-33582807D01*
X90730798Y-33559335D01*
X90778447Y-33544881D01*
X90828000Y-33540000D01*
X91328000Y-33540000D01*
X91334112Y-33540602D01*
X91352534Y-33540602D01*
X91377433Y-33541825D01*
X91426264Y-33546635D01*
X91450915Y-33550292D01*
X91499040Y-33559864D01*
X91523224Y-33565922D01*
X91570179Y-33580166D01*
X91593644Y-33588562D01*
X91638977Y-33607339D01*
X91661517Y-33617999D01*
X91704790Y-33641130D01*
X91726162Y-33653940D01*
X91766961Y-33681200D01*
X91786987Y-33696053D01*
X91824916Y-33727181D01*
X91843384Y-33743919D01*
X91878081Y-33778616D01*
X91894819Y-33797084D01*
X91925947Y-33835013D01*
X91940800Y-33855039D01*
X91968060Y-33895838D01*
X91980870Y-33917210D01*
X92004001Y-33960483D01*
X92014661Y-33983023D01*
X92033438Y-34028356D01*
X92041834Y-34051821D01*
X92056078Y-34098776D01*
X92062136Y-34122960D01*
X92071708Y-34171085D01*
X92075365Y-34195736D01*
X92080175Y-34244567D01*
X92081398Y-34269466D01*
X92081398Y-34287888D01*
X92082000Y-34294000D01*
X92082000Y-34794000D01*
X92081398Y-34800112D01*
X92081398Y-34818534D01*
X92080175Y-34843433D01*
X92075365Y-34892264D01*
X92071708Y-34916915D01*
X92062136Y-34965040D01*
X92056078Y-34989224D01*
X92041834Y-35036179D01*
X92033438Y-35059644D01*
X92014661Y-35104977D01*
X92004001Y-35127517D01*
X91980870Y-35170790D01*
X91968060Y-35192162D01*
X91940800Y-35232961D01*
X91925947Y-35252987D01*
X91894819Y-35290916D01*
X91878081Y-35309384D01*
X91843384Y-35344081D01*
X91824916Y-35360819D01*
X91786987Y-35391947D01*
X91766961Y-35406800D01*
X91726162Y-35434060D01*
X91704790Y-35446870D01*
X91661517Y-35470001D01*
X91638977Y-35480661D01*
X91593644Y-35499438D01*
X91570179Y-35507834D01*
X91523224Y-35522078D01*
X91499040Y-35528136D01*
X91450915Y-35537708D01*
X91426264Y-35541365D01*
X91377433Y-35546175D01*
X91352534Y-35547398D01*
X91334112Y-35547398D01*
X91328000Y-35548000D01*
X90828000Y-35548000D01*
X90778447Y-35543119D01*
X90778447Y-35543119D01*
G37*
D26*
X90028000Y-34544000D03*
D12*
G36*
X90021888Y-35547398D02*
X90003466Y-35547398D01*
X89978567Y-35546175D01*
X89929736Y-35541365D01*
X89905085Y-35537708D01*
X89856960Y-35528136D01*
X89832776Y-35522078D01*
X89785821Y-35507834D01*
X89762356Y-35499438D01*
X89717023Y-35480661D01*
X89694483Y-35470001D01*
X89651210Y-35446870D01*
X89629838Y-35434060D01*
X89589039Y-35406800D01*
X89569013Y-35391947D01*
X89531084Y-35360819D01*
X89512616Y-35344081D01*
X89477919Y-35309384D01*
X89461181Y-35290916D01*
X89430053Y-35252987D01*
X89415200Y-35232961D01*
X89387940Y-35192162D01*
X89375130Y-35170790D01*
X89351999Y-35127517D01*
X89341339Y-35104977D01*
X89322562Y-35059644D01*
X89314166Y-35036179D01*
X89299922Y-34989224D01*
X89293864Y-34965040D01*
X89284292Y-34916915D01*
X89280635Y-34892264D01*
X89275825Y-34843433D01*
X89274602Y-34818534D01*
X89274602Y-34800112D01*
X89274000Y-34794000D01*
X89274000Y-34294000D01*
X89274602Y-34287888D01*
X89274602Y-34269466D01*
X89275825Y-34244567D01*
X89280635Y-34195736D01*
X89284292Y-34171085D01*
X89293864Y-34122960D01*
X89299922Y-34098776D01*
X89314166Y-34051821D01*
X89322562Y-34028356D01*
X89341339Y-33983023D01*
X89351999Y-33960483D01*
X89375130Y-33917210D01*
X89387940Y-33895838D01*
X89415200Y-33855039D01*
X89430053Y-33835013D01*
X89461181Y-33797084D01*
X89477919Y-33778616D01*
X89512616Y-33743919D01*
X89531084Y-33727181D01*
X89569013Y-33696053D01*
X89589039Y-33681200D01*
X89629838Y-33653940D01*
X89651210Y-33641130D01*
X89694483Y-33617999D01*
X89717023Y-33607339D01*
X89762356Y-33588562D01*
X89785821Y-33580166D01*
X89832776Y-33565922D01*
X89856960Y-33559864D01*
X89905085Y-33550292D01*
X89929736Y-33546635D01*
X89978567Y-33541825D01*
X90003466Y-33540602D01*
X90021888Y-33540602D01*
X90028000Y-33540000D01*
X90528000Y-33540000D01*
X90577553Y-33544881D01*
X90625202Y-33559335D01*
X90669115Y-33582807D01*
X90707605Y-33614395D01*
X90739193Y-33652885D01*
X90762665Y-33696798D01*
X90777119Y-33744447D01*
X90782000Y-33794000D01*
X90782000Y-35294000D01*
X90777119Y-35343553D01*
X90762665Y-35391202D01*
X90739193Y-35435115D01*
X90707605Y-35473605D01*
X90669115Y-35505193D01*
X90625202Y-35528665D01*
X90577553Y-35543119D01*
X90528000Y-35548000D01*
X90028000Y-35548000D01*
X90021888Y-35547398D01*
X90021888Y-35547398D01*
G37*
G04 #@! TD*
M02*
