G04 (created by PCBNEW-RS274X (2011-07-08 BZR 3044)-stable) date 03/02/2013 11:15:01*
G01*
G70*
G90*
%MOIN*%
G04 Gerber Fmt 3.4, Leading zero omitted, Abs format*
%FSLAX34Y34*%
G04 APERTURE LIST*
%ADD10C,0.006000*%
%ADD11C,0.015000*%
%ADD12C,0.055000*%
%ADD13R,0.062000X0.090000*%
%ADD14O,0.062000X0.090000*%
%ADD15R,0.055000X0.055000*%
%ADD16R,0.090000X0.062000*%
%ADD17O,0.090000X0.062000*%
%ADD18O,0.118700X0.059300*%
%ADD19C,0.066000*%
%ADD20R,0.060000X0.060000*%
%ADD21C,0.060000*%
%ADD22C,0.035000*%
%ADD23C,0.008000*%
G04 APERTURE END LIST*
G54D10*
G54D11*
X07000Y-08100D02*
X07000Y-08000D01*
X34200Y-08100D02*
X07000Y-08100D01*
X34200Y-27700D02*
X34200Y-08100D01*
X07000Y-27700D02*
X34200Y-27700D01*
X07000Y-08100D02*
X07000Y-27700D01*
G54D12*
X16200Y-11900D03*
X16200Y-13900D03*
X17300Y-09900D03*
X17300Y-11900D03*
X24600Y-11800D03*
X24600Y-09800D03*
G54D13*
X08500Y-14400D03*
G54D14*
X09500Y-14400D03*
X10500Y-14400D03*
X11500Y-14400D03*
X12500Y-14400D03*
X13500Y-14400D03*
X14500Y-14400D03*
X14500Y-11400D03*
X13500Y-11400D03*
X12500Y-11400D03*
X11500Y-11400D03*
X10500Y-11400D03*
X09500Y-11400D03*
X08500Y-11400D03*
G54D12*
X25000Y-20500D03*
X25000Y-23500D03*
G54D15*
X33250Y-20050D03*
G54D12*
X33250Y-21050D03*
X33250Y-22050D03*
G54D15*
X33250Y-18650D03*
G54D12*
X33250Y-17650D03*
X33250Y-16650D03*
X16400Y-10300D03*
X13400Y-10300D03*
X12500Y-10100D03*
X09500Y-10100D03*
X30300Y-15500D03*
X33300Y-15500D03*
G54D16*
X19600Y-09900D03*
G54D17*
X19600Y-10900D03*
X19600Y-11900D03*
X22600Y-11900D03*
X22600Y-10900D03*
X22600Y-09900D03*
G54D16*
X27700Y-16700D03*
G54D17*
X27700Y-17700D03*
X27700Y-18700D03*
X27700Y-19700D03*
X27700Y-20700D03*
X27700Y-21700D03*
X27700Y-22700D03*
X30700Y-22700D03*
X30700Y-21700D03*
X30700Y-20700D03*
X30700Y-19700D03*
X30700Y-18700D03*
X30700Y-17700D03*
X30700Y-16700D03*
G54D15*
X09600Y-19200D03*
G54D12*
X08600Y-20200D03*
X09600Y-20200D03*
X08600Y-21200D03*
X09600Y-22200D03*
X09600Y-21200D03*
X10600Y-22200D03*
X10600Y-21200D03*
X11600Y-22200D03*
X11600Y-21200D03*
X12600Y-22200D03*
X12600Y-21200D03*
X13600Y-22200D03*
X14600Y-21200D03*
X13600Y-21200D03*
X14600Y-20200D03*
X13600Y-20200D03*
X14600Y-19200D03*
X13600Y-19200D03*
X14600Y-18200D03*
X13600Y-17200D03*
X13600Y-18200D03*
X12600Y-17200D03*
X12600Y-18200D03*
X11600Y-17200D03*
X11600Y-18200D03*
X10600Y-17200D03*
X10600Y-18200D03*
X09600Y-18200D03*
X08600Y-19200D03*
X09600Y-17200D03*
X08600Y-18200D03*
G54D13*
X32300Y-09800D03*
G54D14*
X31300Y-09800D03*
X30300Y-09800D03*
X29300Y-09800D03*
X28300Y-09800D03*
X27300Y-09800D03*
X26300Y-09800D03*
X26300Y-12800D03*
X27300Y-12800D03*
X28300Y-12800D03*
X29300Y-12800D03*
X30300Y-12800D03*
X31300Y-12800D03*
X32300Y-12800D03*
G54D16*
X21900Y-13700D03*
G54D17*
X21900Y-14700D03*
X21900Y-15700D03*
X21900Y-16700D03*
X21900Y-17700D03*
X21900Y-18700D03*
X21900Y-19700D03*
X24900Y-19700D03*
X24900Y-18700D03*
X24900Y-17700D03*
X24900Y-16700D03*
X24900Y-15700D03*
X24900Y-14700D03*
X24900Y-13700D03*
G54D16*
X17300Y-13700D03*
G54D17*
X17300Y-14700D03*
X17300Y-15700D03*
X17300Y-16700D03*
X17300Y-17700D03*
X17300Y-18700D03*
X17300Y-19700D03*
X17300Y-20700D03*
X17300Y-21700D03*
X17300Y-22700D03*
X20300Y-22700D03*
X20300Y-21700D03*
X20300Y-20700D03*
X20300Y-19700D03*
X20300Y-18700D03*
X20300Y-17700D03*
X20300Y-16700D03*
X20300Y-15700D03*
X20300Y-14700D03*
X20300Y-13700D03*
G54D18*
X32100Y-22800D03*
X32100Y-23800D03*
G54D19*
X14900Y-09500D03*
X13900Y-09500D03*
G54D12*
X31200Y-14300D03*
X28200Y-14300D03*
G54D20*
X08294Y-26531D03*
G54D21*
X08294Y-25531D03*
X09294Y-26531D03*
X09294Y-25531D03*
X10294Y-26531D03*
X10294Y-25531D03*
X11294Y-26531D03*
X11294Y-25531D03*
X12294Y-26531D03*
X12294Y-25531D03*
X13294Y-26531D03*
X13294Y-25531D03*
X14294Y-26531D03*
X14294Y-25531D03*
X15294Y-26531D03*
X15294Y-25531D03*
X16294Y-26531D03*
X16294Y-25531D03*
X17294Y-26531D03*
X17294Y-25531D03*
X18294Y-26531D03*
X18294Y-25531D03*
X19294Y-26531D03*
X19294Y-25531D03*
X20294Y-26531D03*
X20294Y-25531D03*
X21294Y-26531D03*
X21294Y-25531D03*
X22294Y-26531D03*
X22294Y-25531D03*
X23294Y-26531D03*
X23294Y-25531D03*
X24294Y-26531D03*
X24294Y-25531D03*
X25294Y-26531D03*
X25294Y-25531D03*
X26294Y-26531D03*
X26294Y-25531D03*
X27294Y-26531D03*
X27294Y-25531D03*
X28294Y-26531D03*
X28294Y-25531D03*
X29294Y-26531D03*
X29294Y-25531D03*
X30294Y-26531D03*
X30294Y-25531D03*
X31294Y-26531D03*
X31294Y-25531D03*
X32294Y-26531D03*
X32294Y-25531D03*
G54D20*
X22200Y-23200D03*
G54D21*
X22200Y-22200D03*
G54D15*
X26300Y-19800D03*
G54D12*
X26300Y-22800D03*
G54D15*
X32100Y-19600D03*
G54D12*
X32100Y-16600D03*
G54D15*
X26400Y-18000D03*
G54D12*
X26400Y-15000D03*
G54D22*
X11050Y-19250D03*
X23800Y-20400D03*
X23800Y-13800D03*
X20800Y-12500D03*
X22800Y-21300D03*
X16300Y-23700D03*
G54D11*
X16300Y-14600D02*
X16300Y-14600D01*
X22900Y-16700D02*
X22400Y-16200D01*
X22400Y-16200D02*
X20900Y-16200D01*
X24900Y-16700D02*
X22900Y-16700D01*
X13500Y-18200D02*
X13100Y-17800D01*
X13100Y-17800D02*
X13100Y-16800D01*
X13100Y-16800D02*
X14500Y-15400D01*
X14500Y-15400D02*
X15500Y-15400D01*
X15500Y-15400D02*
X16300Y-14600D01*
X13500Y-18200D02*
X13600Y-18200D01*
X19800Y-16200D02*
X20900Y-16200D01*
X17800Y-14200D02*
X19800Y-16200D01*
X16700Y-14200D02*
X17800Y-14200D01*
X16300Y-14600D02*
X16700Y-14200D01*
X11050Y-22750D02*
X11050Y-19250D01*
X11294Y-25531D02*
X11294Y-22994D01*
X11294Y-22994D02*
X11050Y-22750D01*
X11600Y-17200D02*
X11100Y-17700D01*
X11294Y-26531D02*
X11294Y-26506D01*
X12050Y-19450D02*
X12050Y-24150D01*
X11100Y-17800D02*
X11100Y-18500D01*
X11800Y-26000D02*
X11800Y-24400D01*
X11294Y-26506D02*
X11800Y-26000D01*
X11100Y-18500D02*
X12050Y-19450D01*
X11100Y-17700D02*
X11100Y-17800D01*
X12050Y-24150D02*
X11800Y-24400D01*
X10294Y-26531D02*
X10294Y-26506D01*
X10100Y-20700D02*
X10100Y-24300D01*
X10100Y-24300D02*
X10750Y-24950D01*
X10600Y-20200D02*
X10600Y-18200D01*
X10800Y-25000D02*
X10750Y-24950D01*
X10600Y-20200D02*
X10100Y-20700D01*
X10800Y-26000D02*
X10800Y-25000D01*
X10294Y-26506D02*
X10800Y-26000D01*
X22300Y-20800D02*
X22900Y-20800D01*
X23400Y-21300D02*
X26100Y-21300D01*
X19600Y-21600D02*
X19600Y-22700D01*
X22300Y-20800D02*
X21900Y-21200D01*
X19400Y-22900D02*
X19600Y-22700D01*
X22900Y-20800D02*
X23400Y-21300D01*
X26100Y-21300D02*
X26500Y-20900D01*
X21900Y-21200D02*
X20000Y-21200D01*
X20000Y-21200D02*
X19600Y-21600D01*
X27000Y-20400D02*
X26500Y-20900D01*
X27400Y-17700D02*
X27700Y-17700D01*
X27000Y-18100D02*
X27000Y-20400D01*
X27400Y-17700D02*
X27000Y-18100D01*
G54D23*
X19100Y-23200D02*
X15800Y-23200D01*
X19500Y-22800D02*
X19100Y-23200D01*
G54D11*
X09813Y-27050D02*
X09294Y-26531D01*
X19500Y-22800D02*
X19400Y-22900D01*
X13500Y-27050D02*
X13550Y-27050D01*
X13800Y-25200D02*
X13800Y-26800D01*
X15800Y-23200D02*
X13800Y-25200D01*
X19000Y-23200D02*
X15800Y-23200D01*
X19100Y-23200D02*
X19000Y-23200D01*
X19400Y-22900D02*
X19100Y-23200D01*
X13550Y-27050D02*
X13800Y-26800D01*
X13500Y-27050D02*
X09813Y-27050D01*
X13100Y-19800D02*
X13100Y-24200D01*
X12294Y-26506D02*
X12800Y-26000D01*
X12800Y-24500D02*
X13100Y-24200D01*
X12800Y-26000D02*
X12800Y-24500D01*
X12294Y-26531D02*
X12294Y-26506D01*
X12600Y-19300D02*
X13100Y-19800D01*
X11600Y-18200D02*
X12600Y-19300D01*
X27800Y-26000D02*
X28600Y-26000D01*
X27294Y-25531D02*
X27331Y-25531D01*
X30000Y-23500D02*
X31000Y-23500D01*
X28600Y-26000D02*
X28800Y-25800D01*
X31000Y-23500D02*
X31700Y-22800D01*
X28800Y-24700D02*
X30000Y-23500D01*
X28800Y-25800D02*
X28800Y-24700D01*
X27331Y-25531D02*
X27800Y-26000D01*
X31700Y-22800D02*
X32100Y-22800D01*
X19297Y-17003D02*
X19297Y-17000D01*
X19297Y-16197D02*
X19000Y-15900D01*
X17800Y-22200D02*
X13600Y-22200D01*
X17300Y-14700D02*
X17768Y-14700D01*
X19000Y-15932D02*
X17768Y-14700D01*
X19297Y-20803D02*
X19297Y-17003D01*
X19297Y-17000D02*
X19297Y-16197D01*
X17900Y-22200D02*
X19297Y-20803D01*
X19000Y-15900D02*
X19000Y-15932D01*
X17800Y-22200D02*
X17900Y-22200D01*
X17900Y-21100D02*
X18600Y-20400D01*
X17800Y-21200D02*
X17900Y-21100D01*
X17300Y-15700D02*
X18000Y-16400D01*
X18000Y-16400D02*
X18000Y-16400D01*
X18600Y-20400D02*
X18600Y-17000D01*
X14600Y-21200D02*
X17800Y-21200D01*
X18000Y-16400D02*
X18600Y-17000D01*
X16600Y-20200D02*
X16100Y-20700D01*
X18000Y-20200D02*
X18300Y-19900D01*
X18000Y-20200D02*
X16600Y-20200D01*
X17300Y-16700D02*
X17400Y-16700D01*
X14100Y-20700D02*
X13600Y-21200D01*
X17400Y-16700D02*
X18300Y-17600D01*
X16100Y-20700D02*
X14100Y-20700D01*
X18300Y-19900D02*
X18300Y-17600D01*
X18000Y-18000D02*
X18000Y-18900D01*
X14100Y-19700D02*
X13600Y-20200D01*
X18000Y-18900D02*
X17700Y-19200D01*
X17300Y-17700D02*
X17700Y-17700D01*
X17700Y-17700D02*
X18000Y-18000D01*
X16100Y-19700D02*
X14100Y-19700D01*
X17700Y-19200D02*
X16600Y-19200D01*
X16600Y-19200D02*
X16100Y-19700D01*
X17300Y-18700D02*
X15100Y-18700D01*
X15100Y-18700D02*
X14600Y-19200D01*
X19000Y-16400D02*
X18700Y-16100D01*
X16700Y-15200D02*
X16300Y-15600D01*
X18700Y-16100D02*
X18700Y-16100D01*
X16300Y-15600D02*
X14700Y-17200D01*
X17800Y-15200D02*
X16700Y-15200D01*
X18300Y-15700D02*
X18700Y-16100D01*
G54D23*
X16300Y-15600D02*
X16300Y-15600D01*
G54D11*
X13600Y-17200D02*
X14700Y-17200D01*
X17900Y-21700D02*
X19000Y-20600D01*
X17300Y-21700D02*
X17900Y-21700D01*
X17800Y-15200D02*
X18300Y-15700D01*
X19000Y-20600D02*
X19000Y-16400D01*
X22800Y-14200D02*
X23800Y-15200D01*
X21200Y-14200D02*
X22800Y-14200D01*
X31500Y-19900D02*
X31500Y-19300D01*
X31300Y-20100D02*
X31500Y-19900D01*
X31100Y-16100D02*
X30800Y-16100D01*
X20300Y-14700D02*
X20700Y-14700D01*
X25400Y-15200D02*
X26050Y-15850D01*
X23800Y-15200D02*
X24600Y-15200D01*
X31500Y-19300D02*
X31800Y-19000D01*
X29550Y-15850D02*
X26050Y-15850D01*
X29800Y-16100D02*
X29550Y-15850D01*
X30800Y-16100D02*
X29800Y-16100D01*
X31400Y-17000D02*
X31400Y-16400D01*
X31800Y-17400D02*
X31400Y-17000D01*
X31800Y-19000D02*
X31800Y-17400D01*
X31300Y-20100D02*
X31400Y-20000D01*
X31200Y-20200D02*
X30700Y-20700D01*
X31200Y-20200D02*
X31300Y-20100D01*
X20700Y-14700D02*
X21200Y-14200D01*
X09600Y-17100D02*
X11500Y-15200D01*
X09600Y-17200D02*
X09600Y-17100D01*
X11500Y-14400D02*
X11500Y-15200D01*
X24600Y-15200D02*
X25400Y-15200D01*
X31400Y-16400D02*
X31100Y-16100D01*
X30700Y-18700D02*
X30100Y-18700D01*
X29082Y-16182D02*
X28182Y-16182D01*
X29500Y-16600D02*
X29082Y-16182D01*
X29500Y-18100D02*
X29500Y-16600D01*
X30100Y-18700D02*
X29500Y-18100D01*
X21400Y-15200D02*
X23200Y-15200D01*
X20300Y-15700D02*
X20900Y-15700D01*
X24182Y-16182D02*
X28182Y-16182D01*
X20900Y-15700D02*
X21400Y-15200D01*
X23200Y-15200D02*
X24182Y-16182D01*
X20550Y-15750D02*
X20300Y-15700D01*
X09600Y-20200D02*
X09500Y-20200D01*
X10500Y-15600D02*
X09100Y-17000D01*
X09500Y-20200D02*
X09100Y-19800D01*
X09100Y-19800D02*
X09100Y-17000D01*
X10500Y-15600D02*
X11000Y-15100D01*
X11300Y-13700D02*
X11000Y-14000D01*
X11000Y-15100D02*
X11000Y-14000D01*
X12500Y-14000D02*
X12200Y-13700D01*
X12200Y-13700D02*
X11300Y-13700D01*
X12500Y-14400D02*
X12500Y-14000D01*
G54D23*
X10500Y-15600D02*
X10500Y-15600D01*
G54D11*
X25900Y-17600D02*
X26300Y-17200D01*
X20300Y-16700D02*
X20600Y-16700D01*
X31100Y-17700D02*
X31500Y-18100D01*
X26300Y-17200D02*
X28100Y-17200D01*
X28100Y-17200D02*
X28800Y-17900D01*
X31100Y-17700D02*
X30700Y-17700D01*
X30100Y-19200D02*
X28800Y-17900D01*
X31100Y-19200D02*
X30100Y-19200D01*
X31500Y-18800D02*
X31100Y-19200D01*
X31500Y-18100D02*
X31500Y-18800D01*
X25300Y-18200D02*
X25900Y-17600D01*
X24000Y-18200D02*
X25300Y-18200D01*
X23000Y-17200D02*
X24000Y-18200D01*
X21100Y-17200D02*
X23000Y-17200D01*
X20600Y-16700D02*
X21100Y-17200D01*
X08600Y-20200D02*
X08300Y-20200D01*
X08300Y-20200D02*
X07900Y-19800D01*
X07900Y-19800D02*
X07900Y-18000D01*
G54D23*
X30700Y-17700D02*
X30700Y-17700D01*
G54D11*
X08500Y-14400D02*
X07900Y-15000D01*
X07900Y-15000D02*
X07900Y-18000D01*
G54D23*
X07900Y-18500D02*
X07900Y-18700D01*
X07900Y-19800D02*
X07900Y-18500D01*
G54D11*
X30700Y-17700D02*
X30600Y-17700D01*
G54D23*
X07900Y-18000D02*
X07900Y-18500D01*
G54D11*
X08600Y-18200D02*
X08600Y-16400D01*
X09500Y-14400D02*
X09500Y-15500D01*
X21900Y-17700D02*
X20300Y-17700D01*
X08600Y-16400D02*
X09500Y-15500D01*
X20300Y-18700D02*
X21900Y-18700D01*
X20800Y-19200D02*
X20300Y-19700D01*
X23700Y-19200D02*
X20800Y-19200D01*
X24900Y-18700D02*
X24200Y-18700D01*
X24200Y-18700D02*
X23700Y-19200D01*
X21600Y-20400D02*
X23800Y-20400D01*
X20300Y-20700D02*
X21300Y-20700D01*
X21300Y-20700D02*
X21600Y-20400D01*
X21600Y-20400D02*
X21400Y-20600D01*
X21600Y-21700D02*
X21700Y-21600D01*
X20300Y-21700D02*
X21600Y-21700D01*
X23800Y-22800D02*
X26300Y-22800D01*
X22600Y-21600D02*
X23800Y-22800D01*
X21700Y-21600D02*
X22600Y-21600D01*
X32950Y-21050D02*
X32800Y-21200D01*
X27700Y-20700D02*
X29100Y-20700D01*
X29100Y-20700D02*
X29600Y-21200D01*
X33250Y-21050D02*
X32950Y-21050D01*
X29600Y-21200D02*
X30400Y-21200D01*
X30400Y-21200D02*
X32800Y-21200D01*
X25600Y-09500D02*
X26000Y-09100D01*
X26000Y-09100D02*
X28570Y-09100D01*
X22600Y-10900D02*
X24500Y-10900D01*
X28570Y-09100D02*
X28800Y-09330D01*
X25600Y-09800D02*
X25600Y-09500D01*
X29100Y-11000D02*
X30600Y-11000D01*
X28800Y-09330D02*
X28800Y-10700D01*
X24500Y-10900D02*
X25600Y-09800D01*
X30600Y-11000D02*
X31300Y-10300D01*
X28800Y-10700D02*
X29100Y-11000D01*
X31300Y-10300D02*
X31300Y-09800D01*
X25000Y-23500D02*
X26900Y-23500D01*
X26900Y-23500D02*
X27700Y-22700D01*
X22200Y-22200D02*
X22700Y-22200D01*
X24000Y-23500D02*
X25000Y-23500D01*
X22700Y-22200D02*
X24000Y-23500D01*
X17300Y-11900D02*
X19600Y-11900D01*
X14500Y-14400D02*
X15700Y-14400D01*
X15700Y-14400D02*
X16200Y-13900D01*
X19203Y-22700D02*
X17300Y-22700D01*
X19600Y-20900D02*
X19300Y-21200D01*
X19203Y-22700D02*
X19300Y-22603D01*
X19300Y-22603D02*
X19300Y-21200D01*
X21900Y-19700D02*
X21600Y-19700D01*
X21100Y-20200D02*
X19600Y-20200D01*
X21600Y-19700D02*
X21100Y-20200D01*
X28200Y-14300D02*
X28800Y-14300D01*
X26300Y-10600D02*
X26300Y-09800D01*
X27000Y-11300D02*
X26300Y-10600D01*
X29000Y-11300D02*
X27000Y-11300D01*
X29800Y-12100D02*
X29000Y-11300D01*
X29800Y-13300D02*
X29800Y-12100D01*
X28800Y-14300D02*
X29800Y-13300D01*
X26300Y-09800D02*
X26300Y-10000D01*
X17300Y-13700D02*
X17300Y-11900D01*
X19600Y-20200D02*
X19600Y-20900D01*
X23800Y-13800D02*
X23800Y-12400D01*
X23300Y-11900D02*
X22600Y-11900D01*
X23800Y-12400D02*
X23300Y-11900D01*
X24900Y-14700D02*
X25400Y-14700D01*
X26200Y-15500D02*
X27900Y-15500D01*
X25400Y-14700D02*
X26200Y-15500D01*
X28100Y-15500D02*
X27900Y-15500D01*
X30300Y-15500D02*
X28100Y-15500D01*
X24900Y-17700D02*
X25100Y-17700D01*
X25100Y-17700D02*
X26100Y-16700D01*
X26400Y-16700D02*
X26100Y-16700D01*
X26100Y-16700D02*
X25100Y-17700D01*
X27700Y-16700D02*
X26400Y-16700D01*
X26300Y-19800D02*
X25000Y-19800D01*
X25000Y-19800D02*
X24900Y-19700D01*
X26400Y-18000D02*
X26400Y-19700D01*
X26400Y-19700D02*
X26300Y-19800D01*
X25000Y-19800D02*
X24900Y-19700D01*
X25000Y-20500D02*
X25000Y-19800D01*
X29100Y-13500D02*
X29300Y-13300D01*
X29300Y-13300D02*
X29300Y-12800D01*
X27300Y-13300D02*
X27500Y-13500D01*
X27500Y-13500D02*
X29100Y-13500D01*
X27300Y-12800D02*
X27300Y-13300D01*
X32500Y-16000D02*
X31700Y-15200D01*
X31700Y-15200D02*
X31100Y-15200D01*
X33150Y-18650D02*
X32800Y-18300D01*
X33250Y-18650D02*
X33150Y-18650D01*
X29600Y-15100D02*
X29900Y-14800D01*
X27200Y-15100D02*
X29600Y-15100D01*
X26300Y-14200D02*
X27200Y-15100D01*
X26300Y-14200D02*
X25800Y-14200D01*
X30700Y-14800D02*
X31100Y-15200D01*
X29900Y-14800D02*
X30700Y-14800D01*
X32700Y-18200D02*
X32800Y-18300D01*
X32700Y-16200D02*
X32700Y-18200D01*
X32500Y-16000D02*
X32700Y-16200D01*
X23800Y-14200D02*
X23700Y-14200D01*
X20800Y-12500D02*
X21800Y-12500D01*
X21800Y-12500D02*
X22000Y-12500D01*
X24500Y-14200D02*
X25300Y-14200D01*
X24500Y-14200D02*
X23800Y-14200D01*
X25800Y-14200D02*
X25800Y-14200D01*
X25300Y-14200D02*
X25800Y-14200D01*
X22600Y-13100D02*
X22000Y-12500D01*
X22600Y-13100D02*
X22600Y-13100D01*
X23700Y-14200D02*
X22600Y-13100D01*
X13500Y-14400D02*
X13500Y-11400D01*
X22800Y-21300D02*
X22800Y-21300D01*
X28800Y-21200D02*
X29300Y-21700D01*
X26900Y-21200D02*
X28800Y-21200D01*
X26500Y-21600D02*
X26900Y-21200D01*
X23100Y-21600D02*
X26500Y-21600D01*
X22800Y-21300D02*
X23100Y-21600D01*
X29300Y-21700D02*
X30700Y-21700D01*
X13000Y-12000D02*
X13000Y-11000D01*
X12500Y-12500D02*
X13000Y-12000D01*
X16700Y-09800D02*
X15400Y-09800D01*
X17900Y-09400D02*
X17100Y-09400D01*
X18000Y-09400D02*
X18600Y-08800D01*
X28800Y-08800D02*
X18600Y-08800D01*
G54D23*
X13200Y-10800D02*
X14400Y-10800D01*
G54D11*
X11000Y-12500D02*
X12500Y-12500D01*
X10500Y-14400D02*
X10500Y-13000D01*
G54D23*
X10500Y-14000D02*
X10500Y-14400D01*
G54D11*
X14400Y-10800D02*
X15400Y-09800D01*
X29300Y-09300D02*
X28800Y-08800D01*
X29300Y-09800D02*
X29300Y-09300D01*
X17900Y-09400D02*
X18000Y-09400D01*
X17100Y-09400D02*
X16700Y-09800D01*
X10500Y-13000D02*
X11000Y-12500D01*
X13000Y-11000D02*
X13200Y-10800D01*
X09500Y-11400D02*
X09500Y-10100D01*
G54D23*
X09500Y-11400D02*
X09500Y-10700D01*
G54D11*
X13400Y-10300D02*
X14100Y-10300D01*
X14100Y-10300D02*
X14900Y-09500D01*
X12500Y-18200D02*
X12100Y-17800D01*
X22600Y-09900D02*
X21700Y-09900D01*
X21700Y-09900D02*
X21000Y-09200D01*
X21000Y-09200D02*
X18700Y-09200D01*
X18700Y-09200D02*
X16700Y-11200D01*
X16700Y-11200D02*
X16700Y-12200D01*
X16700Y-12200D02*
X16000Y-12900D01*
X27900Y-24700D02*
X17300Y-24700D01*
X17300Y-24700D02*
X16300Y-23700D01*
X28294Y-25094D02*
X28294Y-25531D01*
X12100Y-17800D02*
X12100Y-16900D01*
X28294Y-25094D02*
X27900Y-24700D01*
X14000Y-15000D02*
X14000Y-13600D01*
X14000Y-13600D02*
X14700Y-12900D01*
X14700Y-12900D02*
X16000Y-12900D01*
X12600Y-18200D02*
X12500Y-18200D01*
X12100Y-16900D02*
X14000Y-15000D01*
X27700Y-14800D02*
X29100Y-14800D01*
X27700Y-14800D02*
X26800Y-13900D01*
X26800Y-13900D02*
X26800Y-13600D01*
X26500Y-11800D02*
X26800Y-12100D01*
X26800Y-13600D02*
X26800Y-12100D01*
X31500Y-13600D02*
X32300Y-12800D01*
X30300Y-13600D02*
X31500Y-13600D01*
X29100Y-14800D02*
X30300Y-13600D01*
X22200Y-23200D02*
X22750Y-23200D01*
X33800Y-20600D02*
X33250Y-20050D01*
X33800Y-20800D02*
X33800Y-20600D01*
X22800Y-23200D02*
X23800Y-24200D01*
X23800Y-24200D02*
X27500Y-24200D01*
X22750Y-23200D02*
X22800Y-23200D01*
X29500Y-22200D02*
X27500Y-24200D01*
X33800Y-21200D02*
X33400Y-21600D01*
X33400Y-21600D02*
X31700Y-21600D01*
X31700Y-21600D02*
X31100Y-22200D01*
X31100Y-22200D02*
X29500Y-22200D01*
X33800Y-20800D02*
X33800Y-21200D01*
X24600Y-11800D02*
X24200Y-11400D01*
X24200Y-11400D02*
X20300Y-11400D01*
X20300Y-13700D02*
X20300Y-11400D01*
X20300Y-11400D02*
X20300Y-10600D01*
X20300Y-10600D02*
X19600Y-09900D01*
X24900Y-13700D02*
X24900Y-12100D01*
X24900Y-12100D02*
X24600Y-11800D01*
X16400Y-10300D02*
X16900Y-10300D01*
X16900Y-10300D02*
X17300Y-09900D01*
X16200Y-11900D02*
X16200Y-10500D01*
X16200Y-10500D02*
X16400Y-10300D01*
X24600Y-11800D02*
X26500Y-11800D01*
G54D23*
X25200Y-11800D02*
X26500Y-11800D01*
G54D11*
X32300Y-12800D02*
X32400Y-12800D01*
X33300Y-15500D02*
X33300Y-14800D01*
X32400Y-12800D02*
X33300Y-13700D01*
X33300Y-14800D02*
X33300Y-14700D01*
X33300Y-14700D02*
X33300Y-13700D01*
X33250Y-16650D02*
X33250Y-15550D01*
X33250Y-15550D02*
X33300Y-15500D01*
X33250Y-20050D02*
X33450Y-20050D01*
X33800Y-17200D02*
X33250Y-16650D01*
X33800Y-19700D02*
X33800Y-17200D01*
X33450Y-20050D02*
X33800Y-19700D01*
G54D23*
X33250Y-16650D02*
X33150Y-16650D01*
G54D11*
X31300Y-10900D02*
X31800Y-10400D01*
X10500Y-11400D02*
X10500Y-08900D01*
X31300Y-10900D02*
X31300Y-12800D01*
X10900Y-08500D02*
X10500Y-08900D01*
X31200Y-08500D02*
X10900Y-08500D01*
X31800Y-09100D02*
X31200Y-08500D01*
X31800Y-10400D02*
X31800Y-09100D01*
G54D23*
X31300Y-12800D02*
X31300Y-12200D01*
X10500Y-11400D02*
X10500Y-10900D01*
M02*
