M48
;DRILL file {KiCad 5.0.2+dfsg1-1} date sam. 23 janv. 2021 15:11:18 CET
;FORMAT={-:-/ absolute / inch / decimal}
FMAT,2
INCH,TZ
T1C0.0250
T2C0.0315
T3C0.0354
T4C0.0400
%
G90
G05
T1
X1.93Y-1.31
X2.28Y-1.41
X2.345Y-1.855
X2.345Y-1.955
X2.395Y-2.005
X2.445Y-2.005
X2.495Y-2.005
X2.545Y-2.005
X2.595Y-1.855
X2.645Y-2.005
X2.7Y-1.3
X2.7Y-1.89
X2.995Y-1.88
X2.995Y-1.98
X2.995Y-2.03
X2.995Y-2.08
X3.0775Y-1.6375
X3.16Y-1.6662
X3.165Y-1.605
X3.2481Y-1.7681
X3.29Y-1.18
X3.32Y-1.655
X3.38Y-2.05
X3.43Y-1.95
X3.43Y-2.
X3.43Y-2.05
X3.45Y-1.42
X3.46Y-1.355
X3.47Y-2.1
X3.53Y-1.71
X3.67Y-1.36
X3.72Y-1.18
X3.74Y-1.77
X3.805Y-1.45
X3.81Y-1.905
X3.85Y-1.71
X3.865Y-1.2825
X3.88Y-1.495
X3.88Y-1.605
X4.145Y-1.145
T2
X4.04Y-1.135
X4.04Y-1.235
X4.04Y-1.335
X4.04Y-1.435
X4.34Y-1.135
X4.34Y-1.235
X4.34Y-1.335
X4.34Y-1.435
X2.07Y-1.9566
X2.07Y-2.055
X2.87Y-1.3581
X2.87Y-1.4566
X2.87Y-1.555
X2.996Y-1.3581
X2.996Y-1.4566
X2.996Y-1.555
T3
X3.985Y-1.76
X4.285Y-1.76
X2.72Y-1.465
X2.72Y-1.565
T4
X1.895Y-2.43
X1.895Y-2.53
X1.995Y-2.43
X1.995Y-2.53
X2.095Y-2.43
X2.095Y-2.53
X2.195Y-2.43
X2.195Y-2.53
X2.295Y-2.43
X2.295Y-2.53
X2.395Y-2.43
X2.395Y-2.53
X2.495Y-2.43
X2.495Y-2.53
X2.595Y-2.43
X2.595Y-2.53
X2.695Y-2.43
X2.695Y-2.53
X2.795Y-2.43
X2.795Y-2.53
X2.895Y-2.43
X2.895Y-2.53
X2.995Y-2.43
X2.995Y-2.53
X3.095Y-2.43
X3.095Y-2.53
X3.195Y-2.43
X3.195Y-2.53
X3.295Y-2.43
X3.295Y-2.53
X3.395Y-2.43
X3.395Y-2.53
X3.495Y-2.43
X3.495Y-2.53
X3.595Y-2.43
X3.595Y-2.53
X3.695Y-2.43
X3.695Y-2.53
X3.795Y-2.43
X3.795Y-2.53
X3.895Y-2.43
X3.895Y-2.53
X3.995Y-2.43
X3.995Y-2.53
X4.095Y-2.43
X4.095Y-2.53
X4.195Y-2.43
X4.195Y-2.53
X4.295Y-2.43
X4.295Y-2.53
T0
M30
