M48
;DRILL file {PCBnew (2011-07-08 BZR 3044)-stable} date 03/02/2013 11:15:15
;FORMAT={-:-/ absolute / metric / decimal}
FMAT,2
METRIC,TZ
T1C0.635
T2C0.813
T3C0.914
T4C0.998
%
G90
G05
M71
T1
X28.067Y48.895
X41.402Y60.198
X52.832Y31.750
X57.912Y54.102
X60.452Y35.052
X60.452Y51.816
T2
X21.590Y28.956
X21.590Y36.576
X21.844Y46.228
X21.844Y48.768
X21.844Y51.308
X21.844Y53.848
X24.130Y25.654
X24.130Y28.956
X24.130Y36.576
X24.384Y43.688
X24.384Y46.228
X24.384Y48.768
X24.384Y51.308
X24.384Y53.848
X24.384Y56.388
X26.670Y28.956
X26.670Y36.576
X26.924Y43.688
X26.924Y46.228
X26.924Y53.848
X26.924Y56.388
X29.210Y28.956
X29.210Y36.576
X29.464Y43.688
X29.464Y46.228
X29.464Y53.848
X29.464Y56.388
X31.750Y25.654
X31.750Y28.956
X31.750Y36.576
X32.004Y43.688
X32.004Y46.228
X32.004Y53.848
X32.004Y56.388
X34.036Y26.162
X34.290Y28.956
X34.290Y36.576
X34.544Y43.688
X34.544Y46.228
X34.544Y48.768
X34.544Y51.308
X34.544Y53.848
X34.544Y56.388
X35.306Y24.130
X36.830Y28.956
X36.830Y36.576
X37.084Y46.228
X37.084Y48.768
X37.084Y51.308
X37.084Y53.848
X37.846Y24.130
X41.148Y30.226
X41.148Y35.306
X41.656Y26.162
X43.942Y25.146
X43.942Y30.226
X43.942Y34.798
X43.942Y37.338
X43.942Y39.878
X43.942Y42.418
X43.942Y44.958
X43.942Y47.498
X43.942Y50.038
X43.942Y52.578
X43.942Y55.118
X43.942Y57.658
X49.784Y25.146
X49.784Y27.686
X49.784Y30.226
X51.562Y34.798
X51.562Y37.338
X51.562Y39.878
X51.562Y42.418
X51.562Y44.958
X51.562Y47.498
X51.562Y50.038
X51.562Y52.578
X51.562Y55.118
X51.562Y57.658
X55.626Y34.798
X55.626Y37.338
X55.626Y39.878
X55.626Y42.418
X55.626Y44.958
X55.626Y47.498
X55.626Y50.038
X56.388Y56.388
X56.388Y58.928
X57.404Y25.146
X57.404Y27.686
X57.404Y30.226
X62.484Y24.892
X62.484Y29.972
X63.246Y34.798
X63.246Y37.338
X63.246Y39.878
X63.246Y42.418
X63.246Y44.958
X63.246Y47.498
X63.246Y50.038
X63.500Y52.070
X63.500Y59.690
X66.802Y24.892
X66.802Y32.512
X66.802Y50.292
X66.802Y57.912
X67.056Y38.100
X67.056Y45.720
X69.342Y24.892
X69.342Y32.512
X70.358Y42.418
X70.358Y44.958
X70.358Y47.498
X70.358Y50.038
X70.358Y52.578
X70.358Y55.118
X70.358Y57.658
X71.628Y36.322
X71.882Y24.892
X71.882Y32.512
X74.422Y24.892
X74.422Y32.512
X76.962Y24.892
X76.962Y32.512
X76.962Y39.370
X77.978Y42.418
X77.978Y44.958
X77.978Y47.498
X77.978Y50.038
X77.978Y52.578
X77.978Y55.118
X77.978Y57.658
X79.248Y36.322
X79.502Y24.892
X79.502Y32.512
X81.534Y42.164
X81.534Y49.784
X82.042Y24.892
X82.042Y32.512
X84.455Y42.291
X84.455Y44.831
X84.455Y47.371
X84.455Y50.927
X84.455Y53.467
X84.455Y56.007
X84.582Y39.370
T3
X21.067Y64.849
X21.067Y67.389
X23.607Y64.849
X23.607Y67.389
X26.147Y64.849
X26.147Y67.389
X28.687Y64.849
X28.687Y67.389
X31.227Y64.849
X31.227Y67.389
X33.767Y64.849
X33.767Y67.389
X36.307Y64.849
X36.307Y67.389
X38.847Y64.849
X38.847Y67.389
X41.387Y64.849
X41.387Y67.389
X43.927Y64.849
X43.927Y67.389
X46.467Y64.849
X46.467Y67.389
X49.007Y64.849
X49.007Y67.389
X51.547Y64.849
X51.547Y67.389
X54.087Y64.849
X54.087Y67.389
X56.627Y64.849
X56.627Y67.389
X59.167Y64.849
X59.167Y67.389
X61.707Y64.849
X61.707Y67.389
X64.247Y64.849
X64.247Y67.389
X66.787Y64.849
X66.787Y67.389
X69.327Y64.849
X69.327Y67.389
X71.867Y64.849
X71.867Y67.389
X74.407Y64.849
X74.407Y67.389
X76.947Y64.849
X76.947Y67.389
X79.487Y64.849
X79.487Y67.389
X82.027Y64.849
X82.027Y67.389
T4
X81.534Y57.912
X81.534Y60.452
T0
M30
