G04 #@! TF.GenerationSoftware,KiCad,Pcbnew,5.0.2+dfsg1-1*
G04 #@! TF.CreationDate,2021-01-23T15:11:15+01:00*
G04 #@! TF.ProjectId,ramcard,72616d63-6172-4642-9e6b-696361645f70,2021*
G04 #@! TF.SameCoordinates,Original*
G04 #@! TF.FileFunction,Copper,L1,Top*
G04 #@! TF.FilePolarity,Positive*
%FSLAX46Y46*%
G04 Gerber Fmt 4.6, Leading zero omitted, Abs format (unit mm)*
G04 Created by KiCad (PCBNEW 5.0.2+dfsg1-1) date sam. 23 janv. 2021 15:11:15 CET*
%MOMM*%
%LPD*%
G01*
G04 APERTURE LIST*
G04 #@! TA.AperFunction,NonConductor*
%ADD10C,0.381000*%
G04 #@! TD*
G04 #@! TA.AperFunction,Conductor*
%ADD11C,0.150000*%
G04 #@! TD*
G04 #@! TA.AperFunction,SMDPad,CuDef*
%ADD12C,0.600000*%
G04 #@! TD*
G04 #@! TA.AperFunction,ComponentPad*
%ADD13R,1.600000X1.600000*%
G04 #@! TD*
G04 #@! TA.AperFunction,ComponentPad*
%ADD14O,1.600000X1.600000*%
G04 #@! TD*
G04 #@! TA.AperFunction,ComponentPad*
%ADD15C,1.600000*%
G04 #@! TD*
G04 #@! TA.AperFunction,ComponentPad*
%ADD16R,1.727200X1.727200*%
G04 #@! TD*
G04 #@! TA.AperFunction,ComponentPad*
%ADD17O,1.727200X1.727200*%
G04 #@! TD*
G04 #@! TA.AperFunction,ComponentPad*
%ADD18R,1.800000X1.800000*%
G04 #@! TD*
G04 #@! TA.AperFunction,ComponentPad*
%ADD19C,1.800000*%
G04 #@! TD*
G04 #@! TA.AperFunction,ComponentPad*
%ADD20O,1.800000X1.800000*%
G04 #@! TD*
G04 #@! TA.AperFunction,SMDPad,CuDef*
%ADD21R,1.300000X1.550000*%
G04 #@! TD*
G04 #@! TA.AperFunction,SMDPad,CuDef*
%ADD22C,0.500000*%
G04 #@! TD*
G04 #@! TA.AperFunction,ViaPad*
%ADD23C,0.889000*%
G04 #@! TD*
G04 #@! TA.AperFunction,Conductor*
%ADD24C,0.381000*%
G04 #@! TD*
G04 #@! TA.AperFunction,Conductor*
%ADD25C,0.482600*%
G04 #@! TD*
G04 APERTURE END LIST*
D10*
X45593000Y-33782000D02*
X53213000Y-26162000D01*
X53213000Y-26162000D02*
X111633000Y-26162000D01*
X45593000Y-33782000D02*
X45593000Y-67437000D01*
X45593000Y-67437000D02*
X111633000Y-67437000D01*
X111633000Y-67437000D02*
X111633000Y-26162000D01*
D11*
G04 #@! TO.N,VCC*
G04 #@! TO.C,U6*
G36*
X58470203Y-49357722D02*
X58484764Y-49359882D01*
X58499043Y-49363459D01*
X58512903Y-49368418D01*
X58526210Y-49374712D01*
X58538836Y-49382280D01*
X58550659Y-49391048D01*
X58561566Y-49400934D01*
X58571452Y-49411841D01*
X58580220Y-49423664D01*
X58587788Y-49436290D01*
X58594082Y-49449597D01*
X58599041Y-49463457D01*
X58602618Y-49477736D01*
X58604778Y-49492297D01*
X58605500Y-49507000D01*
X58605500Y-49807000D01*
X58604778Y-49821703D01*
X58602618Y-49836264D01*
X58599041Y-49850543D01*
X58594082Y-49864403D01*
X58587788Y-49877710D01*
X58580220Y-49890336D01*
X58571452Y-49902159D01*
X58561566Y-49913066D01*
X58550659Y-49922952D01*
X58538836Y-49931720D01*
X58526210Y-49939288D01*
X58512903Y-49945582D01*
X58499043Y-49950541D01*
X58484764Y-49954118D01*
X58470203Y-49956278D01*
X58455500Y-49957000D01*
X57155500Y-49957000D01*
X57140797Y-49956278D01*
X57126236Y-49954118D01*
X57111957Y-49950541D01*
X57098097Y-49945582D01*
X57084790Y-49939288D01*
X57072164Y-49931720D01*
X57060341Y-49922952D01*
X57049434Y-49913066D01*
X57039548Y-49902159D01*
X57030780Y-49890336D01*
X57023212Y-49877710D01*
X57016918Y-49864403D01*
X57011959Y-49850543D01*
X57008382Y-49836264D01*
X57006222Y-49821703D01*
X57005500Y-49807000D01*
X57005500Y-49507000D01*
X57006222Y-49492297D01*
X57008382Y-49477736D01*
X57011959Y-49463457D01*
X57016918Y-49449597D01*
X57023212Y-49436290D01*
X57030780Y-49423664D01*
X57039548Y-49411841D01*
X57049434Y-49400934D01*
X57060341Y-49391048D01*
X57072164Y-49382280D01*
X57084790Y-49374712D01*
X57098097Y-49368418D01*
X57111957Y-49363459D01*
X57126236Y-49359882D01*
X57140797Y-49357722D01*
X57155500Y-49357000D01*
X58455500Y-49357000D01*
X58470203Y-49357722D01*
X58470203Y-49357722D01*
G37*
D12*
G04 #@! TD*
G04 #@! TO.P,U6,32*
G04 #@! TO.N,VCC*
X57805500Y-49657000D03*
D11*
G04 #@! TO.N,//WE*
G04 #@! TO.C,U6*
G36*
X58470203Y-48087722D02*
X58484764Y-48089882D01*
X58499043Y-48093459D01*
X58512903Y-48098418D01*
X58526210Y-48104712D01*
X58538836Y-48112280D01*
X58550659Y-48121048D01*
X58561566Y-48130934D01*
X58571452Y-48141841D01*
X58580220Y-48153664D01*
X58587788Y-48166290D01*
X58594082Y-48179597D01*
X58599041Y-48193457D01*
X58602618Y-48207736D01*
X58604778Y-48222297D01*
X58605500Y-48237000D01*
X58605500Y-48537000D01*
X58604778Y-48551703D01*
X58602618Y-48566264D01*
X58599041Y-48580543D01*
X58594082Y-48594403D01*
X58587788Y-48607710D01*
X58580220Y-48620336D01*
X58571452Y-48632159D01*
X58561566Y-48643066D01*
X58550659Y-48652952D01*
X58538836Y-48661720D01*
X58526210Y-48669288D01*
X58512903Y-48675582D01*
X58499043Y-48680541D01*
X58484764Y-48684118D01*
X58470203Y-48686278D01*
X58455500Y-48687000D01*
X57155500Y-48687000D01*
X57140797Y-48686278D01*
X57126236Y-48684118D01*
X57111957Y-48680541D01*
X57098097Y-48675582D01*
X57084790Y-48669288D01*
X57072164Y-48661720D01*
X57060341Y-48652952D01*
X57049434Y-48643066D01*
X57039548Y-48632159D01*
X57030780Y-48620336D01*
X57023212Y-48607710D01*
X57016918Y-48594403D01*
X57011959Y-48580543D01*
X57008382Y-48566264D01*
X57006222Y-48551703D01*
X57005500Y-48537000D01*
X57005500Y-48237000D01*
X57006222Y-48222297D01*
X57008382Y-48207736D01*
X57011959Y-48193457D01*
X57016918Y-48179597D01*
X57023212Y-48166290D01*
X57030780Y-48153664D01*
X57039548Y-48141841D01*
X57049434Y-48130934D01*
X57060341Y-48121048D01*
X57072164Y-48112280D01*
X57084790Y-48104712D01*
X57098097Y-48098418D01*
X57111957Y-48093459D01*
X57126236Y-48089882D01*
X57140797Y-48087722D01*
X57155500Y-48087000D01*
X58455500Y-48087000D01*
X58470203Y-48087722D01*
X58470203Y-48087722D01*
G37*
D12*
G04 #@! TD*
G04 #@! TO.P,U6,31*
G04 #@! TO.N,//WE*
X57805500Y-48387000D03*
D11*
G04 #@! TO.N,/Q3*
G04 #@! TO.C,U6*
G36*
X58470203Y-46817722D02*
X58484764Y-46819882D01*
X58499043Y-46823459D01*
X58512903Y-46828418D01*
X58526210Y-46834712D01*
X58538836Y-46842280D01*
X58550659Y-46851048D01*
X58561566Y-46860934D01*
X58571452Y-46871841D01*
X58580220Y-46883664D01*
X58587788Y-46896290D01*
X58594082Y-46909597D01*
X58599041Y-46923457D01*
X58602618Y-46937736D01*
X58604778Y-46952297D01*
X58605500Y-46967000D01*
X58605500Y-47267000D01*
X58604778Y-47281703D01*
X58602618Y-47296264D01*
X58599041Y-47310543D01*
X58594082Y-47324403D01*
X58587788Y-47337710D01*
X58580220Y-47350336D01*
X58571452Y-47362159D01*
X58561566Y-47373066D01*
X58550659Y-47382952D01*
X58538836Y-47391720D01*
X58526210Y-47399288D01*
X58512903Y-47405582D01*
X58499043Y-47410541D01*
X58484764Y-47414118D01*
X58470203Y-47416278D01*
X58455500Y-47417000D01*
X57155500Y-47417000D01*
X57140797Y-47416278D01*
X57126236Y-47414118D01*
X57111957Y-47410541D01*
X57098097Y-47405582D01*
X57084790Y-47399288D01*
X57072164Y-47391720D01*
X57060341Y-47382952D01*
X57049434Y-47373066D01*
X57039548Y-47362159D01*
X57030780Y-47350336D01*
X57023212Y-47337710D01*
X57016918Y-47324403D01*
X57011959Y-47310543D01*
X57008382Y-47296264D01*
X57006222Y-47281703D01*
X57005500Y-47267000D01*
X57005500Y-46967000D01*
X57006222Y-46952297D01*
X57008382Y-46937736D01*
X57011959Y-46923457D01*
X57016918Y-46909597D01*
X57023212Y-46896290D01*
X57030780Y-46883664D01*
X57039548Y-46871841D01*
X57049434Y-46860934D01*
X57060341Y-46851048D01*
X57072164Y-46842280D01*
X57084790Y-46834712D01*
X57098097Y-46828418D01*
X57111957Y-46823459D01*
X57126236Y-46819882D01*
X57140797Y-46817722D01*
X57155500Y-46817000D01*
X58455500Y-46817000D01*
X58470203Y-46817722D01*
X58470203Y-46817722D01*
G37*
D12*
G04 #@! TD*
G04 #@! TO.P,U6,30*
G04 #@! TO.N,/Q3*
X57805500Y-47117000D03*
D11*
G04 #@! TO.N,/Q0*
G04 #@! TO.C,U6*
G36*
X59727703Y-44565222D02*
X59742264Y-44567382D01*
X59756543Y-44570959D01*
X59770403Y-44575918D01*
X59783710Y-44582212D01*
X59796336Y-44589780D01*
X59808159Y-44598548D01*
X59819066Y-44608434D01*
X59828952Y-44619341D01*
X59837720Y-44631164D01*
X59845288Y-44643790D01*
X59851582Y-44657097D01*
X59856541Y-44670957D01*
X59860118Y-44685236D01*
X59862278Y-44699797D01*
X59863000Y-44714500D01*
X59863000Y-46014500D01*
X59862278Y-46029203D01*
X59860118Y-46043764D01*
X59856541Y-46058043D01*
X59851582Y-46071903D01*
X59845288Y-46085210D01*
X59837720Y-46097836D01*
X59828952Y-46109659D01*
X59819066Y-46120566D01*
X59808159Y-46130452D01*
X59796336Y-46139220D01*
X59783710Y-46146788D01*
X59770403Y-46153082D01*
X59756543Y-46158041D01*
X59742264Y-46161618D01*
X59727703Y-46163778D01*
X59713000Y-46164500D01*
X59413000Y-46164500D01*
X59398297Y-46163778D01*
X59383736Y-46161618D01*
X59369457Y-46158041D01*
X59355597Y-46153082D01*
X59342290Y-46146788D01*
X59329664Y-46139220D01*
X59317841Y-46130452D01*
X59306934Y-46120566D01*
X59297048Y-46109659D01*
X59288280Y-46097836D01*
X59280712Y-46085210D01*
X59274418Y-46071903D01*
X59269459Y-46058043D01*
X59265882Y-46043764D01*
X59263722Y-46029203D01*
X59263000Y-46014500D01*
X59263000Y-44714500D01*
X59263722Y-44699797D01*
X59265882Y-44685236D01*
X59269459Y-44670957D01*
X59274418Y-44657097D01*
X59280712Y-44643790D01*
X59288280Y-44631164D01*
X59297048Y-44619341D01*
X59306934Y-44608434D01*
X59317841Y-44598548D01*
X59329664Y-44589780D01*
X59342290Y-44582212D01*
X59355597Y-44575918D01*
X59369457Y-44570959D01*
X59383736Y-44567382D01*
X59398297Y-44565222D01*
X59413000Y-44564500D01*
X59713000Y-44564500D01*
X59727703Y-44565222D01*
X59727703Y-44565222D01*
G37*
D12*
G04 #@! TD*
G04 #@! TO.P,U6,29*
G04 #@! TO.N,/Q0*
X59563000Y-45364500D03*
D11*
G04 #@! TO.N,/A13*
G04 #@! TO.C,U6*
G36*
X60997703Y-44565222D02*
X61012264Y-44567382D01*
X61026543Y-44570959D01*
X61040403Y-44575918D01*
X61053710Y-44582212D01*
X61066336Y-44589780D01*
X61078159Y-44598548D01*
X61089066Y-44608434D01*
X61098952Y-44619341D01*
X61107720Y-44631164D01*
X61115288Y-44643790D01*
X61121582Y-44657097D01*
X61126541Y-44670957D01*
X61130118Y-44685236D01*
X61132278Y-44699797D01*
X61133000Y-44714500D01*
X61133000Y-46014500D01*
X61132278Y-46029203D01*
X61130118Y-46043764D01*
X61126541Y-46058043D01*
X61121582Y-46071903D01*
X61115288Y-46085210D01*
X61107720Y-46097836D01*
X61098952Y-46109659D01*
X61089066Y-46120566D01*
X61078159Y-46130452D01*
X61066336Y-46139220D01*
X61053710Y-46146788D01*
X61040403Y-46153082D01*
X61026543Y-46158041D01*
X61012264Y-46161618D01*
X60997703Y-46163778D01*
X60983000Y-46164500D01*
X60683000Y-46164500D01*
X60668297Y-46163778D01*
X60653736Y-46161618D01*
X60639457Y-46158041D01*
X60625597Y-46153082D01*
X60612290Y-46146788D01*
X60599664Y-46139220D01*
X60587841Y-46130452D01*
X60576934Y-46120566D01*
X60567048Y-46109659D01*
X60558280Y-46097836D01*
X60550712Y-46085210D01*
X60544418Y-46071903D01*
X60539459Y-46058043D01*
X60535882Y-46043764D01*
X60533722Y-46029203D01*
X60533000Y-46014500D01*
X60533000Y-44714500D01*
X60533722Y-44699797D01*
X60535882Y-44685236D01*
X60539459Y-44670957D01*
X60544418Y-44657097D01*
X60550712Y-44643790D01*
X60558280Y-44631164D01*
X60567048Y-44619341D01*
X60576934Y-44608434D01*
X60587841Y-44598548D01*
X60599664Y-44589780D01*
X60612290Y-44582212D01*
X60625597Y-44575918D01*
X60639457Y-44570959D01*
X60653736Y-44567382D01*
X60668297Y-44565222D01*
X60683000Y-44564500D01*
X60983000Y-44564500D01*
X60997703Y-44565222D01*
X60997703Y-44565222D01*
G37*
D12*
G04 #@! TD*
G04 #@! TO.P,U6,28*
G04 #@! TO.N,/A13*
X60833000Y-45364500D03*
D11*
G04 #@! TO.N,/A8*
G04 #@! TO.C,U6*
G36*
X62267703Y-44565222D02*
X62282264Y-44567382D01*
X62296543Y-44570959D01*
X62310403Y-44575918D01*
X62323710Y-44582212D01*
X62336336Y-44589780D01*
X62348159Y-44598548D01*
X62359066Y-44608434D01*
X62368952Y-44619341D01*
X62377720Y-44631164D01*
X62385288Y-44643790D01*
X62391582Y-44657097D01*
X62396541Y-44670957D01*
X62400118Y-44685236D01*
X62402278Y-44699797D01*
X62403000Y-44714500D01*
X62403000Y-46014500D01*
X62402278Y-46029203D01*
X62400118Y-46043764D01*
X62396541Y-46058043D01*
X62391582Y-46071903D01*
X62385288Y-46085210D01*
X62377720Y-46097836D01*
X62368952Y-46109659D01*
X62359066Y-46120566D01*
X62348159Y-46130452D01*
X62336336Y-46139220D01*
X62323710Y-46146788D01*
X62310403Y-46153082D01*
X62296543Y-46158041D01*
X62282264Y-46161618D01*
X62267703Y-46163778D01*
X62253000Y-46164500D01*
X61953000Y-46164500D01*
X61938297Y-46163778D01*
X61923736Y-46161618D01*
X61909457Y-46158041D01*
X61895597Y-46153082D01*
X61882290Y-46146788D01*
X61869664Y-46139220D01*
X61857841Y-46130452D01*
X61846934Y-46120566D01*
X61837048Y-46109659D01*
X61828280Y-46097836D01*
X61820712Y-46085210D01*
X61814418Y-46071903D01*
X61809459Y-46058043D01*
X61805882Y-46043764D01*
X61803722Y-46029203D01*
X61803000Y-46014500D01*
X61803000Y-44714500D01*
X61803722Y-44699797D01*
X61805882Y-44685236D01*
X61809459Y-44670957D01*
X61814418Y-44657097D01*
X61820712Y-44643790D01*
X61828280Y-44631164D01*
X61837048Y-44619341D01*
X61846934Y-44608434D01*
X61857841Y-44598548D01*
X61869664Y-44589780D01*
X61882290Y-44582212D01*
X61895597Y-44575918D01*
X61909457Y-44570959D01*
X61923736Y-44567382D01*
X61938297Y-44565222D01*
X61953000Y-44564500D01*
X62253000Y-44564500D01*
X62267703Y-44565222D01*
X62267703Y-44565222D01*
G37*
D12*
G04 #@! TD*
G04 #@! TO.P,U6,27*
G04 #@! TO.N,/A8*
X62103000Y-45364500D03*
D11*
G04 #@! TO.N,/A9*
G04 #@! TO.C,U6*
G36*
X63537703Y-44565222D02*
X63552264Y-44567382D01*
X63566543Y-44570959D01*
X63580403Y-44575918D01*
X63593710Y-44582212D01*
X63606336Y-44589780D01*
X63618159Y-44598548D01*
X63629066Y-44608434D01*
X63638952Y-44619341D01*
X63647720Y-44631164D01*
X63655288Y-44643790D01*
X63661582Y-44657097D01*
X63666541Y-44670957D01*
X63670118Y-44685236D01*
X63672278Y-44699797D01*
X63673000Y-44714500D01*
X63673000Y-46014500D01*
X63672278Y-46029203D01*
X63670118Y-46043764D01*
X63666541Y-46058043D01*
X63661582Y-46071903D01*
X63655288Y-46085210D01*
X63647720Y-46097836D01*
X63638952Y-46109659D01*
X63629066Y-46120566D01*
X63618159Y-46130452D01*
X63606336Y-46139220D01*
X63593710Y-46146788D01*
X63580403Y-46153082D01*
X63566543Y-46158041D01*
X63552264Y-46161618D01*
X63537703Y-46163778D01*
X63523000Y-46164500D01*
X63223000Y-46164500D01*
X63208297Y-46163778D01*
X63193736Y-46161618D01*
X63179457Y-46158041D01*
X63165597Y-46153082D01*
X63152290Y-46146788D01*
X63139664Y-46139220D01*
X63127841Y-46130452D01*
X63116934Y-46120566D01*
X63107048Y-46109659D01*
X63098280Y-46097836D01*
X63090712Y-46085210D01*
X63084418Y-46071903D01*
X63079459Y-46058043D01*
X63075882Y-46043764D01*
X63073722Y-46029203D01*
X63073000Y-46014500D01*
X63073000Y-44714500D01*
X63073722Y-44699797D01*
X63075882Y-44685236D01*
X63079459Y-44670957D01*
X63084418Y-44657097D01*
X63090712Y-44643790D01*
X63098280Y-44631164D01*
X63107048Y-44619341D01*
X63116934Y-44608434D01*
X63127841Y-44598548D01*
X63139664Y-44589780D01*
X63152290Y-44582212D01*
X63165597Y-44575918D01*
X63179457Y-44570959D01*
X63193736Y-44567382D01*
X63208297Y-44565222D01*
X63223000Y-44564500D01*
X63523000Y-44564500D01*
X63537703Y-44565222D01*
X63537703Y-44565222D01*
G37*
D12*
G04 #@! TD*
G04 #@! TO.P,U6,26*
G04 #@! TO.N,/A9*
X63373000Y-45364500D03*
D11*
G04 #@! TO.N,/A11*
G04 #@! TO.C,U6*
G36*
X64807703Y-44565222D02*
X64822264Y-44567382D01*
X64836543Y-44570959D01*
X64850403Y-44575918D01*
X64863710Y-44582212D01*
X64876336Y-44589780D01*
X64888159Y-44598548D01*
X64899066Y-44608434D01*
X64908952Y-44619341D01*
X64917720Y-44631164D01*
X64925288Y-44643790D01*
X64931582Y-44657097D01*
X64936541Y-44670957D01*
X64940118Y-44685236D01*
X64942278Y-44699797D01*
X64943000Y-44714500D01*
X64943000Y-46014500D01*
X64942278Y-46029203D01*
X64940118Y-46043764D01*
X64936541Y-46058043D01*
X64931582Y-46071903D01*
X64925288Y-46085210D01*
X64917720Y-46097836D01*
X64908952Y-46109659D01*
X64899066Y-46120566D01*
X64888159Y-46130452D01*
X64876336Y-46139220D01*
X64863710Y-46146788D01*
X64850403Y-46153082D01*
X64836543Y-46158041D01*
X64822264Y-46161618D01*
X64807703Y-46163778D01*
X64793000Y-46164500D01*
X64493000Y-46164500D01*
X64478297Y-46163778D01*
X64463736Y-46161618D01*
X64449457Y-46158041D01*
X64435597Y-46153082D01*
X64422290Y-46146788D01*
X64409664Y-46139220D01*
X64397841Y-46130452D01*
X64386934Y-46120566D01*
X64377048Y-46109659D01*
X64368280Y-46097836D01*
X64360712Y-46085210D01*
X64354418Y-46071903D01*
X64349459Y-46058043D01*
X64345882Y-46043764D01*
X64343722Y-46029203D01*
X64343000Y-46014500D01*
X64343000Y-44714500D01*
X64343722Y-44699797D01*
X64345882Y-44685236D01*
X64349459Y-44670957D01*
X64354418Y-44657097D01*
X64360712Y-44643790D01*
X64368280Y-44631164D01*
X64377048Y-44619341D01*
X64386934Y-44608434D01*
X64397841Y-44598548D01*
X64409664Y-44589780D01*
X64422290Y-44582212D01*
X64435597Y-44575918D01*
X64449457Y-44570959D01*
X64463736Y-44567382D01*
X64478297Y-44565222D01*
X64493000Y-44564500D01*
X64793000Y-44564500D01*
X64807703Y-44565222D01*
X64807703Y-44565222D01*
G37*
D12*
G04 #@! TD*
G04 #@! TO.P,U6,25*
G04 #@! TO.N,/A11*
X64643000Y-45364500D03*
D11*
G04 #@! TO.N,ROMEN*
G04 #@! TO.C,U6*
G36*
X66077703Y-44565222D02*
X66092264Y-44567382D01*
X66106543Y-44570959D01*
X66120403Y-44575918D01*
X66133710Y-44582212D01*
X66146336Y-44589780D01*
X66158159Y-44598548D01*
X66169066Y-44608434D01*
X66178952Y-44619341D01*
X66187720Y-44631164D01*
X66195288Y-44643790D01*
X66201582Y-44657097D01*
X66206541Y-44670957D01*
X66210118Y-44685236D01*
X66212278Y-44699797D01*
X66213000Y-44714500D01*
X66213000Y-46014500D01*
X66212278Y-46029203D01*
X66210118Y-46043764D01*
X66206541Y-46058043D01*
X66201582Y-46071903D01*
X66195288Y-46085210D01*
X66187720Y-46097836D01*
X66178952Y-46109659D01*
X66169066Y-46120566D01*
X66158159Y-46130452D01*
X66146336Y-46139220D01*
X66133710Y-46146788D01*
X66120403Y-46153082D01*
X66106543Y-46158041D01*
X66092264Y-46161618D01*
X66077703Y-46163778D01*
X66063000Y-46164500D01*
X65763000Y-46164500D01*
X65748297Y-46163778D01*
X65733736Y-46161618D01*
X65719457Y-46158041D01*
X65705597Y-46153082D01*
X65692290Y-46146788D01*
X65679664Y-46139220D01*
X65667841Y-46130452D01*
X65656934Y-46120566D01*
X65647048Y-46109659D01*
X65638280Y-46097836D01*
X65630712Y-46085210D01*
X65624418Y-46071903D01*
X65619459Y-46058043D01*
X65615882Y-46043764D01*
X65613722Y-46029203D01*
X65613000Y-46014500D01*
X65613000Y-44714500D01*
X65613722Y-44699797D01*
X65615882Y-44685236D01*
X65619459Y-44670957D01*
X65624418Y-44657097D01*
X65630712Y-44643790D01*
X65638280Y-44631164D01*
X65647048Y-44619341D01*
X65656934Y-44608434D01*
X65667841Y-44598548D01*
X65679664Y-44589780D01*
X65692290Y-44582212D01*
X65705597Y-44575918D01*
X65719457Y-44570959D01*
X65733736Y-44567382D01*
X65748297Y-44565222D01*
X65763000Y-44564500D01*
X66063000Y-44564500D01*
X66077703Y-44565222D01*
X66077703Y-44565222D01*
G37*
D12*
G04 #@! TD*
G04 #@! TO.P,U6,24*
G04 #@! TO.N,ROMEN*
X65913000Y-45364500D03*
D11*
G04 #@! TO.N,/A10*
G04 #@! TO.C,U6*
G36*
X67347703Y-44565222D02*
X67362264Y-44567382D01*
X67376543Y-44570959D01*
X67390403Y-44575918D01*
X67403710Y-44582212D01*
X67416336Y-44589780D01*
X67428159Y-44598548D01*
X67439066Y-44608434D01*
X67448952Y-44619341D01*
X67457720Y-44631164D01*
X67465288Y-44643790D01*
X67471582Y-44657097D01*
X67476541Y-44670957D01*
X67480118Y-44685236D01*
X67482278Y-44699797D01*
X67483000Y-44714500D01*
X67483000Y-46014500D01*
X67482278Y-46029203D01*
X67480118Y-46043764D01*
X67476541Y-46058043D01*
X67471582Y-46071903D01*
X67465288Y-46085210D01*
X67457720Y-46097836D01*
X67448952Y-46109659D01*
X67439066Y-46120566D01*
X67428159Y-46130452D01*
X67416336Y-46139220D01*
X67403710Y-46146788D01*
X67390403Y-46153082D01*
X67376543Y-46158041D01*
X67362264Y-46161618D01*
X67347703Y-46163778D01*
X67333000Y-46164500D01*
X67033000Y-46164500D01*
X67018297Y-46163778D01*
X67003736Y-46161618D01*
X66989457Y-46158041D01*
X66975597Y-46153082D01*
X66962290Y-46146788D01*
X66949664Y-46139220D01*
X66937841Y-46130452D01*
X66926934Y-46120566D01*
X66917048Y-46109659D01*
X66908280Y-46097836D01*
X66900712Y-46085210D01*
X66894418Y-46071903D01*
X66889459Y-46058043D01*
X66885882Y-46043764D01*
X66883722Y-46029203D01*
X66883000Y-46014500D01*
X66883000Y-44714500D01*
X66883722Y-44699797D01*
X66885882Y-44685236D01*
X66889459Y-44670957D01*
X66894418Y-44657097D01*
X66900712Y-44643790D01*
X66908280Y-44631164D01*
X66917048Y-44619341D01*
X66926934Y-44608434D01*
X66937841Y-44598548D01*
X66949664Y-44589780D01*
X66962290Y-44582212D01*
X66975597Y-44575918D01*
X66989457Y-44570959D01*
X67003736Y-44567382D01*
X67018297Y-44565222D01*
X67033000Y-44564500D01*
X67333000Y-44564500D01*
X67347703Y-44565222D01*
X67347703Y-44565222D01*
G37*
D12*
G04 #@! TD*
G04 #@! TO.P,U6,23*
G04 #@! TO.N,/A10*
X67183000Y-45364500D03*
D11*
G04 #@! TO.N,//CE*
G04 #@! TO.C,U6*
G36*
X68617703Y-44565222D02*
X68632264Y-44567382D01*
X68646543Y-44570959D01*
X68660403Y-44575918D01*
X68673710Y-44582212D01*
X68686336Y-44589780D01*
X68698159Y-44598548D01*
X68709066Y-44608434D01*
X68718952Y-44619341D01*
X68727720Y-44631164D01*
X68735288Y-44643790D01*
X68741582Y-44657097D01*
X68746541Y-44670957D01*
X68750118Y-44685236D01*
X68752278Y-44699797D01*
X68753000Y-44714500D01*
X68753000Y-46014500D01*
X68752278Y-46029203D01*
X68750118Y-46043764D01*
X68746541Y-46058043D01*
X68741582Y-46071903D01*
X68735288Y-46085210D01*
X68727720Y-46097836D01*
X68718952Y-46109659D01*
X68709066Y-46120566D01*
X68698159Y-46130452D01*
X68686336Y-46139220D01*
X68673710Y-46146788D01*
X68660403Y-46153082D01*
X68646543Y-46158041D01*
X68632264Y-46161618D01*
X68617703Y-46163778D01*
X68603000Y-46164500D01*
X68303000Y-46164500D01*
X68288297Y-46163778D01*
X68273736Y-46161618D01*
X68259457Y-46158041D01*
X68245597Y-46153082D01*
X68232290Y-46146788D01*
X68219664Y-46139220D01*
X68207841Y-46130452D01*
X68196934Y-46120566D01*
X68187048Y-46109659D01*
X68178280Y-46097836D01*
X68170712Y-46085210D01*
X68164418Y-46071903D01*
X68159459Y-46058043D01*
X68155882Y-46043764D01*
X68153722Y-46029203D01*
X68153000Y-46014500D01*
X68153000Y-44714500D01*
X68153722Y-44699797D01*
X68155882Y-44685236D01*
X68159459Y-44670957D01*
X68164418Y-44657097D01*
X68170712Y-44643790D01*
X68178280Y-44631164D01*
X68187048Y-44619341D01*
X68196934Y-44608434D01*
X68207841Y-44598548D01*
X68219664Y-44589780D01*
X68232290Y-44582212D01*
X68245597Y-44575918D01*
X68259457Y-44570959D01*
X68273736Y-44567382D01*
X68288297Y-44565222D01*
X68303000Y-44564500D01*
X68603000Y-44564500D01*
X68617703Y-44565222D01*
X68617703Y-44565222D01*
G37*
D12*
G04 #@! TD*
G04 #@! TO.P,U6,22*
G04 #@! TO.N,//CE*
X68453000Y-45364500D03*
D11*
G04 #@! TO.N,/D7*
G04 #@! TO.C,U6*
G36*
X69887703Y-44565222D02*
X69902264Y-44567382D01*
X69916543Y-44570959D01*
X69930403Y-44575918D01*
X69943710Y-44582212D01*
X69956336Y-44589780D01*
X69968159Y-44598548D01*
X69979066Y-44608434D01*
X69988952Y-44619341D01*
X69997720Y-44631164D01*
X70005288Y-44643790D01*
X70011582Y-44657097D01*
X70016541Y-44670957D01*
X70020118Y-44685236D01*
X70022278Y-44699797D01*
X70023000Y-44714500D01*
X70023000Y-46014500D01*
X70022278Y-46029203D01*
X70020118Y-46043764D01*
X70016541Y-46058043D01*
X70011582Y-46071903D01*
X70005288Y-46085210D01*
X69997720Y-46097836D01*
X69988952Y-46109659D01*
X69979066Y-46120566D01*
X69968159Y-46130452D01*
X69956336Y-46139220D01*
X69943710Y-46146788D01*
X69930403Y-46153082D01*
X69916543Y-46158041D01*
X69902264Y-46161618D01*
X69887703Y-46163778D01*
X69873000Y-46164500D01*
X69573000Y-46164500D01*
X69558297Y-46163778D01*
X69543736Y-46161618D01*
X69529457Y-46158041D01*
X69515597Y-46153082D01*
X69502290Y-46146788D01*
X69489664Y-46139220D01*
X69477841Y-46130452D01*
X69466934Y-46120566D01*
X69457048Y-46109659D01*
X69448280Y-46097836D01*
X69440712Y-46085210D01*
X69434418Y-46071903D01*
X69429459Y-46058043D01*
X69425882Y-46043764D01*
X69423722Y-46029203D01*
X69423000Y-46014500D01*
X69423000Y-44714500D01*
X69423722Y-44699797D01*
X69425882Y-44685236D01*
X69429459Y-44670957D01*
X69434418Y-44657097D01*
X69440712Y-44643790D01*
X69448280Y-44631164D01*
X69457048Y-44619341D01*
X69466934Y-44608434D01*
X69477841Y-44598548D01*
X69489664Y-44589780D01*
X69502290Y-44582212D01*
X69515597Y-44575918D01*
X69529457Y-44570959D01*
X69543736Y-44567382D01*
X69558297Y-44565222D01*
X69573000Y-44564500D01*
X69873000Y-44564500D01*
X69887703Y-44565222D01*
X69887703Y-44565222D01*
G37*
D12*
G04 #@! TD*
G04 #@! TO.P,U6,21*
G04 #@! TO.N,/D7*
X69723000Y-45364500D03*
D11*
G04 #@! TO.N,/D6*
G04 #@! TO.C,U6*
G36*
X72145203Y-46817722D02*
X72159764Y-46819882D01*
X72174043Y-46823459D01*
X72187903Y-46828418D01*
X72201210Y-46834712D01*
X72213836Y-46842280D01*
X72225659Y-46851048D01*
X72236566Y-46860934D01*
X72246452Y-46871841D01*
X72255220Y-46883664D01*
X72262788Y-46896290D01*
X72269082Y-46909597D01*
X72274041Y-46923457D01*
X72277618Y-46937736D01*
X72279778Y-46952297D01*
X72280500Y-46967000D01*
X72280500Y-47267000D01*
X72279778Y-47281703D01*
X72277618Y-47296264D01*
X72274041Y-47310543D01*
X72269082Y-47324403D01*
X72262788Y-47337710D01*
X72255220Y-47350336D01*
X72246452Y-47362159D01*
X72236566Y-47373066D01*
X72225659Y-47382952D01*
X72213836Y-47391720D01*
X72201210Y-47399288D01*
X72187903Y-47405582D01*
X72174043Y-47410541D01*
X72159764Y-47414118D01*
X72145203Y-47416278D01*
X72130500Y-47417000D01*
X70830500Y-47417000D01*
X70815797Y-47416278D01*
X70801236Y-47414118D01*
X70786957Y-47410541D01*
X70773097Y-47405582D01*
X70759790Y-47399288D01*
X70747164Y-47391720D01*
X70735341Y-47382952D01*
X70724434Y-47373066D01*
X70714548Y-47362159D01*
X70705780Y-47350336D01*
X70698212Y-47337710D01*
X70691918Y-47324403D01*
X70686959Y-47310543D01*
X70683382Y-47296264D01*
X70681222Y-47281703D01*
X70680500Y-47267000D01*
X70680500Y-46967000D01*
X70681222Y-46952297D01*
X70683382Y-46937736D01*
X70686959Y-46923457D01*
X70691918Y-46909597D01*
X70698212Y-46896290D01*
X70705780Y-46883664D01*
X70714548Y-46871841D01*
X70724434Y-46860934D01*
X70735341Y-46851048D01*
X70747164Y-46842280D01*
X70759790Y-46834712D01*
X70773097Y-46828418D01*
X70786957Y-46823459D01*
X70801236Y-46819882D01*
X70815797Y-46817722D01*
X70830500Y-46817000D01*
X72130500Y-46817000D01*
X72145203Y-46817722D01*
X72145203Y-46817722D01*
G37*
D12*
G04 #@! TD*
G04 #@! TO.P,U6,20*
G04 #@! TO.N,/D6*
X71480500Y-47117000D03*
D11*
G04 #@! TO.N,/D5*
G04 #@! TO.C,U6*
G36*
X72145203Y-48087722D02*
X72159764Y-48089882D01*
X72174043Y-48093459D01*
X72187903Y-48098418D01*
X72201210Y-48104712D01*
X72213836Y-48112280D01*
X72225659Y-48121048D01*
X72236566Y-48130934D01*
X72246452Y-48141841D01*
X72255220Y-48153664D01*
X72262788Y-48166290D01*
X72269082Y-48179597D01*
X72274041Y-48193457D01*
X72277618Y-48207736D01*
X72279778Y-48222297D01*
X72280500Y-48237000D01*
X72280500Y-48537000D01*
X72279778Y-48551703D01*
X72277618Y-48566264D01*
X72274041Y-48580543D01*
X72269082Y-48594403D01*
X72262788Y-48607710D01*
X72255220Y-48620336D01*
X72246452Y-48632159D01*
X72236566Y-48643066D01*
X72225659Y-48652952D01*
X72213836Y-48661720D01*
X72201210Y-48669288D01*
X72187903Y-48675582D01*
X72174043Y-48680541D01*
X72159764Y-48684118D01*
X72145203Y-48686278D01*
X72130500Y-48687000D01*
X70830500Y-48687000D01*
X70815797Y-48686278D01*
X70801236Y-48684118D01*
X70786957Y-48680541D01*
X70773097Y-48675582D01*
X70759790Y-48669288D01*
X70747164Y-48661720D01*
X70735341Y-48652952D01*
X70724434Y-48643066D01*
X70714548Y-48632159D01*
X70705780Y-48620336D01*
X70698212Y-48607710D01*
X70691918Y-48594403D01*
X70686959Y-48580543D01*
X70683382Y-48566264D01*
X70681222Y-48551703D01*
X70680500Y-48537000D01*
X70680500Y-48237000D01*
X70681222Y-48222297D01*
X70683382Y-48207736D01*
X70686959Y-48193457D01*
X70691918Y-48179597D01*
X70698212Y-48166290D01*
X70705780Y-48153664D01*
X70714548Y-48141841D01*
X70724434Y-48130934D01*
X70735341Y-48121048D01*
X70747164Y-48112280D01*
X70759790Y-48104712D01*
X70773097Y-48098418D01*
X70786957Y-48093459D01*
X70801236Y-48089882D01*
X70815797Y-48087722D01*
X70830500Y-48087000D01*
X72130500Y-48087000D01*
X72145203Y-48087722D01*
X72145203Y-48087722D01*
G37*
D12*
G04 #@! TD*
G04 #@! TO.P,U6,19*
G04 #@! TO.N,/D5*
X71480500Y-48387000D03*
D11*
G04 #@! TO.N,/D4*
G04 #@! TO.C,U6*
G36*
X72145203Y-49357722D02*
X72159764Y-49359882D01*
X72174043Y-49363459D01*
X72187903Y-49368418D01*
X72201210Y-49374712D01*
X72213836Y-49382280D01*
X72225659Y-49391048D01*
X72236566Y-49400934D01*
X72246452Y-49411841D01*
X72255220Y-49423664D01*
X72262788Y-49436290D01*
X72269082Y-49449597D01*
X72274041Y-49463457D01*
X72277618Y-49477736D01*
X72279778Y-49492297D01*
X72280500Y-49507000D01*
X72280500Y-49807000D01*
X72279778Y-49821703D01*
X72277618Y-49836264D01*
X72274041Y-49850543D01*
X72269082Y-49864403D01*
X72262788Y-49877710D01*
X72255220Y-49890336D01*
X72246452Y-49902159D01*
X72236566Y-49913066D01*
X72225659Y-49922952D01*
X72213836Y-49931720D01*
X72201210Y-49939288D01*
X72187903Y-49945582D01*
X72174043Y-49950541D01*
X72159764Y-49954118D01*
X72145203Y-49956278D01*
X72130500Y-49957000D01*
X70830500Y-49957000D01*
X70815797Y-49956278D01*
X70801236Y-49954118D01*
X70786957Y-49950541D01*
X70773097Y-49945582D01*
X70759790Y-49939288D01*
X70747164Y-49931720D01*
X70735341Y-49922952D01*
X70724434Y-49913066D01*
X70714548Y-49902159D01*
X70705780Y-49890336D01*
X70698212Y-49877710D01*
X70691918Y-49864403D01*
X70686959Y-49850543D01*
X70683382Y-49836264D01*
X70681222Y-49821703D01*
X70680500Y-49807000D01*
X70680500Y-49507000D01*
X70681222Y-49492297D01*
X70683382Y-49477736D01*
X70686959Y-49463457D01*
X70691918Y-49449597D01*
X70698212Y-49436290D01*
X70705780Y-49423664D01*
X70714548Y-49411841D01*
X70724434Y-49400934D01*
X70735341Y-49391048D01*
X70747164Y-49382280D01*
X70759790Y-49374712D01*
X70773097Y-49368418D01*
X70786957Y-49363459D01*
X70801236Y-49359882D01*
X70815797Y-49357722D01*
X70830500Y-49357000D01*
X72130500Y-49357000D01*
X72145203Y-49357722D01*
X72145203Y-49357722D01*
G37*
D12*
G04 #@! TD*
G04 #@! TO.P,U6,18*
G04 #@! TO.N,/D4*
X71480500Y-49657000D03*
D11*
G04 #@! TO.N,/D3*
G04 #@! TO.C,U6*
G36*
X72145203Y-50627722D02*
X72159764Y-50629882D01*
X72174043Y-50633459D01*
X72187903Y-50638418D01*
X72201210Y-50644712D01*
X72213836Y-50652280D01*
X72225659Y-50661048D01*
X72236566Y-50670934D01*
X72246452Y-50681841D01*
X72255220Y-50693664D01*
X72262788Y-50706290D01*
X72269082Y-50719597D01*
X72274041Y-50733457D01*
X72277618Y-50747736D01*
X72279778Y-50762297D01*
X72280500Y-50777000D01*
X72280500Y-51077000D01*
X72279778Y-51091703D01*
X72277618Y-51106264D01*
X72274041Y-51120543D01*
X72269082Y-51134403D01*
X72262788Y-51147710D01*
X72255220Y-51160336D01*
X72246452Y-51172159D01*
X72236566Y-51183066D01*
X72225659Y-51192952D01*
X72213836Y-51201720D01*
X72201210Y-51209288D01*
X72187903Y-51215582D01*
X72174043Y-51220541D01*
X72159764Y-51224118D01*
X72145203Y-51226278D01*
X72130500Y-51227000D01*
X70830500Y-51227000D01*
X70815797Y-51226278D01*
X70801236Y-51224118D01*
X70786957Y-51220541D01*
X70773097Y-51215582D01*
X70759790Y-51209288D01*
X70747164Y-51201720D01*
X70735341Y-51192952D01*
X70724434Y-51183066D01*
X70714548Y-51172159D01*
X70705780Y-51160336D01*
X70698212Y-51147710D01*
X70691918Y-51134403D01*
X70686959Y-51120543D01*
X70683382Y-51106264D01*
X70681222Y-51091703D01*
X70680500Y-51077000D01*
X70680500Y-50777000D01*
X70681222Y-50762297D01*
X70683382Y-50747736D01*
X70686959Y-50733457D01*
X70691918Y-50719597D01*
X70698212Y-50706290D01*
X70705780Y-50693664D01*
X70714548Y-50681841D01*
X70724434Y-50670934D01*
X70735341Y-50661048D01*
X70747164Y-50652280D01*
X70759790Y-50644712D01*
X70773097Y-50638418D01*
X70786957Y-50633459D01*
X70801236Y-50629882D01*
X70815797Y-50627722D01*
X70830500Y-50627000D01*
X72130500Y-50627000D01*
X72145203Y-50627722D01*
X72145203Y-50627722D01*
G37*
D12*
G04 #@! TD*
G04 #@! TO.P,U6,17*
G04 #@! TO.N,/D3*
X71480500Y-50927000D03*
D11*
G04 #@! TO.N,GND*
G04 #@! TO.C,U6*
G36*
X72145203Y-51897722D02*
X72159764Y-51899882D01*
X72174043Y-51903459D01*
X72187903Y-51908418D01*
X72201210Y-51914712D01*
X72213836Y-51922280D01*
X72225659Y-51931048D01*
X72236566Y-51940934D01*
X72246452Y-51951841D01*
X72255220Y-51963664D01*
X72262788Y-51976290D01*
X72269082Y-51989597D01*
X72274041Y-52003457D01*
X72277618Y-52017736D01*
X72279778Y-52032297D01*
X72280500Y-52047000D01*
X72280500Y-52347000D01*
X72279778Y-52361703D01*
X72277618Y-52376264D01*
X72274041Y-52390543D01*
X72269082Y-52404403D01*
X72262788Y-52417710D01*
X72255220Y-52430336D01*
X72246452Y-52442159D01*
X72236566Y-52453066D01*
X72225659Y-52462952D01*
X72213836Y-52471720D01*
X72201210Y-52479288D01*
X72187903Y-52485582D01*
X72174043Y-52490541D01*
X72159764Y-52494118D01*
X72145203Y-52496278D01*
X72130500Y-52497000D01*
X70830500Y-52497000D01*
X70815797Y-52496278D01*
X70801236Y-52494118D01*
X70786957Y-52490541D01*
X70773097Y-52485582D01*
X70759790Y-52479288D01*
X70747164Y-52471720D01*
X70735341Y-52462952D01*
X70724434Y-52453066D01*
X70714548Y-52442159D01*
X70705780Y-52430336D01*
X70698212Y-52417710D01*
X70691918Y-52404403D01*
X70686959Y-52390543D01*
X70683382Y-52376264D01*
X70681222Y-52361703D01*
X70680500Y-52347000D01*
X70680500Y-52047000D01*
X70681222Y-52032297D01*
X70683382Y-52017736D01*
X70686959Y-52003457D01*
X70691918Y-51989597D01*
X70698212Y-51976290D01*
X70705780Y-51963664D01*
X70714548Y-51951841D01*
X70724434Y-51940934D01*
X70735341Y-51931048D01*
X70747164Y-51922280D01*
X70759790Y-51914712D01*
X70773097Y-51908418D01*
X70786957Y-51903459D01*
X70801236Y-51899882D01*
X70815797Y-51897722D01*
X70830500Y-51897000D01*
X72130500Y-51897000D01*
X72145203Y-51897722D01*
X72145203Y-51897722D01*
G37*
D12*
G04 #@! TD*
G04 #@! TO.P,U6,16*
G04 #@! TO.N,GND*
X71480500Y-52197000D03*
D11*
G04 #@! TO.N,/D2*
G04 #@! TO.C,U6*
G36*
X72145203Y-53167722D02*
X72159764Y-53169882D01*
X72174043Y-53173459D01*
X72187903Y-53178418D01*
X72201210Y-53184712D01*
X72213836Y-53192280D01*
X72225659Y-53201048D01*
X72236566Y-53210934D01*
X72246452Y-53221841D01*
X72255220Y-53233664D01*
X72262788Y-53246290D01*
X72269082Y-53259597D01*
X72274041Y-53273457D01*
X72277618Y-53287736D01*
X72279778Y-53302297D01*
X72280500Y-53317000D01*
X72280500Y-53617000D01*
X72279778Y-53631703D01*
X72277618Y-53646264D01*
X72274041Y-53660543D01*
X72269082Y-53674403D01*
X72262788Y-53687710D01*
X72255220Y-53700336D01*
X72246452Y-53712159D01*
X72236566Y-53723066D01*
X72225659Y-53732952D01*
X72213836Y-53741720D01*
X72201210Y-53749288D01*
X72187903Y-53755582D01*
X72174043Y-53760541D01*
X72159764Y-53764118D01*
X72145203Y-53766278D01*
X72130500Y-53767000D01*
X70830500Y-53767000D01*
X70815797Y-53766278D01*
X70801236Y-53764118D01*
X70786957Y-53760541D01*
X70773097Y-53755582D01*
X70759790Y-53749288D01*
X70747164Y-53741720D01*
X70735341Y-53732952D01*
X70724434Y-53723066D01*
X70714548Y-53712159D01*
X70705780Y-53700336D01*
X70698212Y-53687710D01*
X70691918Y-53674403D01*
X70686959Y-53660543D01*
X70683382Y-53646264D01*
X70681222Y-53631703D01*
X70680500Y-53617000D01*
X70680500Y-53317000D01*
X70681222Y-53302297D01*
X70683382Y-53287736D01*
X70686959Y-53273457D01*
X70691918Y-53259597D01*
X70698212Y-53246290D01*
X70705780Y-53233664D01*
X70714548Y-53221841D01*
X70724434Y-53210934D01*
X70735341Y-53201048D01*
X70747164Y-53192280D01*
X70759790Y-53184712D01*
X70773097Y-53178418D01*
X70786957Y-53173459D01*
X70801236Y-53169882D01*
X70815797Y-53167722D01*
X70830500Y-53167000D01*
X72130500Y-53167000D01*
X72145203Y-53167722D01*
X72145203Y-53167722D01*
G37*
D12*
G04 #@! TD*
G04 #@! TO.P,U6,15*
G04 #@! TO.N,/D2*
X71480500Y-53467000D03*
D11*
G04 #@! TO.N,/D1*
G04 #@! TO.C,U6*
G36*
X72145203Y-54437722D02*
X72159764Y-54439882D01*
X72174043Y-54443459D01*
X72187903Y-54448418D01*
X72201210Y-54454712D01*
X72213836Y-54462280D01*
X72225659Y-54471048D01*
X72236566Y-54480934D01*
X72246452Y-54491841D01*
X72255220Y-54503664D01*
X72262788Y-54516290D01*
X72269082Y-54529597D01*
X72274041Y-54543457D01*
X72277618Y-54557736D01*
X72279778Y-54572297D01*
X72280500Y-54587000D01*
X72280500Y-54887000D01*
X72279778Y-54901703D01*
X72277618Y-54916264D01*
X72274041Y-54930543D01*
X72269082Y-54944403D01*
X72262788Y-54957710D01*
X72255220Y-54970336D01*
X72246452Y-54982159D01*
X72236566Y-54993066D01*
X72225659Y-55002952D01*
X72213836Y-55011720D01*
X72201210Y-55019288D01*
X72187903Y-55025582D01*
X72174043Y-55030541D01*
X72159764Y-55034118D01*
X72145203Y-55036278D01*
X72130500Y-55037000D01*
X70830500Y-55037000D01*
X70815797Y-55036278D01*
X70801236Y-55034118D01*
X70786957Y-55030541D01*
X70773097Y-55025582D01*
X70759790Y-55019288D01*
X70747164Y-55011720D01*
X70735341Y-55002952D01*
X70724434Y-54993066D01*
X70714548Y-54982159D01*
X70705780Y-54970336D01*
X70698212Y-54957710D01*
X70691918Y-54944403D01*
X70686959Y-54930543D01*
X70683382Y-54916264D01*
X70681222Y-54901703D01*
X70680500Y-54887000D01*
X70680500Y-54587000D01*
X70681222Y-54572297D01*
X70683382Y-54557736D01*
X70686959Y-54543457D01*
X70691918Y-54529597D01*
X70698212Y-54516290D01*
X70705780Y-54503664D01*
X70714548Y-54491841D01*
X70724434Y-54480934D01*
X70735341Y-54471048D01*
X70747164Y-54462280D01*
X70759790Y-54454712D01*
X70773097Y-54448418D01*
X70786957Y-54443459D01*
X70801236Y-54439882D01*
X70815797Y-54437722D01*
X70830500Y-54437000D01*
X72130500Y-54437000D01*
X72145203Y-54437722D01*
X72145203Y-54437722D01*
G37*
D12*
G04 #@! TD*
G04 #@! TO.P,U6,14*
G04 #@! TO.N,/D1*
X71480500Y-54737000D03*
D11*
G04 #@! TO.N,/D0*
G04 #@! TO.C,U6*
G36*
X69887703Y-55690222D02*
X69902264Y-55692382D01*
X69916543Y-55695959D01*
X69930403Y-55700918D01*
X69943710Y-55707212D01*
X69956336Y-55714780D01*
X69968159Y-55723548D01*
X69979066Y-55733434D01*
X69988952Y-55744341D01*
X69997720Y-55756164D01*
X70005288Y-55768790D01*
X70011582Y-55782097D01*
X70016541Y-55795957D01*
X70020118Y-55810236D01*
X70022278Y-55824797D01*
X70023000Y-55839500D01*
X70023000Y-57139500D01*
X70022278Y-57154203D01*
X70020118Y-57168764D01*
X70016541Y-57183043D01*
X70011582Y-57196903D01*
X70005288Y-57210210D01*
X69997720Y-57222836D01*
X69988952Y-57234659D01*
X69979066Y-57245566D01*
X69968159Y-57255452D01*
X69956336Y-57264220D01*
X69943710Y-57271788D01*
X69930403Y-57278082D01*
X69916543Y-57283041D01*
X69902264Y-57286618D01*
X69887703Y-57288778D01*
X69873000Y-57289500D01*
X69573000Y-57289500D01*
X69558297Y-57288778D01*
X69543736Y-57286618D01*
X69529457Y-57283041D01*
X69515597Y-57278082D01*
X69502290Y-57271788D01*
X69489664Y-57264220D01*
X69477841Y-57255452D01*
X69466934Y-57245566D01*
X69457048Y-57234659D01*
X69448280Y-57222836D01*
X69440712Y-57210210D01*
X69434418Y-57196903D01*
X69429459Y-57183043D01*
X69425882Y-57168764D01*
X69423722Y-57154203D01*
X69423000Y-57139500D01*
X69423000Y-55839500D01*
X69423722Y-55824797D01*
X69425882Y-55810236D01*
X69429459Y-55795957D01*
X69434418Y-55782097D01*
X69440712Y-55768790D01*
X69448280Y-55756164D01*
X69457048Y-55744341D01*
X69466934Y-55733434D01*
X69477841Y-55723548D01*
X69489664Y-55714780D01*
X69502290Y-55707212D01*
X69515597Y-55700918D01*
X69529457Y-55695959D01*
X69543736Y-55692382D01*
X69558297Y-55690222D01*
X69573000Y-55689500D01*
X69873000Y-55689500D01*
X69887703Y-55690222D01*
X69887703Y-55690222D01*
G37*
D12*
G04 #@! TD*
G04 #@! TO.P,U6,13*
G04 #@! TO.N,/D0*
X69723000Y-56489500D03*
D11*
G04 #@! TO.N,/A0*
G04 #@! TO.C,U6*
G36*
X68617703Y-55690222D02*
X68632264Y-55692382D01*
X68646543Y-55695959D01*
X68660403Y-55700918D01*
X68673710Y-55707212D01*
X68686336Y-55714780D01*
X68698159Y-55723548D01*
X68709066Y-55733434D01*
X68718952Y-55744341D01*
X68727720Y-55756164D01*
X68735288Y-55768790D01*
X68741582Y-55782097D01*
X68746541Y-55795957D01*
X68750118Y-55810236D01*
X68752278Y-55824797D01*
X68753000Y-55839500D01*
X68753000Y-57139500D01*
X68752278Y-57154203D01*
X68750118Y-57168764D01*
X68746541Y-57183043D01*
X68741582Y-57196903D01*
X68735288Y-57210210D01*
X68727720Y-57222836D01*
X68718952Y-57234659D01*
X68709066Y-57245566D01*
X68698159Y-57255452D01*
X68686336Y-57264220D01*
X68673710Y-57271788D01*
X68660403Y-57278082D01*
X68646543Y-57283041D01*
X68632264Y-57286618D01*
X68617703Y-57288778D01*
X68603000Y-57289500D01*
X68303000Y-57289500D01*
X68288297Y-57288778D01*
X68273736Y-57286618D01*
X68259457Y-57283041D01*
X68245597Y-57278082D01*
X68232290Y-57271788D01*
X68219664Y-57264220D01*
X68207841Y-57255452D01*
X68196934Y-57245566D01*
X68187048Y-57234659D01*
X68178280Y-57222836D01*
X68170712Y-57210210D01*
X68164418Y-57196903D01*
X68159459Y-57183043D01*
X68155882Y-57168764D01*
X68153722Y-57154203D01*
X68153000Y-57139500D01*
X68153000Y-55839500D01*
X68153722Y-55824797D01*
X68155882Y-55810236D01*
X68159459Y-55795957D01*
X68164418Y-55782097D01*
X68170712Y-55768790D01*
X68178280Y-55756164D01*
X68187048Y-55744341D01*
X68196934Y-55733434D01*
X68207841Y-55723548D01*
X68219664Y-55714780D01*
X68232290Y-55707212D01*
X68245597Y-55700918D01*
X68259457Y-55695959D01*
X68273736Y-55692382D01*
X68288297Y-55690222D01*
X68303000Y-55689500D01*
X68603000Y-55689500D01*
X68617703Y-55690222D01*
X68617703Y-55690222D01*
G37*
D12*
G04 #@! TD*
G04 #@! TO.P,U6,12*
G04 #@! TO.N,/A0*
X68453000Y-56489500D03*
D11*
G04 #@! TO.N,/A1*
G04 #@! TO.C,U6*
G36*
X67347703Y-55690222D02*
X67362264Y-55692382D01*
X67376543Y-55695959D01*
X67390403Y-55700918D01*
X67403710Y-55707212D01*
X67416336Y-55714780D01*
X67428159Y-55723548D01*
X67439066Y-55733434D01*
X67448952Y-55744341D01*
X67457720Y-55756164D01*
X67465288Y-55768790D01*
X67471582Y-55782097D01*
X67476541Y-55795957D01*
X67480118Y-55810236D01*
X67482278Y-55824797D01*
X67483000Y-55839500D01*
X67483000Y-57139500D01*
X67482278Y-57154203D01*
X67480118Y-57168764D01*
X67476541Y-57183043D01*
X67471582Y-57196903D01*
X67465288Y-57210210D01*
X67457720Y-57222836D01*
X67448952Y-57234659D01*
X67439066Y-57245566D01*
X67428159Y-57255452D01*
X67416336Y-57264220D01*
X67403710Y-57271788D01*
X67390403Y-57278082D01*
X67376543Y-57283041D01*
X67362264Y-57286618D01*
X67347703Y-57288778D01*
X67333000Y-57289500D01*
X67033000Y-57289500D01*
X67018297Y-57288778D01*
X67003736Y-57286618D01*
X66989457Y-57283041D01*
X66975597Y-57278082D01*
X66962290Y-57271788D01*
X66949664Y-57264220D01*
X66937841Y-57255452D01*
X66926934Y-57245566D01*
X66917048Y-57234659D01*
X66908280Y-57222836D01*
X66900712Y-57210210D01*
X66894418Y-57196903D01*
X66889459Y-57183043D01*
X66885882Y-57168764D01*
X66883722Y-57154203D01*
X66883000Y-57139500D01*
X66883000Y-55839500D01*
X66883722Y-55824797D01*
X66885882Y-55810236D01*
X66889459Y-55795957D01*
X66894418Y-55782097D01*
X66900712Y-55768790D01*
X66908280Y-55756164D01*
X66917048Y-55744341D01*
X66926934Y-55733434D01*
X66937841Y-55723548D01*
X66949664Y-55714780D01*
X66962290Y-55707212D01*
X66975597Y-55700918D01*
X66989457Y-55695959D01*
X67003736Y-55692382D01*
X67018297Y-55690222D01*
X67033000Y-55689500D01*
X67333000Y-55689500D01*
X67347703Y-55690222D01*
X67347703Y-55690222D01*
G37*
D12*
G04 #@! TD*
G04 #@! TO.P,U6,11*
G04 #@! TO.N,/A1*
X67183000Y-56489500D03*
D11*
G04 #@! TO.N,/A2*
G04 #@! TO.C,U6*
G36*
X66077703Y-55690222D02*
X66092264Y-55692382D01*
X66106543Y-55695959D01*
X66120403Y-55700918D01*
X66133710Y-55707212D01*
X66146336Y-55714780D01*
X66158159Y-55723548D01*
X66169066Y-55733434D01*
X66178952Y-55744341D01*
X66187720Y-55756164D01*
X66195288Y-55768790D01*
X66201582Y-55782097D01*
X66206541Y-55795957D01*
X66210118Y-55810236D01*
X66212278Y-55824797D01*
X66213000Y-55839500D01*
X66213000Y-57139500D01*
X66212278Y-57154203D01*
X66210118Y-57168764D01*
X66206541Y-57183043D01*
X66201582Y-57196903D01*
X66195288Y-57210210D01*
X66187720Y-57222836D01*
X66178952Y-57234659D01*
X66169066Y-57245566D01*
X66158159Y-57255452D01*
X66146336Y-57264220D01*
X66133710Y-57271788D01*
X66120403Y-57278082D01*
X66106543Y-57283041D01*
X66092264Y-57286618D01*
X66077703Y-57288778D01*
X66063000Y-57289500D01*
X65763000Y-57289500D01*
X65748297Y-57288778D01*
X65733736Y-57286618D01*
X65719457Y-57283041D01*
X65705597Y-57278082D01*
X65692290Y-57271788D01*
X65679664Y-57264220D01*
X65667841Y-57255452D01*
X65656934Y-57245566D01*
X65647048Y-57234659D01*
X65638280Y-57222836D01*
X65630712Y-57210210D01*
X65624418Y-57196903D01*
X65619459Y-57183043D01*
X65615882Y-57168764D01*
X65613722Y-57154203D01*
X65613000Y-57139500D01*
X65613000Y-55839500D01*
X65613722Y-55824797D01*
X65615882Y-55810236D01*
X65619459Y-55795957D01*
X65624418Y-55782097D01*
X65630712Y-55768790D01*
X65638280Y-55756164D01*
X65647048Y-55744341D01*
X65656934Y-55733434D01*
X65667841Y-55723548D01*
X65679664Y-55714780D01*
X65692290Y-55707212D01*
X65705597Y-55700918D01*
X65719457Y-55695959D01*
X65733736Y-55692382D01*
X65748297Y-55690222D01*
X65763000Y-55689500D01*
X66063000Y-55689500D01*
X66077703Y-55690222D01*
X66077703Y-55690222D01*
G37*
D12*
G04 #@! TD*
G04 #@! TO.P,U6,10*
G04 #@! TO.N,/A2*
X65913000Y-56489500D03*
D11*
G04 #@! TO.N,/A3*
G04 #@! TO.C,U6*
G36*
X64807703Y-55690222D02*
X64822264Y-55692382D01*
X64836543Y-55695959D01*
X64850403Y-55700918D01*
X64863710Y-55707212D01*
X64876336Y-55714780D01*
X64888159Y-55723548D01*
X64899066Y-55733434D01*
X64908952Y-55744341D01*
X64917720Y-55756164D01*
X64925288Y-55768790D01*
X64931582Y-55782097D01*
X64936541Y-55795957D01*
X64940118Y-55810236D01*
X64942278Y-55824797D01*
X64943000Y-55839500D01*
X64943000Y-57139500D01*
X64942278Y-57154203D01*
X64940118Y-57168764D01*
X64936541Y-57183043D01*
X64931582Y-57196903D01*
X64925288Y-57210210D01*
X64917720Y-57222836D01*
X64908952Y-57234659D01*
X64899066Y-57245566D01*
X64888159Y-57255452D01*
X64876336Y-57264220D01*
X64863710Y-57271788D01*
X64850403Y-57278082D01*
X64836543Y-57283041D01*
X64822264Y-57286618D01*
X64807703Y-57288778D01*
X64793000Y-57289500D01*
X64493000Y-57289500D01*
X64478297Y-57288778D01*
X64463736Y-57286618D01*
X64449457Y-57283041D01*
X64435597Y-57278082D01*
X64422290Y-57271788D01*
X64409664Y-57264220D01*
X64397841Y-57255452D01*
X64386934Y-57245566D01*
X64377048Y-57234659D01*
X64368280Y-57222836D01*
X64360712Y-57210210D01*
X64354418Y-57196903D01*
X64349459Y-57183043D01*
X64345882Y-57168764D01*
X64343722Y-57154203D01*
X64343000Y-57139500D01*
X64343000Y-55839500D01*
X64343722Y-55824797D01*
X64345882Y-55810236D01*
X64349459Y-55795957D01*
X64354418Y-55782097D01*
X64360712Y-55768790D01*
X64368280Y-55756164D01*
X64377048Y-55744341D01*
X64386934Y-55733434D01*
X64397841Y-55723548D01*
X64409664Y-55714780D01*
X64422290Y-55707212D01*
X64435597Y-55700918D01*
X64449457Y-55695959D01*
X64463736Y-55692382D01*
X64478297Y-55690222D01*
X64493000Y-55689500D01*
X64793000Y-55689500D01*
X64807703Y-55690222D01*
X64807703Y-55690222D01*
G37*
D12*
G04 #@! TD*
G04 #@! TO.P,U6,9*
G04 #@! TO.N,/A3*
X64643000Y-56489500D03*
D11*
G04 #@! TO.N,/A4*
G04 #@! TO.C,U6*
G36*
X63537703Y-55690222D02*
X63552264Y-55692382D01*
X63566543Y-55695959D01*
X63580403Y-55700918D01*
X63593710Y-55707212D01*
X63606336Y-55714780D01*
X63618159Y-55723548D01*
X63629066Y-55733434D01*
X63638952Y-55744341D01*
X63647720Y-55756164D01*
X63655288Y-55768790D01*
X63661582Y-55782097D01*
X63666541Y-55795957D01*
X63670118Y-55810236D01*
X63672278Y-55824797D01*
X63673000Y-55839500D01*
X63673000Y-57139500D01*
X63672278Y-57154203D01*
X63670118Y-57168764D01*
X63666541Y-57183043D01*
X63661582Y-57196903D01*
X63655288Y-57210210D01*
X63647720Y-57222836D01*
X63638952Y-57234659D01*
X63629066Y-57245566D01*
X63618159Y-57255452D01*
X63606336Y-57264220D01*
X63593710Y-57271788D01*
X63580403Y-57278082D01*
X63566543Y-57283041D01*
X63552264Y-57286618D01*
X63537703Y-57288778D01*
X63523000Y-57289500D01*
X63223000Y-57289500D01*
X63208297Y-57288778D01*
X63193736Y-57286618D01*
X63179457Y-57283041D01*
X63165597Y-57278082D01*
X63152290Y-57271788D01*
X63139664Y-57264220D01*
X63127841Y-57255452D01*
X63116934Y-57245566D01*
X63107048Y-57234659D01*
X63098280Y-57222836D01*
X63090712Y-57210210D01*
X63084418Y-57196903D01*
X63079459Y-57183043D01*
X63075882Y-57168764D01*
X63073722Y-57154203D01*
X63073000Y-57139500D01*
X63073000Y-55839500D01*
X63073722Y-55824797D01*
X63075882Y-55810236D01*
X63079459Y-55795957D01*
X63084418Y-55782097D01*
X63090712Y-55768790D01*
X63098280Y-55756164D01*
X63107048Y-55744341D01*
X63116934Y-55733434D01*
X63127841Y-55723548D01*
X63139664Y-55714780D01*
X63152290Y-55707212D01*
X63165597Y-55700918D01*
X63179457Y-55695959D01*
X63193736Y-55692382D01*
X63208297Y-55690222D01*
X63223000Y-55689500D01*
X63523000Y-55689500D01*
X63537703Y-55690222D01*
X63537703Y-55690222D01*
G37*
D12*
G04 #@! TD*
G04 #@! TO.P,U6,8*
G04 #@! TO.N,/A4*
X63373000Y-56489500D03*
D11*
G04 #@! TO.N,/A5*
G04 #@! TO.C,U6*
G36*
X62267703Y-55690222D02*
X62282264Y-55692382D01*
X62296543Y-55695959D01*
X62310403Y-55700918D01*
X62323710Y-55707212D01*
X62336336Y-55714780D01*
X62348159Y-55723548D01*
X62359066Y-55733434D01*
X62368952Y-55744341D01*
X62377720Y-55756164D01*
X62385288Y-55768790D01*
X62391582Y-55782097D01*
X62396541Y-55795957D01*
X62400118Y-55810236D01*
X62402278Y-55824797D01*
X62403000Y-55839500D01*
X62403000Y-57139500D01*
X62402278Y-57154203D01*
X62400118Y-57168764D01*
X62396541Y-57183043D01*
X62391582Y-57196903D01*
X62385288Y-57210210D01*
X62377720Y-57222836D01*
X62368952Y-57234659D01*
X62359066Y-57245566D01*
X62348159Y-57255452D01*
X62336336Y-57264220D01*
X62323710Y-57271788D01*
X62310403Y-57278082D01*
X62296543Y-57283041D01*
X62282264Y-57286618D01*
X62267703Y-57288778D01*
X62253000Y-57289500D01*
X61953000Y-57289500D01*
X61938297Y-57288778D01*
X61923736Y-57286618D01*
X61909457Y-57283041D01*
X61895597Y-57278082D01*
X61882290Y-57271788D01*
X61869664Y-57264220D01*
X61857841Y-57255452D01*
X61846934Y-57245566D01*
X61837048Y-57234659D01*
X61828280Y-57222836D01*
X61820712Y-57210210D01*
X61814418Y-57196903D01*
X61809459Y-57183043D01*
X61805882Y-57168764D01*
X61803722Y-57154203D01*
X61803000Y-57139500D01*
X61803000Y-55839500D01*
X61803722Y-55824797D01*
X61805882Y-55810236D01*
X61809459Y-55795957D01*
X61814418Y-55782097D01*
X61820712Y-55768790D01*
X61828280Y-55756164D01*
X61837048Y-55744341D01*
X61846934Y-55733434D01*
X61857841Y-55723548D01*
X61869664Y-55714780D01*
X61882290Y-55707212D01*
X61895597Y-55700918D01*
X61909457Y-55695959D01*
X61923736Y-55692382D01*
X61938297Y-55690222D01*
X61953000Y-55689500D01*
X62253000Y-55689500D01*
X62267703Y-55690222D01*
X62267703Y-55690222D01*
G37*
D12*
G04 #@! TD*
G04 #@! TO.P,U6,7*
G04 #@! TO.N,/A5*
X62103000Y-56489500D03*
D11*
G04 #@! TO.N,/A6*
G04 #@! TO.C,U6*
G36*
X60997703Y-55690222D02*
X61012264Y-55692382D01*
X61026543Y-55695959D01*
X61040403Y-55700918D01*
X61053710Y-55707212D01*
X61066336Y-55714780D01*
X61078159Y-55723548D01*
X61089066Y-55733434D01*
X61098952Y-55744341D01*
X61107720Y-55756164D01*
X61115288Y-55768790D01*
X61121582Y-55782097D01*
X61126541Y-55795957D01*
X61130118Y-55810236D01*
X61132278Y-55824797D01*
X61133000Y-55839500D01*
X61133000Y-57139500D01*
X61132278Y-57154203D01*
X61130118Y-57168764D01*
X61126541Y-57183043D01*
X61121582Y-57196903D01*
X61115288Y-57210210D01*
X61107720Y-57222836D01*
X61098952Y-57234659D01*
X61089066Y-57245566D01*
X61078159Y-57255452D01*
X61066336Y-57264220D01*
X61053710Y-57271788D01*
X61040403Y-57278082D01*
X61026543Y-57283041D01*
X61012264Y-57286618D01*
X60997703Y-57288778D01*
X60983000Y-57289500D01*
X60683000Y-57289500D01*
X60668297Y-57288778D01*
X60653736Y-57286618D01*
X60639457Y-57283041D01*
X60625597Y-57278082D01*
X60612290Y-57271788D01*
X60599664Y-57264220D01*
X60587841Y-57255452D01*
X60576934Y-57245566D01*
X60567048Y-57234659D01*
X60558280Y-57222836D01*
X60550712Y-57210210D01*
X60544418Y-57196903D01*
X60539459Y-57183043D01*
X60535882Y-57168764D01*
X60533722Y-57154203D01*
X60533000Y-57139500D01*
X60533000Y-55839500D01*
X60533722Y-55824797D01*
X60535882Y-55810236D01*
X60539459Y-55795957D01*
X60544418Y-55782097D01*
X60550712Y-55768790D01*
X60558280Y-55756164D01*
X60567048Y-55744341D01*
X60576934Y-55733434D01*
X60587841Y-55723548D01*
X60599664Y-55714780D01*
X60612290Y-55707212D01*
X60625597Y-55700918D01*
X60639457Y-55695959D01*
X60653736Y-55692382D01*
X60668297Y-55690222D01*
X60683000Y-55689500D01*
X60983000Y-55689500D01*
X60997703Y-55690222D01*
X60997703Y-55690222D01*
G37*
D12*
G04 #@! TD*
G04 #@! TO.P,U6,6*
G04 #@! TO.N,/A6*
X60833000Y-56489500D03*
D11*
G04 #@! TO.N,/A7*
G04 #@! TO.C,U6*
G36*
X59727703Y-55690222D02*
X59742264Y-55692382D01*
X59756543Y-55695959D01*
X59770403Y-55700918D01*
X59783710Y-55707212D01*
X59796336Y-55714780D01*
X59808159Y-55723548D01*
X59819066Y-55733434D01*
X59828952Y-55744341D01*
X59837720Y-55756164D01*
X59845288Y-55768790D01*
X59851582Y-55782097D01*
X59856541Y-55795957D01*
X59860118Y-55810236D01*
X59862278Y-55824797D01*
X59863000Y-55839500D01*
X59863000Y-57139500D01*
X59862278Y-57154203D01*
X59860118Y-57168764D01*
X59856541Y-57183043D01*
X59851582Y-57196903D01*
X59845288Y-57210210D01*
X59837720Y-57222836D01*
X59828952Y-57234659D01*
X59819066Y-57245566D01*
X59808159Y-57255452D01*
X59796336Y-57264220D01*
X59783710Y-57271788D01*
X59770403Y-57278082D01*
X59756543Y-57283041D01*
X59742264Y-57286618D01*
X59727703Y-57288778D01*
X59713000Y-57289500D01*
X59413000Y-57289500D01*
X59398297Y-57288778D01*
X59383736Y-57286618D01*
X59369457Y-57283041D01*
X59355597Y-57278082D01*
X59342290Y-57271788D01*
X59329664Y-57264220D01*
X59317841Y-57255452D01*
X59306934Y-57245566D01*
X59297048Y-57234659D01*
X59288280Y-57222836D01*
X59280712Y-57210210D01*
X59274418Y-57196903D01*
X59269459Y-57183043D01*
X59265882Y-57168764D01*
X59263722Y-57154203D01*
X59263000Y-57139500D01*
X59263000Y-55839500D01*
X59263722Y-55824797D01*
X59265882Y-55810236D01*
X59269459Y-55795957D01*
X59274418Y-55782097D01*
X59280712Y-55768790D01*
X59288280Y-55756164D01*
X59297048Y-55744341D01*
X59306934Y-55733434D01*
X59317841Y-55723548D01*
X59329664Y-55714780D01*
X59342290Y-55707212D01*
X59355597Y-55700918D01*
X59369457Y-55695959D01*
X59383736Y-55692382D01*
X59398297Y-55690222D01*
X59413000Y-55689500D01*
X59713000Y-55689500D01*
X59727703Y-55690222D01*
X59727703Y-55690222D01*
G37*
D12*
G04 #@! TD*
G04 #@! TO.P,U6,5*
G04 #@! TO.N,/A7*
X59563000Y-56489500D03*
D11*
G04 #@! TO.N,/A12*
G04 #@! TO.C,U6*
G36*
X58470203Y-54437722D02*
X58484764Y-54439882D01*
X58499043Y-54443459D01*
X58512903Y-54448418D01*
X58526210Y-54454712D01*
X58538836Y-54462280D01*
X58550659Y-54471048D01*
X58561566Y-54480934D01*
X58571452Y-54491841D01*
X58580220Y-54503664D01*
X58587788Y-54516290D01*
X58594082Y-54529597D01*
X58599041Y-54543457D01*
X58602618Y-54557736D01*
X58604778Y-54572297D01*
X58605500Y-54587000D01*
X58605500Y-54887000D01*
X58604778Y-54901703D01*
X58602618Y-54916264D01*
X58599041Y-54930543D01*
X58594082Y-54944403D01*
X58587788Y-54957710D01*
X58580220Y-54970336D01*
X58571452Y-54982159D01*
X58561566Y-54993066D01*
X58550659Y-55002952D01*
X58538836Y-55011720D01*
X58526210Y-55019288D01*
X58512903Y-55025582D01*
X58499043Y-55030541D01*
X58484764Y-55034118D01*
X58470203Y-55036278D01*
X58455500Y-55037000D01*
X57155500Y-55037000D01*
X57140797Y-55036278D01*
X57126236Y-55034118D01*
X57111957Y-55030541D01*
X57098097Y-55025582D01*
X57084790Y-55019288D01*
X57072164Y-55011720D01*
X57060341Y-55002952D01*
X57049434Y-54993066D01*
X57039548Y-54982159D01*
X57030780Y-54970336D01*
X57023212Y-54957710D01*
X57016918Y-54944403D01*
X57011959Y-54930543D01*
X57008382Y-54916264D01*
X57006222Y-54901703D01*
X57005500Y-54887000D01*
X57005500Y-54587000D01*
X57006222Y-54572297D01*
X57008382Y-54557736D01*
X57011959Y-54543457D01*
X57016918Y-54529597D01*
X57023212Y-54516290D01*
X57030780Y-54503664D01*
X57039548Y-54491841D01*
X57049434Y-54480934D01*
X57060341Y-54471048D01*
X57072164Y-54462280D01*
X57084790Y-54454712D01*
X57098097Y-54448418D01*
X57111957Y-54443459D01*
X57126236Y-54439882D01*
X57140797Y-54437722D01*
X57155500Y-54437000D01*
X58455500Y-54437000D01*
X58470203Y-54437722D01*
X58470203Y-54437722D01*
G37*
D12*
G04 #@! TD*
G04 #@! TO.P,U6,4*
G04 #@! TO.N,/A12*
X57805500Y-54737000D03*
D11*
G04 #@! TO.N,/Q1*
G04 #@! TO.C,U6*
G36*
X58470203Y-53167722D02*
X58484764Y-53169882D01*
X58499043Y-53173459D01*
X58512903Y-53178418D01*
X58526210Y-53184712D01*
X58538836Y-53192280D01*
X58550659Y-53201048D01*
X58561566Y-53210934D01*
X58571452Y-53221841D01*
X58580220Y-53233664D01*
X58587788Y-53246290D01*
X58594082Y-53259597D01*
X58599041Y-53273457D01*
X58602618Y-53287736D01*
X58604778Y-53302297D01*
X58605500Y-53317000D01*
X58605500Y-53617000D01*
X58604778Y-53631703D01*
X58602618Y-53646264D01*
X58599041Y-53660543D01*
X58594082Y-53674403D01*
X58587788Y-53687710D01*
X58580220Y-53700336D01*
X58571452Y-53712159D01*
X58561566Y-53723066D01*
X58550659Y-53732952D01*
X58538836Y-53741720D01*
X58526210Y-53749288D01*
X58512903Y-53755582D01*
X58499043Y-53760541D01*
X58484764Y-53764118D01*
X58470203Y-53766278D01*
X58455500Y-53767000D01*
X57155500Y-53767000D01*
X57140797Y-53766278D01*
X57126236Y-53764118D01*
X57111957Y-53760541D01*
X57098097Y-53755582D01*
X57084790Y-53749288D01*
X57072164Y-53741720D01*
X57060341Y-53732952D01*
X57049434Y-53723066D01*
X57039548Y-53712159D01*
X57030780Y-53700336D01*
X57023212Y-53687710D01*
X57016918Y-53674403D01*
X57011959Y-53660543D01*
X57008382Y-53646264D01*
X57006222Y-53631703D01*
X57005500Y-53617000D01*
X57005500Y-53317000D01*
X57006222Y-53302297D01*
X57008382Y-53287736D01*
X57011959Y-53273457D01*
X57016918Y-53259597D01*
X57023212Y-53246290D01*
X57030780Y-53233664D01*
X57039548Y-53221841D01*
X57049434Y-53210934D01*
X57060341Y-53201048D01*
X57072164Y-53192280D01*
X57084790Y-53184712D01*
X57098097Y-53178418D01*
X57111957Y-53173459D01*
X57126236Y-53169882D01*
X57140797Y-53167722D01*
X57155500Y-53167000D01*
X58455500Y-53167000D01*
X58470203Y-53167722D01*
X58470203Y-53167722D01*
G37*
D12*
G04 #@! TD*
G04 #@! TO.P,U6,3*
G04 #@! TO.N,/Q1*
X57805500Y-53467000D03*
D11*
G04 #@! TO.N,/Q2*
G04 #@! TO.C,U6*
G36*
X58470203Y-51897722D02*
X58484764Y-51899882D01*
X58499043Y-51903459D01*
X58512903Y-51908418D01*
X58526210Y-51914712D01*
X58538836Y-51922280D01*
X58550659Y-51931048D01*
X58561566Y-51940934D01*
X58571452Y-51951841D01*
X58580220Y-51963664D01*
X58587788Y-51976290D01*
X58594082Y-51989597D01*
X58599041Y-52003457D01*
X58602618Y-52017736D01*
X58604778Y-52032297D01*
X58605500Y-52047000D01*
X58605500Y-52347000D01*
X58604778Y-52361703D01*
X58602618Y-52376264D01*
X58599041Y-52390543D01*
X58594082Y-52404403D01*
X58587788Y-52417710D01*
X58580220Y-52430336D01*
X58571452Y-52442159D01*
X58561566Y-52453066D01*
X58550659Y-52462952D01*
X58538836Y-52471720D01*
X58526210Y-52479288D01*
X58512903Y-52485582D01*
X58499043Y-52490541D01*
X58484764Y-52494118D01*
X58470203Y-52496278D01*
X58455500Y-52497000D01*
X57155500Y-52497000D01*
X57140797Y-52496278D01*
X57126236Y-52494118D01*
X57111957Y-52490541D01*
X57098097Y-52485582D01*
X57084790Y-52479288D01*
X57072164Y-52471720D01*
X57060341Y-52462952D01*
X57049434Y-52453066D01*
X57039548Y-52442159D01*
X57030780Y-52430336D01*
X57023212Y-52417710D01*
X57016918Y-52404403D01*
X57011959Y-52390543D01*
X57008382Y-52376264D01*
X57006222Y-52361703D01*
X57005500Y-52347000D01*
X57005500Y-52047000D01*
X57006222Y-52032297D01*
X57008382Y-52017736D01*
X57011959Y-52003457D01*
X57016918Y-51989597D01*
X57023212Y-51976290D01*
X57030780Y-51963664D01*
X57039548Y-51951841D01*
X57049434Y-51940934D01*
X57060341Y-51931048D01*
X57072164Y-51922280D01*
X57084790Y-51914712D01*
X57098097Y-51908418D01*
X57111957Y-51903459D01*
X57126236Y-51899882D01*
X57140797Y-51897722D01*
X57155500Y-51897000D01*
X58455500Y-51897000D01*
X58470203Y-51897722D01*
X58470203Y-51897722D01*
G37*
D12*
G04 #@! TD*
G04 #@! TO.P,U6,2*
G04 #@! TO.N,/Q2*
X57805500Y-52197000D03*
D11*
G04 #@! TO.N,/Q4*
G04 #@! TO.C,U6*
G36*
X58470203Y-50627722D02*
X58484764Y-50629882D01*
X58499043Y-50633459D01*
X58512903Y-50638418D01*
X58526210Y-50644712D01*
X58538836Y-50652280D01*
X58550659Y-50661048D01*
X58561566Y-50670934D01*
X58571452Y-50681841D01*
X58580220Y-50693664D01*
X58587788Y-50706290D01*
X58594082Y-50719597D01*
X58599041Y-50733457D01*
X58602618Y-50747736D01*
X58604778Y-50762297D01*
X58605500Y-50777000D01*
X58605500Y-51077000D01*
X58604778Y-51091703D01*
X58602618Y-51106264D01*
X58599041Y-51120543D01*
X58594082Y-51134403D01*
X58587788Y-51147710D01*
X58580220Y-51160336D01*
X58571452Y-51172159D01*
X58561566Y-51183066D01*
X58550659Y-51192952D01*
X58538836Y-51201720D01*
X58526210Y-51209288D01*
X58512903Y-51215582D01*
X58499043Y-51220541D01*
X58484764Y-51224118D01*
X58470203Y-51226278D01*
X58455500Y-51227000D01*
X57155500Y-51227000D01*
X57140797Y-51226278D01*
X57126236Y-51224118D01*
X57111957Y-51220541D01*
X57098097Y-51215582D01*
X57084790Y-51209288D01*
X57072164Y-51201720D01*
X57060341Y-51192952D01*
X57049434Y-51183066D01*
X57039548Y-51172159D01*
X57030780Y-51160336D01*
X57023212Y-51147710D01*
X57016918Y-51134403D01*
X57011959Y-51120543D01*
X57008382Y-51106264D01*
X57006222Y-51091703D01*
X57005500Y-51077000D01*
X57005500Y-50777000D01*
X57006222Y-50762297D01*
X57008382Y-50747736D01*
X57011959Y-50733457D01*
X57016918Y-50719597D01*
X57023212Y-50706290D01*
X57030780Y-50693664D01*
X57039548Y-50681841D01*
X57049434Y-50670934D01*
X57060341Y-50661048D01*
X57072164Y-50652280D01*
X57084790Y-50644712D01*
X57098097Y-50638418D01*
X57111957Y-50633459D01*
X57126236Y-50629882D01*
X57140797Y-50627722D01*
X57155500Y-50627000D01*
X58455500Y-50627000D01*
X58470203Y-50627722D01*
X58470203Y-50627722D01*
G37*
D12*
G04 #@! TD*
G04 #@! TO.P,U6,1*
G04 #@! TO.N,/Q4*
X57805500Y-50927000D03*
D13*
G04 #@! TO.P,SW2,1*
G04 #@! TO.N,N/C*
X102616000Y-28829000D03*
D14*
G04 #@! TO.P,SW2,5*
G04 #@! TO.N,/R7EN*
X110236000Y-36449000D03*
G04 #@! TO.P,SW2,2*
G04 #@! TO.N,/A14A15*
X102616000Y-31369000D03*
G04 #@! TO.P,SW2,6*
G04 #@! TO.N,/R0EN*
X110236000Y-33909000D03*
G04 #@! TO.P,SW2,3*
G04 #@! TO.N,Net-(SW2-Pad3)*
X102616000Y-33909000D03*
G04 #@! TO.P,SW2,7*
G04 #@! TO.N,/SWACC*
X110236000Y-31369000D03*
G04 #@! TO.P,SW2,4*
G04 #@! TO.N,Net-(SW2-Pad4)*
X102616000Y-36449000D03*
G04 #@! TO.P,SW2,8*
G04 #@! TO.N,N/C*
X110236000Y-28829000D03*
G04 #@! TD*
D13*
G04 #@! TO.P,SW1,1*
G04 #@! TO.N,VCC*
X72898000Y-39497000D03*
D15*
G04 #@! TO.P,SW1,2*
G04 #@! TO.N,Net-(D1-Pad1)*
X72898000Y-36997000D03*
G04 #@! TO.P,SW1,3*
G04 #@! TO.N,GND*
X72898000Y-34497000D03*
G04 #@! TO.P,SW1,4*
G04 #@! TO.N,ROMEN*
X76098000Y-39497000D03*
G04 #@! TO.P,SW1,5*
G04 #@! TO.N,/RDWR*
X76098000Y-36997000D03*
G04 #@! TO.P,SW1,6*
G04 #@! TO.N,MREQ*
X76098000Y-34497000D03*
G04 #@! TD*
D16*
G04 #@! TO.P,P1,1*
G04 #@! TO.N,N/C*
X48133000Y-64262000D03*
D17*
G04 #@! TO.P,P1,2*
G04 #@! TO.N,GND*
X48133000Y-61722000D03*
G04 #@! TO.P,P1,3*
G04 #@! TO.N,/A15*
X50673000Y-64262000D03*
G04 #@! TO.P,P1,4*
G04 #@! TO.N,/A14*
X50673000Y-61722000D03*
G04 #@! TO.P,P1,5*
G04 #@! TO.N,/A13*
X53213000Y-64262000D03*
G04 #@! TO.P,P1,6*
G04 #@! TO.N,/A12*
X53213000Y-61722000D03*
G04 #@! TO.P,P1,7*
G04 #@! TO.N,/A11*
X55753000Y-64262000D03*
G04 #@! TO.P,P1,8*
G04 #@! TO.N,/A10*
X55753000Y-61722000D03*
G04 #@! TO.P,P1,9*
G04 #@! TO.N,/A9*
X58293000Y-64262000D03*
G04 #@! TO.P,P1,10*
G04 #@! TO.N,/A8*
X58293000Y-61722000D03*
G04 #@! TO.P,P1,11*
G04 #@! TO.N,/A7*
X60833000Y-64262000D03*
G04 #@! TO.P,P1,12*
G04 #@! TO.N,/A6*
X60833000Y-61722000D03*
G04 #@! TO.P,P1,13*
G04 #@! TO.N,/A5*
X63373000Y-64262000D03*
G04 #@! TO.P,P1,14*
G04 #@! TO.N,/A4*
X63373000Y-61722000D03*
G04 #@! TO.P,P1,15*
G04 #@! TO.N,/A3*
X65913000Y-64262000D03*
G04 #@! TO.P,P1,16*
G04 #@! TO.N,/A2*
X65913000Y-61722000D03*
G04 #@! TO.P,P1,17*
G04 #@! TO.N,/A1*
X68453000Y-64262000D03*
G04 #@! TO.P,P1,18*
G04 #@! TO.N,/A0*
X68453000Y-61722000D03*
G04 #@! TO.P,P1,19*
G04 #@! TO.N,/D7*
X70993000Y-64262000D03*
G04 #@! TO.P,P1,20*
G04 #@! TO.N,/D6*
X70993000Y-61722000D03*
G04 #@! TO.P,P1,21*
G04 #@! TO.N,/D5*
X73533000Y-64262000D03*
G04 #@! TO.P,P1,22*
G04 #@! TO.N,/D4*
X73533000Y-61722000D03*
G04 #@! TO.P,P1,23*
G04 #@! TO.N,/D3*
X76073000Y-64262000D03*
G04 #@! TO.P,P1,24*
G04 #@! TO.N,/D2*
X76073000Y-61722000D03*
G04 #@! TO.P,P1,25*
G04 #@! TO.N,/D1*
X78613000Y-64262000D03*
G04 #@! TO.P,P1,26*
G04 #@! TO.N,/D0*
X78613000Y-61722000D03*
G04 #@! TO.P,P1,27*
G04 #@! TO.N,VCC*
X81153000Y-64262000D03*
G04 #@! TO.P,P1,28*
G04 #@! TO.N,MREQ*
X81153000Y-61722000D03*
G04 #@! TO.P,P1,29*
G04 #@! TO.N,N/C*
X83693000Y-64262000D03*
G04 #@! TO.P,P1,30*
X83693000Y-61722000D03*
G04 #@! TO.P,P1,31*
G04 #@! TO.N,IORQ*
X86233000Y-64262000D03*
G04 #@! TO.P,P1,32*
G04 #@! TO.N,N/C*
X86233000Y-61722000D03*
G04 #@! TO.P,P1,33*
G04 #@! TO.N,WR*
X88773000Y-64262000D03*
G04 #@! TO.P,P1,34*
G04 #@! TO.N,N/C*
X88773000Y-61722000D03*
G04 #@! TO.P,P1,35*
X91313000Y-64262000D03*
G04 #@! TO.P,P1,36*
X91313000Y-61722000D03*
G04 #@! TO.P,P1,37*
X93853000Y-64262000D03*
G04 #@! TO.P,P1,38*
X93853000Y-61722000D03*
G04 #@! TO.P,P1,39*
X96393000Y-64262000D03*
G04 #@! TO.P,P1,40*
G04 #@! TO.N,/BUSRESET*
X96393000Y-61722000D03*
G04 #@! TO.P,P1,41*
G04 #@! TO.N,N/C*
X98933000Y-64262000D03*
G04 #@! TO.P,P1,42*
G04 #@! TO.N,ROMEN*
X98933000Y-61722000D03*
G04 #@! TO.P,P1,43*
G04 #@! TO.N,ROMDIS*
X101473000Y-64262000D03*
G04 #@! TO.P,P1,44*
G04 #@! TO.N,N/C*
X101473000Y-61722000D03*
G04 #@! TO.P,P1,45*
X104013000Y-64262000D03*
G04 #@! TO.P,P1,46*
X104013000Y-61722000D03*
G04 #@! TO.P,P1,47*
X106553000Y-64262000D03*
G04 #@! TO.P,P1,48*
X106553000Y-61722000D03*
G04 #@! TO.P,P1,49*
G04 #@! TO.N,GND*
X109093000Y-64262000D03*
G04 #@! TO.P,P1,50*
G04 #@! TO.N,N/C*
X109093000Y-61722000D03*
G04 #@! TD*
D18*
G04 #@! TO.P,D1,1*
G04 #@! TO.N,Net-(D1-Pad1)*
X69088000Y-37211000D03*
D19*
G04 #@! TO.P,D1,2*
G04 #@! TO.N,Net-(D1-Pad2)*
X69088000Y-39751000D03*
G04 #@! TD*
D18*
G04 #@! TO.P,D13,1*
G04 #@! TO.N,ROMDIS*
X108839000Y-44704000D03*
D20*
G04 #@! TO.P,D13,2*
G04 #@! TO.N,Net-(D13-Pad2)*
X101219000Y-44704000D03*
G04 #@! TD*
D13*
G04 #@! TO.P,C5,1*
G04 #@! TO.N,VCC*
X52578000Y-52197000D03*
D15*
G04 #@! TO.P,C5,2*
G04 #@! TO.N,GND*
X52578000Y-49697000D03*
G04 #@! TD*
D21*
G04 #@! TO.P,SW4,1*
G04 #@! TO.N,/BUSRESET*
X104303000Y-56807000D03*
X104303000Y-48857000D03*
G04 #@! TO.P,SW4,2*
G04 #@! TO.N,GND*
X108803000Y-56807000D03*
X108803000Y-48857000D03*
G04 #@! TD*
D22*
G04 #@! TO.P,JP3,1*
G04 #@! TO.N,Net-(JP3-Pad1)*
X91328000Y-36830000D03*
D11*
G04 #@! TD*
G04 #@! TO.N,Net-(JP3-Pad1)*
G04 #@! TO.C,JP3*
G36*
X90828000Y-37130000D02*
X90428000Y-37130000D01*
X90428000Y-36530000D01*
X90828000Y-36530000D01*
X90828000Y-36080000D01*
X91328000Y-36080000D01*
X91328000Y-36080602D01*
X91352534Y-36080602D01*
X91401365Y-36085412D01*
X91449490Y-36094984D01*
X91496445Y-36109228D01*
X91541778Y-36128005D01*
X91585051Y-36151136D01*
X91625850Y-36178396D01*
X91663779Y-36209524D01*
X91698476Y-36244221D01*
X91729604Y-36282150D01*
X91756864Y-36322949D01*
X91779995Y-36366222D01*
X91798772Y-36411555D01*
X91813016Y-36458510D01*
X91822588Y-36506635D01*
X91827398Y-36555466D01*
X91827398Y-36580000D01*
X91828000Y-36580000D01*
X91828000Y-37080000D01*
X91827398Y-37080000D01*
X91827398Y-37104534D01*
X91822588Y-37153365D01*
X91813016Y-37201490D01*
X91798772Y-37248445D01*
X91779995Y-37293778D01*
X91756864Y-37337051D01*
X91729604Y-37377850D01*
X91698476Y-37415779D01*
X91663779Y-37450476D01*
X91625850Y-37481604D01*
X91585051Y-37508864D01*
X91541778Y-37531995D01*
X91496445Y-37550772D01*
X91449490Y-37565016D01*
X91401365Y-37574588D01*
X91352534Y-37579398D01*
X91328000Y-37579398D01*
X91328000Y-37580000D01*
X90828000Y-37580000D01*
X90828000Y-37130000D01*
X90828000Y-37130000D01*
G37*
D22*
G04 #@! TO.P,JP3,2*
G04 #@! TO.N,/ROMACC*
X90028000Y-36830000D03*
D11*
G04 #@! TD*
G04 #@! TO.N,/ROMACC*
G04 #@! TO.C,JP3*
G36*
X90028000Y-37579398D02*
X90003466Y-37579398D01*
X89954635Y-37574588D01*
X89906510Y-37565016D01*
X89859555Y-37550772D01*
X89814222Y-37531995D01*
X89770949Y-37508864D01*
X89730150Y-37481604D01*
X89692221Y-37450476D01*
X89657524Y-37415779D01*
X89626396Y-37377850D01*
X89599136Y-37337051D01*
X89576005Y-37293778D01*
X89557228Y-37248445D01*
X89542984Y-37201490D01*
X89533412Y-37153365D01*
X89528602Y-37104534D01*
X89528602Y-37080000D01*
X89528000Y-37080000D01*
X89528000Y-36580000D01*
X89528602Y-36580000D01*
X89528602Y-36555466D01*
X89533412Y-36506635D01*
X89542984Y-36458510D01*
X89557228Y-36411555D01*
X89576005Y-36366222D01*
X89599136Y-36322949D01*
X89626396Y-36282150D01*
X89657524Y-36244221D01*
X89692221Y-36209524D01*
X89730150Y-36178396D01*
X89770949Y-36151136D01*
X89814222Y-36128005D01*
X89859555Y-36109228D01*
X89906510Y-36094984D01*
X89954635Y-36085412D01*
X90003466Y-36080602D01*
X90028000Y-36080602D01*
X90028000Y-36080000D01*
X90528000Y-36080000D01*
X90528000Y-37580000D01*
X90028000Y-37580000D01*
X90028000Y-37579398D01*
X90028000Y-37579398D01*
G37*
D22*
G04 #@! TO.P,JP4,1*
G04 #@! TO.N,Net-(JP4-Pad1)*
X91328000Y-34544000D03*
D11*
G04 #@! TD*
G04 #@! TO.N,Net-(JP4-Pad1)*
G04 #@! TO.C,JP4*
G36*
X90828000Y-33794000D02*
X91328000Y-33794000D01*
X91328000Y-33794602D01*
X91352534Y-33794602D01*
X91401365Y-33799412D01*
X91449490Y-33808984D01*
X91496445Y-33823228D01*
X91541778Y-33842005D01*
X91585051Y-33865136D01*
X91625850Y-33892396D01*
X91663779Y-33923524D01*
X91698476Y-33958221D01*
X91729604Y-33996150D01*
X91756864Y-34036949D01*
X91779995Y-34080222D01*
X91798772Y-34125555D01*
X91813016Y-34172510D01*
X91822588Y-34220635D01*
X91827398Y-34269466D01*
X91827398Y-34294000D01*
X91828000Y-34294000D01*
X91828000Y-34794000D01*
X91827398Y-34794000D01*
X91827398Y-34818534D01*
X91822588Y-34867365D01*
X91813016Y-34915490D01*
X91798772Y-34962445D01*
X91779995Y-35007778D01*
X91756864Y-35051051D01*
X91729604Y-35091850D01*
X91698476Y-35129779D01*
X91663779Y-35164476D01*
X91625850Y-35195604D01*
X91585051Y-35222864D01*
X91541778Y-35245995D01*
X91496445Y-35264772D01*
X91449490Y-35279016D01*
X91401365Y-35288588D01*
X91352534Y-35293398D01*
X91328000Y-35293398D01*
X91328000Y-35294000D01*
X90828000Y-35294000D01*
X90828000Y-33794000D01*
X90828000Y-33794000D01*
G37*
D22*
G04 #@! TO.P,JP4,2*
G04 #@! TO.N,/ROMACC*
X90028000Y-34544000D03*
D11*
G04 #@! TD*
G04 #@! TO.N,/ROMACC*
G04 #@! TO.C,JP4*
G36*
X90028000Y-35293398D02*
X90003466Y-35293398D01*
X89954635Y-35288588D01*
X89906510Y-35279016D01*
X89859555Y-35264772D01*
X89814222Y-35245995D01*
X89770949Y-35222864D01*
X89730150Y-35195604D01*
X89692221Y-35164476D01*
X89657524Y-35129779D01*
X89626396Y-35091850D01*
X89599136Y-35051051D01*
X89576005Y-35007778D01*
X89557228Y-34962445D01*
X89542984Y-34915490D01*
X89533412Y-34867365D01*
X89528602Y-34818534D01*
X89528602Y-34794000D01*
X89528000Y-34794000D01*
X89528000Y-34294000D01*
X89528602Y-34294000D01*
X89528602Y-34269466D01*
X89533412Y-34220635D01*
X89542984Y-34172510D01*
X89557228Y-34125555D01*
X89576005Y-34080222D01*
X89599136Y-34036949D01*
X89626396Y-33996150D01*
X89657524Y-33958221D01*
X89692221Y-33923524D01*
X89730150Y-33892396D01*
X89770949Y-33865136D01*
X89814222Y-33842005D01*
X89859555Y-33823228D01*
X89906510Y-33808984D01*
X89954635Y-33799412D01*
X90003466Y-33794602D01*
X90028000Y-33794602D01*
X90028000Y-33794000D01*
X90528000Y-33794000D01*
X90528000Y-35294000D01*
X90028000Y-35294000D01*
X90028000Y-35293398D01*
X90028000Y-35293398D01*
G37*
D23*
G04 #@! TO.N,//CE*
X68580000Y-48006000D03*
G04 #@! TO.N,//WE*
X59563000Y-47117000D03*
G04 #@! TO.N,/A10*
X67183000Y-50927000D03*
G04 #@! TO.N,/A11*
X64643000Y-50927000D03*
G04 #@! TO.N,/A13*
X60833000Y-50927000D03*
X80264000Y-42320462D03*
X87884000Y-34417000D03*
G04 #@! TO.N,/A8*
X62103000Y-50927000D03*
G04 #@! TO.N,/A9*
X63373000Y-50927000D03*
G04 #@! TO.N,/D4*
X76073000Y-52832000D03*
G04 #@! TO.N,/D5*
X76073000Y-51562000D03*
G04 #@! TO.N,/D6*
X76073000Y-50292000D03*
G04 #@! TO.N,/D7*
X76073000Y-47752000D03*
G04 #@! TO.N,/Q0*
X85852000Y-52070000D03*
G04 #@! TO.N,/Q1*
X88138000Y-53340000D03*
G04 #@! TO.N,/Q2*
X87122000Y-52070000D03*
G04 #@! TO.N,/Q3*
X87122000Y-50800000D03*
G04 #@! TO.N,/Q4*
X87122000Y-49530000D03*
G04 #@! TO.N,/R0EN*
X98552000Y-37973000D03*
G04 #@! TO.N,/R7EN*
X98552000Y-40767000D03*
G04 #@! TO.N,/ROMACC*
X84328000Y-42037000D03*
G04 #@! TO.N,GND*
X57912000Y-35814000D03*
X82502878Y-44910878D03*
X94996000Y-44958000D03*
X49022000Y-33274000D03*
X83566000Y-29972000D03*
X94488000Y-29972000D03*
X105283000Y-29083000D03*
G04 #@! TO.N,MREQ*
X80391000Y-40767000D03*
G04 #@! TO.N,ROMEN*
X65913000Y-47117000D03*
G04 #@! TO.N,VCC*
X78168501Y-41592501D03*
X59563000Y-49657000D03*
X87630000Y-36068000D03*
X89662000Y-43434000D03*
X97790000Y-43434000D03*
G04 #@! TO.N,Net-(JP3-Pad1)*
X96647000Y-36830000D03*
G04 #@! TO.N,Net-(JP4-Pad1)*
X93218000Y-34544000D03*
G04 #@! TO.N,Net-(D13-Pad2)*
X68580000Y-33020000D03*
G04 #@! TO.N,/SWACC*
X98171000Y-32575500D03*
G04 #@! TO.N,Net-(SW2-Pad4)*
X96774000Y-48387000D03*
G04 #@! TD*
D24*
G04 #@! TO.N,//CE*
X68453000Y-47879000D02*
X68580000Y-48006000D01*
X68453000Y-45364500D02*
X68453000Y-47879000D01*
G04 #@! TO.N,//WE*
X59563000Y-47117000D02*
X59563000Y-47752000D01*
X58928000Y-48387000D02*
X57805500Y-48387000D01*
X59563000Y-47752000D02*
X58928000Y-48387000D01*
G04 #@! TO.N,/A0*
X68453000Y-61722000D02*
X68453000Y-56489500D01*
G04 #@! TO.N,/A1*
X67183000Y-62992000D02*
X67183000Y-56489500D01*
X68453000Y-64262000D02*
X67183000Y-62992000D01*
G04 #@! TO.N,/A10*
X67183000Y-50927000D02*
X67183000Y-45364500D01*
G04 #@! TO.N,/A11*
X64643000Y-50927000D02*
X64643000Y-45364500D01*
G04 #@! TO.N,/A12*
X53213000Y-59329500D02*
X57805500Y-54737000D01*
X53213000Y-61722000D02*
X53213000Y-59329500D01*
G04 #@! TO.N,/A13*
X60833000Y-45364500D02*
X60833000Y-50927000D01*
X87255383Y-34417000D02*
X86741000Y-34931383D01*
X87884000Y-34417000D02*
X87255383Y-34417000D01*
X86741000Y-34931383D02*
X86741000Y-35306000D01*
X86741000Y-35052000D02*
X86741000Y-35306000D01*
X86741000Y-35843462D02*
X86741000Y-35560000D01*
X80264000Y-42320462D02*
X86741000Y-35843462D01*
X86741000Y-35306000D02*
X86741000Y-35560000D01*
G04 #@! TO.N,/A2*
X65913000Y-61722000D02*
X65913000Y-56489500D01*
G04 #@! TO.N,/A3*
X64643000Y-62992000D02*
X64643000Y-56489500D01*
X65913000Y-64262000D02*
X64643000Y-62992000D01*
G04 #@! TO.N,/A4*
X63373000Y-61722000D02*
X63373000Y-56489500D01*
G04 #@! TO.N,/A5*
X62103000Y-62992000D02*
X62103000Y-56489500D01*
X63373000Y-64262000D02*
X62103000Y-62992000D01*
G04 #@! TO.N,/A6*
X60833000Y-61722000D02*
X60833000Y-56489500D01*
G04 #@! TO.N,/A7*
X59563000Y-62992000D02*
X59563000Y-56489500D01*
X60833000Y-64262000D02*
X59563000Y-62992000D01*
G04 #@! TO.N,/A8*
X62103000Y-50927000D02*
X62103000Y-45364500D01*
G04 #@! TO.N,/A9*
X63373000Y-50927000D02*
X63373000Y-45364500D01*
G04 #@! TO.N,/BUSRESET*
X100215699Y-61019301D02*
X104303000Y-56932000D01*
X104303000Y-56932000D02*
X104303000Y-56807000D01*
X100215699Y-62300107D02*
X100215699Y-61019301D01*
X99536505Y-62979301D02*
X100215699Y-62300107D01*
X97650301Y-62979301D02*
X99536505Y-62979301D01*
X96393000Y-61722000D02*
X97650301Y-62979301D01*
X104303000Y-55651000D02*
X104303000Y-48857000D01*
X104303000Y-56807000D02*
X104303000Y-55651000D01*
G04 #@! TO.N,/D0*
X79476599Y-62585599D02*
X78613000Y-61722000D01*
X79870301Y-64865505D02*
X79870301Y-62979301D01*
X78619596Y-66116210D02*
X79870301Y-64865505D01*
X70986404Y-66116210D02*
X78619596Y-66116210D01*
X69723000Y-64852806D02*
X70986404Y-66116210D01*
X79870301Y-62979301D02*
X79476599Y-62585599D01*
X69723000Y-56489500D02*
X69723000Y-64852806D01*
G04 #@! TO.N,/D1*
X71480500Y-54737000D02*
X73533000Y-54737000D01*
X74815699Y-64865505D02*
X75482194Y-65532000D01*
X73533000Y-54737000D02*
X74815699Y-56019699D01*
X74815699Y-56019699D02*
X74815699Y-64865505D01*
X77343000Y-65532000D02*
X78613000Y-64262000D01*
X75482194Y-65532000D02*
X77343000Y-65532000D01*
G04 #@! TO.N,/D2*
X71480500Y-53467000D02*
X73533000Y-53467000D01*
X73533000Y-53467000D02*
X76073000Y-56007000D01*
X76073000Y-56007000D02*
X76073000Y-61722000D01*
G04 #@! TO.N,/D3*
X76936599Y-63398401D02*
X76073000Y-64262000D01*
X77330301Y-56019699D02*
X77330301Y-63004699D01*
X77343000Y-56007000D02*
X77330301Y-56019699D01*
X77330301Y-63004699D02*
X76936599Y-63398401D01*
X71480500Y-50927000D02*
X72263000Y-50927000D01*
X72263000Y-50927000D02*
X77343000Y-56007000D01*
G04 #@! TO.N,/D4*
X72263000Y-49657000D02*
X71480500Y-49657000D01*
X76073000Y-52832000D02*
X75438000Y-52832000D01*
X75438000Y-52832000D02*
X72263000Y-49657000D01*
G04 #@! TO.N,/D5*
X72263000Y-48387000D02*
X71480500Y-48387000D01*
X75438000Y-51562000D02*
X72263000Y-48387000D01*
X76073000Y-51562000D02*
X75438000Y-51562000D01*
G04 #@! TO.N,/D6*
X71480500Y-47117000D02*
X72263000Y-47117000D01*
X75438000Y-50292000D02*
X76073000Y-50292000D01*
X72263000Y-47117000D02*
X75438000Y-50292000D01*
G04 #@! TO.N,/D7*
X76073000Y-47752000D02*
X73685500Y-45364500D01*
X73685500Y-45364500D02*
X69723000Y-45364500D01*
G04 #@! TO.N,/Q0*
X59563000Y-44577000D02*
X59563000Y-45364500D01*
X73736200Y-43942000D02*
X60198000Y-43942000D01*
X81864200Y-52070000D02*
X73736200Y-43942000D01*
X60198000Y-43942000D02*
X59563000Y-44577000D01*
X85852000Y-52070000D02*
X81864200Y-52070000D01*
G04 #@! TO.N,/Q1*
X88138000Y-49022000D02*
X87503000Y-48387000D01*
X81788000Y-48387000D02*
X75488790Y-42087790D01*
X88138000Y-53340000D02*
X88138000Y-49022000D01*
X75488790Y-42087790D02*
X58293000Y-42087790D01*
X87503000Y-48387000D02*
X81788000Y-48387000D01*
X54864000Y-45516790D02*
X54864000Y-52070000D01*
X58293000Y-42087790D02*
X54864000Y-45516790D01*
X56261000Y-53467000D02*
X54864000Y-52070000D01*
X57805500Y-53467000D02*
X56261000Y-53467000D01*
G04 #@! TO.N,/Q2*
X57805500Y-52197000D02*
X67818000Y-52197000D01*
X69723000Y-47117000D02*
X70416710Y-46423290D01*
X67818000Y-52197000D02*
X69723000Y-50292000D01*
X69723000Y-47752000D02*
X69723000Y-47117000D01*
X69723000Y-50292000D02*
X69723000Y-47752000D01*
X70891290Y-45948710D02*
X69723000Y-47117000D01*
X86156799Y-53035201D02*
X81788000Y-53035201D01*
X72364710Y-45948710D02*
X70891290Y-45948710D01*
X87122000Y-52070000D02*
X86156799Y-53035201D01*
X81788000Y-53035201D02*
X77774799Y-49022000D01*
X77774799Y-49022000D02*
X75438000Y-49022000D01*
X75438000Y-49022000D02*
X72364710Y-45948710D01*
G04 #@! TO.N,/Q3*
X57805500Y-44429500D02*
X57805500Y-47117000D01*
X58928000Y-43307000D02*
X57805500Y-44429500D01*
X74168000Y-43307000D02*
X58928000Y-43307000D01*
X81661000Y-50800000D02*
X74168000Y-43307000D01*
X87122000Y-50800000D02*
X81661000Y-50800000D01*
G04 #@! TO.N,/Q4*
X56388000Y-50927000D02*
X57805500Y-50927000D01*
X87122000Y-49530000D02*
X81661000Y-49530000D01*
X81661000Y-49530000D02*
X74803000Y-42672000D01*
X55561804Y-50100804D02*
X56388000Y-50927000D01*
X74803000Y-42672000D02*
X58736804Y-42672000D01*
X58736804Y-42672000D02*
X55561804Y-45847000D01*
X55561804Y-45847000D02*
X55561804Y-50100804D01*
G04 #@! TO.N,/R0EN*
X108889701Y-35255299D02*
X110236000Y-33909000D01*
X101269701Y-35255299D02*
X108889701Y-35255299D01*
X98552000Y-37973000D02*
X101269701Y-35255299D01*
G04 #@! TO.N,/R7EN*
X104786630Y-40767000D02*
X99949000Y-40767000D01*
X109104630Y-36449000D02*
X104786630Y-40767000D01*
X110236000Y-36449000D02*
X109104630Y-36449000D01*
X98552000Y-40767000D02*
X99949000Y-40767000D01*
G04 #@! TO.N,/ROMACC*
X89535000Y-36830000D02*
X90028000Y-36830000D01*
X84328000Y-42037000D02*
X89535000Y-36830000D01*
X90028000Y-36830000D02*
X90028000Y-34544000D01*
G04 #@! TO.N,GND*
X108803000Y-57963000D02*
X108803000Y-56807000D01*
X107835699Y-58930301D02*
X108803000Y-57963000D01*
X107835699Y-63004699D02*
X107835699Y-58930301D01*
X109093000Y-64262000D02*
X107835699Y-63004699D01*
X108803000Y-55651000D02*
X108803000Y-48857000D01*
X108803000Y-56807000D02*
X108803000Y-55651000D01*
X48133000Y-61722000D02*
X48133000Y-54142000D01*
X52578000Y-48565630D02*
X52578000Y-49697000D01*
X52578000Y-46976594D02*
X52578000Y-48565630D01*
X70358000Y-52197000D02*
X68453000Y-54102000D01*
X71480500Y-52197000D02*
X70358000Y-52197000D01*
X48996599Y-62585599D02*
X48133000Y-61722000D01*
X60198000Y-54102000D02*
X54470301Y-59829699D01*
X53816505Y-62979301D02*
X49390301Y-62979301D01*
X68453000Y-54102000D02*
X60198000Y-54102000D01*
X54470301Y-59829699D02*
X54470301Y-62325505D01*
X54470301Y-62325505D02*
X53816505Y-62979301D01*
X49390301Y-62979301D02*
X48996599Y-62585599D01*
X94948878Y-44910878D02*
X94996000Y-44958000D01*
X82502878Y-44910878D02*
X94948878Y-44910878D01*
X72898000Y-34497000D02*
X67357000Y-34497000D01*
X94488000Y-29972000D02*
X83566000Y-29972000D01*
X96824701Y-27635299D02*
X94932499Y-29527501D01*
X94932499Y-29527501D02*
X94488000Y-29972000D01*
X103835299Y-27635299D02*
X96824701Y-27635299D01*
X105283000Y-29083000D02*
X103835299Y-27635299D01*
X59229000Y-34497000D02*
X57912000Y-35814000D01*
X72898000Y-34497000D02*
X59229000Y-34497000D01*
G04 #@! TO.N,MREQ*
X80391000Y-38790000D02*
X76098000Y-34497000D01*
X80391000Y-40767000D02*
X80391000Y-38790000D01*
G04 #@! TO.N,ROMDIS*
X102755699Y-61118495D02*
X106553000Y-57321194D01*
X101473000Y-64262000D02*
X102755699Y-62979301D01*
X102755699Y-62979301D02*
X102755699Y-61118495D01*
X106553000Y-48768000D02*
X106553000Y-47371000D01*
X106553000Y-48768000D02*
X106553000Y-47117000D01*
X106553000Y-57321194D02*
X106553000Y-48768000D01*
X107558000Y-44704000D02*
X106553000Y-45709000D01*
X106553000Y-45709000D02*
X106553000Y-47117000D01*
X108839000Y-44704000D02*
X107558000Y-44704000D01*
G04 #@! TO.N,ROMEN*
X65913000Y-45364500D02*
X65913000Y-47117000D01*
X98933000Y-58674000D02*
X98933000Y-61722000D01*
X98933000Y-58547000D02*
X98933000Y-58674000D01*
X87648822Y-47262822D02*
X98933000Y-58547000D01*
X82042000Y-47262822D02*
X87648822Y-47262822D01*
X76098000Y-39497000D02*
X76098000Y-41318822D01*
X76098000Y-41318822D02*
X82042000Y-47262822D01*
G04 #@! TO.N,VCC*
X78168501Y-41592501D02*
X79692499Y-43116499D01*
X59563000Y-49657000D02*
X57805500Y-49657000D01*
X79883000Y-43307000D02*
X78168501Y-41592501D01*
X80010000Y-43434000D02*
X79883000Y-43307000D01*
X83489799Y-43256201D02*
X83312000Y-43434000D01*
X83489799Y-41402000D02*
X83489799Y-43256201D01*
X87630000Y-37261799D02*
X83489799Y-41402000D01*
X87630000Y-36068000D02*
X87630000Y-37261799D01*
X89662000Y-43434000D02*
X83312000Y-43434000D01*
X83312000Y-43434000D02*
X80010000Y-43434000D01*
X74079000Y-39497000D02*
X75349000Y-38227000D01*
X72898000Y-39497000D02*
X74079000Y-39497000D01*
X78168501Y-40963884D02*
X78168501Y-41592501D01*
X78168501Y-39800823D02*
X78168501Y-40963884D01*
X76594678Y-38227000D02*
X78168501Y-39800823D01*
X75349000Y-38227000D02*
X76594678Y-38227000D01*
X89535000Y-43434000D02*
X89662000Y-43434000D01*
X97790000Y-43434000D02*
X94996000Y-43434000D01*
X97790000Y-43434000D02*
X89535000Y-43434000D01*
G04 #@! TO.N,Net-(JP3-Pad1)*
X91928000Y-36830000D02*
X91328000Y-36830000D01*
X96647000Y-36830000D02*
X91928000Y-36830000D01*
G04 #@! TO.N,Net-(JP4-Pad1)*
X93218000Y-34544000D02*
X91328000Y-34544000D01*
G04 #@! TO.N,Net-(D13-Pad2)*
X94077538Y-33020000D02*
X89154000Y-33020000D01*
X98806000Y-42291000D02*
X98009265Y-42291000D01*
X97129589Y-41411324D02*
X97129589Y-38125411D01*
X101219000Y-44704000D02*
X98806000Y-42291000D01*
X98009265Y-42291000D02*
X97129589Y-41411324D01*
X97536000Y-36478462D02*
X94077538Y-33020000D01*
X97129589Y-38125411D02*
X97536000Y-37719000D01*
X89154000Y-33020000D02*
X68580000Y-33020000D01*
X97536000Y-37719000D02*
X97536000Y-36478462D01*
G04 #@! TO.N,/SWACC*
X109436001Y-32168999D02*
X110236000Y-31369000D01*
X109042299Y-32562701D02*
X109436001Y-32168999D01*
X98183799Y-32562701D02*
X98171000Y-32575500D01*
X100203000Y-32562701D02*
X109042299Y-32562701D01*
X100203000Y-32562701D02*
X98183799Y-32562701D01*
G04 #@! TO.N,Net-(SW2-Pad4)*
X101434224Y-36449000D02*
X102616000Y-36449000D01*
X97713799Y-40169425D02*
X101434224Y-36449000D01*
X96774000Y-48387000D02*
X99822000Y-48387000D01*
X99822000Y-48387000D02*
X102743000Y-45466000D01*
X97713799Y-41169337D02*
X97713799Y-40169425D01*
X98251252Y-41706790D02*
X97713799Y-41169337D01*
X102743000Y-43688000D02*
X100761790Y-41706790D01*
X102743000Y-45466000D02*
X102743000Y-43688000D01*
X100761790Y-41706790D02*
X98251252Y-41706790D01*
G04 #@! TD*
D25*
G04 #@! TO.N,GND*
G36*
X109105700Y-64249300D02*
X109125700Y-64249300D01*
X109125700Y-64274700D01*
X109105700Y-64274700D01*
X109105700Y-64294700D01*
X109080300Y-64294700D01*
X109080300Y-64274700D01*
X109060300Y-64274700D01*
X109060300Y-64249300D01*
X109080300Y-64249300D01*
X109080300Y-64229300D01*
X109105700Y-64229300D01*
X109105700Y-64249300D01*
X109105700Y-64249300D01*
G37*
X109105700Y-64249300D02*
X109125700Y-64249300D01*
X109125700Y-64274700D01*
X109105700Y-64274700D01*
X109105700Y-64294700D01*
X109080300Y-64294700D01*
X109080300Y-64274700D01*
X109060300Y-64274700D01*
X109060300Y-64249300D01*
X109080300Y-64249300D01*
X109080300Y-64229300D01*
X109105700Y-64229300D01*
X109105700Y-64249300D01*
G36*
X100534069Y-28029000D02*
X100534069Y-29629000D01*
X100631650Y-30119574D01*
X100804099Y-30377662D01*
X100678067Y-30566282D01*
X100568940Y-31114901D01*
X99091819Y-31114901D01*
X98509509Y-30873700D01*
X97832491Y-30873700D01*
X97207008Y-31132784D01*
X96728284Y-31611508D01*
X96469200Y-32236991D01*
X96469200Y-32914009D01*
X96728284Y-33539492D01*
X97207008Y-34018216D01*
X97832491Y-34277300D01*
X98509509Y-34277300D01*
X99134992Y-34018216D01*
X99142707Y-34010501D01*
X100526701Y-34010501D01*
X100225895Y-34211493D01*
X100145120Y-34332381D01*
X98765274Y-35712228D01*
X98579806Y-35434656D01*
X98458916Y-35353880D01*
X95202122Y-32097087D01*
X95121344Y-31976194D01*
X94642442Y-31656202D01*
X94220134Y-31572200D01*
X94077538Y-31543836D01*
X93934942Y-31572200D01*
X69531718Y-31572200D01*
X68918509Y-31318200D01*
X68241491Y-31318200D01*
X67616008Y-31577284D01*
X67137284Y-32056008D01*
X66878200Y-32681491D01*
X66878200Y-33358509D01*
X66941700Y-33511811D01*
X66941700Y-36131870D01*
X66906069Y-36311000D01*
X66906069Y-38111000D01*
X66941700Y-38290130D01*
X66941700Y-39295330D01*
X66930700Y-39321886D01*
X66930700Y-40180114D01*
X66941700Y-40206670D01*
X66941700Y-40639990D01*
X58435595Y-40639990D01*
X58292999Y-40611626D01*
X57728096Y-40723992D01*
X57249194Y-41043984D01*
X57168418Y-41164874D01*
X53941085Y-44392208D01*
X53820194Y-44472985D01*
X53518781Y-44924082D01*
X53500202Y-44951887D01*
X53387836Y-45516790D01*
X53416200Y-45659386D01*
X53416200Y-48096974D01*
X52994859Y-47906251D01*
X52277837Y-47883038D01*
X51606512Y-48135985D01*
X51507582Y-48202089D01*
X51464269Y-48565309D01*
X52578000Y-49679039D01*
X52592142Y-49664897D01*
X52610103Y-49682858D01*
X52595961Y-49697000D01*
X52610103Y-49711142D01*
X52592142Y-49729103D01*
X52578000Y-49714961D01*
X52563858Y-49729103D01*
X52545897Y-49711142D01*
X52560039Y-49697000D01*
X51446309Y-48583269D01*
X51083089Y-48626582D01*
X50787251Y-49280141D01*
X50764038Y-49997163D01*
X50934168Y-50448690D01*
X50871538Y-50490538D01*
X50593650Y-50906426D01*
X50496069Y-51397000D01*
X50496069Y-52997000D01*
X50593650Y-53487574D01*
X50871538Y-53903462D01*
X51287426Y-54181350D01*
X51778000Y-54278931D01*
X53378000Y-54278931D01*
X53868574Y-54181350D01*
X54284462Y-53903462D01*
X54430862Y-53684359D01*
X55136417Y-54389915D01*
X55217194Y-54510806D01*
X55674195Y-54816164D01*
X55676978Y-54818024D01*
X52290085Y-58204918D01*
X52169195Y-58285694D01*
X51994596Y-58547000D01*
X51849202Y-58764597D01*
X51736836Y-59329500D01*
X51765201Y-59472100D01*
X51765201Y-59901002D01*
X51500534Y-59724157D01*
X50881886Y-59601100D01*
X50464114Y-59601100D01*
X49845466Y-59724157D01*
X49164584Y-60179108D01*
X48556460Y-59903759D01*
X48437584Y-59880114D01*
X48145700Y-60105975D01*
X48145700Y-61709300D01*
X48165700Y-61709300D01*
X48165700Y-61734700D01*
X48145700Y-61734700D01*
X48145700Y-61754700D01*
X48120300Y-61754700D01*
X48120300Y-61734700D01*
X48100300Y-61734700D01*
X48100300Y-61709300D01*
X48120300Y-61709300D01*
X48120300Y-60105975D01*
X47828416Y-59880114D01*
X47709540Y-59903759D01*
X47045963Y-60204216D01*
X47040800Y-60209726D01*
X47040800Y-34381697D01*
X53812698Y-27609800D01*
X100617453Y-27609800D01*
X100534069Y-28029000D01*
X100534069Y-28029000D01*
G37*
X100534069Y-28029000D02*
X100534069Y-29629000D01*
X100631650Y-30119574D01*
X100804099Y-30377662D01*
X100678067Y-30566282D01*
X100568940Y-31114901D01*
X99091819Y-31114901D01*
X98509509Y-30873700D01*
X97832491Y-30873700D01*
X97207008Y-31132784D01*
X96728284Y-31611508D01*
X96469200Y-32236991D01*
X96469200Y-32914009D01*
X96728284Y-33539492D01*
X97207008Y-34018216D01*
X97832491Y-34277300D01*
X98509509Y-34277300D01*
X99134992Y-34018216D01*
X99142707Y-34010501D01*
X100526701Y-34010501D01*
X100225895Y-34211493D01*
X100145120Y-34332381D01*
X98765274Y-35712228D01*
X98579806Y-35434656D01*
X98458916Y-35353880D01*
X95202122Y-32097087D01*
X95121344Y-31976194D01*
X94642442Y-31656202D01*
X94220134Y-31572200D01*
X94077538Y-31543836D01*
X93934942Y-31572200D01*
X69531718Y-31572200D01*
X68918509Y-31318200D01*
X68241491Y-31318200D01*
X67616008Y-31577284D01*
X67137284Y-32056008D01*
X66878200Y-32681491D01*
X66878200Y-33358509D01*
X66941700Y-33511811D01*
X66941700Y-36131870D01*
X66906069Y-36311000D01*
X66906069Y-38111000D01*
X66941700Y-38290130D01*
X66941700Y-39295330D01*
X66930700Y-39321886D01*
X66930700Y-40180114D01*
X66941700Y-40206670D01*
X66941700Y-40639990D01*
X58435595Y-40639990D01*
X58292999Y-40611626D01*
X57728096Y-40723992D01*
X57249194Y-41043984D01*
X57168418Y-41164874D01*
X53941085Y-44392208D01*
X53820194Y-44472985D01*
X53518781Y-44924082D01*
X53500202Y-44951887D01*
X53387836Y-45516790D01*
X53416200Y-45659386D01*
X53416200Y-48096974D01*
X52994859Y-47906251D01*
X52277837Y-47883038D01*
X51606512Y-48135985D01*
X51507582Y-48202089D01*
X51464269Y-48565309D01*
X52578000Y-49679039D01*
X52592142Y-49664897D01*
X52610103Y-49682858D01*
X52595961Y-49697000D01*
X52610103Y-49711142D01*
X52592142Y-49729103D01*
X52578000Y-49714961D01*
X52563858Y-49729103D01*
X52545897Y-49711142D01*
X52560039Y-49697000D01*
X51446309Y-48583269D01*
X51083089Y-48626582D01*
X50787251Y-49280141D01*
X50764038Y-49997163D01*
X50934168Y-50448690D01*
X50871538Y-50490538D01*
X50593650Y-50906426D01*
X50496069Y-51397000D01*
X50496069Y-52997000D01*
X50593650Y-53487574D01*
X50871538Y-53903462D01*
X51287426Y-54181350D01*
X51778000Y-54278931D01*
X53378000Y-54278931D01*
X53868574Y-54181350D01*
X54284462Y-53903462D01*
X54430862Y-53684359D01*
X55136417Y-54389915D01*
X55217194Y-54510806D01*
X55674195Y-54816164D01*
X55676978Y-54818024D01*
X52290085Y-58204918D01*
X52169195Y-58285694D01*
X51994596Y-58547000D01*
X51849202Y-58764597D01*
X51736836Y-59329500D01*
X51765201Y-59472100D01*
X51765201Y-59901002D01*
X51500534Y-59724157D01*
X50881886Y-59601100D01*
X50464114Y-59601100D01*
X49845466Y-59724157D01*
X49164584Y-60179108D01*
X48556460Y-59903759D01*
X48437584Y-59880114D01*
X48145700Y-60105975D01*
X48145700Y-61709300D01*
X48165700Y-61709300D01*
X48165700Y-61734700D01*
X48145700Y-61734700D01*
X48145700Y-61754700D01*
X48120300Y-61754700D01*
X48120300Y-61734700D01*
X48100300Y-61734700D01*
X48100300Y-61709300D01*
X48120300Y-61709300D01*
X48120300Y-60105975D01*
X47828416Y-59880114D01*
X47709540Y-59903759D01*
X47045963Y-60204216D01*
X47040800Y-60209726D01*
X47040800Y-34381697D01*
X53812698Y-27609800D01*
X100617453Y-27609800D01*
X100534069Y-28029000D01*
G36*
X110185200Y-47395319D02*
X110021324Y-47231443D01*
X109652569Y-47078700D01*
X109066525Y-47078700D01*
X108815700Y-47329525D01*
X108815700Y-48844300D01*
X108835700Y-48844300D01*
X108835700Y-48869700D01*
X108815700Y-48869700D01*
X108815700Y-50384475D01*
X109066525Y-50635300D01*
X109652569Y-50635300D01*
X110021324Y-50482557D01*
X110185200Y-50318681D01*
X110185200Y-55345319D01*
X110021324Y-55181443D01*
X109652569Y-55028700D01*
X109066525Y-55028700D01*
X108815700Y-55279525D01*
X108815700Y-56794300D01*
X108835700Y-56794300D01*
X108835700Y-56819700D01*
X108815700Y-56819700D01*
X108815700Y-58334475D01*
X109066525Y-58585300D01*
X109652569Y-58585300D01*
X110021324Y-58432557D01*
X110185200Y-58268681D01*
X110185200Y-59901001D01*
X109920534Y-59724157D01*
X109301886Y-59601100D01*
X108884114Y-59601100D01*
X108265466Y-59724157D01*
X107823000Y-60019803D01*
X107380534Y-59724157D01*
X106761886Y-59601100D01*
X106344114Y-59601100D01*
X106314752Y-59606941D01*
X107475920Y-58445772D01*
X107549037Y-58396918D01*
X107584676Y-58432557D01*
X107953431Y-58585300D01*
X108539475Y-58585300D01*
X108790300Y-58334475D01*
X108790300Y-56819700D01*
X108770300Y-56819700D01*
X108770300Y-56794300D01*
X108790300Y-56794300D01*
X108790300Y-55279525D01*
X108539475Y-55028700D01*
X108000800Y-55028700D01*
X108000800Y-50635300D01*
X108539475Y-50635300D01*
X108790300Y-50384475D01*
X108790300Y-48869700D01*
X108770300Y-48869700D01*
X108770300Y-48844300D01*
X108790300Y-48844300D01*
X108790300Y-47329525D01*
X108539475Y-47078700D01*
X108000800Y-47078700D01*
X108000800Y-46885931D01*
X109739000Y-46885931D01*
X110185201Y-46797176D01*
X110185200Y-47395319D01*
X110185200Y-47395319D01*
G37*
X110185200Y-47395319D02*
X110021324Y-47231443D01*
X109652569Y-47078700D01*
X109066525Y-47078700D01*
X108815700Y-47329525D01*
X108815700Y-48844300D01*
X108835700Y-48844300D01*
X108835700Y-48869700D01*
X108815700Y-48869700D01*
X108815700Y-50384475D01*
X109066525Y-50635300D01*
X109652569Y-50635300D01*
X110021324Y-50482557D01*
X110185200Y-50318681D01*
X110185200Y-55345319D01*
X110021324Y-55181443D01*
X109652569Y-55028700D01*
X109066525Y-55028700D01*
X108815700Y-55279525D01*
X108815700Y-56794300D01*
X108835700Y-56794300D01*
X108835700Y-56819700D01*
X108815700Y-56819700D01*
X108815700Y-58334475D01*
X109066525Y-58585300D01*
X109652569Y-58585300D01*
X110021324Y-58432557D01*
X110185200Y-58268681D01*
X110185200Y-59901001D01*
X109920534Y-59724157D01*
X109301886Y-59601100D01*
X108884114Y-59601100D01*
X108265466Y-59724157D01*
X107823000Y-60019803D01*
X107380534Y-59724157D01*
X106761886Y-59601100D01*
X106344114Y-59601100D01*
X106314752Y-59606941D01*
X107475920Y-58445772D01*
X107549037Y-58396918D01*
X107584676Y-58432557D01*
X107953431Y-58585300D01*
X108539475Y-58585300D01*
X108790300Y-58334475D01*
X108790300Y-56819700D01*
X108770300Y-56819700D01*
X108770300Y-56794300D01*
X108790300Y-56794300D01*
X108790300Y-55279525D01*
X108539475Y-55028700D01*
X108000800Y-55028700D01*
X108000800Y-50635300D01*
X108539475Y-50635300D01*
X108790300Y-50384475D01*
X108790300Y-48869700D01*
X108770300Y-48869700D01*
X108770300Y-48844300D01*
X108790300Y-48844300D01*
X108790300Y-47329525D01*
X108539475Y-47078700D01*
X108000800Y-47078700D01*
X108000800Y-46885931D01*
X109739000Y-46885931D01*
X110185201Y-46797176D01*
X110185200Y-47395319D01*
G36*
X57981069Y-57139500D02*
X58090068Y-57687476D01*
X58115201Y-57725090D01*
X58115201Y-59601100D01*
X58084114Y-59601100D01*
X57465466Y-59724157D01*
X57023000Y-60019803D01*
X56580534Y-59724157D01*
X55961886Y-59601100D01*
X55544114Y-59601100D01*
X54925466Y-59724157D01*
X54745773Y-59844224D01*
X57981069Y-56608929D01*
X57981069Y-57139500D01*
X57981069Y-57139500D01*
G37*
X57981069Y-57139500D02*
X58090068Y-57687476D01*
X58115201Y-57725090D01*
X58115201Y-59601100D01*
X58084114Y-59601100D01*
X57465466Y-59724157D01*
X57023000Y-60019803D01*
X56580534Y-59724157D01*
X55961886Y-59601100D01*
X55544114Y-59601100D01*
X54925466Y-59724157D01*
X54745773Y-59844224D01*
X57981069Y-56608929D01*
X57981069Y-57139500D01*
G36*
X99019436Y-44704000D02*
X99186868Y-45545737D01*
X99663673Y-46259327D01*
X99806645Y-46354858D01*
X99222303Y-46939200D01*
X97725718Y-46939200D01*
X97112509Y-46685200D01*
X96435491Y-46685200D01*
X95810008Y-46944284D01*
X95331284Y-47423008D01*
X95072200Y-48048491D01*
X95072200Y-48725509D01*
X95331284Y-49350992D01*
X95810008Y-49829716D01*
X96435491Y-50088800D01*
X97112509Y-50088800D01*
X97725718Y-49834800D01*
X99679404Y-49834800D01*
X99822000Y-49863164D01*
X99964596Y-49834800D01*
X100386904Y-49750798D01*
X100865806Y-49430806D01*
X100946584Y-49309913D01*
X102419878Y-47836619D01*
X102371069Y-48082000D01*
X102371069Y-49632000D01*
X102468650Y-50122574D01*
X102746538Y-50538462D01*
X102855201Y-50611068D01*
X102855200Y-55052932D01*
X102746538Y-55125538D01*
X102468650Y-55541426D01*
X102371069Y-56032000D01*
X102371069Y-56816432D01*
X100380800Y-58806702D01*
X100380800Y-58689596D01*
X100409164Y-58547000D01*
X100296798Y-57982096D01*
X100057580Y-57624081D01*
X100057578Y-57624079D01*
X99976805Y-57503194D01*
X99855921Y-57422422D01*
X88773406Y-46339909D01*
X88692628Y-46219016D01*
X88213726Y-45899024D01*
X87791418Y-45815022D01*
X87648822Y-45786658D01*
X87506226Y-45815022D01*
X82641698Y-45815022D01*
X81708476Y-44881800D01*
X83169404Y-44881800D01*
X83312000Y-44910164D01*
X83454596Y-44881800D01*
X88710282Y-44881800D01*
X89323491Y-45135800D01*
X90000509Y-45135800D01*
X90613718Y-44881800D01*
X96838282Y-44881800D01*
X97451491Y-45135800D01*
X98128509Y-45135800D01*
X98753992Y-44876716D01*
X99042461Y-44588247D01*
X99019436Y-44704000D01*
X99019436Y-44704000D01*
G37*
X99019436Y-44704000D02*
X99186868Y-45545737D01*
X99663673Y-46259327D01*
X99806645Y-46354858D01*
X99222303Y-46939200D01*
X97725718Y-46939200D01*
X97112509Y-46685200D01*
X96435491Y-46685200D01*
X95810008Y-46944284D01*
X95331284Y-47423008D01*
X95072200Y-48048491D01*
X95072200Y-48725509D01*
X95331284Y-49350992D01*
X95810008Y-49829716D01*
X96435491Y-50088800D01*
X97112509Y-50088800D01*
X97725718Y-49834800D01*
X99679404Y-49834800D01*
X99822000Y-49863164D01*
X99964596Y-49834800D01*
X100386904Y-49750798D01*
X100865806Y-49430806D01*
X100946584Y-49309913D01*
X102419878Y-47836619D01*
X102371069Y-48082000D01*
X102371069Y-49632000D01*
X102468650Y-50122574D01*
X102746538Y-50538462D01*
X102855201Y-50611068D01*
X102855200Y-55052932D01*
X102746538Y-55125538D01*
X102468650Y-55541426D01*
X102371069Y-56032000D01*
X102371069Y-56816432D01*
X100380800Y-58806702D01*
X100380800Y-58689596D01*
X100409164Y-58547000D01*
X100296798Y-57982096D01*
X100057580Y-57624081D01*
X100057578Y-57624079D01*
X99976805Y-57503194D01*
X99855921Y-57422422D01*
X88773406Y-46339909D01*
X88692628Y-46219016D01*
X88213726Y-45899024D01*
X87791418Y-45815022D01*
X87648822Y-45786658D01*
X87506226Y-45815022D01*
X82641698Y-45815022D01*
X81708476Y-44881800D01*
X83169404Y-44881800D01*
X83312000Y-44910164D01*
X83454596Y-44881800D01*
X88710282Y-44881800D01*
X89323491Y-45135800D01*
X90000509Y-45135800D01*
X90613718Y-44881800D01*
X96838282Y-44881800D01*
X97451491Y-45135800D01*
X98128509Y-45135800D01*
X98753992Y-44876716D01*
X99042461Y-44588247D01*
X99019436Y-44704000D01*
G36*
X69864024Y-52273701D02*
X69817972Y-52304472D01*
X69787201Y-52350524D01*
X69677200Y-52460525D01*
X69677200Y-52515152D01*
X69507568Y-52769024D01*
X69398569Y-53317000D01*
X69398569Y-53617000D01*
X69495041Y-54102000D01*
X69428544Y-54436303D01*
X69088000Y-54504041D01*
X68603000Y-54407569D01*
X68303000Y-54407569D01*
X67818000Y-54504041D01*
X67333000Y-54407569D01*
X67033000Y-54407569D01*
X66548000Y-54504041D01*
X66063000Y-54407569D01*
X65763000Y-54407569D01*
X65278000Y-54504041D01*
X64793000Y-54407569D01*
X64493000Y-54407569D01*
X64008000Y-54504041D01*
X63523000Y-54407569D01*
X63223000Y-54407569D01*
X62738000Y-54504041D01*
X62253000Y-54407569D01*
X61953000Y-54407569D01*
X61468000Y-54504041D01*
X60983000Y-54407569D01*
X60683000Y-54407569D01*
X60198000Y-54504041D01*
X59857456Y-54436303D01*
X59790959Y-54102000D01*
X59881901Y-53644800D01*
X67675404Y-53644800D01*
X67818000Y-53673164D01*
X67960596Y-53644800D01*
X68382904Y-53560798D01*
X68861806Y-53240806D01*
X68942584Y-53119913D01*
X69852795Y-52209702D01*
X69928023Y-52209702D01*
X69864024Y-52273701D01*
X69864024Y-52273701D01*
G37*
X69864024Y-52273701D02*
X69817972Y-52304472D01*
X69787201Y-52350524D01*
X69677200Y-52460525D01*
X69677200Y-52515152D01*
X69507568Y-52769024D01*
X69398569Y-53317000D01*
X69398569Y-53617000D01*
X69495041Y-54102000D01*
X69428544Y-54436303D01*
X69088000Y-54504041D01*
X68603000Y-54407569D01*
X68303000Y-54407569D01*
X67818000Y-54504041D01*
X67333000Y-54407569D01*
X67033000Y-54407569D01*
X66548000Y-54504041D01*
X66063000Y-54407569D01*
X65763000Y-54407569D01*
X65278000Y-54504041D01*
X64793000Y-54407569D01*
X64493000Y-54407569D01*
X64008000Y-54504041D01*
X63523000Y-54407569D01*
X63223000Y-54407569D01*
X62738000Y-54504041D01*
X62253000Y-54407569D01*
X61953000Y-54407569D01*
X61468000Y-54504041D01*
X60983000Y-54407569D01*
X60683000Y-54407569D01*
X60198000Y-54504041D01*
X59857456Y-54436303D01*
X59790959Y-54102000D01*
X59881901Y-53644800D01*
X67675404Y-53644800D01*
X67818000Y-53673164D01*
X67960596Y-53644800D01*
X68382904Y-53560798D01*
X68861806Y-53240806D01*
X68942584Y-53119913D01*
X69852795Y-52209702D01*
X69928023Y-52209702D01*
X69864024Y-52273701D01*
G36*
X69928023Y-52184298D02*
X69878199Y-52184298D01*
X69903111Y-52159386D01*
X69928023Y-52184298D01*
X69928023Y-52184298D01*
G37*
X69928023Y-52184298D02*
X69878199Y-52184298D01*
X69903111Y-52159386D01*
X69928023Y-52184298D01*
G36*
X108298067Y-28026282D02*
X108138396Y-28829000D01*
X108298067Y-29631718D01*
X108610294Y-30099000D01*
X108298067Y-30566282D01*
X108188940Y-31114901D01*
X104663060Y-31114901D01*
X104553933Y-30566282D01*
X104427901Y-30377662D01*
X104600350Y-30119574D01*
X104697931Y-29629000D01*
X104697931Y-28029000D01*
X104614547Y-27609800D01*
X108576351Y-27609800D01*
X108298067Y-28026282D01*
X108298067Y-28026282D01*
G37*
X108298067Y-28026282D02*
X108138396Y-28829000D01*
X108298067Y-29631718D01*
X108610294Y-30099000D01*
X108298067Y-30566282D01*
X108188940Y-31114901D01*
X104663060Y-31114901D01*
X104553933Y-30566282D01*
X104427901Y-30377662D01*
X104600350Y-30119574D01*
X104697931Y-29629000D01*
X104697931Y-28029000D01*
X104614547Y-27609800D01*
X108576351Y-27609800D01*
X108298067Y-28026282D01*
G04 #@! TD*
M02*
