G04 #@! TF.GenerationSoftware,KiCad,Pcbnew,5.0.2+dfsg1-1*
G04 #@! TF.CreationDate,2021-01-23T15:11:15+01:00*
G04 #@! TF.ProjectId,ramcard,72616d63-6172-4642-9e6b-696361645f70,2021*
G04 #@! TF.SameCoordinates,Original*
G04 #@! TF.FileFunction,Soldermask,Top*
G04 #@! TF.FilePolarity,Negative*
%FSLAX46Y46*%
G04 Gerber Fmt 4.6, Leading zero omitted, Abs format (unit mm)*
G04 Created by KiCad (PCBNEW 5.0.2+dfsg1-1) date sam. 23 janv. 2021 15:11:15 CET*
%MOMM*%
%LPD*%
G01*
G04 APERTURE LIST*
%ADD10C,0.381000*%
%ADD11C,0.150000*%
G04 APERTURE END LIST*
D10*
X45593000Y-33782000D02*
X53213000Y-26162000D01*
X53213000Y-26162000D02*
X111633000Y-26162000D01*
X45593000Y-33782000D02*
X45593000Y-67437000D01*
X45593000Y-67437000D02*
X111633000Y-67437000D01*
X111633000Y-67437000D02*
X111633000Y-26162000D01*
D11*
G36*
X81262629Y-63149790D02*
X81372088Y-63160571D01*
X81527940Y-63207849D01*
X81582760Y-63224478D01*
X81776910Y-63328253D01*
X81947086Y-63467914D01*
X82086747Y-63638090D01*
X82190522Y-63832240D01*
X82190523Y-63832244D01*
X82254429Y-64042912D01*
X82276007Y-64262000D01*
X82254429Y-64481088D01*
X82207151Y-64636940D01*
X82190522Y-64691760D01*
X82086747Y-64885910D01*
X81947086Y-65056086D01*
X81776910Y-65195747D01*
X81582760Y-65299522D01*
X81527940Y-65316151D01*
X81372088Y-65363429D01*
X81262629Y-65374210D01*
X81207900Y-65379600D01*
X81098100Y-65379600D01*
X81043371Y-65374210D01*
X80933912Y-65363429D01*
X80778060Y-65316151D01*
X80723240Y-65299522D01*
X80529090Y-65195747D01*
X80358914Y-65056086D01*
X80219253Y-64885910D01*
X80115478Y-64691760D01*
X80098849Y-64636940D01*
X80051571Y-64481088D01*
X80029993Y-64262000D01*
X80051571Y-64042912D01*
X80115477Y-63832244D01*
X80115478Y-63832240D01*
X80219253Y-63638090D01*
X80358914Y-63467914D01*
X80529090Y-63328253D01*
X80723240Y-63224478D01*
X80778060Y-63207849D01*
X80933912Y-63160571D01*
X81043371Y-63149790D01*
X81098100Y-63144400D01*
X81207900Y-63144400D01*
X81262629Y-63149790D01*
X81262629Y-63149790D01*
G37*
G36*
X50782629Y-63149790D02*
X50892088Y-63160571D01*
X51047940Y-63207849D01*
X51102760Y-63224478D01*
X51296910Y-63328253D01*
X51467086Y-63467914D01*
X51606747Y-63638090D01*
X51710522Y-63832240D01*
X51710523Y-63832244D01*
X51774429Y-64042912D01*
X51796007Y-64262000D01*
X51774429Y-64481088D01*
X51727151Y-64636940D01*
X51710522Y-64691760D01*
X51606747Y-64885910D01*
X51467086Y-65056086D01*
X51296910Y-65195747D01*
X51102760Y-65299522D01*
X51047940Y-65316151D01*
X50892088Y-65363429D01*
X50782629Y-65374210D01*
X50727900Y-65379600D01*
X50618100Y-65379600D01*
X50563371Y-65374210D01*
X50453912Y-65363429D01*
X50298060Y-65316151D01*
X50243240Y-65299522D01*
X50049090Y-65195747D01*
X49878914Y-65056086D01*
X49739253Y-64885910D01*
X49635478Y-64691760D01*
X49618849Y-64636940D01*
X49571571Y-64481088D01*
X49549993Y-64262000D01*
X49571571Y-64042912D01*
X49635477Y-63832244D01*
X49635478Y-63832240D01*
X49739253Y-63638090D01*
X49878914Y-63467914D01*
X50049090Y-63328253D01*
X50243240Y-63224478D01*
X50298060Y-63207849D01*
X50453912Y-63160571D01*
X50563371Y-63149790D01*
X50618100Y-63144400D01*
X50727900Y-63144400D01*
X50782629Y-63149790D01*
X50782629Y-63149790D01*
G37*
G36*
X83802629Y-63149790D02*
X83912088Y-63160571D01*
X84067940Y-63207849D01*
X84122760Y-63224478D01*
X84316910Y-63328253D01*
X84487086Y-63467914D01*
X84626747Y-63638090D01*
X84730522Y-63832240D01*
X84730523Y-63832244D01*
X84794429Y-64042912D01*
X84816007Y-64262000D01*
X84794429Y-64481088D01*
X84747151Y-64636940D01*
X84730522Y-64691760D01*
X84626747Y-64885910D01*
X84487086Y-65056086D01*
X84316910Y-65195747D01*
X84122760Y-65299522D01*
X84067940Y-65316151D01*
X83912088Y-65363429D01*
X83802629Y-65374210D01*
X83747900Y-65379600D01*
X83638100Y-65379600D01*
X83583371Y-65374210D01*
X83473912Y-65363429D01*
X83318060Y-65316151D01*
X83263240Y-65299522D01*
X83069090Y-65195747D01*
X82898914Y-65056086D01*
X82759253Y-64885910D01*
X82655478Y-64691760D01*
X82638849Y-64636940D01*
X82591571Y-64481088D01*
X82569993Y-64262000D01*
X82591571Y-64042912D01*
X82655477Y-63832244D01*
X82655478Y-63832240D01*
X82759253Y-63638090D01*
X82898914Y-63467914D01*
X83069090Y-63328253D01*
X83263240Y-63224478D01*
X83318060Y-63207849D01*
X83473912Y-63160571D01*
X83583371Y-63149790D01*
X83638100Y-63144400D01*
X83747900Y-63144400D01*
X83802629Y-63149790D01*
X83802629Y-63149790D01*
G37*
G36*
X104122629Y-63149790D02*
X104232088Y-63160571D01*
X104387940Y-63207849D01*
X104442760Y-63224478D01*
X104636910Y-63328253D01*
X104807086Y-63467914D01*
X104946747Y-63638090D01*
X105050522Y-63832240D01*
X105050523Y-63832244D01*
X105114429Y-64042912D01*
X105136007Y-64262000D01*
X105114429Y-64481088D01*
X105067151Y-64636940D01*
X105050522Y-64691760D01*
X104946747Y-64885910D01*
X104807086Y-65056086D01*
X104636910Y-65195747D01*
X104442760Y-65299522D01*
X104387940Y-65316151D01*
X104232088Y-65363429D01*
X104122629Y-65374210D01*
X104067900Y-65379600D01*
X103958100Y-65379600D01*
X103903371Y-65374210D01*
X103793912Y-65363429D01*
X103638060Y-65316151D01*
X103583240Y-65299522D01*
X103389090Y-65195747D01*
X103218914Y-65056086D01*
X103079253Y-64885910D01*
X102975478Y-64691760D01*
X102958849Y-64636940D01*
X102911571Y-64481088D01*
X102889993Y-64262000D01*
X102911571Y-64042912D01*
X102975477Y-63832244D01*
X102975478Y-63832240D01*
X103079253Y-63638090D01*
X103218914Y-63467914D01*
X103389090Y-63328253D01*
X103583240Y-63224478D01*
X103638060Y-63207849D01*
X103793912Y-63160571D01*
X103903371Y-63149790D01*
X103958100Y-63144400D01*
X104067900Y-63144400D01*
X104122629Y-63149790D01*
X104122629Y-63149790D01*
G37*
G36*
X101582629Y-63149790D02*
X101692088Y-63160571D01*
X101847940Y-63207849D01*
X101902760Y-63224478D01*
X102096910Y-63328253D01*
X102267086Y-63467914D01*
X102406747Y-63638090D01*
X102510522Y-63832240D01*
X102510523Y-63832244D01*
X102574429Y-64042912D01*
X102596007Y-64262000D01*
X102574429Y-64481088D01*
X102527151Y-64636940D01*
X102510522Y-64691760D01*
X102406747Y-64885910D01*
X102267086Y-65056086D01*
X102096910Y-65195747D01*
X101902760Y-65299522D01*
X101847940Y-65316151D01*
X101692088Y-65363429D01*
X101582629Y-65374210D01*
X101527900Y-65379600D01*
X101418100Y-65379600D01*
X101363371Y-65374210D01*
X101253912Y-65363429D01*
X101098060Y-65316151D01*
X101043240Y-65299522D01*
X100849090Y-65195747D01*
X100678914Y-65056086D01*
X100539253Y-64885910D01*
X100435478Y-64691760D01*
X100418849Y-64636940D01*
X100371571Y-64481088D01*
X100349993Y-64262000D01*
X100371571Y-64042912D01*
X100435477Y-63832244D01*
X100435478Y-63832240D01*
X100539253Y-63638090D01*
X100678914Y-63467914D01*
X100849090Y-63328253D01*
X101043240Y-63224478D01*
X101098060Y-63207849D01*
X101253912Y-63160571D01*
X101363371Y-63149790D01*
X101418100Y-63144400D01*
X101527900Y-63144400D01*
X101582629Y-63149790D01*
X101582629Y-63149790D01*
G37*
G36*
X99042629Y-63149790D02*
X99152088Y-63160571D01*
X99307940Y-63207849D01*
X99362760Y-63224478D01*
X99556910Y-63328253D01*
X99727086Y-63467914D01*
X99866747Y-63638090D01*
X99970522Y-63832240D01*
X99970523Y-63832244D01*
X100034429Y-64042912D01*
X100056007Y-64262000D01*
X100034429Y-64481088D01*
X99987151Y-64636940D01*
X99970522Y-64691760D01*
X99866747Y-64885910D01*
X99727086Y-65056086D01*
X99556910Y-65195747D01*
X99362760Y-65299522D01*
X99307940Y-65316151D01*
X99152088Y-65363429D01*
X99042629Y-65374210D01*
X98987900Y-65379600D01*
X98878100Y-65379600D01*
X98823371Y-65374210D01*
X98713912Y-65363429D01*
X98558060Y-65316151D01*
X98503240Y-65299522D01*
X98309090Y-65195747D01*
X98138914Y-65056086D01*
X97999253Y-64885910D01*
X97895478Y-64691760D01*
X97878849Y-64636940D01*
X97831571Y-64481088D01*
X97809993Y-64262000D01*
X97831571Y-64042912D01*
X97895477Y-63832244D01*
X97895478Y-63832240D01*
X97999253Y-63638090D01*
X98138914Y-63467914D01*
X98309090Y-63328253D01*
X98503240Y-63224478D01*
X98558060Y-63207849D01*
X98713912Y-63160571D01*
X98823371Y-63149790D01*
X98878100Y-63144400D01*
X98987900Y-63144400D01*
X99042629Y-63149790D01*
X99042629Y-63149790D01*
G37*
G36*
X109202629Y-63149790D02*
X109312088Y-63160571D01*
X109467940Y-63207849D01*
X109522760Y-63224478D01*
X109716910Y-63328253D01*
X109887086Y-63467914D01*
X110026747Y-63638090D01*
X110130522Y-63832240D01*
X110130523Y-63832244D01*
X110194429Y-64042912D01*
X110216007Y-64262000D01*
X110194429Y-64481088D01*
X110147151Y-64636940D01*
X110130522Y-64691760D01*
X110026747Y-64885910D01*
X109887086Y-65056086D01*
X109716910Y-65195747D01*
X109522760Y-65299522D01*
X109467940Y-65316151D01*
X109312088Y-65363429D01*
X109202629Y-65374210D01*
X109147900Y-65379600D01*
X109038100Y-65379600D01*
X108983371Y-65374210D01*
X108873912Y-65363429D01*
X108718060Y-65316151D01*
X108663240Y-65299522D01*
X108469090Y-65195747D01*
X108298914Y-65056086D01*
X108159253Y-64885910D01*
X108055478Y-64691760D01*
X108038849Y-64636940D01*
X107991571Y-64481088D01*
X107969993Y-64262000D01*
X107991571Y-64042912D01*
X108055477Y-63832244D01*
X108055478Y-63832240D01*
X108159253Y-63638090D01*
X108298914Y-63467914D01*
X108469090Y-63328253D01*
X108663240Y-63224478D01*
X108718060Y-63207849D01*
X108873912Y-63160571D01*
X108983371Y-63149790D01*
X109038100Y-63144400D01*
X109147900Y-63144400D01*
X109202629Y-63149790D01*
X109202629Y-63149790D01*
G37*
G36*
X96502629Y-63149790D02*
X96612088Y-63160571D01*
X96767940Y-63207849D01*
X96822760Y-63224478D01*
X97016910Y-63328253D01*
X97187086Y-63467914D01*
X97326747Y-63638090D01*
X97430522Y-63832240D01*
X97430523Y-63832244D01*
X97494429Y-64042912D01*
X97516007Y-64262000D01*
X97494429Y-64481088D01*
X97447151Y-64636940D01*
X97430522Y-64691760D01*
X97326747Y-64885910D01*
X97187086Y-65056086D01*
X97016910Y-65195747D01*
X96822760Y-65299522D01*
X96767940Y-65316151D01*
X96612088Y-65363429D01*
X96502629Y-65374210D01*
X96447900Y-65379600D01*
X96338100Y-65379600D01*
X96283371Y-65374210D01*
X96173912Y-65363429D01*
X96018060Y-65316151D01*
X95963240Y-65299522D01*
X95769090Y-65195747D01*
X95598914Y-65056086D01*
X95459253Y-64885910D01*
X95355478Y-64691760D01*
X95338849Y-64636940D01*
X95291571Y-64481088D01*
X95269993Y-64262000D01*
X95291571Y-64042912D01*
X95355477Y-63832244D01*
X95355478Y-63832240D01*
X95459253Y-63638090D01*
X95598914Y-63467914D01*
X95769090Y-63328253D01*
X95963240Y-63224478D01*
X96018060Y-63207849D01*
X96173912Y-63160571D01*
X96283371Y-63149790D01*
X96338100Y-63144400D01*
X96447900Y-63144400D01*
X96502629Y-63149790D01*
X96502629Y-63149790D01*
G37*
G36*
X93962629Y-63149790D02*
X94072088Y-63160571D01*
X94227940Y-63207849D01*
X94282760Y-63224478D01*
X94476910Y-63328253D01*
X94647086Y-63467914D01*
X94786747Y-63638090D01*
X94890522Y-63832240D01*
X94890523Y-63832244D01*
X94954429Y-64042912D01*
X94976007Y-64262000D01*
X94954429Y-64481088D01*
X94907151Y-64636940D01*
X94890522Y-64691760D01*
X94786747Y-64885910D01*
X94647086Y-65056086D01*
X94476910Y-65195747D01*
X94282760Y-65299522D01*
X94227940Y-65316151D01*
X94072088Y-65363429D01*
X93962629Y-65374210D01*
X93907900Y-65379600D01*
X93798100Y-65379600D01*
X93743371Y-65374210D01*
X93633912Y-65363429D01*
X93478060Y-65316151D01*
X93423240Y-65299522D01*
X93229090Y-65195747D01*
X93058914Y-65056086D01*
X92919253Y-64885910D01*
X92815478Y-64691760D01*
X92798849Y-64636940D01*
X92751571Y-64481088D01*
X92729993Y-64262000D01*
X92751571Y-64042912D01*
X92815477Y-63832244D01*
X92815478Y-63832240D01*
X92919253Y-63638090D01*
X93058914Y-63467914D01*
X93229090Y-63328253D01*
X93423240Y-63224478D01*
X93478060Y-63207849D01*
X93633912Y-63160571D01*
X93743371Y-63149790D01*
X93798100Y-63144400D01*
X93907900Y-63144400D01*
X93962629Y-63149790D01*
X93962629Y-63149790D01*
G37*
G36*
X91422629Y-63149790D02*
X91532088Y-63160571D01*
X91687940Y-63207849D01*
X91742760Y-63224478D01*
X91936910Y-63328253D01*
X92107086Y-63467914D01*
X92246747Y-63638090D01*
X92350522Y-63832240D01*
X92350523Y-63832244D01*
X92414429Y-64042912D01*
X92436007Y-64262000D01*
X92414429Y-64481088D01*
X92367151Y-64636940D01*
X92350522Y-64691760D01*
X92246747Y-64885910D01*
X92107086Y-65056086D01*
X91936910Y-65195747D01*
X91742760Y-65299522D01*
X91687940Y-65316151D01*
X91532088Y-65363429D01*
X91422629Y-65374210D01*
X91367900Y-65379600D01*
X91258100Y-65379600D01*
X91203371Y-65374210D01*
X91093912Y-65363429D01*
X90938060Y-65316151D01*
X90883240Y-65299522D01*
X90689090Y-65195747D01*
X90518914Y-65056086D01*
X90379253Y-64885910D01*
X90275478Y-64691760D01*
X90258849Y-64636940D01*
X90211571Y-64481088D01*
X90189993Y-64262000D01*
X90211571Y-64042912D01*
X90275477Y-63832244D01*
X90275478Y-63832240D01*
X90379253Y-63638090D01*
X90518914Y-63467914D01*
X90689090Y-63328253D01*
X90883240Y-63224478D01*
X90938060Y-63207849D01*
X91093912Y-63160571D01*
X91203371Y-63149790D01*
X91258100Y-63144400D01*
X91367900Y-63144400D01*
X91422629Y-63149790D01*
X91422629Y-63149790D01*
G37*
G36*
X88882629Y-63149790D02*
X88992088Y-63160571D01*
X89147940Y-63207849D01*
X89202760Y-63224478D01*
X89396910Y-63328253D01*
X89567086Y-63467914D01*
X89706747Y-63638090D01*
X89810522Y-63832240D01*
X89810523Y-63832244D01*
X89874429Y-64042912D01*
X89896007Y-64262000D01*
X89874429Y-64481088D01*
X89827151Y-64636940D01*
X89810522Y-64691760D01*
X89706747Y-64885910D01*
X89567086Y-65056086D01*
X89396910Y-65195747D01*
X89202760Y-65299522D01*
X89147940Y-65316151D01*
X88992088Y-65363429D01*
X88882629Y-65374210D01*
X88827900Y-65379600D01*
X88718100Y-65379600D01*
X88663371Y-65374210D01*
X88553912Y-65363429D01*
X88398060Y-65316151D01*
X88343240Y-65299522D01*
X88149090Y-65195747D01*
X87978914Y-65056086D01*
X87839253Y-64885910D01*
X87735478Y-64691760D01*
X87718849Y-64636940D01*
X87671571Y-64481088D01*
X87649993Y-64262000D01*
X87671571Y-64042912D01*
X87735477Y-63832244D01*
X87735478Y-63832240D01*
X87839253Y-63638090D01*
X87978914Y-63467914D01*
X88149090Y-63328253D01*
X88343240Y-63224478D01*
X88398060Y-63207849D01*
X88553912Y-63160571D01*
X88663371Y-63149790D01*
X88718100Y-63144400D01*
X88827900Y-63144400D01*
X88882629Y-63149790D01*
X88882629Y-63149790D01*
G37*
G36*
X86342629Y-63149790D02*
X86452088Y-63160571D01*
X86607940Y-63207849D01*
X86662760Y-63224478D01*
X86856910Y-63328253D01*
X87027086Y-63467914D01*
X87166747Y-63638090D01*
X87270522Y-63832240D01*
X87270523Y-63832244D01*
X87334429Y-64042912D01*
X87356007Y-64262000D01*
X87334429Y-64481088D01*
X87287151Y-64636940D01*
X87270522Y-64691760D01*
X87166747Y-64885910D01*
X87027086Y-65056086D01*
X86856910Y-65195747D01*
X86662760Y-65299522D01*
X86607940Y-65316151D01*
X86452088Y-65363429D01*
X86342629Y-65374210D01*
X86287900Y-65379600D01*
X86178100Y-65379600D01*
X86123371Y-65374210D01*
X86013912Y-65363429D01*
X85858060Y-65316151D01*
X85803240Y-65299522D01*
X85609090Y-65195747D01*
X85438914Y-65056086D01*
X85299253Y-64885910D01*
X85195478Y-64691760D01*
X85178849Y-64636940D01*
X85131571Y-64481088D01*
X85109993Y-64262000D01*
X85131571Y-64042912D01*
X85195477Y-63832244D01*
X85195478Y-63832240D01*
X85299253Y-63638090D01*
X85438914Y-63467914D01*
X85609090Y-63328253D01*
X85803240Y-63224478D01*
X85858060Y-63207849D01*
X86013912Y-63160571D01*
X86123371Y-63149790D01*
X86178100Y-63144400D01*
X86287900Y-63144400D01*
X86342629Y-63149790D01*
X86342629Y-63149790D01*
G37*
G36*
X49250600Y-65379600D02*
X47015400Y-65379600D01*
X47015400Y-63144400D01*
X49250600Y-63144400D01*
X49250600Y-65379600D01*
X49250600Y-65379600D01*
G37*
G36*
X53322629Y-63149790D02*
X53432088Y-63160571D01*
X53587940Y-63207849D01*
X53642760Y-63224478D01*
X53836910Y-63328253D01*
X54007086Y-63467914D01*
X54146747Y-63638090D01*
X54250522Y-63832240D01*
X54250523Y-63832244D01*
X54314429Y-64042912D01*
X54336007Y-64262000D01*
X54314429Y-64481088D01*
X54267151Y-64636940D01*
X54250522Y-64691760D01*
X54146747Y-64885910D01*
X54007086Y-65056086D01*
X53836910Y-65195747D01*
X53642760Y-65299522D01*
X53587940Y-65316151D01*
X53432088Y-65363429D01*
X53322629Y-65374210D01*
X53267900Y-65379600D01*
X53158100Y-65379600D01*
X53103371Y-65374210D01*
X52993912Y-65363429D01*
X52838060Y-65316151D01*
X52783240Y-65299522D01*
X52589090Y-65195747D01*
X52418914Y-65056086D01*
X52279253Y-64885910D01*
X52175478Y-64691760D01*
X52158849Y-64636940D01*
X52111571Y-64481088D01*
X52089993Y-64262000D01*
X52111571Y-64042912D01*
X52175477Y-63832244D01*
X52175478Y-63832240D01*
X52279253Y-63638090D01*
X52418914Y-63467914D01*
X52589090Y-63328253D01*
X52783240Y-63224478D01*
X52838060Y-63207849D01*
X52993912Y-63160571D01*
X53103371Y-63149790D01*
X53158100Y-63144400D01*
X53267900Y-63144400D01*
X53322629Y-63149790D01*
X53322629Y-63149790D01*
G37*
G36*
X106662629Y-63149790D02*
X106772088Y-63160571D01*
X106927940Y-63207849D01*
X106982760Y-63224478D01*
X107176910Y-63328253D01*
X107347086Y-63467914D01*
X107486747Y-63638090D01*
X107590522Y-63832240D01*
X107590523Y-63832244D01*
X107654429Y-64042912D01*
X107676007Y-64262000D01*
X107654429Y-64481088D01*
X107607151Y-64636940D01*
X107590522Y-64691760D01*
X107486747Y-64885910D01*
X107347086Y-65056086D01*
X107176910Y-65195747D01*
X106982760Y-65299522D01*
X106927940Y-65316151D01*
X106772088Y-65363429D01*
X106662629Y-65374210D01*
X106607900Y-65379600D01*
X106498100Y-65379600D01*
X106443371Y-65374210D01*
X106333912Y-65363429D01*
X106178060Y-65316151D01*
X106123240Y-65299522D01*
X105929090Y-65195747D01*
X105758914Y-65056086D01*
X105619253Y-64885910D01*
X105515478Y-64691760D01*
X105498849Y-64636940D01*
X105451571Y-64481088D01*
X105429993Y-64262000D01*
X105451571Y-64042912D01*
X105515477Y-63832244D01*
X105515478Y-63832240D01*
X105619253Y-63638090D01*
X105758914Y-63467914D01*
X105929090Y-63328253D01*
X106123240Y-63224478D01*
X106178060Y-63207849D01*
X106333912Y-63160571D01*
X106443371Y-63149790D01*
X106498100Y-63144400D01*
X106607900Y-63144400D01*
X106662629Y-63149790D01*
X106662629Y-63149790D01*
G37*
G36*
X78722629Y-63149790D02*
X78832088Y-63160571D01*
X78987940Y-63207849D01*
X79042760Y-63224478D01*
X79236910Y-63328253D01*
X79407086Y-63467914D01*
X79546747Y-63638090D01*
X79650522Y-63832240D01*
X79650523Y-63832244D01*
X79714429Y-64042912D01*
X79736007Y-64262000D01*
X79714429Y-64481088D01*
X79667151Y-64636940D01*
X79650522Y-64691760D01*
X79546747Y-64885910D01*
X79407086Y-65056086D01*
X79236910Y-65195747D01*
X79042760Y-65299522D01*
X78987940Y-65316151D01*
X78832088Y-65363429D01*
X78722629Y-65374210D01*
X78667900Y-65379600D01*
X78558100Y-65379600D01*
X78503371Y-65374210D01*
X78393912Y-65363429D01*
X78238060Y-65316151D01*
X78183240Y-65299522D01*
X77989090Y-65195747D01*
X77818914Y-65056086D01*
X77679253Y-64885910D01*
X77575478Y-64691760D01*
X77558849Y-64636940D01*
X77511571Y-64481088D01*
X77489993Y-64262000D01*
X77511571Y-64042912D01*
X77575477Y-63832244D01*
X77575478Y-63832240D01*
X77679253Y-63638090D01*
X77818914Y-63467914D01*
X77989090Y-63328253D01*
X78183240Y-63224478D01*
X78238060Y-63207849D01*
X78393912Y-63160571D01*
X78503371Y-63149790D01*
X78558100Y-63144400D01*
X78667900Y-63144400D01*
X78722629Y-63149790D01*
X78722629Y-63149790D01*
G37*
G36*
X76182629Y-63149790D02*
X76292088Y-63160571D01*
X76447940Y-63207849D01*
X76502760Y-63224478D01*
X76696910Y-63328253D01*
X76867086Y-63467914D01*
X77006747Y-63638090D01*
X77110522Y-63832240D01*
X77110523Y-63832244D01*
X77174429Y-64042912D01*
X77196007Y-64262000D01*
X77174429Y-64481088D01*
X77127151Y-64636940D01*
X77110522Y-64691760D01*
X77006747Y-64885910D01*
X76867086Y-65056086D01*
X76696910Y-65195747D01*
X76502760Y-65299522D01*
X76447940Y-65316151D01*
X76292088Y-65363429D01*
X76182629Y-65374210D01*
X76127900Y-65379600D01*
X76018100Y-65379600D01*
X75963371Y-65374210D01*
X75853912Y-65363429D01*
X75698060Y-65316151D01*
X75643240Y-65299522D01*
X75449090Y-65195747D01*
X75278914Y-65056086D01*
X75139253Y-64885910D01*
X75035478Y-64691760D01*
X75018849Y-64636940D01*
X74971571Y-64481088D01*
X74949993Y-64262000D01*
X74971571Y-64042912D01*
X75035477Y-63832244D01*
X75035478Y-63832240D01*
X75139253Y-63638090D01*
X75278914Y-63467914D01*
X75449090Y-63328253D01*
X75643240Y-63224478D01*
X75698060Y-63207849D01*
X75853912Y-63160571D01*
X75963371Y-63149790D01*
X76018100Y-63144400D01*
X76127900Y-63144400D01*
X76182629Y-63149790D01*
X76182629Y-63149790D01*
G37*
G36*
X73642629Y-63149790D02*
X73752088Y-63160571D01*
X73907940Y-63207849D01*
X73962760Y-63224478D01*
X74156910Y-63328253D01*
X74327086Y-63467914D01*
X74466747Y-63638090D01*
X74570522Y-63832240D01*
X74570523Y-63832244D01*
X74634429Y-64042912D01*
X74656007Y-64262000D01*
X74634429Y-64481088D01*
X74587151Y-64636940D01*
X74570522Y-64691760D01*
X74466747Y-64885910D01*
X74327086Y-65056086D01*
X74156910Y-65195747D01*
X73962760Y-65299522D01*
X73907940Y-65316151D01*
X73752088Y-65363429D01*
X73642629Y-65374210D01*
X73587900Y-65379600D01*
X73478100Y-65379600D01*
X73423371Y-65374210D01*
X73313912Y-65363429D01*
X73158060Y-65316151D01*
X73103240Y-65299522D01*
X72909090Y-65195747D01*
X72738914Y-65056086D01*
X72599253Y-64885910D01*
X72495478Y-64691760D01*
X72478849Y-64636940D01*
X72431571Y-64481088D01*
X72409993Y-64262000D01*
X72431571Y-64042912D01*
X72495477Y-63832244D01*
X72495478Y-63832240D01*
X72599253Y-63638090D01*
X72738914Y-63467914D01*
X72909090Y-63328253D01*
X73103240Y-63224478D01*
X73158060Y-63207849D01*
X73313912Y-63160571D01*
X73423371Y-63149790D01*
X73478100Y-63144400D01*
X73587900Y-63144400D01*
X73642629Y-63149790D01*
X73642629Y-63149790D01*
G37*
G36*
X71102629Y-63149790D02*
X71212088Y-63160571D01*
X71367940Y-63207849D01*
X71422760Y-63224478D01*
X71616910Y-63328253D01*
X71787086Y-63467914D01*
X71926747Y-63638090D01*
X72030522Y-63832240D01*
X72030523Y-63832244D01*
X72094429Y-64042912D01*
X72116007Y-64262000D01*
X72094429Y-64481088D01*
X72047151Y-64636940D01*
X72030522Y-64691760D01*
X71926747Y-64885910D01*
X71787086Y-65056086D01*
X71616910Y-65195747D01*
X71422760Y-65299522D01*
X71367940Y-65316151D01*
X71212088Y-65363429D01*
X71102629Y-65374210D01*
X71047900Y-65379600D01*
X70938100Y-65379600D01*
X70883371Y-65374210D01*
X70773912Y-65363429D01*
X70618060Y-65316151D01*
X70563240Y-65299522D01*
X70369090Y-65195747D01*
X70198914Y-65056086D01*
X70059253Y-64885910D01*
X69955478Y-64691760D01*
X69938849Y-64636940D01*
X69891571Y-64481088D01*
X69869993Y-64262000D01*
X69891571Y-64042912D01*
X69955477Y-63832244D01*
X69955478Y-63832240D01*
X70059253Y-63638090D01*
X70198914Y-63467914D01*
X70369090Y-63328253D01*
X70563240Y-63224478D01*
X70618060Y-63207849D01*
X70773912Y-63160571D01*
X70883371Y-63149790D01*
X70938100Y-63144400D01*
X71047900Y-63144400D01*
X71102629Y-63149790D01*
X71102629Y-63149790D01*
G37*
G36*
X68562629Y-63149790D02*
X68672088Y-63160571D01*
X68827940Y-63207849D01*
X68882760Y-63224478D01*
X69076910Y-63328253D01*
X69247086Y-63467914D01*
X69386747Y-63638090D01*
X69490522Y-63832240D01*
X69490523Y-63832244D01*
X69554429Y-64042912D01*
X69576007Y-64262000D01*
X69554429Y-64481088D01*
X69507151Y-64636940D01*
X69490522Y-64691760D01*
X69386747Y-64885910D01*
X69247086Y-65056086D01*
X69076910Y-65195747D01*
X68882760Y-65299522D01*
X68827940Y-65316151D01*
X68672088Y-65363429D01*
X68562629Y-65374210D01*
X68507900Y-65379600D01*
X68398100Y-65379600D01*
X68343371Y-65374210D01*
X68233912Y-65363429D01*
X68078060Y-65316151D01*
X68023240Y-65299522D01*
X67829090Y-65195747D01*
X67658914Y-65056086D01*
X67519253Y-64885910D01*
X67415478Y-64691760D01*
X67398849Y-64636940D01*
X67351571Y-64481088D01*
X67329993Y-64262000D01*
X67351571Y-64042912D01*
X67415477Y-63832244D01*
X67415478Y-63832240D01*
X67519253Y-63638090D01*
X67658914Y-63467914D01*
X67829090Y-63328253D01*
X68023240Y-63224478D01*
X68078060Y-63207849D01*
X68233912Y-63160571D01*
X68343371Y-63149790D01*
X68398100Y-63144400D01*
X68507900Y-63144400D01*
X68562629Y-63149790D01*
X68562629Y-63149790D01*
G37*
G36*
X66022629Y-63149790D02*
X66132088Y-63160571D01*
X66287940Y-63207849D01*
X66342760Y-63224478D01*
X66536910Y-63328253D01*
X66707086Y-63467914D01*
X66846747Y-63638090D01*
X66950522Y-63832240D01*
X66950523Y-63832244D01*
X67014429Y-64042912D01*
X67036007Y-64262000D01*
X67014429Y-64481088D01*
X66967151Y-64636940D01*
X66950522Y-64691760D01*
X66846747Y-64885910D01*
X66707086Y-65056086D01*
X66536910Y-65195747D01*
X66342760Y-65299522D01*
X66287940Y-65316151D01*
X66132088Y-65363429D01*
X66022629Y-65374210D01*
X65967900Y-65379600D01*
X65858100Y-65379600D01*
X65803371Y-65374210D01*
X65693912Y-65363429D01*
X65538060Y-65316151D01*
X65483240Y-65299522D01*
X65289090Y-65195747D01*
X65118914Y-65056086D01*
X64979253Y-64885910D01*
X64875478Y-64691760D01*
X64858849Y-64636940D01*
X64811571Y-64481088D01*
X64789993Y-64262000D01*
X64811571Y-64042912D01*
X64875477Y-63832244D01*
X64875478Y-63832240D01*
X64979253Y-63638090D01*
X65118914Y-63467914D01*
X65289090Y-63328253D01*
X65483240Y-63224478D01*
X65538060Y-63207849D01*
X65693912Y-63160571D01*
X65803371Y-63149790D01*
X65858100Y-63144400D01*
X65967900Y-63144400D01*
X66022629Y-63149790D01*
X66022629Y-63149790D01*
G37*
G36*
X63482629Y-63149790D02*
X63592088Y-63160571D01*
X63747940Y-63207849D01*
X63802760Y-63224478D01*
X63996910Y-63328253D01*
X64167086Y-63467914D01*
X64306747Y-63638090D01*
X64410522Y-63832240D01*
X64410523Y-63832244D01*
X64474429Y-64042912D01*
X64496007Y-64262000D01*
X64474429Y-64481088D01*
X64427151Y-64636940D01*
X64410522Y-64691760D01*
X64306747Y-64885910D01*
X64167086Y-65056086D01*
X63996910Y-65195747D01*
X63802760Y-65299522D01*
X63747940Y-65316151D01*
X63592088Y-65363429D01*
X63482629Y-65374210D01*
X63427900Y-65379600D01*
X63318100Y-65379600D01*
X63263371Y-65374210D01*
X63153912Y-65363429D01*
X62998060Y-65316151D01*
X62943240Y-65299522D01*
X62749090Y-65195747D01*
X62578914Y-65056086D01*
X62439253Y-64885910D01*
X62335478Y-64691760D01*
X62318849Y-64636940D01*
X62271571Y-64481088D01*
X62249993Y-64262000D01*
X62271571Y-64042912D01*
X62335477Y-63832244D01*
X62335478Y-63832240D01*
X62439253Y-63638090D01*
X62578914Y-63467914D01*
X62749090Y-63328253D01*
X62943240Y-63224478D01*
X62998060Y-63207849D01*
X63153912Y-63160571D01*
X63263371Y-63149790D01*
X63318100Y-63144400D01*
X63427900Y-63144400D01*
X63482629Y-63149790D01*
X63482629Y-63149790D01*
G37*
G36*
X60942629Y-63149790D02*
X61052088Y-63160571D01*
X61207940Y-63207849D01*
X61262760Y-63224478D01*
X61456910Y-63328253D01*
X61627086Y-63467914D01*
X61766747Y-63638090D01*
X61870522Y-63832240D01*
X61870523Y-63832244D01*
X61934429Y-64042912D01*
X61956007Y-64262000D01*
X61934429Y-64481088D01*
X61887151Y-64636940D01*
X61870522Y-64691760D01*
X61766747Y-64885910D01*
X61627086Y-65056086D01*
X61456910Y-65195747D01*
X61262760Y-65299522D01*
X61207940Y-65316151D01*
X61052088Y-65363429D01*
X60942629Y-65374210D01*
X60887900Y-65379600D01*
X60778100Y-65379600D01*
X60723371Y-65374210D01*
X60613912Y-65363429D01*
X60458060Y-65316151D01*
X60403240Y-65299522D01*
X60209090Y-65195747D01*
X60038914Y-65056086D01*
X59899253Y-64885910D01*
X59795478Y-64691760D01*
X59778849Y-64636940D01*
X59731571Y-64481088D01*
X59709993Y-64262000D01*
X59731571Y-64042912D01*
X59795477Y-63832244D01*
X59795478Y-63832240D01*
X59899253Y-63638090D01*
X60038914Y-63467914D01*
X60209090Y-63328253D01*
X60403240Y-63224478D01*
X60458060Y-63207849D01*
X60613912Y-63160571D01*
X60723371Y-63149790D01*
X60778100Y-63144400D01*
X60887900Y-63144400D01*
X60942629Y-63149790D01*
X60942629Y-63149790D01*
G37*
G36*
X58402629Y-63149790D02*
X58512088Y-63160571D01*
X58667940Y-63207849D01*
X58722760Y-63224478D01*
X58916910Y-63328253D01*
X59087086Y-63467914D01*
X59226747Y-63638090D01*
X59330522Y-63832240D01*
X59330523Y-63832244D01*
X59394429Y-64042912D01*
X59416007Y-64262000D01*
X59394429Y-64481088D01*
X59347151Y-64636940D01*
X59330522Y-64691760D01*
X59226747Y-64885910D01*
X59087086Y-65056086D01*
X58916910Y-65195747D01*
X58722760Y-65299522D01*
X58667940Y-65316151D01*
X58512088Y-65363429D01*
X58402629Y-65374210D01*
X58347900Y-65379600D01*
X58238100Y-65379600D01*
X58183371Y-65374210D01*
X58073912Y-65363429D01*
X57918060Y-65316151D01*
X57863240Y-65299522D01*
X57669090Y-65195747D01*
X57498914Y-65056086D01*
X57359253Y-64885910D01*
X57255478Y-64691760D01*
X57238849Y-64636940D01*
X57191571Y-64481088D01*
X57169993Y-64262000D01*
X57191571Y-64042912D01*
X57255477Y-63832244D01*
X57255478Y-63832240D01*
X57359253Y-63638090D01*
X57498914Y-63467914D01*
X57669090Y-63328253D01*
X57863240Y-63224478D01*
X57918060Y-63207849D01*
X58073912Y-63160571D01*
X58183371Y-63149790D01*
X58238100Y-63144400D01*
X58347900Y-63144400D01*
X58402629Y-63149790D01*
X58402629Y-63149790D01*
G37*
G36*
X55862629Y-63149790D02*
X55972088Y-63160571D01*
X56127940Y-63207849D01*
X56182760Y-63224478D01*
X56376910Y-63328253D01*
X56547086Y-63467914D01*
X56686747Y-63638090D01*
X56790522Y-63832240D01*
X56790523Y-63832244D01*
X56854429Y-64042912D01*
X56876007Y-64262000D01*
X56854429Y-64481088D01*
X56807151Y-64636940D01*
X56790522Y-64691760D01*
X56686747Y-64885910D01*
X56547086Y-65056086D01*
X56376910Y-65195747D01*
X56182760Y-65299522D01*
X56127940Y-65316151D01*
X55972088Y-65363429D01*
X55862629Y-65374210D01*
X55807900Y-65379600D01*
X55698100Y-65379600D01*
X55643371Y-65374210D01*
X55533912Y-65363429D01*
X55378060Y-65316151D01*
X55323240Y-65299522D01*
X55129090Y-65195747D01*
X54958914Y-65056086D01*
X54819253Y-64885910D01*
X54715478Y-64691760D01*
X54698849Y-64636940D01*
X54651571Y-64481088D01*
X54629993Y-64262000D01*
X54651571Y-64042912D01*
X54715477Y-63832244D01*
X54715478Y-63832240D01*
X54819253Y-63638090D01*
X54958914Y-63467914D01*
X55129090Y-63328253D01*
X55323240Y-63224478D01*
X55378060Y-63207849D01*
X55533912Y-63160571D01*
X55643371Y-63149790D01*
X55698100Y-63144400D01*
X55807900Y-63144400D01*
X55862629Y-63149790D01*
X55862629Y-63149790D01*
G37*
G36*
X91422629Y-60609790D02*
X91532088Y-60620571D01*
X91687940Y-60667849D01*
X91742760Y-60684478D01*
X91936910Y-60788253D01*
X92107086Y-60927914D01*
X92246747Y-61098090D01*
X92350522Y-61292240D01*
X92350523Y-61292244D01*
X92414429Y-61502912D01*
X92436007Y-61722000D01*
X92414429Y-61941088D01*
X92367151Y-62096940D01*
X92350522Y-62151760D01*
X92246747Y-62345910D01*
X92107086Y-62516086D01*
X91936910Y-62655747D01*
X91742760Y-62759522D01*
X91687940Y-62776151D01*
X91532088Y-62823429D01*
X91422629Y-62834210D01*
X91367900Y-62839600D01*
X91258100Y-62839600D01*
X91203371Y-62834210D01*
X91093912Y-62823429D01*
X90938060Y-62776151D01*
X90883240Y-62759522D01*
X90689090Y-62655747D01*
X90518914Y-62516086D01*
X90379253Y-62345910D01*
X90275478Y-62151760D01*
X90258849Y-62096940D01*
X90211571Y-61941088D01*
X90189993Y-61722000D01*
X90211571Y-61502912D01*
X90275477Y-61292244D01*
X90275478Y-61292240D01*
X90379253Y-61098090D01*
X90518914Y-60927914D01*
X90689090Y-60788253D01*
X90883240Y-60684478D01*
X90938060Y-60667849D01*
X91093912Y-60620571D01*
X91203371Y-60609790D01*
X91258100Y-60604400D01*
X91367900Y-60604400D01*
X91422629Y-60609790D01*
X91422629Y-60609790D01*
G37*
G36*
X53322629Y-60609790D02*
X53432088Y-60620571D01*
X53587940Y-60667849D01*
X53642760Y-60684478D01*
X53836910Y-60788253D01*
X54007086Y-60927914D01*
X54146747Y-61098090D01*
X54250522Y-61292240D01*
X54250523Y-61292244D01*
X54314429Y-61502912D01*
X54336007Y-61722000D01*
X54314429Y-61941088D01*
X54267151Y-62096940D01*
X54250522Y-62151760D01*
X54146747Y-62345910D01*
X54007086Y-62516086D01*
X53836910Y-62655747D01*
X53642760Y-62759522D01*
X53587940Y-62776151D01*
X53432088Y-62823429D01*
X53322629Y-62834210D01*
X53267900Y-62839600D01*
X53158100Y-62839600D01*
X53103371Y-62834210D01*
X52993912Y-62823429D01*
X52838060Y-62776151D01*
X52783240Y-62759522D01*
X52589090Y-62655747D01*
X52418914Y-62516086D01*
X52279253Y-62345910D01*
X52175478Y-62151760D01*
X52158849Y-62096940D01*
X52111571Y-61941088D01*
X52089993Y-61722000D01*
X52111571Y-61502912D01*
X52175477Y-61292244D01*
X52175478Y-61292240D01*
X52279253Y-61098090D01*
X52418914Y-60927914D01*
X52589090Y-60788253D01*
X52783240Y-60684478D01*
X52838060Y-60667849D01*
X52993912Y-60620571D01*
X53103371Y-60609790D01*
X53158100Y-60604400D01*
X53267900Y-60604400D01*
X53322629Y-60609790D01*
X53322629Y-60609790D01*
G37*
G36*
X55862629Y-60609790D02*
X55972088Y-60620571D01*
X56127940Y-60667849D01*
X56182760Y-60684478D01*
X56376910Y-60788253D01*
X56547086Y-60927914D01*
X56686747Y-61098090D01*
X56790522Y-61292240D01*
X56790523Y-61292244D01*
X56854429Y-61502912D01*
X56876007Y-61722000D01*
X56854429Y-61941088D01*
X56807151Y-62096940D01*
X56790522Y-62151760D01*
X56686747Y-62345910D01*
X56547086Y-62516086D01*
X56376910Y-62655747D01*
X56182760Y-62759522D01*
X56127940Y-62776151D01*
X55972088Y-62823429D01*
X55862629Y-62834210D01*
X55807900Y-62839600D01*
X55698100Y-62839600D01*
X55643371Y-62834210D01*
X55533912Y-62823429D01*
X55378060Y-62776151D01*
X55323240Y-62759522D01*
X55129090Y-62655747D01*
X54958914Y-62516086D01*
X54819253Y-62345910D01*
X54715478Y-62151760D01*
X54698849Y-62096940D01*
X54651571Y-61941088D01*
X54629993Y-61722000D01*
X54651571Y-61502912D01*
X54715477Y-61292244D01*
X54715478Y-61292240D01*
X54819253Y-61098090D01*
X54958914Y-60927914D01*
X55129090Y-60788253D01*
X55323240Y-60684478D01*
X55378060Y-60667849D01*
X55533912Y-60620571D01*
X55643371Y-60609790D01*
X55698100Y-60604400D01*
X55807900Y-60604400D01*
X55862629Y-60609790D01*
X55862629Y-60609790D01*
G37*
G36*
X50782629Y-60609790D02*
X50892088Y-60620571D01*
X51047940Y-60667849D01*
X51102760Y-60684478D01*
X51296910Y-60788253D01*
X51467086Y-60927914D01*
X51606747Y-61098090D01*
X51710522Y-61292240D01*
X51710523Y-61292244D01*
X51774429Y-61502912D01*
X51796007Y-61722000D01*
X51774429Y-61941088D01*
X51727151Y-62096940D01*
X51710522Y-62151760D01*
X51606747Y-62345910D01*
X51467086Y-62516086D01*
X51296910Y-62655747D01*
X51102760Y-62759522D01*
X51047940Y-62776151D01*
X50892088Y-62823429D01*
X50782629Y-62834210D01*
X50727900Y-62839600D01*
X50618100Y-62839600D01*
X50563371Y-62834210D01*
X50453912Y-62823429D01*
X50298060Y-62776151D01*
X50243240Y-62759522D01*
X50049090Y-62655747D01*
X49878914Y-62516086D01*
X49739253Y-62345910D01*
X49635478Y-62151760D01*
X49618849Y-62096940D01*
X49571571Y-61941088D01*
X49549993Y-61722000D01*
X49571571Y-61502912D01*
X49635477Y-61292244D01*
X49635478Y-61292240D01*
X49739253Y-61098090D01*
X49878914Y-60927914D01*
X50049090Y-60788253D01*
X50243240Y-60684478D01*
X50298060Y-60667849D01*
X50453912Y-60620571D01*
X50563371Y-60609790D01*
X50618100Y-60604400D01*
X50727900Y-60604400D01*
X50782629Y-60609790D01*
X50782629Y-60609790D01*
G37*
G36*
X58402629Y-60609790D02*
X58512088Y-60620571D01*
X58667940Y-60667849D01*
X58722760Y-60684478D01*
X58916910Y-60788253D01*
X59087086Y-60927914D01*
X59226747Y-61098090D01*
X59330522Y-61292240D01*
X59330523Y-61292244D01*
X59394429Y-61502912D01*
X59416007Y-61722000D01*
X59394429Y-61941088D01*
X59347151Y-62096940D01*
X59330522Y-62151760D01*
X59226747Y-62345910D01*
X59087086Y-62516086D01*
X58916910Y-62655747D01*
X58722760Y-62759522D01*
X58667940Y-62776151D01*
X58512088Y-62823429D01*
X58402629Y-62834210D01*
X58347900Y-62839600D01*
X58238100Y-62839600D01*
X58183371Y-62834210D01*
X58073912Y-62823429D01*
X57918060Y-62776151D01*
X57863240Y-62759522D01*
X57669090Y-62655747D01*
X57498914Y-62516086D01*
X57359253Y-62345910D01*
X57255478Y-62151760D01*
X57238849Y-62096940D01*
X57191571Y-61941088D01*
X57169993Y-61722000D01*
X57191571Y-61502912D01*
X57255477Y-61292244D01*
X57255478Y-61292240D01*
X57359253Y-61098090D01*
X57498914Y-60927914D01*
X57669090Y-60788253D01*
X57863240Y-60684478D01*
X57918060Y-60667849D01*
X58073912Y-60620571D01*
X58183371Y-60609790D01*
X58238100Y-60604400D01*
X58347900Y-60604400D01*
X58402629Y-60609790D01*
X58402629Y-60609790D01*
G37*
G36*
X60942629Y-60609790D02*
X61052088Y-60620571D01*
X61207940Y-60667849D01*
X61262760Y-60684478D01*
X61456910Y-60788253D01*
X61627086Y-60927914D01*
X61766747Y-61098090D01*
X61870522Y-61292240D01*
X61870523Y-61292244D01*
X61934429Y-61502912D01*
X61956007Y-61722000D01*
X61934429Y-61941088D01*
X61887151Y-62096940D01*
X61870522Y-62151760D01*
X61766747Y-62345910D01*
X61627086Y-62516086D01*
X61456910Y-62655747D01*
X61262760Y-62759522D01*
X61207940Y-62776151D01*
X61052088Y-62823429D01*
X60942629Y-62834210D01*
X60887900Y-62839600D01*
X60778100Y-62839600D01*
X60723371Y-62834210D01*
X60613912Y-62823429D01*
X60458060Y-62776151D01*
X60403240Y-62759522D01*
X60209090Y-62655747D01*
X60038914Y-62516086D01*
X59899253Y-62345910D01*
X59795478Y-62151760D01*
X59778849Y-62096940D01*
X59731571Y-61941088D01*
X59709993Y-61722000D01*
X59731571Y-61502912D01*
X59795477Y-61292244D01*
X59795478Y-61292240D01*
X59899253Y-61098090D01*
X60038914Y-60927914D01*
X60209090Y-60788253D01*
X60403240Y-60684478D01*
X60458060Y-60667849D01*
X60613912Y-60620571D01*
X60723371Y-60609790D01*
X60778100Y-60604400D01*
X60887900Y-60604400D01*
X60942629Y-60609790D01*
X60942629Y-60609790D01*
G37*
G36*
X63482629Y-60609790D02*
X63592088Y-60620571D01*
X63747940Y-60667849D01*
X63802760Y-60684478D01*
X63996910Y-60788253D01*
X64167086Y-60927914D01*
X64306747Y-61098090D01*
X64410522Y-61292240D01*
X64410523Y-61292244D01*
X64474429Y-61502912D01*
X64496007Y-61722000D01*
X64474429Y-61941088D01*
X64427151Y-62096940D01*
X64410522Y-62151760D01*
X64306747Y-62345910D01*
X64167086Y-62516086D01*
X63996910Y-62655747D01*
X63802760Y-62759522D01*
X63747940Y-62776151D01*
X63592088Y-62823429D01*
X63482629Y-62834210D01*
X63427900Y-62839600D01*
X63318100Y-62839600D01*
X63263371Y-62834210D01*
X63153912Y-62823429D01*
X62998060Y-62776151D01*
X62943240Y-62759522D01*
X62749090Y-62655747D01*
X62578914Y-62516086D01*
X62439253Y-62345910D01*
X62335478Y-62151760D01*
X62318849Y-62096940D01*
X62271571Y-61941088D01*
X62249993Y-61722000D01*
X62271571Y-61502912D01*
X62335477Y-61292244D01*
X62335478Y-61292240D01*
X62439253Y-61098090D01*
X62578914Y-60927914D01*
X62749090Y-60788253D01*
X62943240Y-60684478D01*
X62998060Y-60667849D01*
X63153912Y-60620571D01*
X63263371Y-60609790D01*
X63318100Y-60604400D01*
X63427900Y-60604400D01*
X63482629Y-60609790D01*
X63482629Y-60609790D01*
G37*
G36*
X66022629Y-60609790D02*
X66132088Y-60620571D01*
X66287940Y-60667849D01*
X66342760Y-60684478D01*
X66536910Y-60788253D01*
X66707086Y-60927914D01*
X66846747Y-61098090D01*
X66950522Y-61292240D01*
X66950523Y-61292244D01*
X67014429Y-61502912D01*
X67036007Y-61722000D01*
X67014429Y-61941088D01*
X66967151Y-62096940D01*
X66950522Y-62151760D01*
X66846747Y-62345910D01*
X66707086Y-62516086D01*
X66536910Y-62655747D01*
X66342760Y-62759522D01*
X66287940Y-62776151D01*
X66132088Y-62823429D01*
X66022629Y-62834210D01*
X65967900Y-62839600D01*
X65858100Y-62839600D01*
X65803371Y-62834210D01*
X65693912Y-62823429D01*
X65538060Y-62776151D01*
X65483240Y-62759522D01*
X65289090Y-62655747D01*
X65118914Y-62516086D01*
X64979253Y-62345910D01*
X64875478Y-62151760D01*
X64858849Y-62096940D01*
X64811571Y-61941088D01*
X64789993Y-61722000D01*
X64811571Y-61502912D01*
X64875477Y-61292244D01*
X64875478Y-61292240D01*
X64979253Y-61098090D01*
X65118914Y-60927914D01*
X65289090Y-60788253D01*
X65483240Y-60684478D01*
X65538060Y-60667849D01*
X65693912Y-60620571D01*
X65803371Y-60609790D01*
X65858100Y-60604400D01*
X65967900Y-60604400D01*
X66022629Y-60609790D01*
X66022629Y-60609790D01*
G37*
G36*
X68562629Y-60609790D02*
X68672088Y-60620571D01*
X68827940Y-60667849D01*
X68882760Y-60684478D01*
X69076910Y-60788253D01*
X69247086Y-60927914D01*
X69386747Y-61098090D01*
X69490522Y-61292240D01*
X69490523Y-61292244D01*
X69554429Y-61502912D01*
X69576007Y-61722000D01*
X69554429Y-61941088D01*
X69507151Y-62096940D01*
X69490522Y-62151760D01*
X69386747Y-62345910D01*
X69247086Y-62516086D01*
X69076910Y-62655747D01*
X68882760Y-62759522D01*
X68827940Y-62776151D01*
X68672088Y-62823429D01*
X68562629Y-62834210D01*
X68507900Y-62839600D01*
X68398100Y-62839600D01*
X68343371Y-62834210D01*
X68233912Y-62823429D01*
X68078060Y-62776151D01*
X68023240Y-62759522D01*
X67829090Y-62655747D01*
X67658914Y-62516086D01*
X67519253Y-62345910D01*
X67415478Y-62151760D01*
X67398849Y-62096940D01*
X67351571Y-61941088D01*
X67329993Y-61722000D01*
X67351571Y-61502912D01*
X67415477Y-61292244D01*
X67415478Y-61292240D01*
X67519253Y-61098090D01*
X67658914Y-60927914D01*
X67829090Y-60788253D01*
X68023240Y-60684478D01*
X68078060Y-60667849D01*
X68233912Y-60620571D01*
X68343371Y-60609790D01*
X68398100Y-60604400D01*
X68507900Y-60604400D01*
X68562629Y-60609790D01*
X68562629Y-60609790D01*
G37*
G36*
X71102629Y-60609790D02*
X71212088Y-60620571D01*
X71367940Y-60667849D01*
X71422760Y-60684478D01*
X71616910Y-60788253D01*
X71787086Y-60927914D01*
X71926747Y-61098090D01*
X72030522Y-61292240D01*
X72030523Y-61292244D01*
X72094429Y-61502912D01*
X72116007Y-61722000D01*
X72094429Y-61941088D01*
X72047151Y-62096940D01*
X72030522Y-62151760D01*
X71926747Y-62345910D01*
X71787086Y-62516086D01*
X71616910Y-62655747D01*
X71422760Y-62759522D01*
X71367940Y-62776151D01*
X71212088Y-62823429D01*
X71102629Y-62834210D01*
X71047900Y-62839600D01*
X70938100Y-62839600D01*
X70883371Y-62834210D01*
X70773912Y-62823429D01*
X70618060Y-62776151D01*
X70563240Y-62759522D01*
X70369090Y-62655747D01*
X70198914Y-62516086D01*
X70059253Y-62345910D01*
X69955478Y-62151760D01*
X69938849Y-62096940D01*
X69891571Y-61941088D01*
X69869993Y-61722000D01*
X69891571Y-61502912D01*
X69955477Y-61292244D01*
X69955478Y-61292240D01*
X70059253Y-61098090D01*
X70198914Y-60927914D01*
X70369090Y-60788253D01*
X70563240Y-60684478D01*
X70618060Y-60667849D01*
X70773912Y-60620571D01*
X70883371Y-60609790D01*
X70938100Y-60604400D01*
X71047900Y-60604400D01*
X71102629Y-60609790D01*
X71102629Y-60609790D01*
G37*
G36*
X73642629Y-60609790D02*
X73752088Y-60620571D01*
X73907940Y-60667849D01*
X73962760Y-60684478D01*
X74156910Y-60788253D01*
X74327086Y-60927914D01*
X74466747Y-61098090D01*
X74570522Y-61292240D01*
X74570523Y-61292244D01*
X74634429Y-61502912D01*
X74656007Y-61722000D01*
X74634429Y-61941088D01*
X74587151Y-62096940D01*
X74570522Y-62151760D01*
X74466747Y-62345910D01*
X74327086Y-62516086D01*
X74156910Y-62655747D01*
X73962760Y-62759522D01*
X73907940Y-62776151D01*
X73752088Y-62823429D01*
X73642629Y-62834210D01*
X73587900Y-62839600D01*
X73478100Y-62839600D01*
X73423371Y-62834210D01*
X73313912Y-62823429D01*
X73158060Y-62776151D01*
X73103240Y-62759522D01*
X72909090Y-62655747D01*
X72738914Y-62516086D01*
X72599253Y-62345910D01*
X72495478Y-62151760D01*
X72478849Y-62096940D01*
X72431571Y-61941088D01*
X72409993Y-61722000D01*
X72431571Y-61502912D01*
X72495477Y-61292244D01*
X72495478Y-61292240D01*
X72599253Y-61098090D01*
X72738914Y-60927914D01*
X72909090Y-60788253D01*
X73103240Y-60684478D01*
X73158060Y-60667849D01*
X73313912Y-60620571D01*
X73423371Y-60609790D01*
X73478100Y-60604400D01*
X73587900Y-60604400D01*
X73642629Y-60609790D01*
X73642629Y-60609790D01*
G37*
G36*
X76182629Y-60609790D02*
X76292088Y-60620571D01*
X76447940Y-60667849D01*
X76502760Y-60684478D01*
X76696910Y-60788253D01*
X76867086Y-60927914D01*
X77006747Y-61098090D01*
X77110522Y-61292240D01*
X77110523Y-61292244D01*
X77174429Y-61502912D01*
X77196007Y-61722000D01*
X77174429Y-61941088D01*
X77127151Y-62096940D01*
X77110522Y-62151760D01*
X77006747Y-62345910D01*
X76867086Y-62516086D01*
X76696910Y-62655747D01*
X76502760Y-62759522D01*
X76447940Y-62776151D01*
X76292088Y-62823429D01*
X76182629Y-62834210D01*
X76127900Y-62839600D01*
X76018100Y-62839600D01*
X75963371Y-62834210D01*
X75853912Y-62823429D01*
X75698060Y-62776151D01*
X75643240Y-62759522D01*
X75449090Y-62655747D01*
X75278914Y-62516086D01*
X75139253Y-62345910D01*
X75035478Y-62151760D01*
X75018849Y-62096940D01*
X74971571Y-61941088D01*
X74949993Y-61722000D01*
X74971571Y-61502912D01*
X75035477Y-61292244D01*
X75035478Y-61292240D01*
X75139253Y-61098090D01*
X75278914Y-60927914D01*
X75449090Y-60788253D01*
X75643240Y-60684478D01*
X75698060Y-60667849D01*
X75853912Y-60620571D01*
X75963371Y-60609790D01*
X76018100Y-60604400D01*
X76127900Y-60604400D01*
X76182629Y-60609790D01*
X76182629Y-60609790D01*
G37*
G36*
X78722629Y-60609790D02*
X78832088Y-60620571D01*
X78987940Y-60667849D01*
X79042760Y-60684478D01*
X79236910Y-60788253D01*
X79407086Y-60927914D01*
X79546747Y-61098090D01*
X79650522Y-61292240D01*
X79650523Y-61292244D01*
X79714429Y-61502912D01*
X79736007Y-61722000D01*
X79714429Y-61941088D01*
X79667151Y-62096940D01*
X79650522Y-62151760D01*
X79546747Y-62345910D01*
X79407086Y-62516086D01*
X79236910Y-62655747D01*
X79042760Y-62759522D01*
X78987940Y-62776151D01*
X78832088Y-62823429D01*
X78722629Y-62834210D01*
X78667900Y-62839600D01*
X78558100Y-62839600D01*
X78503371Y-62834210D01*
X78393912Y-62823429D01*
X78238060Y-62776151D01*
X78183240Y-62759522D01*
X77989090Y-62655747D01*
X77818914Y-62516086D01*
X77679253Y-62345910D01*
X77575478Y-62151760D01*
X77558849Y-62096940D01*
X77511571Y-61941088D01*
X77489993Y-61722000D01*
X77511571Y-61502912D01*
X77575477Y-61292244D01*
X77575478Y-61292240D01*
X77679253Y-61098090D01*
X77818914Y-60927914D01*
X77989090Y-60788253D01*
X78183240Y-60684478D01*
X78238060Y-60667849D01*
X78393912Y-60620571D01*
X78503371Y-60609790D01*
X78558100Y-60604400D01*
X78667900Y-60604400D01*
X78722629Y-60609790D01*
X78722629Y-60609790D01*
G37*
G36*
X86342629Y-60609790D02*
X86452088Y-60620571D01*
X86607940Y-60667849D01*
X86662760Y-60684478D01*
X86856910Y-60788253D01*
X87027086Y-60927914D01*
X87166747Y-61098090D01*
X87270522Y-61292240D01*
X87270523Y-61292244D01*
X87334429Y-61502912D01*
X87356007Y-61722000D01*
X87334429Y-61941088D01*
X87287151Y-62096940D01*
X87270522Y-62151760D01*
X87166747Y-62345910D01*
X87027086Y-62516086D01*
X86856910Y-62655747D01*
X86662760Y-62759522D01*
X86607940Y-62776151D01*
X86452088Y-62823429D01*
X86342629Y-62834210D01*
X86287900Y-62839600D01*
X86178100Y-62839600D01*
X86123371Y-62834210D01*
X86013912Y-62823429D01*
X85858060Y-62776151D01*
X85803240Y-62759522D01*
X85609090Y-62655747D01*
X85438914Y-62516086D01*
X85299253Y-62345910D01*
X85195478Y-62151760D01*
X85178849Y-62096940D01*
X85131571Y-61941088D01*
X85109993Y-61722000D01*
X85131571Y-61502912D01*
X85195477Y-61292244D01*
X85195478Y-61292240D01*
X85299253Y-61098090D01*
X85438914Y-60927914D01*
X85609090Y-60788253D01*
X85803240Y-60684478D01*
X85858060Y-60667849D01*
X86013912Y-60620571D01*
X86123371Y-60609790D01*
X86178100Y-60604400D01*
X86287900Y-60604400D01*
X86342629Y-60609790D01*
X86342629Y-60609790D01*
G37*
G36*
X104122629Y-60609790D02*
X104232088Y-60620571D01*
X104387940Y-60667849D01*
X104442760Y-60684478D01*
X104636910Y-60788253D01*
X104807086Y-60927914D01*
X104946747Y-61098090D01*
X105050522Y-61292240D01*
X105050523Y-61292244D01*
X105114429Y-61502912D01*
X105136007Y-61722000D01*
X105114429Y-61941088D01*
X105067151Y-62096940D01*
X105050522Y-62151760D01*
X104946747Y-62345910D01*
X104807086Y-62516086D01*
X104636910Y-62655747D01*
X104442760Y-62759522D01*
X104387940Y-62776151D01*
X104232088Y-62823429D01*
X104122629Y-62834210D01*
X104067900Y-62839600D01*
X103958100Y-62839600D01*
X103903371Y-62834210D01*
X103793912Y-62823429D01*
X103638060Y-62776151D01*
X103583240Y-62759522D01*
X103389090Y-62655747D01*
X103218914Y-62516086D01*
X103079253Y-62345910D01*
X102975478Y-62151760D01*
X102958849Y-62096940D01*
X102911571Y-61941088D01*
X102889993Y-61722000D01*
X102911571Y-61502912D01*
X102975477Y-61292244D01*
X102975478Y-61292240D01*
X103079253Y-61098090D01*
X103218914Y-60927914D01*
X103389090Y-60788253D01*
X103583240Y-60684478D01*
X103638060Y-60667849D01*
X103793912Y-60620571D01*
X103903371Y-60609790D01*
X103958100Y-60604400D01*
X104067900Y-60604400D01*
X104122629Y-60609790D01*
X104122629Y-60609790D01*
G37*
G36*
X96502629Y-60609790D02*
X96612088Y-60620571D01*
X96767940Y-60667849D01*
X96822760Y-60684478D01*
X97016910Y-60788253D01*
X97187086Y-60927914D01*
X97326747Y-61098090D01*
X97430522Y-61292240D01*
X97430523Y-61292244D01*
X97494429Y-61502912D01*
X97516007Y-61722000D01*
X97494429Y-61941088D01*
X97447151Y-62096940D01*
X97430522Y-62151760D01*
X97326747Y-62345910D01*
X97187086Y-62516086D01*
X97016910Y-62655747D01*
X96822760Y-62759522D01*
X96767940Y-62776151D01*
X96612088Y-62823429D01*
X96502629Y-62834210D01*
X96447900Y-62839600D01*
X96338100Y-62839600D01*
X96283371Y-62834210D01*
X96173912Y-62823429D01*
X96018060Y-62776151D01*
X95963240Y-62759522D01*
X95769090Y-62655747D01*
X95598914Y-62516086D01*
X95459253Y-62345910D01*
X95355478Y-62151760D01*
X95338849Y-62096940D01*
X95291571Y-61941088D01*
X95269993Y-61722000D01*
X95291571Y-61502912D01*
X95355477Y-61292244D01*
X95355478Y-61292240D01*
X95459253Y-61098090D01*
X95598914Y-60927914D01*
X95769090Y-60788253D01*
X95963240Y-60684478D01*
X96018060Y-60667849D01*
X96173912Y-60620571D01*
X96283371Y-60609790D01*
X96338100Y-60604400D01*
X96447900Y-60604400D01*
X96502629Y-60609790D01*
X96502629Y-60609790D01*
G37*
G36*
X101582629Y-60609790D02*
X101692088Y-60620571D01*
X101847940Y-60667849D01*
X101902760Y-60684478D01*
X102096910Y-60788253D01*
X102267086Y-60927914D01*
X102406747Y-61098090D01*
X102510522Y-61292240D01*
X102510523Y-61292244D01*
X102574429Y-61502912D01*
X102596007Y-61722000D01*
X102574429Y-61941088D01*
X102527151Y-62096940D01*
X102510522Y-62151760D01*
X102406747Y-62345910D01*
X102267086Y-62516086D01*
X102096910Y-62655747D01*
X101902760Y-62759522D01*
X101847940Y-62776151D01*
X101692088Y-62823429D01*
X101582629Y-62834210D01*
X101527900Y-62839600D01*
X101418100Y-62839600D01*
X101363371Y-62834210D01*
X101253912Y-62823429D01*
X101098060Y-62776151D01*
X101043240Y-62759522D01*
X100849090Y-62655747D01*
X100678914Y-62516086D01*
X100539253Y-62345910D01*
X100435478Y-62151760D01*
X100418849Y-62096940D01*
X100371571Y-61941088D01*
X100349993Y-61722000D01*
X100371571Y-61502912D01*
X100435477Y-61292244D01*
X100435478Y-61292240D01*
X100539253Y-61098090D01*
X100678914Y-60927914D01*
X100849090Y-60788253D01*
X101043240Y-60684478D01*
X101098060Y-60667849D01*
X101253912Y-60620571D01*
X101363371Y-60609790D01*
X101418100Y-60604400D01*
X101527900Y-60604400D01*
X101582629Y-60609790D01*
X101582629Y-60609790D01*
G37*
G36*
X106662629Y-60609790D02*
X106772088Y-60620571D01*
X106927940Y-60667849D01*
X106982760Y-60684478D01*
X107176910Y-60788253D01*
X107347086Y-60927914D01*
X107486747Y-61098090D01*
X107590522Y-61292240D01*
X107590523Y-61292244D01*
X107654429Y-61502912D01*
X107676007Y-61722000D01*
X107654429Y-61941088D01*
X107607151Y-62096940D01*
X107590522Y-62151760D01*
X107486747Y-62345910D01*
X107347086Y-62516086D01*
X107176910Y-62655747D01*
X106982760Y-62759522D01*
X106927940Y-62776151D01*
X106772088Y-62823429D01*
X106662629Y-62834210D01*
X106607900Y-62839600D01*
X106498100Y-62839600D01*
X106443371Y-62834210D01*
X106333912Y-62823429D01*
X106178060Y-62776151D01*
X106123240Y-62759522D01*
X105929090Y-62655747D01*
X105758914Y-62516086D01*
X105619253Y-62345910D01*
X105515478Y-62151760D01*
X105498849Y-62096940D01*
X105451571Y-61941088D01*
X105429993Y-61722000D01*
X105451571Y-61502912D01*
X105515477Y-61292244D01*
X105515478Y-61292240D01*
X105619253Y-61098090D01*
X105758914Y-60927914D01*
X105929090Y-60788253D01*
X106123240Y-60684478D01*
X106178060Y-60667849D01*
X106333912Y-60620571D01*
X106443371Y-60609790D01*
X106498100Y-60604400D01*
X106607900Y-60604400D01*
X106662629Y-60609790D01*
X106662629Y-60609790D01*
G37*
G36*
X99042629Y-60609790D02*
X99152088Y-60620571D01*
X99307940Y-60667849D01*
X99362760Y-60684478D01*
X99556910Y-60788253D01*
X99727086Y-60927914D01*
X99866747Y-61098090D01*
X99970522Y-61292240D01*
X99970523Y-61292244D01*
X100034429Y-61502912D01*
X100056007Y-61722000D01*
X100034429Y-61941088D01*
X99987151Y-62096940D01*
X99970522Y-62151760D01*
X99866747Y-62345910D01*
X99727086Y-62516086D01*
X99556910Y-62655747D01*
X99362760Y-62759522D01*
X99307940Y-62776151D01*
X99152088Y-62823429D01*
X99042629Y-62834210D01*
X98987900Y-62839600D01*
X98878100Y-62839600D01*
X98823371Y-62834210D01*
X98713912Y-62823429D01*
X98558060Y-62776151D01*
X98503240Y-62759522D01*
X98309090Y-62655747D01*
X98138914Y-62516086D01*
X97999253Y-62345910D01*
X97895478Y-62151760D01*
X97878849Y-62096940D01*
X97831571Y-61941088D01*
X97809993Y-61722000D01*
X97831571Y-61502912D01*
X97895477Y-61292244D01*
X97895478Y-61292240D01*
X97999253Y-61098090D01*
X98138914Y-60927914D01*
X98309090Y-60788253D01*
X98503240Y-60684478D01*
X98558060Y-60667849D01*
X98713912Y-60620571D01*
X98823371Y-60609790D01*
X98878100Y-60604400D01*
X98987900Y-60604400D01*
X99042629Y-60609790D01*
X99042629Y-60609790D01*
G37*
G36*
X83802629Y-60609790D02*
X83912088Y-60620571D01*
X84067940Y-60667849D01*
X84122760Y-60684478D01*
X84316910Y-60788253D01*
X84487086Y-60927914D01*
X84626747Y-61098090D01*
X84730522Y-61292240D01*
X84730523Y-61292244D01*
X84794429Y-61502912D01*
X84816007Y-61722000D01*
X84794429Y-61941088D01*
X84747151Y-62096940D01*
X84730522Y-62151760D01*
X84626747Y-62345910D01*
X84487086Y-62516086D01*
X84316910Y-62655747D01*
X84122760Y-62759522D01*
X84067940Y-62776151D01*
X83912088Y-62823429D01*
X83802629Y-62834210D01*
X83747900Y-62839600D01*
X83638100Y-62839600D01*
X83583371Y-62834210D01*
X83473912Y-62823429D01*
X83318060Y-62776151D01*
X83263240Y-62759522D01*
X83069090Y-62655747D01*
X82898914Y-62516086D01*
X82759253Y-62345910D01*
X82655478Y-62151760D01*
X82638849Y-62096940D01*
X82591571Y-61941088D01*
X82569993Y-61722000D01*
X82591571Y-61502912D01*
X82655477Y-61292244D01*
X82655478Y-61292240D01*
X82759253Y-61098090D01*
X82898914Y-60927914D01*
X83069090Y-60788253D01*
X83263240Y-60684478D01*
X83318060Y-60667849D01*
X83473912Y-60620571D01*
X83583371Y-60609790D01*
X83638100Y-60604400D01*
X83747900Y-60604400D01*
X83802629Y-60609790D01*
X83802629Y-60609790D01*
G37*
G36*
X93962629Y-60609790D02*
X94072088Y-60620571D01*
X94227940Y-60667849D01*
X94282760Y-60684478D01*
X94476910Y-60788253D01*
X94647086Y-60927914D01*
X94786747Y-61098090D01*
X94890522Y-61292240D01*
X94890523Y-61292244D01*
X94954429Y-61502912D01*
X94976007Y-61722000D01*
X94954429Y-61941088D01*
X94907151Y-62096940D01*
X94890522Y-62151760D01*
X94786747Y-62345910D01*
X94647086Y-62516086D01*
X94476910Y-62655747D01*
X94282760Y-62759522D01*
X94227940Y-62776151D01*
X94072088Y-62823429D01*
X93962629Y-62834210D01*
X93907900Y-62839600D01*
X93798100Y-62839600D01*
X93743371Y-62834210D01*
X93633912Y-62823429D01*
X93478060Y-62776151D01*
X93423240Y-62759522D01*
X93229090Y-62655747D01*
X93058914Y-62516086D01*
X92919253Y-62345910D01*
X92815478Y-62151760D01*
X92798849Y-62096940D01*
X92751571Y-61941088D01*
X92729993Y-61722000D01*
X92751571Y-61502912D01*
X92815477Y-61292244D01*
X92815478Y-61292240D01*
X92919253Y-61098090D01*
X93058914Y-60927914D01*
X93229090Y-60788253D01*
X93423240Y-60684478D01*
X93478060Y-60667849D01*
X93633912Y-60620571D01*
X93743371Y-60609790D01*
X93798100Y-60604400D01*
X93907900Y-60604400D01*
X93962629Y-60609790D01*
X93962629Y-60609790D01*
G37*
G36*
X81262629Y-60609790D02*
X81372088Y-60620571D01*
X81527940Y-60667849D01*
X81582760Y-60684478D01*
X81776910Y-60788253D01*
X81947086Y-60927914D01*
X82086747Y-61098090D01*
X82190522Y-61292240D01*
X82190523Y-61292244D01*
X82254429Y-61502912D01*
X82276007Y-61722000D01*
X82254429Y-61941088D01*
X82207151Y-62096940D01*
X82190522Y-62151760D01*
X82086747Y-62345910D01*
X81947086Y-62516086D01*
X81776910Y-62655747D01*
X81582760Y-62759522D01*
X81527940Y-62776151D01*
X81372088Y-62823429D01*
X81262629Y-62834210D01*
X81207900Y-62839600D01*
X81098100Y-62839600D01*
X81043371Y-62834210D01*
X80933912Y-62823429D01*
X80778060Y-62776151D01*
X80723240Y-62759522D01*
X80529090Y-62655747D01*
X80358914Y-62516086D01*
X80219253Y-62345910D01*
X80115478Y-62151760D01*
X80098849Y-62096940D01*
X80051571Y-61941088D01*
X80029993Y-61722000D01*
X80051571Y-61502912D01*
X80115477Y-61292244D01*
X80115478Y-61292240D01*
X80219253Y-61098090D01*
X80358914Y-60927914D01*
X80529090Y-60788253D01*
X80723240Y-60684478D01*
X80778060Y-60667849D01*
X80933912Y-60620571D01*
X81043371Y-60609790D01*
X81098100Y-60604400D01*
X81207900Y-60604400D01*
X81262629Y-60609790D01*
X81262629Y-60609790D01*
G37*
G36*
X109202629Y-60609790D02*
X109312088Y-60620571D01*
X109467940Y-60667849D01*
X109522760Y-60684478D01*
X109716910Y-60788253D01*
X109887086Y-60927914D01*
X110026747Y-61098090D01*
X110130522Y-61292240D01*
X110130523Y-61292244D01*
X110194429Y-61502912D01*
X110216007Y-61722000D01*
X110194429Y-61941088D01*
X110147151Y-62096940D01*
X110130522Y-62151760D01*
X110026747Y-62345910D01*
X109887086Y-62516086D01*
X109716910Y-62655747D01*
X109522760Y-62759522D01*
X109467940Y-62776151D01*
X109312088Y-62823429D01*
X109202629Y-62834210D01*
X109147900Y-62839600D01*
X109038100Y-62839600D01*
X108983371Y-62834210D01*
X108873912Y-62823429D01*
X108718060Y-62776151D01*
X108663240Y-62759522D01*
X108469090Y-62655747D01*
X108298914Y-62516086D01*
X108159253Y-62345910D01*
X108055478Y-62151760D01*
X108038849Y-62096940D01*
X107991571Y-61941088D01*
X107969993Y-61722000D01*
X107991571Y-61502912D01*
X108055477Y-61292244D01*
X108055478Y-61292240D01*
X108159253Y-61098090D01*
X108298914Y-60927914D01*
X108469090Y-60788253D01*
X108663240Y-60684478D01*
X108718060Y-60667849D01*
X108873912Y-60620571D01*
X108983371Y-60609790D01*
X109038100Y-60604400D01*
X109147900Y-60604400D01*
X109202629Y-60609790D01*
X109202629Y-60609790D01*
G37*
G36*
X88882629Y-60609790D02*
X88992088Y-60620571D01*
X89147940Y-60667849D01*
X89202760Y-60684478D01*
X89396910Y-60788253D01*
X89567086Y-60927914D01*
X89706747Y-61098090D01*
X89810522Y-61292240D01*
X89810523Y-61292244D01*
X89874429Y-61502912D01*
X89896007Y-61722000D01*
X89874429Y-61941088D01*
X89827151Y-62096940D01*
X89810522Y-62151760D01*
X89706747Y-62345910D01*
X89567086Y-62516086D01*
X89396910Y-62655747D01*
X89202760Y-62759522D01*
X89147940Y-62776151D01*
X88992088Y-62823429D01*
X88882629Y-62834210D01*
X88827900Y-62839600D01*
X88718100Y-62839600D01*
X88663371Y-62834210D01*
X88553912Y-62823429D01*
X88398060Y-62776151D01*
X88343240Y-62759522D01*
X88149090Y-62655747D01*
X87978914Y-62516086D01*
X87839253Y-62345910D01*
X87735478Y-62151760D01*
X87718849Y-62096940D01*
X87671571Y-61941088D01*
X87649993Y-61722000D01*
X87671571Y-61502912D01*
X87735477Y-61292244D01*
X87735478Y-61292240D01*
X87839253Y-61098090D01*
X87978914Y-60927914D01*
X88149090Y-60788253D01*
X88343240Y-60684478D01*
X88398060Y-60667849D01*
X88553912Y-60620571D01*
X88663371Y-60609790D01*
X88718100Y-60604400D01*
X88827900Y-60604400D01*
X88882629Y-60609790D01*
X88882629Y-60609790D01*
G37*
G36*
X48242629Y-60609790D02*
X48352088Y-60620571D01*
X48507940Y-60667849D01*
X48562760Y-60684478D01*
X48756910Y-60788253D01*
X48927086Y-60927914D01*
X49066747Y-61098090D01*
X49170522Y-61292240D01*
X49170523Y-61292244D01*
X49234429Y-61502912D01*
X49256007Y-61722000D01*
X49234429Y-61941088D01*
X49187151Y-62096940D01*
X49170522Y-62151760D01*
X49066747Y-62345910D01*
X48927086Y-62516086D01*
X48756910Y-62655747D01*
X48562760Y-62759522D01*
X48507940Y-62776151D01*
X48352088Y-62823429D01*
X48242629Y-62834210D01*
X48187900Y-62839600D01*
X48078100Y-62839600D01*
X48023371Y-62834210D01*
X47913912Y-62823429D01*
X47758060Y-62776151D01*
X47703240Y-62759522D01*
X47509090Y-62655747D01*
X47338914Y-62516086D01*
X47199253Y-62345910D01*
X47095478Y-62151760D01*
X47078849Y-62096940D01*
X47031571Y-61941088D01*
X47009993Y-61722000D01*
X47031571Y-61502912D01*
X47095477Y-61292244D01*
X47095478Y-61292240D01*
X47199253Y-61098090D01*
X47338914Y-60927914D01*
X47509090Y-60788253D01*
X47703240Y-60684478D01*
X47758060Y-60667849D01*
X47913912Y-60620571D01*
X48023371Y-60609790D01*
X48078100Y-60604400D01*
X48187900Y-60604400D01*
X48242629Y-60609790D01*
X48242629Y-60609790D01*
G37*
G36*
X105207000Y-57836000D02*
X103399000Y-57836000D01*
X103399000Y-55778000D01*
X105207000Y-55778000D01*
X105207000Y-57836000D01*
X105207000Y-57836000D01*
G37*
G36*
X109707000Y-57836000D02*
X107899000Y-57836000D01*
X107899000Y-55778000D01*
X109707000Y-55778000D01*
X109707000Y-57836000D01*
X109707000Y-57836000D01*
G37*
G36*
X59944230Y-55440214D02*
X59984354Y-55452386D01*
X60021330Y-55472150D01*
X60053747Y-55498753D01*
X60080348Y-55531168D01*
X60087759Y-55545033D01*
X60101373Y-55565408D01*
X60118700Y-55582736D01*
X60139074Y-55596350D01*
X60161713Y-55605727D01*
X60185747Y-55610508D01*
X60210251Y-55610508D01*
X60234284Y-55605728D01*
X60256923Y-55596351D01*
X60277298Y-55582737D01*
X60294626Y-55565410D01*
X60308241Y-55545033D01*
X60315652Y-55531168D01*
X60342253Y-55498753D01*
X60374670Y-55472150D01*
X60411646Y-55452386D01*
X60451770Y-55440214D01*
X60499638Y-55435500D01*
X61166362Y-55435500D01*
X61214230Y-55440214D01*
X61254354Y-55452386D01*
X61291330Y-55472150D01*
X61323747Y-55498753D01*
X61350348Y-55531168D01*
X61357759Y-55545033D01*
X61371373Y-55565408D01*
X61388700Y-55582736D01*
X61409074Y-55596350D01*
X61431713Y-55605727D01*
X61455747Y-55610508D01*
X61480251Y-55610508D01*
X61504284Y-55605728D01*
X61526923Y-55596351D01*
X61547298Y-55582737D01*
X61564626Y-55565410D01*
X61578241Y-55545033D01*
X61585652Y-55531168D01*
X61612253Y-55498753D01*
X61644670Y-55472150D01*
X61681646Y-55452386D01*
X61721770Y-55440214D01*
X61769638Y-55435500D01*
X62436362Y-55435500D01*
X62484230Y-55440214D01*
X62524354Y-55452386D01*
X62561330Y-55472150D01*
X62593747Y-55498753D01*
X62620348Y-55531168D01*
X62627759Y-55545033D01*
X62641373Y-55565408D01*
X62658700Y-55582736D01*
X62679074Y-55596350D01*
X62701713Y-55605727D01*
X62725747Y-55610508D01*
X62750251Y-55610508D01*
X62774284Y-55605728D01*
X62796923Y-55596351D01*
X62817298Y-55582737D01*
X62834626Y-55565410D01*
X62848241Y-55545033D01*
X62855652Y-55531168D01*
X62882253Y-55498753D01*
X62914670Y-55472150D01*
X62951646Y-55452386D01*
X62991770Y-55440214D01*
X63039638Y-55435500D01*
X63706362Y-55435500D01*
X63754230Y-55440214D01*
X63794354Y-55452386D01*
X63831330Y-55472150D01*
X63863747Y-55498753D01*
X63890348Y-55531168D01*
X63897759Y-55545033D01*
X63911373Y-55565408D01*
X63928700Y-55582736D01*
X63949074Y-55596350D01*
X63971713Y-55605727D01*
X63995747Y-55610508D01*
X64020251Y-55610508D01*
X64044284Y-55605728D01*
X64066923Y-55596351D01*
X64087298Y-55582737D01*
X64104626Y-55565410D01*
X64118241Y-55545033D01*
X64125652Y-55531168D01*
X64152253Y-55498753D01*
X64184670Y-55472150D01*
X64221646Y-55452386D01*
X64261770Y-55440214D01*
X64309638Y-55435500D01*
X64976362Y-55435500D01*
X65024230Y-55440214D01*
X65064354Y-55452386D01*
X65101330Y-55472150D01*
X65133747Y-55498753D01*
X65160348Y-55531168D01*
X65167759Y-55545033D01*
X65181373Y-55565408D01*
X65198700Y-55582736D01*
X65219074Y-55596350D01*
X65241713Y-55605727D01*
X65265747Y-55610508D01*
X65290251Y-55610508D01*
X65314284Y-55605728D01*
X65336923Y-55596351D01*
X65357298Y-55582737D01*
X65374626Y-55565410D01*
X65388241Y-55545033D01*
X65395652Y-55531168D01*
X65422253Y-55498753D01*
X65454670Y-55472150D01*
X65491646Y-55452386D01*
X65531770Y-55440214D01*
X65579638Y-55435500D01*
X66246362Y-55435500D01*
X66294230Y-55440214D01*
X66334354Y-55452386D01*
X66371330Y-55472150D01*
X66403747Y-55498753D01*
X66430348Y-55531168D01*
X66437759Y-55545033D01*
X66451373Y-55565408D01*
X66468700Y-55582736D01*
X66489074Y-55596350D01*
X66511713Y-55605727D01*
X66535747Y-55610508D01*
X66560251Y-55610508D01*
X66584284Y-55605728D01*
X66606923Y-55596351D01*
X66627298Y-55582737D01*
X66644626Y-55565410D01*
X66658241Y-55545033D01*
X66665652Y-55531168D01*
X66692253Y-55498753D01*
X66724670Y-55472150D01*
X66761646Y-55452386D01*
X66801770Y-55440214D01*
X66849638Y-55435500D01*
X67516362Y-55435500D01*
X67564230Y-55440214D01*
X67604354Y-55452386D01*
X67641330Y-55472150D01*
X67673747Y-55498753D01*
X67700348Y-55531168D01*
X67707759Y-55545033D01*
X67721373Y-55565408D01*
X67738700Y-55582736D01*
X67759074Y-55596350D01*
X67781713Y-55605727D01*
X67805747Y-55610508D01*
X67830251Y-55610508D01*
X67854284Y-55605728D01*
X67876923Y-55596351D01*
X67897298Y-55582737D01*
X67914626Y-55565410D01*
X67928241Y-55545033D01*
X67935652Y-55531168D01*
X67962253Y-55498753D01*
X67994670Y-55472150D01*
X68031646Y-55452386D01*
X68071770Y-55440214D01*
X68119638Y-55435500D01*
X68786362Y-55435500D01*
X68834230Y-55440214D01*
X68874354Y-55452386D01*
X68911330Y-55472150D01*
X68943747Y-55498753D01*
X68970348Y-55531168D01*
X68977759Y-55545033D01*
X68991373Y-55565408D01*
X69008700Y-55582736D01*
X69029074Y-55596350D01*
X69051713Y-55605727D01*
X69075747Y-55610508D01*
X69100251Y-55610508D01*
X69124284Y-55605728D01*
X69146923Y-55596351D01*
X69167298Y-55582737D01*
X69184626Y-55565410D01*
X69198241Y-55545033D01*
X69205652Y-55531168D01*
X69232253Y-55498753D01*
X69264670Y-55472150D01*
X69301646Y-55452386D01*
X69341770Y-55440214D01*
X69389638Y-55435500D01*
X70056362Y-55435500D01*
X70104230Y-55440214D01*
X70144354Y-55452386D01*
X70181330Y-55472150D01*
X70213747Y-55498753D01*
X70240350Y-55531170D01*
X70260114Y-55568146D01*
X70272286Y-55608270D01*
X70277000Y-55656138D01*
X70277000Y-57322862D01*
X70272286Y-57370730D01*
X70260114Y-57410854D01*
X70240350Y-57447830D01*
X70213747Y-57480247D01*
X70181330Y-57506850D01*
X70144354Y-57526614D01*
X70104230Y-57538786D01*
X70056362Y-57543500D01*
X69389638Y-57543500D01*
X69341770Y-57538786D01*
X69301646Y-57526614D01*
X69264670Y-57506850D01*
X69232253Y-57480247D01*
X69205652Y-57447832D01*
X69198241Y-57433967D01*
X69184627Y-57413592D01*
X69167300Y-57396264D01*
X69146926Y-57382650D01*
X69124287Y-57373273D01*
X69100253Y-57368492D01*
X69075749Y-57368492D01*
X69051716Y-57373272D01*
X69029077Y-57382649D01*
X69008702Y-57396263D01*
X68991374Y-57413590D01*
X68977759Y-57433967D01*
X68970348Y-57447832D01*
X68943747Y-57480247D01*
X68911330Y-57506850D01*
X68874354Y-57526614D01*
X68834230Y-57538786D01*
X68786362Y-57543500D01*
X68119638Y-57543500D01*
X68071770Y-57538786D01*
X68031646Y-57526614D01*
X67994670Y-57506850D01*
X67962253Y-57480247D01*
X67935652Y-57447832D01*
X67928241Y-57433967D01*
X67914627Y-57413592D01*
X67897300Y-57396264D01*
X67876926Y-57382650D01*
X67854287Y-57373273D01*
X67830253Y-57368492D01*
X67805749Y-57368492D01*
X67781716Y-57373272D01*
X67759077Y-57382649D01*
X67738702Y-57396263D01*
X67721374Y-57413590D01*
X67707759Y-57433967D01*
X67700348Y-57447832D01*
X67673747Y-57480247D01*
X67641330Y-57506850D01*
X67604354Y-57526614D01*
X67564230Y-57538786D01*
X67516362Y-57543500D01*
X66849638Y-57543500D01*
X66801770Y-57538786D01*
X66761646Y-57526614D01*
X66724670Y-57506850D01*
X66692253Y-57480247D01*
X66665652Y-57447832D01*
X66658241Y-57433967D01*
X66644627Y-57413592D01*
X66627300Y-57396264D01*
X66606926Y-57382650D01*
X66584287Y-57373273D01*
X66560253Y-57368492D01*
X66535749Y-57368492D01*
X66511716Y-57373272D01*
X66489077Y-57382649D01*
X66468702Y-57396263D01*
X66451374Y-57413590D01*
X66437759Y-57433967D01*
X66430348Y-57447832D01*
X66403747Y-57480247D01*
X66371330Y-57506850D01*
X66334354Y-57526614D01*
X66294230Y-57538786D01*
X66246362Y-57543500D01*
X65579638Y-57543500D01*
X65531770Y-57538786D01*
X65491646Y-57526614D01*
X65454670Y-57506850D01*
X65422253Y-57480247D01*
X65395652Y-57447832D01*
X65388241Y-57433967D01*
X65374627Y-57413592D01*
X65357300Y-57396264D01*
X65336926Y-57382650D01*
X65314287Y-57373273D01*
X65290253Y-57368492D01*
X65265749Y-57368492D01*
X65241716Y-57373272D01*
X65219077Y-57382649D01*
X65198702Y-57396263D01*
X65181374Y-57413590D01*
X65167759Y-57433967D01*
X65160348Y-57447832D01*
X65133747Y-57480247D01*
X65101330Y-57506850D01*
X65064354Y-57526614D01*
X65024230Y-57538786D01*
X64976362Y-57543500D01*
X64309638Y-57543500D01*
X64261770Y-57538786D01*
X64221646Y-57526614D01*
X64184670Y-57506850D01*
X64152253Y-57480247D01*
X64125652Y-57447832D01*
X64118241Y-57433967D01*
X64104627Y-57413592D01*
X64087300Y-57396264D01*
X64066926Y-57382650D01*
X64044287Y-57373273D01*
X64020253Y-57368492D01*
X63995749Y-57368492D01*
X63971716Y-57373272D01*
X63949077Y-57382649D01*
X63928702Y-57396263D01*
X63911374Y-57413590D01*
X63897759Y-57433967D01*
X63890348Y-57447832D01*
X63863747Y-57480247D01*
X63831330Y-57506850D01*
X63794354Y-57526614D01*
X63754230Y-57538786D01*
X63706362Y-57543500D01*
X63039638Y-57543500D01*
X62991770Y-57538786D01*
X62951646Y-57526614D01*
X62914670Y-57506850D01*
X62882253Y-57480247D01*
X62855652Y-57447832D01*
X62848241Y-57433967D01*
X62834627Y-57413592D01*
X62817300Y-57396264D01*
X62796926Y-57382650D01*
X62774287Y-57373273D01*
X62750253Y-57368492D01*
X62725749Y-57368492D01*
X62701716Y-57373272D01*
X62679077Y-57382649D01*
X62658702Y-57396263D01*
X62641374Y-57413590D01*
X62627759Y-57433967D01*
X62620348Y-57447832D01*
X62593747Y-57480247D01*
X62561330Y-57506850D01*
X62524354Y-57526614D01*
X62484230Y-57538786D01*
X62436362Y-57543500D01*
X61769638Y-57543500D01*
X61721770Y-57538786D01*
X61681646Y-57526614D01*
X61644670Y-57506850D01*
X61612253Y-57480247D01*
X61585652Y-57447832D01*
X61578241Y-57433967D01*
X61564627Y-57413592D01*
X61547300Y-57396264D01*
X61526926Y-57382650D01*
X61504287Y-57373273D01*
X61480253Y-57368492D01*
X61455749Y-57368492D01*
X61431716Y-57373272D01*
X61409077Y-57382649D01*
X61388702Y-57396263D01*
X61371374Y-57413590D01*
X61357759Y-57433967D01*
X61350348Y-57447832D01*
X61323747Y-57480247D01*
X61291330Y-57506850D01*
X61254354Y-57526614D01*
X61214230Y-57538786D01*
X61166362Y-57543500D01*
X60499638Y-57543500D01*
X60451770Y-57538786D01*
X60411646Y-57526614D01*
X60374670Y-57506850D01*
X60342253Y-57480247D01*
X60315652Y-57447832D01*
X60308241Y-57433967D01*
X60294627Y-57413592D01*
X60277300Y-57396264D01*
X60256926Y-57382650D01*
X60234287Y-57373273D01*
X60210253Y-57368492D01*
X60185749Y-57368492D01*
X60161716Y-57373272D01*
X60139077Y-57382649D01*
X60118702Y-57396263D01*
X60101374Y-57413590D01*
X60087759Y-57433967D01*
X60080348Y-57447832D01*
X60053747Y-57480247D01*
X60021330Y-57506850D01*
X59984354Y-57526614D01*
X59944230Y-57538786D01*
X59896362Y-57543500D01*
X59229638Y-57543500D01*
X59181770Y-57538786D01*
X59141646Y-57526614D01*
X59104670Y-57506850D01*
X59072253Y-57480247D01*
X59045650Y-57447830D01*
X59025886Y-57410854D01*
X59013714Y-57370730D01*
X59009000Y-57322862D01*
X59009000Y-55656138D01*
X59013714Y-55608270D01*
X59025886Y-55568146D01*
X59045650Y-55531170D01*
X59072253Y-55498753D01*
X59104670Y-55472150D01*
X59141646Y-55452386D01*
X59181770Y-55440214D01*
X59229638Y-55435500D01*
X59896362Y-55435500D01*
X59944230Y-55440214D01*
X59944230Y-55440214D01*
G37*
G36*
X72361730Y-46567714D02*
X72401854Y-46579886D01*
X72438830Y-46599650D01*
X72471247Y-46626253D01*
X72497850Y-46658670D01*
X72517614Y-46695646D01*
X72529786Y-46735770D01*
X72534500Y-46783638D01*
X72534500Y-47450362D01*
X72529786Y-47498230D01*
X72517614Y-47538354D01*
X72497850Y-47575330D01*
X72471247Y-47607747D01*
X72438832Y-47634348D01*
X72424967Y-47641759D01*
X72404592Y-47655373D01*
X72387264Y-47672700D01*
X72373650Y-47693074D01*
X72364273Y-47715713D01*
X72359492Y-47739747D01*
X72359492Y-47764251D01*
X72364272Y-47788284D01*
X72373649Y-47810923D01*
X72387263Y-47831298D01*
X72404590Y-47848626D01*
X72424967Y-47862241D01*
X72438832Y-47869652D01*
X72471247Y-47896253D01*
X72497850Y-47928670D01*
X72517614Y-47965646D01*
X72529786Y-48005770D01*
X72534500Y-48053638D01*
X72534500Y-48720362D01*
X72529786Y-48768230D01*
X72517614Y-48808354D01*
X72497850Y-48845330D01*
X72471247Y-48877747D01*
X72438832Y-48904348D01*
X72424967Y-48911759D01*
X72404592Y-48925373D01*
X72387264Y-48942700D01*
X72373650Y-48963074D01*
X72364273Y-48985713D01*
X72359492Y-49009747D01*
X72359492Y-49034251D01*
X72364272Y-49058284D01*
X72373649Y-49080923D01*
X72387263Y-49101298D01*
X72404590Y-49118626D01*
X72424967Y-49132241D01*
X72438832Y-49139652D01*
X72471247Y-49166253D01*
X72497850Y-49198670D01*
X72517614Y-49235646D01*
X72529786Y-49275770D01*
X72534500Y-49323638D01*
X72534500Y-49990362D01*
X72529786Y-50038230D01*
X72517614Y-50078354D01*
X72497850Y-50115330D01*
X72471247Y-50147747D01*
X72438832Y-50174348D01*
X72424967Y-50181759D01*
X72404592Y-50195373D01*
X72387264Y-50212700D01*
X72373650Y-50233074D01*
X72364273Y-50255713D01*
X72359492Y-50279747D01*
X72359492Y-50304251D01*
X72364272Y-50328284D01*
X72373649Y-50350923D01*
X72387263Y-50371298D01*
X72404590Y-50388626D01*
X72424967Y-50402241D01*
X72438832Y-50409652D01*
X72471247Y-50436253D01*
X72497850Y-50468670D01*
X72517614Y-50505646D01*
X72529786Y-50545770D01*
X72534500Y-50593638D01*
X72534500Y-51260362D01*
X72529786Y-51308230D01*
X72517614Y-51348354D01*
X72497850Y-51385330D01*
X72471247Y-51417747D01*
X72438832Y-51444348D01*
X72424967Y-51451759D01*
X72404592Y-51465373D01*
X72387264Y-51482700D01*
X72373650Y-51503074D01*
X72364273Y-51525713D01*
X72359492Y-51549747D01*
X72359492Y-51574251D01*
X72364272Y-51598284D01*
X72373649Y-51620923D01*
X72387263Y-51641298D01*
X72404590Y-51658626D01*
X72424967Y-51672241D01*
X72438832Y-51679652D01*
X72471247Y-51706253D01*
X72497850Y-51738670D01*
X72517614Y-51775646D01*
X72529786Y-51815770D01*
X72534500Y-51863638D01*
X72534500Y-52530362D01*
X72529786Y-52578230D01*
X72517614Y-52618354D01*
X72497850Y-52655330D01*
X72471247Y-52687747D01*
X72438832Y-52714348D01*
X72424967Y-52721759D01*
X72404592Y-52735373D01*
X72387264Y-52752700D01*
X72373650Y-52773074D01*
X72364273Y-52795713D01*
X72359492Y-52819747D01*
X72359492Y-52844251D01*
X72364272Y-52868284D01*
X72373649Y-52890923D01*
X72387263Y-52911298D01*
X72404590Y-52928626D01*
X72424967Y-52942241D01*
X72438832Y-52949652D01*
X72471247Y-52976253D01*
X72497850Y-53008670D01*
X72517614Y-53045646D01*
X72529786Y-53085770D01*
X72534500Y-53133638D01*
X72534500Y-53800362D01*
X72529786Y-53848230D01*
X72517614Y-53888354D01*
X72497850Y-53925330D01*
X72471247Y-53957747D01*
X72438832Y-53984348D01*
X72424967Y-53991759D01*
X72404592Y-54005373D01*
X72387264Y-54022700D01*
X72373650Y-54043074D01*
X72364273Y-54065713D01*
X72359492Y-54089747D01*
X72359492Y-54114251D01*
X72364272Y-54138284D01*
X72373649Y-54160923D01*
X72387263Y-54181298D01*
X72404590Y-54198626D01*
X72424967Y-54212241D01*
X72438832Y-54219652D01*
X72471247Y-54246253D01*
X72497850Y-54278670D01*
X72517614Y-54315646D01*
X72529786Y-54355770D01*
X72534500Y-54403638D01*
X72534500Y-55070362D01*
X72529786Y-55118230D01*
X72517614Y-55158354D01*
X72497850Y-55195330D01*
X72471247Y-55227747D01*
X72438830Y-55254350D01*
X72401854Y-55274114D01*
X72361730Y-55286286D01*
X72313862Y-55291000D01*
X70647138Y-55291000D01*
X70599270Y-55286286D01*
X70559146Y-55274114D01*
X70522170Y-55254350D01*
X70489753Y-55227747D01*
X70463150Y-55195330D01*
X70443386Y-55158354D01*
X70431214Y-55118230D01*
X70426500Y-55070362D01*
X70426500Y-54403638D01*
X70431214Y-54355770D01*
X70443386Y-54315646D01*
X70463150Y-54278670D01*
X70489753Y-54246253D01*
X70522168Y-54219652D01*
X70536033Y-54212241D01*
X70556408Y-54198627D01*
X70573736Y-54181300D01*
X70587350Y-54160926D01*
X70596727Y-54138287D01*
X70601508Y-54114253D01*
X70601508Y-54089749D01*
X70596728Y-54065716D01*
X70587351Y-54043077D01*
X70573737Y-54022702D01*
X70556410Y-54005374D01*
X70536033Y-53991759D01*
X70522168Y-53984348D01*
X70489753Y-53957747D01*
X70463150Y-53925330D01*
X70443386Y-53888354D01*
X70431214Y-53848230D01*
X70426500Y-53800362D01*
X70426500Y-53133638D01*
X70431214Y-53085770D01*
X70443386Y-53045646D01*
X70463150Y-53008670D01*
X70489753Y-52976253D01*
X70522168Y-52949652D01*
X70536033Y-52942241D01*
X70556408Y-52928627D01*
X70573736Y-52911300D01*
X70587350Y-52890926D01*
X70596727Y-52868287D01*
X70601508Y-52844253D01*
X70601508Y-52819749D01*
X70596728Y-52795716D01*
X70587351Y-52773077D01*
X70573737Y-52752702D01*
X70556410Y-52735374D01*
X70536033Y-52721759D01*
X70522168Y-52714348D01*
X70489753Y-52687747D01*
X70463150Y-52655330D01*
X70443386Y-52618354D01*
X70431214Y-52578230D01*
X70426500Y-52530362D01*
X70426500Y-51863638D01*
X70431214Y-51815770D01*
X70443386Y-51775646D01*
X70463150Y-51738670D01*
X70489753Y-51706253D01*
X70522168Y-51679652D01*
X70536033Y-51672241D01*
X70556408Y-51658627D01*
X70573736Y-51641300D01*
X70587350Y-51620926D01*
X70596727Y-51598287D01*
X70601508Y-51574253D01*
X70601508Y-51549749D01*
X70596728Y-51525716D01*
X70587351Y-51503077D01*
X70573737Y-51482702D01*
X70556410Y-51465374D01*
X70536033Y-51451759D01*
X70522168Y-51444348D01*
X70489753Y-51417747D01*
X70463150Y-51385330D01*
X70443386Y-51348354D01*
X70431214Y-51308230D01*
X70426500Y-51260362D01*
X70426500Y-50593638D01*
X70431214Y-50545770D01*
X70443386Y-50505646D01*
X70463150Y-50468670D01*
X70489753Y-50436253D01*
X70522168Y-50409652D01*
X70536033Y-50402241D01*
X70556408Y-50388627D01*
X70573736Y-50371300D01*
X70587350Y-50350926D01*
X70596727Y-50328287D01*
X70601508Y-50304253D01*
X70601508Y-50279749D01*
X70596728Y-50255716D01*
X70587351Y-50233077D01*
X70573737Y-50212702D01*
X70556410Y-50195374D01*
X70536033Y-50181759D01*
X70522168Y-50174348D01*
X70489753Y-50147747D01*
X70463150Y-50115330D01*
X70443386Y-50078354D01*
X70431214Y-50038230D01*
X70426500Y-49990362D01*
X70426500Y-49323638D01*
X70431214Y-49275770D01*
X70443386Y-49235646D01*
X70463150Y-49198670D01*
X70489753Y-49166253D01*
X70522168Y-49139652D01*
X70536033Y-49132241D01*
X70556408Y-49118627D01*
X70573736Y-49101300D01*
X70587350Y-49080926D01*
X70596727Y-49058287D01*
X70601508Y-49034253D01*
X70601508Y-49009749D01*
X70596728Y-48985716D01*
X70587351Y-48963077D01*
X70573737Y-48942702D01*
X70556410Y-48925374D01*
X70536033Y-48911759D01*
X70522168Y-48904348D01*
X70489753Y-48877747D01*
X70463150Y-48845330D01*
X70443386Y-48808354D01*
X70431214Y-48768230D01*
X70426500Y-48720362D01*
X70426500Y-48053638D01*
X70431214Y-48005770D01*
X70443386Y-47965646D01*
X70463150Y-47928670D01*
X70489753Y-47896253D01*
X70522168Y-47869652D01*
X70536033Y-47862241D01*
X70556408Y-47848627D01*
X70573736Y-47831300D01*
X70587350Y-47810926D01*
X70596727Y-47788287D01*
X70601508Y-47764253D01*
X70601508Y-47739749D01*
X70596728Y-47715716D01*
X70587351Y-47693077D01*
X70573737Y-47672702D01*
X70556410Y-47655374D01*
X70536033Y-47641759D01*
X70522168Y-47634348D01*
X70489753Y-47607747D01*
X70463150Y-47575330D01*
X70443386Y-47538354D01*
X70431214Y-47498230D01*
X70426500Y-47450362D01*
X70426500Y-46783638D01*
X70431214Y-46735770D01*
X70443386Y-46695646D01*
X70463150Y-46658670D01*
X70489753Y-46626253D01*
X70522170Y-46599650D01*
X70559146Y-46579886D01*
X70599270Y-46567714D01*
X70647138Y-46563000D01*
X72313862Y-46563000D01*
X72361730Y-46567714D01*
X72361730Y-46567714D01*
G37*
G36*
X58686730Y-46567714D02*
X58726854Y-46579886D01*
X58763830Y-46599650D01*
X58796247Y-46626253D01*
X58822850Y-46658670D01*
X58842614Y-46695646D01*
X58854786Y-46735770D01*
X58859500Y-46783638D01*
X58859500Y-47450362D01*
X58854786Y-47498230D01*
X58842614Y-47538354D01*
X58822850Y-47575330D01*
X58796247Y-47607747D01*
X58763832Y-47634348D01*
X58749967Y-47641759D01*
X58729592Y-47655373D01*
X58712264Y-47672700D01*
X58698650Y-47693074D01*
X58689273Y-47715713D01*
X58684492Y-47739747D01*
X58684492Y-47764251D01*
X58689272Y-47788284D01*
X58698649Y-47810923D01*
X58712263Y-47831298D01*
X58729590Y-47848626D01*
X58749967Y-47862241D01*
X58763832Y-47869652D01*
X58796247Y-47896253D01*
X58822850Y-47928670D01*
X58842614Y-47965646D01*
X58854786Y-48005770D01*
X58859500Y-48053638D01*
X58859500Y-48720362D01*
X58854786Y-48768230D01*
X58842614Y-48808354D01*
X58822850Y-48845330D01*
X58796247Y-48877747D01*
X58763832Y-48904348D01*
X58749967Y-48911759D01*
X58729592Y-48925373D01*
X58712264Y-48942700D01*
X58698650Y-48963074D01*
X58689273Y-48985713D01*
X58684492Y-49009747D01*
X58684492Y-49034251D01*
X58689272Y-49058284D01*
X58698649Y-49080923D01*
X58712263Y-49101298D01*
X58729590Y-49118626D01*
X58749967Y-49132241D01*
X58763832Y-49139652D01*
X58796247Y-49166253D01*
X58822850Y-49198670D01*
X58842614Y-49235646D01*
X58854786Y-49275770D01*
X58859500Y-49323638D01*
X58859500Y-49990362D01*
X58854786Y-50038230D01*
X58842614Y-50078354D01*
X58822850Y-50115330D01*
X58796247Y-50147747D01*
X58763832Y-50174348D01*
X58749967Y-50181759D01*
X58729592Y-50195373D01*
X58712264Y-50212700D01*
X58698650Y-50233074D01*
X58689273Y-50255713D01*
X58684492Y-50279747D01*
X58684492Y-50304251D01*
X58689272Y-50328284D01*
X58698649Y-50350923D01*
X58712263Y-50371298D01*
X58729590Y-50388626D01*
X58749967Y-50402241D01*
X58763832Y-50409652D01*
X58796247Y-50436253D01*
X58822850Y-50468670D01*
X58842614Y-50505646D01*
X58854786Y-50545770D01*
X58859500Y-50593638D01*
X58859500Y-51260362D01*
X58854786Y-51308230D01*
X58842614Y-51348354D01*
X58822850Y-51385330D01*
X58796247Y-51417747D01*
X58763832Y-51444348D01*
X58749967Y-51451759D01*
X58729592Y-51465373D01*
X58712264Y-51482700D01*
X58698650Y-51503074D01*
X58689273Y-51525713D01*
X58684492Y-51549747D01*
X58684492Y-51574251D01*
X58689272Y-51598284D01*
X58698649Y-51620923D01*
X58712263Y-51641298D01*
X58729590Y-51658626D01*
X58749967Y-51672241D01*
X58763832Y-51679652D01*
X58796247Y-51706253D01*
X58822850Y-51738670D01*
X58842614Y-51775646D01*
X58854786Y-51815770D01*
X58859500Y-51863638D01*
X58859500Y-52530362D01*
X58854786Y-52578230D01*
X58842614Y-52618354D01*
X58822850Y-52655330D01*
X58796247Y-52687747D01*
X58763832Y-52714348D01*
X58749967Y-52721759D01*
X58729592Y-52735373D01*
X58712264Y-52752700D01*
X58698650Y-52773074D01*
X58689273Y-52795713D01*
X58684492Y-52819747D01*
X58684492Y-52844251D01*
X58689272Y-52868284D01*
X58698649Y-52890923D01*
X58712263Y-52911298D01*
X58729590Y-52928626D01*
X58749967Y-52942241D01*
X58763832Y-52949652D01*
X58796247Y-52976253D01*
X58822850Y-53008670D01*
X58842614Y-53045646D01*
X58854786Y-53085770D01*
X58859500Y-53133638D01*
X58859500Y-53800362D01*
X58854786Y-53848230D01*
X58842614Y-53888354D01*
X58822850Y-53925330D01*
X58796247Y-53957747D01*
X58763832Y-53984348D01*
X58749967Y-53991759D01*
X58729592Y-54005373D01*
X58712264Y-54022700D01*
X58698650Y-54043074D01*
X58689273Y-54065713D01*
X58684492Y-54089747D01*
X58684492Y-54114251D01*
X58689272Y-54138284D01*
X58698649Y-54160923D01*
X58712263Y-54181298D01*
X58729590Y-54198626D01*
X58749967Y-54212241D01*
X58763832Y-54219652D01*
X58796247Y-54246253D01*
X58822850Y-54278670D01*
X58842614Y-54315646D01*
X58854786Y-54355770D01*
X58859500Y-54403638D01*
X58859500Y-55070362D01*
X58854786Y-55118230D01*
X58842614Y-55158354D01*
X58822850Y-55195330D01*
X58796247Y-55227747D01*
X58763830Y-55254350D01*
X58726854Y-55274114D01*
X58686730Y-55286286D01*
X58638862Y-55291000D01*
X56972138Y-55291000D01*
X56924270Y-55286286D01*
X56884146Y-55274114D01*
X56847170Y-55254350D01*
X56814753Y-55227747D01*
X56788150Y-55195330D01*
X56768386Y-55158354D01*
X56756214Y-55118230D01*
X56751500Y-55070362D01*
X56751500Y-54403638D01*
X56756214Y-54355770D01*
X56768386Y-54315646D01*
X56788150Y-54278670D01*
X56814753Y-54246253D01*
X56847168Y-54219652D01*
X56861033Y-54212241D01*
X56881408Y-54198627D01*
X56898736Y-54181300D01*
X56912350Y-54160926D01*
X56921727Y-54138287D01*
X56926508Y-54114253D01*
X56926508Y-54089749D01*
X56921728Y-54065716D01*
X56912351Y-54043077D01*
X56898737Y-54022702D01*
X56881410Y-54005374D01*
X56861033Y-53991759D01*
X56847168Y-53984348D01*
X56814753Y-53957747D01*
X56788150Y-53925330D01*
X56768386Y-53888354D01*
X56756214Y-53848230D01*
X56751500Y-53800362D01*
X56751500Y-53133638D01*
X56756214Y-53085770D01*
X56768386Y-53045646D01*
X56788150Y-53008670D01*
X56814753Y-52976253D01*
X56847168Y-52949652D01*
X56861033Y-52942241D01*
X56881408Y-52928627D01*
X56898736Y-52911300D01*
X56912350Y-52890926D01*
X56921727Y-52868287D01*
X56926508Y-52844253D01*
X56926508Y-52819749D01*
X56921728Y-52795716D01*
X56912351Y-52773077D01*
X56898737Y-52752702D01*
X56881410Y-52735374D01*
X56861033Y-52721759D01*
X56847168Y-52714348D01*
X56814753Y-52687747D01*
X56788150Y-52655330D01*
X56768386Y-52618354D01*
X56756214Y-52578230D01*
X56751500Y-52530362D01*
X56751500Y-51863638D01*
X56756214Y-51815770D01*
X56768386Y-51775646D01*
X56788150Y-51738670D01*
X56814753Y-51706253D01*
X56847168Y-51679652D01*
X56861033Y-51672241D01*
X56881408Y-51658627D01*
X56898736Y-51641300D01*
X56912350Y-51620926D01*
X56921727Y-51598287D01*
X56926508Y-51574253D01*
X56926508Y-51549749D01*
X56921728Y-51525716D01*
X56912351Y-51503077D01*
X56898737Y-51482702D01*
X56881410Y-51465374D01*
X56861033Y-51451759D01*
X56847168Y-51444348D01*
X56814753Y-51417747D01*
X56788150Y-51385330D01*
X56768386Y-51348354D01*
X56756214Y-51308230D01*
X56751500Y-51260362D01*
X56751500Y-50593638D01*
X56756214Y-50545770D01*
X56768386Y-50505646D01*
X56788150Y-50468670D01*
X56814753Y-50436253D01*
X56847168Y-50409652D01*
X56861033Y-50402241D01*
X56881408Y-50388627D01*
X56898736Y-50371300D01*
X56912350Y-50350926D01*
X56921727Y-50328287D01*
X56926508Y-50304253D01*
X56926508Y-50279749D01*
X56921728Y-50255716D01*
X56912351Y-50233077D01*
X56898737Y-50212702D01*
X56881410Y-50195374D01*
X56861033Y-50181759D01*
X56847168Y-50174348D01*
X56814753Y-50147747D01*
X56788150Y-50115330D01*
X56768386Y-50078354D01*
X56756214Y-50038230D01*
X56751500Y-49990362D01*
X56751500Y-49323638D01*
X56756214Y-49275770D01*
X56768386Y-49235646D01*
X56788150Y-49198670D01*
X56814753Y-49166253D01*
X56847168Y-49139652D01*
X56861033Y-49132241D01*
X56881408Y-49118627D01*
X56898736Y-49101300D01*
X56912350Y-49080926D01*
X56921727Y-49058287D01*
X56926508Y-49034253D01*
X56926508Y-49009749D01*
X56921728Y-48985716D01*
X56912351Y-48963077D01*
X56898737Y-48942702D01*
X56881410Y-48925374D01*
X56861033Y-48911759D01*
X56847168Y-48904348D01*
X56814753Y-48877747D01*
X56788150Y-48845330D01*
X56768386Y-48808354D01*
X56756214Y-48768230D01*
X56751500Y-48720362D01*
X56751500Y-48053638D01*
X56756214Y-48005770D01*
X56768386Y-47965646D01*
X56788150Y-47928670D01*
X56814753Y-47896253D01*
X56847168Y-47869652D01*
X56861033Y-47862241D01*
X56881408Y-47848627D01*
X56898736Y-47831300D01*
X56912350Y-47810926D01*
X56921727Y-47788287D01*
X56926508Y-47764253D01*
X56926508Y-47739749D01*
X56921728Y-47715716D01*
X56912351Y-47693077D01*
X56898737Y-47672702D01*
X56881410Y-47655374D01*
X56861033Y-47641759D01*
X56847168Y-47634348D01*
X56814753Y-47607747D01*
X56788150Y-47575330D01*
X56768386Y-47538354D01*
X56756214Y-47498230D01*
X56751500Y-47450362D01*
X56751500Y-46783638D01*
X56756214Y-46735770D01*
X56768386Y-46695646D01*
X56788150Y-46658670D01*
X56814753Y-46626253D01*
X56847170Y-46599650D01*
X56884146Y-46579886D01*
X56924270Y-46567714D01*
X56972138Y-46563000D01*
X58638862Y-46563000D01*
X58686730Y-46567714D01*
X58686730Y-46567714D01*
G37*
G36*
X53632000Y-53251000D02*
X51524000Y-53251000D01*
X51524000Y-51143000D01*
X53632000Y-51143000D01*
X53632000Y-53251000D01*
X53632000Y-53251000D01*
G37*
G36*
X52885441Y-48683504D02*
X53077253Y-48762955D01*
X53077256Y-48762957D01*
X53249051Y-48877747D01*
X53249890Y-48878308D01*
X53396692Y-49025110D01*
X53396694Y-49025113D01*
X53396695Y-49025114D01*
X53491001Y-49166253D01*
X53512045Y-49197747D01*
X53591496Y-49389559D01*
X53632000Y-49593189D01*
X53632000Y-49800811D01*
X53591496Y-50004441D01*
X53512045Y-50196253D01*
X53512043Y-50196256D01*
X53408696Y-50350926D01*
X53396692Y-50368890D01*
X53249890Y-50515692D01*
X53249887Y-50515694D01*
X53249886Y-50515695D01*
X53133236Y-50593638D01*
X53077253Y-50631045D01*
X52885441Y-50710496D01*
X52681811Y-50751000D01*
X52474189Y-50751000D01*
X52270559Y-50710496D01*
X52078747Y-50631045D01*
X52022764Y-50593638D01*
X51906114Y-50515695D01*
X51906113Y-50515694D01*
X51906110Y-50515692D01*
X51759308Y-50368890D01*
X51747305Y-50350926D01*
X51643957Y-50196256D01*
X51643955Y-50196253D01*
X51564504Y-50004441D01*
X51524000Y-49800811D01*
X51524000Y-49593189D01*
X51564504Y-49389559D01*
X51643955Y-49197747D01*
X51664999Y-49166253D01*
X51759305Y-49025114D01*
X51759306Y-49025113D01*
X51759308Y-49025110D01*
X51906110Y-48878308D01*
X51906950Y-48877747D01*
X52078744Y-48762957D01*
X52078747Y-48762955D01*
X52270559Y-48683504D01*
X52474189Y-48643000D01*
X52681811Y-48643000D01*
X52885441Y-48683504D01*
X52885441Y-48683504D01*
G37*
G36*
X109707000Y-49886000D02*
X107899000Y-49886000D01*
X107899000Y-47828000D01*
X109707000Y-47828000D01*
X109707000Y-49886000D01*
X109707000Y-49886000D01*
G37*
G36*
X105207000Y-49886000D02*
X103399000Y-49886000D01*
X103399000Y-47828000D01*
X105207000Y-47828000D01*
X105207000Y-49886000D01*
X105207000Y-49886000D01*
G37*
G36*
X59944230Y-44315214D02*
X59984354Y-44327386D01*
X60021330Y-44347150D01*
X60053747Y-44373753D01*
X60080348Y-44406168D01*
X60087759Y-44420033D01*
X60101373Y-44440408D01*
X60118700Y-44457736D01*
X60139074Y-44471350D01*
X60161713Y-44480727D01*
X60185747Y-44485508D01*
X60210251Y-44485508D01*
X60234284Y-44480728D01*
X60256923Y-44471351D01*
X60277298Y-44457737D01*
X60294626Y-44440410D01*
X60308241Y-44420033D01*
X60315652Y-44406168D01*
X60342253Y-44373753D01*
X60374670Y-44347150D01*
X60411646Y-44327386D01*
X60451770Y-44315214D01*
X60499638Y-44310500D01*
X61166362Y-44310500D01*
X61214230Y-44315214D01*
X61254354Y-44327386D01*
X61291330Y-44347150D01*
X61323747Y-44373753D01*
X61350348Y-44406168D01*
X61357759Y-44420033D01*
X61371373Y-44440408D01*
X61388700Y-44457736D01*
X61409074Y-44471350D01*
X61431713Y-44480727D01*
X61455747Y-44485508D01*
X61480251Y-44485508D01*
X61504284Y-44480728D01*
X61526923Y-44471351D01*
X61547298Y-44457737D01*
X61564626Y-44440410D01*
X61578241Y-44420033D01*
X61585652Y-44406168D01*
X61612253Y-44373753D01*
X61644670Y-44347150D01*
X61681646Y-44327386D01*
X61721770Y-44315214D01*
X61769638Y-44310500D01*
X62436362Y-44310500D01*
X62484230Y-44315214D01*
X62524354Y-44327386D01*
X62561330Y-44347150D01*
X62593747Y-44373753D01*
X62620348Y-44406168D01*
X62627759Y-44420033D01*
X62641373Y-44440408D01*
X62658700Y-44457736D01*
X62679074Y-44471350D01*
X62701713Y-44480727D01*
X62725747Y-44485508D01*
X62750251Y-44485508D01*
X62774284Y-44480728D01*
X62796923Y-44471351D01*
X62817298Y-44457737D01*
X62834626Y-44440410D01*
X62848241Y-44420033D01*
X62855652Y-44406168D01*
X62882253Y-44373753D01*
X62914670Y-44347150D01*
X62951646Y-44327386D01*
X62991770Y-44315214D01*
X63039638Y-44310500D01*
X63706362Y-44310500D01*
X63754230Y-44315214D01*
X63794354Y-44327386D01*
X63831330Y-44347150D01*
X63863747Y-44373753D01*
X63890348Y-44406168D01*
X63897759Y-44420033D01*
X63911373Y-44440408D01*
X63928700Y-44457736D01*
X63949074Y-44471350D01*
X63971713Y-44480727D01*
X63995747Y-44485508D01*
X64020251Y-44485508D01*
X64044284Y-44480728D01*
X64066923Y-44471351D01*
X64087298Y-44457737D01*
X64104626Y-44440410D01*
X64118241Y-44420033D01*
X64125652Y-44406168D01*
X64152253Y-44373753D01*
X64184670Y-44347150D01*
X64221646Y-44327386D01*
X64261770Y-44315214D01*
X64309638Y-44310500D01*
X64976362Y-44310500D01*
X65024230Y-44315214D01*
X65064354Y-44327386D01*
X65101330Y-44347150D01*
X65133747Y-44373753D01*
X65160348Y-44406168D01*
X65167759Y-44420033D01*
X65181373Y-44440408D01*
X65198700Y-44457736D01*
X65219074Y-44471350D01*
X65241713Y-44480727D01*
X65265747Y-44485508D01*
X65290251Y-44485508D01*
X65314284Y-44480728D01*
X65336923Y-44471351D01*
X65357298Y-44457737D01*
X65374626Y-44440410D01*
X65388241Y-44420033D01*
X65395652Y-44406168D01*
X65422253Y-44373753D01*
X65454670Y-44347150D01*
X65491646Y-44327386D01*
X65531770Y-44315214D01*
X65579638Y-44310500D01*
X66246362Y-44310500D01*
X66294230Y-44315214D01*
X66334354Y-44327386D01*
X66371330Y-44347150D01*
X66403747Y-44373753D01*
X66430348Y-44406168D01*
X66437759Y-44420033D01*
X66451373Y-44440408D01*
X66468700Y-44457736D01*
X66489074Y-44471350D01*
X66511713Y-44480727D01*
X66535747Y-44485508D01*
X66560251Y-44485508D01*
X66584284Y-44480728D01*
X66606923Y-44471351D01*
X66627298Y-44457737D01*
X66644626Y-44440410D01*
X66658241Y-44420033D01*
X66665652Y-44406168D01*
X66692253Y-44373753D01*
X66724670Y-44347150D01*
X66761646Y-44327386D01*
X66801770Y-44315214D01*
X66849638Y-44310500D01*
X67516362Y-44310500D01*
X67564230Y-44315214D01*
X67604354Y-44327386D01*
X67641330Y-44347150D01*
X67673747Y-44373753D01*
X67700348Y-44406168D01*
X67707759Y-44420033D01*
X67721373Y-44440408D01*
X67738700Y-44457736D01*
X67759074Y-44471350D01*
X67781713Y-44480727D01*
X67805747Y-44485508D01*
X67830251Y-44485508D01*
X67854284Y-44480728D01*
X67876923Y-44471351D01*
X67897298Y-44457737D01*
X67914626Y-44440410D01*
X67928241Y-44420033D01*
X67935652Y-44406168D01*
X67962253Y-44373753D01*
X67994670Y-44347150D01*
X68031646Y-44327386D01*
X68071770Y-44315214D01*
X68119638Y-44310500D01*
X68786362Y-44310500D01*
X68834230Y-44315214D01*
X68874354Y-44327386D01*
X68911330Y-44347150D01*
X68943747Y-44373753D01*
X68970348Y-44406168D01*
X68977759Y-44420033D01*
X68991373Y-44440408D01*
X69008700Y-44457736D01*
X69029074Y-44471350D01*
X69051713Y-44480727D01*
X69075747Y-44485508D01*
X69100251Y-44485508D01*
X69124284Y-44480728D01*
X69146923Y-44471351D01*
X69167298Y-44457737D01*
X69184626Y-44440410D01*
X69198241Y-44420033D01*
X69205652Y-44406168D01*
X69232253Y-44373753D01*
X69264670Y-44347150D01*
X69301646Y-44327386D01*
X69341770Y-44315214D01*
X69389638Y-44310500D01*
X70056362Y-44310500D01*
X70104230Y-44315214D01*
X70144354Y-44327386D01*
X70181330Y-44347150D01*
X70213747Y-44373753D01*
X70240350Y-44406170D01*
X70260114Y-44443146D01*
X70272286Y-44483270D01*
X70277000Y-44531138D01*
X70277000Y-46197862D01*
X70272286Y-46245730D01*
X70260114Y-46285854D01*
X70240350Y-46322830D01*
X70213747Y-46355247D01*
X70181330Y-46381850D01*
X70144354Y-46401614D01*
X70104230Y-46413786D01*
X70056362Y-46418500D01*
X69389638Y-46418500D01*
X69341770Y-46413786D01*
X69301646Y-46401614D01*
X69264670Y-46381850D01*
X69232253Y-46355247D01*
X69205652Y-46322832D01*
X69198241Y-46308967D01*
X69184627Y-46288592D01*
X69167300Y-46271264D01*
X69146926Y-46257650D01*
X69124287Y-46248273D01*
X69100253Y-46243492D01*
X69075749Y-46243492D01*
X69051716Y-46248272D01*
X69029077Y-46257649D01*
X69008702Y-46271263D01*
X68991374Y-46288590D01*
X68977759Y-46308967D01*
X68970348Y-46322832D01*
X68943747Y-46355247D01*
X68911330Y-46381850D01*
X68874354Y-46401614D01*
X68834230Y-46413786D01*
X68786362Y-46418500D01*
X68119638Y-46418500D01*
X68071770Y-46413786D01*
X68031646Y-46401614D01*
X67994670Y-46381850D01*
X67962253Y-46355247D01*
X67935652Y-46322832D01*
X67928241Y-46308967D01*
X67914627Y-46288592D01*
X67897300Y-46271264D01*
X67876926Y-46257650D01*
X67854287Y-46248273D01*
X67830253Y-46243492D01*
X67805749Y-46243492D01*
X67781716Y-46248272D01*
X67759077Y-46257649D01*
X67738702Y-46271263D01*
X67721374Y-46288590D01*
X67707759Y-46308967D01*
X67700348Y-46322832D01*
X67673747Y-46355247D01*
X67641330Y-46381850D01*
X67604354Y-46401614D01*
X67564230Y-46413786D01*
X67516362Y-46418500D01*
X66849638Y-46418500D01*
X66801770Y-46413786D01*
X66761646Y-46401614D01*
X66724670Y-46381850D01*
X66692253Y-46355247D01*
X66665652Y-46322832D01*
X66658241Y-46308967D01*
X66644627Y-46288592D01*
X66627300Y-46271264D01*
X66606926Y-46257650D01*
X66584287Y-46248273D01*
X66560253Y-46243492D01*
X66535749Y-46243492D01*
X66511716Y-46248272D01*
X66489077Y-46257649D01*
X66468702Y-46271263D01*
X66451374Y-46288590D01*
X66437759Y-46308967D01*
X66430348Y-46322832D01*
X66403747Y-46355247D01*
X66371330Y-46381850D01*
X66334354Y-46401614D01*
X66294230Y-46413786D01*
X66246362Y-46418500D01*
X65579638Y-46418500D01*
X65531770Y-46413786D01*
X65491646Y-46401614D01*
X65454670Y-46381850D01*
X65422253Y-46355247D01*
X65395652Y-46322832D01*
X65388241Y-46308967D01*
X65374627Y-46288592D01*
X65357300Y-46271264D01*
X65336926Y-46257650D01*
X65314287Y-46248273D01*
X65290253Y-46243492D01*
X65265749Y-46243492D01*
X65241716Y-46248272D01*
X65219077Y-46257649D01*
X65198702Y-46271263D01*
X65181374Y-46288590D01*
X65167759Y-46308967D01*
X65160348Y-46322832D01*
X65133747Y-46355247D01*
X65101330Y-46381850D01*
X65064354Y-46401614D01*
X65024230Y-46413786D01*
X64976362Y-46418500D01*
X64309638Y-46418500D01*
X64261770Y-46413786D01*
X64221646Y-46401614D01*
X64184670Y-46381850D01*
X64152253Y-46355247D01*
X64125652Y-46322832D01*
X64118241Y-46308967D01*
X64104627Y-46288592D01*
X64087300Y-46271264D01*
X64066926Y-46257650D01*
X64044287Y-46248273D01*
X64020253Y-46243492D01*
X63995749Y-46243492D01*
X63971716Y-46248272D01*
X63949077Y-46257649D01*
X63928702Y-46271263D01*
X63911374Y-46288590D01*
X63897759Y-46308967D01*
X63890348Y-46322832D01*
X63863747Y-46355247D01*
X63831330Y-46381850D01*
X63794354Y-46401614D01*
X63754230Y-46413786D01*
X63706362Y-46418500D01*
X63039638Y-46418500D01*
X62991770Y-46413786D01*
X62951646Y-46401614D01*
X62914670Y-46381850D01*
X62882253Y-46355247D01*
X62855652Y-46322832D01*
X62848241Y-46308967D01*
X62834627Y-46288592D01*
X62817300Y-46271264D01*
X62796926Y-46257650D01*
X62774287Y-46248273D01*
X62750253Y-46243492D01*
X62725749Y-46243492D01*
X62701716Y-46248272D01*
X62679077Y-46257649D01*
X62658702Y-46271263D01*
X62641374Y-46288590D01*
X62627759Y-46308967D01*
X62620348Y-46322832D01*
X62593747Y-46355247D01*
X62561330Y-46381850D01*
X62524354Y-46401614D01*
X62484230Y-46413786D01*
X62436362Y-46418500D01*
X61769638Y-46418500D01*
X61721770Y-46413786D01*
X61681646Y-46401614D01*
X61644670Y-46381850D01*
X61612253Y-46355247D01*
X61585652Y-46322832D01*
X61578241Y-46308967D01*
X61564627Y-46288592D01*
X61547300Y-46271264D01*
X61526926Y-46257650D01*
X61504287Y-46248273D01*
X61480253Y-46243492D01*
X61455749Y-46243492D01*
X61431716Y-46248272D01*
X61409077Y-46257649D01*
X61388702Y-46271263D01*
X61371374Y-46288590D01*
X61357759Y-46308967D01*
X61350348Y-46322832D01*
X61323747Y-46355247D01*
X61291330Y-46381850D01*
X61254354Y-46401614D01*
X61214230Y-46413786D01*
X61166362Y-46418500D01*
X60499638Y-46418500D01*
X60451770Y-46413786D01*
X60411646Y-46401614D01*
X60374670Y-46381850D01*
X60342253Y-46355247D01*
X60315652Y-46322832D01*
X60308241Y-46308967D01*
X60294627Y-46288592D01*
X60277300Y-46271264D01*
X60256926Y-46257650D01*
X60234287Y-46248273D01*
X60210253Y-46243492D01*
X60185749Y-46243492D01*
X60161716Y-46248272D01*
X60139077Y-46257649D01*
X60118702Y-46271263D01*
X60101374Y-46288590D01*
X60087759Y-46308967D01*
X60080348Y-46322832D01*
X60053747Y-46355247D01*
X60021330Y-46381850D01*
X59984354Y-46401614D01*
X59944230Y-46413786D01*
X59896362Y-46418500D01*
X59229638Y-46418500D01*
X59181770Y-46413786D01*
X59141646Y-46401614D01*
X59104670Y-46381850D01*
X59072253Y-46355247D01*
X59045650Y-46322830D01*
X59025886Y-46285854D01*
X59013714Y-46245730D01*
X59009000Y-46197862D01*
X59009000Y-44531138D01*
X59013714Y-44483270D01*
X59025886Y-44443146D01*
X59045650Y-44406170D01*
X59072253Y-44373753D01*
X59104670Y-44347150D01*
X59141646Y-44327386D01*
X59181770Y-44315214D01*
X59229638Y-44310500D01*
X59896362Y-44310500D01*
X59944230Y-44315214D01*
X59944230Y-44315214D01*
G37*
G36*
X109993000Y-45858000D02*
X107685000Y-45858000D01*
X107685000Y-43550000D01*
X109993000Y-43550000D01*
X109993000Y-45858000D01*
X109993000Y-45858000D01*
G37*
G36*
X101388710Y-43561132D02*
X101445223Y-43566698D01*
X101553988Y-43599692D01*
X101662754Y-43632685D01*
X101769911Y-43689962D01*
X101863230Y-43739842D01*
X101863232Y-43739843D01*
X101863231Y-43739843D01*
X102038949Y-43884051D01*
X102183157Y-44059769D01*
X102290315Y-44260246D01*
X102311955Y-44331585D01*
X102356302Y-44477777D01*
X102356593Y-44480728D01*
X102378583Y-44704000D01*
X102356302Y-44930222D01*
X102290315Y-45147754D01*
X102233038Y-45254911D01*
X102183158Y-45348230D01*
X102038949Y-45523949D01*
X101863230Y-45668158D01*
X101769911Y-45718038D01*
X101662754Y-45775315D01*
X101553988Y-45808309D01*
X101445223Y-45841302D01*
X101388710Y-45846868D01*
X101275687Y-45858000D01*
X101162313Y-45858000D01*
X101049290Y-45846868D01*
X100992777Y-45841302D01*
X100884012Y-45808309D01*
X100775246Y-45775315D01*
X100668089Y-45718038D01*
X100574770Y-45668158D01*
X100399051Y-45523949D01*
X100254842Y-45348230D01*
X100204962Y-45254911D01*
X100147685Y-45147754D01*
X100081698Y-44930222D01*
X100059417Y-44704000D01*
X100081407Y-44480728D01*
X100081698Y-44477777D01*
X100126045Y-44331585D01*
X100147685Y-44260246D01*
X100254843Y-44059769D01*
X100399051Y-43884051D01*
X100574769Y-43739843D01*
X100574768Y-43739843D01*
X100574770Y-43739842D01*
X100668089Y-43689962D01*
X100775246Y-43632685D01*
X100884012Y-43599692D01*
X100992777Y-43566698D01*
X101049290Y-43561132D01*
X101162313Y-43550000D01*
X101275687Y-43550000D01*
X101388710Y-43561132D01*
X101388710Y-43561132D01*
G37*
G36*
X70242000Y-38365000D02*
X69304464Y-38365000D01*
X69280078Y-38367402D01*
X69256629Y-38374515D01*
X69235018Y-38386066D01*
X69216076Y-38401612D01*
X69200530Y-38420554D01*
X69188979Y-38442165D01*
X69181866Y-38465614D01*
X69179464Y-38490000D01*
X69181866Y-38514386D01*
X69188979Y-38537835D01*
X69200530Y-38559446D01*
X69216076Y-38578388D01*
X69235018Y-38593934D01*
X69256629Y-38605485D01*
X69280078Y-38612598D01*
X69424610Y-38641347D01*
X69634623Y-38728337D01*
X69823635Y-38854631D01*
X69984369Y-39015365D01*
X70110663Y-39204377D01*
X70197653Y-39414390D01*
X70242000Y-39637339D01*
X70242000Y-39864661D01*
X70197653Y-40087610D01*
X70110663Y-40297623D01*
X69984369Y-40486635D01*
X69823635Y-40647369D01*
X69634623Y-40773663D01*
X69424610Y-40860653D01*
X69201661Y-40905000D01*
X68974339Y-40905000D01*
X68751390Y-40860653D01*
X68541377Y-40773663D01*
X68352365Y-40647369D01*
X68191631Y-40486635D01*
X68065337Y-40297623D01*
X67978347Y-40087610D01*
X67934000Y-39864661D01*
X67934000Y-39637339D01*
X67978347Y-39414390D01*
X68065337Y-39204377D01*
X68191631Y-39015365D01*
X68352365Y-38854631D01*
X68541377Y-38728337D01*
X68751390Y-38641347D01*
X68895922Y-38612598D01*
X68919371Y-38605485D01*
X68940982Y-38593934D01*
X68959924Y-38578388D01*
X68975470Y-38559446D01*
X68987021Y-38537835D01*
X68994134Y-38514386D01*
X68996536Y-38490000D01*
X68994134Y-38465614D01*
X68987021Y-38442165D01*
X68975470Y-38420554D01*
X68959924Y-38401612D01*
X68940982Y-38386066D01*
X68919371Y-38374515D01*
X68895922Y-38367402D01*
X68871536Y-38365000D01*
X67934000Y-38365000D01*
X67934000Y-36057000D01*
X70242000Y-36057000D01*
X70242000Y-38365000D01*
X70242000Y-38365000D01*
G37*
G36*
X76405441Y-38483504D02*
X76597253Y-38562955D01*
X76597256Y-38562957D01*
X76714575Y-38641347D01*
X76769890Y-38678308D01*
X76916692Y-38825110D01*
X76916694Y-38825113D01*
X76916695Y-38825114D01*
X77032043Y-38997744D01*
X77032045Y-38997747D01*
X77111496Y-39189559D01*
X77152000Y-39393189D01*
X77152000Y-39600811D01*
X77111496Y-39804441D01*
X77032045Y-39996253D01*
X76916692Y-40168890D01*
X76769890Y-40315692D01*
X76597253Y-40431045D01*
X76405441Y-40510496D01*
X76201811Y-40551000D01*
X75994189Y-40551000D01*
X75790559Y-40510496D01*
X75598747Y-40431045D01*
X75426110Y-40315692D01*
X75279308Y-40168890D01*
X75163955Y-39996253D01*
X75084504Y-39804441D01*
X75044000Y-39600811D01*
X75044000Y-39393189D01*
X75084504Y-39189559D01*
X75163955Y-38997747D01*
X75163957Y-38997744D01*
X75279305Y-38825114D01*
X75279306Y-38825113D01*
X75279308Y-38825110D01*
X75426110Y-38678308D01*
X75481426Y-38641347D01*
X75598744Y-38562957D01*
X75598747Y-38562955D01*
X75790559Y-38483504D01*
X75994189Y-38443000D01*
X76201811Y-38443000D01*
X76405441Y-38483504D01*
X76405441Y-38483504D01*
G37*
G36*
X73952000Y-40551000D02*
X71844000Y-40551000D01*
X71844000Y-38443000D01*
X73952000Y-38443000D01*
X73952000Y-40551000D01*
X73952000Y-40551000D01*
G37*
G36*
X76405441Y-35983504D02*
X76597253Y-36062955D01*
X76597256Y-36062957D01*
X76691273Y-36125777D01*
X76769890Y-36178308D01*
X76916692Y-36325110D01*
X76916694Y-36325113D01*
X76916695Y-36325114D01*
X76956753Y-36385065D01*
X77032045Y-36497747D01*
X77111496Y-36689559D01*
X77152000Y-36893189D01*
X77152000Y-37100811D01*
X77111496Y-37304441D01*
X77032045Y-37496253D01*
X76916692Y-37668890D01*
X76769890Y-37815692D01*
X76769887Y-37815694D01*
X76769886Y-37815695D01*
X76740651Y-37835229D01*
X76597253Y-37931045D01*
X76405441Y-38010496D01*
X76201811Y-38051000D01*
X75994189Y-38051000D01*
X75790559Y-38010496D01*
X75598747Y-37931045D01*
X75455349Y-37835229D01*
X75426114Y-37815695D01*
X75426113Y-37815694D01*
X75426110Y-37815692D01*
X75279308Y-37668890D01*
X75163955Y-37496253D01*
X75084504Y-37304441D01*
X75044000Y-37100811D01*
X75044000Y-36893189D01*
X75084504Y-36689559D01*
X75163955Y-36497747D01*
X75239247Y-36385065D01*
X75279305Y-36325114D01*
X75279306Y-36325113D01*
X75279308Y-36325110D01*
X75426110Y-36178308D01*
X75504728Y-36125777D01*
X75598744Y-36062957D01*
X75598747Y-36062955D01*
X75790559Y-35983504D01*
X75994189Y-35943000D01*
X76201811Y-35943000D01*
X76405441Y-35983504D01*
X76405441Y-35983504D01*
G37*
G36*
X73205441Y-35983504D02*
X73397253Y-36062955D01*
X73397256Y-36062957D01*
X73491273Y-36125777D01*
X73569890Y-36178308D01*
X73716692Y-36325110D01*
X73716694Y-36325113D01*
X73716695Y-36325114D01*
X73756753Y-36385065D01*
X73832045Y-36497747D01*
X73911496Y-36689559D01*
X73952000Y-36893189D01*
X73952000Y-37100811D01*
X73911496Y-37304441D01*
X73832045Y-37496253D01*
X73716692Y-37668890D01*
X73569890Y-37815692D01*
X73569887Y-37815694D01*
X73569886Y-37815695D01*
X73540651Y-37835229D01*
X73397253Y-37931045D01*
X73205441Y-38010496D01*
X73001811Y-38051000D01*
X72794189Y-38051000D01*
X72590559Y-38010496D01*
X72398747Y-37931045D01*
X72255349Y-37835229D01*
X72226114Y-37815695D01*
X72226113Y-37815694D01*
X72226110Y-37815692D01*
X72079308Y-37668890D01*
X71963955Y-37496253D01*
X71884504Y-37304441D01*
X71844000Y-37100811D01*
X71844000Y-36893189D01*
X71884504Y-36689559D01*
X71963955Y-36497747D01*
X72039247Y-36385065D01*
X72079305Y-36325114D01*
X72079306Y-36325113D01*
X72079308Y-36325110D01*
X72226110Y-36178308D01*
X72304728Y-36125777D01*
X72398744Y-36062957D01*
X72398747Y-36062955D01*
X72590559Y-35983504D01*
X72794189Y-35943000D01*
X73001811Y-35943000D01*
X73205441Y-35983504D01*
X73205441Y-35983504D01*
G37*
G36*
X90546307Y-35826574D02*
X90577793Y-35829675D01*
X90587725Y-35832688D01*
X90632826Y-35846369D01*
X90641705Y-35850048D01*
X90665738Y-35854830D01*
X90690242Y-35854832D01*
X90714276Y-35850054D01*
X90723164Y-35846372D01*
X90768275Y-35832688D01*
X90778207Y-35829675D01*
X90809693Y-35826574D01*
X90834141Y-35824166D01*
X91321859Y-35824166D01*
X91340195Y-35825972D01*
X91352448Y-35826574D01*
X91370868Y-35826574D01*
X91413018Y-35830725D01*
X91426802Y-35832083D01*
X91426803Y-35832083D01*
X91432944Y-35832688D01*
X91517025Y-35849413D01*
X91522928Y-35851204D01*
X91522935Y-35851205D01*
X91553892Y-35860596D01*
X91576721Y-35867521D01*
X91655922Y-35900327D01*
X91661365Y-35903236D01*
X91661369Y-35903238D01*
X91705496Y-35926824D01*
X91705501Y-35926827D01*
X91710941Y-35929735D01*
X91782223Y-35977364D01*
X91830447Y-36016941D01*
X91891059Y-36077553D01*
X91930636Y-36125777D01*
X91978265Y-36197059D01*
X91981173Y-36202499D01*
X91981176Y-36202504D01*
X92004762Y-36246631D01*
X92007673Y-36252078D01*
X92040479Y-36331279D01*
X92042271Y-36337187D01*
X92056795Y-36385065D01*
X92056796Y-36385072D01*
X92058587Y-36390975D01*
X92075312Y-36475056D01*
X92081426Y-36537132D01*
X92081426Y-36555552D01*
X92082028Y-36567805D01*
X92083834Y-36586141D01*
X92083834Y-37073859D01*
X92082028Y-37092195D01*
X92081426Y-37104448D01*
X92081426Y-37122868D01*
X92075312Y-37184944D01*
X92058587Y-37269025D01*
X92056796Y-37274928D01*
X92056795Y-37274935D01*
X92047844Y-37304441D01*
X92040479Y-37328721D01*
X92007673Y-37407922D01*
X92004764Y-37413365D01*
X92004762Y-37413369D01*
X91981176Y-37457496D01*
X91981173Y-37457501D01*
X91978265Y-37462941D01*
X91930636Y-37534223D01*
X91891059Y-37582447D01*
X91830447Y-37643059D01*
X91825673Y-37646977D01*
X91825671Y-37646979D01*
X91788272Y-37677672D01*
X91782223Y-37682636D01*
X91710941Y-37730265D01*
X91705501Y-37733173D01*
X91705496Y-37733176D01*
X91661369Y-37756762D01*
X91661365Y-37756764D01*
X91655922Y-37759673D01*
X91576721Y-37792479D01*
X91570812Y-37794271D01*
X91570813Y-37794271D01*
X91522935Y-37808795D01*
X91522928Y-37808796D01*
X91517025Y-37810587D01*
X91432944Y-37827312D01*
X91426803Y-37827917D01*
X91426802Y-37827917D01*
X91413018Y-37829275D01*
X91370868Y-37833426D01*
X91352448Y-37833426D01*
X91340195Y-37834028D01*
X91321859Y-37835834D01*
X90834141Y-37835834D01*
X90797518Y-37832227D01*
X90778207Y-37830325D01*
X90730328Y-37815801D01*
X90723174Y-37813631D01*
X90714295Y-37809952D01*
X90690262Y-37805170D01*
X90665758Y-37805168D01*
X90641724Y-37809946D01*
X90632836Y-37813628D01*
X90625671Y-37815801D01*
X90625672Y-37815801D01*
X90577793Y-37830325D01*
X90558482Y-37832227D01*
X90521859Y-37835834D01*
X90034141Y-37835834D01*
X90015805Y-37834028D01*
X90003552Y-37833426D01*
X89985132Y-37833426D01*
X89942982Y-37829275D01*
X89929198Y-37827917D01*
X89929197Y-37827917D01*
X89923056Y-37827312D01*
X89838975Y-37810587D01*
X89833072Y-37808796D01*
X89833065Y-37808795D01*
X89785187Y-37794271D01*
X89785188Y-37794271D01*
X89779279Y-37792479D01*
X89700078Y-37759673D01*
X89694635Y-37756764D01*
X89694631Y-37756762D01*
X89650504Y-37733176D01*
X89650499Y-37733173D01*
X89645059Y-37730265D01*
X89573777Y-37682636D01*
X89567728Y-37677672D01*
X89530329Y-37646979D01*
X89530327Y-37646977D01*
X89525553Y-37643059D01*
X89464941Y-37582447D01*
X89425364Y-37534223D01*
X89377735Y-37462941D01*
X89374827Y-37457501D01*
X89374824Y-37457496D01*
X89351238Y-37413369D01*
X89351236Y-37413365D01*
X89348327Y-37407922D01*
X89315521Y-37328721D01*
X89308156Y-37304441D01*
X89299205Y-37274935D01*
X89299204Y-37274928D01*
X89297413Y-37269025D01*
X89280688Y-37184944D01*
X89274574Y-37122868D01*
X89274574Y-37104448D01*
X89273972Y-37092195D01*
X89272166Y-37073859D01*
X89272166Y-36586141D01*
X89273972Y-36567805D01*
X89274574Y-36555552D01*
X89274574Y-36537132D01*
X89280688Y-36475056D01*
X89297413Y-36390975D01*
X89299204Y-36385072D01*
X89299205Y-36385065D01*
X89313729Y-36337187D01*
X89315521Y-36331279D01*
X89348327Y-36252078D01*
X89351238Y-36246631D01*
X89374824Y-36202504D01*
X89374827Y-36202499D01*
X89377735Y-36197059D01*
X89425364Y-36125777D01*
X89464941Y-36077553D01*
X89525553Y-36016941D01*
X89573777Y-35977364D01*
X89645059Y-35929735D01*
X89650499Y-35926827D01*
X89650504Y-35926824D01*
X89694631Y-35903238D01*
X89694635Y-35903236D01*
X89700078Y-35900327D01*
X89779279Y-35867521D01*
X89802108Y-35860596D01*
X89833065Y-35851205D01*
X89833072Y-35851204D01*
X89838975Y-35849413D01*
X89923056Y-35832688D01*
X89929197Y-35832083D01*
X89929198Y-35832083D01*
X89942982Y-35830725D01*
X89985132Y-35826574D01*
X90003552Y-35826574D01*
X90015805Y-35825972D01*
X90034141Y-35824166D01*
X90521859Y-35824166D01*
X90546307Y-35826574D01*
X90546307Y-35826574D01*
G37*
G36*
X102684383Y-35396636D02*
X102822620Y-35410251D01*
X102934749Y-35444265D01*
X103021301Y-35470520D01*
X103096090Y-35510496D01*
X103204404Y-35568391D01*
X103364896Y-35700104D01*
X103496609Y-35860596D01*
X103538090Y-35938202D01*
X103594480Y-36043699D01*
X103606198Y-36082329D01*
X103654749Y-36242380D01*
X103675099Y-36449000D01*
X103654749Y-36655620D01*
X103614570Y-36788073D01*
X103594480Y-36854301D01*
X103573693Y-36893190D01*
X103496609Y-37037404D01*
X103364896Y-37197896D01*
X103204404Y-37329609D01*
X103136693Y-37365801D01*
X103021301Y-37427480D01*
X102955073Y-37447570D01*
X102822620Y-37487749D01*
X102736276Y-37496253D01*
X102667773Y-37503000D01*
X102564227Y-37503000D01*
X102495724Y-37496253D01*
X102409380Y-37487749D01*
X102276927Y-37447570D01*
X102210699Y-37427480D01*
X102095307Y-37365801D01*
X102027596Y-37329609D01*
X101867104Y-37197896D01*
X101735391Y-37037404D01*
X101658307Y-36893190D01*
X101637520Y-36854301D01*
X101617430Y-36788073D01*
X101577251Y-36655620D01*
X101556901Y-36449000D01*
X101577251Y-36242380D01*
X101625802Y-36082329D01*
X101637520Y-36043699D01*
X101693910Y-35938202D01*
X101735391Y-35860596D01*
X101867104Y-35700104D01*
X102027596Y-35568391D01*
X102135910Y-35510496D01*
X102210699Y-35470520D01*
X102297251Y-35444265D01*
X102409380Y-35410251D01*
X102547617Y-35396636D01*
X102564227Y-35395000D01*
X102667773Y-35395000D01*
X102684383Y-35396636D01*
X102684383Y-35396636D01*
G37*
G36*
X110304383Y-35396636D02*
X110442620Y-35410251D01*
X110554749Y-35444265D01*
X110641301Y-35470520D01*
X110716090Y-35510496D01*
X110824404Y-35568391D01*
X110984896Y-35700104D01*
X111116609Y-35860596D01*
X111158090Y-35938202D01*
X111214480Y-36043699D01*
X111226198Y-36082329D01*
X111274749Y-36242380D01*
X111295099Y-36449000D01*
X111274749Y-36655620D01*
X111234570Y-36788073D01*
X111214480Y-36854301D01*
X111193693Y-36893190D01*
X111116609Y-37037404D01*
X110984896Y-37197896D01*
X110824404Y-37329609D01*
X110756693Y-37365801D01*
X110641301Y-37427480D01*
X110575073Y-37447570D01*
X110442620Y-37487749D01*
X110356276Y-37496253D01*
X110287773Y-37503000D01*
X110184227Y-37503000D01*
X110115724Y-37496253D01*
X110029380Y-37487749D01*
X109896927Y-37447570D01*
X109830699Y-37427480D01*
X109715307Y-37365801D01*
X109647596Y-37329609D01*
X109487104Y-37197896D01*
X109355391Y-37037404D01*
X109278307Y-36893190D01*
X109257520Y-36854301D01*
X109237430Y-36788073D01*
X109197251Y-36655620D01*
X109176901Y-36449000D01*
X109197251Y-36242380D01*
X109245802Y-36082329D01*
X109257520Y-36043699D01*
X109313910Y-35938202D01*
X109355391Y-35860596D01*
X109487104Y-35700104D01*
X109647596Y-35568391D01*
X109755910Y-35510496D01*
X109830699Y-35470520D01*
X109917251Y-35444265D01*
X110029380Y-35410251D01*
X110167617Y-35396636D01*
X110184227Y-35395000D01*
X110287773Y-35395000D01*
X110304383Y-35396636D01*
X110304383Y-35396636D01*
G37*
G36*
X73205441Y-33483504D02*
X73397253Y-33562955D01*
X73397256Y-33562957D01*
X73472938Y-33613526D01*
X73569890Y-33678308D01*
X73716692Y-33825110D01*
X73716694Y-33825113D01*
X73716695Y-33825114D01*
X73772746Y-33909000D01*
X73832045Y-33997747D01*
X73911496Y-34189559D01*
X73952000Y-34393189D01*
X73952000Y-34600811D01*
X73911496Y-34804441D01*
X73832045Y-34996253D01*
X73716692Y-35168890D01*
X73569890Y-35315692D01*
X73569887Y-35315694D01*
X73569886Y-35315695D01*
X73428373Y-35410251D01*
X73397253Y-35431045D01*
X73205441Y-35510496D01*
X73001811Y-35551000D01*
X72794189Y-35551000D01*
X72590559Y-35510496D01*
X72398747Y-35431045D01*
X72367627Y-35410251D01*
X72226114Y-35315695D01*
X72226113Y-35315694D01*
X72226110Y-35315692D01*
X72079308Y-35168890D01*
X71963955Y-34996253D01*
X71884504Y-34804441D01*
X71844000Y-34600811D01*
X71844000Y-34393189D01*
X71884504Y-34189559D01*
X71963955Y-33997747D01*
X72023254Y-33909000D01*
X72079305Y-33825114D01*
X72079306Y-33825113D01*
X72079308Y-33825110D01*
X72226110Y-33678308D01*
X72323063Y-33613526D01*
X72398744Y-33562957D01*
X72398747Y-33562955D01*
X72590559Y-33483504D01*
X72794189Y-33443000D01*
X73001811Y-33443000D01*
X73205441Y-33483504D01*
X73205441Y-33483504D01*
G37*
G36*
X76405441Y-33483504D02*
X76597253Y-33562955D01*
X76597256Y-33562957D01*
X76672938Y-33613526D01*
X76769890Y-33678308D01*
X76916692Y-33825110D01*
X76916694Y-33825113D01*
X76916695Y-33825114D01*
X76972746Y-33909000D01*
X77032045Y-33997747D01*
X77111496Y-34189559D01*
X77152000Y-34393189D01*
X77152000Y-34600811D01*
X77111496Y-34804441D01*
X77032045Y-34996253D01*
X76916692Y-35168890D01*
X76769890Y-35315692D01*
X76769887Y-35315694D01*
X76769886Y-35315695D01*
X76628373Y-35410251D01*
X76597253Y-35431045D01*
X76405441Y-35510496D01*
X76201811Y-35551000D01*
X75994189Y-35551000D01*
X75790559Y-35510496D01*
X75598747Y-35431045D01*
X75567627Y-35410251D01*
X75426114Y-35315695D01*
X75426113Y-35315694D01*
X75426110Y-35315692D01*
X75279308Y-35168890D01*
X75163955Y-34996253D01*
X75084504Y-34804441D01*
X75044000Y-34600811D01*
X75044000Y-34393189D01*
X75084504Y-34189559D01*
X75163955Y-33997747D01*
X75223254Y-33909000D01*
X75279305Y-33825114D01*
X75279306Y-33825113D01*
X75279308Y-33825110D01*
X75426110Y-33678308D01*
X75523063Y-33613526D01*
X75598744Y-33562957D01*
X75598747Y-33562955D01*
X75790559Y-33483504D01*
X75994189Y-33443000D01*
X76201811Y-33443000D01*
X76405441Y-33483504D01*
X76405441Y-33483504D01*
G37*
G36*
X90546307Y-33540574D02*
X90577793Y-33543675D01*
X90587725Y-33546688D01*
X90632826Y-33560369D01*
X90641705Y-33564048D01*
X90665738Y-33568830D01*
X90690242Y-33568832D01*
X90714276Y-33564054D01*
X90723164Y-33560372D01*
X90768275Y-33546688D01*
X90778207Y-33543675D01*
X90809693Y-33540574D01*
X90834141Y-33538166D01*
X91321859Y-33538166D01*
X91340195Y-33539972D01*
X91352448Y-33540574D01*
X91370868Y-33540574D01*
X91413018Y-33544725D01*
X91426802Y-33546083D01*
X91426803Y-33546083D01*
X91432944Y-33546688D01*
X91517025Y-33563413D01*
X91522928Y-33565204D01*
X91522935Y-33565205D01*
X91564255Y-33577740D01*
X91576721Y-33581521D01*
X91655922Y-33614327D01*
X91661365Y-33617236D01*
X91661369Y-33617238D01*
X91705496Y-33640824D01*
X91705501Y-33640827D01*
X91710941Y-33643735D01*
X91782223Y-33691364D01*
X91786993Y-33695279D01*
X91786995Y-33695280D01*
X91795649Y-33702382D01*
X91830447Y-33730941D01*
X91891059Y-33791553D01*
X91894977Y-33796327D01*
X91894979Y-33796329D01*
X91926720Y-33835005D01*
X91930636Y-33839777D01*
X91978265Y-33911059D01*
X91981173Y-33916499D01*
X91981176Y-33916504D01*
X92004762Y-33960631D01*
X92007673Y-33966078D01*
X92040479Y-34045279D01*
X92042271Y-34051187D01*
X92056795Y-34099065D01*
X92056796Y-34099072D01*
X92058587Y-34104975D01*
X92075312Y-34189056D01*
X92081426Y-34251132D01*
X92081426Y-34269552D01*
X92082028Y-34281805D01*
X92083834Y-34300141D01*
X92083834Y-34787859D01*
X92082028Y-34806195D01*
X92081426Y-34818448D01*
X92081426Y-34836868D01*
X92075312Y-34898944D01*
X92058587Y-34983025D01*
X92056796Y-34988928D01*
X92056795Y-34988935D01*
X92054574Y-34996256D01*
X92040479Y-35042721D01*
X92007673Y-35121922D01*
X92004764Y-35127365D01*
X92004762Y-35127369D01*
X91981176Y-35171496D01*
X91981173Y-35171501D01*
X91978265Y-35176941D01*
X91930636Y-35248223D01*
X91891059Y-35296447D01*
X91830447Y-35357059D01*
X91782223Y-35396636D01*
X91710941Y-35444265D01*
X91705501Y-35447173D01*
X91705496Y-35447176D01*
X91661369Y-35470762D01*
X91661365Y-35470764D01*
X91655922Y-35473673D01*
X91576721Y-35506479D01*
X91570812Y-35508271D01*
X91570813Y-35508271D01*
X91522935Y-35522795D01*
X91522928Y-35522796D01*
X91517025Y-35524587D01*
X91432944Y-35541312D01*
X91426803Y-35541917D01*
X91426802Y-35541917D01*
X91413018Y-35543275D01*
X91370868Y-35547426D01*
X91352448Y-35547426D01*
X91340195Y-35548028D01*
X91321859Y-35549834D01*
X90834141Y-35549834D01*
X90797518Y-35546227D01*
X90778207Y-35544325D01*
X90730328Y-35529801D01*
X90723174Y-35527631D01*
X90714295Y-35523952D01*
X90690262Y-35519170D01*
X90665758Y-35519168D01*
X90641724Y-35523946D01*
X90632836Y-35527628D01*
X90625671Y-35529801D01*
X90625672Y-35529801D01*
X90577793Y-35544325D01*
X90558482Y-35546227D01*
X90521859Y-35549834D01*
X90034141Y-35549834D01*
X90015805Y-35548028D01*
X90003552Y-35547426D01*
X89985132Y-35547426D01*
X89942982Y-35543275D01*
X89929198Y-35541917D01*
X89929197Y-35541917D01*
X89923056Y-35541312D01*
X89838975Y-35524587D01*
X89833072Y-35522796D01*
X89833065Y-35522795D01*
X89785187Y-35508271D01*
X89785188Y-35508271D01*
X89779279Y-35506479D01*
X89700078Y-35473673D01*
X89694635Y-35470764D01*
X89694631Y-35470762D01*
X89650504Y-35447176D01*
X89650499Y-35447173D01*
X89645059Y-35444265D01*
X89573777Y-35396636D01*
X89525553Y-35357059D01*
X89464941Y-35296447D01*
X89425364Y-35248223D01*
X89377735Y-35176941D01*
X89374827Y-35171501D01*
X89374824Y-35171496D01*
X89351238Y-35127369D01*
X89351236Y-35127365D01*
X89348327Y-35121922D01*
X89315521Y-35042721D01*
X89301426Y-34996256D01*
X89299205Y-34988935D01*
X89299204Y-34988928D01*
X89297413Y-34983025D01*
X89280688Y-34898944D01*
X89274574Y-34836868D01*
X89274574Y-34818448D01*
X89273972Y-34806195D01*
X89272166Y-34787859D01*
X89272166Y-34300141D01*
X89273972Y-34281805D01*
X89274574Y-34269552D01*
X89274574Y-34251132D01*
X89280688Y-34189056D01*
X89297413Y-34104975D01*
X89299204Y-34099072D01*
X89299205Y-34099065D01*
X89313729Y-34051187D01*
X89315521Y-34045279D01*
X89348327Y-33966078D01*
X89351238Y-33960631D01*
X89374824Y-33916504D01*
X89374827Y-33916499D01*
X89377735Y-33911059D01*
X89425364Y-33839777D01*
X89429280Y-33835005D01*
X89461021Y-33796329D01*
X89461023Y-33796327D01*
X89464941Y-33791553D01*
X89525553Y-33730941D01*
X89560352Y-33702382D01*
X89569005Y-33695280D01*
X89569007Y-33695279D01*
X89573777Y-33691364D01*
X89645059Y-33643735D01*
X89650499Y-33640827D01*
X89650504Y-33640824D01*
X89694631Y-33617238D01*
X89694635Y-33617236D01*
X89700078Y-33614327D01*
X89779279Y-33581521D01*
X89791745Y-33577740D01*
X89833065Y-33565205D01*
X89833072Y-33565204D01*
X89838975Y-33563413D01*
X89923056Y-33546688D01*
X89929197Y-33546083D01*
X89929198Y-33546083D01*
X89942982Y-33544725D01*
X89985132Y-33540574D01*
X90003552Y-33540574D01*
X90015805Y-33539972D01*
X90034141Y-33538166D01*
X90521859Y-33538166D01*
X90546307Y-33540574D01*
X90546307Y-33540574D01*
G37*
G36*
X102719388Y-32860084D02*
X102822620Y-32870251D01*
X102955073Y-32910430D01*
X103021301Y-32930520D01*
X103119172Y-32982834D01*
X103204404Y-33028391D01*
X103204406Y-33028392D01*
X103204405Y-33028392D01*
X103364896Y-33160104D01*
X103496608Y-33320595D01*
X103594480Y-33503699D01*
X103594480Y-33503700D01*
X103654749Y-33702380D01*
X103675099Y-33909000D01*
X103654749Y-34115620D01*
X103632472Y-34189056D01*
X103594480Y-34314301D01*
X103542166Y-34412172D01*
X103496609Y-34497404D01*
X103364896Y-34657896D01*
X103204404Y-34789609D01*
X103150450Y-34818448D01*
X103021301Y-34887480D01*
X102955073Y-34907570D01*
X102822620Y-34947749D01*
X102719388Y-34957916D01*
X102667773Y-34963000D01*
X102564227Y-34963000D01*
X102512612Y-34957916D01*
X102409380Y-34947749D01*
X102276927Y-34907570D01*
X102210699Y-34887480D01*
X102081550Y-34818448D01*
X102027596Y-34789609D01*
X101867104Y-34657896D01*
X101735391Y-34497404D01*
X101689834Y-34412172D01*
X101637520Y-34314301D01*
X101599528Y-34189056D01*
X101577251Y-34115620D01*
X101556901Y-33909000D01*
X101577251Y-33702380D01*
X101637520Y-33503700D01*
X101637520Y-33503699D01*
X101735392Y-33320595D01*
X101867104Y-33160104D01*
X102027595Y-33028392D01*
X102027594Y-33028392D01*
X102027596Y-33028391D01*
X102112828Y-32982834D01*
X102210699Y-32930520D01*
X102276927Y-32910430D01*
X102409380Y-32870251D01*
X102512612Y-32860084D01*
X102564227Y-32855000D01*
X102667773Y-32855000D01*
X102719388Y-32860084D01*
X102719388Y-32860084D01*
G37*
G36*
X110339388Y-32860084D02*
X110442620Y-32870251D01*
X110575073Y-32910430D01*
X110641301Y-32930520D01*
X110739172Y-32982834D01*
X110824404Y-33028391D01*
X110824406Y-33028392D01*
X110824405Y-33028392D01*
X110984896Y-33160104D01*
X111116608Y-33320595D01*
X111214480Y-33503699D01*
X111214480Y-33503700D01*
X111274749Y-33702380D01*
X111295099Y-33909000D01*
X111274749Y-34115620D01*
X111252472Y-34189056D01*
X111214480Y-34314301D01*
X111162166Y-34412172D01*
X111116609Y-34497404D01*
X110984896Y-34657896D01*
X110824404Y-34789609D01*
X110770450Y-34818448D01*
X110641301Y-34887480D01*
X110575073Y-34907570D01*
X110442620Y-34947749D01*
X110339388Y-34957916D01*
X110287773Y-34963000D01*
X110184227Y-34963000D01*
X110132612Y-34957916D01*
X110029380Y-34947749D01*
X109896927Y-34907570D01*
X109830699Y-34887480D01*
X109701550Y-34818448D01*
X109647596Y-34789609D01*
X109487104Y-34657896D01*
X109355391Y-34497404D01*
X109309834Y-34412172D01*
X109257520Y-34314301D01*
X109219528Y-34189056D01*
X109197251Y-34115620D01*
X109176901Y-33909000D01*
X109197251Y-33702380D01*
X109257520Y-33503700D01*
X109257520Y-33503699D01*
X109355392Y-33320595D01*
X109487104Y-33160104D01*
X109647595Y-33028392D01*
X109647594Y-33028392D01*
X109647596Y-33028391D01*
X109732828Y-32982834D01*
X109830699Y-32930520D01*
X109896927Y-32910430D01*
X110029380Y-32870251D01*
X110132612Y-32860084D01*
X110184227Y-32855000D01*
X110287773Y-32855000D01*
X110339388Y-32860084D01*
X110339388Y-32860084D01*
G37*
G36*
X110339388Y-30320084D02*
X110442620Y-30330251D01*
X110575073Y-30370430D01*
X110641301Y-30390520D01*
X110739172Y-30442834D01*
X110824404Y-30488391D01*
X110824406Y-30488392D01*
X110824405Y-30488392D01*
X110984896Y-30620104D01*
X111116608Y-30780595D01*
X111214480Y-30963699D01*
X111214480Y-30963700D01*
X111274749Y-31162380D01*
X111295099Y-31369000D01*
X111274749Y-31575620D01*
X111234570Y-31708073D01*
X111214480Y-31774301D01*
X111162166Y-31872172D01*
X111116609Y-31957404D01*
X110984896Y-32117896D01*
X110824404Y-32249609D01*
X110739172Y-32295166D01*
X110641301Y-32347480D01*
X110575073Y-32367570D01*
X110442620Y-32407749D01*
X110339388Y-32417916D01*
X110287773Y-32423000D01*
X110184227Y-32423000D01*
X110132612Y-32417916D01*
X110029380Y-32407749D01*
X109896927Y-32367570D01*
X109830699Y-32347480D01*
X109732828Y-32295166D01*
X109647596Y-32249609D01*
X109487104Y-32117896D01*
X109355391Y-31957404D01*
X109309834Y-31872172D01*
X109257520Y-31774301D01*
X109237430Y-31708073D01*
X109197251Y-31575620D01*
X109176901Y-31369000D01*
X109197251Y-31162380D01*
X109257520Y-30963700D01*
X109257520Y-30963699D01*
X109355392Y-30780595D01*
X109487104Y-30620104D01*
X109647595Y-30488392D01*
X109647594Y-30488392D01*
X109647596Y-30488391D01*
X109732828Y-30442834D01*
X109830699Y-30390520D01*
X109896927Y-30370430D01*
X110029380Y-30330251D01*
X110132612Y-30320084D01*
X110184227Y-30315000D01*
X110287773Y-30315000D01*
X110339388Y-30320084D01*
X110339388Y-30320084D01*
G37*
G36*
X102719388Y-30320084D02*
X102822620Y-30330251D01*
X102955073Y-30370430D01*
X103021301Y-30390520D01*
X103119172Y-30442834D01*
X103204404Y-30488391D01*
X103204406Y-30488392D01*
X103204405Y-30488392D01*
X103364896Y-30620104D01*
X103496608Y-30780595D01*
X103594480Y-30963699D01*
X103594480Y-30963700D01*
X103654749Y-31162380D01*
X103675099Y-31369000D01*
X103654749Y-31575620D01*
X103614570Y-31708073D01*
X103594480Y-31774301D01*
X103542166Y-31872172D01*
X103496609Y-31957404D01*
X103364896Y-32117896D01*
X103204404Y-32249609D01*
X103119172Y-32295166D01*
X103021301Y-32347480D01*
X102955073Y-32367570D01*
X102822620Y-32407749D01*
X102719388Y-32417916D01*
X102667773Y-32423000D01*
X102564227Y-32423000D01*
X102512612Y-32417916D01*
X102409380Y-32407749D01*
X102276927Y-32367570D01*
X102210699Y-32347480D01*
X102112828Y-32295166D01*
X102027596Y-32249609D01*
X101867104Y-32117896D01*
X101735391Y-31957404D01*
X101689834Y-31872172D01*
X101637520Y-31774301D01*
X101617430Y-31708073D01*
X101577251Y-31575620D01*
X101556901Y-31369000D01*
X101577251Y-31162380D01*
X101637520Y-30963700D01*
X101637520Y-30963699D01*
X101735392Y-30780595D01*
X101867104Y-30620104D01*
X102027595Y-30488392D01*
X102027594Y-30488392D01*
X102027596Y-30488391D01*
X102112828Y-30442834D01*
X102210699Y-30390520D01*
X102276927Y-30370430D01*
X102409380Y-30330251D01*
X102512612Y-30320084D01*
X102564227Y-30315000D01*
X102667773Y-30315000D01*
X102719388Y-30320084D01*
X102719388Y-30320084D01*
G37*
G36*
X110339388Y-27780084D02*
X110442620Y-27790251D01*
X110575073Y-27830430D01*
X110641301Y-27850520D01*
X110739172Y-27902834D01*
X110824404Y-27948391D01*
X110824406Y-27948392D01*
X110824405Y-27948392D01*
X110984896Y-28080104D01*
X111116608Y-28240595D01*
X111214480Y-28423699D01*
X111214480Y-28423700D01*
X111274749Y-28622380D01*
X111295099Y-28829000D01*
X111274749Y-29035620D01*
X111234570Y-29168073D01*
X111214480Y-29234301D01*
X111162166Y-29332172D01*
X111116609Y-29417404D01*
X110984896Y-29577896D01*
X110824404Y-29709609D01*
X110739172Y-29755166D01*
X110641301Y-29807480D01*
X110575073Y-29827570D01*
X110442620Y-29867749D01*
X110339388Y-29877916D01*
X110287773Y-29883000D01*
X110184227Y-29883000D01*
X110132612Y-29877916D01*
X110029380Y-29867749D01*
X109896927Y-29827570D01*
X109830699Y-29807480D01*
X109732828Y-29755166D01*
X109647596Y-29709609D01*
X109487104Y-29577896D01*
X109355391Y-29417404D01*
X109309834Y-29332172D01*
X109257520Y-29234301D01*
X109237430Y-29168073D01*
X109197251Y-29035620D01*
X109176901Y-28829000D01*
X109197251Y-28622380D01*
X109257520Y-28423700D01*
X109257520Y-28423699D01*
X109355392Y-28240595D01*
X109487104Y-28080104D01*
X109647595Y-27948392D01*
X109647594Y-27948392D01*
X109647596Y-27948391D01*
X109732828Y-27902834D01*
X109830699Y-27850520D01*
X109896927Y-27830430D01*
X110029380Y-27790251D01*
X110132612Y-27780084D01*
X110184227Y-27775000D01*
X110287773Y-27775000D01*
X110339388Y-27780084D01*
X110339388Y-27780084D01*
G37*
G36*
X103670000Y-29883000D02*
X101562000Y-29883000D01*
X101562000Y-27775000D01*
X103670000Y-27775000D01*
X103670000Y-29883000D01*
X103670000Y-29883000D01*
G37*
M02*
