G04 (created by PCBNEW-RS274X (2011-07-08 BZR 3044)-stable) date 29/07/2012 21:08:13*
G01*
G70*
G90*
%MOIN*%
G04 Gerber Fmt 3.4, Leading zero omitted, Abs format*
%FSLAX34Y34*%
G04 APERTURE LIST*
%ADD10C,0.006000*%
%ADD11C,0.012000*%
%ADD12C,0.017700*%
%ADD13C,0.023600*%
%ADD14C,0.015000*%
%ADD15C,0.010000*%
%ADD16C,0.005000*%
%ADD17C,0.005900*%
%ADD18C,0.008000*%
G04 APERTURE END LIST*
G54D10*
G54D11*
X27076Y-10198D02*
X27076Y-10484D01*
X26695Y-10513D01*
X26733Y-10484D01*
X26771Y-10427D01*
X26771Y-10284D01*
X26733Y-10227D01*
X26695Y-10198D01*
X26619Y-10170D01*
X26429Y-10170D01*
X26352Y-10198D01*
X26314Y-10227D01*
X26276Y-10284D01*
X26276Y-10427D01*
X26314Y-10484D01*
X26352Y-10513D01*
X27076Y-09627D02*
X27076Y-09913D01*
X26695Y-09942D01*
X26733Y-09913D01*
X26771Y-09856D01*
X26771Y-09713D01*
X26733Y-09656D01*
X26695Y-09627D01*
X26619Y-09599D01*
X26429Y-09599D01*
X26352Y-09627D01*
X26314Y-09656D01*
X26276Y-09713D01*
X26276Y-09856D01*
X26314Y-09913D01*
X26352Y-09942D01*
X26276Y-09314D02*
X26276Y-09199D01*
X26314Y-09142D01*
X26352Y-09114D01*
X26467Y-09056D01*
X26619Y-09028D01*
X26924Y-09028D01*
X27000Y-09056D01*
X27038Y-09085D01*
X27076Y-09142D01*
X27076Y-09256D01*
X27038Y-09314D01*
X27000Y-09342D01*
X26924Y-09371D01*
X26733Y-09371D01*
X26657Y-09342D01*
X26619Y-09314D01*
X26581Y-09256D01*
X26581Y-09142D01*
X26619Y-09085D01*
X26657Y-09056D01*
X26733Y-09028D01*
X27000Y-08800D02*
X27038Y-08771D01*
X27076Y-08714D01*
X27076Y-08571D01*
X27038Y-08514D01*
X27000Y-08485D01*
X26924Y-08457D01*
X26848Y-08457D01*
X26733Y-08485D01*
X26276Y-08828D01*
X26276Y-08457D01*
X26810Y-07943D02*
X26276Y-07943D01*
X27114Y-08086D02*
X26543Y-08229D01*
X26543Y-07857D01*
G54D12*
X22883Y-17992D02*
X22714Y-18648D01*
X22545Y-17992D01*
X22343Y-17664D02*
X21904Y-17664D01*
X22140Y-18039D01*
X22039Y-18039D01*
X21971Y-18086D01*
X21938Y-18133D01*
X21904Y-18227D01*
X21904Y-18461D01*
X21938Y-18555D01*
X21971Y-18601D01*
X22039Y-18648D01*
X22241Y-18648D01*
X22309Y-18601D01*
X22343Y-18555D01*
X21600Y-18555D02*
X21566Y-18601D01*
X21600Y-18648D01*
X21634Y-18601D01*
X21600Y-18555D01*
X21600Y-18648D01*
X21127Y-17664D02*
X21060Y-17664D01*
X20992Y-17711D01*
X20958Y-17758D01*
X20925Y-17852D01*
X20891Y-18039D01*
X20891Y-18273D01*
X20925Y-18461D01*
X20958Y-18555D01*
X20992Y-18601D01*
X21060Y-18648D01*
X21127Y-18648D01*
X21195Y-18601D01*
X21228Y-18555D01*
X21262Y-18461D01*
X21296Y-18273D01*
X21296Y-18039D01*
X21262Y-17852D01*
X21228Y-17758D01*
X21195Y-17711D01*
X21127Y-17664D01*
X20081Y-17758D02*
X20047Y-17711D01*
X19980Y-17664D01*
X19811Y-17664D01*
X19743Y-17711D01*
X19710Y-17758D01*
X19676Y-17852D01*
X19676Y-17945D01*
X19710Y-18086D01*
X20115Y-18648D01*
X19676Y-18648D01*
X19237Y-17664D02*
X19170Y-17664D01*
X19102Y-17711D01*
X19068Y-17758D01*
X19035Y-17852D01*
X19001Y-18039D01*
X19001Y-18273D01*
X19035Y-18461D01*
X19068Y-18555D01*
X19102Y-18601D01*
X19170Y-18648D01*
X19237Y-18648D01*
X19305Y-18601D01*
X19338Y-18555D01*
X19372Y-18461D01*
X19406Y-18273D01*
X19406Y-18039D01*
X19372Y-17852D01*
X19338Y-17758D01*
X19305Y-17711D01*
X19237Y-17664D01*
X18326Y-18648D02*
X18731Y-18648D01*
X18528Y-18648D02*
X18528Y-17664D01*
X18596Y-17805D01*
X18663Y-17899D01*
X18731Y-17945D01*
X18056Y-17758D02*
X18022Y-17711D01*
X17955Y-17664D01*
X17786Y-17664D01*
X17718Y-17711D01*
X17685Y-17758D01*
X17651Y-17852D01*
X17651Y-17945D01*
X17685Y-18086D01*
X18090Y-18648D01*
X17651Y-18648D01*
G54D13*
X22810Y-16890D02*
X22322Y-16890D01*
X22907Y-17228D02*
X22566Y-16047D01*
X22225Y-17228D01*
X21883Y-17228D02*
X21883Y-16047D01*
X21542Y-16890D01*
X21201Y-16047D01*
X21201Y-17228D01*
X20713Y-17228D02*
X20713Y-16047D01*
X20225Y-17228D02*
X20225Y-16047D01*
X19835Y-16047D01*
X19738Y-16103D01*
X19689Y-16159D01*
X19640Y-16271D01*
X19640Y-16440D01*
X19689Y-16553D01*
X19738Y-16609D01*
X19835Y-16665D01*
X20225Y-16665D01*
X19250Y-17171D02*
X19104Y-17228D01*
X18860Y-17228D01*
X18762Y-17171D01*
X18714Y-17115D01*
X18665Y-17003D01*
X18665Y-16890D01*
X18714Y-16778D01*
X18762Y-16721D01*
X18860Y-16665D01*
X19055Y-16609D01*
X19152Y-16553D01*
X19201Y-16496D01*
X19250Y-16384D01*
X19250Y-16271D01*
X19201Y-16159D01*
X19152Y-16103D01*
X19055Y-16047D01*
X18811Y-16047D01*
X18665Y-16103D01*
X18275Y-16159D02*
X18226Y-16103D01*
X18129Y-16047D01*
X17885Y-16047D01*
X17787Y-16103D01*
X17739Y-16159D01*
X17690Y-16271D01*
X17690Y-16384D01*
X17739Y-16553D01*
X18324Y-17228D01*
X17690Y-17228D01*
G54D14*
X13500Y-06000D02*
X27750Y-06000D01*
X13500Y-19000D02*
X27750Y-19000D01*
X13500Y-19000D02*
X13500Y-06000D01*
X27750Y-06000D02*
X27750Y-19000D01*
G54D15*
X22783Y-11976D02*
X18217Y-11976D01*
X18217Y-09024D02*
X22783Y-09024D01*
G54D16*
X22500Y-11980D02*
X22500Y-12410D01*
X22000Y-11980D02*
X22000Y-12410D01*
X21500Y-11980D02*
X21500Y-12410D01*
X18500Y-08590D02*
X18500Y-09020D01*
G54D15*
X22783Y-09024D02*
X22783Y-11976D01*
X18217Y-11976D02*
X18217Y-09024D01*
G54D16*
X18500Y-11980D02*
X18500Y-12410D01*
X19000Y-11980D02*
X19000Y-12410D01*
X19500Y-11980D02*
X19500Y-12410D01*
X20000Y-12410D02*
X20000Y-11980D01*
X20500Y-12410D02*
X20500Y-11980D01*
X21000Y-12410D02*
X21000Y-11980D01*
X22500Y-09020D02*
X22500Y-08590D01*
X22000Y-09020D02*
X22000Y-08590D01*
X21500Y-09020D02*
X21500Y-08590D01*
X19000Y-09020D02*
X19000Y-08590D01*
X19500Y-08590D02*
X19500Y-09020D01*
X21000Y-08590D02*
X21000Y-09020D01*
X20500Y-08590D02*
X20500Y-09020D01*
X20000Y-08590D02*
X20000Y-09020D01*
G54D15*
X18869Y-09458D02*
X18865Y-09494D01*
X18854Y-09528D01*
X18837Y-09560D01*
X18814Y-09589D01*
X18787Y-09612D01*
X18755Y-09629D01*
X18720Y-09640D01*
X18684Y-09643D01*
X18649Y-09640D01*
X18614Y-09630D01*
X18582Y-09613D01*
X18553Y-09590D01*
X18530Y-09563D01*
X18513Y-09531D01*
X18502Y-09496D01*
X18498Y-09460D01*
X18501Y-09425D01*
X18511Y-09390D01*
X18527Y-09358D01*
X18550Y-09329D01*
X18577Y-09306D01*
X18609Y-09288D01*
X18644Y-09277D01*
X18680Y-09273D01*
X18715Y-09275D01*
X18750Y-09285D01*
X18782Y-09301D01*
X18811Y-09324D01*
X18834Y-09351D01*
X18852Y-09383D01*
X18864Y-09417D01*
X18868Y-09453D01*
X18869Y-09458D01*
G54D16*
X25000Y-08650D02*
X24999Y-08659D01*
X24996Y-08669D01*
X24991Y-08677D01*
X24985Y-08685D01*
X24977Y-08691D01*
X24969Y-08696D01*
X24960Y-08698D01*
X24950Y-08699D01*
X24941Y-08699D01*
X24932Y-08696D01*
X24923Y-08691D01*
X24916Y-08685D01*
X24909Y-08678D01*
X24905Y-08669D01*
X24902Y-08660D01*
X24901Y-08650D01*
X24901Y-08641D01*
X24904Y-08632D01*
X24908Y-08623D01*
X24915Y-08616D01*
X24922Y-08609D01*
X24930Y-08605D01*
X24940Y-08602D01*
X24949Y-08601D01*
X24958Y-08601D01*
X24968Y-08604D01*
X24976Y-08608D01*
X24984Y-08614D01*
X24990Y-08622D01*
X24995Y-08630D01*
X24998Y-08639D01*
X24999Y-08649D01*
X25000Y-08650D01*
X24950Y-08200D02*
X24950Y-08600D01*
X24950Y-08600D02*
X25550Y-08600D01*
X25550Y-08600D02*
X25550Y-08200D01*
X25550Y-07800D02*
X25550Y-07400D01*
X25550Y-07400D02*
X24950Y-07400D01*
X24950Y-07400D02*
X24950Y-07800D01*
X24600Y-08600D02*
X24599Y-08609D01*
X24596Y-08619D01*
X24591Y-08627D01*
X24585Y-08635D01*
X24577Y-08641D01*
X24569Y-08646D01*
X24560Y-08648D01*
X24550Y-08649D01*
X24541Y-08649D01*
X24532Y-08646D01*
X24523Y-08641D01*
X24516Y-08635D01*
X24509Y-08628D01*
X24505Y-08619D01*
X24502Y-08610D01*
X24501Y-08600D01*
X24501Y-08591D01*
X24504Y-08582D01*
X24508Y-08573D01*
X24515Y-08566D01*
X24522Y-08559D01*
X24530Y-08555D01*
X24540Y-08552D01*
X24549Y-08551D01*
X24558Y-08551D01*
X24568Y-08554D01*
X24576Y-08558D01*
X24584Y-08564D01*
X24590Y-08572D01*
X24595Y-08580D01*
X24598Y-08589D01*
X24599Y-08599D01*
X24600Y-08600D01*
X24550Y-09050D02*
X24550Y-08650D01*
X24550Y-08650D02*
X23950Y-08650D01*
X23950Y-08650D02*
X23950Y-09050D01*
X23950Y-09450D02*
X23950Y-09850D01*
X23950Y-09850D02*
X24550Y-09850D01*
X24550Y-09850D02*
X24550Y-09450D01*
X24100Y-14600D02*
X24099Y-14609D01*
X24096Y-14619D01*
X24091Y-14627D01*
X24085Y-14635D01*
X24077Y-14641D01*
X24069Y-14646D01*
X24060Y-14648D01*
X24050Y-14649D01*
X24041Y-14649D01*
X24032Y-14646D01*
X24023Y-14641D01*
X24016Y-14635D01*
X24009Y-14628D01*
X24005Y-14619D01*
X24002Y-14610D01*
X24001Y-14600D01*
X24001Y-14591D01*
X24004Y-14582D01*
X24008Y-14573D01*
X24015Y-14566D01*
X24022Y-14559D01*
X24030Y-14555D01*
X24040Y-14552D01*
X24049Y-14551D01*
X24058Y-14551D01*
X24068Y-14554D01*
X24076Y-14558D01*
X24084Y-14564D01*
X24090Y-14572D01*
X24095Y-14580D01*
X24098Y-14589D01*
X24099Y-14599D01*
X24100Y-14600D01*
X24050Y-15050D02*
X24050Y-14650D01*
X24050Y-14650D02*
X23450Y-14650D01*
X23450Y-14650D02*
X23450Y-15050D01*
X23450Y-15450D02*
X23450Y-15850D01*
X23450Y-15850D02*
X24050Y-15850D01*
X24050Y-15850D02*
X24050Y-15450D01*
G54D11*
X24250Y-11500D02*
X24250Y-11100D01*
X24250Y-11100D02*
X24650Y-11100D01*
X24650Y-11100D02*
X24650Y-07900D01*
X24650Y-07900D02*
X23850Y-07900D01*
X23850Y-07900D02*
X23850Y-11100D01*
X23850Y-11100D02*
X24250Y-11100D01*
X24450Y-11100D02*
X24650Y-10900D01*
X24250Y-07500D02*
X24250Y-07900D01*
G54D17*
X20725Y-10724D02*
X20725Y-10963D01*
X20711Y-10991D01*
X20697Y-11005D01*
X20669Y-11019D01*
X20612Y-11019D01*
X20584Y-11005D01*
X20570Y-10991D01*
X20556Y-10963D01*
X20556Y-10724D01*
X20261Y-11019D02*
X20430Y-11019D01*
X20346Y-11019D02*
X20346Y-10724D01*
X20374Y-10766D01*
X20402Y-10794D01*
X20430Y-10808D01*
X21750Y-10219D02*
X21750Y-09924D01*
X21637Y-09924D01*
X21609Y-09938D01*
X21595Y-09952D01*
X21581Y-09980D01*
X21581Y-10022D01*
X21595Y-10050D01*
X21609Y-10064D01*
X21637Y-10078D01*
X21750Y-10078D01*
X21455Y-10219D02*
X21455Y-09924D01*
X21146Y-10191D02*
X21160Y-10205D01*
X21202Y-10219D01*
X21230Y-10219D01*
X21273Y-10205D01*
X21301Y-10177D01*
X21315Y-10149D01*
X21329Y-10092D01*
X21329Y-10050D01*
X21315Y-09994D01*
X21301Y-09966D01*
X21273Y-09938D01*
X21230Y-09924D01*
X21202Y-09924D01*
X21160Y-09938D01*
X21146Y-09952D01*
X20865Y-10219D02*
X21034Y-10219D01*
X20950Y-10219D02*
X20950Y-09924D01*
X20978Y-09966D01*
X21006Y-09994D01*
X21034Y-10008D01*
X20612Y-09924D02*
X20669Y-09924D01*
X20697Y-09938D01*
X20711Y-09952D01*
X20739Y-09994D01*
X20753Y-10050D01*
X20753Y-10163D01*
X20739Y-10191D01*
X20725Y-10205D01*
X20697Y-10219D01*
X20640Y-10219D01*
X20612Y-10205D01*
X20598Y-10191D01*
X20584Y-10163D01*
X20584Y-10092D01*
X20598Y-10064D01*
X20612Y-10050D01*
X20640Y-10036D01*
X20697Y-10036D01*
X20725Y-10050D01*
X20739Y-10064D01*
X20753Y-10092D01*
X20359Y-10064D02*
X20458Y-10064D01*
X20458Y-10219D02*
X20458Y-09924D01*
X20317Y-09924D01*
X20078Y-09924D02*
X20135Y-09924D01*
X20163Y-09938D01*
X20177Y-09952D01*
X20205Y-09994D01*
X20219Y-10050D01*
X20219Y-10163D01*
X20205Y-10191D01*
X20191Y-10205D01*
X20163Y-10219D01*
X20106Y-10219D01*
X20078Y-10205D01*
X20064Y-10191D01*
X20050Y-10163D01*
X20050Y-10092D01*
X20064Y-10064D01*
X20078Y-10050D01*
X20106Y-10036D01*
X20163Y-10036D01*
X20191Y-10050D01*
X20205Y-10064D01*
X20219Y-10092D01*
X19938Y-09952D02*
X19924Y-09938D01*
X19896Y-09924D01*
X19825Y-09924D01*
X19797Y-09938D01*
X19783Y-09952D01*
X19769Y-09980D01*
X19769Y-10008D01*
X19783Y-10050D01*
X19952Y-10219D01*
X19769Y-10219D01*
X19601Y-10050D02*
X19629Y-10036D01*
X19643Y-10022D01*
X19657Y-09994D01*
X19657Y-09980D01*
X19643Y-09952D01*
X19629Y-09938D01*
X19601Y-09924D01*
X19544Y-09924D01*
X19516Y-09938D01*
X19502Y-09952D01*
X19488Y-09980D01*
X19488Y-09994D01*
X19502Y-10022D01*
X19516Y-10036D01*
X19544Y-10050D01*
X19601Y-10050D01*
X19629Y-10064D01*
X19643Y-10078D01*
X19657Y-10107D01*
X19657Y-10163D01*
X19643Y-10191D01*
X19629Y-10205D01*
X19601Y-10219D01*
X19544Y-10219D01*
X19516Y-10205D01*
X19502Y-10191D01*
X19488Y-10163D01*
X19488Y-10107D01*
X19502Y-10078D01*
X19516Y-10064D01*
X19544Y-10050D01*
X19376Y-10135D02*
X19235Y-10135D01*
X19404Y-10219D02*
X19306Y-09924D01*
X19207Y-10219D01*
G54D16*
X25327Y-07958D02*
X25339Y-07946D01*
X25351Y-07911D01*
X25351Y-07887D01*
X25339Y-07851D01*
X25315Y-07827D01*
X25292Y-07816D01*
X25244Y-07804D01*
X25208Y-07804D01*
X25161Y-07816D01*
X25137Y-07827D01*
X25113Y-07851D01*
X25101Y-07887D01*
X25101Y-07911D01*
X25113Y-07946D01*
X25125Y-07958D01*
X25351Y-08196D02*
X25351Y-08054D01*
X25351Y-08125D02*
X25101Y-08125D01*
X25137Y-08101D01*
X25161Y-08077D01*
X25173Y-08054D01*
X24351Y-09208D02*
X24232Y-09125D01*
X24351Y-09066D02*
X24101Y-09066D01*
X24101Y-09161D01*
X24113Y-09185D01*
X24125Y-09196D01*
X24149Y-09208D01*
X24185Y-09208D01*
X24208Y-09196D01*
X24220Y-09185D01*
X24232Y-09161D01*
X24232Y-09066D01*
X24351Y-09446D02*
X24351Y-09304D01*
X24351Y-09375D02*
X24101Y-09375D01*
X24137Y-09351D01*
X24161Y-09327D01*
X24173Y-09304D01*
X23851Y-15208D02*
X23732Y-15125D01*
X23851Y-15066D02*
X23601Y-15066D01*
X23601Y-15161D01*
X23613Y-15185D01*
X23625Y-15196D01*
X23649Y-15208D01*
X23685Y-15208D01*
X23708Y-15196D01*
X23720Y-15185D01*
X23732Y-15161D01*
X23732Y-15066D01*
X23601Y-15292D02*
X23601Y-15446D01*
X23696Y-15363D01*
X23696Y-15399D01*
X23708Y-15423D01*
X23720Y-15435D01*
X23744Y-15446D01*
X23804Y-15446D01*
X23827Y-15435D01*
X23839Y-15423D01*
X23851Y-15399D01*
X23851Y-15327D01*
X23839Y-15304D01*
X23827Y-15292D01*
G54D18*
X24473Y-09417D02*
X24211Y-09250D01*
X24473Y-09131D02*
X23923Y-09131D01*
X23923Y-09322D01*
X23949Y-09369D01*
X23975Y-09393D01*
X24027Y-09417D01*
X24106Y-09417D01*
X24158Y-09393D01*
X24185Y-09369D01*
X24211Y-09322D01*
X24211Y-09131D01*
X23975Y-09607D02*
X23949Y-09631D01*
X23923Y-09679D01*
X23923Y-09798D01*
X23949Y-09845D01*
X23975Y-09869D01*
X24027Y-09893D01*
X24080Y-09893D01*
X24158Y-09869D01*
X24473Y-09583D01*
X24473Y-09893D01*
M02*
