G04 (created by PCBNEW-RS274X (2011-07-08 BZR 3044)-stable) date 29/07/2012 21:08:13*
G01*
G70*
G90*
%MOIN*%
G04 Gerber Fmt 3.4, Leading zero omitted, Abs format*
%FSLAX34Y34*%
G04 APERTURE LIST*
%ADD10C,0.006000*%
%ADD11R,0.021700X0.056300*%
%ADD12R,0.055000X0.035000*%
%ADD13C,0.177200*%
%ADD14R,0.060000X0.060000*%
%ADD15O,0.078700X0.059100*%
%ADD16C,0.078700*%
%ADD17C,0.056000*%
%ADD18C,0.047200*%
%ADD19C,0.056000*%
%ADD20C,0.070000*%
%ADD21C,0.015700*%
%ADD22C,0.008000*%
G04 APERTURE END LIST*
G54D10*
G54D11*
X18500Y-08606D03*
X19000Y-08606D03*
X19500Y-08606D03*
X20000Y-08606D03*
X20500Y-08606D03*
X21000Y-08606D03*
X21500Y-08606D03*
X22000Y-08606D03*
X22500Y-08606D03*
X22500Y-12394D03*
X22000Y-12394D03*
X21500Y-12394D03*
X21000Y-12394D03*
X20500Y-12394D03*
X20000Y-12394D03*
X19500Y-12394D03*
X19000Y-12394D03*
X18500Y-12394D03*
G54D12*
X25250Y-08375D03*
X25250Y-07625D03*
X24250Y-08875D03*
X24250Y-09625D03*
X23750Y-14875D03*
X23750Y-15625D03*
G54D13*
X16000Y-07450D03*
X16000Y-17450D03*
G54D14*
X17000Y-14650D03*
G54D15*
X17000Y-13550D03*
X17000Y-12500D03*
G54D16*
X17000Y-11400D03*
X17000Y-10300D03*
G54D15*
X16000Y-14100D03*
X16000Y-13000D03*
G54D16*
X16000Y-11950D03*
X16000Y-10850D03*
G54D17*
X24694Y-14659D02*
X24854Y-14819D01*
G54D18*
X24774Y-15761D03*
G54D19*
X24774Y-13912D03*
G54D17*
X24694Y-16508D02*
X24854Y-16668D01*
X23810Y-13799D02*
X23810Y-14025D01*
G54D18*
X23790Y-16588D03*
G54D13*
X25955Y-17927D03*
X26269Y-15250D03*
X25955Y-12593D03*
G54D20*
X24250Y-11500D03*
X24250Y-07500D03*
G54D21*
X23750Y-13972D02*
X23810Y-13912D01*
X19000Y-12000D02*
X19400Y-11600D01*
X19000Y-12394D02*
X19000Y-12000D01*
X23100Y-11600D02*
X23750Y-12250D01*
X23750Y-12250D02*
X23750Y-13852D01*
X23750Y-13852D02*
X23810Y-13912D01*
X19400Y-11600D02*
X23100Y-11600D01*
X23750Y-14875D02*
X23750Y-13972D01*
X24300Y-13500D02*
X24300Y-11550D01*
X24739Y-14739D02*
X24300Y-14300D01*
X24300Y-14300D02*
X24300Y-13500D01*
X24774Y-14739D02*
X24739Y-14739D01*
X24300Y-11550D02*
X24250Y-11500D01*
X19250Y-11250D02*
X24000Y-11250D01*
X18500Y-12394D02*
X18500Y-12000D01*
X19250Y-11250D02*
X19000Y-11500D01*
X18500Y-12000D02*
X19000Y-11500D01*
X24000Y-11250D02*
X24250Y-11500D01*
X19900Y-14100D02*
X20400Y-14100D01*
X20400Y-14100D02*
X21500Y-13000D01*
X21500Y-13000D02*
X21500Y-12394D01*
X16000Y-14100D02*
X19900Y-14100D01*
X17700Y-10200D02*
X20800Y-10200D01*
X17000Y-10300D02*
X17100Y-10200D01*
X17700Y-10200D02*
X17100Y-10200D01*
X21500Y-09500D02*
X21500Y-08606D01*
X20800Y-10200D02*
X21500Y-09500D01*
X23050Y-09100D02*
X23575Y-09625D01*
X22600Y-07850D02*
X21900Y-07850D01*
X23050Y-08300D02*
X22600Y-07850D01*
X21500Y-08606D02*
X21500Y-08250D01*
X21750Y-08000D02*
X21500Y-08250D01*
X23050Y-08300D02*
X23050Y-09100D01*
X21900Y-07850D02*
X21750Y-08000D01*
X23575Y-09625D02*
X24250Y-09625D01*
X16000Y-10050D02*
X16000Y-10850D01*
X16550Y-09500D02*
X17500Y-09500D01*
X16000Y-10050D02*
X16550Y-09500D01*
X21000Y-08606D02*
X21000Y-09350D01*
X21000Y-09350D02*
X20550Y-09800D01*
X20550Y-09800D02*
X17800Y-09800D01*
X17800Y-09800D02*
X17500Y-09500D01*
X15450Y-13550D02*
X17000Y-13550D01*
X20750Y-15250D02*
X15750Y-15250D01*
X15250Y-14750D02*
X15250Y-13750D01*
X15750Y-15250D02*
X15250Y-14750D01*
X22500Y-12394D02*
X22500Y-13500D01*
X15250Y-13750D02*
X15450Y-13550D01*
X22500Y-13500D02*
X20750Y-15250D01*
X22000Y-09650D02*
X22000Y-08606D01*
X17000Y-11400D02*
X17850Y-11400D01*
X17850Y-11400D02*
X18700Y-10550D01*
X18700Y-10550D02*
X21100Y-10550D01*
X21100Y-10550D02*
X22000Y-09650D01*
X22500Y-09750D02*
X22500Y-08606D01*
X17500Y-12500D02*
X19100Y-10900D01*
X21350Y-10900D02*
X22500Y-09750D01*
X19100Y-10900D02*
X21350Y-10900D01*
X17000Y-12500D02*
X17500Y-12500D01*
X22000Y-12394D02*
X22000Y-13250D01*
X20600Y-14650D02*
X17000Y-14650D01*
X20600Y-14650D02*
X22000Y-13250D01*
X22800Y-07350D02*
X23050Y-07350D01*
X23875Y-08875D02*
X24250Y-08875D01*
X23500Y-08500D02*
X23875Y-08875D01*
X23500Y-07800D02*
X23500Y-08500D01*
X23050Y-07350D02*
X23500Y-07800D01*
X21150Y-07350D02*
X22800Y-07350D01*
X22800Y-07350D02*
X22850Y-07350D01*
X20500Y-08000D02*
X20500Y-08606D01*
X21150Y-07350D02*
X20500Y-08000D01*
X25250Y-08875D02*
X25250Y-08375D01*
X24250Y-08875D02*
X25250Y-08875D01*
X25250Y-08875D02*
X25250Y-08750D01*
X24774Y-11976D02*
X25250Y-11500D01*
X16350Y-09000D02*
X15250Y-10100D01*
X15250Y-11200D02*
X16000Y-11950D01*
X15250Y-10100D02*
X15250Y-11200D01*
X17750Y-09000D02*
X16350Y-09000D01*
X18150Y-09400D02*
X17750Y-09000D01*
X20350Y-09400D02*
X18150Y-09400D01*
X20500Y-09250D02*
X20350Y-09400D01*
X20500Y-08606D02*
X20500Y-09250D01*
G54D22*
X25250Y-08875D02*
X25250Y-08750D01*
G54D21*
X24250Y-08750D02*
X24250Y-08875D01*
X24774Y-12000D02*
X24774Y-13912D01*
G54D22*
X25250Y-08375D02*
X25250Y-08500D01*
G54D21*
X24774Y-12000D02*
X24774Y-11976D01*
X24250Y-08875D02*
X24250Y-08800D01*
X25250Y-11500D02*
X25250Y-08750D01*
X16000Y-13000D02*
X14750Y-13000D01*
X14750Y-13500D02*
X14750Y-13000D01*
X14750Y-15000D02*
X14750Y-13500D01*
X15375Y-15625D02*
X14750Y-15000D01*
X23750Y-15625D02*
X15375Y-15625D01*
X14750Y-13000D02*
X14750Y-10000D01*
X16150Y-08600D02*
X14750Y-10000D01*
X18250Y-07750D02*
X17400Y-08600D01*
X19750Y-07750D02*
X18250Y-07750D01*
X17400Y-08600D02*
X16150Y-08600D01*
X19750Y-07750D02*
X20000Y-07750D01*
X16000Y-13000D02*
X17750Y-13000D01*
X20500Y-13000D02*
X20500Y-12394D01*
X20250Y-13250D02*
X20500Y-13000D01*
X18000Y-13250D02*
X20250Y-13250D01*
X17750Y-13000D02*
X18000Y-13250D01*
X23811Y-15625D02*
X24774Y-16588D01*
X23750Y-15625D02*
X23811Y-15625D01*
X23600Y-06850D02*
X24250Y-07500D01*
X20000Y-07750D02*
X20900Y-06850D01*
X20900Y-06850D02*
X23600Y-06850D01*
X20000Y-08606D02*
X20000Y-07750D01*
X25125Y-07500D02*
X25250Y-07625D01*
X24250Y-07500D02*
X25125Y-07500D01*
G54D22*
X20000Y-07750D02*
X20000Y-07750D01*
M02*
