M48
;DRILL file {PCBnew (2011-07-08 BZR 3044)-stable} date 29/07/2012 21:08:30
;FORMAT={-:-/ absolute / metric / decimal}
FMAT,2
METRIC,TZ
T1C0.813
T2C0.899
T3C1.016
T4C2.299
T5C2.499
%
G90
G05
M71
T1
X61.595Y19.050
X61.595Y29.210
T2
X60.427Y42.134
X60.477Y35.336
X62.926Y35.336
X62.926Y37.437
X62.926Y40.033
X62.926Y42.134
T3
X40.640Y27.559
X40.640Y30.353
X40.640Y33.020
X40.640Y35.814
X43.180Y26.162
X43.180Y28.956
X43.180Y31.750
X43.180Y34.417
X43.180Y37.211
T4
X65.926Y31.986
X65.926Y45.535
X66.723Y38.735
T5
X40.640Y18.923
X40.640Y44.323
T0
M30
